<svg data-v-6e9b645d="" class="sketchy-canvas visible" xmlns="http://www.w3.org/2000/svg" xmlns:xlink="http://www.w3.org/1999/xlink" width="1053" height="477" stroke-linecap="round"><defs><clipPath id="ygc95_0_0"><rect x="25" y="25" width="1002.6" height="426.6" transform="matrix(1, 0, 0, 1, 0, 0)"/></clipPath><clipPath id="clipPath2_ygc0__1"><path d="M-511 194 L36 194 L36 421 L-511 421 L-511 194 Z" transform="matrix(1.8, 0, 0, 1.8, 953.8, -315.2)"/></clipPath><clipPath id="clipPath2_ygc0__2"><path d="M-511 194 L36 194 L36 421 L-511 421 L-511 194 Z" transform="matrix(1.8, 0, 0, 1.8, 953.8, -315.2)"/></clipPath><clipPath id="clipPath2_ygc0__3"><path d="M-511 194 L36 194 L36 421 L-511 421 L-511 194 Z" transform="matrix(1.8, 0, 0, 1.8, 953.8, -315.2)"/></clipPath><clipPath id="clipPath2_ygc0__4"><path d="M-511 194 L36 194 L36 421 L-511 421 L-511 194 Z" transform="matrix(1.8, 0, 0, 1.8, 953.8, -315.2)"/></clipPath><clipPath id="clipPath2_ygc0__5"><path d="M-511 194 L36 194 L36 421 L-511 421 L-511 194 Z" transform="matrix(1.8, 0, 0, 1.8, 953.8, -315.2)"/></clipPath><clipPath id="clipPath2_ygc0__6"><path d="M-511 194 L36 194 L36 421 L-511 421 L-511 194 Z" transform="matrix(1.8, 0, 0, 1.8, 953.8, -315.2)"/></clipPath><clipPath id="clipPath2_ygc0__7"><path d="M-511 194 L36 194 L36 421 L-511 421 L-511 194 Z" transform="matrix(1.8, 0, 0, 1.8, 953.8, -315.2)"/></clipPath><clipPath id="clipPath2_ygc0__8"><path d="M-511 194 L36 194 L36 421 L-511 421 L-511 194 Z" transform="matrix(1.8, 0, 0, 1.8, 953.8, -315.2)"/></clipPath><clipPath id="clipPath2_ygc0__9"><path d="M-511 194 L36 194 L36 421 L-511 421 L-511 194 Z" transform="matrix(1.8, 0, 0, 1.8, 953.8, -315.2)"/></clipPath><clipPath id="clipPath2_ygc0__10"><path d="M-511 194 L36 194 L36 421 L-511 421 L-511 194 Z" transform="matrix(1.8, 0, 0, 1.8, 953.8, -315.2)"/></clipPath><clipPath id="clipPath2_ygc0__11"><path d="M-511 194 L36 194 L36 421 L-511 421 L-511 194 Z" transform="matrix(1.8, 0, 0, 1.8, 953.8, -315.2)"/></clipPath><clipPath id="clipPath2_ygc0__12"><path d="M-511 194 L36 194 L36 421 L-511 421 L-511 194 Z" transform="matrix(1.8, 0, 0, 1.8, 953.8, -315.2)"/></clipPath><clipPath id="clipPath2_ygc0__13"><path d="M-511 194 L36 194 L36 421 L-511 421 L-511 194 Z" transform="matrix(1.8, 0, 0, 1.8, 953.8, -315.2)"/></clipPath><clipPath id="clipPath2_ygc0__14"><path d="M-511 194 L36 194 L36 421 L-511 421 L-511 194 Z" transform="matrix(1.8, 0, 0, 1.8, 953.8, -315.2)"/></clipPath><clipPath id="clipPath2_ygc0__15"><path d="M-511 194 L36 194 L36 421 L-511 421 L-511 194 Z" transform="matrix(1.8, 0, 0, 1.8, 953.8, -315.2)"/></clipPath><clipPath id="clipPath2_ygc0__16"><path d="M-511 194 L36 194 L36 421 L-511 421 L-511 194 Z" transform="matrix(1.8, 0, 0, 1.8, 953.8, -315.2)"/></clipPath><clipPath id="clipPath2_ygc0__17"><path d="M-511 194 L36 194 L36 421 L-511 421 L-511 194 Z" transform="matrix(1.8, 0, 0, 1.8, 953.8, -315.2)"/></clipPath><clipPath id="clipPath2_ygc0__18"><path d="M-511 194 L36 194 L36 421 L-511 421 L-511 194 Z" transform="matrix(1.8, 0, 0, 1.8, 953.8, -315.2)"/></clipPath><clipPath id="clipPath2_ygc0__19"><path d="M-511 194 L36 194 L36 421 L-511 421 L-511 194 Z" transform="matrix(1.8, 0, 0, 1.8, 953.8, -315.2)"/></clipPath><clipPath id="clipPath2_ygc0__20"><path d="M-511 194 L36 194 L36 421 L-511 421 L-511 194 Z" transform="matrix(1.8, 0, 0, 1.8, 953.8, -315.2)"/></clipPath><clipPath id="clipPath2_ygc0__21"><path d="M-511 194 L36 194 L36 421 L-511 421 L-511 194 Z" transform="matrix(1.8, 0, 0, 1.8, 953.8, -315.2)"/></clipPath><clipPath id="clipPath2_ygc0__22"><path d="M-511 194 L36 194 L36 421 L-511 421 L-511 194 Z" transform="matrix(1.8, 0, 0, 1.8, 953.8, -315.2)"/></clipPath><clipPath id="clipPath2_ygc0__23"><path d="M-511 194 L36 194 L36 421 L-511 421 L-511 194 Z" transform="matrix(1.8, 0, 0, 1.8, 953.8, -315.2)"/></clipPath><clipPath id="clipPath2_ygc0__24"><path d="M-511 194 L36 194 L36 421 L-511 421 L-511 194 Z" transform="matrix(1.8, 0, 0, 1.8, 953.8, -315.2)"/></clipPath><clipPath id="clipPath2_ygc0__25"><path d="M-511 194 L36 194 L36 421 L-511 421 L-511 194 Z" transform="matrix(1.8, 0, 0, 1.8, 953.8, -315.2)"/></clipPath><clipPath id="clipPath2_ygc0__26"><path d="M-511 194 L36 194 L36 421 L-511 421 L-511 194 Z" transform="matrix(1.8, 0, 0, 1.8, 953.8, -315.2)"/></clipPath><clipPath id="clipPath2_ygc0__27"><path d="M-511 194 L36 194 L36 421 L-511 421 L-511 194 Z" transform="matrix(1.8, 0, 0, 1.8, 953.8, -315.2)"/></clipPath><clipPath id="clipPath2_ygc0__28"><path d="M-511 194 L36 194 L36 421 L-511 421 L-511 194 Z" transform="matrix(1.8, 0, 0, 1.8, 953.8, -315.2)"/></clipPath><clipPath id="clipPath2_ygc0__29"><path d="M-511 194 L36 194 L36 421 L-511 421 L-511 194 Z" transform="matrix(1.8, 0, 0, 1.8, 953.8, -315.2)"/></clipPath><clipPath id="clipPath2_ygc0__30"><path d="M-511 194 L36 194 L36 421 L-511 421 L-511 194 Z" transform="matrix(1.8, 0, 0, 1.8, 953.8, -315.2)"/></clipPath><clipPath id="clipPath2_ygc0__31"><path d="M-511 194 L36 194 L36 421 L-511 421 L-511 194 Z" transform="matrix(1.8, 0, 0, 1.8, 953.8, -315.2)"/></clipPath><clipPath id="clipPath2_ygc0__32"><path d="M-511 194 L36 194 L36 421 L-511 421 L-511 194 Z" transform="matrix(1.8, 0, 0, 1.8, 953.8, -315.2)"/></clipPath><clipPath id="clipPath2_ygc0__33"><path d="M-511 194 L36 194 L36 421 L-511 421 L-511 194 Z" transform="matrix(1.8, 0, 0, 1.8, 953.8, -315.2)"/></clipPath><clipPath id="clipPath2_ygc0__34"><path d="M-511 194 L36 194 L36 421 L-511 421 L-511 194 Z" transform="matrix(1.8, 0, 0, 1.8, 953.8, -315.2)"/></clipPath><clipPath id="clipPath2_ygc0__35"><path d="M-511 194 L36 194 L36 421 L-511 421 L-511 194 Z" transform="matrix(1.8, 0, 0, 1.8, 953.8, -315.2)"/></clipPath><clipPath id="clipPath2_ygc0__36"><path d="M-511 194 L36 194 L36 421 L-511 421 L-511 194 Z" transform="matrix(1.8, 0, 0, 1.8, 953.8, -315.2)"/></clipPath><clipPath id="clipPath2_ygc0__37"><path d="M-511 194 L36 194 L36 421 L-511 421 L-511 194 Z" transform="matrix(1.8, 0, 0, 1.8, 953.8, -315.2)"/></clipPath><clipPath id="clipPath2_ygc0__38"><path d="M-511 194 L36 194 L36 421 L-511 421 L-511 194 Z" transform="matrix(1.8, 0, 0, 1.8, 953.8, -315.2)"/></clipPath><clipPath id="clipPath2_ygc0__39"><path d="M-511 194 L36 194 L36 421 L-511 421 L-511 194 Z" transform="matrix(1.8, 0, 0, 1.8, 953.8, -315.2)"/></clipPath><clipPath id="clipPath2_ygc0__40"><path d="M-511 194 L36 194 L36 421 L-511 421 L-511 194 Z" transform="matrix(1.8, 0, 0, 1.8, 953.8, -315.2)"/></clipPath><clipPath id="clipPath2_ygc0__41"><path d="M-511 194 L36 194 L36 421 L-511 421 L-511 194 Z" transform="matrix(1.8, 0, 0, 1.8, 953.8, -315.2)"/></clipPath><clipPath id="clipPath2_ygc0__42"><path d="M-511 194 L36 194 L36 421 L-511 421 L-511 194 Z" transform="matrix(1.8, 0, 0, 1.8, 953.8, -315.2)"/></clipPath><clipPath id="clipPath2_ygc0__43"><path d="M-511 194 L36 194 L36 421 L-511 421 L-511 194 Z" transform="matrix(1.8, 0, 0, 1.8, 953.8, -315.2)"/></clipPath><clipPath id="clipPath2_ygc0__44"><path d="M-511 194 L36 194 L36 421 L-511 421 L-511 194 Z" transform="matrix(1.8, 0, 0, 1.8, 953.8, -315.2)"/></clipPath><clipPath id="clipPath2_ygc0__45"><path d="M-511 194 L36 194 L36 421 L-511 421 L-511 194 Z" transform="matrix(1.8, 0, 0, 1.8, 953.8, -315.2)"/></clipPath><clipPath id="clipPath2_ygc0__46"><path d="M-511 194 L36 194 L36 421 L-511 421 L-511 194 Z" transform="matrix(1.8, 0, 0, 1.8, 953.8, -315.2)"/></clipPath><clipPath id="clipPath2_ygc0__47"><path d="M-511 194 L36 194 L36 421 L-511 421 L-511 194 Z" transform="matrix(1.8, 0, 0, 1.8, 953.8, -315.2)"/></clipPath><clipPath id="clipPath2_ygc0__48"><path d="M-511 194 L36 194 L36 421 L-511 421 L-511 194 Z" transform="matrix(1.8, 0, 0, 1.8, 953.8, -315.2)"/></clipPath><clipPath id="clipPath2_ygc0__49"><path d="M-511 194 L36 194 L36 421 L-511 421 L-511 194 Z" transform="matrix(1.8, 0, 0, 1.8, 953.8, -315.2)"/></clipPath><clipPath id="clipPath2_ygc0__50"><path d="M-511 194 L36 194 L36 421 L-511 421 L-511 194 Z" transform="matrix(1.8, 0, 0, 1.8, 953.8, -315.2)"/></clipPath><clipPath id="clipPath2_ygc0__51"><path d="M-511 194 L36 194 L36 421 L-511 421 L-511 194 Z" transform="matrix(1.8, 0, 0, 1.8, 953.8, -315.2)"/></clipPath><clipPath id="clipPath2_ygc0__52"><path d="M-511 194 L36 194 L36 421 L-511 421 L-511 194 Z" transform="matrix(1.8, 0, 0, 1.8, 953.8, -315.2)"/></clipPath><clipPath id="clipPath2_ygc0__53"><path d="M-511 194 L36 194 L36 421 L-511 421 L-511 194 Z" transform="matrix(1.8, 0, 0, 1.8, 953.8, -315.2)"/></clipPath><clipPath id="clipPath2_ygc0__54"><path d="M-511 194 L36 194 L36 421 L-511 421 L-511 194 Z" transform="matrix(1.8, 0, 0, 1.8, 953.8, -315.2)"/></clipPath><clipPath id="clipPath2_ygc0__55"><path d="M-511 194 L36 194 L36 421 L-511 421 L-511 194 Z" transform="matrix(1.8, 0, 0, 1.8, 953.8, -315.2)"/></clipPath><clipPath id="clipPath2_ygc0__56"><path d="M-511 194 L36 194 L36 421 L-511 421 L-511 194 Z" transform="matrix(1.8, 0, 0, 1.8, 953.8, -315.2)"/></clipPath><clipPath id="clipPath2_ygc0__57"><path d="M-511 194 L36 194 L36 421 L-511 421 L-511 194 Z" transform="matrix(1.8, 0, 0, 1.8, 953.8, -315.2)"/></clipPath><clipPath id="clipPath2_ygc0__58"><path d="M-511 194 L36 194 L36 421 L-511 421 L-511 194 Z" transform="matrix(1.8, 0, 0, 1.8, 953.8, -315.2)"/></clipPath><clipPath id="clipPath2_ygc0__59"><path d="M-511 194 L36 194 L36 421 L-511 421 L-511 194 Z" transform="matrix(1.8, 0, 0, 1.8, 953.8, -315.2)"/></clipPath><clipPath id="clipPath2_ygc0__60"><path d="M-511 194 L36 194 L36 421 L-511 421 L-511 194 Z" transform="matrix(1.8, 0, 0, 1.8, 953.8, -315.2)"/></clipPath><clipPath id="clipPath2_ygc0__61"><path d="M-511 194 L36 194 L36 421 L-511 421 L-511 194 Z" transform="matrix(1.8, 0, 0, 1.8, 953.8, -315.2)"/></clipPath><clipPath id="clipPath2_ygc0__62"><path d="M-511 194 L36 194 L36 421 L-511 421 L-511 194 Z" transform="matrix(1.8, 0, 0, 1.8, 953.8, -315.2)"/></clipPath><clipPath id="clipPath2_ygc0__63"><path d="M-511 194 L36 194 L36 421 L-511 421 L-511 194 Z" transform="matrix(1.8, 0, 0, 1.8, 953.8, -315.2)"/></clipPath><clipPath id="clipPath2_ygc0__64"><path d="M-511 194 L36 194 L36 421 L-511 421 L-511 194 Z" transform="matrix(1.8, 0, 0, 1.8, 953.8, -315.2)"/></clipPath><clipPath id="clipPath2_ygc0__65"><path d="M-511 194 L36 194 L36 421 L-511 421 L-511 194 Z" transform="matrix(1.8, 0, 0, 1.8, 953.8, -315.2)"/></clipPath></defs><rect width="1053" height="477" fill="white"/><g><path d="M1.052 -1.975 L1054.116 1.853 L1053.734 475.839 L-0.565 477.212" stroke="none" stroke-width="0" fill="rgb(255, 255, 255)"/><path d="M0.27 -0.243 C259.657 0.866, 520.082 1.817, 1053.288 0.395 M1052.638 -0.492 C1051.121 149.585, 1052.698 299.413, 1053.101 476.702 M1053.259 476.331 C775.849 478.023, 499.822 479.557, -0.404 477.709 M0.029 477.578 C0.685 342.175, 0.014 206.022, -0.854 0.701" stroke="rgb(255, 255, 255)" stroke-width="1" fill="none"/></g><g clip-path="url(#clipPath2_ygc0__1)"><path d="M301.307 63.395 L705.059 61.097 L704.44 413.478 L303.495 415.638 L303.484 59.628" stroke="none" stroke-width="0" fill="rgb(255, 203, 229)"/><path d="M300.905 62.159 M303.27 60.47 C449.796 60.202, 595.277 58.801, 706.04 60.539 M705.872 61.706 C702.559 131.693, 702.905 204.509, 706.41 414.312 M704.91 414.578 C601.238 410.889, 495.982 411.415, 301.346 414.745 M301.829 412.869 C303.863 311.755, 302.225 210.986, 301.948 61.267" stroke="rgb(255, 203, 229)" stroke-width="1" fill="none"/></g><g clip-path="url(#clipPath2_ygc0__2)"><path d="M301.986 62.204 L305.064 61.493 L303.858 413.796 L300.863 415.695 L302.66 62.248" stroke="none" stroke-width="0" fill="rgb(255, 255, 255)"/><path d="M301.145 59.951 M302.069 61.43 C302.699 61.438, 303.532 61.597, 303.929 61.444 M304.03 61.84 C306.985 157.959, 306.594 251.199, 304.936 413.517 M304.176 413.996 C303.397 413.721, 303.103 413.775, 302.058 413.699 M302.325 413.398 C301.389 290.312, 302.012 167.332, 302.242 61.279" stroke="rgb(255, 255, 255)" stroke-width="1" fill="none"/></g><g clip-path="url(#clipPath2_ygc0__3)"><path d="M302.916 61.962 L702.248 62.857 L702.659 63.025 L304.673 63.734 L302.262 60.753" stroke="none" stroke-width="0" fill="rgb(255, 255, 255)"/><path d="M303.708 62.549 M304.104 62.288 C455.93 63.445, 605.086 61.796, 703.231 61.25 M703.728 61.651 C703.523 62.19, 703.649 62.622, 703.767 63.316 M704.34 63.272 C616.018 65.573, 528.172 64.409, 304.418 62.516 M303.893 63.331 C303.865 62.789, 303.988 62.365, 303.91 61.506" stroke="rgb(255, 255, 255)" stroke-width="1" fill="none"/></g><g clip-path="url(#clipPath2_ygc0__4)"><path d="M303.201 413.494 L704.997 410.762 L706.694 413.598 L304.836 413.982 L302.61 411.906" stroke="none" stroke-width="0" fill="rgb(178, 142, 160)"/><path d="M305.952 412.268 M303.481 411.188 C456.979 410.293, 612.085 409.961, 706.142 411.625 M303.766 411.659 C398.655 411.877, 493.986 411.366, 704.882 411.771 M705.327 411.915 C705.44 412.634, 705.407 413.024, 705.387 413.829 M705.392 412.105 C705.409 412.621, 705.395 413.176, 705.483 413.84 M706.396 413.306 C577.169 415.466, 450.149 414.62, 303.778 413.864 M704.865 414.249 C615.002 412.392, 524.752 412.592, 304.252 414.246 M303.856 413.689 C303.986 413.322, 304.023 412.743, 304.088 412.136 M303.967 413.92 C304.035 413.406, 304.022 413.116, 304.044 412.1" stroke="rgb(178, 142, 160)" stroke-width="1" fill="none"/></g><g clip-path="url(#clipPath2_ygc0__5)"><path d="M703.857 63.345 L704.133 61.051 L706.753 410.466 L703.249 411.185 L704.197 61.833" stroke="none" stroke-width="0" fill="rgb(178, 142, 160)"/><path d="M702.378 60.588 M703.708 61.603 C704.066 61.437, 704.868 61.475, 705.293 61.495 M704.245 60.886 C702.443 151.223, 703.987 242.173, 705.249 413.292 M705.496 412.224 C705.054 411.954, 704.623 411.922, 703.668 411.924 M702.958 413.058 C703.074 313.308, 703.997 211.453, 703.424 61.846" stroke="rgb(178, 142, 160)" stroke-width="1" fill="none"/></g><g clip-path="url(#clipPath2_ygc0__6)"><g class="text-container" transform="matrix(1.8, 0, 0, 1.8, 953.8, -315.2)"><text x="-356" xml:space="preserve" y="226.4116" clip-path="url(#clipPath2_ygc0_)" stroke="none" data-sketchy-clip-path="clipPath2_ygc0__6" style="font-style: normal;font-weight: 700;font-size: 12px;font-family: Comic Sans MS, cursive;" stroke-width="1px" fill="rgb(0, 0, 0)" text-anchor="start" dominant-baseline="auto">Backend</text></g></g><g clip-path="url(#clipPath2_ygc0__7)"><path d="M347.402 274.887 L549.923 277.74 L553.223 282.983 L552.952 329.638 L545.857 334.526 L343.605 333.394 L341.232 324.795 L342.45 283.122 L345.191 279.782 L349.986 274.604" stroke="none" stroke-width="0" fill="rgb(254, 194, 161)"/><path d="M348.1 275.802 M348.1 275.802 C417.624 277.131, 491.088 279.236, 546.46 275.802 M546.46 275.802 C548.955 276.744, 554.465 281.073, 553.66 283.002 M553.66 283.002 C554.167 300.11, 552.748 313.377, 553.66 325.362 M553.66 325.362 C552.507 328.97, 548.028 333.269, 546.46 332.562 M546.46 332.562 C496.725 332.952, 443.909 334.711, 348.1 332.562 M348.1 332.562 C343.803 333.375, 342.438 327.986, 340.9 325.362 M340.9 325.362 C342.603 313.585, 339.064 302.334, 340.9 283.002 M340.9 283.002 C340.178 280.022, 343.342 275.448, 348.1 275.802 M348.1 275.802 C348.1 275.802, 348.1 275.802, 348.1 275.802" stroke="rgb(254, 194, 161)" stroke-width="1" fill="none"/></g><g clip-path="url(#clipPath2_ygc0__8)"><path d="M348.1 275.802 M348.1 275.802 C423.986 278.952, 497.362 277.634, 546.46 275.802 M546.46 275.802 C551.985 274.527, 554.217 279.514, 553.66 283.002 M553.66 283.002 C552.328 297.953, 552.266 314.801, 553.66 325.362 M553.66 325.362 C554.882 329.936, 549.628 332.955, 546.46 332.562 M546.46 332.562 C503.229 330.854, 461.236 334.611, 348.1 332.562 M348.1 332.562 C342.801 333.689, 342.458 328.15, 340.9 325.362 M340.9 325.362 C341.181 308.999, 339.913 295.854, 340.9 283.002 M340.9 283.002 C339.576 280.433, 344.32 277.577, 348.1 275.802 M348.1 275.802 C348.1 275.802, 348.1 275.802, 348.1 275.802" stroke="rgb(0, 0, 0)" stroke-width="1.8" fill="none"/></g><g clip-path="url(#clipPath2_ygc0__9)"><g class="text-container" transform="matrix(1.8, 0, 0, 1.8, 953.8, -315.2)"><text x="-305.2906" font-size="8px" y="346.8708" clip-path="url(#clipPath2_ygc0_)" font-family="sans-serif" stroke="none" xml:space="preserve" data-sketchy-clip-path="clipPath2_ygc0__9" style="font-style: normal;font-weight: 400;font-size: 8px;font-family: Comic Sans MS, cursive;" stroke-width="1px" fill="rgb(0, 0, 0)" text-anchor="start" dominant-baseline="auto">StepService</text></g></g><g clip-path="url(#clipPath2_ygc0__10)"><path d="M326.5 112.191 M326.5 112.191 C384.607 110.389, 445.736 110.237, 562.66 112.191 M562.66 112.191 C567.337 111.758, 571.538 117.529, 569.86 119.391 M569.86 119.391 C570.521 198.771, 569.589 279.594, 569.86 387.94 M569.86 387.94 C570.6 393.836, 565.367 395.13, 562.66 395.14 M562.66 395.14 C479.204 394.731, 393.719 393.317, 326.5 395.14 M326.5 395.14 C323.386 395.132, 318.669 391.492, 319.3 387.94 M319.3 387.94 C319.841 299.806, 320.922 211.884, 319.3 119.391 M319.3 119.391 C318.93 116.467, 324.056 114.082, 326.5 112.191 M326.5 112.191 C326.5 112.191, 326.5 112.191, 326.5 112.191" stroke="rgb(0, 0, 0)" stroke-width="1.8" fill="none"/></g><g clip-path="url(#clipPath2_ygc0__11)"><g class="text-container" transform="matrix(1.8, 0, 0, 1.8, 953.8, -315.2)"><text x="-308.2008" xml:space="preserve" y="254.5783" clip-path="url(#clipPath2_ygc0_)" font-family="sans-serif" stroke="none" data-sketchy-clip-path="clipPath2_ygc0__11" style="font-style: normal;font-weight: 400;font-size: 12px;font-family: Comic Sans MS, cursive;" stroke-width="1px" fill="rgb(0, 0, 0)" text-anchor="start" dominant-baseline="auto">Services</text></g></g><g clip-path="url(#clipPath2_ygc0__12)"><path d="M346.552 179.544 L550.3 179.85 L553.396 186.4 L554.168 228.935 L547.542 234.143 L347.259 233.083 L340.555 226.967 L342.347 186.422 L342.244 181.704 L346.756 178.084" stroke="none" stroke-width="0" fill="rgb(254, 194, 161)"/><path d="M348.1 177.633 M348.1 177.633 C422.74 175.349, 497.834 175.126, 546.46 177.633 M348.1 177.633 C412.501 176.007, 478.097 175.929, 546.46 177.633 M546.46 177.633 C552.012 176.788, 553.667 179.887, 553.66 184.833 M546.46 177.633 C552.444 175.386, 553.72 180.649, 553.66 184.833 M553.66 184.833 C552.23 202.659, 552.61 218.211, 553.66 227.193 M553.66 184.833 C554.559 199.129, 553.381 210.587, 553.66 227.193 M553.66 227.193 C552.211 231.459, 551.484 236.066, 546.46 234.393 M553.66 227.193 C551.747 232.35, 549.691 232.233, 546.46 234.393 M546.46 234.393 C500.482 235.918, 453.291 238.01, 348.1 234.393 M546.46 234.393 C478.2 233.643, 411.726 234.081, 348.1 234.393 M348.1 234.393 C344.979 235.077, 341.404 230.804, 340.9 227.193 M348.1 234.393 C344.324 232.96, 340.445 230.211, 340.9 227.193 M340.9 227.193 C340.066 213.067, 342.951 198.457, 340.9 184.833 M340.9 227.193 C340.165 216.896, 341.586 205.902, 340.9 184.833 M340.9 184.833 C340.166 183.192, 343.629 178.608, 348.1 177.633 M340.9 184.833 C342.604 179.586, 344.759 178.844, 348.1 177.633 M348.1 177.633 C348.1 177.633, 348.1 177.633, 348.1 177.633 M348.1 177.633 C348.1 177.633, 348.1 177.633, 348.1 177.633" stroke="rgb(254, 194, 161)" stroke-width="1" fill="none"/></g><g clip-path="url(#clipPath2_ygc0__13)"><path d="M348.1 177.633 M348.1 177.633 C418.638 178.077, 484.203 177.461, 546.46 177.633 M546.46 177.633 C551.854 177.677, 552.728 179.655, 553.66 184.833 M553.66 184.833 C554.703 201.79, 553.973 214.881, 553.66 227.193 M553.66 227.193 C554.845 229.704, 547.757 235.258, 546.46 234.393 M546.46 234.393 C499.851 233.354, 449.879 232.196, 348.1 234.393 M348.1 234.393 C345.708 233.8, 341.492 230.02, 340.9 227.193 M340.9 227.193 C342.985 216.125, 339.203 205.526, 340.9 184.833 M340.9 184.833 C338.912 181.023, 342.925 177.89, 348.1 177.633 M348.1 177.633 C348.1 177.633, 348.1 177.633, 348.1 177.633" stroke="rgb(0, 0, 0)" stroke-width="1.8" fill="none"/></g><g clip-path="url(#clipPath2_ygc0__14)"><g class="text-container" transform="matrix(1.8, 0, 0, 1.8, 953.8, -315.2)"><text x="-336.2818" xml:space="preserve" y="293.7169" clip-path="url(#clipPath2_ygc0_)" font-family="sans-serif" stroke="none" data-sketchy-clip-path="clipPath2_ygc0__14" style="font-style: normal;font-weight: 400;font-size: 12px;font-family: Comic Sans MS, cursive;" stroke-width="1px" fill="rgb(0, 0, 0)" text-anchor="start" dominant-baseline="auto">StepParserService</text></g></g><g clip-path="url(#clipPath2_ygc0__15)"><path d="M349.106 182.791 L549.316 183.451 L553.617 192.552 L552.499 234.301 L546.926 238.947 L344.456 239.43 L339.363 233.968 L339.783 188.798 L343.368 187.133 L348.076 182.83" stroke="none" stroke-width="0" fill="rgb(254, 194, 161)"/><path d="M348.1 183.598 M348.1 183.598 C427.301 185.594, 507.629 183.283, 546.46 183.598 M546.46 183.598 C551.056 184.961, 553.397 185.962, 553.66 190.798 M553.66 190.798 C555.167 206.813, 553.907 223.467, 553.66 233.158 M553.66 233.158 C554.609 235.932, 548.293 238.911, 546.46 240.358 M546.46 240.358 C479.869 241.777, 411.386 240.325, 348.1 240.358 M348.1 240.358 C344.553 240.497, 338.921 237.617, 340.9 233.158 M340.9 233.158 C341.143 217.783, 341.367 201.697, 340.9 190.798 M340.9 190.798 C340.086 188.406, 345.635 181.822, 348.1 183.598 M348.1 183.598 C348.1 183.598, 348.1 183.598, 348.1 183.598" stroke="rgb(254, 194, 161)" stroke-width="1" fill="none"/></g><g clip-path="url(#clipPath2_ygc0__16)"><path d="M348.1 183.598 M348.1 183.598 C397.037 186.217, 446.334 186.062, 546.46 183.598 M546.46 183.598 C549.302 181.789, 552.922 186.464, 553.66 190.798 M553.66 190.798 C553.729 198.637, 551.966 205.939, 553.66 233.158 M553.66 233.158 C553.138 236.096, 550.036 238.81, 546.46 240.358 M546.46 240.358 C475.728 240.406, 404.006 239.167, 348.1 240.358 M348.1 240.358 C345.352 241.591, 340.729 235.697, 340.9 233.158 M340.9 233.158 C339.692 223.418, 338.509 209.653, 340.9 190.798 M340.9 190.798 C341.517 185.696, 344.948 181.95, 348.1 183.598 M348.1 183.598 C348.1 183.598, 348.1 183.598, 348.1 183.598" stroke="rgb(0, 0, 0)" stroke-width="1.8" fill="none"/></g><g clip-path="url(#clipPath2_ygc0__17)"><g class="text-container" transform="matrix(1.8, 0, 0, 1.8, 953.8, -315.2)"><text x="-336.2818" xml:space="preserve" y="297.0307" clip-path="url(#clipPath2_ygc0_)" font-family="sans-serif" stroke="none" data-sketchy-clip-path="clipPath2_ygc0__17" style="font-style: normal;font-weight: 400;font-size: 12px;font-family: Comic Sans MS, cursive;" stroke-width="1px" fill="rgb(0, 0, 0)" text-anchor="start" dominant-baseline="auto">StepParserService</text></g></g><g clip-path="url(#clipPath2_ygc0__18)"><path d="M346.593 189.144 L550.885 191.174 L552.664 196.207 L552.143 242.69 L545.007 245.176 L346.062 246.558 L342.307 240.529 L340.209 198.786 L342.102 191.053 L347.567 189.985" stroke="none" stroke-width="0" fill="rgb(254, 224, 204)"/><path d="M348.1 189.903 M348.1 189.903 C426.449 188.424, 502.348 189.362, 546.46 189.903 M348.1 189.903 C391.96 191.928, 438.061 190.553, 546.46 189.903 M546.46 189.903 C551.298 191.435, 554.369 195.437, 553.66 197.103 M546.46 189.903 C549.781 188.724, 551.792 192.946, 553.66 197.103 M553.66 197.103 C555.077 208.023, 553.33 220.713, 553.66 239.463 M553.66 197.103 C553.816 212.248, 554.578 224.95, 553.66 239.463 M553.66 239.463 C552.153 242.174, 550.098 246.425, 546.46 246.663 M553.66 239.463 C555.828 241.863, 547.885 246.893, 546.46 246.663 M546.46 246.663 C472.69 248.554, 400.646 246.134, 348.1 246.663 M546.46 246.663 C481.601 246.674, 416.402 246.224, 348.1 246.663 M348.1 246.663 C345.447 245.967, 342.357 241.517, 340.9 239.463 M348.1 246.663 C343.545 244.66, 341.935 241.386, 340.9 239.463 M340.9 239.463 C341.473 228.812, 339.968 213.341, 340.9 197.103 M340.9 239.463 C340.862 228.93, 340.645 220.328, 340.9 197.103 M340.9 197.103 C339.431 194.799, 343.446 191.488, 348.1 189.903 M340.9 197.103 C339.463 192.797, 344.979 188.052, 348.1 189.903 M348.1 189.903 C348.1 189.903, 348.1 189.903, 348.1 189.903 M348.1 189.903 C348.1 189.903, 348.1 189.903, 348.1 189.903" stroke="rgb(254, 224, 204)" stroke-width="1" fill="none"/></g><g clip-path="url(#clipPath2_ygc0__19)"><path d="M348.1 189.903 M348.1 189.903 C396.589 190.036, 444.805 190.957, 546.46 189.903 M348.1 189.903 C412.684 190.729, 478.755 190.585, 546.46 189.903 M546.46 189.903 C549.801 191.593, 553.681 192.128, 553.66 197.103 M546.46 189.903 C550.852 188.14, 554.697 193.442, 553.66 197.103 M553.66 197.103 C553.53 210.928, 554.692 227.174, 553.66 239.463 M553.66 197.103 C553.616 214.301, 553.92 229.898, 553.66 239.463 M553.66 239.463 C552.705 243.541, 548.472 244.674, 546.46 246.663 M553.66 239.463 C552.035 244.655, 548.328 244.737, 546.46 246.663 M546.46 246.663 C484.667 243.537, 421.738 246.397, 348.1 246.663 M546.46 246.663 C494.519 246.99, 443.945 246.621, 348.1 246.663 M348.1 246.663 C344.853 245.394, 342.064 240.796, 340.9 239.463 M348.1 246.663 C343.632 247.326, 342.124 242.551, 340.9 239.463 M340.9 239.463 C342.015 224.546, 341.412 205.466, 340.9 197.103 M340.9 239.463 C340.044 226.019, 340.779 213.807, 340.9 197.103 M340.9 197.103 C341.426 195.105, 342.896 191.251, 348.1 189.903 M340.9 197.103 C343.129 195.892, 344.242 188.884, 348.1 189.903 M348.1 189.903 C348.1 189.903, 348.1 189.903, 348.1 189.903 M348.1 189.903 C348.1 189.903, 348.1 189.903, 348.1 189.903" stroke="rgb(0, 0, 0)" stroke-width="1.8" fill="none"/></g><g clip-path="url(#clipPath2_ygc0__20)"><g class="text-container" transform="matrix(1.8, 0, 0, 1.8, 953.8, -315.2)"><text x="-317.9879" font-size="8px" y="299.1488" clip-path="url(#clipPath2_ygc0_)" font-family="sans-serif" stroke="none" xml:space="preserve" data-sketchy-clip-path="clipPath2_ygc0__20" style="font-style: normal;font-weight: 400;font-size: 8px;font-family: Comic Sans MS, cursive;" stroke-width="1px" fill="rgb(0, 0, 0)" text-anchor="start" dominant-baseline="auto">StepParserService</text></g></g><g clip-path="url(#clipPath2_ygc0__21)"><path d="M346.912 287.129 L548.557 288.918 L554.937 297.161 L554.133 340.908 L546.521 345.72 L344.353 345.401 L339.974 338.729 L339.03 295.059 L343.958 289.128 L349.477 287.322" stroke="none" stroke-width="0" fill="rgb(254, 194, 161)"/><path d="M348.1 288.393 M348.1 288.393 C413.648 287.65, 476.967 288.395, 546.46 288.393 M546.46 288.393 C548.65 290.1, 555.271 293.14, 553.66 295.593 M553.66 295.593 C551.91 308.153, 553.98 321.119, 553.66 337.953 M553.66 337.953 C553.632 340.424, 551.132 344.528, 546.46 345.153 M546.46 345.153 C481.638 347.063, 417.924 345.916, 348.1 345.153 M348.1 345.153 C343.296 346.282, 342.24 340.953, 340.9 337.953 M340.9 337.953 C339.437 322.605, 339.72 309.095, 340.9 295.593 M340.9 295.593 C342.272 291.489, 344.833 289.121, 348.1 288.393 M348.1 288.393 C348.1 288.393, 348.1 288.393, 348.1 288.393" stroke="rgb(254, 194, 161)" stroke-width="1" fill="none"/></g><g clip-path="url(#clipPath2_ygc0__22)"><path d="M348.1 288.393 M348.1 288.393 C412.597 288.984, 476.537 288.467, 546.46 288.393 M348.1 288.393 C401.512 288.781, 453.882 289.191, 546.46 288.393 M546.46 288.393 C548.921 286.608, 553.763 291.263, 553.66 295.593 M546.46 288.393 C550.914 286.78, 553.371 292.451, 553.66 295.593 M553.66 295.593 C555.115 307.77, 552.206 317.569, 553.66 337.953 M553.66 295.593 C552.824 312.973, 554.141 328.724, 553.66 337.953 M553.66 337.953 C554.648 341.59, 550.542 345.062, 546.46 345.153 M553.66 337.953 C553.172 343.688, 548.922 345.657, 546.46 345.153 M546.46 345.153 C483.666 344.025, 419.804 346.907, 348.1 345.153 M546.46 345.153 C485.431 347.518, 424.883 346.883, 348.1 345.153 M348.1 345.153 C342.591 344.157, 340.025 341.898, 340.9 337.953 M348.1 345.153 C346.325 346.532, 342.773 340.431, 340.9 337.953 M340.9 337.953 C341.424 322.353, 342.341 306.353, 340.9 295.593 M340.9 337.953 C340.342 324.799, 340.075 310.487, 340.9 295.593 M340.9 295.593 C341.32 293.461, 346.52 290.275, 348.1 288.393 M340.9 295.593 C342.383 291.475, 345.403 289.349, 348.1 288.393 M348.1 288.393 C348.1 288.393, 348.1 288.393, 348.1 288.393 M348.1 288.393 C348.1 288.393, 348.1 288.393, 348.1 288.393" stroke="rgb(0, 0, 0)" stroke-width="1.8" fill="none"/></g><g clip-path="url(#clipPath2_ygc0__23)"><g class="text-container" transform="matrix(1.8, 0, 0, 1.8, 953.8, -315.2)"><text x="-305.2906" font-size="8px" y="353.8655" clip-path="url(#clipPath2_ygc0_)" font-family="sans-serif" stroke="none" xml:space="preserve" data-sketchy-clip-path="clipPath2_ygc0__23" style="font-style: normal;font-weight: 400;font-size: 8px;font-family: Comic Sans MS, cursive;" stroke-width="1px" fill="rgb(0, 0, 0)" text-anchor="start" dominant-baseline="auto">StepService</text></g></g><g clip-path="url(#clipPath2_ygc0__24)"><path d="M349.541 289.911 L550.768 289.804 L555.45 296.027 L552.937 339.748 L548.335 346.707 L343.92 344.878 L342.138 337.536 L339.701 296.067 L344.447 289.455 L349.676 288.999" stroke="none" stroke-width="0" fill="rgb(254, 194, 161)"/><path d="M348.1 288.393 M348.1 288.393 C426.579 286.531, 507.986 287.928, 546.46 288.393 M546.46 288.393 C552.372 287.502, 552.85 292.841, 553.66 295.593 M553.66 295.593 C552.803 307.227, 552.272 317.676, 553.66 337.953 M553.66 337.953 C552.653 342.319, 549.907 346.033, 546.46 345.153 M546.46 345.153 C500.707 346.922, 459.075 346.531, 348.1 345.153 M348.1 345.153 C342.848 346.516, 339.865 342.473, 340.9 337.953 M340.9 337.953 C339.831 326.728, 339.666 321.169, 340.9 295.593 M340.9 295.593 C339.032 294.173, 343.695 287.867, 348.1 288.393 M348.1 288.393 C348.1 288.393, 348.1 288.393, 348.1 288.393" stroke="rgb(254, 194, 161)" stroke-width="1" fill="none"/></g><g clip-path="url(#clipPath2_ygc0__25)"><path d="M348.1 288.393 M348.1 288.393 C405.319 289.669, 461.843 288.011, 546.46 288.393 M546.46 288.393 C552.411 286.985, 552.32 290.607, 553.66 295.593 M553.66 295.593 C553.822 306.808, 554.882 316.234, 553.66 337.953 M553.66 337.953 C553.224 341.009, 551.425 344.746, 546.46 345.153 M546.46 345.153 C476.16 345.103, 408.547 346.88, 348.1 345.153 M348.1 345.153 C344.312 346.251, 342.709 342.854, 340.9 337.953 M340.9 337.953 C340.442 319.713, 341.721 305.549, 340.9 295.593 M340.9 295.593 C342.462 291.813, 346.542 288.535, 348.1 288.393 M348.1 288.393 C348.1 288.393, 348.1 288.393, 348.1 288.393" stroke="rgb(0, 0, 0)" stroke-width="1.8" fill="none"/></g><g clip-path="url(#clipPath2_ygc0__26)"><g class="text-container" transform="matrix(1.8, 0, 0, 1.8, 953.8, -315.2)"><text x="-305.2906" font-size="8px" y="353.8655" clip-path="url(#clipPath2_ygc0_)" font-family="sans-serif" stroke="none" xml:space="preserve" data-sketchy-clip-path="clipPath2_ygc0__26" style="font-style: normal;font-weight: 400;font-size: 8px;font-family: Comic Sans MS, cursive;" stroke-width="1px" fill="rgb(0, 0, 0)" text-anchor="start" dominant-baseline="auto">StepService</text></g></g><g clip-path="url(#clipPath2_ygc0__27)"><path d="M348.854 294.9 L551.238 296.741 L553.622 301.556 L554.365 345.49 L545.793 351.071 L344.345 350.282 L341.038 344.473 L340.71 301.149 L342.549 295.241 L348.15 293.709" stroke="none" stroke-width="0" fill="rgb(254, 194, 161)"/><path d="M348.1 294.358 M348.1 294.358 C387.713 293.621, 428.856 297.352, 546.46 294.358 M546.46 294.358 C552.076 292.492, 551.903 296.378, 553.66 301.558 M553.66 301.558 C552.184 312.23, 551.632 321.103, 553.66 343.918 M553.66 343.918 C555.609 346.787, 548.715 353.116, 546.46 351.118 M546.46 351.118 C466.318 352.266, 388.048 354.504, 348.1 351.118 M348.1 351.118 C344.204 350.573, 340.873 345.817, 340.9 343.918 M340.9 343.918 C340.579 330.739, 339.463 319.345, 340.9 301.558 M340.9 301.558 C338.91 298.73, 343.76 294.537, 348.1 294.358 M348.1 294.358 C348.1 294.358, 348.1 294.358, 348.1 294.358" stroke="rgb(254, 194, 161)" stroke-width="1" fill="none"/></g><g clip-path="url(#clipPath2_ygc0__28)"><path d="M348.1 294.358 M348.1 294.358 C388.086 293.912, 431.097 293.996, 546.46 294.358 M348.1 294.358 C404.621 293.614, 460.435 293.396, 546.46 294.358 M546.46 294.358 C549.914 294.476, 552.902 298.12, 553.66 301.558 M546.46 294.358 C551.879 294.615, 554.318 299.238, 553.66 301.558 M553.66 301.558 C552.147 315.606, 555.305 328.052, 553.66 343.918 M553.66 301.558 C554.296 312.41, 553.081 324.2, 553.66 343.918 M553.66 343.918 C551.869 349.201, 547.717 349.937, 546.46 351.118 M553.66 343.918 C552.637 348.973, 547.953 350.105, 546.46 351.118 M546.46 351.118 C488.383 352.636, 425.906 352.745, 348.1 351.118 M546.46 351.118 C494.532 349.803, 442.554 348.732, 348.1 351.118 M348.1 351.118 C343.898 349.383, 339.463 345.411, 340.9 343.918 M348.1 351.118 C345.258 349.281, 340.733 349.375, 340.9 343.918 M340.9 343.918 C340.346 330.569, 338.948 317.665, 340.9 301.558 M340.9 343.918 C340.955 335.556, 341.014 325.71, 340.9 301.558 M340.9 301.558 C339.357 296.692, 345.146 294.898, 348.1 294.358 M340.9 301.558 C341.333 299.21, 346.557 294.626, 348.1 294.358 M348.1 294.358 C348.1 294.358, 348.1 294.358, 348.1 294.358 M348.1 294.358 C348.1 294.358, 348.1 294.358, 348.1 294.358" stroke="rgb(0, 0, 0)" stroke-width="1.8" fill="none"/></g><g clip-path="url(#clipPath2_ygc0__29)"><g class="text-container" transform="matrix(1.8, 0, 0, 1.8, 953.8, -315.2)"><text x="-305.2906" font-size="8px" y="357.1793" clip-path="url(#clipPath2_ygc0_)" font-family="sans-serif" stroke="none" xml:space="preserve" data-sketchy-clip-path="clipPath2_ygc0__29" style="font-style: normal;font-weight: 400;font-size: 8px;font-family: Comic Sans MS, cursive;" stroke-width="1px" fill="rgb(0, 0, 0)" text-anchor="start" dominant-baseline="auto">StepService</text></g></g><g clip-path="url(#clipPath2_ygc0__30)"><path d="M348.613 302.352 L547.75 302.401 L551.746 307.696 L552.145 351.209 L545.45 357.338 L345.934 356.136 L341.523 348.288 L340.811 306.336 L345.203 302.76 L346.598 301.801" stroke="none" stroke-width="0" fill="rgb(254, 224, 204)"/><path d="M348.1 300.663 M348.1 300.663 C407.074 301.476, 466.716 301.091, 546.46 300.663 M546.46 300.663 C550.353 301.055, 552.545 303.505, 553.66 307.863 M553.66 307.863 C553.947 323.916, 554.728 342.355, 553.66 350.223 M553.66 350.223 C552.356 354.18, 548.877 356.871, 546.46 357.423 M546.46 357.423 C468.065 357.456, 390.561 356.689, 348.1 357.423 M348.1 357.423 C345.046 358.987, 340.678 351.576, 340.9 350.223 M340.9 350.223 C343.156 337.1, 340.71 327.144, 340.9 307.863 M340.9 307.863 C339.087 306.161, 345.902 299.932, 348.1 300.663 M348.1 300.663 C348.1 300.663, 348.1 300.663, 348.1 300.663" stroke="rgb(254, 224, 204)" stroke-width="1" fill="none"/></g><g clip-path="url(#clipPath2_ygc0__31)"><path d="M348.1 300.663 M348.1 300.663 C397.976 298.786, 450.76 301.328, 546.46 300.663 M546.46 300.663 C551.699 301.209, 554.17 303.807, 553.66 307.863 M553.66 307.863 C552.958 320.363, 555.09 330.289, 553.66 350.223 M553.66 350.223 C554.969 352.527, 550.413 358.853, 546.46 357.423 M546.46 357.423 C489.862 359.312, 430.254 359.308, 348.1 357.423 M348.1 357.423 C345.499 357.423, 339.117 352.74, 340.9 350.223 M340.9 350.223 C342.573 341.925, 342.685 330.741, 340.9 307.863 M340.9 307.863 C341.162 302.729, 345.83 299.298, 348.1 300.663 M348.1 300.663 C348.1 300.663, 348.1 300.663, 348.1 300.663" stroke="rgb(0, 0, 0)" stroke-width="1.8" fill="none"/></g><g clip-path="url(#clipPath2_ygc0__32)"><g class="text-container" transform="matrix(1.8, 0, 0, 1.8, 953.8, -315.2)"><text x="-305.2906" font-size="8px" y="360.6821" clip-path="url(#clipPath2_ygc0_)" font-family="sans-serif" stroke="none" xml:space="preserve" data-sketchy-clip-path="clipPath2_ygc0__32" style="font-style: normal;font-weight: 400;font-size: 8px;font-family: Comic Sans MS, cursive;" stroke-width="1px" fill="rgb(0, 0, 0)" text-anchor="start" dominant-baseline="auto">StepService</text></g></g><g clip-path="url(#clipPath2_ygc0__33)"><path d="M577.06 112.191 M577.06 112.191 C609.436 111.485, 637.822 113.39, 682 112.191 M577.06 112.191 C605.129 111.674, 631.953 111.257, 682 112.191 M682 112.191 C687.669 112.449, 688.059 115.089, 689.2 119.391 M682 112.191 C686.846 110.654, 687.626 114.494, 689.2 119.391 M689.2 119.391 C690.707 173.073, 691.59 229.48, 689.2 387.94 M689.2 119.391 C688.032 206.872, 688.404 294.448, 689.2 387.94 M689.2 387.94 C688.307 390.631, 687.067 394.279, 682 395.14 M689.2 387.94 C689.969 392.452, 685.116 396.918, 682 395.14 M682 395.14 C654.966 395.447, 630.09 395.774, 577.06 395.14 M682 395.14 C652.54 393.585, 622.972 395.163, 577.06 395.14 M577.06 395.14 C573.421 395.728, 570.101 392.695, 569.86 387.94 M577.06 395.14 C570.907 393.08, 569.647 391.627, 569.86 387.94 M569.86 387.94 C572.575 328.965, 570.398 272.223, 569.86 119.391 M569.86 387.94 C570.929 331.38, 572.091 275.176, 569.86 119.391 M569.86 119.391 C571.596 115.644, 575.79 111.276, 577.06 112.191 M569.86 119.391 C569.584 116.412, 573.587 110.254, 577.06 112.191 M577.06 112.191 C577.06 112.191, 577.06 112.191, 577.06 112.191 M577.06 112.191 C577.06 112.191, 577.06 112.191, 577.06 112.191" stroke="rgb(0, 0, 0)" stroke-width="1.8" fill="none"/></g><g clip-path="url(#clipPath2_ygc0__34)"><g class="text-container" transform="matrix(1.8, 0, 0, 1.8, 953.8, -315.2)"><text x="-189.6422" xml:space="preserve" y="254.5783" clip-path="url(#clipPath2_ygc0_)" font-family="sans-serif" stroke="none" data-sketchy-clip-path="clipPath2_ygc0__34" style="font-style: normal;font-weight: 400;font-size: 12px;font-family: Comic Sans MS, cursive;" stroke-width="1px" fill="rgb(0, 0, 0)" text-anchor="start" dominant-baseline="auto">API</text></g></g><g clip-path="url(#clipPath2_ygc0__35)"><path d="M810.514 126.415 L992.521 128.041 L971.644 228.342 L789.342 227.149 L809.124 126.934" stroke="none" stroke-width="0" fill="rgb(255, 203, 229)"/><path d="M807.002 128.565 M810.037 126.808 C863.986 127.82, 920.519 126.491, 991.579 129.811 M991.314 128.797 C984.751 162.879, 977.266 197.661, 970.083 229.497 M970.378 227.257 C902.991 226.58, 837.011 226.904, 788.201 228.688 M790.101 228.436 C794.279 196.022, 801.453 161.016, 806.68 126.653" stroke="rgb(255, 203, 229)" stroke-width="1" fill="none"/></g><g clip-path="url(#clipPath2_ygc0__36)"><path d="M808.965 129.877 M808.275 128.881 C881.123 128.147, 954.645 126.942, 993.212 129.493 M992.142 128.241 C986.88 154.317, 982.639 178.176, 969.854 227.619 M972.822 228.769 C917.483 231.821, 860.856 230.854, 789.075 228.126 M787.554 227.487 C792.431 197.764, 800.588 165.04, 810.091 127.387" stroke="rgb(0, 0, 0)" stroke-width="1.8" fill="none"/></g><g clip-path="url(#clipPath2_ygc0__37)"><g class="text-container" transform="matrix(1.8, 0, 0, 1.8, 953.8, -315.2)"><text x="-71.9336" xml:space="preserve" y="278.4939" clip-path="url(#clipPath2_ygc0_)" font-family="sans-serif" stroke="none" data-sketchy-clip-path="clipPath2_ygc0__37" style="font-style: normal;font-weight: 400;font-size: 12px;font-family: Comic Sans MS, cursive;" stroke-width="1px" fill="rgb(0, 0, 0)" text-anchor="start" dominant-baseline="auto">source code</text></g></g><g clip-path="url(#clipPath2_ygc0__38)"><path d="M837.493 304.367 L894.464 302.493 L898.762 348.226 L842.373 349.058 L835.987 302.581" stroke="none" stroke-width="0" fill="rgb(216, 216, 255)"/><path d="M836.6 302.603 M835.508 303.329 C858.195 304.28, 881.309 303.708, 895.114 302.983 M893.965 304.429 C896.876 316.441, 898.393 331.719, 899.88 348.287 M899.303 349.743 C885.044 351.382, 864.678 348.315, 841.805 350.417 M843.815 349.802 C841.588 333.181, 839.314 316.496, 838.054 302.499" stroke="rgb(216, 216, 255)" stroke-width="1" fill="none"/></g><g clip-path="url(#clipPath2_ygc0__39)"><path d="M837.055 304.86 M835.983 304.977 C851.819 304.025, 864.414 302.03, 894.248 304.585 M892.648 303.249 C896.217 320.395, 898.624 335.947, 899.377 347.39 M901.797 350.152 C884.448 347.779, 867.993 347.432, 841.6 350.494 M844.889 348.663 C839.619 333.087, 836.985 316.832, 836.931 303.133" stroke="rgb(0, 0, 0)" stroke-width="1.8" fill="none"/></g><g clip-path="url(#clipPath2_ygc0__40)"><path d="M848.16 308.823 L906.068 308.773 L912.371 355.62 L853.779 352.888 L847.334 311.17" stroke="none" stroke-width="0" fill="rgb(216, 216, 255)"/><path d="M847.99 311.138 M847.566 311.628 C866.318 310.738, 885.644 309.51, 903.964 310.122 M904.345 308.166 C905.261 325.292, 907.708 338.199, 911.116 353.628 M912.058 354.58 C890.035 356.378, 870.145 354.218, 854.835 355.649 M851.915 355.338 C850.698 345.258, 852.047 331.471, 849.463 311.687" stroke="rgb(216, 216, 255)" stroke-width="1" fill="none"/></g><g clip-path="url(#clipPath2_ygc0__41)"><path d="M846.388 310.041 M847.34 310.313 C865.141 308.886, 879.274 308.069, 905.522 310.256 M847.513 310.469 C860.582 309.148, 876.104 308.749, 904.205 309.872 M904.543 309.566 C904.836 323.354, 907.669 337.867, 910.916 355.671 M905.083 309.445 C906.805 326.693, 909.509 343.753, 910.24 354.932 M910.725 353.495 C889.32 356.863, 871.329 355.414, 853.932 353.008 M910.305 354.328 C896.482 355.524, 882.55 355.401, 854.785 354.563 M852.777 353.661 C850.102 338.417, 850.455 325.508, 846.055 308.88 M853.174 353.981 C851.122 339.857, 849.276 326.229, 846.938 309.613" stroke="rgb(0, 0, 0)" stroke-width="1.8" fill="none"/></g><g clip-path="url(#clipPath2_ygc0__42)"><path d="M860.027 313.702 L913.371 315.899 L921.711 360.005 L863.961 359.736 L856.771 317.103" stroke="none" stroke-width="0" fill="rgb(216, 216, 255)"/><path d="M857.059 315.647 M856.545 314.859 C877.636 313.917, 891.421 314.195, 913.475 316.39 M913.434 314.768 C918.015 330.981, 921.1 343.445, 921.764 360.719 M920.517 361.806 C904.639 361.506, 893.107 360.395, 866.648 361.062 M865.234 358.837 C860.926 345.014, 861.979 327.835, 858.905 313.323" stroke="rgb(216, 216, 255)" stroke-width="1" fill="none"/></g><g clip-path="url(#clipPath2_ygc0__43)"><path d="M859.917 314.418 M859.067 313.176 C874.471 316.208, 892.672 315.666, 915.488 313.844 M915.044 313.222 C916.33 324.898, 917.475 335.32, 920.913 361.538 M920.499 359.218 C904.852 360.109, 886.485 359.957, 866.471 358.952 M863.388 359.882 C863.966 340.416, 859.627 323.567, 859.289 315.865" stroke="rgb(0, 0, 0)" stroke-width="1.8" fill="none"/></g><g clip-path="url(#clipPath2_ygc0__44)"><g class="text-container" transform="matrix(1.8, 0, 0, 1.8, 953.8, -315.2)"><text x="-48.4785" xml:space="preserve" y="366.8575" clip-path="url(#clipPath2_ygc0_)" font-family="sans-serif" stroke="none" data-sketchy-clip-path="clipPath2_ygc0__44" style="font-style: normal;font-weight: 400;font-size: 12px;font-family: Comic Sans MS, cursive;" stroke-width="1px" fill="rgb(0, 0, 0)" text-anchor="start" dominant-baseline="auto">step</text></g></g><g clip-path="url(#clipPath2_ygc0__45)"><path d="M62.727 272.474 L81.721 225.289 L246.684 224.615 L263.359 272.976 L244.497 318.335 L82.953 321.28 L60.782 271.939" stroke="none" stroke-width="0" fill="rgb(254, 194, 161)"/><path d="M61.553 274.505 M63.372 273.354 C66.289 261.651, 70.738 251.757, 81.615 225.957 M82.328 227.845 C126.601 225.041, 173.407 225.903, 245.922 224.396 M244.147 225.825 C253.299 245.94, 259.943 264.195, 265.923 273.879 M264.653 273.367 C258.634 288.388, 251.58 302.284, 244.474 321.458 M243.527 320.858 C187.775 319.936, 129.175 318.162, 82.784 320.341 M82.128 320.064 C73.729 301.693, 65.836 284.502, 62.431 272.351" stroke="rgb(254, 194, 161)" stroke-width="1" fill="none"/></g><g clip-path="url(#clipPath2_ygc0__46)"><path d="M63.634 272.5 M62.969 272.548 C66.991 262.647, 73.718 250.453, 82.77 226.596 M82.065 227.693 C123.769 228.025, 166.093 225.498, 244.543 226.128 M245.133 227.047 C251.964 239.745, 257.229 253.023, 266.189 274.326 M265.478 274.749 C262.491 281.615, 257.224 294.647, 244.711 318.297 M243.602 318.103 C211.981 318.827, 176.811 321.021, 82.135 320.662 M81.177 321.022 C76.968 303.809, 68.276 287.266, 63.854 272.166" stroke="rgb(0, 0, 0)" stroke-width="1.8" fill="none"/></g><g clip-path="url(#clipPath2_ygc0__47)"><g class="text-container" transform="matrix(1.8, 0, 0, 1.8, 953.8, -315.2)"><text x="-452.6611" xml:space="preserve" y="324.0512" clip-path="url(#clipPath2_ygc0_)" font-family="sans-serif" stroke="none" data-sketchy-clip-path="clipPath2_ygc0__47" style="font-style: normal;font-weight: 400;font-size: 12px;font-family: Comic Sans MS, cursive;" stroke-width="1px" fill="rgb(0, 0, 0)" text-anchor="start" dominant-baseline="auto">Step</text></g></g><g clip-path="url(#clipPath2_ygc0__48)"><g class="text-container" transform="matrix(1.8, 0, 0, 1.8, 953.8, -315.2)"><text x="-462.042" xml:space="preserve" y="338.02" clip-path="url(#clipPath2_ygc0_)" font-family="sans-serif" stroke="none" data-sketchy-clip-path="clipPath2_ygc0__48" style="font-style: normal;font-weight: 400;font-size: 12px;font-family: Comic Sans MS, cursive;" stroke-width="1px" fill="rgb(0, 0, 0)" text-anchor="start" dominant-baseline="auto">Catalog</text></g></g><g clip-path="url(#clipPath2_ygc0__49)"><path d="M593.357 193.085 L666.75 190.637 L672.185 192.756 L674.195 194.872 L674.764 346.574 L675.907 351.542 L670.07 352.256 L590.934 354.381 L589.506 352.451 L584.889 350.714 L585.29 197.597 L588.493 193.004 L590.866 192.77" stroke="none" stroke-width="0" fill="rgb(254, 224, 204)"/><path d="M591.55 191.446 M591.55 191.446 C608.936 193.528, 629.507 192.121, 667.51 191.446 M667.51 191.446 C673.23 192.467, 673.258 196.832, 674.71 198.646 M674.71 198.646 C674.077 233.149, 676.518 271.637, 674.71 347.566 M674.71 347.566 C674.48 351.585, 669.34 356.755, 667.51 354.766 M667.51 354.766 C651.044 353.676, 635.385 356.297, 591.55 354.766 M591.55 354.766 C586.63 356.64, 584.573 348.849, 584.35 347.566 M584.35 347.566 C582.807 289.474, 585.227 235.264, 584.35 198.646 M584.35 198.646 C584.093 196.113, 589.853 191.074, 591.55 191.446 M591.55 191.446 C591.55 191.446, 591.55 191.446, 591.55 191.446" stroke="rgb(254, 224, 204)" stroke-width="1" fill="none"/></g><g clip-path="url(#clipPath2_ygc0__50)"><path d="M591.55 191.446 M591.55 191.446 C609.687 190.782, 628.041 193.501, 667.51 191.446 M591.55 191.446 C607.71 192.774, 623.813 190.898, 667.51 191.446 M667.51 191.446 C672.797 192.971, 673.403 196.196, 674.71 198.646 M667.51 191.446 C673.399 191.729, 673.264 197.419, 674.71 198.646 M674.71 198.646 C673.702 256.452, 673.886 318.886, 674.71 347.566 M674.71 198.646 C675.475 240.013, 675.288 280.525, 674.71 347.566 M674.71 347.566 C673.152 351.22, 672.391 356.145, 667.51 354.766 M674.71 347.566 C672.475 352.193, 672.478 354.563, 667.51 354.766 M667.51 354.766 C649.738 355.959, 628.877 352.525, 591.55 354.766 M667.51 354.766 C639.468 355.657, 611.223 354.995, 591.55 354.766 M591.55 354.766 C586.946 354.753, 583.214 349.503, 584.35 347.566 M591.55 354.766 C589.44 356.157, 582.413 350.869, 584.35 347.566 M584.35 347.566 C584.946 288.331, 584.266 228.854, 584.35 198.646 M584.35 347.566 C585.812 290.896, 585.473 232.714, 584.35 198.646 M584.35 198.646 C583.789 194.503, 588.734 192.099, 591.55 191.446 M584.35 198.646 C583.146 194.386, 586.938 191.942, 591.55 191.446 M591.55 191.446 C591.55 191.446, 591.55 191.446, 591.55 191.446 M591.55 191.446 C591.55 191.446, 591.55 191.446, 591.55 191.446" stroke="rgb(0, 0, 0)" stroke-width="1.8" fill="none"/></g><g clip-path="url(#clipPath2_ygc0__51)"><g class="text-container" transform="matrix(1.8, 0, 0, 1.8, 953.8, -315.2)"><text x="-191.3414" font-size="8px" y="329.606" clip-path="url(#clipPath2_ygc0_)" font-family="sans-serif" stroke="none" xml:space="preserve" data-sketchy-clip-path="clipPath2_ygc0__51" style="font-style: normal;font-weight: 400;font-size: 8px;font-family: Comic Sans MS, cursive;" stroke-width="1px" fill="rgb(0, 0, 0)" text-anchor="start" dominant-baseline="auto">Steps</text></g></g><g clip-path="url(#clipPath2_ygc0__52)"><path d="M340.211 196.328 M341.265 195.215 C342.994 187.138, 339.704 181.478, 342.144 162.508 M342.465 166.479 C306.083 163.868, 269.035 166.61, 162.461 163.117 M163.188 163.181 C162.48 180.442, 164.537 194.921, 163.704 210.603" stroke="rgb(0, 0, 0)" stroke-width="1.8" fill="none"/></g><g clip-path="url(#clipPath2_ygc0__53)"><path d="M165.558 227.498 L172.025 204.578 L164.726 209.105 L156.208 203.435 L164.743 224.656" stroke="none" stroke-width="0" fill="rgb(0, 0, 0)"/><path d="M163.933 228.35 M163.79 224.639 C168.816 216.129, 171.013 209.15, 172.752 204.291 M173.525 205.046 C169.519 206.528, 168.179 206.977, 164.255 209.489 M164.365 209.973 C162.176 210.085, 160.49 206.932, 153.705 203.788 M152.677 206.659 C157.848 215.181, 163.198 220.497, 162.275 226.647" stroke="rgb(0, 0, 0)" stroke-width="1" fill="none"/></g><g clip-path="url(#clipPath2_ygc0__54)"><path d="M181.754 146.714 L252.982 146.366 L254.647 182.138 L182.367 180.537 L183.66 149.596" stroke="none" stroke-width="0" fill="rgb(255, 255, 255)"/><path d="M181.501 147.102 M182.508 149.692 C208.239 149.375, 232.328 150.114, 253.806 146.727 M254.069 146.576 C252.721 160.71, 253.199 173.716, 253.753 179.653 M254.605 182.318 C234.489 182.137, 210.744 180.244, 182.739 180.737 M183.12 181.109 C181.642 172.666, 184.557 167.224, 181.37 147.139" stroke="rgb(255, 255, 255)" stroke-width="1" fill="none"/></g><g clip-path="url(#clipPath2_ygc0__55)"><g class="text-container" transform="matrix(1.8, 0, 0, 1.8, 953.8, -315.2)"><text x="-426.4204" xml:space="preserve" y="270.6439" clip-path="url(#clipPath2_ygc0_)" font-family="sans-serif" stroke="none" data-sketchy-clip-path="clipPath2_ygc0__55" style="font-style: normal;font-weight: 400;font-size: 12px;font-family: Comic Sans MS, cursive;" stroke-width="1px" fill="rgb(0, 0, 0)" text-anchor="start" dominant-baseline="auto">builds</text></g></g><g clip-path="url(#clipPath2_ygc0__56)"><path d="M410.754 350.996 M410.915 351.244 C410.764 358.545, 408.494 364.736, 410.38 369.294 M409.276 368.916 C339.203 369.384, 270.453 370.57, 164.555 369.787 M161.952 367.58 C162.566 358.039, 165.07 350.405, 163.514 332.677" stroke="rgb(0, 0, 0)" stroke-width="1.8" fill="none"/></g><g clip-path="url(#clipPath2_ygc0__57)"><path d="M162.139 320.07 L155.552 342.211 L162.303 334.457 L174.35 339.965 L163.277 321.214" stroke="none" stroke-width="0" fill="rgb(0, 0, 0)"/><path d="M163.256 320.372 M162.514 321.848 C161.131 328.983, 158.542 336.884, 153.791 339.748 M154.202 342.308 C157.065 339.596, 160.11 338.537, 163.122 335.181 M163.36 336.913 C165.411 338.557, 169.452 338.594, 173.509 341.819 M172.99 340.898 C168.59 334.338, 167.274 327.475, 164.497 320.229" stroke="rgb(0, 0, 0)" stroke-width="1" fill="none"/></g><g clip-path="url(#clipPath2_ygc0__58)"><path d="M185.057 353.393 L241.704 352.91 L240.579 383.468 L184.329 384.298 L187.149 353.08" stroke="none" stroke-width="0" fill="rgb(255, 255, 255)"/><path d="M186.137 350.595 M186.353 354.56 C199.929 354.016, 215.203 351.432, 241.535 354.35 M240.583 351.582 C241.902 360.252, 240.39 367.092, 241.255 385.023 M241.308 386.659 C222.753 386.351, 202.126 385.316, 185.298 386.802 M187.15 386.241 C184.373 375.974, 185.432 366.392, 184.322 352.879" stroke="rgb(255, 255, 255)" stroke-width="1" fill="none"/></g><g clip-path="url(#clipPath2_ygc0__59)"><g class="text-container" transform="matrix(1.8, 0, 0, 1.8, 953.8, -315.2)"><text x="-424.963" xml:space="preserve" y="384.1293" clip-path="url(#clipPath2_ygc0_)" font-family="sans-serif" stroke="none" data-sketchy-clip-path="clipPath2_ygc0__59" style="font-style: normal;font-weight: 400;font-size: 12px;font-family: Comic Sans MS, cursive;" stroke-width="1px" fill="rgb(0, 0, 0)" text-anchor="start" dominant-baseline="auto">uses</text></g></g><g clip-path="url(#clipPath2_ygc0__60)"><path d="M445.946 191.815 M449.074 191.406 C447.484 182.105, 445.418 171.724, 447.204 154.535 M448.726 153.754 C520.543 153.972, 591.877 152.612, 629.001 155.962 M629.905 156.108 C628.645 165.694, 629.341 179.521, 627.544 191.714" stroke="rgb(0, 0, 0)" stroke-width="1.8" fill="none" stroke-dasharray="7.2 5.4 0.5 5.4"/></g><g clip-path="url(#clipPath2_ygc0__61)"><path d="M446.434 356.187 M448.408 356.611 C447.067 363.86, 445.505 366.95, 445.514 377.195 M446.757 357.867 C447.574 363.28, 447.592 370.903, 446.877 378.069 M449.134 378.38 C491.037 380.125, 532.621 379.051, 618.663 377.055 M447.171 378.556 C493.538 377.507, 541.133 377.464, 620.063 377.919 M621.392 380.299 C620.496 372.187, 621.94 364.924, 620.617 353.198 M620.731 377.918 C621.53 370.573, 620.196 362.062, 619.778 354.793" stroke="rgb(0, 0, 0)" stroke-width="1.8" fill="none" stroke-dasharray="7.2 5.4 0.5 5.4"/></g><g clip-path="url(#clipPath2_ygc0__62)"><path d="M797.508 179.914 M800.354 177.92 C785.501 177.052, 773.022 178.783, 734.075 178.335 M736.124 178.947 C734.145 188.814, 732.831 200.386, 734.52 234.204 M736.482 233.219 C723.499 230.778, 709.797 231.196, 689.218 231.724" stroke="rgb(0, 0, 0)" stroke-width="1.8" fill="none"/></g><g clip-path="url(#clipPath2_ygc0__63)"><path d="M675.577 231.818 L695.768 240.302 L691.344 230.623 L695.765 223.582 L675.042 233.303" stroke="none" stroke-width="0" fill="rgb(0, 0, 0)"/><path d="M675.534 230.738 M675.786 232.933 C678.827 235.099, 685.738 237.265, 697.172 242.342 M695.65 240.653 C694.739 238.994, 693.332 235.056, 691.425 232.468 M690.154 232.639 C692.299 231.346, 694.256 228.729, 695.673 223.682 M695.008 221.884 C690.083 225.334, 686.239 227.179, 673.952 230.833" stroke="rgb(0, 0, 0)" stroke-width="1" fill="none"/></g><g clip-path="url(#clipPath2_ygc0__64)"><path d="M675.722 271.326 M674.373 272.503 C693.71 274.044, 711.045 274.477, 729.278 273.867 M727.915 273.107 C729.303 292.781, 726.648 311.364, 726.682 327.245 M729.131 327.115 C761.968 326.004, 793.905 327.153, 826.295 325.128" stroke="rgb(0, 0, 0)" stroke-width="1.8" fill="none"/></g><g clip-path="url(#clipPath2_ygc0__65)"><path d="M838.752 325.504 L817.752 319.216 L825.036 328.497 L819.41 336.624 L839.698 324.987" stroke="none" stroke-width="0" fill="rgb(0, 0, 0)"/><path d="M840.215 328.771 M840.305 327.814 C834.089 326.309, 825.882 320.698, 817.944 315.921 M838.995 327.122 C832.764 323.195, 826.229 320.927, 819.037 318.537 M819.092 317.356 C820.575 319.756, 822.004 323.591, 824.212 326.394 M818.6 317.772 C819.215 319.717, 821.189 321.84, 824.008 327.121 M824.7 326.264 C820.729 329.501, 819.782 332.538, 817.567 336.629 M823.468 327.333 C822.114 330.325, 819.959 332.55, 818.507 335.774 M817.132 334.425 C825.773 335.164, 829.503 331.999, 839.886 325.693 M819.186 336.255 C822.855 332.796, 829.242 331.682, 839.804 327.159" stroke="rgb(0, 0, 0)" stroke-width="1" fill="none"/></g></svg>