<svg data-v-6e9b645d="" class="sketchy-canvas visible" xmlns="http://www.w3.org/2000/svg" xmlns:xlink="http://www.w3.org/1999/xlink" width="1078" height="710" stroke-linecap="round"><defs><clipPath id="ygc103_0_0"><rect x="25" y="25" width="1027.5" height="660" transform="matrix(1, 0, 0, 1, 0, 0)"/></clipPath><clipPath id="clipPath2_ygc0__1"><path d="M1212 116 L1887 116 L1887 546 L1212 546 L1212 116 Z" transform="matrix(1.5, 0, 0, 1.5, -1785.5, -141.5)"/></clipPath><clipPath id="clipPath2_ygc0__2"><path d="M1212 116 L1887 116 L1887 546 L1212 546 L1212 116 Z" transform="matrix(1.5, 0, 0, 1.5, -1785.5, -141.5)"/></clipPath><clipPath id="clipPath2_ygc0__3"><path d="M1212 116 L1887 116 L1887 546 L1212 546 L1212 116 Z" transform="matrix(1.5, 0, 0, 1.5, -1785.5, -141.5)"/></clipPath><clipPath id="clipPath2_ygc0__4"><path d="M1212 116 L1887 116 L1887 546 L1212 546 L1212 116 Z" transform="matrix(1.5, 0, 0, 1.5, -1785.5, -141.5)"/></clipPath><clipPath id="clipPath2_ygc0__5"><path d="M1212 116 L1887 116 L1887 546 L1212 546 L1212 116 Z" transform="matrix(1.5, 0, 0, 1.5, -1785.5, -141.5)"/></clipPath><clipPath id="clipPath2_ygc0__6"><path d="M1212 116 L1887 116 L1887 546 L1212 546 L1212 116 Z" transform="matrix(1.5, 0, 0, 1.5, -1785.5, -141.5)"/></clipPath><clipPath id="clipPath2_ygc0__7"><path d="M1212 116 L1887 116 L1887 546 L1212 546 L1212 116 Z" transform="matrix(1.5, 0, 0, 1.5, -1785.5, -141.5)"/></clipPath><clipPath id="clipPath2_ygc0__8"><path d="M1212 116 L1887 116 L1887 546 L1212 546 L1212 116 Z" transform="matrix(1.5, 0, 0, 1.5, -1785.5, -141.5)"/></clipPath><clipPath id="clipPath2_ygc0__9"><path d="M1212 116 L1887 116 L1887 546 L1212 546 L1212 116 Z" transform="matrix(1.5, 0, 0, 1.5, -1785.5, -141.5)"/></clipPath><clipPath id="clipPath2_ygc0__10"><path d="M1212 116 L1887 116 L1887 546 L1212 546 L1212 116 Z" transform="matrix(1.5, 0, 0, 1.5, -1785.5, -141.5)"/></clipPath><clipPath id="clipPath2_ygc0__11"><path d="M1212 116 L1887 116 L1887 546 L1212 546 L1212 116 Z" transform="matrix(1.5, 0, 0, 1.5, -1785.5, -141.5)"/></clipPath><clipPath id="clipPath2_ygc0__12"><path d="M1212 116 L1887 116 L1887 546 L1212 546 L1212 116 Z" transform="matrix(1.5, 0, 0, 1.5, -1785.5, -141.5)"/></clipPath><clipPath id="clipPath2_ygc0__13"><path d="M1212 116 L1887 116 L1887 546 L1212 546 L1212 116 Z" transform="matrix(1.5, 0, 0, 1.5, -1785.5, -141.5)"/></clipPath><clipPath id="clipPath2_ygc0__14"><path d="M1212 116 L1887 116 L1887 546 L1212 546 L1212 116 Z" transform="matrix(1.5, 0, 0, 1.5, -1785.5, -141.5)"/></clipPath><clipPath id="clipPath2_ygc0__15"><path d="M1212 116 L1887 116 L1887 546 L1212 546 L1212 116 Z" transform="matrix(1.5, 0, 0, 1.5, -1785.5, -141.5)"/></clipPath><clipPath id="clipPath2_ygc0__16"><path d="M1212 116 L1887 116 L1887 546 L1212 546 L1212 116 Z" transform="matrix(1.5, 0, 0, 1.5, -1785.5, -141.5)"/></clipPath><clipPath id="clipPath2_ygc0__17"><path d="M1212 116 L1887 116 L1887 546 L1212 546 L1212 116 Z" transform="matrix(1.5, 0, 0, 1.5, -1785.5, -141.5)"/></clipPath><clipPath id="clipPath2_ygc0__18"><path d="M1212 116 L1887 116 L1887 546 L1212 546 L1212 116 Z" transform="matrix(1.5, 0, 0, 1.5, -1785.5, -141.5)"/></clipPath><clipPath id="clipPath2_ygc0__19"><path d="M1212 116 L1887 116 L1887 546 L1212 546 L1212 116 Z" transform="matrix(1.5, 0, 0, 1.5, -1785.5, -141.5)"/></clipPath><clipPath id="clipPath2_ygc0__20"><path d="M1212 116 L1887 116 L1887 546 L1212 546 L1212 116 Z" transform="matrix(1.5, 0, 0, 1.5, -1785.5, -141.5)"/></clipPath><clipPath id="clipPath2_ygc0__21"><path d="M1212 116 L1887 116 L1887 546 L1212 546 L1212 116 Z" transform="matrix(1.5, 0, 0, 1.5, -1785.5, -141.5)"/></clipPath><clipPath id="clipPath2_ygc0__22"><path d="M1212 116 L1887 116 L1887 546 L1212 546 L1212 116 Z" transform="matrix(1.5, 0, 0, 1.5, -1785.5, -141.5)"/></clipPath><clipPath id="clipPath2_ygc0__23"><path d="M1212 116 L1887 116 L1887 546 L1212 546 L1212 116 Z" transform="matrix(1.5, 0, 0, 1.5, -1785.5, -141.5)"/></clipPath><clipPath id="clipPath2_ygc0__24"><path d="M1212 116 L1887 116 L1887 546 L1212 546 L1212 116 Z" transform="matrix(1.5, 0, 0, 1.5, -1785.5, -141.5)"/></clipPath><clipPath id="clipPath2_ygc0__25"><path d="M1212 116 L1887 116 L1887 546 L1212 546 L1212 116 Z" transform="matrix(1.5, 0, 0, 1.5, -1785.5, -141.5)"/></clipPath><clipPath id="clipPath2_ygc0__26"><path d="M1212 116 L1887 116 L1887 546 L1212 546 L1212 116 Z" transform="matrix(1.5, 0, 0, 1.5, -1785.5, -141.5)"/></clipPath><clipPath id="clipPath2_ygc0__27"><path d="M1212 116 L1887 116 L1887 546 L1212 546 L1212 116 Z" transform="matrix(1.5, 0, 0, 1.5, -1785.5, -141.5)"/></clipPath><clipPath id="clipPath2_ygc0__28"><path d="M1212 116 L1887 116 L1887 546 L1212 546 L1212 116 Z" transform="matrix(1.5, 0, 0, 1.5, -1785.5, -141.5)"/></clipPath><clipPath id="clipPath2_ygc0__29"><path d="M1212 116 L1887 116 L1887 546 L1212 546 L1212 116 Z" transform="matrix(1.5, 0, 0, 1.5, -1785.5, -141.5)"/></clipPath><clipPath id="clipPath2_ygc0__30"><path d="M1212 116 L1887 116 L1887 546 L1212 546 L1212 116 Z" transform="matrix(1.5, 0, 0, 1.5, -1785.5, -141.5)"/></clipPath><clipPath id="clipPath2_ygc0__31"><path d="M1212 116 L1887 116 L1887 546 L1212 546 L1212 116 Z" transform="matrix(1.5, 0, 0, 1.5, -1785.5, -141.5)"/></clipPath><clipPath id="clipPath2_ygc0__32"><path d="M1212 116 L1887 116 L1887 546 L1212 546 L1212 116 Z" transform="matrix(1.5, 0, 0, 1.5, -1785.5, -141.5)"/></clipPath><clipPath id="clipPath2_ygc0__33"><path d="M1212 116 L1887 116 L1887 546 L1212 546 L1212 116 Z" transform="matrix(1.5, 0, 0, 1.5, -1785.5, -141.5)"/></clipPath><clipPath id="clipPath2_ygc0__34"><path d="M1212 116 L1887 116 L1887 546 L1212 546 L1212 116 Z" transform="matrix(1.5, 0, 0, 1.5, -1785.5, -141.5)"/></clipPath><clipPath id="clipPath2_ygc0__35"><path d="M1212 116 L1887 116 L1887 546 L1212 546 L1212 116 Z" transform="matrix(1.5, 0, 0, 1.5, -1785.5, -141.5)"/></clipPath><clipPath id="clipPath2_ygc0__36"><path d="M1212 116 L1887 116 L1887 546 L1212 546 L1212 116 Z" transform="matrix(1.5, 0, 0, 1.5, -1785.5, -141.5)"/></clipPath><clipPath id="clipPath2_ygc0__37"><path d="M1212 116 L1887 116 L1887 546 L1212 546 L1212 116 Z" transform="matrix(1.5, 0, 0, 1.5, -1785.5, -141.5)"/></clipPath><clipPath id="clipPath2_ygc0__38"><path d="M1212 116 L1887 116 L1887 546 L1212 546 L1212 116 Z" transform="matrix(1.5, 0, 0, 1.5, -1785.5, -141.5)"/></clipPath><clipPath id="clipPath2_ygc0__39"><path d="M1212 116 L1887 116 L1887 546 L1212 546 L1212 116 Z" transform="matrix(1.5, 0, 0, 1.5, -1785.5, -141.5)"/></clipPath><clipPath id="clipPath2_ygc0__40"><path d="M1212 116 L1887 116 L1887 546 L1212 546 L1212 116 Z" transform="matrix(1.5, 0, 0, 1.5, -1785.5, -141.5)"/></clipPath><clipPath id="clipPath2_ygc0__41"><path d="M1212 116 L1887 116 L1887 546 L1212 546 L1212 116 Z" transform="matrix(1.5, 0, 0, 1.5, -1785.5, -141.5)"/></clipPath><clipPath id="clipPath2_ygc0__42"><path d="M1212 116 L1887 116 L1887 546 L1212 546 L1212 116 Z" transform="matrix(1.5, 0, 0, 1.5, -1785.5, -141.5)"/></clipPath><clipPath id="clipPath2_ygc0__43"><path d="M1212 116 L1887 116 L1887 546 L1212 546 L1212 116 Z" transform="matrix(1.5, 0, 0, 1.5, -1785.5, -141.5)"/></clipPath><clipPath id="clipPath2_ygc0__44"><path d="M1212 116 L1887 116 L1887 546 L1212 546 L1212 116 Z" transform="matrix(1.5, 0, 0, 1.5, -1785.5, -141.5)"/></clipPath><clipPath id="clipPath2_ygc0__45"><path d="M1212 116 L1887 116 L1887 546 L1212 546 L1212 116 Z" transform="matrix(1.5, 0, 0, 1.5, -1785.5, -141.5)"/></clipPath><clipPath id="clipPath2_ygc0__46"><path d="M1212 116 L1887 116 L1887 546 L1212 546 L1212 116 Z" transform="matrix(1.5, 0, 0, 1.5, -1785.5, -141.5)"/></clipPath><clipPath id="clipPath2_ygc0__47"><path d="M1212 116 L1887 116 L1887 546 L1212 546 L1212 116 Z" transform="matrix(1.5, 0, 0, 1.5, -1785.5, -141.5)"/></clipPath><clipPath id="clipPath2_ygc0__48"><path d="M1212 116 L1887 116 L1887 546 L1212 546 L1212 116 Z" transform="matrix(1.5, 0, 0, 1.5, -1785.5, -141.5)"/></clipPath><clipPath id="clipPath2_ygc0__49"><path d="M1212 116 L1887 116 L1887 546 L1212 546 L1212 116 Z" transform="matrix(1.5, 0, 0, 1.5, -1785.5, -141.5)"/></clipPath><clipPath id="clipPath2_ygc0__50"><path d="M1212 116 L1887 116 L1887 546 L1212 546 L1212 116 Z" transform="matrix(1.5, 0, 0, 1.5, -1785.5, -141.5)"/></clipPath><clipPath id="clipPath2_ygc0__51"><path d="M1212 116 L1887 116 L1887 546 L1212 546 L1212 116 Z" transform="matrix(1.5, 0, 0, 1.5, -1785.5, -141.5)"/></clipPath><clipPath id="clipPath2_ygc0__52"><path d="M1212 116 L1887 116 L1887 546 L1212 546 L1212 116 Z" transform="matrix(1.5, 0, 0, 1.5, -1785.5, -141.5)"/></clipPath><clipPath id="clipPath2_ygc0__53"><path d="M1212 116 L1887 116 L1887 546 L1212 546 L1212 116 Z" transform="matrix(1.5, 0, 0, 1.5, -1785.5, -141.5)"/></clipPath><clipPath id="clipPath2_ygc0__54"><path d="M1212 116 L1887 116 L1887 546 L1212 546 L1212 116 Z" transform="matrix(1.5, 0, 0, 1.5, -1785.5, -141.5)"/></clipPath><clipPath id="clipPath2_ygc0__55"><path d="M1212 116 L1887 116 L1887 546 L1212 546 L1212 116 Z" transform="matrix(1.5, 0, 0, 1.5, -1785.5, -141.5)"/></clipPath><clipPath id="clipPath2_ygc0__56"><path d="M1212 116 L1887 116 L1887 546 L1212 546 L1212 116 Z" transform="matrix(1.5, 0, 0, 1.5, -1785.5, -141.5)"/></clipPath><clipPath id="clipPath2_ygc0__57"><path d="M1212 116 L1887 116 L1887 546 L1212 546 L1212 116 Z" transform="matrix(1.5, 0, 0, 1.5, -1785.5, -141.5)"/></clipPath><clipPath id="clipPath2_ygc0__58"><path d="M1212 116 L1887 116 L1887 546 L1212 546 L1212 116 Z" transform="matrix(1.5, 0, 0, 1.5, -1785.5, -141.5)"/></clipPath><clipPath id="clipPath2_ygc0__59"><path d="M1212 116 L1887 116 L1887 546 L1212 546 L1212 116 Z" transform="matrix(1.5, 0, 0, 1.5, -1785.5, -141.5)"/></clipPath><clipPath id="clipPath2_ygc0__60"><path d="M1212 116 L1887 116 L1887 546 L1212 546 L1212 116 Z" transform="matrix(1.5, 0, 0, 1.5, -1785.5, -141.5)"/></clipPath><clipPath id="clipPath2_ygc0__61"><path d="M1212 116 L1887 116 L1887 546 L1212 546 L1212 116 Z" transform="matrix(1.5, 0, 0, 1.5, -1785.5, -141.5)"/></clipPath><clipPath id="clipPath2_ygc0__62"><path d="M1212 116 L1887 116 L1887 546 L1212 546 L1212 116 Z" transform="matrix(1.5, 0, 0, 1.5, -1785.5, -141.5)"/></clipPath><clipPath id="clipPath2_ygc0__63"><path d="M1212 116 L1887 116 L1887 546 L1212 546 L1212 116 Z" transform="matrix(1.5, 0, 0, 1.5, -1785.5, -141.5)"/></clipPath><clipPath id="clipPath2_ygc0__64"><path d="M1212 116 L1887 116 L1887 546 L1212 546 L1212 116 Z" transform="matrix(1.5, 0, 0, 1.5, -1785.5, -141.5)"/></clipPath><clipPath id="clipPath2_ygc0__65"><path d="M1212 116 L1887 116 L1887 546 L1212 546 L1212 116 Z" transform="matrix(1.5, 0, 0, 1.5, -1785.5, -141.5)"/></clipPath><clipPath id="clipPath2_ygc0__66"><path d="M1212 116 L1887 116 L1887 546 L1212 546 L1212 116 Z" transform="matrix(1.5, 0, 0, 1.5, -1785.5, -141.5)"/></clipPath><clipPath id="clipPath2_ygc0__67"><path d="M1212 116 L1887 116 L1887 546 L1212 546 L1212 116 Z" transform="matrix(1.5, 0, 0, 1.5, -1785.5, -141.5)"/></clipPath><clipPath id="clipPath2_ygc0__68"><path d="M1212 116 L1887 116 L1887 546 L1212 546 L1212 116 Z" transform="matrix(1.5, 0, 0, 1.5, -1785.5, -141.5)"/></clipPath><clipPath id="clipPath2_ygc0__69"><path d="M1212 116 L1887 116 L1887 546 L1212 546 L1212 116 Z" transform="matrix(1.5, 0, 0, 1.5, -1785.5, -141.5)"/></clipPath><clipPath id="clipPath2_ygc0__70"><path d="M1212 116 L1887 116 L1887 546 L1212 546 L1212 116 Z" transform="matrix(1.5, 0, 0, 1.5, -1785.5, -141.5)"/></clipPath><clipPath id="clipPath2_ygc0__71"><path d="M1212 116 L1887 116 L1887 546 L1212 546 L1212 116 Z" transform="matrix(1.5, 0, 0, 1.5, -1785.5, -141.5)"/></clipPath><clipPath id="clipPath2_ygc0__72"><path d="M1212 116 L1887 116 L1887 546 L1212 546 L1212 116 Z" transform="matrix(1.5, 0, 0, 1.5, -1785.5, -141.5)"/></clipPath><clipPath id="clipPath2_ygc0__73"><path d="M1212 116 L1887 116 L1887 546 L1212 546 L1212 116 Z" transform="matrix(1.5, 0, 0, 1.5, -1785.5, -141.5)"/></clipPath><clipPath id="clipPath2_ygc0__74"><path d="M1212 116 L1887 116 L1887 546 L1212 546 L1212 116 Z" transform="matrix(1.5, 0, 0, 1.5, -1785.5, -141.5)"/></clipPath><clipPath id="clipPath2_ygc0__75"><path d="M1212 116 L1887 116 L1887 546 L1212 546 L1212 116 Z" transform="matrix(1.5, 0, 0, 1.5, -1785.5, -141.5)"/></clipPath><clipPath id="clipPath2_ygc0__76"><path d="M1212 116 L1887 116 L1887 546 L1212 546 L1212 116 Z" transform="matrix(1.5, 0, 0, 1.5, -1785.5, -141.5)"/></clipPath><clipPath id="clipPath2_ygc0__77"><path d="M1212 116 L1887 116 L1887 546 L1212 546 L1212 116 Z" transform="matrix(1.5, 0, 0, 1.5, -1785.5, -141.5)"/></clipPath><clipPath id="clipPath2_ygc0__78"><path d="M1212 116 L1887 116 L1887 546 L1212 546 L1212 116 Z" transform="matrix(1.5, 0, 0, 1.5, -1785.5, -141.5)"/></clipPath><clipPath id="clipPath2_ygc0__79"><path d="M1212 116 L1887 116 L1887 546 L1212 546 L1212 116 Z" transform="matrix(1.5, 0, 0, 1.5, -1785.5, -141.5)"/></clipPath><clipPath id="clipPath2_ygc0__80"><path d="M1212 116 L1887 116 L1887 546 L1212 546 L1212 116 Z" transform="matrix(1.5, 0, 0, 1.5, -1785.5, -141.5)"/></clipPath><clipPath id="clipPath2_ygc0__81"><path d="M1212 116 L1887 116 L1887 546 L1212 546 L1212 116 Z" transform="matrix(1.5, 0, 0, 1.5, -1785.5, -141.5)"/></clipPath><clipPath id="clipPath2_ygc0__82"><path d="M1212 116 L1887 116 L1887 546 L1212 546 L1212 116 Z" transform="matrix(1.5, 0, 0, 1.5, -1785.5, -141.5)"/></clipPath><clipPath id="clipPath2_ygc0__83"><path d="M1212 116 L1887 116 L1887 546 L1212 546 L1212 116 Z" transform="matrix(1.5, 0, 0, 1.5, -1785.5, -141.5)"/></clipPath><clipPath id="clipPath2_ygc0__84"><path d="M1212 116 L1887 116 L1887 546 L1212 546 L1212 116 Z" transform="matrix(1.5, 0, 0, 1.5, -1785.5, -141.5)"/></clipPath><clipPath id="clipPath2_ygc0__85"><path d="M1212 116 L1887 116 L1887 546 L1212 546 L1212 116 Z" transform="matrix(1.5, 0, 0, 1.5, -1785.5, -141.5)"/></clipPath><clipPath id="clipPath2_ygc0__86"><path d="M1212 116 L1887 116 L1887 546 L1212 546 L1212 116 Z" transform="matrix(1.5, 0, 0, 1.5, -1785.5, -141.5)"/></clipPath><clipPath id="clipPath2_ygc0__87"><path d="M1212 116 L1887 116 L1887 546 L1212 546 L1212 116 Z" transform="matrix(1.5, 0, 0, 1.5, -1785.5, -141.5)"/></clipPath><clipPath id="clipPath2_ygc0__88"><path d="M1212 116 L1887 116 L1887 546 L1212 546 L1212 116 Z" transform="matrix(1.5, 0, 0, 1.5, -1785.5, -141.5)"/></clipPath><clipPath id="clipPath2_ygc0__89"><path d="M1212 116 L1887 116 L1887 546 L1212 546 L1212 116 Z" transform="matrix(1.5, 0, 0, 1.5, -1785.5, -141.5)"/></clipPath><clipPath id="clipPath2_ygc0__90"><path d="M1212 116 L1887 116 L1887 546 L1212 546 L1212 116 Z" transform="matrix(1.5, 0, 0, 1.5, -1785.5, -141.5)"/></clipPath><clipPath id="clipPath2_ygc0__91"><path d="M1212 116 L1887 116 L1887 546 L1212 546 L1212 116 Z" transform="matrix(1.5, 0, 0, 1.5, -1785.5, -141.5)"/></clipPath><clipPath id="clipPath2_ygc0__92"><path d="M1212 116 L1887 116 L1887 546 L1212 546 L1212 116 Z" transform="matrix(1.5, 0, 0, 1.5, -1785.5, -141.5)"/></clipPath><clipPath id="clipPath2_ygc0__93"><path d="M1212 116 L1887 116 L1887 546 L1212 546 L1212 116 Z" transform="matrix(1.5, 0, 0, 1.5, -1785.5, -141.5)"/></clipPath><clipPath id="clipPath2_ygc0__94"><path d="M1212 116 L1887 116 L1887 546 L1212 546 L1212 116 Z" transform="matrix(1.5, 0, 0, 1.5, -1785.5, -141.5)"/></clipPath><clipPath id="clipPath2_ygc0__95"><path d="M1212 116 L1887 116 L1887 546 L1212 546 L1212 116 Z" transform="matrix(1.5, 0, 0, 1.5, -1785.5, -141.5)"/></clipPath><clipPath id="clipPath2_ygc0__96"><path d="M1212 116 L1887 116 L1887 546 L1212 546 L1212 116 Z" transform="matrix(1.5, 0, 0, 1.5, -1785.5, -141.5)"/></clipPath><clipPath id="clipPath2_ygc0__97"><path d="M1212 116 L1887 116 L1887 546 L1212 546 L1212 116 Z" transform="matrix(1.5, 0, 0, 1.5, -1785.5, -141.5)"/></clipPath><clipPath id="clipPath2_ygc0__98"><path d="M1212 116 L1887 116 L1887 546 L1212 546 L1212 116 Z" transform="matrix(1.5, 0, 0, 1.5, -1785.5, -141.5)"/></clipPath><clipPath id="clipPath2_ygc0__99"><path d="M1212 116 L1887 116 L1887 546 L1212 546 L1212 116 Z" transform="matrix(1.5, 0, 0, 1.5, -1785.5, -141.5)"/></clipPath><clipPath id="clipPath2_ygc0__100"><path d="M1212 116 L1887 116 L1887 546 L1212 546 L1212 116 Z" transform="matrix(1.5, 0, 0, 1.5, -1785.5, -141.5)"/></clipPath><clipPath id="clipPath2_ygc0__101"><path d="M1212 116 L1887 116 L1887 546 L1212 546 L1212 116 Z" transform="matrix(1.5, 0, 0, 1.5, -1785.5, -141.5)"/></clipPath><clipPath id="clipPath2_ygc0__102"><path d="M1212 116 L1887 116 L1887 546 L1212 546 L1212 116 Z" transform="matrix(1.5, 0, 0, 1.5, -1785.5, -141.5)"/></clipPath><clipPath id="clipPath2_ygc0__103"><path d="M1212 116 L1887 116 L1887 546 L1212 546 L1212 116 Z" transform="matrix(1.5, 0, 0, 1.5, -1785.5, -141.5)"/></clipPath><clipPath id="clipPath2_ygc0__104"><path d="M1212 116 L1887 116 L1887 546 L1212 546 L1212 116 Z" transform="matrix(1.5, 0, 0, 1.5, -1785.5, -141.5)"/></clipPath><clipPath id="clipPath2_ygc0__105"><path d="M1212 116 L1887 116 L1887 546 L1212 546 L1212 116 Z" transform="matrix(1.5, 0, 0, 1.5, -1785.5, -141.5)"/></clipPath><clipPath id="clipPath2_ygc0__106"><path d="M1212 116 L1887 116 L1887 546 L1212 546 L1212 116 Z" transform="matrix(1.5, 0, 0, 1.5, -1785.5, -141.5)"/></clipPath><clipPath id="clipPath2_ygc0__107"><path d="M1212 116 L1887 116 L1887 546 L1212 546 L1212 116 Z" transform="matrix(1.5, 0, 0, 1.5, -1785.5, -141.5)"/></clipPath><clipPath id="clipPath2_ygc0__108"><path d="M1212 116 L1887 116 L1887 546 L1212 546 L1212 116 Z" transform="matrix(1.5, 0, 0, 1.5, -1785.5, -141.5)"/></clipPath><clipPath id="clipPath2_ygc0__109"><path d="M1212 116 L1887 116 L1887 546 L1212 546 L1212 116 Z" transform="matrix(1.5, 0, 0, 1.5, -1785.5, -141.5)"/></clipPath><clipPath id="clipPath2_ygc0__110"><path d="M1212 116 L1887 116 L1887 546 L1212 546 L1212 116 Z" transform="matrix(1.5, 0, 0, 1.5, -1785.5, -141.5)"/></clipPath><clipPath id="clipPath2_ygc0__111"><path d="M1212 116 L1887 116 L1887 546 L1212 546 L1212 116 Z" transform="matrix(1.5, 0, 0, 1.5, -1785.5, -141.5)"/></clipPath><clipPath id="clipPath2_ygc0__112"><path d="M1212 116 L1887 116 L1887 546 L1212 546 L1212 116 Z" transform="matrix(1.5, 0, 0, 1.5, -1785.5, -141.5)"/></clipPath><clipPath id="clipPath2_ygc0__113"><path d="M1212 116 L1887 116 L1887 546 L1212 546 L1212 116 Z" transform="matrix(1.5, 0, 0, 1.5, -1785.5, -141.5)"/></clipPath><clipPath id="clipPath2_ygc0__114"><path d="M1212 116 L1887 116 L1887 546 L1212 546 L1212 116 Z" transform="matrix(1.5, 0, 0, 1.5, -1785.5, -141.5)"/></clipPath><clipPath id="clipPath2_ygc0__115"><path d="M1212 116 L1887 116 L1887 546 L1212 546 L1212 116 Z" transform="matrix(1.5, 0, 0, 1.5, -1785.5, -141.5)"/></clipPath><clipPath id="clipPath2_ygc0__116"><path d="M1212 116 L1887 116 L1887 546 L1212 546 L1212 116 Z" transform="matrix(1.5, 0, 0, 1.5, -1785.5, -141.5)"/></clipPath><clipPath id="clipPath2_ygc0__117"><path d="M1212 116 L1887 116 L1887 546 L1212 546 L1212 116 Z" transform="matrix(1.5, 0, 0, 1.5, -1785.5, -141.5)"/></clipPath><clipPath id="clipPath2_ygc0__118"><path d="M1212 116 L1887 116 L1887 546 L1212 546 L1212 116 Z" transform="matrix(1.5, 0, 0, 1.5, -1785.5, -141.5)"/></clipPath><clipPath id="clipPath2_ygc0__119"><path d="M1212 116 L1887 116 L1887 546 L1212 546 L1212 116 Z" transform="matrix(1.5, 0, 0, 1.5, -1785.5, -141.5)"/></clipPath><clipPath id="clipPath2_ygc0__120"><path d="M1212 116 L1887 116 L1887 546 L1212 546 L1212 116 Z" transform="matrix(1.5, 0, 0, 1.5, -1785.5, -141.5)"/></clipPath></defs><rect width="1078" height="710" fill="white"/><g><path d="M0.197 -0.024 L1079.639 1.897 L1078.566 710.673 L1.426 708.455" stroke="none" stroke-width="0" fill="rgb(255, 255, 255)"/><path d="M0.567 0.076 C309.924 0.427, 620.422 0.565, 1077.596 -0.651 M1077.816 -0.446 C1080.235 163.804, 1080.127 326.83, 1077.687 710.472 M1077.963 710.278 C797.144 709.066, 515.425 708.954, 0.509 709.358 M-0.728 709.85 C2.893 479.804, 1.527 250.02, 0.715 -0.671" stroke="rgb(255, 255, 255)" stroke-width="1" fill="none"/></g><g clip-path="url(#clipPath2_ygc0__1)"><path d="M56.039 53.841 L179.085 54.283 L178.314 622.359 L57.045 621.006 L56.754 55.681" stroke="none" stroke-width="0" fill="rgb(255, 203, 229)"/><path d="M55.234 54.036 M54.402 53.531 C96.012 55.422, 139.209 54.845, 175.931 55.17 M177.198 56.136 C178.804 199.743, 177.559 343.02, 177.69 620.829 M179.182 619.17 C129.795 620.698, 85.255 619.017, 55.591 621.729 M55.265 620.944 C55.039 481.106, 54.799 342.869, 55.307 54.618" stroke="rgb(255, 203, 229)" stroke-width="1" fill="none"/></g><g clip-path="url(#clipPath2_ygc0__2)"><path d="M53.785 57.029 L55.531 56.228 L58.131 620.956 L53.909 622.242 L54.767 54.563" stroke="none" stroke-width="0" fill="rgb(255, 255, 255)"/><path d="M56.322 57.237 M55.326 55.403 C56.093 55.427, 56.593 55.416, 56.949 55.238 M56.257 55.72 C56.212 224.689, 56.21 393.132, 56.612 620.706 M56.883 620.579 C56.58 620.703, 56.129 620.711, 55.384 620.76 M55.6 620.336 C55.153 450.589, 54.224 281.663, 55.85 55.343" stroke="rgb(255, 255, 255)" stroke-width="1" fill="none"/></g><g clip-path="url(#clipPath2_ygc0__3)"><path d="M56.6 54.997 L174.869 53.991 L177.116 56.56 L54.917 57.73 L56.788 55.805" stroke="none" stroke-width="0" fill="rgb(255, 255, 255)"/><path d="M55.092 55.747 M58.881 55.988 C90.507 55.327, 121.647 57.016, 177.003 53.744 M176.098 55.343 C176.08 55.844, 176.205 55.943, 176.262 57.017 M177.061 58.05 C135.639 54.487, 92.299 58.157, 56.199 54.933 M56.776 56.999 C56.909 56.18, 56.762 55.656, 56.86 55.397" stroke="rgb(255, 255, 255)" stroke-width="1" fill="none"/></g><g clip-path="url(#clipPath2_ygc0__4)"><path d="M57.667 620.36 L177.662 619.885 L175.826 620.363 L55.884 620.161 L56.194 620.129" stroke="none" stroke-width="0" fill="rgb(178, 142, 160)"/><path d="M55.398 619.525 M56.812 620.986 C84.819 620.235, 110.44 621.03, 179.224 620.027 M56.134 619.681 C83.792 618.781, 109.979 619.791, 178.403 619.279 M177.813 619.112 C177.776 619.624, 177.825 619.85, 177.805 620.67 M177.685 619.224 C177.764 619.519, 177.757 619.868, 177.697 620.671 M179.539 621.121 C130.198 620.146, 83.493 619.301, 58.691 622.465 M178.086 621.415 C135.687 620.8, 91.86 619.146, 57.023 620.595 M56.928 620.79 C56.882 620.166, 57.024 619.869, 57.021 619.238 M56.83 620.676 C56.9 620.21, 56.824 619.797, 56.929 619.272" stroke="rgb(178, 142, 160)" stroke-width="1" fill="none"/></g><g clip-path="url(#clipPath2_ygc0__5)"><path d="M174.443 53.727 L178.321 53.723 L176.256 619.543 L174.639 621.158 L177.582 55.226" stroke="none" stroke-width="0" fill="rgb(178, 142, 160)"/><path d="M177.87 56.552 M176.294 55.492 C176.588 55.356, 176.876 55.443, 177.695 55.357 M178.028 55.257 C178.947 219.25, 179.154 384.221, 178.478 619.573 M177.615 619.374 C177.37 619.314, 177.074 619.329, 176.308 619.253 M176.211 618.874 C177.285 496.363, 178.237 374.047, 176.815 54.638" stroke="rgb(178, 142, 160)" stroke-width="1" fill="none"/></g><g clip-path="url(#clipPath2_ygc0__6)"><g class="text-container" transform="matrix(1.5, 0, 0, 1.5, -1785.5, -141.5)"><text x="1233.2574" xml:space="preserve" y="148.3887" clip-path="url(#clipPath2_ygc0_)" stroke="none" data-sketchy-clip-path="clipPath2_ygc0__6" style="font-style: normal;font-weight: 700;font-size: 12px;font-family: Comic Sans MS, cursive;" stroke-width="1px" fill="rgb(0, 0, 0)" text-anchor="start" dominant-baseline="auto">Backend</text></g></g><g clip-path="url(#clipPath2_ygc0__7)"><path d="M70.761 97.625 M70.761 97.625 C92.26 97.716, 111.947 95.817, 158.211 97.625 M70.761 97.625 C105.075 97.24, 139.626 98.395, 158.211 97.625 M158.211 97.625 C160.925 96.376, 165.504 102.24, 164.211 103.625 M158.211 97.625 C162.7 95.513, 165.014 101.013, 164.211 103.625 M164.211 103.625 C164.014 283.41, 164.181 463.898, 164.211 599.125 M164.211 103.625 C164.743 287.599, 164.195 470.796, 164.211 599.125 M164.211 599.125 C165.505 602.576, 161.746 605.405, 158.211 605.125 M164.211 599.125 C165.283 603.58, 159.002 604.926, 158.211 605.125 M158.211 605.125 C141.45 606.183, 122.9 605.523, 70.761 605.125 M158.211 605.125 C129.257 604.376, 100.371 603.921, 70.761 605.125 M70.761 605.125 C66.035 605.26, 64.737 599.903, 64.761 599.125 M70.761 605.125 C69.346 605.241, 62.893 600.94, 64.761 599.125 M64.761 599.125 C63.114 423.933, 63.275 248.341, 64.761 103.625 M64.761 599.125 C66.13 440.803, 66.11 282.422, 64.761 103.625 M64.761 103.625 C65.109 100.905, 69.839 99.158, 70.761 97.625 M64.761 103.625 C64.246 98.812, 68.592 96.854, 70.761 97.625 M70.761 97.625 C70.761 97.625, 70.761 97.625, 70.761 97.625 M70.761 97.625 C70.761 97.625, 70.761 97.625, 70.761 97.625" stroke="rgb(0, 0, 0)" stroke-width="1.5" fill="none"/></g><g clip-path="url(#clipPath2_ygc0__8)"><g class="text-container" transform="matrix(1.5, 0, 0, 1.5, -1785.5, -141.5)"><text x="1257.1652" xml:space="preserve" y="176.5553" clip-path="url(#clipPath2_ygc0_)" font-weight="normal" stroke="none" data-sketchy-clip-path="clipPath2_ygc0__8" style="font-style: normal;font-weight: 400;font-size: 12px;font-family: Comic Sans MS, cursive;" stroke-width="1px" fill="rgb(0, 0, 0)" text-anchor="start" dominant-baseline="auto">API</text></g></g><g clip-path="url(#clipPath2_ygc0__9)"><path d="M619.475 200.714 L965.262 198.832 L964.171 622.666 L619.015 621.503 L619.221 199.456" stroke="none" stroke-width="0" fill="rgb(203, 203, 255)"/><path d="M619.946 199.399 M620.246 198.975 C704.838 198.002, 790.917 196.665, 965.027 201.046 M965.146 199.882 C966.237 309.132, 966.214 419.192, 964.589 620.095 M965.568 619.697 C882.535 621.033, 797.586 620.782, 620.458 621.834 M621.011 621.105 C619.296 466.037, 618.669 310.457, 620.322 199.628" stroke="rgb(203, 203, 255)" stroke-width="1" fill="none"/></g><g clip-path="url(#clipPath2_ygc0__10)"><path d="M621.911 199.594 L621.266 198.202 L624.176 619.782 L619.82 621.812 L621.699 198.996" stroke="none" stroke-width="0" fill="rgb(255, 255, 255)"/><path d="M618.906 199.741 M620.942 199.882 C621.264 199.675, 621.741 199.708, 622.304 199.679 M623.057 199.739 C621.118 363.69, 621.941 526.599, 622.504 621.364 M622.405 620.82 C621.807 620.677, 621.294 620.637, 620.809 620.799 M620.527 619.688 C622.366 515.236, 621.87 410.687, 620.254 199.449" stroke="rgb(255, 255, 255)" stroke-width="1" fill="none"/></g><g clip-path="url(#clipPath2_ygc0__11)"><path d="M623.246 199.151 L963.366 199.46 L962.062 201.279 L623.832 199.304 L623.748 200.357" stroke="none" stroke-width="0" fill="rgb(255, 255, 255)"/><path d="M621.707 200.938 M622.765 200.467 C704.1 199.344, 786.582 198.774, 962.972 198.564 M963.593 199.834 C963.36 200.07, 963.498 200.396, 963.463 201.198 M962.397 200.733 C845.351 199.927, 725.422 200.29, 622.714 201.757 M622.44 201.249 C622.308 200.811, 622.449 200.399, 622.411 199.687" stroke="rgb(255, 255, 255)" stroke-width="1" fill="none"/></g><g clip-path="url(#clipPath2_ygc0__12)"><path d="M622.487 617.552 L963.751 618.028 L964.854 620.354 L621.967 619.081 L624.291 617.43" stroke="none" stroke-width="0" fill="rgb(142, 142, 178)"/><path d="M622.673 617.874 M621.509 620.06 C693.387 617.42, 762.796 617.137, 966.014 619.732 M964.967 619.228 C965 619.889, 964.999 620.236, 965.107 620.614 M963.821 621.928 C867.216 619.904, 767.695 619.327, 621.588 621.067 M622.336 620.592 C622.364 620.276, 622.282 620.001, 622.378 619.119" stroke="rgb(142, 142, 178)" stroke-width="1" fill="none"/></g><g clip-path="url(#clipPath2_ygc0__13)"><path d="M961.715 201.739 L965.455 198.927 L966.358 620.193 L962.855 617.479 L962.787 198.598" stroke="none" stroke-width="0" fill="rgb(142, 142, 178)"/><path d="M962.49 201.108 M963.507 199.886 C963.969 199.792, 964.593 199.761, 965.107 199.803 M964.8 200.612 C965.705 345.931, 965.551 491.436, 965.515 619.204 M964.946 619.273 C964.597 619.303, 964.195 619.367, 963.588 619.214 M963.674 620.054 C962.453 485.145, 962.229 350.365, 964.308 199.042" stroke="rgb(142, 142, 178)" stroke-width="1" fill="none"/></g><g clip-path="url(#clipPath2_ygc0__14)"><g class="text-container" transform="matrix(1.5, 0, 0, 1.5, -1785.5, -141.5)"><text x="1761.5732" xml:space="preserve" y="244.6553" clip-path="url(#clipPath2_ygc0_)" stroke="none" data-sketchy-clip-path="clipPath2_ygc0__14" style="font-style: normal;font-weight: 700;font-size: 12px;font-family: Comic Sans MS, cursive;" stroke-width="1px" fill="rgb(0, 0, 0)" text-anchor="start" dominant-baseline="auto">Frontend </text></g></g><g clip-path="url(#clipPath2_ygc0__15)"><path d="M730.121 96.915 L743.395 54.926 L853.736 55.037 L868.065 97.404 L854.587 135.247 L743.484 135.215 L731.889 95.882" stroke="none" stroke-width="0" fill="rgb(142, 142, 255)"/><path d="M729.215 93.898 M730.205 95.028 C736.354 81.752, 739.389 70.646, 743.479 58.342 M745.783 54.999 C774.539 55.018, 800.995 56.523, 855.529 54.938 M855.95 57.974 C857.863 69.679, 864.365 77.524, 867.16 95.53 M868.082 97.358 C865.633 103.007, 862.062 111.678, 852.775 132.511 M853.964 135.728 C828.627 134.969, 806.554 133.856, 745.96 135.971 M743.362 133.744 C741.038 120.086, 736.54 105.516, 729.831 96.173" stroke="rgb(142, 142, 255)" stroke-width="1" fill="none"/></g><g clip-path="url(#clipPath2_ygc0__16)"><path d="M732.268 96.308 M730.258 96.871 C734.199 86.076, 735.932 78.112, 745.808 55.684 M743.592 55.133 C770.892 58.955, 799.007 55.565, 855.608 57.074 M854.058 56.709 C858.352 70.957, 865.381 86.238, 867.044 94.78 M869.093 95.837 C864.622 106.391, 860.211 113.376, 856.53 135.604 M853.835 136.454 C810.067 136.371, 764.862 133.548, 742.439 135.214 M743.207 135.201 C742.304 124.176, 736.826 115.61, 730.625 93.939" stroke="rgb(0, 0, 0)" stroke-width="1.5" fill="none"/></g><g clip-path="url(#clipPath2_ygc0__17)"><g class="text-container" transform="matrix(1.5, 0, 0, 1.5, -1785.5, -141.5)"><text x="1693.806" xml:space="preserve" y="155.1699" clip-path="url(#clipPath2_ygc0_)" font-family="sans-serif" stroke="none" data-sketchy-clip-path="clipPath2_ygc0__17" style="font-style: normal;font-weight: 400;font-size: 12px;font-family: Comic Sans MS, cursive;" stroke-width="1px" fill="rgb(0, 0, 0)" text-anchor="start" dominant-baseline="auto">Extension</text></g></g><g clip-path="url(#clipPath2_ygc0__18)"><g class="text-container" transform="matrix(1.5, 0, 0, 1.5, -1785.5, -141.5)"><text x="1700.2191" xml:space="preserve" y="169.1387" clip-path="url(#clipPath2_ygc0_)" font-family="sans-serif" stroke="none" data-sketchy-clip-path="clipPath2_ygc0__18" style="font-style: normal;font-weight: 400;font-size: 12px;font-family: Comic Sans MS, cursive;" stroke-width="1px" fill="rgb(0, 0, 0)" text-anchor="start" dominant-baseline="auto">Catalog</text></g></g><g clip-path="url(#clipPath2_ygc0__19)"><path d="M653.463 236.282 L950.118 235.984 L950.168 242.703 L950.482 346.863 L947.57 351.313 L650.346 349.638 L646.158 346.964 L645.825 241.925 L647.081 235.479 L651.8 236.688" stroke="none" stroke-width="0" fill="rgb(178, 178, 255)"/><path d="M652.992 235.4 M652.992 235.4 C758.29 233.496, 862.489 232.6, 945.792 235.4 M652.992 235.4 C746.64 234.905, 841.306 234.844, 945.792 235.4 M945.792 235.4 C948.785 236.07, 951.203 238.621, 951.792 241.4 M945.792 235.4 C947.432 234.853, 950.256 238.572, 951.792 241.4 M951.792 241.4 C949.99 261.812, 949.699 285.06, 951.792 345.75 M951.792 241.4 C952.476 266.462, 953.547 289.985, 951.792 345.75 M951.792 345.75 C951.649 347.742, 947.155 350.321, 945.792 351.75 M951.792 345.75 C951.48 351.126, 946.235 350.792, 945.792 351.75 M945.792 351.75 C874.095 350.344, 802.645 350.232, 652.992 351.75 M945.792 351.75 C866.262 350.022, 786.144 349.9, 652.992 351.75 M652.992 351.75 C650.038 352.096, 645.207 350.182, 646.992 345.75 M652.992 351.75 C651.574 353.659, 648.574 349.646, 646.992 345.75 M646.992 345.75 C649.349 322.49, 647.07 298.045, 646.992 241.4 M646.992 345.75 C647.166 320.351, 647.361 293.072, 646.992 241.4 M646.992 241.4 C648.147 240.378, 651.083 237.08, 652.992 235.4 M646.992 241.4 C647.754 236.663, 651.142 233.738, 652.992 235.4 M652.992 235.4 C652.992 235.4, 652.992 235.4, 652.992 235.4 M652.992 235.4 C652.992 235.4, 652.992 235.4, 652.992 235.4" stroke="rgb(178, 178, 255)" stroke-width="1" fill="none"/></g><g clip-path="url(#clipPath2_ygc0__20)"><path d="M652.992 235.4 M652.992 235.4 C728.755 236.061, 803.694 235.662, 945.792 235.4 M945.792 235.4 C949.837 233.858, 953.499 237.528, 951.792 241.4 M951.792 241.4 C952.401 276.658, 950.982 311.8, 951.792 345.75 M951.792 345.75 C953.053 349.247, 947.336 350.855, 945.792 351.75 M945.792 351.75 C832.5 349.043, 721.828 350.968, 652.992 351.75 M652.992 351.75 C648.198 352.429, 646.805 346.449, 646.992 345.75 M646.992 345.75 C647.715 309.47, 646.471 275.279, 646.992 241.4 M646.992 241.4 C646.604 239.351, 648.681 235.195, 652.992 235.4 M652.992 235.4 C652.992 235.4, 652.992 235.4, 652.992 235.4" stroke="rgb(0, 0, 0)" stroke-width="1.5" fill="none"/></g><g clip-path="url(#clipPath2_ygc0__21)"><g class="text-container" transform="matrix(1.5, 0, 0, 1.5, -1785.5, -141.5)"><text x="1688.2367" xml:space="preserve" y="268.4053" clip-path="url(#clipPath2_ygc0_)" font-family="sans-serif" stroke="none" data-sketchy-clip-path="clipPath2_ygc0__21" style="font-style: normal;font-weight: 400;font-size: 12px;font-family: Comic Sans MS, cursive;" stroke-width="1px" fill="rgb(0, 0, 0)" text-anchor="start" dominant-baseline="auto">Code Editor</text></g></g><g clip-path="url(#clipPath2_ygc0__22)"><path d="M654.058 415.24 L949.524 415.846 L953.54 420.944 L951.273 597.417 L944.416 599.501 L651.022 601.797 L648.32 596.927 L647.073 422.044 L647.138 417.961 L652.09 413.376" stroke="none" stroke-width="0" fill="rgb(178, 178, 255)"/><path d="M652.992 414.75 M652.992 414.75 C752.738 416.188, 854.36 416.378, 945.792 414.75 M945.792 414.75 C948.187 416.282, 950.191 416.206, 951.792 420.75 M951.792 420.75 C949.839 462.102, 951.318 505.27, 951.792 595.35 M951.792 595.35 C951.65 599.473, 947.174 600.511, 945.792 601.35 M945.792 601.35 C886.159 600.651, 827.296 598.778, 652.992 601.35 M652.992 601.35 C650.227 601.546, 646.225 598.861, 646.992 595.35 M646.992 595.35 C647.303 547.981, 646.7 498.006, 646.992 420.75 M646.992 420.75 C645.382 419.18, 649.687 414.679, 652.992 414.75 M652.992 414.75 C652.992 414.75, 652.992 414.75, 652.992 414.75" stroke="rgb(178, 178, 255)" stroke-width="1" fill="none"/></g><g clip-path="url(#clipPath2_ygc0__23)"><path d="M652.992 414.75 M652.992 414.75 C719.319 412.375, 784.511 414.725, 945.792 414.75 M945.792 414.75 C950.592 416.074, 952.931 419.1, 951.792 420.75 M951.792 420.75 C954.169 473.102, 953.381 526.273, 951.792 595.35 M951.792 595.35 C952.612 597.918, 948.882 599.937, 945.792 601.35 M945.792 601.35 C863.469 602.876, 781.112 601.332, 652.992 601.35 M652.992 601.35 C649.172 601.614, 648.621 599.355, 646.992 595.35 M646.992 595.35 C646.249 529.069, 647.757 465.52, 646.992 420.75 M646.992 420.75 C648.729 418.919, 648.51 414.012, 652.992 414.75 M652.992 414.75 C652.992 414.75, 652.992 414.75, 652.992 414.75" stroke="rgb(0, 0, 0)" stroke-width="1.5" fill="none"/></g><g clip-path="url(#clipPath2_ygc0__24)"><g class="text-container" transform="matrix(1.5, 0, 0, 1.5, -1785.5, -141.5)"><text x="1685.5531" xml:space="preserve" y="387.972" clip-path="url(#clipPath2_ygc0_)" font-family="sans-serif" stroke="none" data-sketchy-clip-path="clipPath2_ygc0__24" style="font-style: normal;font-weight: 400;font-size: 12px;font-family: Comic Sans MS, cursive;" stroke-width="1px" fill="rgb(0, 0, 0)" text-anchor="start" dominant-baseline="auto">Visual Editor</text></g></g><g clip-path="url(#clipPath2_ygc0__25)"><path d="M652.654 361.233 L947.109 359.435 L948.829 363.586 L953.655 366.896 L949.977 396.873 L949.635 399.474 L944.85 400.124 L653.903 402.184 L650.456 399.909 L645.819 395.825 L645.654 365.264 L648.105 360.613 L654.784 361.514" stroke="none" stroke-width="0" fill="rgb(178, 178, 255)"/><path d="M652.992 360.2 M652.992 360.2 C729.435 357.241, 804.222 359.874, 945.792 360.2 M945.792 360.2 C950.448 361.062, 951.909 364.386, 951.792 366.2 M951.792 366.2 C951.153 376.593, 951.822 384.868, 951.792 395.3 M951.792 395.3 C953.495 399.211, 947.516 402.748, 945.792 401.3 M945.792 401.3 C840.015 401.541, 734.047 402.256, 652.992 401.3 M652.992 401.3 C648.217 399.343, 646.99 398.554, 646.992 395.3 M646.992 395.3 C645.831 389.042, 646.913 384.407, 646.992 366.2 M646.992 366.2 C645.251 364.347, 649.446 358.776, 652.992 360.2 M652.992 360.2 C652.992 360.2, 652.992 360.2, 652.992 360.2" stroke="rgb(178, 178, 255)" stroke-width="1" fill="none"/></g><g clip-path="url(#clipPath2_ygc0__26)"><path d="M652.992 360.2 M652.992 360.2 C755.39 359.416, 858.647 358.065, 945.792 360.2 M652.992 360.2 C752.741 359.327, 852.313 360.031, 945.792 360.2 M945.792 360.2 C948.804 361.084, 951.728 364.719, 951.792 366.2 M945.792 360.2 C946.94 360.573, 950.456 363.511, 951.792 366.2 M951.792 366.2 C950.746 370.79, 952.276 378.123, 951.792 395.3 M951.792 366.2 C951.138 372.493, 950.758 379.055, 951.792 395.3 M951.792 395.3 C953.79 397.432, 947.259 403.047, 945.792 401.3 M951.792 395.3 C949.757 397.925, 947.831 400.294, 945.792 401.3 M945.792 401.3 C855.396 402.36, 763.495 402.656, 652.992 401.3 M945.792 401.3 C840.415 400.054, 735.204 399.858, 652.992 401.3 M652.992 401.3 C648.087 402.797, 646.239 399.335, 646.992 395.3 M652.992 401.3 C648.013 402.786, 646.862 396.539, 646.992 395.3 M646.992 395.3 C647.994 383.583, 648.047 372.09, 646.992 366.2 M646.992 395.3 C647.77 386.618, 646.444 379.289, 646.992 366.2 M646.992 366.2 C647.626 361.973, 649.566 358.589, 652.992 360.2 M646.992 366.2 C648.698 364.197, 648.254 362.062, 652.992 360.2 M652.992 360.2 C652.992 360.2, 652.992 360.2, 652.992 360.2 M652.992 360.2 C652.992 360.2, 652.992 360.2, 652.992 360.2" stroke="rgb(0, 0, 0)" stroke-width="1.5" fill="none"/></g><g clip-path="url(#clipPath2_ygc0__27)"><g class="text-container" transform="matrix(1.5, 0, 0, 1.5, -1785.5, -141.5)"><text x="1684.6508" xml:space="preserve" y="351.6053" clip-path="url(#clipPath2_ygc0_)" font-family="sans-serif" stroke="none" data-sketchy-clip-path="clipPath2_ygc0__27" style="font-style: normal;font-weight: 400;font-size: 12px;font-family: Comic Sans MS, cursive;" stroke-width="1px" fill="rgb(0, 0, 0)" text-anchor="start" dominant-baseline="auto">Step Catalog</text></g></g><g clip-path="url(#clipPath2_ygc0__28)"><path d="M667.348 444.355 L824.978 447.287 L829.401 447.777 L831.461 452.15 L833.22 586.323 L832.201 591.899 L824.331 592.355 L668.136 590.703 L665.336 592.307 L662.586 588.535 L663.2 451.17 L666.21 447.749 L669.175 444.434" stroke="none" stroke-width="0" fill="rgb(142, 142, 255)"/><path d="M668.742 446.3 M668.742 446.3 C719.274 446.441, 774.637 445.429, 826.242 446.3 M826.242 446.3 C831.421 444.493, 833.197 447.91, 832.242 452.3 M832.242 452.3 C831.785 491.579, 831.18 531.289, 832.242 586.7 M832.242 586.7 C832.361 589.187, 830.248 594.47, 826.242 592.7 M826.242 592.7 C769.84 593.79, 713.03 592.74, 668.742 592.7 M668.742 592.7 C663.525 593.506, 663.518 590.156, 662.742 586.7 M662.742 586.7 C661.724 551.071, 662.835 517.038, 662.742 452.3 M662.742 452.3 C662.683 448.1, 666.151 446.898, 668.742 446.3 M668.742 446.3 C668.742 446.3, 668.742 446.3, 668.742 446.3" stroke="rgb(142, 142, 255)" stroke-width="1" fill="none"/></g><g clip-path="url(#clipPath2_ygc0__29)"><path d="M668.742 446.3 M668.742 446.3 C704.177 446.927, 736.805 447.243, 826.242 446.3 M826.242 446.3 C831.306 446.502, 830.301 449.318, 832.242 452.3 M832.242 452.3 C832.515 486.295, 830.45 517.918, 832.242 586.7 M832.242 586.7 C831.97 591.187, 827.557 591.52, 826.242 592.7 M826.242 592.7 C784.053 590.882, 740.14 592.075, 668.742 592.7 M668.742 592.7 C665.033 591.087, 661.261 591.385, 662.742 586.7 M662.742 586.7 C663.512 535.825, 662.909 485.789, 662.742 452.3 M662.742 452.3 C662.852 449.19, 664.554 446.323, 668.742 446.3 M668.742 446.3 C668.742 446.3, 668.742 446.3, 668.742 446.3" stroke="rgb(0, 0, 0)" stroke-width="1.5" fill="none"/></g><g clip-path="url(#clipPath2_ygc0__30)"><g class="text-container" transform="matrix(1.5, 0, 0, 1.5, -1785.5, -141.5)"><text x="1651.2988" xml:space="preserve" y="415.181" clip-path="url(#clipPath2_ygc0_)" font-family="sans-serif" stroke="none" data-sketchy-clip-path="clipPath2_ygc0__30" style="font-style: normal;font-weight: 400;font-size: 12px;font-family: Comic Sans MS, cursive;" stroke-width="1px" fill="rgb(0, 0, 0)" text-anchor="start" dominant-baseline="auto">Main canvas</text></g></g><g clip-path="url(#clipPath2_ygc0__31)"><path d="M845.826 446.464 L938.629 446.376 L943.005 452.83 L942.131 480.593 L938.838 482.481 L841.041 484.587 L836.372 479.745 L837.235 454.266 L839.432 447.894 L843.359 445.086" stroke="none" stroke-width="0" fill="rgb(142, 142, 255)"/><path d="M844.322 446.3 M844.322 446.3 C875.387 444.55, 904.196 447.717, 937.022 446.3 M844.322 446.3 C865.451 447.132, 884.65 446.84, 937.022 446.3 M937.022 446.3 C941.677 446.273, 944.617 450.526, 943.022 452.3 M937.022 446.3 C942.471 448.48, 943.599 448.524, 943.022 452.3 M943.022 452.3 C943.478 456.391, 942.793 463.398, 943.022 477.8 M943.022 452.3 C943.486 459.273, 944.09 467.092, 943.022 477.8 M943.022 477.8 C943.205 480.236, 938.522 482.684, 937.022 483.8 M943.022 477.8 C943.751 480.559, 937.894 485.02, 937.022 483.8 M937.022 483.8 C915.552 484.677, 898.096 484.925, 844.322 483.8 M937.022 483.8 C902.72 483.249, 869.307 483.08, 844.322 483.8 M844.322 483.8 C841.357 483.168, 837.257 479.031, 838.322 477.8 M844.322 483.8 C842.541 483.81, 837.683 478.879, 838.322 477.8 M838.322 477.8 C837.889 473.39, 836.55 467.049, 838.322 452.3 M838.322 477.8 C839.235 470.487, 839.272 463.406, 838.322 452.3 M838.322 452.3 C836.848 448.318, 843.574 444.665, 844.322 446.3 M838.322 452.3 C836.337 448, 843.802 447.532, 844.322 446.3 M844.322 446.3 C844.322 446.3, 844.322 446.3, 844.322 446.3 M844.322 446.3 C844.322 446.3, 844.322 446.3, 844.322 446.3" stroke="rgb(142, 142, 255)" stroke-width="1" fill="none"/></g><g clip-path="url(#clipPath2_ygc0__32)"><path d="M844.322 446.3 M844.322 446.3 C867.22 445.003, 889.69 446.953, 937.022 446.3 M844.322 446.3 C872.072 445.744, 898.733 445.598, 937.022 446.3 M937.022 446.3 C942.039 447.347, 942.219 450.355, 943.022 452.3 M937.022 446.3 C941.855 448.241, 943.101 451.129, 943.022 452.3 M943.022 452.3 C941.997 458.385, 943.363 466.501, 943.022 477.8 M943.022 452.3 C942.226 460.227, 943.84 469.224, 943.022 477.8 M943.022 477.8 C942.428 481.244, 938.452 482.504, 937.022 483.8 M943.022 477.8 C943.639 480.216, 940.378 484.431, 937.022 483.8 M937.022 483.8 C918.756 481.598, 899.387 484.571, 844.322 483.8 M937.022 483.8 C907.888 485.339, 878.147 484.943, 844.322 483.8 M844.322 483.8 C840.32 484.597, 839.196 481.009, 838.322 477.8 M844.322 483.8 C842.069 481.572, 838.345 482.147, 838.322 477.8 M838.322 477.8 C839.071 471.349, 840.17 462.037, 838.322 452.3 M838.322 477.8 C838.736 471.217, 838.328 466.274, 838.322 452.3 M838.322 452.3 C839.596 450.629, 842.14 446.859, 844.322 446.3 M838.322 452.3 C837.306 451.867, 841.571 447.28, 844.322 446.3 M844.322 446.3 C844.322 446.3, 844.322 446.3, 844.322 446.3 M844.322 446.3 C844.322 446.3, 844.322 446.3, 844.322 446.3" stroke="rgb(0, 0, 0)" stroke-width="1.5" fill="none"/></g><g clip-path="url(#clipPath2_ygc0__33)"><g class="text-container" transform="matrix(1.5, 0, 0, 1.5, -1785.5, -141.5)"><text x="1754.0992" font-size="8px" y="407.1362" clip-path="url(#clipPath2_ygc0_)" font-family="sans-serif" stroke="none" xml:space="preserve" data-sketchy-clip-path="clipPath2_ygc0__33" style="font-style: normal;font-weight: 400;font-size: 8px;font-family: Comic Sans MS, cursive;" stroke-width="1px" fill="rgb(0, 0, 0)" text-anchor="start" dominant-baseline="auto">Step Extension</text></g></g><g clip-path="url(#clipPath2_ygc0__34)"><path d="M844.806 500.913 L940.168 503.043 L944.821 507.218 L942.81 536.42 L936.757 539.056 L843.492 537.373 L836.529 531.869 L837.451 506.517 L840.193 504.503 L843.257 501.935" stroke="none" stroke-width="0" fill="rgb(142, 142, 255)"/><path d="M844.322 500.75 M844.322 500.75 C866.572 500.474, 886.546 501.33, 937.022 500.75 M844.322 500.75 C868.854 499.722, 893.467 500.904, 937.022 500.75 M937.022 500.75 C939.13 502.146, 942.802 505.239, 943.022 506.75 M937.022 500.75 C938.113 501.44, 942.123 505.004, 943.022 506.75 M943.022 506.75 C941.338 514.246, 943.651 520.196, 943.022 532.25 M943.022 506.75 C942.015 513.754, 943.08 520.849, 943.022 532.25 M943.022 532.25 C943.041 534.186, 937.867 537.138, 937.022 538.25 M943.022 532.25 C944.476 534.901, 940.23 539.921, 937.022 538.25 M937.022 538.25 C911.311 540.317, 884.13 539.614, 844.322 538.25 M937.022 538.25 C913.806 539.373, 889.213 539.3, 844.322 538.25 M844.322 538.25 C841.358 539.751, 838.649 535.709, 838.322 532.25 M844.322 538.25 C841.344 536.378, 840.56 537.082, 838.322 532.25 M838.322 532.25 C838.569 522.473, 838.366 511.379, 838.322 506.75 M838.322 532.25 C837.566 522.384, 838.363 513.803, 838.322 506.75 M838.322 506.75 C836.965 504.86, 841.588 501.395, 844.322 500.75 M838.322 506.75 C837.13 505.04, 843.639 500.897, 844.322 500.75 M844.322 500.75 C844.322 500.75, 844.322 500.75, 844.322 500.75 M844.322 500.75 C844.322 500.75, 844.322 500.75, 844.322 500.75" stroke="rgb(142, 142, 255)" stroke-width="1" fill="none"/></g><g clip-path="url(#clipPath2_ygc0__35)"><path d="M844.322 500.75 M844.322 500.75 C877.894 501.804, 911.668 501.167, 937.022 500.75 M937.022 500.75 C942.069 500.868, 944.472 503.794, 943.022 506.75 M943.022 506.75 C943.714 512.717, 943.311 521.291, 943.022 532.25 M943.022 532.25 C943.651 534.528, 940.036 536.344, 937.022 538.25 M937.022 538.25 C901.962 540.061, 864.604 537.993, 844.322 538.25 M844.322 538.25 C841.378 539.936, 838.206 535.36, 838.322 532.25 M838.322 532.25 C838.269 524.434, 837.965 520.88, 838.322 506.75 M838.322 506.75 C840.059 502.447, 840.373 501.418, 844.322 500.75 M844.322 500.75 C844.322 500.75, 844.322 500.75, 844.322 500.75" stroke="rgb(0, 0, 0)" stroke-width="1.5" fill="none"/></g><g clip-path="url(#clipPath2_ygc0__36)"><g class="text-container" transform="matrix(1.5, 0, 0, 1.5, -1785.5, -141.5)"><text x="1754.0992" font-size="8px" y="443.4362" clip-path="url(#clipPath2_ygc0_)" font-family="sans-serif" stroke="none" xml:space="preserve" data-sketchy-clip-path="clipPath2_ygc0__36" style="font-style: normal;font-weight: 400;font-size: 8px;font-family: Comic Sans MS, cursive;" stroke-width="1px" fill="rgb(0, 0, 0)" text-anchor="start" dominant-baseline="auto">Step Extension</text></g></g><g clip-path="url(#clipPath2_ygc0__37)"><path d="M843.352 554.95 L938.335 557.634 L942.251 560.934 L942.694 587.419 L935.836 593.198 L843.087 593.541 L840.147 588.384 L839.077 560.762 L839.932 557.038 L844.63 554.256" stroke="none" stroke-width="0" fill="rgb(142, 142, 255)"/><path d="M844.322 555.2 M844.322 555.2 C868.506 557.467, 889.476 556.263, 937.022 555.2 M844.322 555.2 C864.058 555.498, 885.845 556.192, 937.022 555.2 M937.022 555.2 C941.746 556.378, 944.137 557.9, 943.022 561.2 M937.022 555.2 C942.188 554.342, 942.157 560.482, 943.022 561.2 M943.022 561.2 C941.095 567.434, 941.42 576.334, 943.022 586.7 M943.022 561.2 C943.245 567.75, 943.523 572.409, 943.022 586.7 M943.022 586.7 C941.761 588.483, 938.876 593.417, 937.022 592.7 M943.022 586.7 C943.8 588.431, 940.916 592.611, 937.022 592.7 M937.022 592.7 C914.736 593.881, 890.824 594.421, 844.322 592.7 M937.022 592.7 C913.288 592.885, 890.692 593.774, 844.322 592.7 M844.322 592.7 C840.324 591.66, 837.84 589.814, 838.322 586.7 M844.322 592.7 C841.633 591.822, 838.337 591.631, 838.322 586.7 M838.322 586.7 C839.032 580.214, 837.614 572.88, 838.322 561.2 M838.322 586.7 C837.903 576.683, 837.524 566.991, 838.322 561.2 M838.322 561.2 C837.26 557.729, 840.218 554.703, 844.322 555.2 M838.322 561.2 C840.116 558.892, 840.061 557.179, 844.322 555.2 M844.322 555.2 C844.322 555.2, 844.322 555.2, 844.322 555.2 M844.322 555.2 C844.322 555.2, 844.322 555.2, 844.322 555.2" stroke="rgb(142, 142, 255)" stroke-width="1" fill="none"/></g><g clip-path="url(#clipPath2_ygc0__38)"><path d="M844.322 555.2 M844.322 555.2 C871.167 554.491, 896.529 554.157, 937.022 555.2 M937.022 555.2 C939.789 554.088, 944.437 560.104, 943.022 561.2 M943.022 561.2 C942.387 566.776, 942.82 573.276, 943.022 586.7 M943.022 586.7 C941.544 589.908, 941.499 592.109, 937.022 592.7 M937.022 592.7 C914.704 593.205, 897.658 593.521, 844.322 592.7 M844.322 592.7 C841.609 591.424, 838.419 589.983, 838.322 586.7 M838.322 586.7 C838.796 580.777, 839.786 576.003, 838.322 561.2 M838.322 561.2 C836.444 558.342, 841.566 556.49, 844.322 555.2 M844.322 555.2 C844.322 555.2, 844.322 555.2, 844.322 555.2" stroke="rgb(0, 0, 0)" stroke-width="1.5" fill="none"/></g><g clip-path="url(#clipPath2_ygc0__39)"><g class="text-container" transform="matrix(1.5, 0, 0, 1.5, -1785.5, -141.5)"><text x="1754.0992" font-size="8px" y="479.7362" clip-path="url(#clipPath2_ygc0_)" font-family="sans-serif" stroke="none" xml:space="preserve" data-sketchy-clip-path="clipPath2_ygc0__39" style="font-style: normal;font-weight: 400;font-size: 8px;font-family: Comic Sans MS, cursive;" stroke-width="1px" fill="rgb(0, 0, 0)" text-anchor="start" dominant-baseline="auto">Step Extension</text></g></g><g clip-path="url(#clipPath2_ygc0__40)"><path d="M667.151 267.618 L938.498 268.085 L942.507 268.739 L942.221 276.14 L943.561 331.261 L940.626 334.694 L935.228 336.303 L668.679 333.872 L663.821 333.587 L664.022 331.246 L662.424 274.868 L665.07 271.197 L669.726 270.213" stroke="none" stroke-width="0" fill="rgb(142, 142, 255)"/><path d="M668.742 268.35 M668.742 268.35 C728.48 269.479, 789.013 267.917, 937.022 268.35 M937.022 268.35 C938.903 266.576, 944.679 271.079, 943.022 274.35 M943.022 274.35 C942.059 287.132, 944.714 298.457, 943.022 329.85 M943.022 329.85 C942.521 334.869, 939.482 336.671, 937.022 335.85 M937.022 335.85 C846.06 335.842, 757.464 335.541, 668.742 335.85 M668.742 335.85 C664.728 335.483, 662.442 334.528, 662.742 329.85 M662.742 329.85 C663.228 306.817, 661.444 285.697, 662.742 274.35 M662.742 274.35 C662.988 271.971, 667.332 268.321, 668.742 268.35 M668.742 268.35 C668.742 268.35, 668.742 268.35, 668.742 268.35" stroke="rgb(142, 142, 255)" stroke-width="1" fill="none"/></g><g clip-path="url(#clipPath2_ygc0__41)"><path d="M668.742 268.35 M668.742 268.35 C722.465 268.052, 776.228 267.355, 937.022 268.35 M937.022 268.35 C938.92 269.627, 941.839 270.066, 943.022 274.35 M943.022 274.35 C941.664 289.504, 942.712 307.134, 943.022 329.85 M943.022 329.85 C942.406 333.137, 939.26 337.089, 937.022 335.85 M937.022 335.85 C880.827 336.183, 824.791 336.887, 668.742 335.85 M668.742 335.85 C665.955 335.563, 663.78 333.324, 662.742 329.85 M662.742 329.85 C663.495 313.657, 663.51 295.107, 662.742 274.35 M662.742 274.35 C661.503 271.057, 666.871 267.889, 668.742 268.35 M668.742 268.35 C668.742 268.35, 668.742 268.35, 668.742 268.35" stroke="rgb(0, 0, 0)" stroke-width="1.5" fill="none"/></g><g clip-path="url(#clipPath2_ygc0__42)"><g class="text-container" transform="matrix(1.5, 0, 0, 1.5, -1785.5, -141.5)"><text x="1645.5284" xml:space="preserve" y="299.8876" clip-path="url(#clipPath2_ygc0_)" font-family="sans-serif" stroke="none" data-sketchy-clip-path="clipPath2_ygc0__42" style="font-style: normal;font-weight: 400;font-size: 12px;font-family: Comic Sans MS, cursive;" stroke-width="1px" fill="rgb(0, 0, 0)" text-anchor="start" dominant-baseline="auto">Domain Specific Language</text></g></g><g clip-path="url(#clipPath2_ygc0__43)"><path d="M692.324 505.56 L722.941 506.159 L727.303 533.298 L696.031 531.681 L692.528 504.677" stroke="none" stroke-width="0" fill="rgb(216, 216, 255)"/><path d="M690.026 504.353 M691.882 505.198 C698.956 504.552, 706.686 504.737, 722.439 505.407 M725.645 506.641 C724.54 517.615, 727.579 528.346, 727.157 532.397 M729.873 534.414 C718.613 533.557, 710.248 534.47, 694.705 531.72 M694.434 533.658 C694.109 522.36, 692.318 515.403, 689.643 505.261" stroke="rgb(216, 216, 255)" stroke-width="1" fill="none"/></g><g clip-path="url(#clipPath2_ygc0__44)"><path d="M689.75 506.168 M689.242 507.487 C702.83 504.801, 713.492 505.104, 724.695 505.112 M724.663 505.145 C727.412 514.186, 725.081 524.986, 726.642 532.364 M727.269 532.84 C715.261 532.656, 704.122 532.196, 694.679 531.858 M695.241 532.466 C694.903 525.079, 690.987 520.661, 690.183 508.074" stroke="rgb(0, 0, 0)" stroke-width="1.5" fill="none"/></g><g clip-path="url(#clipPath2_ygc0__45)"><g class="text-container" transform="matrix(1.5, 0, 0, 1.5, -1785.5, -141.5)"><text x="1654.6151" font-size="8px" y="443.4362" clip-path="url(#clipPath2_ygc0_)" font-family="sans-serif" stroke="none" xml:space="preserve" data-sketchy-clip-path="clipPath2_ygc0__45" style="font-style: normal;font-weight: 400;font-size: 8px;font-family: Comic Sans MS, cursive;" stroke-width="1px" fill="rgb(0, 0, 0)" text-anchor="start" dominant-baseline="auto">step</text></g></g><g clip-path="url(#clipPath2_ygc0__46)"><path d="M757.104 505.329 L791.095 507.885 L795.315 532.373 L760.538 531.488 L757.8 507.313" stroke="none" stroke-width="0" fill="rgb(216, 216, 255)"/><path d="M757.445 506.044 M757.295 505.373 C767.094 505.505, 778.344 506.069, 790.204 507.926 M755.843 506.66 C767.202 505.944, 780.486 505.883, 789.156 506.924 M791.132 507.239 C791.684 513.838, 790.4 521.362, 792.452 531.968 M790.408 505.988 C789.375 513.825, 791.574 520.704, 793.005 533.294 M793.244 533.767 C780.737 531.906, 771.788 534.467, 760.423 533.242 M793.666 533.329 C781.536 532.272, 769.089 532.18, 759.381 533.122 M760.74 532.844 C757.601 525.414, 757.026 520.719, 756.478 505.593 M759.019 533.779 C758.697 525.353, 756.81 519.127, 756.525 505.258" stroke="rgb(216, 216, 255)" stroke-width="1" fill="none"/></g><g clip-path="url(#clipPath2_ygc0__47)"><path d="M754.652 506.393 M756.651 504.164 C767.569 506.953, 783.244 507.801, 787.999 507.451 M789.105 505.214 C792.011 512.988, 790.341 520.321, 795.16 531.354 M794.517 534.281 C787.403 531.578, 778.628 533.637, 761.01 531.196 M759.623 533.087 C757.783 527.451, 757.458 520.051, 756.549 505.43" stroke="rgb(0, 0, 0)" stroke-width="1.5" fill="none"/></g><g clip-path="url(#clipPath2_ygc0__48)"><g class="text-container" transform="matrix(1.5, 0, 0, 1.5, -1785.5, -141.5)"><text x="1698.1024" font-size="8px" y="443.4362" clip-path="url(#clipPath2_ygc0_)" font-family="sans-serif" stroke="none" xml:space="preserve" data-sketchy-clip-path="clipPath2_ygc0__48" style="font-style: normal;font-weight: 400;font-size: 8px;font-family: Comic Sans MS, cursive;" stroke-width="1px" fill="rgb(0, 0, 0)" text-anchor="start" dominant-baseline="auto">step</text></g></g><g clip-path="url(#clipPath2_ygc0__49)"><path d="M738.709 561.385 L773.322 562.144 L778.676 586.97 L744.829 586.183 L739.267 562.539" stroke="none" stroke-width="0" fill="rgb(216, 216, 255)"/><path d="M738.766 561.104 M740.35 561.296 C750.77 559.368, 765.874 558.505, 771.923 560.182 M772.086 561.606 C775.863 565.731, 773.31 572.87, 777.943 587.934 M774.931 587.537 C765.477 587.579, 752.486 586.093, 744.969 587.439 M742.961 586.399 C743.797 579.355, 741.205 568.925, 737.706 559.827" stroke="rgb(216, 216, 255)" stroke-width="1" fill="none"/></g><g clip-path="url(#clipPath2_ygc0__50)"><path d="M741.176 561.011 M739.6 562.216 C747.423 560.803, 756.998 561.334, 771.416 559.165 M740.012 559.774 C749.695 560.376, 760.288 559.985, 773.219 560.624 M773.833 560.032 C772.438 570.465, 775.495 577.676, 777.727 588.571 M772.435 560.266 C774.046 567.155, 775.225 573.464, 776.389 587.424 M776.254 587.047 C766.119 588.93, 750.825 586.222, 743.927 588.435 M777.05 586.505 C765.582 587.726, 752.993 586.748, 743.005 588.153 M743.939 585.84 C743.704 582.351, 739.727 576.128, 739.143 560.919 M744.111 586.997 C740.89 577.971, 740.111 567.761, 740.019 560.416" stroke="rgb(0, 0, 0)" stroke-width="1.5" fill="none"/></g><g clip-path="url(#clipPath2_ygc0__51)"><g class="text-container" transform="matrix(1.5, 0, 0, 1.5, -1785.5, -141.5)"><text x="1687.0751" font-size="8px" y="479.7362" clip-path="url(#clipPath2_ygc0_)" font-family="sans-serif" stroke="none" xml:space="preserve" data-sketchy-clip-path="clipPath2_ygc0__51" style="font-style: normal;font-weight: 400;font-size: 8px;font-family: Comic Sans MS, cursive;" stroke-width="1px" fill="rgb(0, 0, 0)" text-anchor="start" dominant-baseline="auto">step</text></g></g><g clip-path="url(#clipPath2_ygc0__52)"><path d="M277.79 54.199 L556.374 55.742 L554.874 204.831 L277.08 208.337 L277.726 53.983" stroke="none" stroke-width="0" fill="rgb(232, 203, 241)"/><path d="M276.972 53.451 M274.774 54.63 C357.643 54.866, 436.993 53.968, 557.258 53.849 M276.298 54.716 C368.863 57.158, 462.225 57.38, 556.176 54.794 M557.993 56.277 C557.491 105.796, 556.932 157.365, 558.282 207.444 M556.721 56.344 C555.931 89.545, 555.762 125.426, 557.371 207.369 M555.688 205.294 C486.157 205.621, 417.809 206.165, 276.774 207.037 M556.535 206.254 C464.867 206.246, 374.244 206.648, 276.067 206.744 M275.687 206.13 C276.639 146.634, 277.144 89.603, 275.674 56.878 M274.98 205.506 C275.142 171.126, 274.955 135.304, 275.651 55.362" stroke="rgb(232, 203, 241)" stroke-width="1" fill="none"/></g><g clip-path="url(#clipPath2_ygc0__53)"><path d="M275.901 54.685 L276.251 54.632 L278.127 208.336 L274.246 206.284 L275.439 56.691" stroke="none" stroke-width="0" fill="rgb(255, 255, 255)"/><path d="M276.415 57.068 M276.082 55.255 C276.513 55.232, 277.188 55.489, 277.343 55.264 M275.79 55.798 C278.859 98.329, 276.305 141.003, 275.61 206.321 M277.546 206.426 C276.773 206.263, 276.248 206.231, 275.875 206.433 M277.099 205.647 C276.135 156.675, 273.373 111.734, 274.011 57.368" stroke="rgb(255, 255, 255)" stroke-width="1" fill="none"/></g><g clip-path="url(#clipPath2_ygc0__54)"><path d="M276.24 56.962 L553.074 57.02 L556.311 57.628 L279.399 56.429 L275.463 55.061" stroke="none" stroke-width="0" fill="rgb(255, 255, 255)"/><path d="M277.359 53.419 M278.273 55.317 C378.031 56.413, 481.625 58.119, 553.775 55.562 M277.348 56.121 C372.259 54.039, 466.207 53.592, 555.183 55.853 M554.856 55.49 C554.981 56.027, 554.944 56.514, 554.836 56.763 M555.034 55.375 C554.937 55.863, 554.986 56.426, 554.942 56.892 M554.057 57.47 C484.713 57.449, 415.447 57.901, 278.722 56.248 M555.682 56.301 C484.758 56.26, 413.301 57.178, 276.735 57.163 M277.609 56.751 C277.576 56.624, 277.431 55.996, 277.382 55.383 M277.39 56.845 C277.462 56.303, 277.445 55.715, 277.517 55.434" stroke="rgb(255, 255, 255)" stroke-width="1" fill="none"/></g><g clip-path="url(#clipPath2_ygc0__55)"><path d="M277.565 205.245 L557.317 205.748 L556.442 205.588 L276.94 206.159 L278.08 206.319" stroke="none" stroke-width="0" fill="rgb(178, 142, 160)"/><path d="M279.304 205.233 M277.181 206.229 C357.467 204.93, 441.267 204.295, 557.938 204.621 M277.39 205.481 C334.647 203.95, 390.924 202.719, 556.491 204.897 M556.41 204.944 C556.499 205.131, 556.353 205.561, 556.434 206.462 M556.416 204.934 C556.53 205.399, 556.491 205.979, 556.423 206.387 M557.825 206.425 C464.526 204.28, 373.8 204.465, 277.043 205.254 M556.191 206.042 C474.007 204.746, 391.406 204.702, 277.852 206.45 M277.388 206.343 C277.451 205.794, 277.382 205.454, 277.596 204.869 M277.392 206.404 C277.402 206.066, 277.468 205.678, 277.44 204.824" stroke="rgb(178, 142, 160)" stroke-width="1" fill="none"/></g><g clip-path="url(#clipPath2_ygc0__56)"><path d="M556.344 55.672 L557.3 56.066 L555.567 204.425 L555.619 204.409 L555.562 55.642" stroke="none" stroke-width="0" fill="rgb(178, 142, 160)"/><path d="M553.704 53.543 M555.003 55.375 C555.55 55.462, 556.051 55.429, 556.478 55.328 M554.958 55.427 C555.363 55.43, 555.64 55.388, 556.525 55.336 M556.442 55.021 C556.706 107.265, 554.786 161, 557.97 202.905 M556.917 55.067 C557.669 103.109, 557.57 153.411, 556.868 204.405 M556.368 204.866 C555.811 204.799, 555.285 204.841, 554.942 204.984 M556.511 204.884 C556.14 204.87, 555.901 204.802, 555.029 204.912 M553.958 205.99 C554.567 153.284, 554.421 97.727, 554.133 56.699 M554.596 205.617 C556.704 166.594, 556.571 128.657, 555.047 54.597" stroke="rgb(178, 142, 160)" stroke-width="1" fill="none"/></g><g clip-path="url(#clipPath2_ygc0__57)"><path d="M278.544 334.134 L559.15 335.004 L559.635 620.426 L279.713 620.037 L279.493 335.088" stroke="none" stroke-width="0" fill="rgb(232, 203, 241)"/><path d="M280.729 336.211 M278.073 334.76 C383.401 334.703, 490.799 335.662, 559.697 337.03 M560.084 334.858 C558.877 432.864, 560.47 530.21, 559.18 621.184 M559.011 621.741 C494.274 618.414, 432.658 617.943, 280.369 619.216 M278.051 621.354 C278.33 509.679, 277.059 402.631, 279.094 334.708" stroke="rgb(232, 203, 241)" stroke-width="1" fill="none"/></g><g clip-path="url(#clipPath2_ygc0__58)"><path d="M279.375 334.387 L281.668 334.248 L280.393 621.053 L278.886 622.631 L280.33 334.881" stroke="none" stroke-width="0" fill="rgb(255, 255, 255)"/><path d="M280.608 334.511 M279.102 335.559 C279.226 335.736, 279.548 335.537, 280.355 335.533 M279.205 335.565 C283.481 420.665, 280.805 504.797, 279.987 620.969 M280.461 620.783 C279.953 620.797, 279.536 620.609, 278.875 620.835 M279.087 620.387 C277.724 507.499, 277.543 395.33, 279.978 336.99" stroke="rgb(255, 255, 255)" stroke-width="1" fill="none"/></g><g clip-path="url(#clipPath2_ygc0__59)"><path d="M282.336 335.777 L558.771 335.381 L556.286 335.228 L278.682 336.587 L282.364 334.795" stroke="none" stroke-width="0" fill="rgb(255, 255, 255)"/><path d="M280.515 337.442 M279.648 335.113 C353.81 336.211, 427.308 337.353, 558.694 336.765 M280.31 335.562 C390.998 334.44, 499.45 333.288, 557.941 334.879 M558.094 335.775 C557.942 336.074, 557.92 336.492, 557.863 337.187 M558.027 335.68 C557.969 336.209, 557.964 336.718, 558.002 337.184 M558.412 336.696 C487.242 339.463, 417.42 337.589, 281.251 338.052 M557.405 337.418 C487.193 336.678, 416.212 337.365, 280.204 337.07 M280.446 337.174 C280.481 336.769, 280.423 336.355, 280.413 335.576 M280.394 337.066 C280.434 336.803, 280.434 336.501, 280.523 335.556" stroke="rgb(255, 255, 255)" stroke-width="1" fill="none"/></g><g clip-path="url(#clipPath2_ygc0__60)"><path d="M280.943 620.073 L559.038 620.088 L558.572 622.54 L281.757 621.988 L281.529 619.392" stroke="none" stroke-width="0" fill="rgb(178, 142, 160)"/><path d="M279.258 619.601 M280.469 619.432 C366.5 618.467, 450.846 618.249, 559.117 618.141 M280.951 619.403 C361.389 620.272, 441.943 620.83, 559.598 619.639 M559.548 619.34 C559.597 619.944, 559.368 620.352, 559.495 620.692 M559.431 619.157 C559.437 619.701, 559.504 620.049, 559.478 620.686 M558.094 620.423 C496.686 619.994, 433.138 618.719, 280.044 620.437 M558.942 620.286 C476.893 621.157, 394.154 621.219, 280.844 620.961 M280.551 620.808 C280.614 620.376, 280.39 620.052, 280.552 619.268 M280.472 620.687 C280.423 620.235, 280.392 619.857, 280.449 619.193" stroke="rgb(178, 142, 160)" stroke-width="1" fill="none"/></g><g clip-path="url(#clipPath2_ygc0__61)"><path d="M558.038 333.732 L560.838 336.146 L559.383 619.155 L556.519 618.832 L557.61 337.437" stroke="none" stroke-width="0" fill="rgb(178, 142, 160)"/><path d="M559.96 334.221 M557.917 335.675 C558.311 335.674, 558.699 335.694, 559.345 335.746 M558.003 335.608 C558.52 335.695, 558.983 335.655, 559.49 335.565 M559.299 336.833 C557.49 428.778, 559.371 523.372, 558.598 618.012 M559.741 335 C560.529 403.53, 561.048 469.919, 559.489 619.467 M559.394 619.181 C558.88 619.142, 558.471 619.176, 557.849 619.145 M559.396 619.192 C558.993 619.286, 558.602 619.293, 558.03 619.295 M559.18 619.362 C556.988 511.366, 556.332 401.86, 556.999 335.185 M558.308 618.617 C558.313 519.231, 558.844 419.064, 558.335 335.691" stroke="rgb(178, 142, 160)" stroke-width="1" fill="none"/></g><g clip-path="url(#clipPath2_ygc0__62)"><path d="M327.646 485.755 L473.884 482.862 L489.12 516.822 L472.811 550.672 L327.075 551.387 L343.619 516.308 L327.878 483.517" stroke="none" stroke-width="0" fill="rgb(255, 203, 229)"/><path d="M328.812 484.62 M327.877 482.547 C371.778 484.046, 413.601 484.197, 472.692 483.428 M474.68 485.794 C478.648 496.797, 485.728 508.989, 491.01 516.642 M489.599 517.799 C482.926 531.926, 475.798 541.98, 471.528 551.245 M474.314 553.299 C421.082 553.909, 365.722 552.089, 327.158 550.549 M329.823 551.314 C332.791 538.542, 338.193 526.675, 343.264 517.312 M343.763 517.367 C339.405 509.9, 335.353 500.636, 327.368 485.91" stroke="rgb(255, 203, 229)" stroke-width="1" fill="none"/></g><g clip-path="url(#clipPath2_ygc0__63)"><path d="M330.492 483.773 M328.103 485.146 C383.296 485.673, 436.897 484.428, 473.07 482.668 M472.596 486.005 C479.97 494.373, 482.202 505.994, 490.318 516.86 M490.883 517.135 C484.398 529.812, 475.828 541.617, 472.45 553.047 M473.967 549.846 C420.919 551.056, 372.259 549.215, 329.992 550.565 M327.585 551.504 C332.354 541.591, 337.919 529.741, 346.384 518.729 M345.349 517.599 C340.077 508.052, 338.582 499.445, 330.612 482.145" stroke="rgb(0, 0, 0)" stroke-width="1.5" fill="none"/></g><g clip-path="url(#clipPath2_ygc0__64)"><path d="M340.794 493.263 L481.838 492.939 L500.155 528.26 L484.712 561.193 L341.311 561.792 L353.451 526.107 L340.066 491.392" stroke="none" stroke-width="0" fill="rgb(255, 203, 229)"/><path d="M340.386 490.703 M338.063 492.922 C367.41 492.057, 396.484 492.501, 485.676 492.194 M339.757 492.856 C390.072 492.367, 440.208 492.617, 483.406 492.413 M482.446 491.078 C486.8 499.763, 488.716 505.82, 498.395 526.436 M483.89 492.199 C488.488 504.738, 494.238 516.454, 499.62 525.933 M498.779 526.053 C494.161 535.766, 491.956 546.06, 482.466 559.386 M500.8 526.937 C494.494 535.233, 491.866 543.748, 483.78 560.447 M485.217 560.807 C428.535 561.737, 374.408 561.548, 338.311 559.405 M484.114 559.643 C444.486 559.746, 405.806 559.122, 339.068 560.234 M338.891 559.086 C346.552 548.65, 349.394 534.991, 357.017 524.738 M339.919 559.696 C343.631 550.367, 347.527 541.472, 356.039 526.606 M353.881 526.203 C351.903 516.755, 347.775 508.239, 341.137 491.774 M355.53 526.698 C351.429 514.931, 344.87 505.192, 340.044 493.473" stroke="rgb(255, 203, 229)" stroke-width="1" fill="none"/></g><g clip-path="url(#clipPath2_ygc0__65)"><path d="M339.593 494.033 M338.237 492.608 C389.101 491.954, 440.137 490.939, 482.22 493.285 M484.413 493.876 C487.671 503.667, 493.712 511.465, 501.705 525.331 M498.521 525.201 C493.466 538.433, 487.502 550.203, 485.531 559.973 M484.173 561.13 C452.915 562.372, 427.552 561.349, 337.673 558.599 M340.549 558.685 C341.44 551.449, 345.959 544.398, 357.276 527.67 M354.875 527.186 C350.035 513.671, 344.653 499.851, 337.454 494.478" stroke="rgb(0, 0, 0)" stroke-width="1.5" fill="none"/></g><g clip-path="url(#clipPath2_ygc0__66)"><path d="M352.794 501.274 L495.029 502.057 L513.584 534.025 L496.941 568.859 L352.878 568.962 L368.586 536.361 L352.488 502.869" stroke="none" stroke-width="0" fill="rgb(255, 203, 229)"/><path d="M350.441 502.443 M352.587 501.018 C401.789 503.29, 450.402 501.378, 497.092 499.33 M350.881 501.066 C385.283 502.163, 417.404 501.976, 494.793 500.344 M494.135 503.066 C499.734 512.298, 505.977 523.215, 512.075 533.445 M495.703 501.306 C502.143 513.693, 508.209 525.037, 511.36 534.824 M511.249 532.89 C507.515 547.865, 499.631 560.778, 496.383 567.613 M511.558 535.72 C505.832 547.657, 499.717 558.916, 495.495 567.646 M494.099 567.512 C441.278 566.744, 385.995 566.567, 350.692 570.234 M494.966 568.576 C466.04 567.63, 434.711 567.665, 351.497 568.488 M351.438 568.944 C355.748 559.569, 359.913 549.231, 368.638 535.398 M351.507 568.626 C356.378 557.737, 361.997 546.135, 366.884 533.989 M368.337 534.248 C361.414 524.324, 358.26 512.222, 352.288 502.916 M367.765 534.374 C361.71 523.391, 355.389 510.225, 351.08 500.438" stroke="rgb(255, 203, 229)" stroke-width="1" fill="none"/></g><g clip-path="url(#clipPath2_ygc0__67)"><path d="M353.156 500.781 M352.18 501.407 C385.028 503.958, 421.45 503.148, 494.42 499.64 M494.559 502.13 C500.967 509.882, 502.347 518.472, 512.834 535.069 M512.624 535.998 C507.66 544.278, 503.272 554.514, 496.771 569.147 M495.086 566.897 C465.161 567.112, 437.038 568.082, 352.982 567.892 M352.246 569.761 C354.54 559.844, 357.05 551.132, 368.343 534.252 M365.503 533.136 C361.605 520.978, 357.733 510.799, 351.151 502.458" stroke="rgb(0, 0, 0)" stroke-width="1.5" fill="none"/></g><g clip-path="url(#clipPath2_ygc0__68)"><path d="M367.664 511.496 L513.507 509.33 L528.131 543.247 L511.095 578.1 L367.801 577.278 L384.934 544.902 L368.886 509.036" stroke="none" stroke-width="0" fill="rgb(255, 203, 229)"/><path d="M367.799 510.965 M368.599 510.563 C413.509 507.665, 461.407 509.931, 512.289 507.911 M512.853 511.035 C516.882 522.228, 523.563 533.923, 528.589 541.974 M526.852 541.678 C522.64 554.08, 521.39 562.861, 511.516 577.128 M511.859 577.309 C482.839 575.296, 452.229 578.019, 369.726 577.496 M367.25 576.169 C374.712 564.289, 378.957 557, 384.469 544.943 M385.184 545.363 C377.662 533.904, 374.031 521.049, 368.363 509.133" stroke="rgb(255, 203, 229)" stroke-width="1" fill="none"/></g><g clip-path="url(#clipPath2_ygc0__69)"><path d="M367.097 507.657 M369.098 507.695 C414.175 510.577, 460.015 507.416, 513.006 511.056 M512.924 510.509 C517.435 521.246, 525.751 537.357, 528.319 541.719 M530.269 541.779 C521.902 557.175, 517.792 570.031, 513.106 577.263 M511.643 575.965 C465.505 576.178, 418.39 577.179, 366.306 575.795 M368.881 578.834 C374.682 565.296, 380.342 553.304, 383.687 541.93 M382.967 544.345 C381 532.948, 373.382 520.861, 367.729 510.88" stroke="rgb(0, 0, 0)" stroke-width="1.5" fill="none"/></g><g clip-path="url(#clipPath2_ygc0__70)"><g class="text-container" transform="matrix(1.5, 0, 0, 1.5, -1785.5, -141.5)"><text x="1445.6335" xml:space="preserve" y="451.222" clip-path="url(#clipPath2_ygc0_)" font-family="sans-serif" stroke="none" data-sketchy-clip-path="clipPath2_ygc0__70" style="font-style: normal;font-weight: 400;font-size: 12px;font-family: Comic Sans MS, cursive;" stroke-width="1px" fill="rgb(0, 0, 0)" text-anchor="start" dominant-baseline="auto">ViewDefinition</text></g></g><g clip-path="url(#clipPath2_ygc0__71)"><path d="M348.129 90.404 L499.731 87.106 L482.981 174.114 L329.547 173.049 L347.778 90.124" stroke="none" stroke-width="0" fill="rgb(255, 203, 229)"/><path d="M350.221 88.399 M347.661 87.022 C397.608 86.798, 447.965 88.459, 500.791 90.692 M347.554 89.654 C395.112 87.866, 441.172 88.18, 501.71 89.098 M500.462 86.902 C497.432 119.241, 491.614 148.291, 485.655 173.124 M501.527 89.077 C495.104 117.107, 487.738 146.643, 483.893 172.274 M484.064 171.293 C448.667 171.723, 413.572 173.008, 333.424 172.952 M483.646 172.918 C438.563 172.628, 392.143 173.237, 332.26 173.114 M330.805 172.387 C336.747 144.683, 344.695 115.781, 350.373 88.427 M331.596 172.051 C336.419 148.875, 341.559 122.154, 348.378 89.699" stroke="rgb(255, 203, 229)" stroke-width="1" fill="none"/></g><g clip-path="url(#clipPath2_ygc0__72)"><path d="M348.113 90.384 M348.418 88.449 C387.61 88.856, 426.058 88.919, 501.413 88.344 M501.877 90.768 C497.303 115.099, 492.505 138.464, 483.042 173.198 M483.987 174.762 C434.725 174.223, 386.038 172.854, 331.086 173.56 M330.286 174.83 C336.632 153.253, 337.408 137.091, 349.217 90.862" stroke="rgb(0, 0, 0)" stroke-width="1.5" fill="none"/></g><g clip-path="url(#clipPath2_ygc0__73)"><g class="text-container" transform="matrix(1.5, 0, 0, 1.5, -1785.5, -141.5)"><text x="1427.7615" xml:space="preserve" y="170.722" clip-path="url(#clipPath2_ygc0_)" font-family="sans-serif" stroke="none" data-sketchy-clip-path="clipPath2_ygc0__73" style="font-style: normal;font-weight: 400;font-size: 12px;font-family: Comic Sans MS, cursive;" stroke-width="1px" fill="rgb(0, 0, 0)" text-anchor="start" dominant-baseline="auto">orchestration</text></g></g><g clip-path="url(#clipPath2_ygc0__74)"><path d="M380.033 118.964 L428.851 118.851 L433.982 159.283 L386.951 157.507 L381.619 122.258" stroke="none" stroke-width="0" fill="rgb(216, 216, 255)"/><path d="M380.772 120.533 M381.459 121.651 C398.228 122.221, 413.425 120.105, 427.524 122.146 M381.324 119.548 C390.941 121, 402.206 120.391, 427.212 120.298 M428.978 121.344 C431.051 128.56, 431.801 139.45, 433.945 159.323 M429.131 119.392 C429.803 133.968, 431.496 148.272, 432.734 157.241 M432.35 158.863 C418.786 157.922, 403.081 158.376, 385.013 155.897 M433.253 157.464 C415.91 158.42, 400.202 157.547, 386.105 157.638 M384.657 159.431 C382.221 145.462, 381.058 131.337, 380.132 118.731 M385.44 157.066 C384.071 145.929, 383.636 135.086, 381.123 119.51" stroke="rgb(216, 216, 255)" stroke-width="1" fill="none"/></g><g clip-path="url(#clipPath2_ygc0__75)"><path d="M380.86 120.018 M379.025 120.504 C391.721 119.313, 403.244 122.162, 426.246 119.246 M427.986 122.018 C431.821 132.558, 430.271 147.064, 432.068 156.512 M431.847 157.832 C415.138 155.961, 396.829 157.014, 385.076 159.691 M385.863 158.493 C384.505 142.616, 380.362 129.43, 381.364 121.532" stroke="rgb(0, 0, 0)" stroke-width="1.5" fill="none"/></g><g clip-path="url(#clipPath2_ygc0__76)"><path d="M391.897 124.201 L438.125 125.219 L443.813 161.322 L394.713 162.688 L391.359 125.72" stroke="none" stroke-width="0" fill="rgb(216, 216, 255)"/><path d="M388.738 126.438 M389.287 125.865 C401.835 124.631, 414.567 126.435, 436.943 126.708 M439.182 126.195 C438.408 139.601, 440.354 152.07, 444.291 161.635 M440.606 162.891 C430.574 160.658, 422.918 162.281, 395.687 161.982 M394.811 160.772 C391.548 150.924, 390.393 135.716, 389.364 124.989" stroke="rgb(216, 216, 255)" stroke-width="1" fill="none"/></g><g clip-path="url(#clipPath2_ygc0__77)"><path d="M391.04 125.279 M389.747 123.054 C409.339 124.228, 428.518 126.123, 438.966 124.201 M436.958 123.71 C438.701 132.829, 438.256 143.01, 441.917 160.454 M444.404 160.527 C434.269 161.747, 422.467 161.779, 395.77 161.877 M395.16 161.027 C393.686 152.473, 393.588 142.47, 388.669 123.442" stroke="rgb(0, 0, 0)" stroke-width="1.5" fill="none"/></g><g clip-path="url(#clipPath2_ygc0__78)"><path d="M398.84 128.248 L446.049 130.452 L451.456 165.424 L402.821 165.358 L399.957 129.445" stroke="none" stroke-width="0" fill="rgb(216, 216, 255)"/><path d="M398.376 130.165 M397.199 130.038 C411.237 130.206, 418.065 130.672, 444.985 129.326 M447.388 129.705 C448.583 141.753, 447.863 149.982, 453.251 168.593 M451.142 165.781 C436.587 166.071, 423.815 166.91, 404.283 165.268 M404.064 164.963 C402.462 157.476, 402.219 148.116, 397.788 127.621" stroke="rgb(216, 216, 255)" stroke-width="1" fill="none"/></g><g clip-path="url(#clipPath2_ygc0__79)"><path d="M400.625 128.3 M400.611 131.237 C414.013 127.108, 431.145 130.656, 445.755 128.825 M446.216 129.023 C449.193 137.112, 447.505 145.285, 450.488 165.096 M452.17 165.855 C433.088 167.453, 414.132 165.279, 405.642 165.411 M405.107 167.638 C401.067 152.928, 402.216 139.528, 397.798 129.397" stroke="rgb(0, 0, 0)" stroke-width="1.5" fill="none"/></g><g clip-path="url(#clipPath2_ygc0__80)"><g class="text-container" transform="matrix(1.5, 0, 0, 1.5, -1785.5, -141.5)"><text x="1460.8289" xml:space="preserve" y="197.2376" clip-path="url(#clipPath2_ygc0_)" font-family="sans-serif" stroke="none" data-sketchy-clip-path="clipPath2_ygc0__80" style="font-style: normal;font-weight: 400;font-size: 12px;font-family: Comic Sans MS, cursive;" stroke-width="1px" fill="rgb(0, 0, 0)" text-anchor="start" dominant-baseline="auto">step</text></g></g><g clip-path="url(#clipPath2_ygc0__81)"><path d="M353.295 361.425 L508.02 363.113 L490.763 446.735 L337.375 443.476 L354.756 361.68" stroke="none" stroke-width="0" fill="rgb(255, 203, 229)"/><path d="M355.566 362.375 M354.41 361.649 C410.278 358.205, 467.683 361.717, 508.9 363.019 M506.677 362.172 C499.86 391.35, 495.191 417.662, 491.422 444.44 M490.381 444.114 C439.947 447.69, 392.501 448.258, 336.056 445.463 M337.166 446.843 C344.067 418.334, 346.369 394.458, 354.614 362.957" stroke="rgb(255, 203, 229)" stroke-width="1" fill="none"/></g><g clip-path="url(#clipPath2_ygc0__82)"><path d="M354.25 360.315 M355.213 362.765 C388.362 359.364, 424.286 362.219, 506.506 361.978 M507.228 362.051 C502.387 392.223, 495.611 418.663, 491.62 443.441 M489.462 445.222 C452.407 445.512, 413.104 442.875, 338.804 444.06 M337.991 444.431 C344.053 423.755, 348.433 400.833, 356.635 362.848" stroke="rgb(0, 0, 0)" stroke-width="1.5" fill="none"/></g><g clip-path="url(#clipPath2_ygc0__83)"><g class="text-container" transform="matrix(1.5, 0, 0, 1.5, -1785.5, -141.5)"><text x="1432.0115" xml:space="preserve" y="352.222" clip-path="url(#clipPath2_ygc0_)" font-family="sans-serif" stroke="none" data-sketchy-clip-path="clipPath2_ygc0__83" style="font-style: normal;font-weight: 400;font-size: 12px;font-family: Comic Sans MS, cursive;" stroke-width="1px" fill="rgb(0, 0, 0)" text-anchor="start" dominant-baseline="auto">orchestration</text></g></g><g clip-path="url(#clipPath2_ygc0__84)"><path d="M386.291 390.824 L434.715 391.322 L438.502 428.295 L394.078 428.692 L387.823 393.843" stroke="none" stroke-width="0" fill="rgb(216, 216, 255)"/><path d="M388.836 394.298 M386.884 392.663 C402.827 393.978, 413.919 391.423, 432.89 391.983 M436.537 393.518 C435.607 398.705, 435.313 406.818, 438.843 431.584 M441.73 431.145 C428.427 428.896, 418.747 429.555, 391.872 431.318 M391.89 430.848 C389.974 423.766, 388.69 413.096, 387.756 392.879" stroke="rgb(216, 216, 255)" stroke-width="1" fill="none"/></g><g clip-path="url(#clipPath2_ygc0__85)"><path d="M388.715 393.007 M385.738 392.718 C403.175 393.521, 420.914 393.307, 434.76 392.015 M434.103 390.762 C437.033 405.008, 440.516 421.695, 438.626 431.345 M438.137 428.697 C426.335 430.797, 415.214 429.151, 391.594 431.592 M391.828 430.681 C392 424.004, 392.332 414.126, 387.509 394.446" stroke="rgb(0, 0, 0)" stroke-width="1.5" fill="none"/></g><g clip-path="url(#clipPath2_ygc0__86)"><path d="M397.424 397.596 L443.463 396.426 L448.301 433.958 L399.591 432.681 L397.086 398.427" stroke="none" stroke-width="0" fill="rgb(216, 216, 255)"/><path d="M398.283 396.63 M396.179 397.505 C408.713 394.962, 419.96 395.466, 444.876 395.529 M444.385 398.223 C445.716 404.66, 444.618 412.612, 447.76 432.804 M450.249 436.551 C436.569 436.182, 425.07 434.363, 400.091 435.311 M401.289 432.912 C399.047 419.556, 398.18 406.186, 397.162 398.543" stroke="rgb(216, 216, 255)" stroke-width="1" fill="none"/></g><g clip-path="url(#clipPath2_ygc0__87)"><path d="M395.618 395.732 M395.132 398.919 C412.133 398.173, 426.563 399.003, 443.049 399.01 M445.036 397.887 C444.235 409.324, 447.503 426.368, 449.637 433.068 M447.39 435.222 C436.272 435.973, 422.728 435.253, 403.486 433.009 M402.98 436.094 C400.866 427.579, 399.931 418.827, 397.744 397.15" stroke="rgb(0, 0, 0)" stroke-width="1.5" fill="none"/></g><g clip-path="url(#clipPath2_ygc0__88)"><path d="M404.084 399.728 L452.402 400.411 L457.009 437.31 L410.541 438.74 L406.033 400.822" stroke="none" stroke-width="0" fill="rgb(216, 216, 255)"/><path d="M405.602 401.227 M405.96 401.481 C416.339 402.996, 425.03 403.249, 451.461 401.289 M454.124 402.222 C455.423 408.581, 456.776 418.726, 457.82 438.829 M456.799 440.563 C444.416 439.96, 432.154 440.852, 409.82 438.224 M409.826 438.553 C408.28 428.15, 405.967 413.118, 404.491 401.721" stroke="rgb(216, 216, 255)" stroke-width="1" fill="none"/></g><g clip-path="url(#clipPath2_ygc0__89)"><path d="M406.208 400.493 M404.08 400.208 C418.948 400.744, 429.491 401.19, 452.532 399.987 M453.212 403.56 C452.625 417.792, 458.262 430.897, 457.67 438.757 M459.578 438.89 C448.235 440.562, 439.677 440.643, 409.671 439.047 M411.716 437.36 C409.378 430.889, 409.514 421.368, 406.278 402.794" stroke="rgb(0, 0, 0)" stroke-width="1.5" fill="none"/></g><g clip-path="url(#clipPath2_ygc0__90)"><g class="text-container" transform="matrix(1.5, 0, 0, 1.5, -1785.5, -141.5)"><text x="1465.0789" xml:space="preserve" y="378.7376" clip-path="url(#clipPath2_ygc0_)" font-family="sans-serif" stroke="none" data-sketchy-clip-path="clipPath2_ygc0__90" style="font-style: normal;font-weight: 400;font-size: 12px;font-family: Comic Sans MS, cursive;" stroke-width="1px" fill="rgb(0, 0, 0)" text-anchor="start" dominant-baseline="auto">step</text></g></g><g clip-path="url(#clipPath2_ygc0__91)"><path d="M395.786 542.938 L516.869 542.058 L526.706 586.071 L407.966 588.276 L395.574 541.334" stroke="none" stroke-width="0" fill="rgb(216, 216, 255)"/><path d="M397.132 543.741 M395.591 542.288 C442.692 543.18, 487.146 542.801, 513.736 541.304 M516.63 543.281 C520.503 560.9, 524.159 577.601, 526.376 586.087 M528.121 587.992 C488.566 589.365, 446.385 589.663, 409.195 587.032 M410.472 585.804 C404.176 575.669, 401.208 561.231, 394.394 542.004" stroke="rgb(216, 216, 255)" stroke-width="1" fill="none"/></g><g clip-path="url(#clipPath2_ygc0__92)"><path d="M394.987 543.176 M395.162 542.813 C426.995 541.779, 462.545 545.559, 514.613 542.381 M397.035 542.903 C429.76 541.677, 463.677 541.83, 514.638 542.117 M513.502 543.991 C519.216 555.393, 523.087 569.84, 528.834 589.458 M515.343 542.736 C519.286 558.763, 524.889 574.291, 527.94 587.922 M527.344 588.878 C481.041 588.891, 432.911 587.393, 409.969 587.691 M529.287 586.95 C503.76 587.084, 476.49 587.412, 409.164 588.015 M410.781 589.591 C407.862 575.469, 401.701 565.222, 397.39 543.724 M410.331 586.628 C404.104 570.952, 399.745 554.759, 396.771 542.479" stroke="rgb(0, 0, 0)" stroke-width="1.5" fill="none"/></g><g clip-path="url(#clipPath2_ygc0__93)"><g class="text-container" transform="matrix(1.5, 0, 0, 1.5, -1785.5, -141.5)"><text x="1469.2019" xml:space="preserve" y="468.2533" clip-path="url(#clipPath2_ygc0_)" font-family="sans-serif" stroke="none" data-sketchy-clip-path="clipPath2_ygc0__93" style="font-style: normal;font-weight: 400;font-size: 12px;font-family: Comic Sans MS, cursive;" stroke-width="1px" fill="rgb(0, 0, 0)" text-anchor="start" dominant-baseline="auto">extension</text></g></g><g clip-path="url(#clipPath2_ygc0__94)"><g class="text-container" transform="matrix(1.5, 0, 0, 1.5, -1785.5, -141.5)"><text x="1493.0818" xml:space="preserve" y="482.222" clip-path="url(#clipPath2_ygc0_)" font-family="sans-serif" stroke="none" data-sketchy-clip-path="clipPath2_ygc0__94" style="font-style: normal;font-weight: 400;font-size: 12px;font-family: Comic Sans MS, cursive;" stroke-width="1px" fill="rgb(0, 0, 0)" text-anchor="start" dominant-baseline="auto">id</text></g></g><g clip-path="url(#clipPath2_ygc0__95)"><path d="M81.466 453.673 L144.969 455.826 L150.893 458.634 L151.482 584.792 L150.063 592.815 L83.398 591.478 L75.85 587.576 L77.439 462.418 L77.843 455.699 L83.75 455.742" stroke="none" stroke-width="0" fill="rgb(254, 224, 204)"/><path d="M82.836 455.517 M82.836 455.517 C103.278 455.628, 121.416 454.574, 146.136 455.517 M146.136 455.517 C149.579 456.794, 153.012 459.526, 152.136 461.517 M152.136 461.517 C151.297 506.532, 154.355 549.091, 152.136 585.617 M152.136 585.617 C152.679 588.683, 149.842 590.539, 146.136 591.617 M146.136 591.617 C125.421 591.278, 104.284 593.984, 82.836 591.617 M82.836 591.617 C79.147 593.157, 75.868 588.211, 76.836 585.617 M76.836 585.617 C77.509 541.517, 76.835 496.018, 76.836 461.517 M76.836 461.517 C78.486 460.048, 78.674 456.165, 82.836 455.517 M82.836 455.517 C82.836 455.517, 82.836 455.517, 82.836 455.517" stroke="rgb(254, 224, 204)" stroke-width="1" fill="none"/></g><g clip-path="url(#clipPath2_ygc0__96)"><path d="M82.836 455.517 M82.836 455.517 C105.401 457.039, 124.953 454.186, 146.136 455.517 M146.136 455.517 C148.431 453.902, 150.325 457.257, 152.136 461.517 M152.136 461.517 C154.484 486.746, 151.783 515.934, 152.136 585.617 M152.136 585.617 C152.875 589.517, 146.982 590.312, 146.136 591.617 M146.136 591.617 C123.427 589.524, 98.028 589.119, 82.836 591.617 M82.836 591.617 C80.302 592.757, 76.743 586.771, 76.836 585.617 M76.836 585.617 C78.332 551.891, 75.178 522.845, 76.836 461.517 M76.836 461.517 C75.448 459.537, 80.896 455.545, 82.836 455.517 M82.836 455.517 C82.836 455.517, 82.836 455.517, 82.836 455.517" stroke="rgb(0, 0, 0)" stroke-width="1.5" fill="none"/></g><g clip-path="url(#clipPath2_ygc0__97)"><g class="text-container" transform="matrix(1.5, 0, 0, 1.5, -1785.5, -141.5)"><text x="1242.5323" font-size="8px" y="446.1474" clip-path="url(#clipPath2_ygc0_)" font-family="sans-serif" stroke="none" xml:space="preserve" data-sketchy-clip-path="clipPath2_ygc0__97" style="font-style: normal;font-weight: 400;font-size: 8px;font-family: Comic Sans MS, cursive;" stroke-width="1px" fill="rgb(0, 0, 0)" text-anchor="start" dominant-baseline="auto">Integrations</text></g></g><g clip-path="url(#clipPath2_ygc0__98)"><path d="M82.679 302.103 L145.783 302.481 L151.333 305.673 L151.895 432.852 L149.931 437.417 L82.619 436.313 L75.564 433.394 L78.616 308.616 L76.905 301.4 L82.321 302.974" stroke="none" stroke-width="0" fill="rgb(254, 224, 204)"/><path d="M82.836 301.17 M82.836 301.17 C96.319 301.069, 108.848 299.921, 146.136 301.17 M146.136 301.17 C148.337 301.302, 151.224 302.669, 152.136 307.17 M152.136 307.17 C152.838 334.613, 151.426 357.666, 152.136 431.269 M152.136 431.269 C151.316 436.534, 148.794 435.823, 146.136 437.269 M146.136 437.269 C131.186 438.714, 114.391 435.842, 82.836 437.269 M82.836 437.269 C77.943 438.163, 77.255 433.726, 76.836 431.269 M76.836 431.269 C75.725 390.941, 74.152 351.882, 76.836 307.17 M76.836 307.17 C75.338 306.158, 80.231 301.875, 82.836 301.17 M82.836 301.17 C82.836 301.17, 82.836 301.17, 82.836 301.17" stroke="rgb(254, 224, 204)" stroke-width="1" fill="none"/></g><g clip-path="url(#clipPath2_ygc0__99)"><path d="M82.836 301.17 M82.836 301.17 C99.334 302.272, 115.144 299.766, 146.136 301.17 M146.136 301.17 C147.796 301.958, 154.014 303.431, 152.136 307.17 M152.136 307.17 C151.862 342.471, 149.927 374.527, 152.136 431.269 M152.136 431.269 C153.182 435.883, 148.272 437.227, 146.136 437.269 M146.136 437.269 C128.771 437, 111.805 435.673, 82.836 437.269 M82.836 437.269 C81.157 436.723, 75.591 433.668, 76.836 431.269 M76.836 431.269 C79.447 381.276, 78.266 334.495, 76.836 307.17 M76.836 307.17 C76.332 302.485, 79.606 302.165, 82.836 301.17 M82.836 301.17 C82.836 301.17, 82.836 301.17, 82.836 301.17" stroke="rgb(0, 0, 0)" stroke-width="1.5" fill="none"/></g><g clip-path="url(#clipPath2_ygc0__100)"><g class="text-container" transform="matrix(1.5, 0, 0, 1.5, -1785.5, -141.5)"><text x="1255.4659" font-size="8px" y="343.2492" clip-path="url(#clipPath2_ygc0_)" font-family="sans-serif" stroke="none" xml:space="preserve" data-sketchy-clip-path="clipPath2_ygc0__100" style="font-style: normal;font-weight: 400;font-size: 8px;font-family: Comic Sans MS, cursive;" stroke-width="1px" fill="rgb(0, 0, 0)" text-anchor="start" dominant-baseline="auto">Steps</text></g></g><g clip-path="url(#clipPath2_ygc0__101)"><path d="M84.736 148.403 L148.657 145.242 L153.203 151.016 L154.451 276.174 L149.362 284.33 L82.644 283.334 L78.039 277.694 L76.561 150.976 L80.247 147.38 L84.073 146.941" stroke="none" stroke-width="0" fill="rgb(254, 224, 204)"/><path d="M84.411 146.822 M84.411 146.822 C107.119 148.015, 130.769 145.68, 147.711 146.822 M84.411 146.822 C106.15 148.122, 127.159 147.01, 147.711 146.822 M147.711 146.822 C150.844 146.945, 152.981 151.937, 153.711 152.822 M147.711 146.822 C151.445 146.534, 152.81 151.225, 153.711 152.822 M153.711 152.822 C153.788 193.303, 154.074 231.76, 153.711 276.922 M153.711 152.822 C152.875 191.176, 153.9 228.235, 153.711 276.922 M153.711 276.922 C153.832 282.102, 149.658 283.81, 147.711 282.922 M153.711 276.922 C152.966 280.411, 152.246 283.147, 147.711 282.922 M147.711 282.922 C122.415 282.52, 99.693 281.884, 84.411 282.922 M147.711 282.922 C124.154 283.136, 102.805 282.192, 84.411 282.922 M84.411 282.922 C80.327 281.578, 78.925 278.426, 78.411 276.922 M84.411 282.922 C81.696 284.107, 79.015 280.662, 78.411 276.922 M78.411 276.922 C79.586 242.561, 80.05 203.851, 78.411 152.822 M78.411 276.922 C77.348 250.908, 77.383 226.538, 78.411 152.822 M78.411 152.822 C76.827 151.393, 80.468 147.807, 84.411 146.822 M78.411 152.822 C80.658 150.848, 79.524 148.209, 84.411 146.822 M84.411 146.822 C84.411 146.822, 84.411 146.822, 84.411 146.822 M84.411 146.822 C84.411 146.822, 84.411 146.822, 84.411 146.822" stroke="rgb(254, 224, 204)" stroke-width="1" fill="none"/></g><g clip-path="url(#clipPath2_ygc0__102)"><path d="M84.411 146.822 M84.411 146.822 C101.875 148.615, 122.805 146.293, 147.711 146.822 M147.711 146.822 C150.221 145.061, 153.005 151.935, 153.711 152.822 M153.711 152.822 C150.965 193.041, 152.602 232.782, 153.711 276.922 M153.711 276.922 C153.791 281.386, 152.054 284.619, 147.711 282.922 M147.711 282.922 C132.609 282.466, 116.624 282.12, 84.411 282.922 M84.411 282.922 C80.614 281.563, 77.933 281.184, 78.411 276.922 M78.411 276.922 C78.512 228.381, 76.015 179.046, 78.411 152.822 M78.411 152.822 C80.155 150.838, 82.359 145.47, 84.411 146.822 M84.411 146.822 C84.411 146.822, 84.411 146.822, 84.411 146.822" stroke="rgb(0, 0, 0)" stroke-width="1.5" fill="none"/></g><g clip-path="url(#clipPath2_ygc0__103)"><g class="text-container" transform="matrix(1.5, 0, 0, 1.5, -1785.5, -141.5)"><text x="1251.1781" font-size="8px" y="240.351" clip-path="url(#clipPath2_ygc0_)" font-family="sans-serif" stroke="none" xml:space="preserve" data-sketchy-clip-path="clipPath2_ygc0__103" style="font-style: normal;font-weight: 400;font-size: 8px;font-family: Comic Sans MS, cursive;" stroke-width="1px" fill="rgb(0, 0, 0)" text-anchor="start" dominant-baseline="auto">ViewDef</text></g></g><g clip-path="url(#clipPath2_ygc0__104)"><path d="M176.844 323.229 M178.372 322.569 C292.47 322.541, 404.745 323.532, 605.882 323.325" stroke="rgb(0, 0, 0)" stroke-width="4.5" fill="none" stroke-dasharray="27 9"/></g><g clip-path="url(#clipPath2_ygc0__105)"><path d="M622.47 321.646 L600.207 314.977 L604.51 323.987 L600.291 331.463 L619.219 322.858" stroke="none" stroke-width="0" fill="rgb(0, 0, 0)"/><path d="M619.32 324.29 M619.497 322.046 C615.02 319.549, 606.271 315.605, 598.185 314.656 M599.173 313.785 C599.767 316.746, 601.65 318.284, 603.08 321.932 M604.527 322.001 C603.665 325.748, 600.855 326.661, 599.413 332.405 M597.684 332.929 C605.428 330.933, 611.979 326.341, 619.911 323.124" stroke="rgb(0, 0, 0)" stroke-width="1" fill="none" stroke-dasharray="27 9"/></g><g clip-path="url(#clipPath2_ygc0__106)"><path d="M621.955 216.535 M620.251 217.178 C525.3 215.985, 431.135 216.023, 192.495 218.224" stroke="rgb(0, 0, 0)" stroke-width="4.5" fill="none" stroke-dasharray="27 9"/></g><g clip-path="url(#clipPath2_ygc0__107)"><path d="M179.426 218.438 L201.603 226.302 L194.791 218.036 L198.392 206.536 L175.775 216.757" stroke="none" stroke-width="0" fill="rgb(0, 0, 0)"/><path d="M178.937 218.416 M176.562 215.957 C186.551 223.274, 196.05 225.955, 199.662 226.51 M200.825 226.623 C197.489 223.369, 196.947 219.761, 194.095 218.944 M193.75 218.523 C197.258 215.534, 199.175 211.489, 200.905 207.831 M199.933 207.804 C194.41 211.733, 186.363 215.23, 176.362 216.646" stroke="rgb(0, 0, 0)" stroke-width="1" fill="none" stroke-dasharray="27 9"/></g><g clip-path="url(#clipPath2_ygc0__108)"><path d="M867.424 97.247 M868.014 94.054 C906.312 92.811, 944.26 93.19, 1019.411 93.639 M1021.057 95.345 C1020.267 235.771, 1019.041 375.252, 1021.298 465.44 M1021.952 466.962 C997.17 466.403, 978.459 465.977, 956.434 463.155" stroke="rgb(0, 0, 0)" stroke-width="1.5" fill="none"/></g><g clip-path="url(#clipPath2_ygc0__109)"><path d="M944.76 463.117 L962.877 472.035 L956.623 463.172 L959.668 458.286 L941.078 464.831" stroke="none" stroke-width="0" fill="rgb(0, 0, 0)"/><path d="M943.356 466.588 M942.586 463.999 C950.688 468.691, 956.687 469.542, 962.421 472.641 M960.806 472.403 C959.466 471.071, 958.038 468.625, 955.932 465.772 M955.925 464.538 C957.459 463.842, 958.152 462.021, 960.668 456.794 M959.363 457.542 C956.175 457.591, 950.044 459.439, 944.642 466.559" stroke="rgb(0, 0, 0)" stroke-width="1" fill="none"/></g><g clip-path="url(#clipPath2_ygc0__110)"><path d="M868.768 96.988 M869.246 95.608 C928.812 94.888, 988.671 95.818, 1021.062 94.15 M1021.944 95.441 C1021.905 240.564, 1020.892 387.205, 1021.874 520.118 M1019.776 517.632 C1004.519 518.687, 989.54 519.909, 953.69 518.891" stroke="rgb(0, 0, 0)" stroke-width="1.5" fill="none"/></g><g clip-path="url(#clipPath2_ygc0__111)"><path d="M941.162 520.071 L961.379 527.847 L958.166 518.709 L961.554 513.707 L944.321 517.698" stroke="none" stroke-width="0" fill="rgb(0, 0, 0)"/><path d="M941.761 519.512 M944.081 521.358 C945.846 521.673, 948.942 521.175, 961.585 525.558 M942.887 519.163 C948.03 522.104, 954.498 523.701, 961.109 527.698 M961.401 527.254 C958.851 525.008, 958.721 522.812, 956.489 519.325 M961.056 526.904 C960.078 524.95, 958.953 522.963, 956.805 519.766 M956.51 519.893 C957.019 516.972, 959.548 514.603, 960.431 512.46 M956.241 519.611 C957.831 516.351, 959.508 514.154, 961.134 511.767 M962.902 513.561 C955.535 511.629, 953.303 514.55, 942.335 519.481 M960.165 512.028 C955.086 513.72, 950.174 517.126, 942.535 519.327" stroke="rgb(0, 0, 0)" stroke-width="1" fill="none"/></g><g clip-path="url(#clipPath2_ygc0__112)"><path d="M870.098 95.944 M869.813 97.029 C911.241 95.196, 958.409 96.885, 1022.544 95.061 M1020.46 95.547 C1020.945 244.26, 1020.962 394.055, 1020.615 574.721 M1020.164 573.014 C1007.193 573.111, 992.775 573.106, 956.738 573.335" stroke="rgb(0, 0, 0)" stroke-width="1.5" fill="none"/></g><g clip-path="url(#clipPath2_ygc0__113)"><path d="M944.595 574.548 L962.346 582.734 L955.936 575.599 L960.26 568.252 L944.564 574.07" stroke="none" stroke-width="0" fill="rgb(0, 0, 0)"/><path d="M941.544 574.548 M942.269 575.091 C949.549 576.833, 951.597 577.98, 962.54 582.478 M943.339 573.272 C947.504 575.543, 950.03 577.034, 960.719 581.718 M960.548 581.334 C960.568 578.68, 957.768 577.024, 955.836 573.08 M961.096 581.885 C959.958 579.055, 958.068 576.787, 956.28 574.33 M957.344 574.628 C957.534 572.767, 959.213 570.312, 960.222 566.205 M956.198 573.895 C958.198 571.559, 959.547 568.334, 960.662 566.263 M960.287 564.997 C955.036 570.542, 947.627 570.65, 944.515 572.942 M961.973 567.044 C957.467 567.287, 953.04 570.398, 942.998 573.864" stroke="rgb(0, 0, 0)" stroke-width="1" fill="none"/></g><g clip-path="url(#clipPath2_ygc0__114)"><path d="M894.447 80.835 L937.351 82.257 L940.442 107.841 L894.519 110.837 L892.902 83.874" stroke="none" stroke-width="0" fill="rgb(255, 255, 255)"/><path d="M895.555 83.539 M893.057 83.785 C906.085 83.671, 919.086 81.868, 937.233 80.096 M938.196 81.584 C936.986 88.612, 936.965 96.09, 936.876 108.486 M937.892 110.652 C921.45 109.008, 907.75 110.251, 895.436 108.54 M894.221 110.13 C895.252 101.204, 895.382 97.151, 894.306 80.616" stroke="rgb(255, 255, 255)" stroke-width="1" fill="none"/></g><g clip-path="url(#clipPath2_ygc0__115)"><g class="text-container" transform="matrix(1.5, 0, 0, 1.5, -1785.5, -141.5)"><text x="1788.5027" xml:space="preserve" y="162.1543" clip-path="url(#clipPath2_ygc0_)" font-family="sans-serif" stroke="none" data-sketchy-clip-path="clipPath2_ygc0__115" style="font-style: normal;font-weight: 400;font-size: 12px;font-family: Comic Sans MS, cursive;" stroke-width="1px" fill="rgb(0, 0, 0)" text-anchor="start" dominant-baseline="auto">load</text></g></g><g clip-path="url(#clipPath2_ygc0__116)"><path d="M709.204 506.26 M710.325 506.104 C709.642 501.592, 710.291 498.499, 708.124 492.003 M709.065 491.729 C747.017 490.995, 786.835 488.892, 820.195 490.674 M817.291 491.423 C818.11 480.408, 817.916 471.407, 817.577 465.321 M819.744 463.992 C827.13 465.325, 830.935 464.56, 836.925 465.88" stroke="rgb(0, 0, 0)" stroke-width="1.5" fill="none" stroke-dasharray="6 4.5 0.5 4.5"/></g><g clip-path="url(#clipPath2_ygc0__117)"><path d="M727.954 521.34 M725.513 518.57 C734.405 520.048, 743.021 519.888, 758.624 517.502 M725.446 520.028 C734.767 520.336, 744.1 519.362, 757.917 519.595" stroke="rgb(0, 0, 0)" stroke-width="1.5" fill="none"/></g><g clip-path="url(#clipPath2_ygc0__118)"><path d="M789.936 520.174 M793.269 518.752 C804.293 520.727, 815.611 519.614, 839.348 518.969" stroke="rgb(0, 0, 0)" stroke-width="1.5" fill="none" stroke-dasharray="6 4.5 0.5 4.5"/></g><g clip-path="url(#clipPath2_ygc0__119)"><path d="M773.194 572.446 M773.391 575.748 C789.302 572.963, 804.527 574.421, 838.937 572.009" stroke="rgb(0, 0, 0)" stroke-width="1.5" fill="none" stroke-dasharray="6 4.5 0.5 4.5"/></g><g clip-path="url(#clipPath2_ygc0__120)"><path d="M460.729 588.812 M461.321 587.292 C464.167 603.313, 464.371 617.657, 462.748 653.004 M462.055 653.198 C577.617 651.77, 691.625 652.452, 890.045 652.973 M889.262 652.068 C891.415 636.251, 891.073 620.751, 888.79 593.499" stroke="rgb(0, 0, 0)" stroke-width="1.5" fill="none" stroke-dasharray="6 4.5 0.5 4.5"/></g></svg>