<svg data-v-6e9b645d="" class="sketchy-canvas visible" xmlns="http://www.w3.org/2000/svg" xmlns:xlink="http://www.w3.org/1999/xlink" width="1215" height="852" stroke-linecap="round"><defs><clipPath id="ygc127_7_0"><rect x="25" y="25" width="1164.6" height="801.508" transform="matrix(1, 0, 0, 1, 0, 0)"/></clipPath></defs><rect width="1215" height="852" fill="white"/><g><path d="M-0.139 -0.947 L1213.06 0.18 L1214.376 850.019 L-1.327 851.797" stroke="none" stroke-width="0" fill="rgb(255, 255, 255)"/><path d="M-0.577 -0.184 C395.261 1.691, 789.24 2.731, 1214.983 -0.648 M1215.487 -0.346 C1212.17 252.271, 1212.337 505.086, 1215.3 851.842 M1215.555 852.516 C821.54 851.26, 427.647 851.194, -0.031 851.716 M0.518 851.751 C-1.54 577.549, -2.005 303.4, 0.775 -0.735" stroke="rgb(255, 255, 255)" stroke-width="1" fill="none"/></g><g clip-path="url(#ygc127_7_0)"><path d="M929.407 430.177 M927.981 431.035 C941.668 422.874, 958.28 411.12, 979.087 398.967" stroke="rgb(102, 56, 0)" stroke-width="1.8" fill="none"/></g><g><path d="M981.657 406.997 L987.664 396.433 L971.688 393.144 L981.096 410.083" stroke="none" stroke-width="0" fill="rgb(102, 56, 0)"/><path d="M981.583 407.725 M982.28 408.35 C984.443 405.219, 983.838 401.631, 986.743 395.488 M986.898 396.435 C984.122 395.337, 979.075 393.937, 972.912 393.419 M973 394.806 C977.19 397.395, 975.981 399.004, 980.962 410.386" stroke="rgb(102, 56, 0)" stroke-width="1.8" fill="none"/></g><g><path d="M925.303 422.871 L922.262 434.251 L936.036 436.283 L924.906 420.862" stroke="none" stroke-width="0" fill="rgb(102, 56, 0)"/><path d="M926.446 421.392 M924.524 420.649 C924.518 425.508, 922.357 428.918, 923.257 432.458 M921.082 433.13 C925.304 435.488, 927.85 434.306, 933.817 437.926 M933.259 436.193 C929.713 430.207, 926.746 426.725, 926.615 420.815" stroke="rgb(102, 56, 0)" stroke-width="1.8" fill="none"/></g><g clip-path="url(#ygc127_7_0)"><path d="M207.463 363.676 M208.19 364.558 C213.34 370.192, 220.882 376.194, 233.933 384.339" stroke="rgb(102, 56, 0)" stroke-width="1.8" fill="none"/></g><g><path d="M231.225 390.354 L240.957 390.199 L239.267 377.605 L231.189 389.87" stroke="none" stroke-width="0" fill="rgb(102, 56, 0)"/><path d="M230.566 390.018 M231.779 389.713 C235.024 390.297, 237.004 390.09, 240.042 389.115 M241.094 388.835 C240.548 385.47, 239.175 381.652, 239.041 378.563 M238.056 380.003 C236.594 382.688, 233.185 387.559, 231.918 389.107" stroke="rgb(102, 56, 0)" stroke-width="1.35" fill="none"/></g><g><path d="M209.91 361.408 L201.001 360.386 L205.767 371.007 L211.397 359.311" stroke="none" stroke-width="0" fill="rgb(102, 56, 0)"/><path d="M212.988 359.697 M212.516 360.779 C209.212 360.508, 208.142 360.838, 202.627 361.979 M201.384 360.852 C201.995 364.154, 203.073 366.746, 204.697 370.754 M204.678 369.956 C205.057 368.764, 206.56 366.92, 212.539 359.745" stroke="rgb(102, 56, 0)" stroke-width="1.35" fill="none"/></g><g clip-path="url(#ygc127_7_0)"><path d="M666.889 173.33 M665.307 173.562 C760.852 217.819, 855.599 260.446, 974.585 311.302" stroke="rgb(102, 56, 0)" stroke-width="1.8" fill="none"/></g><g><path d="M970.016 316.435 L981.184 312.966 L976.37 306.842 L972.283 316.117" stroke="none" stroke-width="0" fill="rgb(102, 56, 0)"/><path d="M970.601 317.278 M971.296 317.325 C973.881 316.554, 976.649 315.766, 978.992 314.98 M978.77 314.526 C979.092 312.656, 978.18 310.49, 975.875 304.758 M975.464 304.768 C973.138 311.206, 971.642 314.712, 969.886 316.93" stroke="rgb(102, 56, 0)" stroke-width="1.35" fill="none"/></g><g><path d="M666.879 165.898 L659.535 170.178 L663.29 179.5 L666.651 165.951" stroke="none" stroke-width="0" fill="rgb(102, 56, 0)"/><path d="M669.044 167.514 M668.52 166.165 C666.835 167.194, 663.786 168.795, 659.983 170.174 M659.915 171.053 C660.002 172.496, 660.637 175.842, 662.393 179.447 M664.126 179.637 C665.741 173.842, 665.614 170.779, 668.676 166.332" stroke="rgb(102, 56, 0)" stroke-width="1.35" fill="none"/></g><g clip-path="url(#ygc127_7_0)"><path d="M1065.016 438.37 M1062.1 438.643 C1062.568 502.054, 1062.979 563.955, 1064.226 645.069" stroke="rgb(102, 56, 0)" stroke-width="1.8" fill="none"/></g><g><path d="M1055.773 643.623 L1062.414 649.998 L1068.183 643.184 L1054.835 645.756" stroke="none" stroke-width="0" fill="rgb(102, 56, 0)"/><path d="M1054.583 644.496 M1057.128 644.284 C1059.056 645.878, 1059.017 647.99, 1063.61 651.579 M1056.512 644.721 C1058.142 647.255, 1060.666 648.964, 1062.839 652.051 M1063.899 651.083 C1066.428 649.493, 1067.932 645.772, 1070.384 644.794 M1063.483 652.02 C1065.31 649.424, 1067.649 647.443, 1070.271 644.611 M1068.63 644.362 C1063.287 644.514, 1058.114 644.025, 1055.699 645.448 M1069.758 644.392 C1066.468 644.83, 1062.895 644.75, 1055.722 644.542" stroke="rgb(102, 56, 0)" stroke-width="1.35" fill="none"/></g><g><path d="M1069.276 439.637 L1061.504 433.794 L1058.149 438.395 L1071.573 437.339" stroke="none" stroke-width="0" fill="rgb(102, 56, 0)"/><path d="M1069.979 438.723 M1070.532 438.497 C1068.117 436.769, 1065.497 434.175, 1063.265 432.401 M1070.049 438.371 C1067.819 437.199, 1066.275 435.672, 1063.009 432.28 M1062.98 431.337 C1060.396 434.177, 1058.635 437.748, 1055.494 439.046 M1063.489 432.019 C1061.127 433.588, 1059.399 435.9, 1055.902 439.293 M1056.63 439.668 C1059.11 437.592, 1063.911 437.945, 1069.71 438.678 M1056.194 438.911 C1059.364 438.926, 1063.502 439.193, 1069.474 438.66" stroke="rgb(102, 56, 0)" stroke-width="1.35" fill="none"/></g><g clip-path="url(#ygc127_7_0)"><path d="M584.899 248.984 M585.864 248.818 C584.641 236.595, 585.813 223.297, 585.8 213.899 M583.133 247.872 C583.813 239.999, 584.173 234.404, 583.099 214.042" stroke="rgb(102, 56, 0)" stroke-width="1.8" fill="none"/></g><g><path d="M589.751 217.074 L582.955 207.998 L576.225 213.936 L589.302 215.691" stroke="none" stroke-width="0" fill="rgb(102, 56, 0)"/><path d="M591.189 214.148 M590.037 216.113 C587.635 213.471, 585.554 209.739, 584.383 208.587 M582.961 208.141 C581.149 210.484, 578.575 213.649, 577.008 216.378 M576.637 216.594 C582.519 215.198, 588.315 214.914, 590.988 215.858" stroke="rgb(102, 56, 0)" stroke-width="1.35" fill="none"/></g><g><path d="M579.045 244.399 L582.511 253.657 L592.23 245.831 L577.98 245.37" stroke="none" stroke-width="0" fill="rgb(102, 56, 0)"/><path d="M576.349 244.276 M576.999 246.3 C579.671 248.083, 580.133 249.873, 584.075 252.751 M584.835 252.948 C586.78 249.387, 588.508 247.537, 590.529 245.39 M590.325 246.315 C588.11 244.951, 586.172 245.47, 577.771 245.706" stroke="rgb(102, 56, 0)" stroke-width="1.35" fill="none"/></g><g clip-path="url(#ygc127_7_0)"><path d="M172.683 566.482 L422.369 320.319 L735.867 317.904 L984.355 569.717 L735.597 818.858 L422.646 819.05 L175.648 568.311" stroke="none" stroke-width="0" fill="rgb(206, 147, 216)"/><path d="M172.907 569.894 M175.09 569.003 C230.408 512.831, 287.652 458.614, 424.706 317.468 M424.908 318.894 C493.294 319.654, 563.063 319.779, 735.497 319.861 M733.939 318.7 C806.343 390.56, 879.869 463.56, 985.065 568.965 M983.989 567.61 C912.813 640.507, 838.455 715.054, 733.679 818.374 M735.051 817.274 C619.943 819.195, 504.859 820.188, 423.042 816.17 M424.31 816.419 C354.572 750.125, 284.347 681.127, 175.072 567.992 M174.4 567.982 C174.4 567.982, 174.4 567.982, 174.4 567.982" stroke="rgb(102, 56, 0)" stroke-width="1.8" fill="none"/></g><g clip-path="url(#ygc127_7_0)"><g class="text-container" transform="matrix(1.8, 0, 0, 1.8, 579.4, 555.382)"><text font-family="'Arial'" font-size="12px" font-style="normal" font-weight="normal" text-decoration="none" text-anchor="middle" fill="rgb(0, 0, 0)" fill-opacity="1" dy="0.9166666666666666em" transform="" data-sketchy-clip-path="ygc127_7_0" style="font-style: normal;font-weight: 400;font-size: 12px;font-family: Comic Sans MS, cursive;" stroke="none" stroke-width="1px" dominant-baseline="auto">Domain</text></g></g><g clip-path="url(#ygc127_7_0)"><g class="text-container" transform="matrix(1.8, 0, 0, 1.8, 579.4, 792.308)"><text font-family="'Arial'" font-size="12px" font-style="normal" font-weight="normal" text-decoration="none" text-anchor="middle" fill="rgb(0, 0, 0)" fill-opacity="1" dy="0.9166666666666666em" transform="" data-sketchy-clip-path="ygc127_7_0" style="font-style: normal;font-weight: 400;font-size: 12px;font-family: Comic Sans MS, cursive;" stroke="none" stroke-width="1px" dominant-baseline="auto">Framework</text></g></g><g clip-path="url(#ygc127_7_0)"><path d="M284.779 567.484 L468.267 386.402 L692.973 387.712 L872.177 568.636 L692.852 748.032 L466.501 749.255 L285.355 566.273" stroke="none" stroke-width="0" fill="rgb(206, 147, 216)"/><path d="M287.049 569.894 M285.285 568.327 C349.573 504.37, 414.494 439.58, 466.555 387.503 M467.746 385.546 C518.203 386.431, 570.408 387.208, 692.178 385.714 M692.072 385.89 C729.175 426.649, 768.199 466.097, 873.303 566.69 M874.516 567.742 C825.045 614.87, 776.879 662.162, 691.269 748.504 M690.474 749.214 C630.046 749.774, 566.295 751.79, 465.766 749.556 M465.958 747.554 C424.396 705.156, 384.123 665.724, 285.556 568.831 M285.659 567.982 C285.659 567.982, 285.659 567.982, 285.659 567.982" stroke="rgb(102, 56, 0)" stroke-width="1.8" fill="none"/></g><g clip-path="url(#ygc127_7_0)"><g class="text-container" transform="matrix(1.8, 0, 0, 1.8, 579.4, 555.382)"><text font-family="'Arial'" font-size="12px" font-style="normal" font-weight="normal" text-decoration="none" text-anchor="middle" fill="rgb(0, 0, 0)" fill-opacity="1" dy="0.9166666666666666em" transform="" data-sketchy-clip-path="ygc127_7_0" style="font-style: normal;font-weight: 400;font-size: 12px;font-family: Comic Sans MS, cursive;" stroke="none" stroke-width="1px" dominant-baseline="auto">Domain</text></g></g><g clip-path="url(#ygc127_7_0)"><g class="text-container" transform="matrix(1.8, 0, 0, 1.8, 579.4, 723.759)"><text font-family="'Arial'" font-size="12px" font-style="normal" font-weight="normal" text-decoration="none" text-anchor="middle" fill="rgb(0, 0, 0)" fill-opacity="1" dy="0.9166666666666666em" transform="" data-sketchy-clip-path="ygc127_7_0" style="font-style: normal;font-weight: 400;font-size: 12px;font-family: Comic Sans MS, cursive;" stroke="none" stroke-width="1px" dominant-baseline="auto">Application</text></g></g><g clip-path="url(#ygc127_7_0)"><path d="M403.005 590.325 L522.499 471.572 L645.333 471.008 L763.78 590.918 L644.655 713.127 L522.525 710.135 L401.725 593.47" stroke="none" stroke-width="0" fill="rgb(206, 147, 216)"/><path d="M401.47 591.695 M403.665 590.629 C440.571 555.805, 479.902 515.723, 522.933 472.452 M403.455 591.861 C444.109 552.819, 484.199 512.371, 521.114 471.864 M523.436 471.918 C571.895 470.429, 617.75 471.257, 647.775 472.388 M521.2 472.754 C563.676 472.656, 603.445 472.769, 646.575 472.602 M644.974 473.45 C683.624 511.274, 722.518 550.429, 765.464 591.808 M645.223 472.212 C680.852 509.001, 717.457 543.653, 764.87 592.263 M765.107 590.695 C732.269 625.673, 696.258 658.689, 647.767 711.085 M764.381 592.728 C719.796 638.508, 672.744 684.504, 645.699 711.291 M644.064 710.128 C599.188 711.903, 550.745 710.399, 520.373 712.501 M646.802 711.132 C611.629 710.933, 576.839 711.766, 522.885 711.09 M521.142 711.509 C476.29 665.046, 429.575 619.089, 403.413 592.608 M521.674 711.698 C493.171 681.854, 464.822 652.402, 401.996 592.628 M402.816 591.972 C402.816 591.972, 402.816 591.972, 402.816 591.972 M402.816 591.972 C402.816 591.972, 402.816 591.972, 402.816 591.972" stroke="rgb(102, 56, 0)" stroke-width="1.8" fill="none"/></g><g clip-path="url(#ygc127_7_0)"><g class="text-container" transform="matrix(1.8, 0, 0, 1.8, 583.9, 579.372)"><text font-family="'Arial'" font-size="12px" font-style="normal" font-weight="normal" text-decoration="none" text-anchor="middle" fill="rgb(0, 0, 0)" fill-opacity="1" dy="0.9166666666666666em" transform="" data-sketchy-clip-path="ygc127_7_0" style="font-style: normal;font-weight: 400;font-size: 12px;font-family: Comic Sans MS, cursive;" stroke="none" stroke-width="1px" dominant-baseline="auto">Domain</text></g></g><g clip-path="url(#ygc127_7_0)"><path d="M519.212 406.429 L650.179 407.829 L648.521 491.208 L519.65 491.837 L516.866 407.238" stroke="none" stroke-width="0" fill="rgb(206, 147, 216)"/><path d="M519.756 406.122 M518.529 404.737 C566.907 405.392, 619.363 405.455, 650.155 404.186 M518.661 405.478 C566.779 406.252, 616.577 405.355, 649.913 406.239 M651.541 405.471 C648.11 425.177, 650.623 444.732, 648.98 492.377 M649.588 405.32 C649.132 425.445, 649.302 444.077, 649.944 491.515 M650.27 489.414 C615.242 489.173, 580.514 489.407, 517.987 491.753 M649.824 491.794 C601.042 490.909, 552.512 491.883, 517.722 491.587 M519.612 489.565 C519.769 465.667, 517.992 439.936, 518.474 405.976 M519.02 490.663 C519.551 458.23, 519.208 424.191, 518.472 406.493" stroke="rgb(102, 56, 0)" stroke-width="1.8" fill="none"/></g><g clip-path="url(#ygc127_7_0)"><g class="text-container" transform="matrix(1.8, 0, 0, 1.8, 583.9, 435.794)"><text font-family="'Arial'" font-size="12px" font-style="normal" font-weight="normal" text-decoration="none" text-anchor="middle" fill="rgb(0, 0, 0)" fill-opacity="1" dy="0.9166666666666666em" transform="" data-sketchy-clip-path="ygc127_7_0" style="font-style: normal;font-weight: 400;font-size: 12px;font-family: Comic Sans MS, cursive;" stroke="none" stroke-width="1px" dominant-baseline="auto">Use Cases</text></g></g><g clip-path="url(#ygc127_7_0)"><path d="M779.645 698.661 L884.11 595.976 L790.836 598.348 L689.802 698.537 L779.119 700.561" stroke="none" stroke-width="0" fill="rgb(206, 147, 216)"/><path d="M780.124 699.416 M778.931 699.038 C813.763 665.817, 846.419 636.637, 884.085 597.159 M883.593 599.425 C851.351 597.063, 816.311 597.401, 792.643 598.944 M790.769 596.454 C765.1 626.934, 735.897 655.232, 690.786 699.856 M689.103 699.298 C706.413 701.767, 724.856 700.068, 779.981 699.508" stroke="rgb(102, 56, 0)" stroke-width="1.8" fill="none"/></g><g clip-path="url(#ygc127_7_0)"><g class="text-container" transform="matrix(1.8, 0, 0, 1.8, 786.4, 636.382)"><text font-family="'Arial'" font-size="12px" font-style="normal" font-weight="normal" text-decoration="none" text-anchor="middle" fill="rgb(0, 0, 0)" fill-opacity="1" dy="0.9166666666666666em" transform="" data-sketchy-clip-path="ygc127_7_0" style="font-style: normal;font-weight: 400;font-size: 12px;font-family: Comic Sans MS, cursive;" stroke="none" stroke-width="1px" dominant-baseline="auto">Port Out</text></g></g><g clip-path="url(#ygc127_7_0)"><path d="M469.518 712.548 L366.58 609.087 L273.895 609.568 L377.985 710.656 L470.495 711.637" stroke="none" stroke-width="0" fill="rgb(206, 147, 216)"/><path d="M468.517 712.016 M470.369 710.542 C435.753 678.528, 402.483 644.503, 367.389 608.43 M366.216 609.132 C336.914 610.094, 310.867 609.712, 276.803 606.965 M276.388 610.107 C299.931 632.048, 324.032 657.507, 378.225 712.267 M379.775 709.926 C404.569 713.287, 428.716 711.865, 469.845 710.47" stroke="rgb(102, 56, 0)" stroke-width="1.8" fill="none"/></g><g clip-path="url(#ygc127_7_0)"><g class="text-container" transform="matrix(1.8, 0, 0, 1.8, 372.4, 647.237)"><text font-family="'Arial'" font-size="12px" font-style="normal" font-weight="normal" text-decoration="none" text-anchor="middle" fill="rgb(0, 0, 0)" fill-opacity="1" dy="0.9166666666666666em" transform="" data-sketchy-clip-path="ygc127_7_0" style="font-style: normal;font-weight: 400;font-size: 12px;font-family: Comic Sans MS, cursive;" stroke="none" stroke-width="1px" dominant-baseline="auto">Port In</text></g></g><g clip-path="url(#ygc127_7_0)"><path d="M1009.457 526.855 L876.324 393.163 L741.149 392.511 L874.698 527.925 L1010.265 527.595" stroke="none" stroke-width="0" fill="rgb(206, 147, 216)"/><path d="M1010.066 527.842 M1011.723 528.022 C975.778 493.213, 943.39 459.147, 876.831 394.1 M877.608 393.009 C840.928 392.997, 809.488 395.006, 742.323 394.211 M743.145 394.508 C782.901 438.985, 829.32 482.392, 873.156 527.436 M874.512 525.919 C915.75 527.171, 955.942 528.714, 1010.354 525.492" stroke="rgb(102, 56, 0)" stroke-width="1.8" fill="none"/></g><g clip-path="url(#ygc127_7_0)"><g class="text-container" transform="matrix(1.8, 0, 0, 1.8, 876.4, 431.182)"><text font-family="'Arial'" font-size="12px" font-style="normal" font-weight="normal" text-decoration="none" text-anchor="middle" fill="rgb(0, 0, 0)" fill-opacity="1" transform="" data-sketchy-clip-path="ygc127_7_0" style="font-style: normal;font-weight: 400;font-size: 12px;font-family: Comic Sans MS, cursive;" stroke="none" stroke-width="1px" dominant-baseline="auto"><tspan dy="0.9166666666666666em" x="0" data-sketchy-clip-path="ygc127_7_0" stroke="none" stroke-width="1px" fill="rgb(0, 0, 0)" text-anchor="middle" dominant-baseline="auto">Adapter</tspan><tspan dy="1.5em" x="0" data-sketchy-clip-path="ygc127_7_0" stroke="none" stroke-width="1px" fill="rgb(0, 0, 0)" text-anchor="middle" dominant-baseline="auto">(API)</tspan></text></g></g><g clip-path="url(#ygc127_7_0)"><path d="M285.573 484.684 L418.108 353.162 L280.536 350.49 L147.337 485.657 L284.519 485.455" stroke="none" stroke-width="0" fill="rgb(206, 147, 216)"/><path d="M285.465 487.053 M282.287 487.376 C324.68 447.491, 363.747 409.849, 419.086 352.571 M283.801 486.116 C319.66 450.115, 354.546 415.578, 416.532 351.093 M419.292 350.144 C367.302 351.218, 322.21 351.824, 280.506 350.847 M418.155 351.207 C383.71 353.424, 349.371 353.36, 280.505 351.161 M279.247 353.778 C239.258 392.493, 201.035 429.744, 145.932 485.347 M281.478 352.049 C232.036 399.271, 184.224 447.621, 147.698 485.844 M149.276 484.838 C176.459 485.058, 205.375 487.478, 281.913 484.276 M146.612 485.515 C200.216 485.239, 252.893 484.888, 284.583 485.168" stroke="rgb(102, 56, 0)" stroke-width="1.8" fill="none"/></g><g clip-path="url(#ygc127_7_0)"><g class="text-container" transform="matrix(1.8, 0, 0, 1.8, 282.4, 390.007)"><text font-family="'Arial'" font-size="12px" font-style="normal" font-weight="normal" text-decoration="none" text-anchor="middle" fill="rgb(0, 0, 0)" fill-opacity="1" transform="" data-sketchy-clip-path="ygc127_7_0" style="font-style: normal;font-weight: 400;font-size: 12px;font-family: Comic Sans MS, cursive;" stroke="none" stroke-width="1px" dominant-baseline="auto"><tspan dy="0.9166666666666666em" x="0" data-sketchy-clip-path="ygc127_7_0" stroke="none" stroke-width="1px" fill="rgb(0, 0, 0)" text-anchor="middle" dominant-baseline="auto">Adapter</tspan><tspan dy="1.5em" x="0" data-sketchy-clip-path="ygc127_7_0" stroke="none" stroke-width="1px" fill="rgb(0, 0, 0)" text-anchor="middle" dominant-baseline="auto">(feed)</tspan></text></g></g><g clip-path="url(#ygc127_7_0)"><path d="M34.389 283.38 L104.371 216.46 L174.862 216.243 L242.966 284.601 L174.977 354.144 L101.586 354.93 L35.087 283.975" stroke="none" stroke-width="0" fill="rgb(206, 147, 216)"/><path d="M34.978 282.571 M32.218 285.051 C48.214 266.83, 64.461 253.124, 102.807 215.302 M102.015 213.234 C129.681 213.255, 158.919 213.146, 174.479 213.355 M174.931 214.142 C200.411 241.635, 229.239 270.051, 243.062 282.865 M245.218 282.596 C227.268 297.315, 214.85 312.636, 176.675 353.271 M175.256 352.092 C156.416 352.828, 140.266 355.116, 102.104 352.001 M103.558 353.68 C80.38 332.917, 61.188 311.728, 34.092 283.342 M34 283.947 C34 283.947, 34 283.947, 34 283.947" stroke="rgb(102, 56, 0)" stroke-width="1.8" fill="none"/></g><g clip-path="url(#ygc127_7_0)"><g class="text-container" transform="matrix(1.8, 0, 0, 1.8, 138.942, 271.347)"><text font-family="'Arial'" font-size="12px" font-style="normal" font-weight="normal" text-decoration="none" text-anchor="middle" fill="rgb(0, 0, 0)" fill-opacity="1" dy="0.9166666666666666em" transform="" data-sketchy-clip-path="ygc127_7_0" style="font-style: normal;font-weight: 400;font-size: 12px;font-family: Comic Sans MS, cursive;" stroke="none" stroke-width="1px" dominant-baseline="auto">Step Catalog</text></g></g><g clip-path="url(#ygc127_7_0)"><path d="M33.338 298.693 L101.71 230.022 L172.916 228.927 L244.609 297.538 L176.474 365.685 L103.2 367.301 L33.188 299.017" stroke="none" stroke-width="0" fill="rgb(206, 147, 216)"/><path d="M32.004 299.629 M34.224 296.354 C50.88 282.35, 70.3 263.34, 103.433 230.253 M103.987 227.659 C124.905 227.271, 142.441 229.237, 176.676 230.795 M175.669 227.198 C189.413 243.86, 205.996 261.354, 245.032 296.333 M245.382 296.595 C217.427 323.344, 194.969 348.354, 175.675 368.52 M176.091 367.773 C150.55 364.906, 123.491 367.244, 103.819 366.178 M104.327 368.058 C78.971 343.573, 56.298 322.741, 34.109 297.881 M34 297.982 C34 297.982, 34 297.982, 34 297.982" stroke="rgb(102, 56, 0)" stroke-width="1.8" fill="none"/></g><g clip-path="url(#ygc127_7_0)"><g class="text-container" transform="matrix(1.8, 0, 0, 1.8, 138.942, 285.382)"><text font-family="'Arial'" font-size="12px" font-style="normal" font-weight="normal" text-decoration="none" text-anchor="middle" fill="rgb(0, 0, 0)" fill-opacity="1" dy="0.9166666666666666em" transform="" data-sketchy-clip-path="ygc127_7_0" style="font-style: normal;font-weight: 400;font-size: 12px;font-family: Comic Sans MS, cursive;" stroke="none" stroke-width="1px" dominant-baseline="auto">Step Catalog</text></g></g><g clip-path="url(#ygc127_7_0)"><path d="M33.03 317.759 L104.506 245.776 L173.004 245.42 L243.392 317.478 L175.686 383.878 L101.739 385.099 L33.27 316.427" stroke="none" stroke-width="0" fill="rgb(206, 147, 216)"/><path d="M34.675 315.537 M32.031 317.498 C53.801 293.898, 74.11 276.982, 104.109 244.978 M101.587 248.825 C122.433 245.54, 140.731 245.831, 174.318 248.038 M175.819 247.049 C190.342 259.595, 203.908 274.539, 243.272 314.403 M242.827 316.758 C223.892 338.283, 201.773 359.006, 176.188 384.989 M175.083 387.016 C146.683 385.913, 121.723 384.959, 102.16 383.414 M104.129 383.812 C83.376 367.2, 67.475 347.018, 33.94 314.977 M34 315.982 C34 315.982, 34 315.982, 34 315.982" stroke="rgb(102, 56, 0)" stroke-width="1.8" fill="none"/></g><g clip-path="url(#ygc127_7_0)"><g class="text-container" transform="matrix(1.8, 0, 0, 1.8, 138.942, 303.382)"><text font-family="'Arial'" font-size="12px" font-style="normal" font-weight="normal" text-decoration="none" text-anchor="middle" fill="rgb(0, 0, 0)" fill-opacity="1" dy="0.9166666666666666em" transform="" data-sketchy-clip-path="ygc127_7_0" style="font-style: normal;font-weight: 400;font-size: 12px;font-family: Comic Sans MS, cursive;" stroke="none" stroke-width="1px" dominant-baseline="auto">Step Catalog</text></g></g><g clip-path="url(#ygc127_7_0)"><path d="M945.743 353.832 L1023.233 273.93 L1105.073 276.214 L1179.432 353.784 L1104.044 427.784 L1024.091 428.266 L946.588 352.448" stroke="none" stroke-width="0" fill="rgb(206, 147, 216)"/><path d="M944.267 350.323 M943.615 352.66 C977.129 320.175, 1007.863 289.328, 1022.257 272.664 M945.061 351.669 C964.422 333.236, 982.556 314.553, 1022.858 274.767 M1022.08 274.84 C1041.332 274.258, 1056.338 273.501, 1102.665 273.874 M1022.247 275.074 C1048.094 274.193, 1073.373 273.306, 1102.81 274.142 M1104.368 275.088 C1129.772 299.145, 1151.089 323.073, 1181.233 353.536 M1102.4 274.881 C1130.273 301.097, 1156.022 328.604, 1180.727 351.433 M1181.709 350.617 C1153.977 380.029, 1124.141 406.963, 1104.789 427.638 M1180.736 351.107 C1153.99 379.394, 1127.12 406.364, 1103.9 429.52 M1103.949 430.529 C1085.541 430.37, 1066.301 430.544, 1024.417 429.428 M1102.489 428.602 C1082.923 430.699, 1060.757 429.541, 1023.264 428.971 M1024.293 429.376 C992.843 402.947, 968.28 372.383, 946.13 352.728 M1022.02 428.892 C1002.452 407.004, 981.12 387.097, 946.059 351.001 M945.516 351.982 C945.516 351.982, 945.516 351.982, 945.516 351.982 M945.516 351.982 C945.516 351.982, 945.516 351.982, 945.516 351.982" stroke="rgb(102, 56, 0)" stroke-width="1.8" fill="none"/></g><g clip-path="url(#ygc127_7_0)"><g class="text-container" transform="matrix(1.8, 0, 0, 1.8, 1063.06, 339.382)"><text font-family="'Arial'" font-size="12px" font-style="normal" font-weight="normal" text-decoration="none" text-anchor="middle" fill="rgb(0, 0, 0)" fill-opacity="1" dy="0.9166666666666666em" transform="" data-sketchy-clip-path="ygc127_7_0" style="font-style: normal;font-weight: 400;font-size: 12px;font-family: Comic Sans MS, cursive;" stroke="none" stroke-width="1px" dominant-baseline="auto">User Interface</text></g></g><g clip-path="url(#ygc127_7_0)"><path d="M476.633 101.984 L549.14 35.139 L620.784 32.07 L691.964 105.142 L621.562 175.579 L547.148 173.624 L476.532 102.128" stroke="none" stroke-width="0" fill="rgb(206, 147, 216)"/><path d="M477.029 102.413 M479.185 105.243 C500.386 79.741, 521.631 58.894, 547.473 32.797 M547.85 33.953 C570.832 34.61, 589.524 35.376, 622.037 33.993 M619.355 33.597 C638.51 52.985, 656.109 72.341, 690.999 105.115 M688.402 102.533 C675.739 116.803, 661.399 133.404, 621.168 175.652 M620.253 174.857 C600.944 171.632, 580.427 174.303, 547.507 174.068 M547.683 174.126 C531.369 159.196, 513.974 140.476, 477.685 103.857 M477.608 103.947 C477.608 103.947, 477.608 103.947, 477.608 103.947" stroke="rgb(102, 56, 0)" stroke-width="1.8" fill="none"/></g><g clip-path="url(#ygc127_7_0)"><g class="text-container" transform="matrix(1.8, 0, 0, 1.8, 583.9, 91.3472)"><text font-family="'Arial'" font-size="12px" font-style="normal" font-weight="normal" text-decoration="none" text-anchor="middle" fill="rgb(0, 0, 0)" fill-opacity="1" dy="0.9166666666666666em" transform="" data-sketchy-clip-path="ygc127_7_0" style="font-style: normal;font-weight: 400;font-size: 12px;font-family: Comic Sans MS, cursive;" stroke="none" stroke-width="1px" dominant-baseline="auto">Step Catalog</text></g></g><g clip-path="url(#ygc127_7_0)"><path d="M477.498 116.026 L548.904 46.795 L621.316 48.802 L690.477 119.192 L618.53 188.827 L547.732 189.396 L477.244 116.549" stroke="none" stroke-width="0" fill="rgb(206, 147, 216)"/><path d="M479.385 118.879 M479.409 116.923 C498.524 96.557, 520.253 76.384, 545.587 49.552 M477.885 117.514 C500.733 94.346, 525.637 70.1, 547.186 48.591 M546.517 48.283 C572.8 49.726, 597.466 48.149, 620.712 48.028 M546.89 48.843 C574.903 48.403, 602.646 48.394, 620.032 48.726 M618.921 48.704 C640.928 65.731, 658.426 85.502, 689.359 119.643 M621.013 48.492 C638.881 65.417, 655.345 82.692, 690.851 117.388 M691.432 119.435 C665.119 142.324, 640.37 170.6, 621.769 187.455 M689.437 118.128 C675.367 131.131, 661.582 147.113, 620.119 187.059 M619.981 187.652 C593.01 188.339, 565.794 187.041, 549.115 187.49 M619.907 187.011 C603.482 187.266, 587.494 188.026, 547.989 187.599 M549.361 186.121 C525.991 163.841, 498.794 140.085, 477.72 118.487 M548.503 187.132 C527.827 169.895, 508.529 150.778, 478.066 118.125 M477.608 117.982 C477.608 117.982, 477.608 117.982, 477.608 117.982 M477.608 117.982 C477.608 117.982, 477.608 117.982, 477.608 117.982" stroke="rgb(102, 56, 0)" stroke-width="1.8" fill="none"/></g><g clip-path="url(#ygc127_7_0)"><g class="text-container" transform="matrix(1.8, 0, 0, 1.8, 583.9, 105.382)"><text font-family="'Arial'" font-size="12px" font-style="normal" font-weight="normal" text-decoration="none" text-anchor="middle" fill="rgb(0, 0, 0)" fill-opacity="1" dy="0.9166666666666666em" transform="" data-sketchy-clip-path="ygc127_7_0" style="font-style: normal;font-weight: 400;font-size: 12px;font-family: Comic Sans MS, cursive;" stroke="none" stroke-width="1px" dominant-baseline="auto">Step Catalog</text></g></g><g clip-path="url(#ygc127_7_0)"><path d="M478.145 136.103 L546.136 65.238 L620.134 65.511 L692.057 135.291 L621.325 205.698 L548.364 207.117 L478.566 135.07" stroke="none" stroke-width="0" fill="rgb(206, 147, 216)"/><path d="M477.651 136.517 M477.02 136.826 C495.668 115.52, 515.301 100.168, 547.674 67.187 M546.282 67.696 C576.969 66.568, 603.163 66.408, 619.725 67.858 M618.878 65.854 C637.377 83.416, 654.007 97.241, 691.304 136.092 M691.616 135.779 C669.034 159.794, 643.93 181.447, 622.194 205.233 M621.403 204.112 C601.707 207.072, 582.308 206.251, 546.28 204.59 M546.809 207.653 C521.141 178.682, 495.813 154.389, 476.526 136.786 M477.608 135.982 C477.608 135.982, 477.608 135.982, 477.608 135.982" stroke="rgb(102, 56, 0)" stroke-width="1.8" fill="none"/></g><g clip-path="url(#ygc127_7_0)"><g class="text-container" transform="matrix(1.8, 0, 0, 1.8, 583.9, 123.382)"><text font-family="'Arial'" font-size="12px" font-style="normal" font-weight="normal" text-decoration="none" text-anchor="middle" fill="rgb(0, 0, 0)" fill-opacity="1" dy="0.9166666666666666em" transform="" data-sketchy-clip-path="ygc127_7_0" style="font-style: normal;font-weight: 400;font-size: 12px;font-family: Comic Sans MS, cursive;" stroke="none" stroke-width="1px" dominant-baseline="auto">View Catalog</text></g></g><g clip-path="url(#ygc127_7_0)"><path d="M519.758 257.399 L651.599 254.44 L648.792 339.243 L516.948 341.821 L517.228 254.483" stroke="none" stroke-width="0" fill="rgb(206, 147, 216)"/><path d="M516.444 255.199 M517.832 254.137 C570.579 254.892, 621.482 255.938, 649.371 256.284 M650.508 255.402 C647.256 288.058, 647.931 315.514, 651.307 341.95 M648.488 342.065 C604.315 341.358, 562.99 342.116, 517.785 339.016 M517.215 340.832 C518.245 310.749, 518.839 279.086, 520.062 253.582" stroke="rgb(102, 56, 0)" stroke-width="1.8" fill="none"/></g><g clip-path="url(#ygc127_7_0)"><g class="text-container" transform="matrix(1.8, 0, 0, 1.8, 583.9, 269.182)"><text font-family="'Arial'" font-size="12px" font-style="normal" font-weight="normal" text-decoration="none" text-anchor="middle" fill="rgb(0, 0, 0)" fill-opacity="1" transform="" data-sketchy-clip-path="ygc127_7_0" style="font-style: normal;font-weight: 400;font-size: 12px;font-family: Comic Sans MS, cursive;" stroke="none" stroke-width="1px" dominant-baseline="auto"><tspan dy="0.9166666666666666em" x="0" data-sketchy-clip-path="ygc127_7_0" stroke="none" stroke-width="1px" fill="rgb(0, 0, 0)" text-anchor="middle" dominant-baseline="auto">Adapter</tspan><tspan dy="1.5em" x="0" data-sketchy-clip-path="ygc127_7_0" stroke="none" stroke-width="1px" fill="rgb(0, 0, 0)" text-anchor="middle" dominant-baseline="auto">(feed)</tspan></text></g></g><g clip-path="url(#ygc127_7_0)"><path d="M947.905 697.928 L1025.705 621.343 L1101.555 623.601 L1176.611 698.35 L1103.639 774.426 L1025.739 775.004 L949.95 698.416" stroke="none" stroke-width="0" fill="rgb(206, 147, 216)"/><path d="M948.34 698.983 M948.902 699.11 C968.844 674.286, 992.189 653.685, 1025.674 621.71 M947.236 698.124 C969.349 675.77, 992.361 654.013, 1022.888 623.055 M1022.622 620.792 C1046.061 623.616, 1071.334 624.1, 1101.641 621.466 M1024.566 621.538 C1042.167 621.467, 1059.281 620.922, 1103.323 621.963 M1103.578 623.483 C1128.615 647.131, 1151.681 671.481, 1179.396 697.985 M1102.118 622.975 C1124.961 644.622, 1145.778 665.482, 1177.095 698.232 M1178.332 696.426 C1154.659 719.925, 1131.939 743.214, 1103.612 775.146 M1178.498 697.2 C1159.546 715.087, 1143.383 733.903, 1101.437 773.8 M1100.625 771.693 C1086.305 770.913, 1069.464 771.769, 1022.053 772.509 M1102.925 772.567 C1085.617 774.032, 1067.619 773.615, 1022.802 774.134 M1023.39 774.554 C1001.903 747.74, 973.817 727.063, 946.807 697.864 M1024.407 772.654 C995.268 744.595, 965.714 716.608, 947.451 696.983 M948.175 697.947 C948.175 697.947, 948.175 697.947, 948.175 697.947 M948.175 697.947 C948.175 697.947, 948.175 697.947, 948.175 697.947" stroke="rgb(102, 56, 0)" stroke-width="1.8" fill="none"/></g><g clip-path="url(#ygc127_7_0)"><g class="text-container" transform="matrix(1.8, 0, 0, 1.8, 1063.06, 685.347)"><text font-family="'Arial'" font-size="12px" font-style="normal" font-weight="normal" text-decoration="none" text-anchor="middle" fill="rgb(0, 0, 0)" fill-opacity="1" dy="0.9166666666666666em" transform="" data-sketchy-clip-path="ygc127_7_0" style="font-style: normal;font-weight: 400;font-size: 12px;font-family: Comic Sans MS, cursive;" stroke="none" stroke-width="1px" dominant-baseline="auto">Step Catalog</text></g></g><g clip-path="url(#ygc127_7_0)"><path d="M948.514 711.189 L1025.195 637.799 L1102.059 634.477 L1176.72 713.161 L1101.021 787.638 L1025.656 787.227 L949.065 710.748" stroke="none" stroke-width="0" fill="rgb(206, 147, 216)"/><path d="M946.903 712.181 M949.9 712.901 C976.248 683.231, 1002.423 656.352, 1022.044 634.528 M1022.901 636.882 C1042.216 636.534, 1056.379 636.923, 1103.414 637.37 M1102.977 635.19 C1123.031 658.736, 1144.405 679.015, 1179.61 713.747 M1177.657 710.641 C1149.321 740.918, 1120.677 772.118, 1103.549 787.228 M1102.371 786.216 C1084.568 786.965, 1065.352 789.337, 1024.338 789.019 M1022.146 788.093 C997.16 761.868, 969.749 734.853, 946.183 711.291 M948.175 711.982 C948.175 711.982, 948.175 711.982, 948.175 711.982" stroke="rgb(102, 56, 0)" stroke-width="1.8" fill="none"/></g><g clip-path="url(#ygc127_7_0)"><g class="text-container" transform="matrix(1.8, 0, 0, 1.8, 1063.06, 699.382)"><text font-family="'Arial'" font-size="12px" font-style="normal" font-weight="normal" text-decoration="none" text-anchor="middle" fill="rgb(0, 0, 0)" fill-opacity="1" dy="0.9166666666666666em" transform="" data-sketchy-clip-path="ygc127_7_0" style="font-style: normal;font-weight: 400;font-size: 12px;font-family: Comic Sans MS, cursive;" stroke="none" stroke-width="1px" dominant-baseline="auto">Step Catalog</text></g></g><g clip-path="url(#ygc127_7_0)"><path d="M948.789 730.499 L1023.485 654.049 L1102.863 655.521 L1179.809 730.322 L1102.326 804.218 L1024.982 803.811 L949.255 728.592" stroke="none" stroke-width="0" fill="rgb(206, 147, 216)"/><path d="M946.436 729.893 M946.573 730.16 C975.111 702.773, 1002.01 676.322, 1024.693 653.626 M947.727 730.293 C964.15 713.842, 979.456 697.314, 1022.963 653.651 M1023.902 653.224 C1048.136 655.667, 1073.396 653.435, 1101.013 655.31 M1023.322 654.567 C1052.799 652.984, 1080.794 653.798, 1103.304 653.443 M1102.219 653.873 C1119.391 672.258, 1132.825 687.033, 1176.446 730.85 M1102.936 655.377 C1120.737 673.468, 1138.8 689.825, 1177.475 729.685 M1178.841 730.547 C1156.149 748.667, 1135.755 773.117, 1101.031 803.754 M1177.052 730.106 C1157.784 751.46, 1135.891 770.937, 1101.35 805.932 M1101.818 806.312 C1072.848 804.141, 1044.32 806.217, 1023.309 806.759 M1101.648 805.638 C1085.172 805.546, 1067.359 805.812, 1022.842 805.104 M1022.846 803.72 C1002.845 784.681, 982.243 763.714, 949.407 730.808 M1022.852 805.899 C995.331 776.72, 967.755 748.63, 948.109 729.443 M948.175 729.982 C948.175 729.982, 948.175 729.982, 948.175 729.982 M948.175 729.982 C948.175 729.982, 948.175 729.982, 948.175 729.982" stroke="rgb(102, 56, 0)" stroke-width="1.8" fill="none"/></g><g clip-path="url(#ygc127_7_0)"><g class="text-container" transform="matrix(1.8, 0, 0, 1.8, 1063.06, 717.382)"><text font-family="'Arial'" font-size="12px" font-style="normal" font-weight="normal" text-decoration="none" text-anchor="middle" fill="rgb(0, 0, 0)" fill-opacity="1" dy="0.9166666666666666em" transform="" data-sketchy-clip-path="ygc127_7_0" style="font-style: normal;font-weight: 400;font-size: 12px;font-family: Comic Sans MS, cursive;" stroke="none" stroke-width="1px" dominant-baseline="auto">Micro Frontends</text></g></g></svg>