<svg data-v-6e9b645d="" class="sketchy-canvas visible" xmlns="http://www.w3.org/2000/svg" xmlns:xlink="http://www.w3.org/1999/xlink" width="1037" height="477" stroke-linecap="round"><defs><clipPath id="ygc87_0_0"><rect x="25" y="25" width="986.4" height="426.6" transform="matrix(1, 0, 0, 1, 0, 0)"/></clipPath><clipPath id="clipPath2_ygc0__1"><path d="M-511 194 L27 194 L27 421 L-511 421 L-511 194 Z" transform="matrix(1.8, 0, 0, 1.8, 953.8, -315.2)"/></clipPath><clipPath id="clipPath2_ygc0__2"><path d="M-511 194 L27 194 L27 421 L-511 421 L-511 194 Z" transform="matrix(1.8, 0, 0, 1.8, 953.8, -315.2)"/></clipPath><clipPath id="clipPath2_ygc0__3"><path d="M-511 194 L27 194 L27 421 L-511 421 L-511 194 Z" transform="matrix(1.8, 0, 0, 1.8, 953.8, -315.2)"/></clipPath><clipPath id="clipPath2_ygc0__4"><path d="M-511 194 L27 194 L27 421 L-511 421 L-511 194 Z" transform="matrix(1.8, 0, 0, 1.8, 953.8, -315.2)"/></clipPath><clipPath id="clipPath2_ygc0__5"><path d="M-511 194 L27 194 L27 421 L-511 421 L-511 194 Z" transform="matrix(1.8, 0, 0, 1.8, 953.8, -315.2)"/></clipPath><clipPath id="clipPath2_ygc0__6"><path d="M-511 194 L27 194 L27 421 L-511 421 L-511 194 Z" transform="matrix(1.8, 0, 0, 1.8, 953.8, -315.2)"/></clipPath><clipPath id="clipPath2_ygc0__7"><path d="M-511 194 L27 194 L27 421 L-511 421 L-511 194 Z" transform="matrix(1.8, 0, 0, 1.8, 953.8, -315.2)"/></clipPath><clipPath id="clipPath2_ygc0__8"><path d="M-511 194 L27 194 L27 421 L-511 421 L-511 194 Z" transform="matrix(1.8, 0, 0, 1.8, 953.8, -315.2)"/></clipPath><clipPath id="clipPath2_ygc0__9"><path d="M-511 194 L27 194 L27 421 L-511 421 L-511 194 Z" transform="matrix(1.8, 0, 0, 1.8, 953.8, -315.2)"/></clipPath><clipPath id="clipPath2_ygc0__10"><path d="M-511 194 L27 194 L27 421 L-511 421 L-511 194 Z" transform="matrix(1.8, 0, 0, 1.8, 953.8, -315.2)"/></clipPath><clipPath id="clipPath2_ygc0__11"><path d="M-511 194 L27 194 L27 421 L-511 421 L-511 194 Z" transform="matrix(1.8, 0, 0, 1.8, 953.8, -315.2)"/></clipPath><clipPath id="clipPath2_ygc0__12"><path d="M-511 194 L27 194 L27 421 L-511 421 L-511 194 Z" transform="matrix(1.8, 0, 0, 1.8, 953.8, -315.2)"/></clipPath><clipPath id="clipPath2_ygc0__13"><path d="M-511 194 L27 194 L27 421 L-511 421 L-511 194 Z" transform="matrix(1.8, 0, 0, 1.8, 953.8, -315.2)"/></clipPath><clipPath id="clipPath2_ygc0__14"><path d="M-511 194 L27 194 L27 421 L-511 421 L-511 194 Z" transform="matrix(1.8, 0, 0, 1.8, 953.8, -315.2)"/></clipPath><clipPath id="clipPath2_ygc0__15"><path d="M-511 194 L27 194 L27 421 L-511 421 L-511 194 Z" transform="matrix(1.8, 0, 0, 1.8, 953.8, -315.2)"/></clipPath><clipPath id="clipPath2_ygc0__16"><path d="M-511 194 L27 194 L27 421 L-511 421 L-511 194 Z" transform="matrix(1.8, 0, 0, 1.8, 953.8, -315.2)"/></clipPath><clipPath id="clipPath2_ygc0__17"><path d="M-511 194 L27 194 L27 421 L-511 421 L-511 194 Z" transform="matrix(1.8, 0, 0, 1.8, 953.8, -315.2)"/></clipPath><clipPath id="clipPath2_ygc0__18"><path d="M-511 194 L27 194 L27 421 L-511 421 L-511 194 Z" transform="matrix(1.8, 0, 0, 1.8, 953.8, -315.2)"/></clipPath><clipPath id="clipPath2_ygc0__19"><path d="M-511 194 L27 194 L27 421 L-511 421 L-511 194 Z" transform="matrix(1.8, 0, 0, 1.8, 953.8, -315.2)"/></clipPath><clipPath id="clipPath2_ygc0__20"><path d="M-511 194 L27 194 L27 421 L-511 421 L-511 194 Z" transform="matrix(1.8, 0, 0, 1.8, 953.8, -315.2)"/></clipPath><clipPath id="clipPath2_ygc0__21"><path d="M-511 194 L27 194 L27 421 L-511 421 L-511 194 Z" transform="matrix(1.8, 0, 0, 1.8, 953.8, -315.2)"/></clipPath><clipPath id="clipPath2_ygc0__22"><path d="M-511 194 L27 194 L27 421 L-511 421 L-511 194 Z" transform="matrix(1.8, 0, 0, 1.8, 953.8, -315.2)"/></clipPath><clipPath id="clipPath2_ygc0__23"><path d="M-511 194 L27 194 L27 421 L-511 421 L-511 194 Z" transform="matrix(1.8, 0, 0, 1.8, 953.8, -315.2)"/></clipPath><clipPath id="clipPath2_ygc0__24"><path d="M-511 194 L27 194 L27 421 L-511 421 L-511 194 Z" transform="matrix(1.8, 0, 0, 1.8, 953.8, -315.2)"/></clipPath><clipPath id="clipPath2_ygc0__25"><path d="M-511 194 L27 194 L27 421 L-511 421 L-511 194 Z" transform="matrix(1.8, 0, 0, 1.8, 953.8, -315.2)"/></clipPath><clipPath id="clipPath2_ygc0__26"><path d="M-511 194 L27 194 L27 421 L-511 421 L-511 194 Z" transform="matrix(1.8, 0, 0, 1.8, 953.8, -315.2)"/></clipPath><clipPath id="clipPath2_ygc0__27"><path d="M-511 194 L27 194 L27 421 L-511 421 L-511 194 Z" transform="matrix(1.8, 0, 0, 1.8, 953.8, -315.2)"/></clipPath><clipPath id="clipPath2_ygc0__28"><path d="M-511 194 L27 194 L27 421 L-511 421 L-511 194 Z" transform="matrix(1.8, 0, 0, 1.8, 953.8, -315.2)"/></clipPath><clipPath id="clipPath2_ygc0__29"><path d="M-511 194 L27 194 L27 421 L-511 421 L-511 194 Z" transform="matrix(1.8, 0, 0, 1.8, 953.8, -315.2)"/></clipPath><clipPath id="clipPath2_ygc0__30"><path d="M-511 194 L27 194 L27 421 L-511 421 L-511 194 Z" transform="matrix(1.8, 0, 0, 1.8, 953.8, -315.2)"/></clipPath><clipPath id="clipPath2_ygc0__31"><path d="M-511 194 L27 194 L27 421 L-511 421 L-511 194 Z" transform="matrix(1.8, 0, 0, 1.8, 953.8, -315.2)"/></clipPath><clipPath id="clipPath2_ygc0__32"><path d="M-511 194 L27 194 L27 421 L-511 421 L-511 194 Z" transform="matrix(1.8, 0, 0, 1.8, 953.8, -315.2)"/></clipPath><clipPath id="clipPath2_ygc0__33"><path d="M-511 194 L27 194 L27 421 L-511 421 L-511 194 Z" transform="matrix(1.8, 0, 0, 1.8, 953.8, -315.2)"/></clipPath><clipPath id="clipPath2_ygc0__34"><path d="M-511 194 L27 194 L27 421 L-511 421 L-511 194 Z" transform="matrix(1.8, 0, 0, 1.8, 953.8, -315.2)"/></clipPath><clipPath id="clipPath2_ygc0__35"><path d="M-511 194 L27 194 L27 421 L-511 421 L-511 194 Z" transform="matrix(1.8, 0, 0, 1.8, 953.8, -315.2)"/></clipPath><clipPath id="clipPath2_ygc0__36"><path d="M-511 194 L27 194 L27 421 L-511 421 L-511 194 Z" transform="matrix(1.8, 0, 0, 1.8, 953.8, -315.2)"/></clipPath><clipPath id="clipPath2_ygc0__37"><path d="M-511 194 L27 194 L27 421 L-511 421 L-511 194 Z" transform="matrix(1.8, 0, 0, 1.8, 953.8, -315.2)"/></clipPath><clipPath id="clipPath2_ygc0__38"><path d="M-511 194 L27 194 L27 421 L-511 421 L-511 194 Z" transform="matrix(1.8, 0, 0, 1.8, 953.8, -315.2)"/></clipPath><clipPath id="clipPath2_ygc0__39"><path d="M-511 194 L27 194 L27 421 L-511 421 L-511 194 Z" transform="matrix(1.8, 0, 0, 1.8, 953.8, -315.2)"/></clipPath><clipPath id="clipPath2_ygc0__40"><path d="M-511 194 L27 194 L27 421 L-511 421 L-511 194 Z" transform="matrix(1.8, 0, 0, 1.8, 953.8, -315.2)"/></clipPath><clipPath id="clipPath2_ygc0__41"><path d="M-511 194 L27 194 L27 421 L-511 421 L-511 194 Z" transform="matrix(1.8, 0, 0, 1.8, 953.8, -315.2)"/></clipPath><clipPath id="clipPath2_ygc0__42"><path d="M-511 194 L27 194 L27 421 L-511 421 L-511 194 Z" transform="matrix(1.8, 0, 0, 1.8, 953.8, -315.2)"/></clipPath><clipPath id="clipPath2_ygc0__43"><path d="M-511 194 L27 194 L27 421 L-511 421 L-511 194 Z" transform="matrix(1.8, 0, 0, 1.8, 953.8, -315.2)"/></clipPath><clipPath id="clipPath2_ygc0__44"><path d="M-511 194 L27 194 L27 421 L-511 421 L-511 194 Z" transform="matrix(1.8, 0, 0, 1.8, 953.8, -315.2)"/></clipPath><clipPath id="clipPath2_ygc0__45"><path d="M-511 194 L27 194 L27 421 L-511 421 L-511 194 Z" transform="matrix(1.8, 0, 0, 1.8, 953.8, -315.2)"/></clipPath><clipPath id="clipPath2_ygc0__46"><path d="M-511 194 L27 194 L27 421 L-511 421 L-511 194 Z" transform="matrix(1.8, 0, 0, 1.8, 953.8, -315.2)"/></clipPath><clipPath id="clipPath2_ygc0__47"><path d="M-511 194 L27 194 L27 421 L-511 421 L-511 194 Z" transform="matrix(1.8, 0, 0, 1.8, 953.8, -315.2)"/></clipPath><clipPath id="clipPath2_ygc0__48"><path d="M-511 194 L27 194 L27 421 L-511 421 L-511 194 Z" transform="matrix(1.8, 0, 0, 1.8, 953.8, -315.2)"/></clipPath><clipPath id="clipPath2_ygc0__49"><path d="M-511 194 L27 194 L27 421 L-511 421 L-511 194 Z" transform="matrix(1.8, 0, 0, 1.8, 953.8, -315.2)"/></clipPath><clipPath id="clipPath2_ygc0__50"><path d="M-511 194 L27 194 L27 421 L-511 421 L-511 194 Z" transform="matrix(1.8, 0, 0, 1.8, 953.8, -315.2)"/></clipPath><clipPath id="clipPath2_ygc0__51"><path d="M-511 194 L27 194 L27 421 L-511 421 L-511 194 Z" transform="matrix(1.8, 0, 0, 1.8, 953.8, -315.2)"/></clipPath><clipPath id="clipPath2_ygc0__52"><path d="M-511 194 L27 194 L27 421 L-511 421 L-511 194 Z" transform="matrix(1.8, 0, 0, 1.8, 953.8, -315.2)"/></clipPath><clipPath id="clipPath2_ygc0__53"><path d="M-511 194 L27 194 L27 421 L-511 421 L-511 194 Z" transform="matrix(1.8, 0, 0, 1.8, 953.8, -315.2)"/></clipPath><clipPath id="clipPath2_ygc0__54"><path d="M-511 194 L27 194 L27 421 L-511 421 L-511 194 Z" transform="matrix(1.8, 0, 0, 1.8, 953.8, -315.2)"/></clipPath><clipPath id="clipPath2_ygc0__55"><path d="M-511 194 L27 194 L27 421 L-511 421 L-511 194 Z" transform="matrix(1.8, 0, 0, 1.8, 953.8, -315.2)"/></clipPath><clipPath id="clipPath2_ygc0__56"><path d="M-511 194 L27 194 L27 421 L-511 421 L-511 194 Z" transform="matrix(1.8, 0, 0, 1.8, 953.8, -315.2)"/></clipPath><clipPath id="clipPath2_ygc0__57"><path d="M-511 194 L27 194 L27 421 L-511 421 L-511 194 Z" transform="matrix(1.8, 0, 0, 1.8, 953.8, -315.2)"/></clipPath><clipPath id="clipPath2_ygc0__58"><path d="M-511 194 L27 194 L27 421 L-511 421 L-511 194 Z" transform="matrix(1.8, 0, 0, 1.8, 953.8, -315.2)"/></clipPath><clipPath id="clipPath2_ygc0__59"><path d="M-511 194 L27 194 L27 421 L-511 421 L-511 194 Z" transform="matrix(1.8, 0, 0, 1.8, 953.8, -315.2)"/></clipPath><clipPath id="clipPath2_ygc0__60"><path d="M-511 194 L27 194 L27 421 L-511 421 L-511 194 Z" transform="matrix(1.8, 0, 0, 1.8, 953.8, -315.2)"/></clipPath><clipPath id="clipPath2_ygc0__61"><path d="M-511 194 L27 194 L27 421 L-511 421 L-511 194 Z" transform="matrix(1.8, 0, 0, 1.8, 953.8, -315.2)"/></clipPath><clipPath id="clipPath2_ygc0__62"><path d="M-511 194 L27 194 L27 421 L-511 421 L-511 194 Z" transform="matrix(1.8, 0, 0, 1.8, 953.8, -315.2)"/></clipPath><clipPath id="clipPath2_ygc0__63"><path d="M-511 194 L27 194 L27 421 L-511 421 L-511 194 Z" transform="matrix(1.8, 0, 0, 1.8, 953.8, -315.2)"/></clipPath><clipPath id="clipPath2_ygc0__64"><path d="M-511 194 L27 194 L27 421 L-511 421 L-511 194 Z" transform="matrix(1.8, 0, 0, 1.8, 953.8, -315.2)"/></clipPath><clipPath id="clipPath2_ygc0__65"><path d="M-511 194 L27 194 L27 421 L-511 421 L-511 194 Z" transform="matrix(1.8, 0, 0, 1.8, 953.8, -315.2)"/></clipPath></defs><rect width="1037" height="477" fill="white"/><g><path d="M-1.345 0.193 L1035.435 -0.651 L1036.311 475.13 L-0.058 477.045" stroke="none" stroke-width="0" fill="rgb(255, 255, 255)"/><path d="M-0.765 0.798 C319.188 -1.188, 637.458 -1.296, 1036.244 -0.5 M1036.221 0.791 C1035.105 127.187, 1035.511 255.127, 1037.151 477.002 M1037.326 477.36 C740.359 474.982, 444.13 473.8, 0.44 476.749 M-0.246 476.486 C2.687 330.079, 2.121 183.666, 0.755 0.257" stroke="rgb(255, 255, 255)" stroke-width="1" fill="none"/></g><g clip-path="url(#clipPath2_ygc0__1)"><path d="M300.651 61.767 L706.711 61.977 L704.58 413.642 L300.487 415.397 L300.356 61.638" stroke="none" stroke-width="0" fill="rgb(255, 203, 229)"/><path d="M300.206 60.263 M301.478 62.371 C431.915 61.193, 563.794 61.174, 704.36 60.704 M706.542 61.841 C707.371 151.075, 706.389 241.842, 704.216 413.907 M704.771 412.963 C590.02 414.027, 473.984 415.588, 302.221 413.311 M301.858 414.263 C300.099 284.744, 299.059 156.387, 301.033 61.719" stroke="rgb(255, 203, 229)" stroke-width="1" fill="none"/></g><g clip-path="url(#clipPath2_ygc0__2)"><path d="M304.04 60.887 L304.993 59.907 L302.143 415.138 L303.21 412.668 L301.044 60.55" stroke="none" stroke-width="0" fill="rgb(255, 255, 255)"/><path d="M303.374 62.883 M302.264 61.432 C302.841 61.345, 303.273 61.473, 303.86 61.469 M302.2 61.55 C302.725 61.542, 303.132 61.435, 304.048 61.446 M304.493 61.606 C304.782 192.723, 304.18 324.026, 303.884 414.708 M303.603 61.736 C305.349 140.063, 306.071 218.051, 303.787 414.06 M303.949 413.882 C303.679 413.955, 302.992 413.793, 302.104 414.022 M303.969 413.796 C303.475 413.829, 302.767 413.866, 302.221 413.812 M302.287 414.928 C301.612 287.141, 301.45 161.037, 302.696 60.794 M301.992 413.674 C301.119 280.743, 301.268 148.232, 301.865 61.42" stroke="rgb(255, 255, 255)" stroke-width="1" fill="none"/></g><g clip-path="url(#clipPath2_ygc0__3)"><path d="M303.023 63.278 L702.297 60.034 L703.489 64.593 L305.033 61.685 L303.525 60.265" stroke="none" stroke-width="0" fill="rgb(255, 255, 255)"/><path d="M304 59.549 M303.652 61.805 C410.326 62.496, 515.274 61.78, 703.992 61.143 M703.522 61.418 C703.632 62.06, 703.556 62.8, 703.425 63.194 M702.527 62.974 C559.097 61.417, 411.976 61.636, 304.449 63.595 M304.116 63.192 C303.988 62.754, 303.834 61.89, 304.101 61.407" stroke="rgb(255, 255, 255)" stroke-width="1" fill="none"/></g><g clip-path="url(#clipPath2_ygc0__4)"><path d="M304.474 413.096 L706.132 410.352 L705.938 415.405 L305.692 413.869 L305.996 410.85" stroke="none" stroke-width="0" fill="rgb(178, 142, 160)"/><path d="M304.511 414.033 M303.599 412.782 C451.953 409.472, 599.75 411.133, 704.609 411.724 M304.242 411.712 C410.225 412.235, 516.293 412.481, 705.492 412.613 M705.311 411.926 C705.419 412.906, 705.583 413.579, 705.403 414.035 M705.486 412.065 C705.375 412.64, 705.393 413.373, 705.417 413.918 M705.629 414.607 C548.233 414.683, 392.873 414.045, 305.022 414.302 M705.34 414.313 C582.26 412.718, 458.567 411.982, 304.127 414.353 M303.9 413.995 C304.124 413.588, 304.078 413.184, 304.171 411.896 M304.024 413.859 C303.928 413.263, 303.961 412.621, 304.05 412.141" stroke="rgb(178, 142, 160)" stroke-width="1" fill="none"/></g><g clip-path="url(#clipPath2_ygc0__5)"><path d="M704.773 60.24 L705.782 61.586 L703.537 410.565 L705.494 413.33 L704.624 63.417" stroke="none" stroke-width="0" fill="rgb(178, 142, 160)"/><path d="M701.928 60.164 M703.504 61.322 C704.01 61.552, 704.478 61.637, 705.248 61.343 M705.595 60.2 C707.337 195.094, 706.67 327.981, 706.188 411.331 M705.27 412.199 C705.049 412.166, 704.635 412.077, 703.587 412.107 M703.965 410.77 C706.206 271.418, 705.506 132.925, 704.515 61.068" stroke="rgb(178, 142, 160)" stroke-width="1" fill="none"/></g><g clip-path="url(#clipPath2_ygc0__6)"><g class="text-container" transform="matrix(1.8, 0, 0, 1.8, 953.8, -315.2)"><text x="-356" xml:space="preserve" y="226.4116" clip-path="url(#clipPath2_ygc0_)" stroke="none" data-sketchy-clip-path="clipPath2_ygc0__6" style="font-style: normal;font-weight: 700;font-size: 12px;font-family: Comic Sans MS, cursive;" stroke-width="1px" fill="rgb(0, 0, 0)" text-anchor="start" dominant-baseline="auto">Backend</text></g></g><g clip-path="url(#clipPath2_ygc0__7)"><path d="M348.214 275.653 L550.505 276.181 L551.88 282.557 L552.562 329.872 L546.911 332.178 L346.351 330.34 L339.64 326.127 L341.35 284.525 L341.435 278.143 L348.203 277.757" stroke="none" stroke-width="0" fill="rgb(254, 194, 161)"/><path d="M348.1 275.802 M348.1 275.802 C422.79 277.015, 495.026 275.862, 546.46 275.802 M546.46 275.802 C549.546 277.189, 552.065 281.097, 553.66 283.002 M553.66 283.002 C554.479 293.141, 553.737 300.335, 553.66 325.362 M553.66 325.362 C554.259 329.122, 550.055 333.988, 546.46 332.562 M546.46 332.562 C496.021 333.119, 442.446 333.578, 348.1 332.562 M348.1 332.562 C345.695 331.07, 339.636 327.478, 340.9 325.362 M340.9 325.362 C339.49 314.346, 342.416 302.943, 340.9 283.002 M340.9 283.002 C342.804 277.912, 345.378 274.068, 348.1 275.802 M348.1 275.802 C348.1 275.802, 348.1 275.802, 348.1 275.802" stroke="rgb(254, 194, 161)" stroke-width="1" fill="none"/></g><g clip-path="url(#clipPath2_ygc0__8)"><path d="M348.1 275.802 M348.1 275.802 C392.597 276.653, 438.023 277.349, 546.46 275.802 M546.46 275.802 C552.322 274.058, 555.191 280.35, 553.66 283.002 M553.66 283.002 C553.108 292.739, 553.371 302.109, 553.66 325.362 M553.66 325.362 C554.133 329.941, 549.379 332.372, 546.46 332.562 M546.46 332.562 C468.876 332.995, 393.079 332.403, 348.1 332.562 M348.1 332.562 C345.351 333.682, 341.976 328.45, 340.9 325.362 M340.9 325.362 C342.662 311.187, 341.848 300.779, 340.9 283.002 M340.9 283.002 C339.506 278.021, 344.749 277.482, 348.1 275.802 M348.1 275.802 C348.1 275.802, 348.1 275.802, 348.1 275.802" stroke="rgb(0, 0, 0)" stroke-width="1.8" fill="none"/></g><g clip-path="url(#clipPath2_ygc0__9)"><g class="text-container" transform="matrix(1.8, 0, 0, 1.8, 953.8, -315.2)"><text x="-305.2906" font-size="8px" y="346.8708" clip-path="url(#clipPath2_ygc0_)" font-family="sans-serif" stroke="none" xml:space="preserve" data-sketchy-clip-path="clipPath2_ygc0__9" style="font-style: normal;font-weight: 400;font-size: 8px;font-family: Comic Sans MS, cursive;" stroke-width="1px" fill="rgb(0, 0, 0)" text-anchor="start" dominant-baseline="auto">StepService</text></g></g><g clip-path="url(#clipPath2_ygc0__10)"><path d="M326.5 112.191 M326.5 112.191 C408.733 113.116, 491.102 112.561, 562.66 112.191 M562.66 112.191 C566.951 111.45, 568.118 114.436, 569.86 119.391 M569.86 119.391 C570.626 194.79, 570.644 273.172, 569.86 387.94 M569.86 387.94 C569.571 390.329, 565.115 394.961, 562.66 395.14 M562.66 395.14 C484.337 394.291, 410.266 395.494, 326.5 395.14 M326.5 395.14 C323.798 394.648, 317.668 391.402, 319.3 387.94 M319.3 387.94 C321.104 316.884, 320.302 247.051, 319.3 119.391 M319.3 119.391 C320.44 116.864, 322.821 113.476, 326.5 112.191 M326.5 112.191 C326.5 112.191, 326.5 112.191, 326.5 112.191" stroke="rgb(0, 0, 0)" stroke-width="1.8" fill="none"/></g><g clip-path="url(#clipPath2_ygc0__11)"><g class="text-container" transform="matrix(1.8, 0, 0, 1.8, 953.8, -315.2)"><text x="-308.2008" xml:space="preserve" y="254.5783" clip-path="url(#clipPath2_ygc0_)" font-family="sans-serif" stroke="none" data-sketchy-clip-path="clipPath2_ygc0__11" style="font-style: normal;font-weight: 400;font-size: 12px;font-family: Comic Sans MS, cursive;" stroke-width="1px" fill="rgb(0, 0, 0)" text-anchor="start" dominant-baseline="auto">Services</text></g></g><g clip-path="url(#clipPath2_ygc0__12)"><path d="M350.026 175.721 L548.161 179.934 L552.7 185.809 L553.987 231.116 L547.189 235.893 L343.76 232.21 L339.63 226.29 L339.221 184.64 L342.838 179.027 L346.355 177.205" stroke="none" stroke-width="0" fill="rgb(254, 194, 161)"/><path d="M348.1 177.633 M348.1 177.633 C392.519 178.798, 437.802 176.726, 546.46 177.633 M546.46 177.633 C550.004 176.953, 551.788 179.973, 553.66 184.833 M553.66 184.833 C552.301 197.118, 555.145 209.861, 553.66 227.193 M553.66 227.193 C554.585 232.036, 551.531 232.713, 546.46 234.393 M546.46 234.393 C495.748 233.038, 447.73 233.498, 348.1 234.393 M348.1 234.393 C343.308 235.207, 340.101 230.667, 340.9 227.193 M340.9 227.193 C340.083 216.533, 341.621 200.555, 340.9 184.833 M340.9 184.833 C339.818 180.834, 345.034 175.657, 348.1 177.633 M348.1 177.633 C348.1 177.633, 348.1 177.633, 348.1 177.633" stroke="rgb(254, 194, 161)" stroke-width="1" fill="none"/></g><g clip-path="url(#clipPath2_ygc0__13)"><path d="M348.1 177.633 M348.1 177.633 C425.506 177.01, 506.934 180.482, 546.46 177.633 M348.1 177.633 C408.748 179.853, 467.802 179.619, 546.46 177.633 M546.46 177.633 C551.574 176.69, 551.666 180.275, 553.66 184.833 M546.46 177.633 C548.3 179.412, 552.952 183.897, 553.66 184.833 M553.66 184.833 C554.024 197.162, 555.925 206.361, 553.66 227.193 M553.66 184.833 C553.668 200.819, 554.618 217.225, 553.66 227.193 M553.66 227.193 C552.749 231.83, 550.81 232.409, 546.46 234.393 M553.66 227.193 C555.319 230.217, 551.397 235.848, 546.46 234.393 M546.46 234.393 C498.535 233.924, 456.086 236.636, 348.1 234.393 M546.46 234.393 C486.569 233.906, 426.775 234.321, 348.1 234.393 M348.1 234.393 C345.762 235.693, 338.923 229.499, 340.9 227.193 M348.1 234.393 C345.224 232.948, 340.438 231.374, 340.9 227.193 M340.9 227.193 C342.658 211.527, 340.553 198.295, 340.9 184.833 M340.9 227.193 C341.308 214.131, 340.762 201.037, 340.9 184.833 M340.9 184.833 C341.589 180.414, 344.861 179.437, 348.1 177.633 M340.9 184.833 C340.358 183.823, 343.714 179.831, 348.1 177.633 M348.1 177.633 C348.1 177.633, 348.1 177.633, 348.1 177.633 M348.1 177.633 C348.1 177.633, 348.1 177.633, 348.1 177.633" stroke="rgb(0, 0, 0)" stroke-width="1.8" fill="none"/></g><g clip-path="url(#clipPath2_ygc0__14)"><g class="text-container" transform="matrix(1.8, 0, 0, 1.8, 953.8, -315.2)"><text x="-336.2818" xml:space="preserve" y="293.7169" clip-path="url(#clipPath2_ygc0_)" font-family="sans-serif" stroke="none" data-sketchy-clip-path="clipPath2_ygc0__14" style="font-style: normal;font-weight: 400;font-size: 12px;font-family: Comic Sans MS, cursive;" stroke-width="1px" fill="rgb(0, 0, 0)" text-anchor="start" dominant-baseline="auto">StepParserService</text></g></g><g clip-path="url(#clipPath2_ygc0__15)"><path d="M348.251 183.329 L551.146 183.391 L551.712 189.253 L553.882 234.537 L545.398 239.414 L344.804 238.839 L340.705 233.977 L339.708 189.164 L343.886 185.477 L348.77 185.345" stroke="none" stroke-width="0" fill="rgb(254, 194, 161)"/><path d="M348.1 183.598 M348.1 183.598 C406.208 181.818, 459.648 183.977, 546.46 183.598 M546.46 183.598 C550.809 181.704, 552.746 187.655, 553.66 190.798 M553.66 190.798 C551.672 208.524, 551.753 223.66, 553.66 233.158 M553.66 233.158 C555.398 238.517, 549.997 242.152, 546.46 240.358 M546.46 240.358 C476.436 240.235, 408.659 236.889, 348.1 240.358 M348.1 240.358 C342.865 241.415, 339.311 235.134, 340.9 233.158 M340.9 233.158 C340.795 221.437, 342.12 213.36, 340.9 190.798 M340.9 190.798 C340.938 186.773, 344.634 182.815, 348.1 183.598 M348.1 183.598 C348.1 183.598, 348.1 183.598, 348.1 183.598" stroke="rgb(254, 194, 161)" stroke-width="1" fill="none"/></g><g clip-path="url(#clipPath2_ygc0__16)"><path d="M348.1 183.598 M348.1 183.598 C414.257 184.449, 476.77 183.858, 546.46 183.598 M546.46 183.598 C549.589 184.972, 553.235 187.548, 553.66 190.798 M553.66 190.798 C552.002 205.686, 555.521 218.823, 553.66 233.158 M553.66 233.158 C553.638 238.274, 550.195 239.785, 546.46 240.358 M546.46 240.358 C489.332 240.925, 427.654 241.976, 348.1 240.358 M348.1 240.358 C343.541 239.648, 340.511 236.527, 340.9 233.158 M340.9 233.158 C342.646 217.806, 339.731 203.976, 340.9 190.798 M340.9 190.798 C340.594 185.974, 345.099 182.304, 348.1 183.598 M348.1 183.598 C348.1 183.598, 348.1 183.598, 348.1 183.598" stroke="rgb(0, 0, 0)" stroke-width="1.8" fill="none"/></g><g clip-path="url(#clipPath2_ygc0__17)"><g class="text-container" transform="matrix(1.8, 0, 0, 1.8, 953.8, -315.2)"><text x="-336.2818" xml:space="preserve" y="297.0307" clip-path="url(#clipPath2_ygc0_)" font-family="sans-serif" stroke="none" data-sketchy-clip-path="clipPath2_ygc0__17" style="font-style: normal;font-weight: 400;font-size: 12px;font-family: Comic Sans MS, cursive;" stroke-width="1px" fill="rgb(0, 0, 0)" text-anchor="start" dominant-baseline="auto">StepParserService</text></g></g><g clip-path="url(#clipPath2_ygc0__18)"><path d="M346.158 190.281 L550.842 192.549 L553.033 197.484 L552.678 243.807 L546.875 245.87 L344.79 245.846 L340.292 239.238 L339.812 199.016 L341.878 192.456 L347.958 189.04" stroke="none" stroke-width="0" fill="rgb(254, 224, 204)"/><path d="M348.1 189.903 M348.1 189.903 C407.296 187.798, 468.341 187.33, 546.46 189.903 M546.46 189.903 C550.97 190.22, 554.065 194.867, 553.66 197.103 M553.66 197.103 C551.95 209.704, 554.746 223.627, 553.66 239.463 M553.66 239.463 C552.317 242.721, 549.45 244.678, 546.46 246.663 M546.46 246.663 C474.009 244.8, 402.733 243.706, 348.1 246.663 M348.1 246.663 C342.264 247.017, 341.915 243.119, 340.9 239.463 M340.9 239.463 C339.447 228.366, 341.225 218.722, 340.9 197.103 M340.9 197.103 C341.996 192.679, 344.27 191.134, 348.1 189.903 M348.1 189.903 C348.1 189.903, 348.1 189.903, 348.1 189.903" stroke="rgb(254, 224, 204)" stroke-width="1" fill="none"/></g><g clip-path="url(#clipPath2_ygc0__19)"><path d="M348.1 189.903 M348.1 189.903 C406.558 187.875, 464.182 189.059, 546.46 189.903 M546.46 189.903 C550.412 191.272, 553.895 195.559, 553.66 197.103 M553.66 197.103 C554.85 206.707, 553.635 216.587, 553.66 239.463 M553.66 239.463 C555.394 242.032, 549.609 245.97, 546.46 246.663 M546.46 246.663 C496.405 246.474, 449.331 247.629, 348.1 246.663 M348.1 246.663 C344.55 245.118, 339.834 241.352, 340.9 239.463 M340.9 239.463 C339.277 223.76, 339.368 205.327, 340.9 197.103 M340.9 197.103 C342.674 191.987, 343.484 191.24, 348.1 189.903 M348.1 189.903 C348.1 189.903, 348.1 189.903, 348.1 189.903" stroke="rgb(0, 0, 0)" stroke-width="1.8" fill="none"/></g><g clip-path="url(#clipPath2_ygc0__20)"><g class="text-container" transform="matrix(1.8, 0, 0, 1.8, 953.8, -315.2)"><text x="-320.65" font-size="8px" y="299.1488" clip-path="url(#clipPath2_ygc0_)" font-family="sans-serif" stroke="none" xml:space="preserve" data-sketchy-clip-path="clipPath2_ygc0__20" style="font-style: normal;font-weight: 400;font-size: 8px;font-family: Comic Sans MS, cursive;" stroke-width="1px" fill="rgb(0, 0, 0)" text-anchor="start" dominant-baseline="auto">DeploymentService</text></g></g><g clip-path="url(#clipPath2_ygc0__21)"><path d="M349.258 289.381 L549.701 287.219 L554.21 294.719 L553.217 340.143 L544.538 343.608 L346.157 343.593 L341.263 337.969 L342.892 294.783 L341.408 290.48 L349.709 288.927" stroke="none" stroke-width="0" fill="rgb(254, 194, 161)"/><path d="M348.1 288.393 M348.1 288.393 C418.835 289.029, 491.095 291.055, 546.46 288.393 M546.46 288.393 C552.217 290.085, 552.397 291.23, 553.66 295.593 M553.66 295.593 C553.197 313.149, 554.899 327.16, 553.66 337.953 M553.66 337.953 C554.346 342.47, 547.999 345.243, 546.46 345.153 M546.46 345.153 C475.631 347.946, 402.295 346.271, 348.1 345.153 M348.1 345.153 C345.661 344.955, 342.51 341.742, 340.9 337.953 M340.9 337.953 C339.39 327.341, 341.134 316.482, 340.9 295.593 M340.9 295.593 C339.543 291.759, 344.465 286.519, 348.1 288.393 M348.1 288.393 C348.1 288.393, 348.1 288.393, 348.1 288.393" stroke="rgb(254, 194, 161)" stroke-width="1" fill="none"/></g><g clip-path="url(#clipPath2_ygc0__22)"><path d="M348.1 288.393 M348.1 288.393 C403.535 288.358, 461.648 289.585, 546.46 288.393 M348.1 288.393 C402.742 290.483, 456.579 290.313, 546.46 288.393 M546.46 288.393 C551.198 290.115, 554.42 291.373, 553.66 295.593 M546.46 288.393 C550.48 288.764, 554.317 291.788, 553.66 295.593 M553.66 295.593 C554.439 307.172, 551.788 316.554, 553.66 337.953 M553.66 295.593 C554.817 306.588, 553.993 315.666, 553.66 337.953 M553.66 337.953 C554.756 342.187, 548.839 345.486, 546.46 345.153 M553.66 337.953 C551.441 342.58, 550.323 347.351, 546.46 345.153 M546.46 345.153 C483.587 345.138, 424.098 344.564, 348.1 345.153 M546.46 345.153 C506.507 344.935, 466.877 344.53, 348.1 345.153 M348.1 345.153 C342.637 344.906, 340.975 342.609, 340.9 337.953 M348.1 345.153 C345.451 345.123, 340.813 342.241, 340.9 337.953 M340.9 337.953 C342.208 324.201, 339.871 308.84, 340.9 295.593 M340.9 337.953 C341.24 329.098, 340.36 318.946, 340.9 295.593 M340.9 295.593 C341.098 291.576, 345.99 288.012, 348.1 288.393 M340.9 295.593 C341.905 291.33, 346.404 287.436, 348.1 288.393 M348.1 288.393 C348.1 288.393, 348.1 288.393, 348.1 288.393 M348.1 288.393 C348.1 288.393, 348.1 288.393, 348.1 288.393" stroke="rgb(0, 0, 0)" stroke-width="1.8" fill="none"/></g><g clip-path="url(#clipPath2_ygc0__23)"><g class="text-container" transform="matrix(1.8, 0, 0, 1.8, 953.8, -315.2)"><text x="-305.2906" font-size="8px" y="353.8655" clip-path="url(#clipPath2_ygc0_)" font-family="sans-serif" stroke="none" xml:space="preserve" data-sketchy-clip-path="clipPath2_ygc0__23" style="font-style: normal;font-weight: 400;font-size: 8px;font-family: Comic Sans MS, cursive;" stroke-width="1px" fill="rgb(0, 0, 0)" text-anchor="start" dominant-baseline="auto">StepService</text></g></g><g clip-path="url(#clipPath2_ygc0__24)"><path d="M347.069 289.058 L550.238 288.289 L551.903 297.462 L551.189 342.12 L545.539 346.787 L347.2 346.167 L342.864 336.705 L342.367 296.645 L342.17 290.241 L349.132 287.2" stroke="none" stroke-width="0" fill="rgb(254, 194, 161)"/><path d="M348.1 288.393 M348.1 288.393 C411.826 286.957, 475.263 288.205, 546.46 288.393 M546.46 288.393 C551.71 289.313, 555.238 293.349, 553.66 295.593 M553.66 295.593 C555.932 310.248, 554.5 323.521, 553.66 337.953 M553.66 337.953 C552.462 343.404, 548.105 344.928, 546.46 345.153 M546.46 345.153 C469.637 345.273, 395.766 342.154, 348.1 345.153 M348.1 345.153 C345.099 347.058, 339.873 341.852, 340.9 337.953 M340.9 337.953 C342.973 328.699, 342.388 316.307, 340.9 295.593 M340.9 295.593 C339.317 291.739, 343.148 289.341, 348.1 288.393 M348.1 288.393 C348.1 288.393, 348.1 288.393, 348.1 288.393" stroke="rgb(254, 194, 161)" stroke-width="1" fill="none"/></g><g clip-path="url(#clipPath2_ygc0__25)"><path d="M348.1 288.393 M348.1 288.393 C410.594 289.3, 473.174 288.926, 546.46 288.393 M546.46 288.393 C552.392 288.241, 554.212 291.185, 553.66 295.593 M553.66 295.593 C552.457 309.27, 551.654 325.523, 553.66 337.953 M553.66 337.953 C555.138 340.57, 551.183 344.753, 546.46 345.153 M546.46 345.153 C470.628 345.767, 390.65 344.213, 348.1 345.153 M348.1 345.153 C345.703 343.984, 342.783 342.241, 340.9 337.953 M340.9 337.953 C342.239 324.096, 340.148 313.052, 340.9 295.593 M340.9 295.593 C340.972 293.816, 346.055 288.965, 348.1 288.393 M348.1 288.393 C348.1 288.393, 348.1 288.393, 348.1 288.393" stroke="rgb(0, 0, 0)" stroke-width="1.8" fill="none"/></g><g clip-path="url(#clipPath2_ygc0__26)"><g class="text-container" transform="matrix(1.8, 0, 0, 1.8, 953.8, -315.2)"><text x="-305.2906" font-size="8px" y="353.8655" clip-path="url(#clipPath2_ygc0_)" font-family="sans-serif" stroke="none" xml:space="preserve" data-sketchy-clip-path="clipPath2_ygc0__26" style="font-style: normal;font-weight: 400;font-size: 8px;font-family: Comic Sans MS, cursive;" stroke-width="1px" fill="rgb(0, 0, 0)" text-anchor="start" dominant-baseline="auto">StepService</text></g></g><g clip-path="url(#clipPath2_ygc0__27)"><path d="M346.326 295.683 L547.435 295.524 L552.956 301.07 L551.854 348.595 L548.172 351.844 L345.903 350.598 L339.288 345.71 L341.288 301.589 L343.97 296.829 L347.887 294.939" stroke="none" stroke-width="0" fill="rgb(254, 194, 161)"/><path d="M348.1 294.358 M348.1 294.358 C425.433 295.246, 501.458 293.636, 546.46 294.358 M546.46 294.358 C551.411 294.033, 551.798 298.719, 553.66 301.558 M553.66 301.558 C553.751 316.873, 551.626 335.125, 553.66 343.918 M553.66 343.918 C554.278 347.382, 550.117 352.309, 546.46 351.118 M546.46 351.118 C482.019 350.862, 414.985 352.47, 348.1 351.118 M348.1 351.118 C344.298 352.938, 339.332 348.546, 340.9 343.918 M340.9 343.918 C342.252 329.652, 342.51 312.657, 340.9 301.558 M340.9 301.558 C341.853 299.493, 346.153 294.303, 348.1 294.358 M348.1 294.358 C348.1 294.358, 348.1 294.358, 348.1 294.358" stroke="rgb(254, 194, 161)" stroke-width="1" fill="none"/></g><g clip-path="url(#clipPath2_ygc0__28)"><path d="M348.1 294.358 M348.1 294.358 C416.07 294.285, 485.099 294.258, 546.46 294.358 M348.1 294.358 C388.995 292.221, 429.463 292.548, 546.46 294.358 M546.46 294.358 C548.607 295.605, 551.762 298.743, 553.66 301.558 M546.46 294.358 C550.474 295.935, 552.938 299.236, 553.66 301.558 M553.66 301.558 C555.037 316.541, 553.832 330.215, 553.66 343.918 M553.66 301.558 C553.611 315.096, 554.615 331.018, 553.66 343.918 M553.66 343.918 C554.752 348.548, 551.504 349.308, 546.46 351.118 M553.66 343.918 C551.952 347.672, 550.603 352.074, 546.46 351.118 M546.46 351.118 C491.934 349.573, 433.485 350.724, 348.1 351.118 M546.46 351.118 C497.825 350.863, 451.618 351.497, 348.1 351.118 M348.1 351.118 C345.557 349.724, 341.867 348.251, 340.9 343.918 M348.1 351.118 C345.317 349.198, 341.967 346.764, 340.9 343.918 M340.9 343.918 C341.924 328.184, 341.691 311.803, 340.9 301.558 M340.9 343.918 C340.744 332.418, 341.475 320.055, 340.9 301.558 M340.9 301.558 C342.28 296.461, 346.283 292.667, 348.1 294.358 M340.9 301.558 C341.155 296.962, 343.001 293.915, 348.1 294.358 M348.1 294.358 C348.1 294.358, 348.1 294.358, 348.1 294.358 M348.1 294.358 C348.1 294.358, 348.1 294.358, 348.1 294.358" stroke="rgb(0, 0, 0)" stroke-width="1.8" fill="none"/></g><g clip-path="url(#clipPath2_ygc0__29)"><g class="text-container" transform="matrix(1.8, 0, 0, 1.8, 953.8, -315.2)"><text x="-305.2906" font-size="8px" y="357.1793" clip-path="url(#clipPath2_ygc0_)" font-family="sans-serif" stroke="none" xml:space="preserve" data-sketchy-clip-path="clipPath2_ygc0__29" style="font-style: normal;font-weight: 400;font-size: 8px;font-family: Comic Sans MS, cursive;" stroke-width="1px" fill="rgb(0, 0, 0)" text-anchor="start" dominant-baseline="auto">StepService</text></g></g><g clip-path="url(#clipPath2_ygc0__30)"><path d="M349.006 301.316 L548.597 299.768 L553.157 307.504 L550.992 354.108 L547.485 357.908 L345.492 354.797 L339.501 348.437 L339.96 306.972 L341.915 301.326 L348.087 301.065" stroke="none" stroke-width="0" fill="rgb(254, 224, 204)"/><path d="M348.1 300.663 M348.1 300.663 C414.855 302.276, 483.086 300.583, 546.46 300.663 M348.1 300.663 C412.281 300.031, 474.123 300.116, 546.46 300.663 M546.46 300.663 C550.823 302.208, 555.613 304.344, 553.66 307.863 M546.46 300.663 C549.276 300.598, 553.559 303.71, 553.66 307.863 M553.66 307.863 C555.064 314.811, 552.733 324.733, 553.66 350.223 M553.66 307.863 C554.33 319.067, 554.518 332.366, 553.66 350.223 M553.66 350.223 C552.113 355.943, 549.267 357.749, 546.46 357.423 M553.66 350.223 C552.406 354.711, 551.809 355.673, 546.46 357.423 M546.46 357.423 C487.293 355.178, 426.965 355.826, 348.1 357.423 M546.46 357.423 C483.123 355.706, 418.289 355.13, 348.1 357.423 M348.1 357.423 C343.887 357.049, 341.254 352.312, 340.9 350.223 M348.1 357.423 C346.393 357.905, 340.811 353.736, 340.9 350.223 M340.9 350.223 C340.001 339.974, 340.492 324.606, 340.9 307.863 M340.9 350.223 C341.031 339.179, 341.321 327.84, 340.9 307.863 M340.9 307.863 C342.09 304.392, 343.52 299.607, 348.1 300.663 M340.9 307.863 C340.523 304.023, 344.879 300.977, 348.1 300.663 M348.1 300.663 C348.1 300.663, 348.1 300.663, 348.1 300.663 M348.1 300.663 C348.1 300.663, 348.1 300.663, 348.1 300.663" stroke="rgb(254, 224, 204)" stroke-width="1" fill="none"/></g><g clip-path="url(#clipPath2_ygc0__31)"><path d="M348.1 300.663 M348.1 300.663 C410.883 297.819, 477.79 298.385, 546.46 300.663 M348.1 300.663 C393.09 301.341, 439.283 301.514, 546.46 300.663 M546.46 300.663 C552.101 302.073, 554.303 305.133, 553.66 307.863 M546.46 300.663 C548.544 302.363, 553.796 306.004, 553.66 307.863 M553.66 307.863 C554.038 320.098, 553.63 334.647, 553.66 350.223 M553.66 307.863 C553.485 318.828, 554.729 329.49, 553.66 350.223 M553.66 350.223 C552.76 352.257, 549.945 357.093, 546.46 357.423 M553.66 350.223 C555.709 353.618, 548.724 359.139, 546.46 357.423 M546.46 357.423 C470.783 357.149, 399.258 358.974, 348.1 357.423 M546.46 357.423 C477.121 355.086, 408.965 355.481, 348.1 357.423 M348.1 357.423 C342.706 357.657, 340.944 353.485, 340.9 350.223 M348.1 357.423 C342.022 357.929, 339.805 354.046, 340.9 350.223 M340.9 350.223 C341.134 336.545, 339.567 320.63, 340.9 307.863 M340.9 350.223 C342.009 340.221, 340.568 329.695, 340.9 307.863 M340.9 307.863 C341.304 302.708, 345.008 300.417, 348.1 300.663 M340.9 307.863 C341.546 306.899, 344.362 302.925, 348.1 300.663 M348.1 300.663 C348.1 300.663, 348.1 300.663, 348.1 300.663 M348.1 300.663 C348.1 300.663, 348.1 300.663, 348.1 300.663" stroke="rgb(0, 0, 0)" stroke-width="1.8" fill="none"/></g><g clip-path="url(#clipPath2_ygc0__32)"><g class="text-container" transform="matrix(1.8, 0, 0, 1.8, 953.8, -315.2)"><text x="-305.2906" font-size="8px" y="360.6821" clip-path="url(#clipPath2_ygc0_)" font-family="sans-serif" stroke="none" xml:space="preserve" data-sketchy-clip-path="clipPath2_ygc0__32" style="font-style: normal;font-weight: 400;font-size: 8px;font-family: Comic Sans MS, cursive;" stroke-width="1px" fill="rgb(0, 0, 0)" text-anchor="start" dominant-baseline="auto">StepService</text></g></g><g clip-path="url(#clipPath2_ygc0__33)"><path d="M577.06 112.191 M577.06 112.191 C605.719 112.9, 629.857 111.348, 682 112.191 M577.06 112.191 C617.747 112.541, 658.123 111.99, 682 112.191 M682 112.191 C686.959 112.477, 687.98 115.817, 689.2 119.391 M682 112.191 C685.146 113.347, 689.47 115.966, 689.2 119.391 M689.2 119.391 C692.614 193.019, 690.336 263.223, 689.2 387.94 M689.2 119.391 C687.3 192.549, 688.099 267.662, 689.2 387.94 M689.2 387.94 C689.826 391.812, 686.823 395.21, 682 395.14 M689.2 387.94 C689.907 392.726, 686.694 395.425, 682 395.14 M682 395.14 C648.208 394.844, 616.071 394.023, 577.06 395.14 M682 395.14 C648.793 394.54, 615.029 395.558, 577.06 395.14 M577.06 395.14 C574.663 395.379, 568.52 392.704, 569.86 387.94 M577.06 395.14 C572.209 393.217, 569.289 389.289, 569.86 387.94 M569.86 387.94 C568.765 298.598, 569.738 209.914, 569.86 119.391 M569.86 387.94 C571.787 302.835, 572.115 216.445, 569.86 119.391 M569.86 119.391 C571.137 115.205, 572.141 110.703, 577.06 112.191 M569.86 119.391 C569.369 117.177, 575.487 113.927, 577.06 112.191 M577.06 112.191 C577.06 112.191, 577.06 112.191, 577.06 112.191 M577.06 112.191 C577.06 112.191, 577.06 112.191, 577.06 112.191" stroke="rgb(0, 0, 0)" stroke-width="1.8" fill="none"/></g><g clip-path="url(#clipPath2_ygc0__34)"><g class="text-container" transform="matrix(1.8, 0, 0, 1.8, 953.8, -315.2)"><text x="-189.6422" xml:space="preserve" y="254.5783" clip-path="url(#clipPath2_ygc0_)" font-family="sans-serif" stroke="none" data-sketchy-clip-path="clipPath2_ygc0__34" style="font-style: normal;font-weight: 400;font-size: 12px;font-family: Comic Sans MS, cursive;" stroke-width="1px" fill="rgb(0, 0, 0)" text-anchor="start" dominant-baseline="auto">API</text></g></g><g clip-path="url(#clipPath2_ygc0__35)"><path d="M790.663 295.724 L972.829 294.83 L953.682 396.054 L769.387 394.538 L793.015 296.018" stroke="none" stroke-width="0" fill="rgb(255, 203, 229)"/><path d="M792.922 293.53 M790.986 292.443 C834.649 291.657, 881.468 293.035, 975.762 292.644 M972.833 292.82 C969.216 319.458, 961.471 344.855, 955.787 395.621 M952.568 394.104 C892.539 396.043, 834.259 396.921, 771.064 395.341 M770.145 396.657 C776.299 371.607, 779.978 351.95, 793.12 295.468" stroke="rgb(255, 203, 229)" stroke-width="1" fill="none"/></g><g clip-path="url(#clipPath2_ygc0__36)"><path d="M790.643 295.784 M793.206 294.601 C854.034 293.792, 917.33 291.943, 972.682 296.225 M791.881 294.252 C838.537 293.163, 886.135 292.616, 974.628 293.67 M973.91 294.096 C968.688 324.875, 963.207 354.346, 954.53 393.172 M973.502 294.42 C967.987 330.596, 960.273 369.245, 954.033 394.434 M952.787 394.227 C906.349 395.506, 855.107 397.497, 771.311 393.898 M954.65 394.762 C908.061 393.925, 863.81 394.65, 771.038 396.112 M772.162 395.973 C779.603 356.167, 786.41 315.314, 791.188 292.343 M769.93 396.136 C776.603 373.007, 780.078 348.491, 791.368 295.233" stroke="rgb(0, 0, 0)" stroke-width="1.8" fill="none"/></g><g clip-path="url(#clipPath2_ygc0__37)"><g class="text-container" transform="matrix(1.8, 0, 0, 1.8, 953.8, -315.2)"><text x="-81.5294" xml:space="preserve" y="370.7876" clip-path="url(#clipPath2_ygc0_)" font-family="sans-serif" stroke="none" data-sketchy-clip-path="clipPath2_ygc0__37" style="font-style: normal;font-weight: 400;font-size: 12px;font-family: Comic Sans MS, cursive;" stroke-width="1px" fill="rgb(0, 0, 0)" text-anchor="start" dominant-baseline="auto">source code</text></g></g><g clip-path="url(#clipPath2_ygc0__38)"><path d="M828.758 159.556 L888.6 159.924 L892.14 203.162 L835.864 205.384 L830.117 158.992" stroke="none" stroke-width="0" fill="rgb(216, 216, 255)"/><path d="M831.119 158.626 M830.423 158.142 C849.631 158.54, 868.021 158.943, 887.674 160.238 M887.639 158.122 C887.872 172.455, 888.918 182.225, 894.427 204.115 M892.828 203.064 C875.232 202.951, 856.33 201.593, 838.413 203.853 M836.829 205.003 C834.882 193.164, 833.738 181.191, 831.065 158.627" stroke="rgb(216, 216, 255)" stroke-width="1" fill="none"/></g><g clip-path="url(#clipPath2_ygc0__39)"><path d="M832.002 159.56 M828.742 158.093 C850.423 159.735, 869.962 160.976, 885.354 158.922 M829.405 157.96 C852.973 159.845, 874.315 158.288, 887.001 157.703 M888.353 158.418 C887.362 168.978, 889.362 179.584, 893.764 202.022 M887.296 157.886 C888.766 168.91, 890.225 178.148, 893.039 204.058 M894.749 204.849 C877.031 201.953, 859.145 201.559, 835.527 204.894 M893.863 202.87 C877.643 203.638, 861.137 203.304, 835.668 202.861 M836.799 203.24 C835.129 184.76, 831.755 169.302, 830.251 156.984 M835.936 202.647 C833.513 191.021, 832.774 179.274, 831.125 159.376" stroke="rgb(0, 0, 0)" stroke-width="1.8" fill="none"/></g><g clip-path="url(#clipPath2_ygc0__40)"><path d="M840.509 163.043 L896.536 165.023 L904.99 209.467 L845.673 207.516 L839.656 163.633" stroke="none" stroke-width="0" fill="rgb(216, 216, 255)"/><path d="M841.657 165.729 M841.83 163.445 C860.726 163.949, 878.025 163.978, 896.672 163.025 M899.504 165.398 C899.786 179.836, 903.01 196.134, 902.199 210.018 M903.631 208.256 C884.064 207.503, 861.685 208.679, 845.617 207.705 M848.492 210.673 C844.754 200.102, 844.265 190.081, 840.456 163.269" stroke="rgb(216, 216, 255)" stroke-width="1" fill="none"/></g><g clip-path="url(#clipPath2_ygc0__41)"><path d="M842.368 165.635 M841.929 163.568 C854.429 163.5, 863.576 161.932, 899.519 163.07 M840.666 164.427 C857.57 163.843, 875.749 163.982, 897.093 164.229 M896.182 162.491 C901.492 175.848, 902.044 188.011, 904.534 208.304 M896.871 164.275 C898.49 178.557, 902.121 192.523, 903.932 208.187 M904.986 207.76 C889.443 207.931, 873.517 209.131, 848.456 207.598 M904.934 208.806 C880.995 208.853, 860.1 209.481, 848.192 208.888 M847.234 210.697 C843.952 190.279, 842.711 174.434, 840.004 165.798 M846.839 209.94 C846.406 196.716, 845.036 183.079, 840.664 163.464" stroke="rgb(0, 0, 0)" stroke-width="1.8" fill="none"/></g><g clip-path="url(#clipPath2_ygc0__42)"><path d="M850.039 169.993 L908.63 169.247 L916.359 214.592 L858.694 212.906 L853.071 167.481" stroke="none" stroke-width="0" fill="rgb(216, 216, 255)"/><path d="M850.67 167.789 M852.94 168.766 C871.236 168.649, 894.109 167.852, 906.866 168.612 M909.64 170.879 C908.555 181.493, 913.766 190.723, 914.709 214.401 M913.05 214.841 C895.922 216.21, 878.507 215.38, 857.427 214.762 M857.207 212.836 C854.785 199.527, 853.062 184.39, 853.346 169.442" stroke="rgb(216, 216, 255)" stroke-width="1" fill="none"/></g><g clip-path="url(#clipPath2_ygc0__43)"><path d="M851.934 168.669 M850.765 171.365 C868.78 168.883, 889.714 170.113, 909.53 168.692 M909.412 169.209 C910.419 184.032, 913.794 201.522, 914 212.511 M913.016 213.438 C891.465 215.915, 871.885 216.812, 860.137 212.575 M858.068 212.491 C855.269 197.948, 852.846 181.727, 850.396 170.12" stroke="rgb(0, 0, 0)" stroke-width="1.8" fill="none"/></g><g clip-path="url(#clipPath2_ygc0__44)"><g class="text-container" transform="matrix(1.8, 0, 0, 1.8, 953.8, -315.2)"><text x="-52.0743" xml:space="preserve" y="285.8739" clip-path="url(#clipPath2_ygc0_)" font-family="sans-serif" stroke="none" data-sketchy-clip-path="clipPath2_ygc0__44" style="font-style: normal;font-weight: 400;font-size: 12px;font-family: Comic Sans MS, cursive;" stroke-width="1px" fill="rgb(0, 0, 0)" text-anchor="start" dominant-baseline="auto">step</text></g></g><g clip-path="url(#clipPath2_ygc0__45)"><path d="M62.636 273.091 L81.207 226.952 L245.853 225.085 L266.382 271.93 L246.148 319.243 L83.463 321.702 L61.502 273.603" stroke="none" stroke-width="0" fill="rgb(254, 194, 161)"/><path d="M63.1 272.262 M60.128 271.671 C68.333 254.89, 76.309 239.363, 80.338 224.7 M81.001 226.071 C126.833 225.614, 168.616 224.658, 246.028 228.057 M246.6 224.811 C250.481 238.384, 254.183 248.877, 266.377 274.424 M265.269 272.224 C260.169 287.381, 252.89 298.054, 245.688 321.568 M246.583 319.281 C192.538 320.235, 144.232 318.53, 83.99 320.976 M82.338 318.412 C77.001 308.39, 73.292 298.216, 62.808 274.883" stroke="rgb(254, 194, 161)" stroke-width="1" fill="none"/></g><g clip-path="url(#clipPath2_ygc0__46)"><path d="M62.911 273.208 M60.327 272.191 C69.631 256.274, 79.062 235.117, 83.756 224.568 M82.106 225.25 C146.859 224.722, 210.401 227.368, 246.49 225.511 M244.899 225.109 C255.043 244.969, 262.06 263.483, 267.163 274.233 M263.799 271.711 C259.265 289.177, 252.059 302.029, 246.861 318.244 M246.108 321.33 C204.746 321.666, 166.859 321.719, 82.845 318.324 M82.626 321.13 C75.319 302.598, 66.473 287.124, 61.209 273.454" stroke="rgb(0, 0, 0)" stroke-width="1.8" fill="none"/></g><g clip-path="url(#clipPath2_ygc0__47)"><g class="text-container" transform="matrix(1.8, 0, 0, 1.8, 953.8, -315.2)"><text x="-452.6611" xml:space="preserve" y="324.0512" clip-path="url(#clipPath2_ygc0_)" font-family="sans-serif" stroke="none" data-sketchy-clip-path="clipPath2_ygc0__47" style="font-style: normal;font-weight: 400;font-size: 12px;font-family: Comic Sans MS, cursive;" stroke-width="1px" fill="rgb(0, 0, 0)" text-anchor="start" dominant-baseline="auto">Step</text></g></g><g clip-path="url(#clipPath2_ygc0__48)"><g class="text-container" transform="matrix(1.8, 0, 0, 1.8, 953.8, -315.2)"><text x="-462.042" xml:space="preserve" y="338.02" clip-path="url(#clipPath2_ygc0_)" font-family="sans-serif" stroke="none" data-sketchy-clip-path="clipPath2_ygc0__48" style="font-style: normal;font-weight: 400;font-size: 12px;font-family: Comic Sans MS, cursive;" stroke-width="1px" fill="rgb(0, 0, 0)" text-anchor="start" dominant-baseline="auto">Catalog</text></g></g><g clip-path="url(#clipPath2_ygc0__49)"><path d="M591.646 193.285 L669.369 192.609 L668.859 192.199 L672.57 196.877 L676.485 345.667 L673.831 350.295 L670.714 355.651 L591.351 356.155 L587.257 353.644 L586.353 348.267 L584.944 198.79 L587.519 193.34 L590.493 191.748" stroke="none" stroke-width="0" fill="rgb(254, 224, 204)"/><path d="M591.55 191.446 M591.55 191.446 C620.802 193.28, 650.243 190.629, 667.51 191.446 M667.51 191.446 C670.896 191.34, 675.966 195.267, 674.71 198.646 M674.71 198.646 C675.7 248.389, 674.225 300.681, 674.71 347.566 M674.71 347.566 C675.288 351.094, 672.677 353.164, 667.51 354.766 M667.51 354.766 C641.555 352.303, 614.245 354.495, 591.55 354.766 M591.55 354.766 C587.538 356.341, 582.777 351.428, 584.35 347.566 M584.35 347.566 C586.493 288.331, 583.812 230.951, 584.35 198.646 M584.35 198.646 C585.6 196.489, 589.047 192.108, 591.55 191.446 M591.55 191.446 C591.55 191.446, 591.55 191.446, 591.55 191.446" stroke="rgb(254, 224, 204)" stroke-width="1" fill="none"/></g><g clip-path="url(#clipPath2_ygc0__50)"><path d="M591.55 191.446 M591.55 191.446 C616.366 192.312, 639.584 190.735, 667.51 191.446 M667.51 191.446 C669.502 190.088, 676.398 194.349, 674.71 198.646 M674.71 198.646 C676.65 233.239, 676.526 270.012, 674.71 347.566 M674.71 347.566 C675 349.928, 670.892 356.436, 667.51 354.766 M667.51 354.766 C651.799 353.694, 634.683 353.504, 591.55 354.766 M591.55 354.766 C586.005 355.879, 582.74 351.075, 584.35 347.566 M584.35 347.566 C585.564 308.483, 583.628 265.747, 584.35 198.646 M584.35 198.646 C583.523 195.026, 586.768 190.005, 591.55 191.446 M591.55 191.446 C591.55 191.446, 591.55 191.446, 591.55 191.446" stroke="rgb(0, 0, 0)" stroke-width="1.8" fill="none"/></g><g clip-path="url(#clipPath2_ygc0__51)"><g class="text-container" transform="matrix(1.8, 0, 0, 1.8, 953.8, -315.2)"><text x="-204.275" font-size="8px" y="329.606" clip-path="url(#clipPath2_ygc0_)" font-family="sans-serif" stroke="none" xml:space="preserve" data-sketchy-clip-path="clipPath2_ygc0__51" style="font-style: normal;font-weight: 400;font-size: 8px;font-family: Comic Sans MS, cursive;" stroke-width="1px" fill="rgb(0, 0, 0)" text-anchor="start" dominant-baseline="auto">Integrations</text></g></g><g clip-path="url(#clipPath2_ygc0__52)"><path d="M341.814 197.402 M342.88 197.808 C341.989 191.397, 341.633 182.809, 338.999 162.507 M339.948 162.509 C290.146 165.545, 241.563 166.018, 163.186 165.747 M161.979 166.381 C164.449 175.643, 165.563 188.811, 164.111 213.314" stroke="rgb(0, 0, 0)" stroke-width="1.8" fill="none"/></g><g clip-path="url(#clipPath2_ygc0__53)"><path d="M163.228 227.118 L172.518 203.567 L162.88 210.959 L156.416 205.034 L161.961 224.865" stroke="none" stroke-width="0" fill="rgb(0, 0, 0)"/><path d="M164.301 228.183 M161.669 227.78 C166.849 220.918, 167.292 215.57, 173.455 204.274 M172.827 204.969 C170.398 206.091, 166.528 207.641, 162.944 211.139 M163.711 209.658 C160.316 207.774, 159.089 207.539, 155.566 204.111 M152.694 204.766 C158.631 212.517, 158.951 217.213, 164.541 228.025" stroke="rgb(0, 0, 0)" stroke-width="1" fill="none"/></g><g clip-path="url(#clipPath2_ygc0__54)"><path d="M191.515 148.236 L246.449 149.194 L246.127 181.081 L189.289 179.923 L190.548 149.631" stroke="none" stroke-width="0" fill="rgb(255, 255, 255)"/><path d="M188.965 149.744 M189.412 148.02 C202.643 148.836, 212.345 147.969, 248.457 147.645 M247.269 146.551 C246.952 159.985, 246.308 171.903, 247.349 178.785 M244.963 179.121 C230.44 182.149, 211.646 179.953, 191.481 181.585 M190.287 180.414 C188.243 171.331, 191.988 161.978, 188.855 150.007" stroke="rgb(255, 255, 255)" stroke-width="1" fill="none"/></g><g clip-path="url(#clipPath2_ygc0__55)"><g class="text-container" transform="matrix(1.8, 0, 0, 1.8, 953.8, -315.2)"><text x="-422.2866" xml:space="preserve" y="270.6439" clip-path="url(#clipPath2_ygc0_)" font-family="sans-serif" stroke="none" data-sketchy-clip-path="clipPath2_ygc0__55" style="font-style: normal;font-weight: 400;font-size: 12px;font-family: Comic Sans MS, cursive;" stroke-width="1px" fill="rgb(0, 0, 0)" text-anchor="start" dominant-baseline="auto">uses</text></g></g><g clip-path="url(#clipPath2_ygc0__56)"><path d="M407.882 350.494 M410.013 351.481 C408.359 358.521, 408.937 362.618, 409.056 368.813 M410.048 351.765 C409.222 355.194, 409.603 359.016, 408.898 368.792 M410.517 370.329 C344.703 369.078, 277.654 367.318, 164.55 369.049 M409.831 368.095 C341.058 367.786, 273.67 367.222, 163.228 369.405 M161.913 368.568 C162.507 356.714, 164.088 346.303, 163.462 333.806 M164.432 368.47 C163.721 358.833, 163.022 351.471, 164.161 335.001" stroke="rgb(0, 0, 0)" stroke-width="1.8" fill="none"/></g><g clip-path="url(#clipPath2_ygc0__57)"><path d="M163.932 321.815 L154.483 343.021 L162.837 334.833 L171.278 339.63 L163.273 318.079" stroke="none" stroke-width="0" fill="rgb(0, 0, 0)"/><path d="M161.719 320.884 M164.674 319.489 C161.248 323.014, 159.879 329.856, 154.492 341.49 M154.451 342.426 C157.449 340.687, 157.54 339.596, 162.647 336.524 M163.233 336.817 C166.204 337.158, 169.908 340.522, 171.844 341.913 M173.723 339.64 C170.7 333.453, 168.689 330.227, 164.485 321.051" stroke="rgb(0, 0, 0)" stroke-width="1" fill="none"/></g><g clip-path="url(#clipPath2_ygc0__58)"><path d="M184.014 352.862 L239.961 353.7 L241.599 383.214 L186.29 386.225 L185.314 353.72" stroke="none" stroke-width="0" fill="rgb(255, 255, 255)"/><path d="M186.473 352.919 M186.261 350.881 C199.75 354.466, 216.219 354.598, 243.272 353.693 M242.991 354.315 C242.869 362.897, 242.485 369.692, 241.887 384.732 M240.248 383.055 C227.296 384.367, 211.491 383.157, 186.26 385.679 M185.656 384.734 C183.303 375.037, 186.709 365.381, 185.557 353.41" stroke="rgb(255, 255, 255)" stroke-width="1" fill="none"/></g><g clip-path="url(#clipPath2_ygc0__59)"><g class="text-container" transform="matrix(1.8, 0, 0, 1.8, 953.8, -315.2)"><text x="-424.963" xml:space="preserve" y="384.1293" clip-path="url(#clipPath2_ygc0_)" font-family="sans-serif" stroke="none" data-sketchy-clip-path="clipPath2_ygc0__59" style="font-style: normal;font-weight: 400;font-size: 12px;font-family: Comic Sans MS, cursive;" stroke-width="1px" fill="rgb(0, 0, 0)" text-anchor="start" dominant-baseline="auto">uses</text></g></g><g clip-path="url(#clipPath2_ygc0__60)"><path d="M765.779 344.596 M766.222 344.672 C755.787 346.121, 743.674 343.394, 728.226 344.937 M730.37 346.605 C728.469 332.48, 730.584 318.426, 727.46 285.501 M731.147 284.652 C713.97 285.83, 698.314 284.547, 674.868 284" stroke="rgb(0, 0, 0)" stroke-width="1.8" fill="none"/></g><g clip-path="url(#clipPath2_ygc0__61)"><path d="M781.218 343.859 L760.824 337.361 L763.654 344.873 L760.153 354.672 L782.176 345.905" stroke="none" stroke-width="0" fill="rgb(0, 0, 0)"/><path d="M782.431 342.799 M780.214 345.299 C776.836 344.331, 772.733 342.043, 761.348 336.07 M760.355 336.7 C760.417 338.103, 761.51 339.539, 765.75 345.669 M765.005 345.261 C763.396 346.361, 762.406 349.421, 760.506 354.784 M759.118 354.178 C767.458 350.462, 775.652 346.523, 781.016 344.022" stroke="rgb(0, 0, 0)" stroke-width="1" fill="none"/></g><g clip-path="url(#clipPath2_ygc0__62)"><path d="M446.404 358.52 M446.999 359.39 C447.558 362.061, 445.628 367.86, 445.623 378.821 M447.326 357.806 C447.844 363.404, 446.724 367.456, 447.267 379.309 M447.201 377.082 C508.849 380.315, 570.865 378.363, 619.584 378.97 M446.658 379.637 C483.8 380.122, 519.629 379.226, 621.124 378.077 M619.589 379.176 C622.542 370.628, 620.695 365.189, 622.053 354.619 M620.439 378.271 C619.882 369.971, 620.199 361.047, 619.949 354.436" stroke="rgb(0, 0, 0)" stroke-width="1.8" fill="none" stroke-dasharray="7.2 5.4 0.5 5.4"/></g><g clip-path="url(#clipPath2_ygc0__63)"><path d="M445.555 190.751 M447.038 189.475 C445.883 178.975, 448.255 169.971, 446.539 156.017 M447.658 189.215 C446.508 176.739, 447.422 163.125, 446.405 153.687 M448.556 154.777 C509.297 155.318, 568.342 152.472, 630.421 155.496 M446.93 155.005 C488.376 153.534, 530.269 151.966, 629.528 154.019 M630.785 154.508 C628.101 167.684, 629.084 180.784, 628.101 192.521 M628.649 153.625 C630.495 165.46, 629.831 178.862, 629.286 191.665" stroke="rgb(0, 0, 0)" stroke-width="1.8" fill="none" stroke-dasharray="7.2 5.4 0.5 5.4"/></g><g clip-path="url(#clipPath2_ygc0__64)"><path d="M690.754 229.588 M687.256 228.775 C701.391 231.352, 718.752 230.306, 727.478 229.81 M688.519 229.874 C703.16 230.319, 719.067 229.291, 727.221 229.414 M729.125 231.826 C730.171 219.785, 729.006 209.261, 729 177.076 M727.911 230.258 C728.083 212.276, 728.773 194.723, 728.891 178.069 M726.697 176.912 C760.493 178.57, 792.946 181.476, 834.294 180.522 M728.724 179.025 C761.865 178.371, 796.764 180.55, 834.037 181.42" stroke="rgb(0, 0, 0)" stroke-width="1.8" fill="none"/></g><g clip-path="url(#clipPath2_ygc0__65)"><path d="M675.66 229.428 L696.9 236.917 L692.374 228.656 L695.163 220.325 L674.627 229.004" stroke="none" stroke-width="0" fill="rgb(0, 0, 0)"/><path d="M674.386 228.774 M673.405 229.82 C677.694 230.062, 685.998 233.819, 694.637 238.411 M697.135 239.729 C695.371 236.444, 692.781 232.099, 691.455 230.939 M690.194 229.298 C691.461 227.669, 692.505 225.662, 696.333 221.331 M698.346 220.187 C690.981 224.404, 687.443 224.935, 673.24 229.525" stroke="rgb(0, 0, 0)" stroke-width="1" fill="none"/></g></svg>