<svg data-v-6e9b645d="" class="sketchy-canvas visible" xmlns="http://www.w3.org/2000/svg" xmlns:xlink="http://www.w3.org/1999/xlink" width="2039" height="770" stroke-linecap="round"><defs><clipPath id="ygc78_0_0"><rect x="25" y="25" width="1989" height="720" transform="matrix(1, 0, 0, 1, 0, 0)"/></clipPath><clipPath id="clipPath2_ygc0__1"><path d="M958 -33 L1611 -33 L1611 197 L958 197 L958 -33 Z" transform="matrix(3, 0, 0, 3, -2834, 139)"/></clipPath><clipPath id="clipPath2_ygc0__2"><path d="M958 -33 L1611 -33 L1611 197 L958 197 L958 -33 Z" transform="matrix(3, 0, 0, 3, -2834, 139)"/></clipPath><clipPath id="clipPath2_ygc0__3"><path d="M958 -33 L1611 -33 L1611 197 L958 197 L958 -33 Z" transform="matrix(3, 0, 0, 3, -2834, 139)"/></clipPath><clipPath id="clipPath2_ygc0__4"><path d="M958 -33 L1611 -33 L1611 197 L958 197 L958 -33 Z" transform="matrix(3, 0, 0, 3, -2834, 139)"/></clipPath><clipPath id="clipPath2_ygc0__5"><path d="M958 -33 L1611 -33 L1611 197 L958 197 L958 -33 Z" transform="matrix(3, 0, 0, 3, -2834, 139)"/></clipPath><clipPath id="clipPath2_ygc0__6"><path d="M958 -33 L1611 -33 L1611 197 L958 197 L958 -33 Z" transform="matrix(3, 0, 0, 3, -2834, 139)"/></clipPath><clipPath id="clipPath2_ygc0__7"><path d="M958 -33 L1611 -33 L1611 197 L958 197 L958 -33 Z" transform="matrix(3, 0, 0, 3, -2834, 139)"/></clipPath><clipPath id="clipPath2_ygc0__8"><path d="M958 -33 L1611 -33 L1611 197 L958 197 L958 -33 Z" transform="matrix(3, 0, 0, 3, -2834, 139)"/></clipPath><clipPath id="clipPath2_ygc0__9"><path d="M958 -33 L1611 -33 L1611 197 L958 197 L958 -33 Z" transform="matrix(3, 0, 0, 3, -2834, 139)"/></clipPath><clipPath id="clipPath2_ygc0__10"><path d="M958 -33 L1611 -33 L1611 197 L958 197 L958 -33 Z" transform="matrix(3, 0, 0, 3, -2834, 139)"/></clipPath><clipPath id="clipPath2_ygc0__11"><path d="M958 -33 L1611 -33 L1611 197 L958 197 L958 -33 Z" transform="matrix(3, 0, 0, 3, -2834, 139)"/></clipPath><clipPath id="clipPath2_ygc0__12"><path d="M958 -33 L1611 -33 L1611 197 L958 197 L958 -33 Z" transform="matrix(3, 0, 0, 3, -2834, 139)"/></clipPath><clipPath id="clipPath2_ygc0__13"><path d="M958 -33 L1611 -33 L1611 197 L958 197 L958 -33 Z" transform="matrix(3, 0, 0, 3, -2834, 139)"/></clipPath><clipPath id="clipPath2_ygc0__14"><path d="M958 -33 L1611 -33 L1611 197 L958 197 L958 -33 Z" transform="matrix(3, 0, 0, 3, -2834, 139)"/></clipPath><clipPath id="clipPath2_ygc0__15"><path d="M958 -33 L1611 -33 L1611 197 L958 197 L958 -33 Z" transform="matrix(3, 0, 0, 3, -2834, 139)"/></clipPath><clipPath id="clipPath2_ygc0__16"><path d="M958 -33 L1611 -33 L1611 197 L958 197 L958 -33 Z" transform="matrix(3, 0, 0, 3, -2834, 139)"/></clipPath><clipPath id="clipPath2_ygc0__17"><path d="M958 -33 L1611 -33 L1611 197 L958 197 L958 -33 Z" transform="matrix(3, 0, 0, 3, -2834, 139)"/></clipPath><clipPath id="clipPath2_ygc0__18"><path d="M958 -33 L1611 -33 L1611 197 L958 197 L958 -33 Z" transform="matrix(3, 0, 0, 3, -2834, 139)"/></clipPath><clipPath id="clipPath2_ygc0__19"><path d="M958 -33 L1611 -33 L1611 197 L958 197 L958 -33 Z" transform="matrix(3, 0, 0, 3, -2834, 139)"/></clipPath><clipPath id="clipPath2_ygc0__20"><path d="M958 -33 L1611 -33 L1611 197 L958 197 L958 -33 Z" transform="matrix(3, 0, 0, 3, -2834, 139)"/></clipPath><clipPath id="clipPath2_ygc0__21"><path d="M958 -33 L1611 -33 L1611 197 L958 197 L958 -33 Z" transform="matrix(3, 0, 0, 3, -2834, 139)"/></clipPath><clipPath id="clipPath2_ygc0__22"><path d="M958 -33 L1611 -33 L1611 197 L958 197 L958 -33 Z" transform="matrix(3, 0, 0, 3, -2834, 139)"/></clipPath><clipPath id="clipPath2_ygc0__23"><path d="M958 -33 L1611 -33 L1611 197 L958 197 L958 -33 Z" transform="matrix(3, 0, 0, 3, -2834, 139)"/></clipPath><clipPath id="clipPath2_ygc0__24"><path d="M958 -33 L1611 -33 L1611 197 L958 197 L958 -33 Z" transform="matrix(3, 0, 0, 3, -2834, 139)"/></clipPath><clipPath id="clipPath2_ygc0__25"><path d="M958 -33 L1611 -33 L1611 197 L958 197 L958 -33 Z" transform="matrix(3, 0, 0, 3, -2834, 139)"/></clipPath><clipPath id="clipPath2_ygc0__26"><path d="M958 -33 L1611 -33 L1611 197 L958 197 L958 -33 Z" transform="matrix(3, 0, 0, 3, -2834, 139)"/></clipPath><clipPath id="clipPath2_ygc0__27"><path d="M958 -33 L1611 -33 L1611 197 L958 197 L958 -33 Z" transform="matrix(3, 0, 0, 3, -2834, 139)"/></clipPath><clipPath id="clipPath2_ygc0__28"><path d="M958 -33 L1611 -33 L1611 197 L958 197 L958 -33 Z" transform="matrix(3, 0, 0, 3, -2834, 139)"/></clipPath><clipPath id="clipPath2_ygc0__29"><path d="M958 -33 L1611 -33 L1611 197 L958 197 L958 -33 Z" transform="matrix(3, 0, 0, 3, -2834, 139)"/></clipPath><clipPath id="clipPath2_ygc0__30"><path d="M958 -33 L1611 -33 L1611 197 L958 197 L958 -33 Z" transform="matrix(3, 0, 0, 3, -2834, 139)"/></clipPath><clipPath id="clipPath2_ygc0__31"><path d="M958 -33 L1611 -33 L1611 197 L958 197 L958 -33 Z" transform="matrix(3, 0, 0, 3, -2834, 139)"/></clipPath><clipPath id="clipPath2_ygc0__32"><path d="M958 -33 L1611 -33 L1611 197 L958 197 L958 -33 Z" transform="matrix(3, 0, 0, 3, -2834, 139)"/></clipPath><clipPath id="clipPath2_ygc0__33"><path d="M958 -33 L1611 -33 L1611 197 L958 197 L958 -33 Z" transform="matrix(3, 0, 0, 3, -2834, 139)"/></clipPath><clipPath id="clipPath2_ygc0__34"><path d="M958 -33 L1611 -33 L1611 197 L958 197 L958 -33 Z" transform="matrix(3, 0, 0, 3, -2834, 139)"/></clipPath><clipPath id="clipPath2_ygc0__35"><path d="M958 -33 L1611 -33 L1611 197 L958 197 L958 -33 Z" transform="matrix(3, 0, 0, 3, -2834, 139)"/></clipPath><clipPath id="clipPath2_ygc0__36"><path d="M958 -33 L1611 -33 L1611 197 L958 197 L958 -33 Z" transform="matrix(3, 0, 0, 3, -2834, 139)"/></clipPath><clipPath id="clipPath2_ygc0__37"><path d="M958 -33 L1611 -33 L1611 197 L958 197 L958 -33 Z" transform="matrix(3, 0, 0, 3, -2834, 139)"/></clipPath><clipPath id="clipPath2_ygc0__38"><path d="M958 -33 L1611 -33 L1611 197 L958 197 L958 -33 Z" transform="matrix(3, 0, 0, 3, -2834, 139)"/></clipPath><clipPath id="clipPath2_ygc0__39"><path d="M958 -33 L1611 -33 L1611 197 L958 197 L958 -33 Z" transform="matrix(3, 0, 0, 3, -2834, 139)"/></clipPath><clipPath id="clipPath2_ygc0__40"><path d="M958 -33 L1611 -33 L1611 197 L958 197 L958 -33 Z" transform="matrix(3, 0, 0, 3, -2834, 139)"/></clipPath><clipPath id="clipPath2_ygc0__41"><path d="M958 -33 L1611 -33 L1611 197 L958 197 L958 -33 Z" transform="matrix(3, 0, 0, 3, -2834, 139)"/></clipPath><clipPath id="clipPath2_ygc0__42"><path d="M958 -33 L1611 -33 L1611 197 L958 197 L958 -33 Z" transform="matrix(3, 0, 0, 3, -2834, 139)"/></clipPath><clipPath id="clipPath2_ygc0__43"><path d="M958 -33 L1611 -33 L1611 197 L958 197 L958 -33 Z" transform="matrix(3, 0, 0, 3, -2834, 139)"/></clipPath><clipPath id="clipPath2_ygc0__44"><path d="M958 -33 L1611 -33 L1611 197 L958 197 L958 -33 Z" transform="matrix(3, 0, 0, 3, -2834, 139)"/></clipPath><clipPath id="clipPath2_ygc0__45"><path d="M958 -33 L1611 -33 L1611 197 L958 197 L958 -33 Z" transform="matrix(3, 0, 0, 3, -2834, 139)"/></clipPath><clipPath id="clipPath2_ygc0__46"><path d="M958 -33 L1611 -33 L1611 197 L958 197 L958 -33 Z" transform="matrix(3, 0, 0, 3, -2834, 139)"/></clipPath><clipPath id="clipPath2_ygc0__47"><path d="M958 -33 L1611 -33 L1611 197 L958 197 L958 -33 Z" transform="matrix(3, 0, 0, 3, -2834, 139)"/></clipPath><clipPath id="clipPath2_ygc0__48"><path d="M958 -33 L1611 -33 L1611 197 L958 197 L958 -33 Z" transform="matrix(3, 0, 0, 3, -2834, 139)"/></clipPath><clipPath id="clipPath2_ygc0__49"><path d="M958 -33 L1611 -33 L1611 197 L958 197 L958 -33 Z" transform="matrix(3, 0, 0, 3, -2834, 139)"/></clipPath><clipPath id="clipPath2_ygc0__50"><path d="M958 -33 L1611 -33 L1611 197 L958 197 L958 -33 Z" transform="matrix(3, 0, 0, 3, -2834, 139)"/></clipPath><clipPath id="clipPath2_ygc0__51"><path d="M958 -33 L1611 -33 L1611 197 L958 197 L958 -33 Z" transform="matrix(3, 0, 0, 3, -2834, 139)"/></clipPath><clipPath id="clipPath2_ygc0__52"><path d="M958 -33 L1611 -33 L1611 197 L958 197 L958 -33 Z" transform="matrix(3, 0, 0, 3, -2834, 139)"/></clipPath><clipPath id="clipPath2_ygc0__53"><path d="M958 -33 L1611 -33 L1611 197 L958 197 L958 -33 Z" transform="matrix(3, 0, 0, 3, -2834, 139)"/></clipPath><clipPath id="clipPath2_ygc0__54"><path d="M958 -33 L1611 -33 L1611 197 L958 197 L958 -33 Z" transform="matrix(3, 0, 0, 3, -2834, 139)"/></clipPath><clipPath id="clipPath2_ygc0__55"><path d="M958 -33 L1611 -33 L1611 197 L958 197 L958 -33 Z" transform="matrix(3, 0, 0, 3, -2834, 139)"/></clipPath><clipPath id="clipPath2_ygc0__56"><path d="M958 -33 L1611 -33 L1611 197 L958 197 L958 -33 Z" transform="matrix(3, 0, 0, 3, -2834, 139)"/></clipPath><clipPath id="clipPath2_ygc0__57"><path d="M958 -33 L1611 -33 L1611 197 L958 197 L958 -33 Z" transform="matrix(3, 0, 0, 3, -2834, 139)"/></clipPath><clipPath id="clipPath2_ygc0__58"><path d="M958 -33 L1611 -33 L1611 197 L958 197 L958 -33 Z" transform="matrix(3, 0, 0, 3, -2834, 139)"/></clipPath><clipPath id="clipPath2_ygc0__59"><path d="M958 -33 L1611 -33 L1611 197 L958 197 L958 -33 Z" transform="matrix(3, 0, 0, 3, -2834, 139)"/></clipPath><clipPath id="clipPath2_ygc0__60"><path d="M958 -33 L1611 -33 L1611 197 L958 197 L958 -33 Z" transform="matrix(3, 0, 0, 3, -2834, 139)"/></clipPath><clipPath id="clipPath2_ygc0__61"><path d="M958 -33 L1611 -33 L1611 197 L958 197 L958 -33 Z" transform="matrix(3, 0, 0, 3, -2834, 139)"/></clipPath></defs><rect width="2039" height="770" fill="white"/><g><path d="M-1.193 0.459 L2040.53 -0.7 L2040.332 770.52 L-1.218 768.844" stroke="none" stroke-width="0" fill="rgb(255, 255, 255)"/><path d="M0.23 0.499 C482.316 1.14, 964.043 1.317, 2038.546 -0.238 M2038.924 -0.662 C2041.762 281.288, 2042.287 563.972, 2038.432 770.687 M2039.079 770.03 C1224.028 762.545, 410.054 762.637, -0.598 770.78 M-0.047 769.993 C1.712 615.448, 1.196 461.227, -0.664 -0.201" stroke="rgb(255, 255, 255)" stroke-width="1" fill="none"/></g><g clip-path="url(#clipPath2_ygc0__1)"><path d="M620.304 85.003 L1294.661 88.018 L1293.204 654.725 L620.713 655.882 L619.446 86.138" stroke="none" stroke-width="0" fill="rgb(255, 203, 229)"/><path d="M621.979 87.147 M620.973 86.212 C871.979 84.961, 1124.058 83.867, 1293.504 85.845 M621.56 86.207 C868.615 86.346, 1115.243 86.077, 1293.408 86.231 M1293.545 86.278 C1292.185 245.074, 1291.366 403.261, 1293.337 655.801 M1293.046 86.561 C1293.644 234.75, 1293.593 383.025, 1293.822 656.363 M1294.138 656.617 C1094.061 654.566, 895.781 653.292, 620.844 655.873 M1293.088 656.651 C1080.059 657.91, 866.992 657.852, 621.152 656.333 M621.197 656.459 C621.761 491.92, 621.094 328.47, 621.052 86.362 M621.242 656.593 C623.454 448.222, 623.53 239.99, 621.535 85.892" stroke="rgb(255, 203, 229)" stroke-width="1" fill="none"/></g><g clip-path="url(#clipPath2_ygc0__2)"><path d="M623.059 86.099 L626.172 87.424 L625.62 655.767 L622.731 656.179 L622.923 87.88" stroke="none" stroke-width="0" fill="rgb(255, 255, 255)"/><path d="M623.203 84.394 M621.435 86.101 C622.436 86.487, 623.079 86.229, 624.508 86.419 M624.727 86.795 C623.837 213.884, 623.887 341.231, 624.372 656.906 M624.491 656.46 C623.661 656.492, 622.955 656.55, 621.373 656.364 M620.817 655.806 C618.697 463.721, 619.721 270.895, 621.468 86.889" stroke="rgb(255, 255, 255)" stroke-width="1" fill="none"/></g><g clip-path="url(#clipPath2_ygc0__3)"><path d="M623.464 86.069 L1289.533 85.084 L1291.97 88.298 L623.429 88.059 L624.669 85.116" stroke="none" stroke-width="0" fill="rgb(255, 255, 255)"/><path d="M624.63 85.439 M624.195 86.578 C796.298 84.89, 968.766 84.901, 1290.183 85.878 M624.694 86.143 C820.737 85.842, 1017.111 85.896, 1290.363 86.65 M1290.478 85.99 C1290.753 86.973, 1290.614 87.748, 1290.55 89.261 M1290.411 86.4 C1290.539 87.189, 1290.457 88.031, 1290.315 89.34 M1289.786 89.862 C1063.923 89.557, 836.977 89.966, 623.801 88.814 M1290.638 89.371 C1031.794 90.379, 774.314 89.992, 624.484 89.356 M624.286 89.095 C624.442 88.535, 624.406 87.647, 624.681 86.375 M624.462 89.307 C624.382 88.33, 624.305 87.582, 624.431 86.38" stroke="rgb(255, 255, 255)" stroke-width="1" fill="none"/></g><g clip-path="url(#clipPath2_ygc0__4)"><path d="M625.425 652.077 L1295.173 653.469 L1295.003 658.271 L624.586 655.752 L625.22 652.06" stroke="none" stroke-width="0" fill="rgb(178, 142, 160)"/><path d="M624.242 653.218 M624.166 652.965 C891.411 654.412, 1158.697 654.325, 1293.384 654.125 M1293.531 653.747 C1293.274 654.263, 1293.684 655.375, 1293.542 656.579 M1293.609 656.844 C1097.638 655.422, 902.881 655.461, 623.863 655.722 M624.206 656.755 C624.373 655.296, 624.305 654.303, 624.516 653.664" stroke="rgb(178, 142, 160)" stroke-width="1" fill="none"/></g><g clip-path="url(#clipPath2_ygc0__5)"><path d="M1292.21 87.154 L1294.16 84.548 L1294.39 654.046 L1289.035 655.319 L1291.35 86.269" stroke="none" stroke-width="0" fill="rgb(178, 142, 160)"/><path d="M1292.045 84.449 M1290.394 86.288 C1291.209 86.559, 1292.636 86.28, 1293.309 86.118 M1290.381 86.338 C1291.084 86.396, 1291.88 86.299, 1293.424 86.167 M1293.322 86.318 C1291.866 232.596, 1292.495 378.278, 1293.673 653.423 M1293.548 86.15 C1293.43 257.94, 1293.31 429.949, 1293.211 653.132 M1293.476 653.602 C1292.787 653.489, 1291.927 653.237, 1290.213 653.398 M1293.502 653.474 C1292.832 653.407, 1291.941 653.371, 1290.404 653.573 M1290.244 653.435 C1291.606 459.216, 1290.192 264.912, 1291.235 85.783 M1290.732 653.408 C1290.331 489.11, 1290.428 323.654, 1290.69 86.425" stroke="rgb(178, 142, 160)" stroke-width="1" fill="none"/></g><g clip-path="url(#clipPath2_ygc0__6)"><g class="text-container" transform="matrix(3, 0, 0, 3, -2834, 139)"><text x="1157.8125" xml:space="preserve" y="-0.4348" clip-path="url(#clipPath2_ygc0_)" stroke="none" data-sketchy-clip-path="clipPath2_ygc0__6" style="font-style: normal;font-weight: 700;font-size: 12px;font-family: Comic Sans MS, cursive;" stroke-width="1px" fill="rgb(0, 0, 0)" text-anchor="start" dominant-baseline="auto">Backend</text></g></g><g clip-path="url(#clipPath2_ygc0__7)"><path d="M661.938 170.78 M661.938 170.78 C758.956 169.819, 855.5 170.008, 1055.537 170.78 M661.938 170.78 C791.431 173.153, 921.835 172.521, 1055.537 170.78 M1055.537 170.78 C1060.661 172.018, 1067.237 178.503, 1067.537 182.78 M1055.537 170.78 C1061.526 171.114, 1067.233 178.072, 1067.537 182.78 M1067.537 182.78 C1068.464 318.801, 1069.482 457.338, 1067.537 613.28 M1067.537 182.78 C1067.898 343.111, 1067.926 502.209, 1067.537 613.28 M1067.537 613.28 C1067.095 620.418, 1061.206 624.633, 1055.537 625.28 M1067.537 613.28 C1066.974 622.002, 1059.82 625.424, 1055.537 625.28 M1055.537 625.28 C920.65 625.299, 785.745 626.626, 661.938 625.28 M1055.537 625.28 C975.355 626.183, 894.907 625.271, 661.938 625.28 M661.938 625.28 C656.901 625.545, 648.364 618.709, 649.938 613.28 M661.938 625.28 C656.974 624.308, 650.361 620.577, 649.938 613.28 M649.938 613.28 C651.274 509.156, 651.276 403.678, 649.938 182.78 M649.938 613.28 C647.393 494.879, 647.63 375.695, 649.938 182.78 M649.938 182.78 C648.828 176.069, 655.477 171.877, 661.938 170.78 M649.938 182.78 C648.677 176.793, 655.977 170.172, 661.938 170.78 M661.938 170.78 C661.938 170.78, 661.938 170.78, 661.938 170.78 M661.938 170.78 C661.938 170.78, 661.938 170.78, 661.938 170.78" stroke="rgb(0, 0, 0)" stroke-width="3" fill="none"/></g><g clip-path="url(#clipPath2_ygc0__8)"><g class="text-container" transform="matrix(3, 0, 0, 3, -2834, 139)"><text x="1205.6117" xml:space="preserve" y="27.7319" clip-path="url(#clipPath2_ygc0_)" font-weight="normal" stroke="none" data-sketchy-clip-path="clipPath2_ygc0__8" style="font-style: normal;font-weight: 400;font-size: 12px;font-family: Comic Sans MS, cursive;" stroke-width="1px" fill="rgb(0, 0, 0)" text-anchor="start" dominant-baseline="auto">Services</text></g></g><g clip-path="url(#clipPath2_ygc0__9)"><path d="M692.752 488.16 L1025.854 489.574 L1030.818 492.57 L1036.205 503.399 L1035.878 573.455 L1032.499 582.076 L1025.222 585.152 L689.375 583.344 L684.482 579.49 L680.821 572.107 L679.801 499.893 L686.847 492.113 L694.998 489.664" stroke="none" stroke-width="0" fill="rgb(254, 224, 204)"/><path d="M693.438 489.483 M693.438 489.483 C809.869 488.352, 923.982 487.692, 1024.037 489.483 M1024.037 489.483 C1031.938 489.636, 1037.907 496.516, 1036.037 501.483 M1036.037 501.483 C1036.495 520.804, 1036.103 541.806, 1036.037 572.083 M1036.037 572.083 C1036.576 579.669, 1030.117 582.539, 1024.037 584.083 M1024.037 584.083 C913.647 585.768, 802.755 584.965, 693.438 584.083 M693.438 584.083 C685.565 582.406, 681.484 579.394, 681.438 572.083 M681.438 572.083 C682.176 548.915, 682.818 525.277, 681.438 501.483 M681.438 501.483 C680.025 495.014, 689.947 487.816, 693.438 489.483 M693.438 489.483 C693.438 489.483, 693.438 489.483, 693.438 489.483" stroke="rgb(254, 224, 204)" stroke-width="1" fill="none"/></g><g clip-path="url(#clipPath2_ygc0__10)"><path d="M693.438 489.483 M693.438 489.483 C812.097 492.22, 932.757 492.272, 1024.037 489.483 M693.438 489.483 C811.454 487.77, 929.938 487.234, 1024.037 489.483 M1024.037 489.483 C1031.79 490.194, 1035.849 494.88, 1036.037 501.483 M1024.037 489.483 C1030.353 489.3, 1036.695 496.529, 1036.037 501.483 M1036.037 501.483 C1034.365 523.903, 1037.234 545.561, 1036.037 572.083 M1036.037 501.483 C1036.655 521.582, 1036.883 541.826, 1036.037 572.083 M1036.037 572.083 C1035.53 580.617, 1029.552 584.065, 1024.037 584.083 M1036.037 572.083 C1036.536 580.85, 1031.03 584.962, 1024.037 584.083 M1024.037 584.083 C912.98 586.653, 802.96 584.878, 693.438 584.083 M1024.037 584.083 C927.279 582.943, 831.566 583.187, 693.438 584.083 M693.438 584.083 C686.727 584.117, 682.056 577.043, 681.438 572.083 M693.438 584.083 C687.591 586.11, 683.179 577.685, 681.438 572.083 M681.438 572.083 C682.494 559.025, 682.669 545.534, 681.438 501.483 M681.438 572.083 C680.713 556.394, 680.978 541.485, 681.438 501.483 M681.438 501.483 C679.876 496.945, 687.966 488.105, 693.438 489.483 M681.438 501.483 C681.476 495.637, 688.383 489.397, 693.438 489.483 M693.438 489.483 C693.438 489.483, 693.438 489.483, 693.438 489.483 M693.438 489.483 C693.438 489.483, 693.438 489.483, 693.438 489.483" stroke="rgb(0, 0, 0)" stroke-width="3" fill="none"/></g><g clip-path="url(#clipPath2_ygc0__11)"><g class="text-container" transform="matrix(3, 0, 0, 3, -2834, 139)"><text x="1187.1801" font-size="8px" y="135.3638" clip-path="url(#clipPath2_ygc0_)" font-family="sans-serif" stroke="none" xml:space="preserve" data-sketchy-clip-path="clipPath2_ygc0__11" style="font-style: normal;font-weight: 400;font-size: 8px;font-family: Comic Sans MS, cursive;" stroke-width="1px" fill="rgb(0, 0, 0)" text-anchor="start" dominant-baseline="auto">ViewDefinitionService</text></g></g><g clip-path="url(#clipPath2_ygc0__12)"><path d="M693.594 265.414 L1027.239 262.616 L1032.043 265.871 L1035.025 276.193 L1033.76 348.43 L1031.289 354.105 L1022.488 359.494 L690.801 356.979 L684.553 354.25 L680.697 346.937 L680.404 274.295 L686.247 267.246 L692.398 263.749" stroke="none" stroke-width="0" fill="rgb(254, 194, 161)"/><path d="M693.438 263.78 M693.438 263.78 C764.681 261.536, 836.388 262.85, 1024.037 263.78 M1024.037 263.78 C1031.549 265.293, 1035.837 272.145, 1036.037 275.78 M1036.037 275.78 C1035.043 296.353, 1035.285 318.265, 1036.037 346.38 M1036.037 346.38 C1037.527 354.528, 1030.262 358.596, 1024.037 358.38 M1024.037 358.38 C926.455 360.475, 829.504 360.906, 693.438 358.38 M693.438 358.38 C686.407 358.386, 683.187 352.085, 681.438 346.38 M681.438 346.38 C681.774 331.116, 681.57 318.27, 681.438 275.78 M681.438 275.78 C683.129 271.912, 686.621 264.06, 693.438 263.78 M693.438 263.78 C693.438 263.78, 693.438 263.78, 693.438 263.78" stroke="rgb(254, 194, 161)" stroke-width="1" fill="none"/></g><g clip-path="url(#clipPath2_ygc0__13)"><path d="M693.438 263.78 M693.438 263.78 C759.31 264.905, 828.064 263.7, 1024.037 263.78 M693.438 263.78 C770.72 264.518, 847.904 265.337, 1024.037 263.78 M1024.037 263.78 C1030.284 262.329, 1037.761 270.014, 1036.037 275.78 M1024.037 263.78 C1029.921 265.921, 1036.434 270.906, 1036.037 275.78 M1036.037 275.78 C1036.162 299.607, 1036.267 325.82, 1036.037 346.38 M1036.037 275.78 C1035.11 297.086, 1035.382 318.398, 1036.037 346.38 M1036.037 346.38 C1035.663 353.241, 1030.984 356.807, 1024.037 358.38 M1036.037 346.38 C1035.346 353.584, 1027.733 360.374, 1024.037 358.38 M1024.037 358.38 C955.908 355.814, 890.205 355.252, 693.438 358.38 M1024.037 358.38 C934.918 358.864, 846.13 358.341, 693.438 358.38 M693.438 358.38 C687.197 357.375, 681.889 353.1, 681.438 346.38 M693.438 358.38 C686.767 356.36, 683.649 350.47, 681.438 346.38 M681.438 346.38 C679.73 332.335, 680.169 314.468, 681.438 275.78 M681.438 346.38 C681.459 326.803, 681.684 307.838, 681.438 275.78 M681.438 275.78 C680.682 272.089, 689.432 262.891, 693.438 263.78 M681.438 275.78 C681.866 271.574, 688.74 265.409, 693.438 263.78 M693.438 263.78 C693.438 263.78, 693.438 263.78, 693.438 263.78 M693.438 263.78 C693.438 263.78, 693.438 263.78, 693.438 263.78" stroke="rgb(0, 0, 0)" stroke-width="3" fill="none"/></g><g clip-path="url(#clipPath2_ygc0__14)"><path d="M693.036 269.748 L1026.249 271.233 L1030.899 275.429 L1035.973 283.266 L1034.945 354.083 L1030.53 363.291 L1024.236 366.322 L692.712 365.946 L683.24 359.911 L681.015 353.945 L679.573 280.934 L687.41 273.904 L692.368 271.281" stroke="none" stroke-width="0" fill="rgb(254, 194, 161)"/><path d="M693.438 270.287 M693.438 270.287 C792.794 272.575, 893.72 273.1, 1024.037 270.287 M1024.037 270.287 C1029.776 270.2, 1037.545 278.449, 1036.037 282.287 M1036.037 282.287 C1035.133 303.147, 1037.52 323.277, 1036.037 352.887 M1036.037 352.887 C1034.823 360.949, 1030.674 365.845, 1024.037 364.887 M1024.037 364.887 C916.385 366.968, 811.74 365.943, 693.438 364.887 M693.438 364.887 C688.284 365.023, 680.719 359.475, 681.438 352.887 M681.438 352.887 C683.039 332.924, 680.702 313.032, 681.438 282.287 M681.438 282.287 C682.373 276.956, 688.967 271.181, 693.438 270.287 M693.438 270.287 C693.438 270.287, 693.438 270.287, 693.438 270.287" stroke="rgb(254, 194, 161)" stroke-width="1" fill="none"/></g><g clip-path="url(#clipPath2_ygc0__15)"><path d="M693.438 270.287 M693.438 270.287 C766.566 269.98, 837.611 269.535, 1024.037 270.287 M1024.037 270.287 C1028.668 270.187, 1037.921 278.85, 1036.037 282.287 M1036.037 282.287 C1036.057 308.377, 1037.15 334.113, 1036.037 352.887 M1036.037 352.887 C1037.633 360.637, 1030.7 363.197, 1024.037 364.887 M1024.037 364.887 C911.966 365.239, 799.728 364.989, 693.438 364.887 M693.438 364.887 C685.774 364.338, 682.106 358.624, 681.438 352.887 M681.438 352.887 C679.634 331.625, 679.69 312.387, 681.438 282.287 M681.438 282.287 C680.15 275.423, 686.177 269.867, 693.438 270.287 M693.438 270.287 C693.438 270.287, 693.438 270.287, 693.438 270.287" stroke="rgb(0, 0, 0)" stroke-width="3" fill="none"/></g><g clip-path="url(#clipPath2_ygc0__16)"><path d="M692.514 276.645 L1024.569 276.92 L1032.513 279.94 L1037.954 290.98 L1036.646 361.21 L1032.694 369.326 L1023.174 372.497 L689.624 372.698 L684.496 366.729 L682.82 359.178 L682.011 288.352 L687.384 280.781 L694.472 277.047" stroke="none" stroke-width="0" fill="rgb(254, 224, 204)"/><path d="M693.438 277.727 M693.438 277.727 C768.14 278.032, 844.578 279.158, 1024.037 277.727 M1024.037 277.727 C1032.507 279.101, 1034.472 284.224, 1036.037 289.727 M1036.037 289.727 C1038.604 315.128, 1038.401 342.332, 1036.037 360.327 M1036.037 360.327 C1037.442 365.114, 1028.037 373.763, 1024.037 372.327 M1024.037 372.327 C916.578 371.344, 809.539 370.897, 693.438 372.327 M693.438 372.327 C685.497 370.433, 679.549 363.758, 681.438 360.327 M681.438 360.327 C679.589 336.482, 680.979 314.539, 681.438 289.727 M681.438 289.727 C682.72 283.374, 688.709 277.392, 693.438 277.727 M693.438 277.727 C693.438 277.727, 693.438 277.727, 693.438 277.727" stroke="rgb(254, 224, 204)" stroke-width="1" fill="none"/></g><g clip-path="url(#clipPath2_ygc0__17)"><path d="M693.438 277.727 M693.438 277.727 C766.009 279.351, 836.731 279.54, 1024.037 277.727 M693.438 277.727 C795.727 277.61, 897.365 277.897, 1024.037 277.727 M1024.037 277.727 C1029.258 279.101, 1034.608 284.608, 1036.037 289.727 M1024.037 277.727 C1030.593 279.386, 1037.385 283.098, 1036.037 289.727 M1036.037 289.727 C1037.644 308.459, 1035.464 326.263, 1036.037 360.327 M1036.037 289.727 C1036.293 317.336, 1035.351 346.873, 1036.037 360.327 M1036.037 360.327 C1036.464 365.221, 1031.227 372.973, 1024.037 372.327 M1036.037 360.327 C1035.813 367.259, 1030.152 373.297, 1024.037 372.327 M1024.037 372.327 C913.818 371.81, 803.42 371.838, 693.438 372.327 M1024.037 372.327 C907.832 372.905, 792.275 373.59, 693.438 372.327 M693.438 372.327 C686.07 373.208, 682.81 364.863, 681.438 360.327 M693.438 372.327 C689.025 371.944, 680.934 363.901, 681.438 360.327 M681.438 360.327 C681.678 333.751, 679.793 310.663, 681.438 289.727 M681.438 360.327 C683.025 333.502, 681.929 305.411, 681.438 289.727 M681.438 289.727 C679.484 282.576, 688.605 278.827, 693.438 277.727 M681.438 289.727 C683.216 286.272, 686.105 279.88, 693.438 277.727 M693.438 277.727 C693.438 277.727, 693.438 277.727, 693.438 277.727 M693.438 277.727 C693.438 277.727, 693.438 277.727, 693.438 277.727" stroke="rgb(0, 0, 0)" stroke-width="3" fill="none"/></g><g clip-path="url(#clipPath2_ygc0__18)"><g class="text-container" transform="matrix(3, 0, 0, 3, -2834, 139)"><text x="1174.4828" font-size="8px" y="64.7785" clip-path="url(#clipPath2_ygc0_)" font-family="sans-serif" stroke="none" xml:space="preserve" data-sketchy-clip-path="clipPath2_ygc0__18" style="font-style: normal;font-weight: 400;font-size: 8px;font-family: Comic Sans MS, cursive;" stroke-width="1px" fill="rgb(0, 0, 0)" text-anchor="start" dominant-baseline="auto">ViewDefinitionParserService</text></g></g><g clip-path="url(#clipPath2_ygc0__19)"><path d="M1079.537 170.78 M1079.537 170.78 C1126.135 172.709, 1168.108 169.731, 1254.437 170.78 M1254.437 170.78 C1259.488 172.539, 1267.943 179.102, 1266.437 182.78 M1266.437 182.78 C1267.696 291.601, 1266.261 402.897, 1266.437 613.28 M1266.437 613.28 C1264.535 619.017, 1260.339 625.891, 1254.437 625.28 M1254.437 625.28 C1190.65 623.393, 1126.542 623.94, 1079.537 625.28 M1079.537 625.28 C1072.122 624.555, 1069.167 620.492, 1067.537 613.28 M1067.537 613.28 C1068.628 516.866, 1068.585 419.55, 1067.537 182.78 M1067.537 182.78 C1067.277 176.831, 1073.07 169.153, 1079.537 170.78 M1079.537 170.78 C1079.537 170.78, 1079.537 170.78, 1079.537 170.78" stroke="rgb(0, 0, 0)" stroke-width="3" fill="none"/></g><g clip-path="url(#clipPath2_ygc0__20)"><g class="text-container" transform="matrix(3, 0, 0, 3, -2834, 139)"><text x="1324.1703" xml:space="preserve" y="27.7319" clip-path="url(#clipPath2_ygc0_)" font-family="sans-serif" stroke="none" data-sketchy-clip-path="clipPath2_ygc0__20" style="font-style: normal;font-weight: 400;font-size: 12px;font-family: Comic Sans MS, cursive;" stroke-width="1px" fill="rgb(0, 0, 0)" text-anchor="start" dominant-baseline="auto">API</text></g></g><g clip-path="url(#clipPath2_ygc0__21)"><path d="M1390.841 112.463 L1950.712 114.621 L1953.176 682.323 L1392.11 684.912 L1391.201 112.048" stroke="none" stroke-width="0" fill="rgb(232, 203, 241)"/><path d="M1388.268 111.877 M1389.457 113.665 C1563.034 113.381, 1734.721 112.728, 1951.533 113.33 M1390.301 113.176 C1564.609 113.194, 1739.29 112.802, 1951.35 113.067 M1950.738 112.167 C1949.388 322.559, 1948.64 530.627, 1951.135 682.565 M1951.199 113.256 C1953.195 280.204, 1953.215 447.926, 1950.997 683.233 M1951.899 683.4 C1786.754 685.888, 1622.818 685.262, 1389.419 683.545 M1951.306 683.007 C1785.102 681.069, 1619.498 680.999, 1389.859 683.077 M1390.21 683.073 C1392.145 500.228, 1391.531 316.195, 1389.415 112.607 M1389.85 682.768 C1390.875 559.893, 1390.876 436.424, 1390.545 113.23" stroke="rgb(232, 203, 241)" stroke-width="1" fill="none"/></g><g clip-path="url(#clipPath2_ygc0__22)"><path d="M1390.975 111.556 L1392.008 114.24 L1391.493 683.334 L1388.623 682.423 L1389.328 113.329" stroke="none" stroke-width="0" fill="rgb(255, 255, 255)"/><path d="M1388.914 112.908 M1390.198 113.084 C1390.766 113.105, 1391.96 113.185, 1392.983 113.113 M1393.863 112.85 C1391.592 268.738, 1392.297 425.26, 1393.894 683.226 M1393.199 683.213 C1392.225 683.275, 1391.553 683.265, 1389.984 683.03 M1390.682 682.716 C1390.639 500.283, 1391.117 318.752, 1389.878 112.332" stroke="rgb(255, 255, 255)" stroke-width="1" fill="none"/></g><g clip-path="url(#clipPath2_ygc0__23)"><path d="M1393.699 111.712 L1949.576 111.921 L1948.924 115.527 L1394.04 114.633 L1393.225 113.909" stroke="none" stroke-width="0" fill="rgb(255, 255, 255)"/><path d="M1393.578 112.95 M1393.568 113.429 C1553.389 113.661, 1712.311 113.97, 1948.761 112.507 M1948.364 112.813 C1948.191 113.714, 1948.462 114.185, 1948.234 115.958 M1948.134 115.216 C1816.421 114.925, 1683.625 114.981, 1393.501 115.883 M1392.952 116.215 C1393.06 115.202, 1393.137 113.833, 1393.442 112.772" stroke="rgb(255, 255, 255)" stroke-width="1" fill="none"/></g><g clip-path="url(#clipPath2_ygc0__24)"><path d="M1393.336 679.521 L1952.824 678.258 L1950.099 684.887 L1392.535 684.462 L1393.696 680.66" stroke="none" stroke-width="0" fill="rgb(178, 142, 160)"/><path d="M1391.94 678.986 M1393.162 680.134 C1507.67 678.049, 1620.615 677.689, 1951.736 679.71 M1951.072 680.002 C1950.999 681.309, 1951.42 682.258, 1951.477 683.076 M1951.531 683.313 C1804.463 680.906, 1658.993 680.376, 1393.595 683.467 M1393.442 683.366 C1393.277 682.076, 1393.021 681.201, 1393.453 680.054" stroke="rgb(178, 142, 160)" stroke-width="1" fill="none"/></g><g clip-path="url(#clipPath2_ygc0__25)"><path d="M1948.049 113.666 L1952.884 112.157 L1949.228 681.312 L1948.257 681.273 L1947.102 110.96" stroke="none" stroke-width="0" fill="rgb(178, 142, 160)"/><path d="M1949.544 111.441 M1948.427 113.148 C1948.939 113.162, 1950.325 112.765, 1951.056 112.835 M1951.354 113.143 C1951.104 284.82, 1952.073 457.381, 1950.646 680.609 M1951.355 679.944 C1950.133 680.215, 1949.339 680.033, 1948.19 680.387 M1948.106 679.366 C1946.379 531.561, 1945.717 382.748, 1948.663 112.908" stroke="rgb(178, 142, 160)" stroke-width="1" fill="none"/></g><g clip-path="url(#clipPath2_ygc0__26)"><path d="M1488.644 411.039 L1780.266 411.59 L1811.02 477.939 L1778.327 545.825 L1491.766 545.482 L1520.679 475.636 L1490.862 411.366" stroke="none" stroke-width="0" fill="rgb(255, 203, 229)"/><path d="M1489.853 410.495 M1490.942 408.656 C1564.427 409.415, 1637.037 409.19, 1778.811 411.409 M1778.406 411.471 C1785.411 428.245, 1797.237 444.853, 1809.492 475.867 M1809.741 476.446 C1797.97 502.642, 1788.286 525.677, 1778.303 543.042 M1779.837 543.521 C1703.561 544.369, 1629.543 545.228, 1490.445 543.613 M1490.865 543.616 C1501.681 519.486, 1515.784 493.754, 1523.556 478.033 M1523.596 479.425 C1510.979 455.125, 1502.943 433.636, 1491.279 409.749" stroke="rgb(255, 203, 229)" stroke-width="1" fill="none"/></g><g clip-path="url(#clipPath2_ygc0__27)"><path d="M1489.597 408.892 M1488.543 409.579 C1595.195 407.558, 1697.78 409.756, 1778.751 409.839 M1777.434 409.829 C1787.284 429.588, 1796.885 448.927, 1811.515 479.404 M1811.302 476.722 C1803.433 493.062, 1793.413 509.86, 1777.623 544.149 M1777.734 545.856 C1708.2 546.382, 1641.385 544.89, 1489.966 543.623 M1489.296 544.263 C1498.924 524.943, 1508.188 501.802, 1520.709 476.257 M1522.018 477.419 C1515.189 462.459, 1510.67 448.648, 1490.235 411.716" stroke="rgb(0, 0, 0)" stroke-width="3" fill="none"/></g><g clip-path="url(#clipPath2_ygc0__28)"><path d="M1509.237 428.148 L1798.902 428.291 L1832.14 493.515 L1797.963 560.601 L1510.678 561.341 L1543.973 495.155 L1510.409 426.51" stroke="none" stroke-width="0" fill="rgb(255, 203, 229)"/><path d="M1510.346 426.602 M1509.779 426.918 C1595.747 424.713, 1683.474 424.548, 1801.15 426.016 M1511.055 427.134 C1600.698 425.382, 1690.591 426.414, 1800.456 427.135 M1800.036 428.066 C1813.184 451.86, 1825.695 477.376, 1830.569 493.481 M1799.951 426.498 C1806.744 442.038, 1814.89 459.073, 1832.024 493.712 M1832.062 495.911 C1817.05 521.751, 1805.987 546.119, 1800.526 561.656 M1831.725 495.356 C1822.435 511.838, 1815.538 530.604, 1799.438 562.771 M1799.891 561.65 C1708.641 559.846, 1614.944 561.989, 1511.073 563.273 M1799.815 561.232 C1728.994 561.292, 1657.918 561.152, 1510.557 562.28 M1510.905 562.891 C1523.346 535.261, 1537.048 508.916, 1544.152 496.236 M1510.002 562.638 C1517.889 545.157, 1527.343 529.342, 1542.476 494.095 M1542.396 495.477 C1533.601 471.267, 1522.514 447.354, 1511.435 428.556 M1543.367 495.422 C1534.486 476.704, 1525.398 457.677, 1510.201 427.389" stroke="rgb(255, 203, 229)" stroke-width="1" fill="none"/></g><g clip-path="url(#clipPath2_ygc0__29)"><path d="M1511.311 426.221 M1511.514 426.207 C1572.475 427.26, 1636.046 429.089, 1800.889 427.294 M1801.442 425.776 C1810.698 450.143, 1821.544 474.92, 1831.926 494.078 M1833.341 494.681 C1822.882 511.813, 1814.795 531.246, 1798.398 561.776 M1800.317 561.713 C1731.159 562.341, 1664.595 563.007, 1511.73 563.257 M1509.523 562.901 C1519.969 544.511, 1525.49 527.854, 1542.04 493.392 M1542.117 495.773 C1529.245 468.556, 1519.962 444.682, 1510.248 425.673" stroke="rgb(0, 0, 0)" stroke-width="3" fill="none"/></g><g clip-path="url(#clipPath2_ygc0__30)"><path d="M1536.564 444.558 L1825.168 441.947 L1856 511.053 L1823.563 577.644 L1533.206 577.859 L1565.677 511.379 L1536.398 443.329" stroke="none" stroke-width="0" fill="rgb(255, 203, 229)"/><path d="M1533.393 442.666 M1535.315 443.809 C1606.17 442.645, 1677.118 441.554, 1822.68 443.977 M1822.069 443.414 C1832.25 465.189, 1840.923 483.954, 1854.956 509.95 M1854.286 512.127 C1844.805 530.547, 1837.764 551.29, 1823.164 578.89 M1822.935 580.051 C1753.584 577.591, 1683.108 576.556, 1534.423 579.943 M1533.523 580.766 C1545.015 558.705, 1556.301 537.669, 1566.607 511.353 M1565.781 511.458 C1561.28 497.57, 1553.921 480.789, 1534.297 443.276" stroke="rgb(255, 203, 229)" stroke-width="1" fill="none"/></g><g clip-path="url(#clipPath2_ygc0__31)"><path d="M1533.198 444.008 M1534.656 443.838 C1623.365 443.093, 1713.2 442.754, 1823.788 444.23 M1825.006 445.588 C1829.926 459.571, 1838.292 475.537, 1857.766 511.423 M1856.133 511.944 C1846.201 535.76, 1835.238 558.756, 1824.51 579.049 M1824.049 580.257 C1719.719 580.786, 1614.17 580.42, 1535.08 579.884 M1534.358 580.803 C1542.33 563.42, 1549.73 543.375, 1568.261 509.566 M1565.101 510.725 C1556.259 490.459, 1547.575 469.746, 1536.405 444.505" stroke="rgb(0, 0, 0)" stroke-width="3" fill="none"/></g><g clip-path="url(#clipPath2_ygc0__32)"><path d="M1569.034 460.087 L1854.842 460.834 L1887.173 529.24 L1855.936 595.957 L1566.151 594.112 L1601.857 530.128 L1567.494 461.851" stroke="none" stroke-width="0" fill="rgb(255, 203, 229)"/><path d="M1568.695 462.76 M1568.406 460.025 C1671.6 463.617, 1772.889 460.954, 1855.892 461.34 M1567.559 460.979 C1680.009 461.692, 1793.858 461.679, 1856.438 461.404 M1856.548 459.855 C1869.022 484.189, 1880.123 509.525, 1889.295 529.52 M1856.039 460.274 C1866.359 483.82, 1878.35 505.995, 1889.458 527.719 M1890.649 529.602 C1877.83 553.321, 1865.59 581.606, 1858.728 595.059 M1888.741 528.186 C1882.747 544.487, 1875.094 560.237, 1856.466 596.907 M1856.892 596.753 C1786.166 598.246, 1715.372 597.38, 1567.625 595.571 M1856.607 595.396 C1760.326 596.666, 1664.537 596.032, 1567.592 596.539 M1569.612 596.487 C1578.497 572.689, 1590.175 550.753, 1599.409 527.042 M1568.406 596.253 C1580.57 572.096, 1592.181 546.171, 1600.393 529.2 M1599.053 530.07 C1586.615 502.64, 1578.714 478.833, 1568.325 459.347 M1600.35 528.535 C1588.472 503.91, 1577.779 477.811, 1568.139 461.213" stroke="rgb(255, 203, 229)" stroke-width="1" fill="none"/></g><g clip-path="url(#clipPath2_ygc0__33)"><path d="M1568.839 462.615 M1568.313 460.178 C1676.409 462.122, 1782.828 460.558, 1856.512 460.608 M1855.945 462.653 C1868.733 484.953, 1881.766 512.906, 1887.973 529.127 M1889.929 527.113 C1882.626 541.029, 1876.407 555.774, 1857.33 594.438 M1857.332 596.556 C1752.42 596.329, 1648.761 595.088, 1566.867 594.506 M1568.128 595.582 C1576.682 574.575, 1585.059 557.474, 1599.905 529.356 M1600.277 527.241 C1590.843 511.282, 1583.904 492.167, 1569.915 459.547" stroke="rgb(0, 0, 0)" stroke-width="3" fill="none"/></g><g clip-path="url(#clipPath2_ygc0__34)"><g class="text-container" transform="matrix(3, 0, 0, 3, -2834, 139)"><text x="1477.3887" xml:space="preserve" y="124.4486" clip-path="url(#clipPath2_ygc0_)" font-family="sans-serif" stroke="none" data-sketchy-clip-path="clipPath2_ygc0__34" style="font-style: normal;font-weight: 400;font-size: 12px;font-family: Comic Sans MS, cursive;" stroke-width="1px" fill="rgb(0, 0, 0)" text-anchor="start" dominant-baseline="auto">ViewDefinition</text></g></g><g clip-path="url(#clipPath2_ygc0__35)"><path d="M1624.857 527.306 L1860.88 526.261 L1887.728 618.673 L1651.923 617.948 L1625.111 526.686" stroke="none" stroke-width="0" fill="rgb(216, 216, 255)"/><path d="M1625.698 525.06 M1625.058 527.521 C1690.885 529.247, 1754.792 528.139, 1862.254 527.659 M1862.069 526.606 C1872.91 562.049, 1884.19 592.942, 1890.106 615.54 M1889.643 616.039 C1805.649 614.66, 1721.298 614.572, 1649.884 617.671 M1653.327 615.787 C1643.331 592.861, 1634.057 564.552, 1624.948 527.039" stroke="rgb(216, 216, 255)" stroke-width="1" fill="none"/></g><g clip-path="url(#clipPath2_ygc0__36)"><path d="M1625.625 525.525 M1625.22 526.813 C1686 528.582, 1745.04 527.619, 1863.538 526.096 M1861.735 527.643 C1871.294 559.377, 1880.695 587.703, 1889.385 615.304 M1889.399 615.42 C1815.518 613.896, 1743.119 614.256, 1650.424 618.067 M1652.038 617.566 C1643.69 590.493, 1638.274 567.86, 1624.098 525.466" stroke="rgb(0, 0, 0)" stroke-width="3" fill="none"/></g><g clip-path="url(#clipPath2_ygc0__37)"><g class="text-container" transform="matrix(3, 0, 0, 3, -2834, 139)"><text x="1500.957" xml:space="preserve" y="141.4798" clip-path="url(#clipPath2_ygc0_)" font-family="sans-serif" stroke="none" data-sketchy-clip-path="clipPath2_ygc0__37" style="font-style: normal;font-weight: 400;font-size: 12px;font-family: Comic Sans MS, cursive;" stroke-width="1px" fill="rgb(0, 0, 0)" text-anchor="start" dominant-baseline="auto">extension</text></g></g><g clip-path="url(#clipPath2_ygc0__38)"><g class="text-container" transform="matrix(3, 0, 0, 3, -2834, 139)"><text x="1524.8369" xml:space="preserve" y="155.4485" clip-path="url(#clipPath2_ygc0_)" font-family="sans-serif" stroke="none" data-sketchy-clip-path="clipPath2_ygc0__38" style="font-style: normal;font-weight: 400;font-size: 12px;font-family: Comic Sans MS, cursive;" stroke-width="1px" fill="rgb(0, 0, 0)" text-anchor="start" dominant-baseline="auto">id</text></g></g><g clip-path="url(#clipPath2_ygc0__39)"><path d="M86.079 400.172 L121.092 320.565 L390.965 323.371 L424.748 399.543 L392.898 478.959 L118.04 477.21 L87.677 399.119" stroke="none" stroke-width="0" fill="rgb(254, 194, 161)"/><path d="M86.587 400.718 M87.563 400.168 C98.254 368.686, 112.536 341.121, 119.354 319.757 M121.073 321.165 C181.876 319.621, 242.922 319, 390.136 322.654 M390.317 322.503 C403.398 351.243, 415.801 376.136, 424.637 400.621 M426.076 399.886 C416.152 420.969, 406.434 441.732, 390.745 476.283 M392.334 478.183 C333.61 477.769, 276.932 477.863, 118.618 477.015 M121.427 477.263 C109.538 453.695, 98.657 426.405, 87 399.565" stroke="rgb(254, 194, 161)" stroke-width="1" fill="none"/></g><g clip-path="url(#clipPath2_ygc0__40)"><path d="M84.491 398.969 M84.243 399.759 C98.325 369.533, 110.124 343.126, 121.817 323.367 M118.728 322.523 C223.826 318.223, 326.167 320.567, 390.643 323.148 M389.848 322.347 C404.441 351.426, 414.577 380.056, 426.724 401.587 M423.337 401.202 C418.373 416.55, 412.68 431.83, 390.426 477.316 M389.51 478.956 C306.713 476.032, 221.218 478.731, 120.304 477.981 M119.202 477.193 C114.639 462.424, 104.5 445.04, 86.11 400.603" stroke="rgb(0, 0, 0)" stroke-width="3" fill="none"/></g><g clip-path="url(#clipPath2_ygc0__41)"><g class="text-container" transform="matrix(3, 0, 0, 3, -2834, 139)"><text x="986.3887" xml:space="preserve" y="84.0631" clip-path="url(#clipPath2_ygc0_)" font-family="sans-serif" stroke="none" data-sketchy-clip-path="clipPath2_ygc0__41" style="font-style: normal;font-weight: 400;font-size: 12px;font-family: Comic Sans MS, cursive;" stroke-width="1px" fill="rgb(0, 0, 0)" text-anchor="start" dominant-baseline="auto">ViewDefinition</text></g></g><g clip-path="url(#clipPath2_ygc0__42)"><g class="text-container" transform="matrix(3, 0, 0, 3, -2834, 139)"><text x="1006.7705" xml:space="preserve" y="98.0319" clip-path="url(#clipPath2_ygc0_)" font-family="sans-serif" stroke="none" data-sketchy-clip-path="clipPath2_ygc0__42" style="font-style: normal;font-weight: 400;font-size: 12px;font-family: Comic Sans MS, cursive;" stroke-width="1px" fill="rgb(0, 0, 0)" text-anchor="start" dominant-baseline="auto">Catalog</text></g></g><g clip-path="url(#clipPath2_ygc0__43)"><path d="M1108.101 270.974 L1235.437 269.219 L1237.069 270.43 L1245.915 276.088 L1247.437 530.717 L1244.838 535.982 L1238.728 538.914 L1108.056 542.645 L1102.189 538.925 L1094.687 534.538 L1094.369 281.27 L1098.351 272.639 L1105.028 267.792" stroke="none" stroke-width="0" fill="rgb(254, 224, 204)"/><path d="M1106.838 269.174 M1106.838 269.174 C1137.38 269.62, 1169.972 269.709, 1233.438 269.174 M1233.438 269.174 C1240.412 268.217, 1245.524 276.323, 1245.438 281.174 M1245.438 281.174 C1245.494 378.763, 1246.279 474.774, 1245.438 529.374 M1245.438 529.374 C1246.246 535.367, 1237.996 542.692, 1233.438 541.374 M1233.438 541.374 C1198.519 540.929, 1163.547 542.87, 1106.838 541.374 M1106.838 541.374 C1099.193 541.009, 1096.002 533.895, 1094.838 529.374 M1094.838 529.374 C1094.667 439.977, 1095.335 354.94, 1094.838 281.174 M1094.838 281.174 C1095.182 276.875, 1103.454 271.151, 1106.838 269.174 M1106.838 269.174 C1106.838 269.174, 1106.838 269.174, 1106.838 269.174" stroke="rgb(254, 224, 204)" stroke-width="1" fill="none"/></g><g clip-path="url(#clipPath2_ygc0__44)"><path d="M1106.838 269.174 M1106.838 269.174 C1141.952 269.949, 1178.843 266.67, 1233.438 269.174 M1233.438 269.174 C1241.09 268.5, 1244.81 275.624, 1245.438 281.174 M1245.438 281.174 C1245.682 351.147, 1244.599 423.357, 1245.438 529.374 M1245.438 529.374 C1247.274 537.179, 1237.737 541.015, 1233.438 541.374 M1233.438 541.374 C1199.049 541.93, 1164.464 542.162, 1106.838 541.374 M1106.838 541.374 C1100.463 541.473, 1096.619 534.495, 1094.838 529.374 M1094.838 529.374 C1096.654 476.432, 1097.904 422.873, 1094.838 281.174 M1094.838 281.174 C1093.941 273.869, 1100.046 269.723, 1106.838 269.174 M1106.838 269.174 C1106.838 269.174, 1106.838 269.174, 1106.838 269.174" stroke="rgb(0, 0, 0)" stroke-width="3" fill="none"/></g><g clip-path="url(#clipPath2_ygc0__45)"><g class="text-container" transform="matrix(3, 0, 0, 3, -2834, 139)"><text x="1318.1832" font-size="8px" y="91.5276" clip-path="url(#clipPath2_ygc0_)" font-family="sans-serif" stroke="none" xml:space="preserve" data-sketchy-clip-path="clipPath2_ygc0__45" style="font-style: normal;font-weight: 400;font-size: 8px;font-family: Comic Sans MS, cursive;" stroke-width="1px" fill="rgb(0, 0, 0)" text-anchor="start" dominant-baseline="auto">ViewDef</text></g></g><g clip-path="url(#clipPath2_ygc0__46)"><path d="M1512.107 201.387 L1800.643 202.709 L1831.595 268.656 L1799.001 335.199 L1511.249 338.889 L1542.919 270.555 L1512.606 203.48" stroke="none" stroke-width="0" fill="rgb(255, 203, 229)"/><path d="M1512.579 202.96 M1509.972 202.11 C1609.599 203.567, 1709.641 204.966, 1799.607 200.984 M1799.722 200.21 C1810.412 221.387, 1821.24 245.388, 1830.975 268.252 M1832.372 270.47 C1826.677 284.006, 1820.732 299.119, 1799.359 335.427 M1800.66 335.973 C1732.804 335.52, 1665.322 335.306, 1511.736 336.158 M1510.625 335.08 C1518.957 321.921, 1524.323 305.116, 1544.967 267.51 M1542.524 269.243 C1536.429 253.138, 1528.695 236.458, 1511.004 202.15" stroke="rgb(255, 203, 229)" stroke-width="1" fill="none"/></g><g clip-path="url(#clipPath2_ygc0__47)"><path d="M1510.847 203.138 M1511.02 200.676 C1574.009 204.346, 1633.303 203.445, 1799.923 201.446 M1799.768 201.542 C1808.959 218.153, 1815.655 237.872, 1831.407 268.139 M1832.604 270.239 C1822.691 287.088, 1817.199 305.08, 1801.573 338.236 M1799.465 336.464 C1721.439 337.474, 1641.411 335.137, 1510.91 335.795 M1509.75 335.434 C1517.149 322.996, 1525.374 306.09, 1541.916 270.808 M1542.064 270.573 C1535.195 249.981, 1524.945 234.613, 1510.606 202.203" stroke="rgb(0, 0, 0)" stroke-width="3" fill="none"/></g><g clip-path="url(#clipPath2_ygc0__48)"><g class="text-container" transform="matrix(3, 0, 0, 3, -2834, 139)"><text x="1458.3887" xml:space="preserve" y="38.1152" clip-path="url(#clipPath2_ygc0_)" font-family="sans-serif" stroke="none" data-sketchy-clip-path="clipPath2_ygc0__48" style="font-style: normal;font-weight: 400;font-size: 12px;font-family: Comic Sans MS, cursive;" stroke-width="1px" fill="rgb(0, 0, 0)" text-anchor="start" dominant-baseline="auto">ViewDefinition</text></g></g><g clip-path="url(#clipPath2_ygc0__49)"><g class="text-container" transform="matrix(3, 0, 0, 3, -2834, 139)"><text x="1459.1006" xml:space="preserve" y="52.084" clip-path="url(#clipPath2_ygc0_)" font-family="sans-serif" stroke="none" data-sketchy-clip-path="clipPath2_ygc0__49" style="font-style: normal;font-weight: 400;font-size: 12px;font-family: Comic Sans MS, cursive;" stroke-width="1px" fill="rgb(0, 0, 0)" text-anchor="start" dominant-baseline="auto">(main canvas)</text></g></g><g clip-path="url(#clipPath2_ygc0__50)"><path d="M680.804 281.134 M682.025 281.91 C568.793 280.66, 456.331 282.148, 262.697 282.479 M263.573 283.821 C263.547 286.793, 262.511 291.664, 264.069 298.63" stroke="rgb(0, 0, 0)" stroke-width="3" fill="none"/></g><g clip-path="url(#clipPath2_ygc0__51)"><path d="M264.31 319.962 L276.542 284.129 L261.81 293.381 L248.858 285.614 L262.922 323.168" stroke="none" stroke-width="0" fill="rgb(0, 0, 0)"/><path d="M263.851 322.38 M261.907 321.619 C267.804 309.184, 273.101 297.097, 275.975 285.74 M262.726 320.768 C266.987 310.957, 271.402 299.881, 277.251 286.68 M276.117 286.598 C271.502 290.309, 268.147 291.598, 263.888 293.43 M278.594 286.094 C274.767 287.851, 271.839 290, 263.569 295.228 M264.541 294.477 C256.328 292.956, 250.387 287.194, 248.502 284.043 M263.4 295.002 C259.946 293.525, 256.603 291.463, 247.761 286.101 M246.928 283.937 C250.882 297.762, 256.752 307.418, 261.52 321.916 M247.402 285.763 C252.191 295.936, 257.322 308.177, 262.837 321.496" stroke="rgb(0, 0, 0)" stroke-width="1" fill="none"/></g><g clip-path="url(#clipPath2_ygc0__52)"><path d="M452.899 256.298 L572.284 254.824 L571.941 308.416 L453.124 310.064 L451.314 253.829" stroke="none" stroke-width="0" fill="rgb(255, 255, 255)"/><path d="M453.087 256.898 M452.463 257.022 C496.474 254.128, 537.547 256.102, 572.029 255.276 M571.285 255.582 C572.265 267.371, 569.8 278.448, 572.046 308.274 M571.556 310.833 C526.812 309.968, 479.386 308.433, 450.439 310.827 M453.517 310.777 C451.542 293.182, 450.998 279.809, 452.914 256.233" stroke="rgb(255, 255, 255)" stroke-width="1" fill="none"/></g><g clip-path="url(#clipPath2_ygc0__53)"><g class="text-container" transform="matrix(3, 0, 0, 3, -2834, 139)"><text x="1097.3644" xml:space="preserve" y="52.0542" clip-path="url(#clipPath2_ygc0_)" font-family="sans-serif" stroke="none" data-sketchy-clip-path="clipPath2_ygc0__53" style="font-style: normal;font-weight: 400;font-size: 12px;font-family: Comic Sans MS, cursive;" stroke-width="1px" fill="rgb(0, 0, 0)" text-anchor="start" dominant-baseline="auto">builds</text></g></g><g clip-path="url(#clipPath2_ygc0__54)"><path d="M681.616 536.002 M680.384 535.959 C528.072 535.951, 376.937 536.771, 256.267 538.086 M253.59 538.152 C254.75 526.354, 257.099 512.602, 254.869 501.689" stroke="rgb(0, 0, 0)" stroke-width="3" fill="none"/></g><g clip-path="url(#clipPath2_ygc0__55)"><path d="M255.771 479.111 L241.88 515.313 L255.899 503.559 L271.819 514.555 L257.181 475.945" stroke="none" stroke-width="0" fill="rgb(0, 0, 0)"/><path d="M254.5 478.474 M254.64 477.29 C250.002 492.102, 246.661 503.27, 240.252 513.725 M241.767 514.22 C245.594 510.782, 246.488 510.029, 253.859 503.436 M255.916 505.218 C260.446 507.036, 265.803 510.738, 271.52 512.94 M269.766 513.393 C265.16 499.493, 260.523 488.342, 254.602 476.432" stroke="rgb(0, 0, 0)" stroke-width="1" fill="none"/></g><g clip-path="url(#clipPath2_ygc0__56)"><path d="M469.472 512.125 L563.272 508.89 L564.27 566.179 L471.288 564.897 L468.557 510.016" stroke="none" stroke-width="0" fill="rgb(255, 255, 255)"/><path d="M469.342 508.873 M467.972 510.848 C489.518 507.734, 510.398 509.822, 564.55 512.066 M565.915 510.888 C562.782 525.16, 563.275 540.662, 563.056 565.512 M566.106 565.313 C532.962 563.537, 497.11 565.075, 467.766 563.804 M470.586 562.613 C469.631 551.203, 470.927 540.28, 470.007 511.311" stroke="rgb(255, 255, 255)" stroke-width="1" fill="none"/></g><g clip-path="url(#clipPath2_ygc0__57)"><g class="text-container" transform="matrix(3, 0, 0, 3, -2834, 139)"><text x="1103.2543" xml:space="preserve" y="136.9412" clip-path="url(#clipPath2_ygc0_)" font-family="sans-serif" stroke="none" data-sketchy-clip-path="clipPath2_ygc0__57" style="font-style: normal;font-weight: 400;font-size: 12px;font-family: Comic Sans MS, cursive;" stroke-width="1px" fill="rgb(0, 0, 0)" text-anchor="start" dominant-baseline="auto">uses</text></g></g><g clip-path="url(#clipPath2_ygc0__58)"><path d="M857.332 488.408 M859.572 488.962 C859.126 459.624, 860.985 432.373, 856.867 405.611 M859.364 404.988 C907.621 406.611, 958.31 404.437, 1094.326 404.614" stroke="rgb(0, 0, 0)" stroke-width="3" fill="none" stroke-dasharray="12 9 0.5 9"/></g><g clip-path="url(#clipPath2_ygc0__59)"><path d="M1036.294 324.659 M1035.669 326.4 C1051.514 324.3, 1065.351 323.299, 1096.378 326.942 M1036.43 325.776 C1047.585 324.783, 1061.189 323.906, 1095.042 324.344" stroke="rgb(0, 0, 0)" stroke-width="3" fill="none" stroke-dasharray="12 9 0.5 9"/></g><g clip-path="url(#clipPath2_ygc0__60)"><path d="M1246.093 406.045 M1247.464 404.548 C1271.153 403.359, 1298.098 403.991, 1366.005 402.281 M1246.315 404.95 C1279.103 404.582, 1310.346 404.61, 1366.98 402.596" stroke="rgb(0, 0, 0)" stroke-width="3" fill="none"/></g><g clip-path="url(#clipPath2_ygc0__61)"><path d="M1390.076 403.254 L1354.146 387.654 L1363.054 400.64 L1352.746 419.48 L1388.519 402.015" stroke="none" stroke-width="0" fill="rgb(0, 0, 0)"/><path d="M1390.323 403.069 M1388.433 401.052 C1382.243 399.856, 1370.142 392.808, 1354.577 388.91 M1353.664 387.163 C1356.43 391.986, 1358.649 396.406, 1362.076 403.431 M1364.606 402.564 C1360.506 407.436, 1357.919 409.82, 1355.844 419.165 M1355.698 416.92 C1363.58 414.597, 1369.003 411.018, 1388.135 402.614" stroke="rgb(0, 0, 0)" stroke-width="1" fill="none"/></g></svg>