<svg data-v-6e9b645d="" class="sketchy-canvas visible" xmlns="http://www.w3.org/2000/svg" xmlns:xlink="http://www.w3.org/1999/xlink" width="1207" height="1060" stroke-linecap="round"><defs><clipPath id="ygc111_0_0"><rect x="25" y="25" width="1156.9" height="1009.7" transform="matrix(1, 0, 0, 1, 0, 0)"/></clipPath><clipPath id="clipPath2_ygc0__1"><path d="M45 196 L538 196 L538 625 L45 625 L45 196 Z" transform="matrix(2.3, 0, 0, 2.3, -67, -414.3)"/></clipPath><clipPath id="clipPath2_ygc0__2"><path d="M45 196 L538 196 L538 625 L45 625 L45 196 Z" transform="matrix(2.3, 0, 0, 2.3, -67, -414.3)"/></clipPath><clipPath id="clipPath2_ygc0__3"><path d="M45 196 L538 196 L538 625 L45 625 L45 196 Z" transform="matrix(2.3, 0, 0, 2.3, -67, -414.3)"/></clipPath><clipPath id="clipPath2_ygc0__4"><path d="M45 196 L538 196 L538 625 L45 625 L45 196 Z" transform="matrix(2.3, 0, 0, 2.3, -67, -414.3)"/></clipPath><clipPath id="clipPath2_ygc0__5"><path d="M45 196 L538 196 L538 625 L45 625 L45 196 Z" transform="matrix(2.3, 0, 0, 2.3, -67, -414.3)"/></clipPath><clipPath id="clipPath2_ygc0__6"><path d="M45 196 L538 196 L538 625 L45 625 L45 196 Z" transform="matrix(2.3, 0, 0, 2.3, -67, -414.3)"/></clipPath><clipPath id="clipPath2_ygc0__7"><path d="M45 196 L538 196 L538 625 L45 625 L45 196 Z" transform="matrix(2.3, 0, 0, 2.3, -67, -414.3)"/></clipPath><clipPath id="clipPath2_ygc0__8"><path d="M45 196 L538 196 L538 625 L45 625 L45 196 Z" transform="matrix(2.3, 0, 0, 2.3, -67, -414.3)"/></clipPath><clipPath id="clipPath2_ygc0__9"><path d="M45 196 L538 196 L538 625 L45 625 L45 196 Z" transform="matrix(2.3, 0, 0, 2.3, -67, -414.3)"/></clipPath><clipPath id="clipPath2_ygc0__10"><path d="M45 196 L538 196 L538 625 L45 625 L45 196 Z" transform="matrix(2.3, 0, 0, 2.3, -67, -414.3)"/></clipPath><clipPath id="clipPath2_ygc0__11"><path d="M45 196 L538 196 L538 625 L45 625 L45 196 Z" transform="matrix(2.3, 0, 0, 2.3, -67, -414.3)"/></clipPath><clipPath id="clipPath2_ygc0__12"><path d="M45 196 L538 196 L538 625 L45 625 L45 196 Z" transform="matrix(2.3, 0, 0, 2.3, -67, -414.3)"/></clipPath><clipPath id="clipPath2_ygc0__13"><path d="M45 196 L538 196 L538 625 L45 625 L45 196 Z" transform="matrix(2.3, 0, 0, 2.3, -67, -414.3)"/></clipPath><clipPath id="clipPath2_ygc0__14"><path d="M45 196 L538 196 L538 625 L45 625 L45 196 Z" transform="matrix(2.3, 0, 0, 2.3, -67, -414.3)"/></clipPath><clipPath id="clipPath2_ygc0__15"><path d="M45 196 L538 196 L538 625 L45 625 L45 196 Z" transform="matrix(2.3, 0, 0, 2.3, -67, -414.3)"/></clipPath><clipPath id="clipPath2_ygc0__16"><path d="M45 196 L538 196 L538 625 L45 625 L45 196 Z" transform="matrix(2.3, 0, 0, 2.3, -67, -414.3)"/></clipPath><clipPath id="clipPath2_ygc0__17"><path d="M45 196 L538 196 L538 625 L45 625 L45 196 Z" transform="matrix(2.3, 0, 0, 2.3, -67, -414.3)"/></clipPath><clipPath id="clipPath2_ygc0__18"><path d="M45 196 L538 196 L538 625 L45 625 L45 196 Z" transform="matrix(2.3, 0, 0, 2.3, -67, -414.3)"/></clipPath><clipPath id="clipPath2_ygc0__19"><path d="M45 196 L538 196 L538 625 L45 625 L45 196 Z" transform="matrix(2.3, 0, 0, 2.3, -67, -414.3)"/></clipPath><clipPath id="clipPath2_ygc0__20"><path d="M45 196 L538 196 L538 625 L45 625 L45 196 Z" transform="matrix(2.3, 0, 0, 2.3, -67, -414.3)"/></clipPath><clipPath id="clipPath2_ygc0__21"><path d="M45 196 L538 196 L538 625 L45 625 L45 196 Z" transform="matrix(2.3, 0, 0, 2.3, -67, -414.3)"/></clipPath><clipPath id="clipPath2_ygc0__22"><path d="M45 196 L538 196 L538 625 L45 625 L45 196 Z" transform="matrix(2.3, 0, 0, 2.3, -67, -414.3)"/></clipPath><clipPath id="clipPath2_ygc0__23"><path d="M45 196 L538 196 L538 625 L45 625 L45 196 Z" transform="matrix(2.3, 0, 0, 2.3, -67, -414.3)"/></clipPath><clipPath id="clipPath2_ygc0__24"><path d="M45 196 L538 196 L538 625 L45 625 L45 196 Z" transform="matrix(2.3, 0, 0, 2.3, -67, -414.3)"/></clipPath><clipPath id="clipPath2_ygc0__25"><path d="M45 196 L538 196 L538 625 L45 625 L45 196 Z" transform="matrix(2.3, 0, 0, 2.3, -67, -414.3)"/></clipPath><clipPath id="clipPath2_ygc0__26"><path d="M45 196 L538 196 L538 625 L45 625 L45 196 Z" transform="matrix(2.3, 0, 0, 2.3, -67, -414.3)"/></clipPath><clipPath id="clipPath2_ygc0__27"><path d="M45 196 L538 196 L538 625 L45 625 L45 196 Z" transform="matrix(2.3, 0, 0, 2.3, -67, -414.3)"/></clipPath><clipPath id="clipPath2_ygc0__28"><path d="M45 196 L538 196 L538 625 L45 625 L45 196 Z" transform="matrix(2.3, 0, 0, 2.3, -67, -414.3)"/></clipPath><clipPath id="clipPath2_ygc0__29"><path d="M45 196 L538 196 L538 625 L45 625 L45 196 Z" transform="matrix(2.3, 0, 0, 2.3, -67, -414.3)"/></clipPath><clipPath id="clipPath2_ygc0__30"><path d="M45 196 L538 196 L538 625 L45 625 L45 196 Z" transform="matrix(2.3, 0, 0, 2.3, -67, -414.3)"/></clipPath><clipPath id="clipPath2_ygc0__31"><path d="M45 196 L538 196 L538 625 L45 625 L45 196 Z" transform="matrix(2.3, 0, 0, 2.3, -67, -414.3)"/></clipPath><clipPath id="clipPath2_ygc0__32"><path d="M45 196 L538 196 L538 625 L45 625 L45 196 Z" transform="matrix(2.3, 0, 0, 2.3, -67, -414.3)"/></clipPath><clipPath id="clipPath2_ygc0__33"><path d="M45 196 L538 196 L538 625 L45 625 L45 196 Z" transform="matrix(2.3, 0, 0, 2.3, -67, -414.3)"/></clipPath><clipPath id="clipPath2_ygc0__34"><path d="M45 196 L538 196 L538 625 L45 625 L45 196 Z" transform="matrix(2.3, 0, 0, 2.3, -67, -414.3)"/></clipPath><clipPath id="clipPath2_ygc0__35"><path d="M45 196 L538 196 L538 625 L45 625 L45 196 Z" transform="matrix(2.3, 0, 0, 2.3, -67, -414.3)"/></clipPath><clipPath id="clipPath2_ygc0__36"><path d="M45 196 L538 196 L538 625 L45 625 L45 196 Z" transform="matrix(2.3, 0, 0, 2.3, -67, -414.3)"/></clipPath><clipPath id="clipPath2_ygc0__37"><path d="M45 196 L538 196 L538 625 L45 625 L45 196 Z" transform="matrix(2.3, 0, 0, 2.3, -67, -414.3)"/></clipPath><clipPath id="clipPath2_ygc0__38"><path d="M45 196 L538 196 L538 625 L45 625 L45 196 Z" transform="matrix(2.3, 0, 0, 2.3, -67, -414.3)"/></clipPath><clipPath id="clipPath2_ygc0__39"><path d="M45 196 L538 196 L538 625 L45 625 L45 196 Z" transform="matrix(2.3, 0, 0, 2.3, -67, -414.3)"/></clipPath><clipPath id="clipPath2_ygc0__40"><path d="M45 196 L538 196 L538 625 L45 625 L45 196 Z" transform="matrix(2.3, 0, 0, 2.3, -67, -414.3)"/></clipPath><clipPath id="clipPath2_ygc0__41"><path d="M45 196 L538 196 L538 625 L45 625 L45 196 Z" transform="matrix(2.3, 0, 0, 2.3, -67, -414.3)"/></clipPath><clipPath id="clipPath2_ygc0__42"><path d="M45 196 L538 196 L538 625 L45 625 L45 196 Z" transform="matrix(2.3, 0, 0, 2.3, -67, -414.3)"/></clipPath><clipPath id="clipPath2_ygc0__43"><path d="M45 196 L538 196 L538 625 L45 625 L45 196 Z" transform="matrix(2.3, 0, 0, 2.3, -67, -414.3)"/></clipPath><clipPath id="clipPath2_ygc0__44"><path d="M45 196 L538 196 L538 625 L45 625 L45 196 Z" transform="matrix(2.3, 0, 0, 2.3, -67, -414.3)"/></clipPath><clipPath id="clipPath2_ygc0__45"><path d="M45 196 L538 196 L538 625 L45 625 L45 196 Z" transform="matrix(2.3, 0, 0, 2.3, -67, -414.3)"/></clipPath><clipPath id="clipPath2_ygc0__46"><path d="M45 196 L538 196 L538 625 L45 625 L45 196 Z" transform="matrix(2.3, 0, 0, 2.3, -67, -414.3)"/></clipPath><clipPath id="clipPath2_ygc0__47"><path d="M45 196 L538 196 L538 625 L45 625 L45 196 Z" transform="matrix(2.3, 0, 0, 2.3, -67, -414.3)"/></clipPath><clipPath id="clipPath2_ygc0__48"><path d="M45 196 L538 196 L538 625 L45 625 L45 196 Z" transform="matrix(2.3, 0, 0, 2.3, -67, -414.3)"/></clipPath><clipPath id="clipPath2_ygc0__49"><path d="M45 196 L538 196 L538 625 L45 625 L45 196 Z" transform="matrix(2.3, 0, 0, 2.3, -67, -414.3)"/></clipPath><clipPath id="clipPath2_ygc0__50"><path d="M45 196 L538 196 L538 625 L45 625 L45 196 Z" transform="matrix(2.3, 0, 0, 2.3, -67, -414.3)"/></clipPath><clipPath id="clipPath2_ygc0__51"><path d="M45 196 L538 196 L538 625 L45 625 L45 196 Z" transform="matrix(2.3, 0, 0, 2.3, -67, -414.3)"/></clipPath><clipPath id="clipPath2_ygc0__52"><path d="M45 196 L538 196 L538 625 L45 625 L45 196 Z" transform="matrix(2.3, 0, 0, 2.3, -67, -414.3)"/></clipPath><clipPath id="clipPath2_ygc0__53"><path d="M45 196 L538 196 L538 625 L45 625 L45 196 Z" transform="matrix(2.3, 0, 0, 2.3, -67, -414.3)"/></clipPath><clipPath id="clipPath2_ygc0__54"><path d="M45 196 L538 196 L538 625 L45 625 L45 196 Z" transform="matrix(2.3, 0, 0, 2.3, -67, -414.3)"/></clipPath><clipPath id="clipPath2_ygc0__55"><path d="M45 196 L538 196 L538 625 L45 625 L45 196 Z" transform="matrix(2.3, 0, 0, 2.3, -67, -414.3)"/></clipPath><clipPath id="clipPath2_ygc0__56"><path d="M45 196 L538 196 L538 625 L45 625 L45 196 Z" transform="matrix(2.3, 0, 0, 2.3, -67, -414.3)"/></clipPath><clipPath id="clipPath2_ygc0__57"><path d="M45 196 L538 196 L538 625 L45 625 L45 196 Z" transform="matrix(2.3, 0, 0, 2.3, -67, -414.3)"/></clipPath><clipPath id="clipPath2_ygc0__58"><path d="M45 196 L538 196 L538 625 L45 625 L45 196 Z" transform="matrix(2.3, 0, 0, 2.3, -67, -414.3)"/></clipPath><clipPath id="clipPath2_ygc0__59"><path d="M45 196 L538 196 L538 625 L45 625 L45 196 Z" transform="matrix(2.3, 0, 0, 2.3, -67, -414.3)"/></clipPath><clipPath id="clipPath2_ygc0__60"><path d="M45 196 L538 196 L538 625 L45 625 L45 196 Z" transform="matrix(2.3, 0, 0, 2.3, -67, -414.3)"/></clipPath><clipPath id="clipPath2_ygc0__61"><path d="M45 196 L538 196 L538 625 L45 625 L45 196 Z" transform="matrix(2.3, 0, 0, 2.3, -67, -414.3)"/></clipPath><clipPath id="clipPath2_ygc0__62"><path d="M45 196 L538 196 L538 625 L45 625 L45 196 Z" transform="matrix(2.3, 0, 0, 2.3, -67, -414.3)"/></clipPath><clipPath id="clipPath2_ygc0__63"><path d="M45 196 L538 196 L538 625 L45 625 L45 196 Z" transform="matrix(2.3, 0, 0, 2.3, -67, -414.3)"/></clipPath><clipPath id="clipPath2_ygc0__64"><path d="M45 196 L538 196 L538 625 L45 625 L45 196 Z" transform="matrix(2.3, 0, 0, 2.3, -67, -414.3)"/></clipPath><clipPath id="clipPath2_ygc0__65"><path d="M45 196 L538 196 L538 625 L45 625 L45 196 Z" transform="matrix(2.3, 0, 0, 2.3, -67, -414.3)"/></clipPath><clipPath id="clipPath2_ygc0__66"><path d="M45 196 L538 196 L538 625 L45 625 L45 196 Z" transform="matrix(2.3, 0, 0, 2.3, -67, -414.3)"/></clipPath><clipPath id="clipPath2_ygc0__67"><path d="M45 196 L538 196 L538 625 L45 625 L45 196 Z" transform="matrix(2.3, 0, 0, 2.3, -67, -414.3)"/></clipPath><clipPath id="clipPath2_ygc0__68"><path d="M45 196 L538 196 L538 625 L45 625 L45 196 Z" transform="matrix(2.3, 0, 0, 2.3, -67, -414.3)"/></clipPath><clipPath id="clipPath2_ygc0__69"><path d="M45 196 L538 196 L538 625 L45 625 L45 196 Z" transform="matrix(2.3, 0, 0, 2.3, -67, -414.3)"/></clipPath><clipPath id="clipPath2_ygc0__70"><path d="M45 196 L538 196 L538 625 L45 625 L45 196 Z" transform="matrix(2.3, 0, 0, 2.3, -67, -414.3)"/></clipPath><clipPath id="clipPath2_ygc0__71"><path d="M45 196 L538 196 L538 625 L45 625 L45 196 Z" transform="matrix(2.3, 0, 0, 2.3, -67, -414.3)"/></clipPath><clipPath id="clipPath2_ygc0__72"><path d="M45 196 L538 196 L538 625 L45 625 L45 196 Z" transform="matrix(2.3, 0, 0, 2.3, -67, -414.3)"/></clipPath><clipPath id="clipPath2_ygc0__73"><path d="M45 196 L538 196 L538 625 L45 625 L45 196 Z" transform="matrix(2.3, 0, 0, 2.3, -67, -414.3)"/></clipPath><clipPath id="clipPath2_ygc0__74"><path d="M45 196 L538 196 L538 625 L45 625 L45 196 Z" transform="matrix(2.3, 0, 0, 2.3, -67, -414.3)"/></clipPath><clipPath id="clipPath2_ygc0__75"><path d="M45 196 L538 196 L538 625 L45 625 L45 196 Z" transform="matrix(2.3, 0, 0, 2.3, -67, -414.3)"/></clipPath><clipPath id="clipPath2_ygc0__76"><path d="M45 196 L538 196 L538 625 L45 625 L45 196 Z" transform="matrix(2.3, 0, 0, 2.3, -67, -414.3)"/></clipPath><clipPath id="clipPath2_ygc0__77"><path d="M45 196 L538 196 L538 625 L45 625 L45 196 Z" transform="matrix(2.3, 0, 0, 2.3, -67, -414.3)"/></clipPath><clipPath id="clipPath2_ygc0__78"><path d="M45 196 L538 196 L538 625 L45 625 L45 196 Z" transform="matrix(2.3, 0, 0, 2.3, -67, -414.3)"/></clipPath></defs><rect width="1207" height="1060" fill="white"/><g><path d="M0.205 0.102 L1205.548 -1.881 L1207.131 1061.055 L-0.202 1059.857" stroke="none" stroke-width="0" fill="rgb(255, 255, 255)"/><path d="M-0.377 -0.58 C475.388 2.452, 950.807 1.738, 1207.327 -0.757 M-0.168 -0.02 C320.827 3.304, 642.259 3.64, 1206.9 -0.194 M1206.743 0.713 C1208.617 252.353, 1208.781 505.917, 1206.944 1059.977 M1207.043 0.319 C1208.752 236.925, 1208.039 474.825, 1206.934 1059.958 M1207.175 1060.099 C847.169 1058.802, 485.612 1059.686, -0.565 1059.503 M1207.168 1060.035 C877.726 1057.888, 549.266 1058.506, -0.067 1059.889 M0.744 1059.308 C-1.912 824.491, -1.162 588.223, 0.288 0.295 M-0.006 1060.175 C-3.97 755.285, -3.613 450.071, -0.036 0.119" stroke="rgb(255, 255, 255)" stroke-width="1" fill="none"/></g><g clip-path="url(#clipPath2_ygc0__1)"><path d="M520.145 289.727 L1050.344 290.186 L1048.334 935.54 L521.589 937.19 L520.17 293.134" stroke="none" stroke-width="0" fill="rgb(203, 203, 255)"/><path d="M520.799 291.287 M520.667 290.835 C667.858 291.427, 816.417 290.109, 1047.831 290.543 M520.633 290.928 C730.163 289.027, 939.507 289.399, 1048.593 290.827 M1047.989 290.921 C1046.589 520.19, 1045.535 750.344, 1047.89 936.489 M1048.497 291.278 C1050.297 468.834, 1050.178 646.63, 1048.455 936.432 M1047.907 937.078 C843.463 935.92, 637.879 936.202, 521.695 936.353 M1048.847 936.515 C882.601 934.781, 717.001 934.685, 520.817 936.873 M520.269 936.575 C522.537 729.159, 521.744 520.194, 521.499 291.123 M520.948 937.004 C521.209 792.425, 520.801 648.858, 520.929 290.979" stroke="rgb(203, 203, 255)" stroke-width="1" fill="none"/></g><g clip-path="url(#clipPath2_ygc0__2)"><path d="M522.311 290.332 L521.988 290.509 L522.514 935.413 L522.795 937.776 L521.927 291.142" stroke="none" stroke-width="0" fill="rgb(255, 255, 255)"/><path d="M520.788 291.155 M520.965 291.025 C521.665 291.179, 522.394 291.081, 523.061 291.082 M523.54 291.539 C525.437 463.824, 525.042 636.001, 523.554 935.986 M523.375 936.445 C522.45 936.424, 521.384 936.623, 521.04 936.753 M521.231 935.897 C523.454 684.831, 523.145 433.854, 520.231 291.714" stroke="rgb(255, 255, 255)" stroke-width="1" fill="none"/></g><g clip-path="url(#clipPath2_ygc0__3)"><path d="M522.752 292.137 L1047.831 292.513 L1047.473 294.844 L524.225 292.997 L521.446 291.548" stroke="none" stroke-width="0" fill="rgb(255, 255, 255)"/><path d="M524.806 290.72 M522.555 291.265 C638.192 292.481, 751.938 293.072, 1045.874 290.714 M1046.331 290.95 C1046.078 292.035, 1046.469 292.673, 1046.225 293.655 M1046.13 292.773 C941.91 293.811, 835.893 294.032, 523.22 293.607 M523.498 293.451 C523.106 292.809, 523.151 292.206, 523.275 291.19" stroke="rgb(255, 255, 255)" stroke-width="1" fill="none"/></g><g clip-path="url(#clipPath2_ygc0__4)"><path d="M524.05 933.416 L1047.308 932.784 L1048.49 936.502 L524.084 935.554 L523.364 932.583" stroke="none" stroke-width="0" fill="rgb(142, 142, 178)"/><path d="M524.215 933.948 M523.126 933.881 C729.777 933.097, 935.183 932.902, 1048.406 934.468 M523.361 934.645 C675.647 933.233, 828.663 933.573, 1048.449 934.484 M1048.768 934.214 C1048.683 934.958, 1048.623 935.927, 1048.793 936.594 M1048.602 934.429 C1048.508 934.826, 1048.503 935.609, 1048.493 936.582 M1049.08 936.304 C862.033 935.522, 676.178 934.726, 522.919 936.054 M1048.886 936.34 C848.442 937.387, 648.184 937.213, 523.471 936.778 M523.251 936.771 C523.359 936.09, 523.401 935.704, 523.086 934.136 M523.374 936.574 C523.218 935.747, 523.286 935.08, 523.334 934.406" stroke="rgb(142, 142, 178)" stroke-width="1" fill="none"/></g><g clip-path="url(#clipPath2_ygc0__5)"><path d="M1045.291 292.715 L1050.315 292.935 L1046.638 933.459 L1047.667 934.216 L1044.982 291.537" stroke="none" stroke-width="0" fill="rgb(142, 142, 178)"/><path d="M1047.127 289.784 M1046.303 291.337 C1046.898 291.363, 1047.181 291.157, 1048.412 291.081 M1048.491 290.742 C1049.466 478.175, 1049.324 665.167, 1048.637 933.862 M1048.796 934.175 C1048.11 934.316, 1047.376 934.485, 1046.508 934.314 M1046.474 933.654 C1046.535 683.935, 1045.881 433.351, 1046.327 290.763" stroke="rgb(142, 142, 178)" stroke-width="1" fill="none"/></g><g clip-path="url(#clipPath2_ygc0__6)"><g class="text-container" transform="matrix(2.3, 0, 0, 2.3, -67, -414.3)"><text x="412.9533" xml:space="preserve" y="323.862" clip-path="url(#clipPath2_ygc0_)" stroke="none" data-sketchy-clip-path="clipPath2_ygc0__6" style="font-style: normal;font-weight: 700;font-size: 12px;font-family: Comic Sans MS, cursive;" stroke-width="1px" fill="rgb(0, 0, 0)" text-anchor="start" dominant-baseline="auto">Frontend </text></g></g><g clip-path="url(#clipPath2_ygc0__7)"><path d="M687.507 132.07 L708.569 73.093 L877.534 71.787 L899.164 131.462 L879.492 189.888 L710.675 190.805 L690.329 133.07" stroke="none" stroke-width="0" fill="rgb(142, 142, 255)"/><path d="M688.297 130.779 M690.481 132.222 C695.543 108.165, 706.06 86.584, 709.894 70.793 M711.334 69.506 C777.063 71.007, 844.987 70.707, 880.501 70.202 M879.688 73.073 C884.588 89.519, 892.942 108.129, 901.76 129.311 M900.903 132.159 C893.204 149.137, 887.618 166.455, 881.263 192.639 M880.015 192.327 C823.346 191.851, 762.406 190.23, 710.578 191.709 M708.382 191.477 C706.15 174.228, 698.966 162.546, 689.681 130.762" stroke="rgb(142, 142, 255)" stroke-width="1" fill="none"/></g><g clip-path="url(#clipPath2_ygc0__8)"><path d="M690.764 131.562 M690.244 132.911 C692.348 118.519, 699.954 102.381, 711.583 71.496 M708.106 69.651 C747.439 70.826, 785.839 71.532, 878.817 69.769 M877.848 71.628 C884.588 86.236, 888.987 99.173, 898.706 132.119 M901.26 132.578 C897.706 144.525, 891.01 157.87, 879.752 189.509 M880.513 189.524 C815.554 193.458, 750.168 190.828, 710.495 189.197 M710.721 191.718 C703.813 175.426, 701.504 160.742, 687.444 130.311" stroke="rgb(0, 0, 0)" stroke-width="2.3" fill="none"/></g><g clip-path="url(#clipPath2_ygc0__9)"><g class="text-container" transform="matrix(2.3, 0, 0, 2.3, -67, -414.3)"><text x="345.1861" xml:space="preserve" y="234.3766" clip-path="url(#clipPath2_ygc0_)" font-family="sans-serif" stroke="none" data-sketchy-clip-path="clipPath2_ygc0__9" style="font-style: normal;font-weight: 400;font-size: 12px;font-family: Comic Sans MS, cursive;" stroke-width="1px" fill="rgb(0, 0, 0)" text-anchor="start" dominant-baseline="auto">Extension</text></g></g><g clip-path="url(#clipPath2_ygc0__10)"><g class="text-container" transform="matrix(2.3, 0, 0, 2.3, -67, -414.3)"><text x="351.5992" xml:space="preserve" y="248.3453" clip-path="url(#clipPath2_ygc0_)" font-family="sans-serif" stroke="none" data-sketchy-clip-path="clipPath2_ygc0__10" style="font-style: normal;font-weight: 400;font-size: 12px;font-family: Comic Sans MS, cursive;" stroke-width="1px" fill="rgb(0, 0, 0)" text-anchor="start" dominant-baseline="auto">Catalog</text></g></g><g clip-path="url(#clipPath2_ygc0__11)"><path d="M570.543 345.933 L1024.145 345.876 L1025.089 350.696 L1028.072 354.954 L1025.615 519.997 L1023.95 522.91 L1020.439 524.75 L565.829 525.002 L565.374 521.302 L562.148 513.003 L559.372 353.749 L565.634 347.309 L572.015 344.515" stroke="none" stroke-width="0" fill="rgb(178, 178, 255)"/><path d="M570.195 345.789 M570.195 345.789 C723.453 344.846, 877.607 344.663, 1019.155 345.789 M1019.155 345.789 C1025.417 345.227, 1029.673 352.488, 1028.355 354.989 M1028.355 354.989 C1026.779 413.526, 1028.752 474.054, 1028.355 514.992 M1028.355 514.992 C1029.613 519.043, 1023.582 525.618, 1019.155 524.192 M1019.155 524.192 C901.494 524.937, 781.65 523.481, 570.195 524.192 M570.195 524.192 C565.52 526.001, 560.8 520.97, 560.995 514.992 M560.995 514.992 C559.775 482.01, 561.546 450.088, 560.995 354.989 M560.995 354.989 C559.655 350.363, 567.941 345.384, 570.195 345.789 M570.195 345.789 C570.195 345.789, 570.195 345.789, 570.195 345.789" stroke="rgb(178, 178, 255)" stroke-width="1" fill="none"/></g><g clip-path="url(#clipPath2_ygc0__12)"><path d="M570.195 345.789 M570.195 345.789 C718.46 346.425, 867.107 347.686, 1019.155 345.789 M570.195 345.789 C698.313 346.482, 826.472 345.773, 1019.155 345.789 M1019.155 345.789 C1023.838 347.355, 1027.948 351.782, 1028.355 354.989 M1019.155 345.789 C1023.135 345.02, 1030.418 349.258, 1028.355 354.989 M1028.355 354.989 C1026.868 399.412, 1025.69 444.641, 1028.355 514.992 M1028.355 354.989 C1029.047 416.805, 1029.382 477.327, 1028.355 514.992 M1028.355 514.992 C1028.007 520.408, 1021.384 526.001, 1019.155 524.192 M1028.355 514.992 C1028.806 518.855, 1022.393 524.665, 1019.155 524.192 M1019.155 524.192 C913.529 523.759, 806.479 523.306, 570.195 524.192 M1019.155 524.192 C865.847 523.392, 712.915 522.604, 570.195 524.192 M570.195 524.192 C564.129 524.419, 561.593 518.267, 560.995 514.992 M570.195 524.192 C565.967 523.213, 561.456 517.012, 560.995 514.992 M560.995 514.992 C561.289 454.986, 561.791 389.924, 560.995 354.989 M560.995 514.992 C560.246 466.826, 560.966 417.954, 560.995 354.989 M560.995 354.989 C562.874 351.357, 566.181 345.298, 570.195 345.789 M560.995 354.989 C558.696 350.812, 564.328 347.549, 570.195 345.789 M570.195 345.789 C570.195 345.789, 570.195 345.789, 570.195 345.789 M570.195 345.789 C570.195 345.789, 570.195 345.789, 570.195 345.789" stroke="rgb(0, 0, 0)" stroke-width="2.3" fill="none"/></g><g clip-path="url(#clipPath2_ygc0__13)"><g class="text-container" transform="matrix(2.3, 0, 0, 2.3, -67, -414.3)"><text x="339.6168" xml:space="preserve" y="347.612" clip-path="url(#clipPath2_ygc0_)" font-family="sans-serif" stroke="none" data-sketchy-clip-path="clipPath2_ygc0__13" style="font-style: normal;font-weight: 400;font-size: 12px;font-family: Comic Sans MS, cursive;" stroke-width="1px" fill="rgb(0, 0, 0)" text-anchor="start" dominant-baseline="auto">Code Editor</text></g></g><g clip-path="url(#clipPath2_ygc0__14)"><path d="M568.881 619.532 L1023.308 621.524 L1024.938 622.246 L1029.728 629.688 L1025.637 902.003 L1027.035 903.349 L1020.145 908.862 L568.475 906.502 L561.972 904.242 L562.379 898.322 L559.937 629.939 L565.46 625.197 L570.344 621.783" stroke="none" stroke-width="0" fill="rgb(178, 178, 255)"/><path d="M570.195 620.792 M570.195 620.792 C698.211 621.517, 826.129 622.335, 1019.155 620.792 M1019.155 620.792 C1025.932 621.935, 1028.39 625.499, 1028.355 629.992 M1028.355 629.992 C1031.612 697.967, 1029.936 764.074, 1028.355 897.712 M1028.355 897.712 C1026.609 903.03, 1024.108 908.789, 1019.155 906.912 M1019.155 906.912 C912.77 905.086, 808.772 905.333, 570.195 906.912 M570.195 906.912 C566.022 907.956, 562.985 903.159, 560.995 897.712 M560.995 897.712 C563.598 811.532, 560.847 728.779, 560.995 629.992 M560.995 629.992 C561.948 623.989, 564.995 620.379, 570.195 620.792 M570.195 620.792 C570.195 620.792, 570.195 620.792, 570.195 620.792" stroke="rgb(178, 178, 255)" stroke-width="1" fill="none"/></g><g clip-path="url(#clipPath2_ygc0__15)"><path d="M570.195 620.792 M570.195 620.792 C665.278 621.626, 760.016 623.056, 1019.155 620.792 M570.195 620.792 C705.472 618.882, 841.651 618.452, 1019.155 620.792 M1019.155 620.792 C1025.347 621.054, 1026.506 627.447, 1028.355 629.992 M1019.155 620.792 C1024.652 619.037, 1029.423 623.939, 1028.355 629.992 M1028.355 629.992 C1029.917 717.496, 1027.395 803.184, 1028.355 897.712 M1028.355 629.992 C1028.23 727.961, 1029.768 825.471, 1028.355 897.712 M1028.355 897.712 C1029.193 902.959, 1021.705 906.622, 1019.155 906.912 M1028.355 897.712 C1028.124 901.162, 1023.027 905.055, 1019.155 906.912 M1019.155 906.912 C881.14 904.807, 743.284 904.75, 570.195 906.912 M1019.155 906.912 C874.119 905.843, 729.667 906.218, 570.195 906.912 M570.195 906.912 C566.266 907.151, 562.051 903.574, 560.995 897.712 M570.195 906.912 C567.295 906.931, 562.28 900.869, 560.995 897.712 M560.995 897.712 C559.738 835.911, 559.521 774.663, 560.995 629.992 M560.995 897.712 C561.713 813.805, 561.449 730.766, 560.995 629.992 M560.995 629.992 C562.775 626.371, 568.028 619.771, 570.195 620.792 M560.995 629.992 C560.902 625.884, 566.456 619.815, 570.195 620.792 M570.195 620.792 C570.195 620.792, 570.195 620.792, 570.195 620.792 M570.195 620.792 C570.195 620.792, 570.195 620.792, 570.195 620.792" stroke="rgb(0, 0, 0)" stroke-width="2.3" fill="none"/></g><g clip-path="url(#clipPath2_ygc0__16)"><g class="text-container" transform="matrix(2.3, 0, 0, 2.3, -67, -414.3)"><text x="336.9332" xml:space="preserve" y="467.1787" clip-path="url(#clipPath2_ygc0_)" font-family="sans-serif" stroke="none" data-sketchy-clip-path="clipPath2_ygc0__16" style="font-style: normal;font-weight: 400;font-size: 12px;font-family: Comic Sans MS, cursive;" stroke-width="1px" fill="rgb(0, 0, 0)" text-anchor="start" dominant-baseline="auto">Visual Editor</text></g></g><g clip-path="url(#clipPath2_ygc0__17)"><path d="M570.31 537.908 L1018.221 538.862 L1023.814 538.466 L1027.192 546.256 L1028.864 590.627 L1025.098 599.289 L1019.214 601.64 L569.906 599.028 L564.861 595.47 L560.017 589.765 L562.531 547.816 L564.678 540.263 L570.505 535.55" stroke="none" stroke-width="0" fill="rgb(178, 178, 255)"/><path d="M570.195 537.149 M570.195 537.149 C721.776 535.095, 873.579 536.237, 1019.155 537.149 M570.195 537.149 C725.956 538.208, 882.435 538.422, 1019.155 537.149 M1019.155 537.149 C1023.792 538.432, 1028.429 542.973, 1028.355 546.349 M1019.155 537.149 C1022.55 536.547, 1026.553 544.429, 1028.355 546.349 M1028.355 546.349 C1029.75 558.652, 1029.178 567.297, 1028.355 590.969 M1028.355 546.349 C1028.326 561.461, 1028.463 576.8, 1028.355 590.969 M1028.355 590.969 C1029.29 595.861, 1024.52 601.035, 1019.155 600.169 M1028.355 590.969 C1026.898 597.591, 1022.9 600.712, 1019.155 600.169 M1019.155 600.169 C858.515 598.722, 700.126 598.906, 570.195 600.169 M1019.155 600.169 C901.493 598.989, 783.595 598.97, 570.195 600.169 M570.195 600.169 C566.436 598.551, 562.765 596.137, 560.995 590.969 M570.195 600.169 C565.286 602.388, 559.284 593.916, 560.995 590.969 M560.995 590.969 C559.379 574.547, 560.206 556.498, 560.995 546.349 M560.995 590.969 C560.336 575.637, 560.899 560.549, 560.995 546.349 M560.995 546.349 C562.908 541.552, 567.248 537.636, 570.195 537.149 M560.995 546.349 C559.057 541.175, 567.373 538.758, 570.195 537.149 M570.195 537.149 C570.195 537.149, 570.195 537.149, 570.195 537.149 M570.195 537.149 C570.195 537.149, 570.195 537.149, 570.195 537.149" stroke="rgb(178, 178, 255)" stroke-width="1" fill="none"/></g><g clip-path="url(#clipPath2_ygc0__18)"><path d="M570.195 537.149 M570.195 537.149 C679.614 535.873, 787.947 535.982, 1019.155 537.149 M1019.155 537.149 C1024.022 538.278, 1029.852 541.179, 1028.355 546.349 M1028.355 546.349 C1026.89 562.907, 1028.099 581.577, 1028.355 590.969 M1028.355 590.969 C1026.439 597.773, 1024.143 599.984, 1019.155 600.169 M1019.155 600.169 C860.703 601.285, 702.48 600.053, 570.195 600.169 M570.195 600.169 C564.564 598.226, 561.479 593.707, 560.995 590.969 M560.995 590.969 C562.129 581.035, 560.266 568.617, 560.995 546.349 M560.995 546.349 C560.319 544.112, 565.529 537.958, 570.195 537.149 M570.195 537.149 C570.195 537.149, 570.195 537.149, 570.195 537.149" stroke="rgb(0, 0, 0)" stroke-width="2.3" fill="none"/></g><g clip-path="url(#clipPath2_ygc0__19)"><g class="text-container" transform="matrix(2.3, 0, 0, 2.3, -67, -414.3)"><text x="336.0309" xml:space="preserve" y="430.812" clip-path="url(#clipPath2_ygc0_)" font-family="sans-serif" stroke="none" data-sketchy-clip-path="clipPath2_ygc0__19" style="font-style: normal;font-weight: 400;font-size: 12px;font-family: Comic Sans MS, cursive;" stroke-width="1px" fill="rgb(0, 0, 0)" text-anchor="start" dominant-baseline="auto">Step Catalog</text></g></g><g clip-path="url(#clipPath2_ygc0__20)"><path d="M595.433 667.491 L835.238 670.339 L842.147 672.337 L844.902 678.976 L845.588 883.469 L842.742 891.538 L834.129 892.061 L595.621 894.923 L586.136 889.917 L585.261 883.172 L584.04 678.579 L587.258 673.946 L594.632 670.917" stroke="none" stroke-width="0" fill="rgb(142, 142, 255)"/><path d="M594.345 669.169 M594.345 669.169 C646.338 669.125, 695.873 671.503, 835.845 669.169 M594.345 669.169 C686.834 668.757, 778.948 669.296, 835.845 669.169 M835.845 669.169 C840.303 670.465, 844.704 675.639, 845.045 678.369 M835.845 669.169 C842.749 669.97, 845.631 674.638, 845.045 678.369 M845.045 678.369 C844.938 751.921, 844.034 826.103, 845.045 884.449 M845.045 678.369 C845.454 750.302, 845.679 821.556, 845.045 884.449 M845.045 884.449 C846.131 891.064, 839.651 892.777, 835.845 893.649 M845.045 884.449 C846.265 888.932, 839.017 892.129, 835.845 893.649 M835.845 893.649 C759.68 894.192, 680.882 895.617, 594.345 893.649 M835.845 893.649 C781.799 894.097, 727.005 894.565, 594.345 893.649 M594.345 893.649 C589.277 894.206, 584.845 889.2, 585.145 884.449 M594.345 893.649 C590.039 893.034, 583.743 887.176, 585.145 884.449 M585.145 884.449 C585.679 809.447, 584.407 736.344, 585.145 678.369 M585.145 884.449 C584.495 829.715, 583.66 775.023, 585.145 678.369 M585.145 678.369 C586.773 675.105, 591.622 668, 594.345 669.169 M585.145 678.369 C586.914 673.162, 592.119 666.99, 594.345 669.169 M594.345 669.169 C594.345 669.169, 594.345 669.169, 594.345 669.169 M594.345 669.169 C594.345 669.169, 594.345 669.169, 594.345 669.169" stroke="rgb(142, 142, 255)" stroke-width="1" fill="none"/></g><g clip-path="url(#clipPath2_ygc0__21)"><path d="M594.345 669.169 M594.345 669.169 C690.369 668.19, 787.114 667.589, 835.845 669.169 M594.345 669.169 C655.522 670.468, 714.907 670.443, 835.845 669.169 M835.845 669.169 C841.917 668.308, 845.599 675.522, 845.045 678.369 M835.845 669.169 C839.305 667.296, 843.354 672.365, 845.045 678.369 M845.045 678.369 C844.54 721.854, 843.297 762.272, 845.045 884.449 M845.045 678.369 C845.529 758.018, 845.574 837.852, 845.045 884.449 M845.045 884.449 C846.454 890.179, 838.875 894.709, 835.845 893.649 M845.045 884.449 C845.099 890.252, 839.051 893.096, 835.845 893.649 M835.845 893.649 C773.007 895.899, 707.967 894.388, 594.345 893.649 M835.845 893.649 C776.791 894.25, 719.436 894.676, 594.345 893.649 M594.345 893.649 C590.889 892.794, 585.528 889.045, 585.145 884.449 M594.345 893.649 C587.818 892.525, 587.185 889.475, 585.145 884.449 M585.145 884.449 C587.755 835.597, 587.046 788.895, 585.145 678.369 M585.145 884.449 C583.976 842.4, 584.433 800.823, 585.145 678.369 M585.145 678.369 C585.245 673.861, 590.394 669.019, 594.345 669.169 M585.145 678.369 C583.439 674.149, 590.516 668.206, 594.345 669.169 M594.345 669.169 C594.345 669.169, 594.345 669.169, 594.345 669.169 M594.345 669.169 C594.345 669.169, 594.345 669.169, 594.345 669.169" stroke="rgb(0, 0, 0)" stroke-width="2.3" fill="none"/></g><g clip-path="url(#clipPath2_ygc0__22)"><g class="text-container" transform="matrix(2.3, 0, 0, 2.3, -67, -414.3)"><text x="302.6789" xml:space="preserve" y="494.3876" clip-path="url(#clipPath2_ygc0_)" font-family="sans-serif" stroke="none" data-sketchy-clip-path="clipPath2_ygc0__22" style="font-style: normal;font-weight: 400;font-size: 12px;font-family: Comic Sans MS, cursive;" stroke-width="1px" fill="rgb(0, 0, 0)" text-anchor="start" dominant-baseline="auto">Main canvas</text></g></g><g clip-path="url(#clipPath2_ygc0__23)"><path d="M864.478 668.781 L1008.372 671.867 L1012.457 672.322 L1013.804 680.224 L1013.307 721.515 L1011.239 724.572 L1005.549 727.163 L860.074 725.781 L856.775 723.697 L855.125 716.152 L856.009 676.975 L856.423 674.089 L865.245 669.9" stroke="none" stroke-width="0" fill="rgb(142, 142, 255)"/><path d="M863.568 669.169 M863.568 669.169 C903.117 668.528, 939.576 666.483, 1005.708 669.169 M863.568 669.169 C919.607 669.15, 975.872 668.16, 1005.708 669.169 M1005.708 669.169 C1011.59 669.833, 1016.226 673.169, 1014.908 678.369 M1005.708 669.169 C1010.251 668.06, 1013.729 673.235, 1014.908 678.369 M1014.908 678.369 C1016.128 687.013, 1013.737 696.292, 1014.908 717.469 M1014.908 678.369 C1015.295 688.878, 1015.353 697.785, 1014.908 717.469 M1014.908 717.469 C1016.642 723.039, 1011.605 728.007, 1005.708 726.669 M1014.908 717.469 C1016.695 724.05, 1011.809 725.801, 1005.708 726.669 M1005.708 726.669 C957.438 725.989, 906.378 726.932, 863.568 726.669 M1005.708 726.669 C974.005 726.96, 942.172 725.474, 863.568 726.669 M863.568 726.669 C858.735 724.711, 853.179 720.911, 854.368 717.469 M863.568 726.669 C858.238 727.256, 852.957 719.886, 854.368 717.469 M854.368 717.469 C853.194 703.756, 856.662 687.201, 854.368 678.369 M854.368 717.469 C853.557 704.381, 854.679 689.352, 854.368 678.369 M854.368 678.369 C854.35 673.491, 859.744 668.542, 863.568 669.169 M854.368 678.369 C853.011 675.672, 859.802 670.986, 863.568 669.169 M863.568 669.169 C863.568 669.169, 863.568 669.169, 863.568 669.169 M863.568 669.169 C863.568 669.169, 863.568 669.169, 863.568 669.169" stroke="rgb(142, 142, 255)" stroke-width="1" fill="none"/></g><g clip-path="url(#clipPath2_ygc0__24)"><path d="M863.568 669.169 M863.568 669.169 C898.629 666.17, 927.866 668.825, 1005.708 669.169 M1005.708 669.169 C1010.035 669.678, 1016.082 673.891, 1014.908 678.369 M1014.908 678.369 C1012.862 687.771, 1013.86 697.977, 1014.908 717.469 M1014.908 717.469 C1015.255 721.384, 1010.319 725.001, 1005.708 726.669 M1005.708 726.669 C957.167 725.047, 909.664 726.131, 863.568 726.669 M863.568 726.669 C856.593 728.514, 852.999 722.235, 854.368 717.469 M854.368 717.469 C855.235 707.854, 852.325 699.718, 854.368 678.369 M854.368 678.369 C853.511 676.045, 859.182 668.874, 863.568 669.169 M863.568 669.169 C863.568 669.169, 863.568 669.169, 863.568 669.169" stroke="rgb(0, 0, 0)" stroke-width="2.3" fill="none"/></g><g clip-path="url(#clipPath2_ygc0__25)"><g class="text-container" transform="matrix(2.3, 0, 0, 2.3, -67, -414.3)"><text x="405.4793" font-size="8px" y="486.3429" clip-path="url(#clipPath2_ygc0_)" font-family="sans-serif" stroke="none" xml:space="preserve" data-sketchy-clip-path="clipPath2_ygc0__25" style="font-style: normal;font-weight: 400;font-size: 8px;font-family: Comic Sans MS, cursive;" stroke-width="1px" fill="rgb(0, 0, 0)" text-anchor="start" dominant-baseline="auto">Step Extension</text></g></g><g clip-path="url(#clipPath2_ygc0__26)"><path d="M864.764 754.216 L1011.073 751.783 L1011.759 755.253 L1016.218 763.667 L1013.753 805.601 L1011.146 809.404 L1005.777 810.524 L861.963 810.274 L856.291 807.58 L854.334 800.651 L856.239 761.357 L859.175 757.698 L862.005 754.025" stroke="none" stroke-width="0" fill="rgb(142, 142, 255)"/><path d="M863.568 752.659 M863.568 752.659 C902.045 754.684, 944.677 752.901, 1005.708 752.659 M863.568 752.659 C896.074 751.506, 928.345 751.344, 1005.708 752.659 M1005.708 752.659 C1012.077 752.66, 1016.081 758.016, 1014.908 761.859 M1005.708 752.659 C1008.687 751.598, 1012.766 756.526, 1014.908 761.859 M1014.908 761.859 C1013.986 775.519, 1014.823 785.073, 1014.908 800.959 M1014.908 761.859 C1014.977 772.502, 1015.035 781.595, 1014.908 800.959 M1014.908 800.959 C1014.077 806.373, 1008.848 811.327, 1005.708 810.159 M1014.908 800.959 C1013.894 807.422, 1011.108 810.194, 1005.708 810.159 M1005.708 810.159 C958.349 810.986, 912.501 811.131, 863.568 810.159 M1005.708 810.159 C958.207 811.562, 910.214 810.01, 863.568 810.159 M863.568 810.159 C859.557 809.044, 856.366 806.357, 854.368 800.959 M863.568 810.159 C858.676 811.878, 855.961 804.391, 854.368 800.959 M854.368 800.959 C854.781 788.094, 855.319 779.89, 854.368 761.859 M854.368 800.959 C854.504 793.854, 853.981 785.875, 854.368 761.859 M854.368 761.859 C853.186 756.148, 860.213 751.155, 863.568 752.659 M854.368 761.859 C852.813 758.405, 857.7 753.144, 863.568 752.659 M863.568 752.659 C863.568 752.659, 863.568 752.659, 863.568 752.659 M863.568 752.659 C863.568 752.659, 863.568 752.659, 863.568 752.659" stroke="rgb(142, 142, 255)" stroke-width="1" fill="none"/></g><g clip-path="url(#clipPath2_ygc0__27)"><path d="M863.568 752.659 M863.568 752.659 C910.633 749.694, 962.376 750.295, 1005.708 752.659 M1005.708 752.659 C1012.583 752.587, 1014.868 755.86, 1014.908 761.859 M1014.908 761.859 C1015.635 774.882, 1015.099 785.351, 1014.908 800.959 M1014.908 800.959 C1015.758 805.813, 1011.633 810.171, 1005.708 810.159 M1005.708 810.159 C960.594 811.236, 912.048 811.031, 863.568 810.159 M863.568 810.159 C860.229 810.74, 853.929 805.091, 854.368 800.959 M854.368 800.959 C855.363 789.906, 853.436 779.582, 854.368 761.859 M854.368 761.859 C852.626 755.869, 860.546 754.042, 863.568 752.659 M863.568 752.659 C863.568 752.659, 863.568 752.659, 863.568 752.659" stroke="rgb(0, 0, 0)" stroke-width="2.3" fill="none"/></g><g clip-path="url(#clipPath2_ygc0__28)"><g class="text-container" transform="matrix(2.3, 0, 0, 2.3, -67, -414.3)"><text x="405.4793" font-size="8px" y="522.6429" clip-path="url(#clipPath2_ygc0_)" font-family="sans-serif" stroke="none" xml:space="preserve" data-sketchy-clip-path="clipPath2_ygc0__28" style="font-style: normal;font-weight: 400;font-size: 8px;font-family: Comic Sans MS, cursive;" stroke-width="1px" fill="rgb(0, 0, 0)" text-anchor="start" dominant-baseline="auto">Step Extension</text></g></g><g clip-path="url(#clipPath2_ygc0__29)"><path d="M861.7 836.706 L1009.952 835.514 L1013.755 841.029 L1013.203 844.405 L1013.847 888.201 L1012.283 891.742 L1006.087 895.021 L861.574 894.258 L858.066 891.195 L853.023 883.952 L856.313 845.768 L856.518 840.739 L862.31 835.272" stroke="none" stroke-width="0" fill="rgb(142, 142, 255)"/><path d="M863.568 836.148 M863.568 836.148 C895.673 836.081, 925.825 834.787, 1005.708 836.148 M1005.708 836.148 C1010.238 835.312, 1013.769 843.114, 1014.908 845.348 M1014.908 845.348 C1015.344 856.701, 1013.36 866.499, 1014.908 884.448 M1014.908 884.448 C1014.081 891.428, 1008.222 893.92, 1005.708 893.648 M1005.708 893.648 C959.985 892.229, 918.718 896.092, 863.568 893.648 M863.568 893.648 C860.415 893.328, 856.034 888.156, 854.368 884.448 M854.368 884.448 C852.932 869.477, 853.367 854.461, 854.368 845.348 M854.368 845.348 C856.164 842.776, 860.745 835.408, 863.568 836.148 M863.568 836.148 C863.568 836.148, 863.568 836.148, 863.568 836.148" stroke="rgb(142, 142, 255)" stroke-width="1" fill="none"/></g><g clip-path="url(#clipPath2_ygc0__30)"><path d="M863.568 836.148 M863.568 836.148 C918.101 836.261, 971.769 837.583, 1005.708 836.148 M1005.708 836.148 C1008.794 834.557, 1014.655 842.741, 1014.908 845.348 M1014.908 845.348 C1015.103 856.645, 1015.364 864.01, 1014.908 884.448 M1014.908 884.448 C1014.266 889.072, 1009.203 893.122, 1005.708 893.648 M1005.708 893.648 C948.786 894.207, 895.437 891.754, 863.568 893.648 M863.568 893.648 C859.629 892.458, 853.295 888.332, 854.368 884.448 M854.368 884.448 C854.745 872.033, 855.335 861.089, 854.368 845.348 M854.368 845.348 C853.581 840.012, 858.747 836.148, 863.568 836.148 M863.568 836.148 C863.568 836.148, 863.568 836.148, 863.568 836.148" stroke="rgb(0, 0, 0)" stroke-width="2.3" fill="none"/></g><g clip-path="url(#clipPath2_ygc0__31)"><g class="text-container" transform="matrix(2.3, 0, 0, 2.3, -67, -414.3)"><text x="405.4793" font-size="8px" y="558.9429" clip-path="url(#clipPath2_ygc0_)" font-family="sans-serif" stroke="none" xml:space="preserve" data-sketchy-clip-path="clipPath2_ygc0__31" style="font-style: normal;font-weight: 400;font-size: 8px;font-family: Comic Sans MS, cursive;" stroke-width="1px" fill="rgb(0, 0, 0)" text-anchor="start" dominant-baseline="auto">Step Extension</text></g></g><g clip-path="url(#clipPath2_ygc0__32)"><path d="M595.366 395.306 L1003.868 394.739 L1010.241 399.161 L1016.218 405.608 L1016.661 489.293 L1012.848 498.798 L1003.726 500.29 L593.401 501.21 L587.784 497.445 L586.046 490.915 L586.406 406.264 L586.795 400.782 L594.683 397.868" stroke="none" stroke-width="0" fill="rgb(142, 142, 255)"/><path d="M594.345 396.312 M594.345 396.312 C678.801 393.887, 764.069 393.565, 1005.708 396.312 M1005.708 396.312 C1012.169 395.046, 1013.368 400.419, 1014.908 405.512 M1014.908 405.512 C1013.576 439.153, 1014.285 469.915, 1014.908 490.612 M1014.908 490.612 C1015.517 494.359, 1008.042 500.314, 1005.708 499.812 M1005.708 499.812 C871.286 502.34, 739.037 501.076, 594.345 499.812 M594.345 499.812 C590.252 500.734, 586.662 495.226, 585.145 490.612 M585.145 490.612 C586.191 460.521, 585.609 427.598, 585.145 405.512 M585.145 405.512 C583.466 402.429, 591.707 396.298, 594.345 396.312 M594.345 396.312 C594.345 396.312, 594.345 396.312, 594.345 396.312" stroke="rgb(142, 142, 255)" stroke-width="1" fill="none"/></g><g clip-path="url(#clipPath2_ygc0__33)"><path d="M594.345 396.312 M594.345 396.312 C693.453 396.81, 793.606 396.692, 1005.708 396.312 M1005.708 396.312 C1011.198 395.99, 1013.141 400.172, 1014.908 405.512 M1014.908 405.512 C1014.9 423.375, 1016.205 441.918, 1014.908 490.612 M1014.908 490.612 C1015.695 495.439, 1011.632 500.747, 1005.708 499.812 M1005.708 499.812 C912.382 499.036, 817.714 499.402, 594.345 499.812 M594.345 499.812 C590.84 500.049, 585.38 494.759, 585.145 490.612 M585.145 490.612 C586.343 463.488, 587.441 436.033, 585.145 405.512 M585.145 405.512 C584.192 399.468, 588.539 394.809, 594.345 396.312 M594.345 396.312 C594.345 396.312, 594.345 396.312, 594.345 396.312" stroke="rgb(0, 0, 0)" stroke-width="2.3" fill="none"/></g><g clip-path="url(#clipPath2_ygc0__34)"><g class="text-container" transform="matrix(2.3, 0, 0, 2.3, -67, -414.3)"><text x="296.9085" xml:space="preserve" y="379.0943" clip-path="url(#clipPath2_ygc0_)" font-family="sans-serif" stroke="none" data-sketchy-clip-path="clipPath2_ygc0__34" style="font-style: normal;font-weight: 400;font-size: 12px;font-family: Comic Sans MS, cursive;" stroke-width="1px" fill="rgb(0, 0, 0)" text-anchor="start" dominant-baseline="auto">Domain Specific Language</text></g></g><g clip-path="url(#clipPath2_ygc0__35)"><path d="M626.179 759.022 L679.589 762.072 L683.723 800.962 L632.49 799.998 L628.901 760.144" stroke="none" stroke-width="0" fill="rgb(216, 216, 255)"/><path d="M627.623 762.635 M628.236 761.915 C645.192 761.324, 659.242 762.178, 679.679 760.129 M678.184 760.726 C681.948 774.637, 685.433 789.656, 684.924 800.943 M686.867 800.382 C670.581 802.392, 652.763 800.99, 632.423 800.901 M631.781 803.66 C632.657 787.977, 628.862 771.372, 629.904 759.661" stroke="rgb(216, 216, 255)" stroke-width="1" fill="none"/></g><g clip-path="url(#clipPath2_ygc0__36)"><path d="M628.269 760.131 M629.873 759.38 C642.488 759.411, 659.865 761.586, 681.541 762.503 M677.904 759.306 C680.639 777.83, 684.506 793.443, 683.617 801.616 M683.385 801.552 C665.245 803.887, 645.708 803.161, 634.212 803.334 M632.282 803.033 C631.031 793.157, 629.955 782.341, 628.402 761.371" stroke="rgb(0, 0, 0)" stroke-width="2.3" fill="none"/></g><g clip-path="url(#clipPath2_ygc0__37)"><g class="text-container" transform="matrix(2.3, 0, 0, 2.3, -67, -414.3)"><text x="305.9951" font-size="8px" y="522.6429" clip-path="url(#clipPath2_ygc0_)" font-family="sans-serif" stroke="none" xml:space="preserve" data-sketchy-clip-path="clipPath2_ygc0__37" style="font-style: normal;font-weight: 400;font-size: 8px;font-family: Comic Sans MS, cursive;" stroke-width="1px" fill="rgb(0, 0, 0)" text-anchor="start" dominant-baseline="auto">step</text></g></g><g clip-path="url(#clipPath2_ygc0__38)"><path d="M727.809 760.086 L780.162 762.644 L784.4 803.542 L734.61 800.97 L727.571 762.713" stroke="none" stroke-width="0" fill="rgb(216, 216, 255)"/><path d="M729.664 761.036 M726.555 762.181 C738.053 759.791, 748.94 760.362, 780.515 760.07 M779.811 759.393 C783.243 773.076, 784.913 787.264, 783.651 800.351 M783.678 800.331 C766.463 801.487, 748.721 799.632, 735.39 801.408 M732.877 802.805 C732.134 792.925, 730.769 782.3, 727.907 762.376" stroke="rgb(216, 216, 255)" stroke-width="1" fill="none"/></g><g clip-path="url(#clipPath2_ygc0__39)"><path d="M728.785 760.376 M726.941 761.493 C745.639 761.818, 763.923 759.696, 780.102 760.302 M779.409 761.77 C783.122 772.043, 781.766 781.205, 784.279 800.075 M785.354 800.969 C775.258 802.585, 762.049 801.338, 733.98 802.938 M734.586 803.26 C733.252 787.765, 730.778 776.745, 726.293 762.794" stroke="rgb(0, 0, 0)" stroke-width="2.3" fill="none"/></g><g clip-path="url(#clipPath2_ygc0__40)"><g class="text-container" transform="matrix(2.3, 0, 0, 2.3, -67, -414.3)"><text x="349.4826" font-size="8px" y="522.6429" clip-path="url(#clipPath2_ygc0_)" font-family="sans-serif" stroke="none" xml:space="preserve" data-sketchy-clip-path="clipPath2_ygc0__40" style="font-style: normal;font-weight: 400;font-size: 8px;font-family: Comic Sans MS, cursive;" stroke-width="1px" fill="rgb(0, 0, 0)" text-anchor="start" dominant-baseline="auto">step</text></g></g><g clip-path="url(#clipPath2_ygc0__41)"><path d="M703.496 846.329 L752.53 845.308 L761.129 886.653 L709.523 884.396 L704.315 843.129" stroke="none" stroke-width="0" fill="rgb(216, 216, 255)"/><path d="M704.319 842.46 M704.318 844.803 C714.099 843.173, 727.298 845.161, 754.266 844.442 M702.896 844.633 C716.048 844.114, 730.111 844.41, 754.763 843.461 M755.914 843.892 C755.541 855.62, 758.218 869.988, 758.18 883.452 M754.56 845.159 C755.873 859.245, 758.091 872.348, 760.789 884.438 M760.387 883.465 C738.802 883.904, 717.384 887.279, 709.3 883.76 M759.256 885.293 C747.806 884.693, 735.556 884.624, 707.673 885.332 M707.856 883.806 C708.819 874.988, 704.557 866.777, 704.503 846.325 M708.454 884.461 C706.207 873.609, 706.098 862.9, 702.815 844.851" stroke="rgb(216, 216, 255)" stroke-width="1" fill="none"/></g><g clip-path="url(#clipPath2_ygc0__42)"><path d="M701.062 844.055 M704.17 846.366 C713.899 843.32, 727.889 845.862, 752.944 844.591 M702.375 845.215 C714.019 845.206, 723.122 844.961, 753.767 843.557 M753.251 843.96 C757.446 856.65, 757.757 871.291, 761.285 886.277 M754.725 843.595 C757.11 855.562, 758.109 868.88, 759.202 886.275 M760.783 886.146 C746.283 883.456, 731.2 886.121, 708.324 887.207 M760.91 885.062 C748.439 885.628, 736.247 884.592, 708.876 886.27 M709.917 886.388 C707.884 875.818, 707.475 869.154, 702.13 842.458 M708.283 885.244 C706.911 874.797, 705.472 865.749, 702.948 843.599" stroke="rgb(0, 0, 0)" stroke-width="2.3" fill="none"/></g><g clip-path="url(#clipPath2_ygc0__43)"><g class="text-container" transform="matrix(2.3, 0, 0, 2.3, -67, -414.3)"><text x="338.4552" font-size="8px" y="558.9429" clip-path="url(#clipPath2_ygc0_)" font-family="sans-serif" stroke="none" xml:space="preserve" data-sketchy-clip-path="clipPath2_ygc0__43" style="font-style: normal;font-weight: 400;font-size: 8px;font-family: Comic Sans MS, cursive;" stroke-width="1px" fill="rgb(0, 0, 0)" text-anchor="start" dominant-baseline="auto">step</text></g></g><g clip-path="url(#clipPath2_ygc0__44)"><path d="M74.672 726.556 L294.457 726.177 L318.906 779.997 L295.924 830.129 L74.049 829.847 L97.093 780.066 L72.09 726.997" stroke="none" stroke-width="0" fill="rgb(255, 203, 229)"/><path d="M72.215 726.731 M74.45 728.483 C151.041 724.589, 228.899 727.19, 293.265 727.437 M292.859 726.444 C303.567 742.62, 310.37 759.031, 318.495 777.248 M317.647 778.934 C311.064 796.401, 301.041 818.122, 296.089 830.6 M293.489 831.426 C220.536 832.499, 148.69 833.077, 72.798 829.944 M73.789 832.065 C79.183 813.589, 88.122 797.604, 97.339 777.261 M99.34 779.23 C93.189 766.698, 85.152 753.343, 73.399 727.816" stroke="rgb(255, 203, 229)" stroke-width="1" fill="none"/></g><g clip-path="url(#clipPath2_ygc0__45)"><path d="M73.34 726.625 M73.606 727.922 C142.381 725.373, 208.29 728.349, 294.351 725.543 M73.905 727.894 C132.947 726.67, 192.89 726.539, 294.39 726.63 M294.75 726.661 C300.057 742.329, 307.064 755.071, 317.423 778.841 M293.885 727.562 C303.212 746.867, 311.907 765.67, 318.487 779.016 M317.89 780.353 C309.943 793.808, 305.048 812.931, 293.038 830.875 M319.856 778.92 C313.358 794.04, 306.244 807.76, 295.116 830.349 M295.645 829.297 C221.98 832.423, 148.233 832.095, 74.162 829.474 M294.012 831.344 C226.284 831.088, 158.534 831.389, 72.32 830.733 M73.029 832.079 C76.603 818.129, 83.234 810.878, 96.413 780.87 M72.702 830.408 C80.737 812.559, 90.829 792.923, 96.944 778.735 M97.447 777.144 C89.933 759.942, 79.266 742.647, 71.934 727.958 M97.409 778.798 C87.876 758.736, 79.271 737.536, 73.215 727.602" stroke="rgb(0, 0, 0)" stroke-width="2.3" fill="none"/></g><g clip-path="url(#clipPath2_ygc0__46)"><path d="M87.911 739.51 L311.742 740.617 L336.918 793.402 L310.072 845.695 L89.175 842.443 L113.415 792.117 L87.889 739.978" stroke="none" stroke-width="0" fill="rgb(255, 203, 229)"/><path d="M90.615 740.783 M90.055 740.094 C167.005 738.532, 240.375 739.103, 311.927 740.54 M309.629 740.058 C321.925 759.859, 330.885 780.638, 336.248 790.312 M336.64 790.199 C326.84 810.961, 318.005 827.649, 308.749 842.004 M310.976 842.953 C252.579 845.098, 196.06 845.627, 90.668 842.684 M88.478 841.736 C96.386 825.674, 105.3 809.138, 113.309 792.843 M114.147 790.9 C106.339 778.365, 101.498 762.944, 89.443 738.61" stroke="rgb(255, 203, 229)" stroke-width="1" fill="none"/></g><g clip-path="url(#clipPath2_ygc0__47)"><path d="M90.511 741.725 M88.441 740.25 C151.067 740.408, 214.665 742.906, 311.169 741.878 M89.604 739.693 C145.11 738.008, 199.754 738.979, 310.097 740.092 M311.436 740.04 C319.816 760, 331.582 782.636, 336.61 791.468 M311.03 740.27 C316.177 750.76, 320.789 763.387, 335.233 791.045 M333.636 792.524 C327.991 803.475, 321.981 817.677, 311.802 844.938 M336.002 792.504 C328.358 808.229, 320.12 825.469, 310.495 843.789 M310.585 845.017 C223.781 845.154, 139.597 845.404, 87.88 845.2 M310.819 842.903 C251.407 842.432, 190.523 841.561, 89.276 842.91 M90.057 845.38 C94.399 829.647, 103.806 815.125, 115.513 791.12 M89.731 844.22 C99.118 823.424, 109.202 803.92, 113.39 792.724 M114.532 790.9 C104.808 773.814, 97.573 758.022, 90.649 742.138 M114.043 792.668 C107.515 776.648, 98.727 761.592, 88.994 739.506" stroke="rgb(0, 0, 0)" stroke-width="2.3" fill="none"/></g><g clip-path="url(#clipPath2_ygc0__48)"><path d="M109.063 754.138 L329.964 755.09 L352.925 805.068 L327.22 856.726 L109.473 858.145 L130.672 806.7 L105.706 752.907" stroke="none" stroke-width="0" fill="rgb(255, 203, 229)"/><path d="M105.93 754.959 M107.593 752.284 C164.383 756.518, 217.903 754.328, 328.931 754.495 M328.642 754.946 C336.575 771.566, 344.485 789.065, 351.946 805.729 M354.73 806.747 C343.498 823.803, 335.666 840.797, 329.429 854.798 M329.487 855.867 C257.746 857.921, 187.493 860.109, 106.314 855.624 M107.552 858.059 C113.802 841.422, 124.004 825.56, 133.8 805.85 M132.675 805.311 C125.508 795.116, 121.662 782.888, 107.795 751.322" stroke="rgb(255, 203, 229)" stroke-width="1" fill="none"/></g><g clip-path="url(#clipPath2_ygc0__49)"><path d="M108.888 752.918 M106.909 751.725 C155.834 752.429, 205.609 752.753, 329.922 753.125 M330.924 754.452 C334.538 769.591, 343.57 785.384, 353.429 804.648 M354.691 803.293 C348.215 820.213, 340.539 836.654, 329.491 855.434 M329.993 855.899 C279.572 857.409, 230.581 855.629, 107.025 855.584 M109.067 854.892 C114.745 841.285, 122.516 828.38, 133.098 803.351 M133.116 804.142 C126.573 789.716, 117.958 772.058, 109.647 752.861" stroke="rgb(0, 0, 0)" stroke-width="2.3" fill="none"/></g><g clip-path="url(#clipPath2_ygc0__50)"><path d="M132.334 765.838 L355.882 767.312 L377.343 818.465 L354.463 869.787 L134.407 869.169 L159.364 817.893 L134.114 766.399" stroke="none" stroke-width="0" fill="rgb(255, 203, 229)"/><path d="M133.225 767.71 M133.193 766.129 C215.858 766.156, 295.005 765.249, 354.758 767.794 M132.734 766.924 C202.237 764.071, 271.793 765.247, 353.588 765.864 M355.957 765.601 C363.132 784.873, 372.122 806.567, 378.858 818.754 M355.323 766.436 C361.216 780.996, 369.551 797.286, 378.256 818.582 M380.3 818.864 C373.858 827.092, 368.638 837.434, 353.791 868.809 M378.179 817.507 C369.383 837.321, 360.321 856.72, 353.915 870.03 M354.521 869.642 C293.183 869.603, 230.543 869.987, 132.262 870.729 M354.147 870.313 C281.886 868.327, 211.081 867.836, 133.338 868.973 M134.115 868.224 C137.914 853.597, 147.193 841.329, 157.047 816.499 M133.278 868.881 C139.701 857.663, 145.693 844.785, 157.521 817.949 M158.53 817.648 C147.341 800.76, 138.792 782.697, 133.53 767.24 M157.676 817.495 C149.982 799.487, 139.977 782.181, 132.735 766.044" stroke="rgb(255, 203, 229)" stroke-width="1" fill="none"/></g><g clip-path="url(#clipPath2_ygc0__51)"><path d="M133.797 766.387 M132.554 767.291 C178.673 767.169, 222.897 769.196, 353.89 766.79 M354.058 765.997 C360.837 782.886, 371.207 799.275, 377.166 816.33 M380.815 819.588 C368.774 839.505, 360.317 859.262, 353.27 867.914 M355.594 869.189 C295.724 868.897, 236.794 869.104, 132.734 870.314 M131.809 869.227 C143.313 850.022, 150.473 834.441, 155.999 817.801 M156.018 817.481 C151.624 804.772, 145.221 790.243, 131.124 767.231" stroke="rgb(0, 0, 0)" stroke-width="2.3" fill="none"/></g><g clip-path="url(#clipPath2_ygc0__52)"><g class="text-container" transform="matrix(2.3, 0, 0, 2.3, -67, -414.3)"><text x="97.0137" xml:space="preserve" y="530.4286" clip-path="url(#clipPath2_ygc0_)" font-family="sans-serif" stroke="none" data-sketchy-clip-path="clipPath2_ygc0__52" style="font-style: normal;font-weight: 400;font-size: 12px;font-family: Comic Sans MS, cursive;" stroke-width="1px" fill="rgb(0, 0, 0)" text-anchor="start" dominant-baseline="auto">ViewDefinition</text></g></g><g clip-path="url(#clipPath2_ygc0__53)"><path d="M177.583 818.23 L358.041 818.583 L381.024 886.38 L195.292 885.445 L178.041 817.495" stroke="none" stroke-width="0" fill="rgb(216, 216, 255)"/><path d="M174.944 814.973 M176.226 817.215 C222.395 814.24, 265.131 814.973, 357.906 815.036 M177.593 816.002 C226.879 816.087, 275.728 816.533, 358.651 817.183 M358.785 817.205 C362.936 832.783, 365.418 844.592, 380.939 886.504 M359.226 816.002 C366.617 840.514, 371.785 864.669, 378.65 886.224 M380.986 885.513 C333.033 883.672, 283.674 883.141, 196.541 885.275 M379.986 886.221 C310.729 885.612, 241.454 884.741, 196.216 886.362 M195.593 884.43 C192.538 862.239, 185.99 838.535, 178.624 818.741 M196.957 886.083 C190.999 865.696, 184.965 846.186, 177.427 816.326" stroke="rgb(216, 216, 255)" stroke-width="1" fill="none"/></g><g clip-path="url(#clipPath2_ygc0__54)"><path d="M177.399 818.208 M175.905 815.159 C230.59 816.637, 287.142 817.228, 357.159 817.545 M357.78 815.582 C365.008 839.599, 371.183 860.276, 377.4 885.939 M378.127 885.753 C321.629 883.497, 264.57 885.84, 195.967 885.285 M196.199 887.191 C188.891 861.178, 182.756 833.815, 175.547 816.833" stroke="rgb(0, 0, 0)" stroke-width="2.3" fill="none"/></g><g clip-path="url(#clipPath2_ygc0__55)"><g class="text-container" transform="matrix(2.3, 0, 0, 2.3, -67, -414.3)"><text x="120.582" xml:space="preserve" y="547.4599" clip-path="url(#clipPath2_ygc0_)" font-family="sans-serif" stroke="none" data-sketchy-clip-path="clipPath2_ygc0__55" style="font-style: normal;font-weight: 400;font-size: 12px;font-family: Comic Sans MS, cursive;" stroke-width="1px" fill="rgb(0, 0, 0)" text-anchor="start" dominant-baseline="auto">extension</text></g></g><g clip-path="url(#clipPath2_ygc0__56)"><g class="text-container" transform="matrix(2.3, 0, 0, 2.3, -67, -414.3)"><text x="144.4619" xml:space="preserve" y="561.4286" clip-path="url(#clipPath2_ygc0_)" font-family="sans-serif" stroke="none" data-sketchy-clip-path="clipPath2_ygc0__56" style="font-style: normal;font-weight: 400;font-size: 12px;font-family: Comic Sans MS, cursive;" stroke-width="1px" fill="rgb(0, 0, 0)" text-anchor="start" dominant-baseline="auto">id</text></g></g><g clip-path="url(#clipPath2_ygc0__57)"><path d="M90.692 592.19 L311.62 592.176 L337.028 646.853 L312.215 698.2 L88.867 698.516 L114.786 644.459 L90.325 591.988" stroke="none" stroke-width="0" fill="rgb(255, 203, 229)"/><path d="M88.937 595.67 M90.195 593.013 C168.745 595.586, 248.482 595.749, 311.668 594.765 M89.103 593.622 C161.255 595.571, 232.023 595.032, 311.16 594.076 M311.967 594.14 C321.685 612.16, 329.333 633.061, 333.413 646.783 M311.221 593.16 C319.357 611.209, 326.253 628.087, 336.132 646.12 M334.594 647.233 C326.402 667.723, 316.121 688.389, 311.623 695.667 M335.552 646.277 C329.262 659.993, 321.525 675.053, 310.294 697.134 M311.821 695.58 C259.151 699.669, 211.275 699.152, 88.736 696.978 M310.907 697.382 C232.713 698.267, 155.833 698.876, 89.173 697.808 M89.991 697.923 C96.759 686.012, 100.656 672.841, 114.98 646.551 M89.759 696.491 C95.566 685.097, 102.033 670.866, 114.324 644.586 M111.974 643.935 C105.822 631.418, 100.165 618.285, 88.812 591.953 M113.252 645.261 C105.058 625.905, 94.624 604.108, 88.967 593.398" stroke="rgb(255, 203, 229)" stroke-width="1" fill="none"/></g><g clip-path="url(#clipPath2_ygc0__58)"><path d="M90.537 594.133 M88.196 593.219 C167.576 593.284, 245.172 593.98, 312.093 592.261 M311.931 593.775 C318.696 615.607, 328.311 632.934, 334.453 646.732 M336.191 645.092 C328.211 657.738, 324.586 672.165, 309.714 697.48 M311.505 695.592 C260.783 696.332, 210.869 695.498, 88.856 696.267 M88.178 697.743 C97.904 684.347, 104.896 671.081, 112.547 644.808 M115.826 643.76 C105.418 629.944, 99.942 617.879, 87.761 592.955" stroke="rgb(0, 0, 0)" stroke-width="2.3" fill="none"/></g><g clip-path="url(#clipPath2_ygc0__59)"><g class="text-container" transform="matrix(2.3, 0, 0, 2.3, -67, -414.3)"><text x="78.0137" xml:space="preserve" y="457.9599" clip-path="url(#clipPath2_ygc0_)" font-family="sans-serif" stroke="none" data-sketchy-clip-path="clipPath2_ygc0__59" style="font-style: normal;font-weight: 400;font-size: 12px;font-family: Comic Sans MS, cursive;" stroke-width="1px" fill="rgb(0, 0, 0)" text-anchor="start" dominant-baseline="auto">ViewDefinition</text></g></g><g clip-path="url(#clipPath2_ygc0__60)"><g class="text-container" transform="matrix(2.3, 0, 0, 2.3, -67, -414.3)"><text x="78.7256" xml:space="preserve" y="471.9287" clip-path="url(#clipPath2_ygc0_)" font-family="sans-serif" stroke="none" data-sketchy-clip-path="clipPath2_ygc0__60" style="font-style: normal;font-weight: 400;font-size: 12px;font-family: Comic Sans MS, cursive;" stroke-width="1px" fill="rgb(0, 0, 0)" text-anchor="start" dominant-baseline="auto">(main canvas)</text></g></g><g clip-path="url(#clipPath2_ygc0__61)"><path d="M794.016 291.15 M794.547 291.429 C796.61 263.456, 795.608 238.641, 793.458 208.021" stroke="rgb(0, 0, 0)" stroke-width="2.3" fill="none"/></g><g clip-path="url(#clipPath2_ygc0__62)"><path d="M793.855 189.473 L784.077 219.147 L794.75 210.905 L807.06 217.868 L796.18 190.975" stroke="none" stroke-width="0" fill="rgb(0, 0, 0)"/><path d="M793.166 189.781 M793.135 192.463 C792.49 200.338, 788.417 207.19, 784.202 216.86 M784.183 218.587 C787.315 215.561, 790.301 212.935, 793.54 211.671 M793.439 211.227 C798.447 213.98, 803.18 218.108, 807.098 218.839 M808.041 217.386 C803.366 208.569, 796.925 197.626, 793.308 192.897" stroke="rgb(0, 0, 0)" stroke-width="1" fill="none"/></g><g clip-path="url(#clipPath2_ygc0__63)"><path d="M756.525 231.831 L831.312 232.929 L829.819 274.422 L756.727 274.355 L755.792 229.359" stroke="none" stroke-width="0" fill="rgb(255, 255, 255)"/><path d="M758.945 231.884 M755.346 230.992 C786.132 231.723, 814.832 232.212, 831.715 231.046 M757.491 230.613 C776.654 231.164, 795.745 232.073, 830.037 230.941 M827.994 232.866 C827.996 244.626, 828.916 260.507, 830.945 271.789 M829.816 231.79 C830.396 243.456, 830.908 256.629, 829.86 272.651 M830.368 272.747 C808.696 271.57, 786.266 273.251, 756.124 271.697 M829.302 273.351 C803.055 273.472, 778.589 272.665, 756.887 271.854 M755.749 272.115 C756.004 261.545, 759.192 253.931, 758.146 230.298 M757.76 273.226 C756.74 261.915, 757.735 249.267, 757.586 230.458" stroke="rgb(255, 255, 255)" stroke-width="1" fill="none"/></g><g clip-path="url(#clipPath2_ygc0__64)"><g class="text-container" transform="matrix(2.3, 0, 0, 2.3, -67, -414.3)"><text x="360.3914" xml:space="preserve" y="293.7793" clip-path="url(#clipPath2_ygc0_)" font-family="sans-serif" stroke="none" data-sketchy-clip-path="clipPath2_ygc0__64" style="font-style: normal;font-weight: 400;font-size: 12px;font-family: Comic Sans MS, cursive;" stroke-width="1px" fill="rgb(0, 0, 0)" text-anchor="start" dominant-baseline="auto">uses</text></g></g><g clip-path="url(#clipPath2_ygc0__65)"><path d="M899.582 129.394 M900.153 130.269 C988.992 134.65, 1078.356 133.285, 1135.281 132.775 M1134.99 131.992 C1133.021 354.182, 1133.541 577.233, 1134.06 698.386 M1136.517 698.7 C1094.688 699.437, 1059.284 698.137, 1033.995 696.042" stroke="rgb(0, 0, 0)" stroke-width="2.3" fill="none"/></g><g clip-path="url(#clipPath2_ygc0__66)"><path d="M1016.458 699.789 L1042.504 707.868 L1036.318 696.241 L1040.751 684.964 L1015.518 696.368" stroke="none" stroke-width="0" fill="rgb(0, 0, 0)"/><path d="M1014.206 695.979 M1016.843 698.689 C1025.731 703.74, 1036.575 704.763, 1041.459 707.99 M1041.7 709.375 C1041.307 707.532, 1040.395 705.759, 1035.915 696.681 M1035.914 699.02 C1038.266 693.499, 1038.732 690.246, 1042.671 685.955 M1041.365 685.812 C1034.77 690.43, 1026.472 693.973, 1014.857 696.53" stroke="rgb(0, 0, 0)" stroke-width="1" fill="none"/></g><g clip-path="url(#clipPath2_ygc0__67)"><path d="M900.822 129.739 M901.419 132.779 C958.798 131.525, 1014.592 134.095, 1135.474 130.744 M899.627 131.709 C954.161 131.231, 1009.136 130.291, 1134.557 131.634 M1135.404 131.6 C1134.55 375.033, 1135.271 618.051, 1134.26 781.846 M1134.935 131.207 C1134.138 297.584, 1134.46 464.349, 1135.193 781.353 M1133.281 782.794 C1097.934 781.851, 1059.327 780.109, 1034.282 780.995 M1133.998 782.274 C1095.238 781.358, 1056.73 781.856, 1032.885 781.975" stroke="rgb(0, 0, 0)" stroke-width="2.3" fill="none"/></g><g clip-path="url(#clipPath2_ygc0__68)"><path d="M1016.665 779.574 L1044.418 793.911 L1034.804 781.574 L1043.956 768.155 L1014.298 782.195" stroke="none" stroke-width="0" fill="rgb(0, 0, 0)"/><path d="M1016.148 780.305 M1015.438 782.447 C1024.389 785.825, 1031.642 786.49, 1041.547 791.882 M1015.006 781.36 C1020.744 782.91, 1028.125 786.805, 1041.791 792.446 M1042.026 793.524 C1039.308 789.701, 1037.465 784.161, 1036.192 780.82 M1042.204 793.482 C1040.361 788.387, 1037.422 784.25, 1035.063 780.758 M1034.579 781.355 C1038.803 776.335, 1040.089 773.427, 1041.962 771.237 M1035.156 781.815 C1037.374 778.903, 1039.777 775.904, 1042.482 769.514 M1041.534 769.223 C1034.614 774.451, 1026.313 778.808, 1013.847 781.57 M1043.182 769.087 C1032.846 773.464, 1020.695 779.513, 1015.741 782.185" stroke="rgb(0, 0, 0)" stroke-width="1" fill="none"/></g><g clip-path="url(#clipPath2_ygc0__69)"><path d="M901.989 133.093 M899.114 132.593 C949.706 134.609, 997.797 132.829, 1133.725 132.455 M1135.093 131.48 C1132.411 392.37, 1132.848 652.385, 1134.512 864.607 M1135.645 863.31 C1111.097 865.157, 1087.595 865.232, 1033.834 864.228" stroke="rgb(0, 0, 0)" stroke-width="2.3" fill="none"/></g><g clip-path="url(#clipPath2_ygc0__70)"><path d="M1016.813 863.375 L1043.576 877.529 L1036.393 863.889 L1040.751 852.484 L1016.246 864.719" stroke="none" stroke-width="0" fill="rgb(0, 0, 0)"/><path d="M1015.034 866.465 M1012.935 866.144 C1023.757 869.572, 1032.909 870.044, 1040.905 876.829 M1042.199 877.569 C1039.791 873.934, 1039.546 870.441, 1035.157 863.651 M1035.486 864.34 C1038.514 861.213, 1039.869 856.242, 1041.538 853.735 M1042.536 854.824 C1029.823 856.564, 1018.774 861.574, 1014.735 863.293" stroke="rgb(0, 0, 0)" stroke-width="1" fill="none"/></g><g clip-path="url(#clipPath2_ygc0__71)"><path d="M940.115 110.563 L1007.822 110.278 L1009.994 152.491 L941.594 149.972 L940.15 111.452" stroke="none" stroke-width="0" fill="rgb(255, 255, 255)"/><path d="M938.87 109.002 M940.335 111.918 C964.9 110.587, 993.919 108.693, 1007.606 108.699 M939.439 109.895 C957.645 111.782, 976.232 112.112, 1008.629 110.992 M1008.46 110.727 C1008.76 118.704, 1007.147 131.235, 1008.987 151.104 M1009.136 109.699 C1007.151 123.569, 1008.824 135.317, 1009.078 150.941 M1009.051 153.732 C991.172 149.852, 970.993 151.25, 940.379 151.915 M1007.667 151.141 C986.389 151.801, 965.576 152.397, 940.85 152.407 M938.501 151.46 C940.96 136.869, 938.673 121.035, 941.936 109.141 M939.718 152.623 C941.021 135.886, 940.422 120.262, 940.737 111.055" stroke="rgb(255, 255, 255)" stroke-width="1" fill="none"/></g><g clip-path="url(#clipPath2_ygc0__72)"><g class="text-container" transform="matrix(2.3, 0, 0, 2.3, -67, -414.3)"><text x="439.8827" xml:space="preserve" y="241.361" clip-path="url(#clipPath2_ygc0_)" font-family="sans-serif" stroke="none" data-sketchy-clip-path="clipPath2_ygc0__72" style="font-style: normal;font-weight: 400;font-size: 12px;font-family: Comic Sans MS, cursive;" stroke-width="1px" fill="rgb(0, 0, 0)" text-anchor="start" dominant-baseline="auto">load</text></g></g><g clip-path="url(#clipPath2_ygc0__73)"><path d="M657.241 759.623 M656.955 759.232 C657.897 750.58, 657.061 743.814, 657.4 738.03 M658.375 736.488 C706.939 737.76, 757.494 736.987, 822.548 737.978 M823.902 737.558 C821.754 726.235, 822.065 717.136, 822.648 698.41 M825.117 699.66 C833.159 696.184, 839.662 698.299, 852.692 696.29" stroke="rgb(0, 0, 0)" stroke-width="2.3" fill="none" stroke-dasharray="9.2 6.9 0.5 6.9"/></g><g clip-path="url(#clipPath2_ygc0__74)"><path d="M683.496 781.921 M684.465 782.725 C696.518 781.256, 708.016 783.082, 729.559 780.877 M681.593 781.822 C699.966 780.769, 718.339 780.497, 730.377 781.848" stroke="rgb(0, 0, 0)" stroke-width="2.3" fill="none"/></g><g clip-path="url(#clipPath2_ygc0__75)"><path d="M781.865 780.157 M780.614 781.812 C799.382 779.718, 818.598 782.245, 853.957 782.366" stroke="rgb(0, 0, 0)" stroke-width="2.3" fill="none" stroke-dasharray="9.2 6.9 0.5 6.9"/></g><g clip-path="url(#clipPath2_ygc0__76)"><path d="M758.076 863.401 M758.027 865.728 C779.982 865.831, 805.355 867.1, 852.778 866.515" stroke="rgb(0, 0, 0)" stroke-width="2.3" fill="none" stroke-dasharray="9.2 6.9 0.5 6.9"/></g><g clip-path="url(#clipPath2_ygc0__77)"><path d="M277.199 885.967 M276.948 885.463 C276.155 923.814, 275.853 962.287, 277.481 986.37 M278.564 987.705 C469.833 987.31, 660.167 986.186, 935.436 986.923 M934.866 986.132 C935.806 949.448, 934.315 913.72, 935.941 891.975" stroke="rgb(0, 0, 0)" stroke-width="2.3" fill="none" stroke-dasharray="9.2 6.9 0.5 6.9"/></g><g clip-path="url(#clipPath2_ygc0__78)"><path d="M335.15 647.415 M333.574 644.589 C360.209 646.523, 386.563 645.965, 436.354 647.506 M334.516 645.833 C359.955 644.915, 384.949 645.097, 436.58 645.243 M436.022 643.856 C437.728 692.667, 435.507 741.68, 435.743 782.551 M435.879 644.862 C435.774 690.873, 434.907 736.128, 436.373 780.473 M437.169 781.606 C492.027 780.175, 551.079 782.813, 583.784 781.461 M437.207 780.844 C474.149 781.334, 512.759 780.624, 586.067 781.669" stroke="rgb(0, 0, 0)" stroke-width="2.3" fill="none" stroke-dasharray="9.2 6.9 0.5 6.9"/></g></svg>