<?xml version="1.0" encoding="UTF-8"?><svg xmlns="http://www.w3.org/2000/svg" xmlns:xlink="http://www.w3.org/1999/xlink" fill-opacity="1" color-rendering="auto" color-interpolation="auto" text-rendering="auto" stroke="black" stroke-linecap="square" width="817" stroke-miterlimit="10" shape-rendering="auto" stroke-opacity="1" fill="black" stroke-dasharray="none" font-weight="normal" stroke-width="1" height="408" font-family="'Dialog'" font-style="normal" stroke-linejoin="miter" font-size="12px" stroke-dashoffset="0" image-rendering="auto">
  <!--Generated by ySVG 2.5-->
  <defs id="genericDefs"/>
  <g>
    <defs id="defs1">
      <linearGradient x1="1242.0094" gradientUnits="userSpaceOnUse" x2="1320.8093" y1="356.3116" y2="356.3116" id="linearGradient1" spreadMethod="reflect">
        <stop stop-opacity="1" stop-color="rgb(254,224,204)" offset="0%"/>
        <stop stop-opacity="0.3961" stop-color="rgb(253,152,85)" offset="100%"/>
      </linearGradient>
      <linearGradient x1="1242.0094" gradientUnits="userSpaceOnUse" x2="1320.8093" y1="301.773" y2="301.773" id="linearGradient2" spreadMethod="reflect">
        <stop stop-opacity="1" stop-color="rgb(254,224,204)" offset="0%"/>
        <stop stop-opacity="0.3961" stop-color="rgb(253,152,85)" offset="100%"/>
      </linearGradient>
      <linearGradient x1="1240.5094" gradientUnits="userSpaceOnUse" x2="1319.3093" y1="172" y2="172" id="linearGradient3" spreadMethod="reflect">
        <stop stop-opacity="1" stop-color="rgb(254,224,204)" offset="0%"/>
        <stop stop-opacity="0.3961" stop-color="rgb(253,152,85)" offset="100%"/>
      </linearGradient>
      <linearGradient x1="1242.0094" gradientUnits="userSpaceOnUse" x2="1320.8093" y1="431.4782" y2="431.4782" id="linearGradient4" spreadMethod="reflect">
        <stop stop-opacity="1" stop-color="rgb(254,224,204)" offset="0%"/>
        <stop stop-opacity="0.3961" stop-color="rgb(253,152,85)" offset="100%"/>
      </linearGradient>
      <linearGradient x1="1242.0094" gradientUnits="userSpaceOnUse" x2="1320.8093" y1="305.0868" y2="305.0868" id="linearGradient5" spreadMethod="reflect">
        <stop stop-opacity="1" stop-color="rgb(254,224,204)" offset="0%"/>
        <stop stop-opacity="0.3961" stop-color="rgb(253,152,85)" offset="100%"/>
      </linearGradient>
      <linearGradient x1="1240.5094" gradientUnits="userSpaceOnUse" x2="1319.3093" y1="174.1692" y2="174.1692" id="linearGradient6" spreadMethod="reflect">
        <stop stop-opacity="1" stop-color="rgb(254,224,204)" offset="0%"/>
        <stop stop-opacity="0.3961" stop-color="rgb(253,152,85)" offset="100%"/>
      </linearGradient>
      <linearGradient x1="1242.0094" gradientUnits="userSpaceOnUse" x2="1320.8093" y1="363.3063" y2="363.3063" id="linearGradient7" spreadMethod="reflect">
        <stop stop-opacity="1" stop-color="rgb(254,224,204)" offset="0%"/>
        <stop stop-opacity="0.3961" stop-color="rgb(253,152,85)" offset="100%"/>
      </linearGradient>
      <linearGradient x1="1242.0094" gradientUnits="userSpaceOnUse" x2="1320.8093" y1="363.3063" y2="363.3063" id="linearGradient8" spreadMethod="reflect">
        <stop stop-opacity="1" stop-color="rgb(254,224,204)" offset="0%"/>
        <stop stop-opacity="0.3961" stop-color="rgb(253,152,85)" offset="100%"/>
      </linearGradient>
      <linearGradient x1="1242.0094" gradientUnits="userSpaceOnUse" x2="1320.8093" y1="366.6201" y2="366.6201" id="linearGradient9" spreadMethod="reflect">
        <stop stop-opacity="1" stop-color="rgb(254,224,204)" offset="0%"/>
        <stop stop-opacity="0.3961" stop-color="rgb(253,152,85)" offset="100%"/>
      </linearGradient>
      <linearGradient x1="1242.0094" gradientUnits="userSpaceOnUse" x2="1320.8093" y1="435.8565" y2="435.8565" id="linearGradient10" spreadMethod="reflect">
        <stop stop-opacity="1" stop-color="rgb(254,224,204)" offset="0%"/>
        <stop stop-opacity="0.3961" stop-color="rgb(253,152,85)" offset="100%"/>
      </linearGradient>
      <linearGradient x1="1532.9427" gradientUnits="userSpaceOnUse" x2="1657.6094" y1="112.8333" y2="112.8333" id="linearGradient11" spreadMethod="reflect">
        <stop stop-opacity="1" stop-color="rgb(255,203,229)" offset="0%"/>
        <stop stop-opacity="1" stop-color="rgb(203,203,255)" offset="100%"/>
      </linearGradient>
      <linearGradient x1="1534.9427" gradientUnits="userSpaceOnUse" x2="1659.6094" y1="299.6667" y2="299.6667" id="linearGradient12" spreadMethod="reflect">
        <stop stop-opacity="1" stop-color="rgb(255,203,229)" offset="0%"/>
        <stop stop-opacity="1" stop-color="rgb(203,203,255)" offset="100%"/>
      </linearGradient>
      <linearGradient x1="1040.276" gradientUnits="userSpaceOnUse" x2="1115.6094" y1="191.3" y2="191.3" id="linearGradient13" spreadMethod="reflect">
        <stop stop-opacity="1" stop-color="rgb(254,224,204)" offset="0%"/>
        <stop stop-opacity="0.3961" stop-color="rgb(253,152,85)" offset="100%"/>
      </linearGradient>
      <linearGradient x1="1040.276" gradientUnits="userSpaceOnUse" x2="1115.6094" y1="357.6583" y2="357.6583" id="linearGradient14" spreadMethod="reflect">
        <stop stop-opacity="1" stop-color="rgb(254,224,204)" offset="0%"/>
        <stop stop-opacity="0.3961" stop-color="rgb(253,152,85)" offset="100%"/>
      </linearGradient>
      <clipPath clipPathUnits="userSpaceOnUse" id="clipPath1">
        <path d="M0 0 L817 0 L817 408 L0 408 L0 0 Z"/>
      </clipPath>
      <clipPath clipPathUnits="userSpaceOnUse" id="clipPath2">
        <path d="M987 97 L1804 97 L1804 505 L987 505 L987 97 Z"/>
      </clipPath>
    </defs>
    <g fill="rgb(255,203,229)" text-rendering="geometricPrecision" shape-rendering="geometricPrecision" transform="matrix(1,0,0,1,-987,-97)" stroke="rgb(255,203,229)">
      <rect x="1181.1094" width="224" height="376.9" y="112.8333" clip-path="url(#clipPath2)" stroke="none"/>
    </g>
    <g fill="white" text-rendering="geometricPrecision" shape-rendering="geometricPrecision" transform="matrix(1,0,0,1,-987,-97)" stroke="white">
      <rect x="1181.1094" width="1" height="376.9" y="112.8333" clip-path="url(#clipPath2)" stroke="none"/>
      <rect x="1182.1094" width="222" height="1" y="112.8333" clip-path="url(#clipPath2)" stroke="none"/>
      <rect x="1182.1094" y="488.7333" clip-path="url(#clipPath2)" fill="rgb(178,142,160)" width="223" height="1" stroke="none"/>
      <rect x="1404.1094" y="112.8333" clip-path="url(#clipPath2)" fill="rgb(178,142,160)" width="1" height="375.9" stroke="none"/>
    </g>
    <g stroke-linecap="butt" transform="matrix(1,0,0,1,-987,-97)" text-rendering="geometricPrecision" font-family="sans-serif" shape-rendering="geometricPrecision" font-weight="bold" stroke-miterlimit="1.45">
      <text x="1187.1094" xml:space="preserve" y="129.972" clip-path="url(#clipPath2)" stroke="none">Backend</text>
    </g>
    <g fill="url(#linearGradient1)" text-rendering="geometricPrecision" shape-rendering="geometricPrecision" transform="matrix(1,0,0,1,-987,-97)" stroke="url(#linearGradient1)">
      <rect x="1202.6094" y="356.3116" clip-path="url(#clipPath2)" width="118.2" rx="4" ry="4" height="31.5333" stroke="none"/>
    </g>
    <g text-rendering="geometricPrecision" stroke-miterlimit="1.45" shape-rendering="geometricPrecision" transform="matrix(1,0,0,1,-987,-97)" stroke-linecap="butt">
      <rect x="1202.6094" y="356.3116" clip-path="url(#clipPath2)" fill="none" width="118.2" rx="4" ry="4" height="31.5333"/>
      <text x="1237.8187" font-size="8px" y="374.8478" clip-path="url(#clipPath2)" font-family="sans-serif" stroke="none" xml:space="preserve">StepService</text>
      <rect x="1190.6094" y="141" clip-path="url(#clipPath2)" fill="none" width="139.2" rx="4" ry="4" height="338.3333"/>
      <text x="1234.9086" xml:space="preserve" y="158.1387" clip-path="url(#clipPath2)" font-family="sans-serif" stroke="none">Services</text>
    </g>
    <g fill="rgb(254,224,204)" text-rendering="geometricPrecision" shape-rendering="geometricPrecision" transform="matrix(1,0,0,1,-987,-97)" stroke="rgb(254,224,204)">
      <rect x="1201.1094" y="247.2343" clip-path="url(#clipPath2)" width="118.2" rx="4" ry="4" height="31.5333" stroke="none"/>
    </g>
    <g text-rendering="geometricPrecision" stroke-miterlimit="1.45" shape-rendering="geometricPrecision" transform="matrix(1,0,0,1,-987,-97)" stroke-linecap="butt">
      <rect x="1201.1094" y="247.2343" clip-path="url(#clipPath2)" fill="none" width="118.2" rx="4" ry="4" height="31.5333"/>
      <text x="1216.4769" font-size="8px" y="265.7705" clip-path="url(#clipPath2)" font-family="sans-serif" stroke="none" xml:space="preserve">ViewDefinitionService</text>
    </g>
    <g fill="url(#linearGradient2)" text-rendering="geometricPrecision" shape-rendering="geometricPrecision" transform="matrix(1,0,0,1,-987,-97)" stroke="url(#linearGradient2)">
      <rect x="1202.6094" y="301.773" clip-path="url(#clipPath2)" width="118.2" rx="4" ry="4" height="31.5333" stroke="none"/>
    </g>
    <g text-rendering="geometricPrecision" stroke-miterlimit="1.45" shape-rendering="geometricPrecision" transform="matrix(1,0,0,1,-987,-97)" stroke-linecap="butt">
      <rect x="1202.6094" y="301.773" clip-path="url(#clipPath2)" fill="none" width="118.2" rx="4" ry="4" height="31.5333"/>
      <text x="1206.8275" xml:space="preserve" y="321.6939" clip-path="url(#clipPath2)" font-family="sans-serif" stroke="none">StepParserService</text>
    </g>
    <g fill="url(#linearGradient3)" text-rendering="geometricPrecision" shape-rendering="geometricPrecision" transform="matrix(1,0,0,1,-987,-97)" stroke="url(#linearGradient3)">
      <rect x="1201.1094" y="172" clip-path="url(#clipPath2)" width="118.2" rx="4" ry="4" height="31.5333" stroke="none"/>
    </g>
    <g text-rendering="geometricPrecision" stroke-miterlimit="1.45" shape-rendering="geometricPrecision" transform="matrix(1,0,0,1,-987,-97)" stroke-linecap="butt">
      <rect x="1201.1094" y="172" clip-path="url(#clipPath2)" fill="none" width="118.2" rx="4" ry="4" height="31.5333"/>
    </g>
    <g fill="url(#linearGradient4)" text-rendering="geometricPrecision" shape-rendering="geometricPrecision" transform="matrix(1,0,0,1,-987,-97)" stroke="url(#linearGradient4)">
      <rect x="1202.6094" y="431.4783" clip-path="url(#clipPath2)" width="118.2" rx="4" ry="4" height="31.5333" stroke="none"/>
    </g>
    <g text-rendering="geometricPrecision" stroke-miterlimit="1.45" shape-rendering="geometricPrecision" transform="matrix(1,0,0,1,-987,-97)" stroke-linecap="butt">
      <rect x="1202.6094" y="431.4783" clip-path="url(#clipPath2)" fill="none" width="118.2" rx="4" ry="4" height="31.5333"/>
      <text x="1222.4594" font-size="8px" y="450.0145" clip-path="url(#clipPath2)" font-family="sans-serif" stroke="none" xml:space="preserve">DeploymentService</text>
    </g>
    <g fill="url(#linearGradient5)" text-rendering="geometricPrecision" shape-rendering="geometricPrecision" transform="matrix(1,0,0,1,-987,-97)" stroke="url(#linearGradient5)">
      <rect x="1202.6094" y="305.0868" clip-path="url(#clipPath2)" width="118.2" rx="4" ry="4" height="31.5333" stroke="none"/>
    </g>
    <g text-rendering="geometricPrecision" stroke-miterlimit="1.45" shape-rendering="geometricPrecision" transform="matrix(1,0,0,1,-987,-97)" stroke-linecap="butt">
      <rect x="1202.6094" y="305.0868" clip-path="url(#clipPath2)" fill="none" width="118.2" rx="4" ry="4" height="31.5333"/>
      <text x="1206.8275" xml:space="preserve" y="325.0078" clip-path="url(#clipPath2)" font-family="sans-serif" stroke="none">StepParserService</text>
    </g>
    <g fill="rgb(254,224,204)" text-rendering="geometricPrecision" shape-rendering="geometricPrecision" transform="matrix(1,0,0,1,-987,-97)" stroke="rgb(254,224,204)">
      <rect x="1202.6094" y="308.5896" clip-path="url(#clipPath2)" width="118.2" rx="4" ry="4" height="31.5333" stroke="none"/>
    </g>
    <g text-rendering="geometricPrecision" stroke-miterlimit="1.45" shape-rendering="geometricPrecision" transform="matrix(1,0,0,1,-987,-97)" stroke-linecap="butt">
      <rect x="1202.6094" y="308.5896" clip-path="url(#clipPath2)" fill="none" width="118.2" rx="4" ry="4" height="31.5333"/>
      <text x="1225.1215" font-size="8px" y="327.1258" clip-path="url(#clipPath2)" font-family="sans-serif" stroke="none" xml:space="preserve">StepParserService</text>
    </g>
    <g fill="url(#linearGradient6)" text-rendering="geometricPrecision" shape-rendering="geometricPrecision" transform="matrix(1,0,0,1,-987,-97)" stroke="url(#linearGradient6)">
      <rect x="1201.1094" y="174.1692" clip-path="url(#clipPath2)" width="118.2" rx="4" ry="4" height="31.5333" stroke="none"/>
    </g>
    <g text-rendering="geometricPrecision" stroke-miterlimit="1.45" shape-rendering="geometricPrecision" transform="matrix(1,0,0,1,-987,-97)" stroke-linecap="butt">
      <rect x="1201.1094" y="174.1692" clip-path="url(#clipPath2)" fill="none" width="118.2" rx="4" ry="4" height="31.5333"/>
    </g>
    <g fill="rgb(254,224,204)" text-rendering="geometricPrecision" shape-rendering="geometricPrecision" transform="matrix(1,0,0,1,-987,-97)" stroke="rgb(254,224,204)">
      <rect x="1201.1094" y="176.6491" clip-path="url(#clipPath2)" width="118.2" rx="4" ry="4" height="31.5333" stroke="none"/>
    </g>
    <g text-rendering="geometricPrecision" stroke-miterlimit="1.45" shape-rendering="geometricPrecision" transform="matrix(1,0,0,1,-987,-97)" stroke-linecap="butt">
      <rect x="1201.1094" y="176.6491" clip-path="url(#clipPath2)" fill="none" width="118.2" rx="4" ry="4" height="31.5333"/>
      <text x="1203.7797" font-size="8px" y="195.1853" clip-path="url(#clipPath2)" font-family="sans-serif" stroke="none" xml:space="preserve">ViewDefinitionParserService</text>
    </g>
    <g fill="url(#linearGradient7)" text-rendering="geometricPrecision" shape-rendering="geometricPrecision" transform="matrix(1,0,0,1,-987,-97)" stroke="url(#linearGradient7)">
      <rect x="1202.6094" y="363.3063" clip-path="url(#clipPath2)" width="118.2" rx="4" ry="4" height="31.5333" stroke="none"/>
    </g>
    <g text-rendering="geometricPrecision" stroke-miterlimit="1.45" shape-rendering="geometricPrecision" transform="matrix(1,0,0,1,-987,-97)" stroke-linecap="butt">
      <rect x="1202.6094" y="363.3063" clip-path="url(#clipPath2)" fill="none" width="118.2" rx="4" ry="4" height="31.5333"/>
      <text x="1237.8187" font-size="8px" y="381.8425" clip-path="url(#clipPath2)" font-family="sans-serif" stroke="none" xml:space="preserve">StepService</text>
    </g>
    <g fill="url(#linearGradient8)" text-rendering="geometricPrecision" shape-rendering="geometricPrecision" transform="matrix(1,0,0,1,-987,-97)" stroke="url(#linearGradient8)">
      <rect x="1202.6094" y="363.3063" clip-path="url(#clipPath2)" width="118.2" rx="4" ry="4" height="31.5333" stroke="none"/>
    </g>
    <g text-rendering="geometricPrecision" stroke-miterlimit="1.45" shape-rendering="geometricPrecision" transform="matrix(1,0,0,1,-987,-97)" stroke-linecap="butt">
      <rect x="1202.6094" y="363.3063" clip-path="url(#clipPath2)" fill="none" width="118.2" rx="4" ry="4" height="31.5333"/>
      <text x="1237.8187" font-size="8px" y="381.8425" clip-path="url(#clipPath2)" font-family="sans-serif" stroke="none" xml:space="preserve">StepService</text>
    </g>
    <g fill="url(#linearGradient9)" text-rendering="geometricPrecision" shape-rendering="geometricPrecision" transform="matrix(1,0,0,1,-987,-97)" stroke="url(#linearGradient9)">
      <rect x="1202.6094" y="366.6201" clip-path="url(#clipPath2)" width="118.2" rx="4" ry="4" height="31.5333" stroke="none"/>
    </g>
    <g text-rendering="geometricPrecision" stroke-miterlimit="1.45" shape-rendering="geometricPrecision" transform="matrix(1,0,0,1,-987,-97)" stroke-linecap="butt">
      <rect x="1202.6094" y="366.6201" clip-path="url(#clipPath2)" fill="none" width="118.2" rx="4" ry="4" height="31.5333"/>
      <text x="1237.8187" font-size="8px" y="385.1563" clip-path="url(#clipPath2)" font-family="sans-serif" stroke="none" xml:space="preserve">StepService</text>
    </g>
    <g fill="url(#linearGradient10)" text-rendering="geometricPrecision" shape-rendering="geometricPrecision" transform="matrix(1,0,0,1,-987,-97)" stroke="url(#linearGradient10)">
      <rect x="1202.6094" y="435.8565" clip-path="url(#clipPath2)" width="118.2" rx="4" ry="4" height="31.5333" stroke="none"/>
    </g>
    <g text-rendering="geometricPrecision" stroke-miterlimit="1.45" shape-rendering="geometricPrecision" transform="matrix(1,0,0,1,-987,-97)" stroke-linecap="butt">
      <rect x="1202.6094" y="435.8565" clip-path="url(#clipPath2)" fill="none" width="118.2" rx="4" ry="4" height="31.5333"/>
      <text x="1222.4594" font-size="8px" y="454.3927" clip-path="url(#clipPath2)" font-family="sans-serif" stroke="none" xml:space="preserve">DeploymentService</text>
    </g>
    <g fill="rgb(254,224,204)" text-rendering="geometricPrecision" shape-rendering="geometricPrecision" transform="matrix(1,0,0,1,-987,-97)" stroke="rgb(254,224,204)">
      <rect x="1202.6094" y="441.213" clip-path="url(#clipPath2)" width="118.2" rx="4" ry="4" height="31.5333" stroke="none"/>
    </g>
    <g text-rendering="geometricPrecision" stroke-miterlimit="1.45" shape-rendering="geometricPrecision" transform="matrix(1,0,0,1,-987,-97)" stroke-linecap="butt">
      <rect x="1202.6094" y="441.213" clip-path="url(#clipPath2)" fill="none" width="118.2" rx="4" ry="4" height="31.5333"/>
      <text x="1222.4594" font-size="8px" y="459.7492" clip-path="url(#clipPath2)" font-family="sans-serif" stroke="none" xml:space="preserve">DeploymentService</text>
    </g>
    <g fill="rgb(254,224,204)" text-rendering="geometricPrecision" shape-rendering="geometricPrecision" transform="matrix(1,0,0,1,-987,-97)" stroke="rgb(254,224,204)">
      <rect x="1202.6094" y="370.123" clip-path="url(#clipPath2)" width="118.2" rx="4" ry="4" height="31.5333" stroke="none"/>
    </g>
    <g text-rendering="geometricPrecision" stroke-miterlimit="1.45" shape-rendering="geometricPrecision" transform="matrix(1,0,0,1,-987,-97)" stroke-linecap="butt">
      <rect x="1202.6094" y="370.123" clip-path="url(#clipPath2)" fill="none" width="118.2" rx="4" ry="4" height="31.5333"/>
      <text x="1237.8187" font-size="8px" y="388.6592" clip-path="url(#clipPath2)" font-family="sans-serif" stroke="none" xml:space="preserve">StepService</text>
      <rect x="1329.8094" y="141" clip-path="url(#clipPath2)" fill="none" width="66.3" rx="4" ry="4" height="338.3333"/>
      <text x="1353.4672" xml:space="preserve" y="158.1387" clip-path="url(#clipPath2)" font-family="sans-serif" stroke="none">API</text>
    </g>
    <g fill="rgb(203,203,255)" text-rendering="geometricPrecision" shape-rendering="geometricPrecision" transform="matrix(1,0,0,1,-987,-97)" stroke="rgb(203,203,255)">
      <rect x="1700.5631" width="88" height="280.6333" y="209.1" clip-path="url(#clipPath2)" stroke="none"/>
      <rect x="1700.5631" y="209.1" clip-path="url(#clipPath2)" fill="white" width="1" height="280.6333" stroke="none"/>
      <rect x="1701.5631" y="209.1" clip-path="url(#clipPath2)" fill="white" width="86" height="1" stroke="none"/>
      <rect x="1701.5631" y="488.7333" clip-path="url(#clipPath2)" fill="rgb(142,142,178)" width="87" height="1" stroke="none"/>
      <rect x="1787.5631" y="209.1" clip-path="url(#clipPath2)" fill="rgb(142,142,178)" width="1" height="279.6333" stroke="none"/>
    </g>
    <g stroke-linecap="butt" transform="matrix(1,0,0,1,-987,-97)" text-rendering="geometricPrecision" font-family="sans-serif" shape-rendering="geometricPrecision" font-weight="bold" stroke-miterlimit="1.45">
      <text x="1716.4752" xml:space="preserve" y="226.2387" clip-path="url(#clipPath2)" stroke="none">Frontend </text>
    </g>
    <g fill="url(#linearGradient11)" text-rendering="geometricPrecision" shape-rendering="geometricPrecision" transform="matrix(1,0,0,1,-987,-97)" stroke="url(#linearGradient11)">
      <rect x="1470.6094" width="187" height="100.6667" y="112.8333" clip-path="url(#clipPath2)" stroke="none"/>
      <rect x="1470.6094" y="112.8333" clip-path="url(#clipPath2)" fill="white" width="1" height="100.6667" stroke="none"/>
      <rect x="1471.6094" y="112.8333" clip-path="url(#clipPath2)" fill="white" width="185" height="1" stroke="none"/>
      <rect x="1471.6094" y="212.5" clip-path="url(#clipPath2)" fill="rgb(178,142,160)" width="186" height="1" stroke="none"/>
      <rect x="1656.6094" y="112.8333" clip-path="url(#clipPath2)" fill="rgb(178,142,160)" width="1" height="99.6667" stroke="none"/>
      <rect x="1472.6094" y="299.6667" clip-path="url(#clipPath2)" fill="url(#linearGradient12)" width="187" height="190.0667" stroke="none"/>
      <rect x="1472.6094" y="299.6667" clip-path="url(#clipPath2)" fill="white" width="1" height="190.0667" stroke="none"/>
      <rect x="1473.6094" y="299.6667" clip-path="url(#clipPath2)" fill="white" width="185" height="1" stroke="none"/>
      <rect x="1473.6094" y="488.7333" clip-path="url(#clipPath2)" fill="rgb(178,142,160)" width="186" height="1" stroke="none"/>
      <rect x="1658.6094" y="299.6667" clip-path="url(#clipPath2)" fill="rgb(178,142,160)" width="1" height="189.0667" stroke="none"/>
      <path fill="rgb(255,203,229)" d="M1505.8595 398.6667 L1602.1595 398.6667 L1612.8595 421.1667 L1602.1595 443.6667 L1505.8595 443.6667 L1516.5594 421.1667 Z" clip-path="url(#clipPath2)" fill-rule="evenodd" stroke="none"/>
    </g>
    <g text-rendering="geometricPrecision" stroke-miterlimit="1.45" shape-rendering="geometricPrecision" transform="matrix(1,0,0,1,-987,-97)" stroke-linecap="butt">
      <path fill="none" d="M1505.8595 398.6667 L1602.1595 398.6667 L1612.8595 421.1667 L1602.1595 443.6667 L1505.8595 443.6667 L1516.5594 421.1667 Z" fill-rule="evenodd" clip-path="url(#clipPath2)"/>
    </g>
    <g fill="rgb(255,203,229)" text-rendering="geometricPrecision" shape-rendering="geometricPrecision" transform="matrix(1,0,0,1,-987,-97)" stroke="rgb(255,203,229)">
      <path d="M1512.8595 404.3333 L1609.1595 404.3333 L1619.8595 426.8333 L1609.1595 449.3333 L1512.8595 449.3333 L1523.5594 426.8333 Z" fill-rule="evenodd" clip-path="url(#clipPath2)" stroke="none"/>
    </g>
    <g text-rendering="geometricPrecision" stroke-miterlimit="1.45" shape-rendering="geometricPrecision" transform="matrix(1,0,0,1,-987,-97)" stroke-linecap="butt">
      <path fill="none" d="M1512.8595 404.3333 L1609.1595 404.3333 L1619.8595 426.8333 L1609.1595 449.3333 L1512.8595 449.3333 L1523.5594 426.8333 Z" fill-rule="evenodd" clip-path="url(#clipPath2)"/>
    </g>
    <g fill="rgb(255,203,229)" text-rendering="geometricPrecision" shape-rendering="geometricPrecision" transform="matrix(1,0,0,1,-987,-97)" stroke="rgb(255,203,229)">
      <path d="M1520.8595 410 L1617.1595 410 L1627.8595 432.5 L1617.1595 455 L1520.8595 455 L1531.5594 432.5 Z" fill-rule="evenodd" clip-path="url(#clipPath2)" stroke="none"/>
    </g>
    <g text-rendering="geometricPrecision" stroke-miterlimit="1.45" shape-rendering="geometricPrecision" transform="matrix(1,0,0,1,-987,-97)" stroke-linecap="butt">
      <path fill="none" d="M1520.8595 410 L1617.1595 410 L1627.8595 432.5 L1617.1595 455 L1520.8595 455 L1531.5594 432.5 Z" fill-rule="evenodd" clip-path="url(#clipPath2)"/>
    </g>
    <g fill="rgb(255,203,229)" text-rendering="geometricPrecision" shape-rendering="geometricPrecision" transform="matrix(1,0,0,1,-987,-97)" stroke="rgb(255,203,229)">
      <path d="M1531.8595 415.6667 L1628.1595 415.6667 L1638.8595 438.1667 L1628.1595 460.6667 L1531.8595 460.6667 L1542.5594 438.1667 Z" fill-rule="evenodd" clip-path="url(#clipPath2)" stroke="none"/>
    </g>
    <g text-rendering="geometricPrecision" stroke-miterlimit="1.45" shape-rendering="geometricPrecision" transform="matrix(1,0,0,1,-987,-97)" stroke-linecap="butt">
      <path fill="none" d="M1531.8595 415.6667 L1628.1595 415.6667 L1638.8595 438.1667 L1628.1595 460.6667 L1531.8595 460.6667 L1542.5594 438.1667 Z" fill-rule="evenodd" clip-path="url(#clipPath2)"/>
      <text x="1541.9355" xml:space="preserve" y="432.8053" clip-path="url(#clipPath2)" font-family="sans-serif" stroke="none">ViewDefinition</text>
    </g>
    <g fill="rgb(255,203,229)" text-rendering="geometricPrecision" shape-rendering="geometricPrecision" transform="matrix(1,0,0,1,-987,-97)" stroke="rgb(255,203,229)">
      <path d="M1518.9095 135.1667 L1620.6095 135.1667 L1609.3094 191.1667 L1507.6095 191.1667 Z" fill-rule="evenodd" clip-path="url(#clipPath2)" stroke="none"/>
    </g>
    <g text-rendering="geometricPrecision" stroke-miterlimit="1.45" shape-rendering="geometricPrecision" transform="matrix(1,0,0,1,-987,-97)" stroke-linecap="butt">
      <path fill="none" d="M1518.9095 135.1667 L1620.6095 135.1667 L1609.3094 191.1667 L1507.6095 191.1667 Z" fill-rule="evenodd" clip-path="url(#clipPath2)"/>
      <text x="1524.0635" xml:space="preserve" y="152.3053" clip-path="url(#clipPath2)" font-family="sans-serif" stroke="none">orchestration</text>
    </g>
    <g fill="rgb(216,216,255)" text-rendering="geometricPrecision" shape-rendering="geometricPrecision" transform="matrix(1,0,0,1,-987,-97)" stroke="rgb(216,216,255)">
      <path d="M1540.6095 156.1667 L1572.1095 156.1667 L1575.6095 181.1667 L1544.1095 181.1667 Z" fill-rule="evenodd" clip-path="url(#clipPath2)" stroke="none"/>
    </g>
    <g text-rendering="geometricPrecision" stroke-miterlimit="1.45" shape-rendering="geometricPrecision" transform="matrix(1,0,0,1,-987,-97)" stroke-linecap="butt">
      <path fill="none" d="M1540.6095 156.1667 L1572.1095 156.1667 L1575.6095 181.1667 L1544.1095 181.1667 Z" fill-rule="evenodd" clip-path="url(#clipPath2)"/>
    </g>
    <g fill="rgb(216,216,255)" text-rendering="geometricPrecision" shape-rendering="geometricPrecision" transform="matrix(1,0,0,1,-987,-97)" stroke="rgb(216,216,255)">
      <path d="M1546.6095 159.1667 L1578.1095 159.1667 L1581.6095 184.1667 L1550.1095 184.1667 Z" fill-rule="evenodd" clip-path="url(#clipPath2)" stroke="none"/>
    </g>
    <g text-rendering="geometricPrecision" stroke-miterlimit="1.45" shape-rendering="geometricPrecision" transform="matrix(1,0,0,1,-987,-97)" stroke-linecap="butt">
      <path fill="none" d="M1546.6095 159.1667 L1578.1095 159.1667 L1581.6095 184.1667 L1550.1095 184.1667 Z" fill-rule="evenodd" clip-path="url(#clipPath2)"/>
    </g>
    <g fill="rgb(216,216,255)" text-rendering="geometricPrecision" shape-rendering="geometricPrecision" transform="matrix(1,0,0,1,-987,-97)" stroke="rgb(216,216,255)">
      <path d="M1552.6095 162.1667 L1584.1095 162.1667 L1587.6095 187.1667 L1556.1095 187.1667 Z" fill-rule="evenodd" clip-path="url(#clipPath2)" stroke="none"/>
    </g>
    <g text-rendering="geometricPrecision" stroke-miterlimit="1.45" shape-rendering="geometricPrecision" transform="matrix(1,0,0,1,-987,-97)" stroke-linecap="butt">
      <path fill="none" d="M1552.6095 162.1667 L1584.1095 162.1667 L1587.6095 187.1667 L1556.1095 187.1667 Z" fill-rule="evenodd" clip-path="url(#clipPath2)"/>
      <text x="1557.1309" xml:space="preserve" y="178.821" clip-path="url(#clipPath2)" font-family="sans-serif" stroke="none">step</text>
    </g>
    <g fill="rgb(255,203,229)" text-rendering="geometricPrecision" shape-rendering="geometricPrecision" transform="matrix(1,0,0,1,-987,-97)" stroke="rgb(255,203,229)">
      <path d="M1523.1595 316.6667 L1624.8595 316.6667 L1613.5594 372.6666 L1511.8595 372.6666 Z" fill-rule="evenodd" clip-path="url(#clipPath2)" stroke="none"/>
    </g>
    <g text-rendering="geometricPrecision" stroke-miterlimit="1.45" shape-rendering="geometricPrecision" transform="matrix(1,0,0,1,-987,-97)" stroke-linecap="butt">
      <path fill="none" d="M1523.1595 316.6667 L1624.8595 316.6667 L1613.5594 372.6666 L1511.8595 372.6666 Z" fill-rule="evenodd" clip-path="url(#clipPath2)"/>
      <text x="1528.3135" xml:space="preserve" y="333.8053" clip-path="url(#clipPath2)" font-family="sans-serif" stroke="none">orchestration</text>
    </g>
    <g fill="rgb(216,216,255)" text-rendering="geometricPrecision" shape-rendering="geometricPrecision" transform="matrix(1,0,0,1,-987,-97)" stroke="rgb(216,216,255)">
      <path d="M1544.8595 337.6667 L1576.3595 337.6667 L1579.8595 362.6666 L1548.3595 362.6666 Z" fill-rule="evenodd" clip-path="url(#clipPath2)" stroke="none"/>
    </g>
    <g text-rendering="geometricPrecision" stroke-miterlimit="1.45" shape-rendering="geometricPrecision" transform="matrix(1,0,0,1,-987,-97)" stroke-linecap="butt">
      <path fill="none" d="M1544.8595 337.6667 L1576.3595 337.6667 L1579.8595 362.6666 L1548.3595 362.6666 Z" fill-rule="evenodd" clip-path="url(#clipPath2)"/>
    </g>
    <g fill="rgb(216,216,255)" text-rendering="geometricPrecision" shape-rendering="geometricPrecision" transform="matrix(1,0,0,1,-987,-97)" stroke="rgb(216,216,255)">
      <path d="M1550.8595 340.6667 L1582.3595 340.6667 L1585.8595 365.6666 L1554.3595 365.6666 Z" fill-rule="evenodd" clip-path="url(#clipPath2)" stroke="none"/>
    </g>
    <g text-rendering="geometricPrecision" stroke-miterlimit="1.45" shape-rendering="geometricPrecision" transform="matrix(1,0,0,1,-987,-97)" stroke-linecap="butt">
      <path fill="none" d="M1550.8595 340.6667 L1582.3595 340.6667 L1585.8595 365.6666 L1554.3595 365.6666 Z" fill-rule="evenodd" clip-path="url(#clipPath2)"/>
    </g>
    <g fill="rgb(216,216,255)" text-rendering="geometricPrecision" shape-rendering="geometricPrecision" transform="matrix(1,0,0,1,-987,-97)" stroke="rgb(216,216,255)">
      <path d="M1556.8595 343.6667 L1588.3595 343.6667 L1591.8595 368.6666 L1560.3595 368.6666 Z" fill-rule="evenodd" clip-path="url(#clipPath2)" stroke="none"/>
    </g>
    <g text-rendering="geometricPrecision" stroke-miterlimit="1.45" shape-rendering="geometricPrecision" transform="matrix(1,0,0,1,-987,-97)" stroke-linecap="butt">
      <path fill="none" d="M1556.8595 343.6667 L1588.3595 343.6667 L1591.8595 368.6666 L1560.3595 368.6666 Z" fill-rule="evenodd" clip-path="url(#clipPath2)"/>
      <text x="1561.3809" xml:space="preserve" y="360.321" clip-path="url(#clipPath2)" font-family="sans-serif" stroke="none">step</text>
    </g>
    <g fill="rgb(216,216,255)" text-rendering="geometricPrecision" shape-rendering="geometricPrecision" transform="matrix(1,0,0,1,-987,-97)" stroke="rgb(216,216,255)">
      <path d="M1550.8595 437.6667 L1630.0594 437.6667 L1638.8595 467.6667 L1559.6595 467.6667 Z" fill-rule="evenodd" clip-path="url(#clipPath2)" stroke="none"/>
    </g>
    <g text-rendering="geometricPrecision" stroke-miterlimit="1.45" shape-rendering="geometricPrecision" transform="matrix(1,0,0,1,-987,-97)" stroke-linecap="butt">
      <path fill="none" d="M1550.8595 437.6667 L1630.0594 437.6667 L1638.8595 467.6667 L1559.6595 467.6667 Z" fill-rule="evenodd" clip-path="url(#clipPath2)"/>
      <text x="1565.5039" xml:space="preserve" y="449.8366" clip-path="url(#clipPath2)" font-family="sans-serif" stroke="none">extension</text>
      <text x="1589.3838" xml:space="preserve" y="463.8053" clip-path="url(#clipPath2)" font-family="sans-serif" stroke="none">id</text>
    </g>
    <g fill="url(#linearGradient13)" text-rendering="geometricPrecision" shape-rendering="geometricPrecision" transform="matrix(1,0,0,1,-987,-97)" stroke="url(#linearGradient13)">
      <path d="M1002.6093 217.3 L1013.9093 191.3 L1104.3094 191.3 L1115.6095 217.3 L1104.3094 243.3 L1013.9093 243.3 Z" fill-rule="evenodd" clip-path="url(#clipPath2)" stroke="none"/>
    </g>
    <g text-rendering="geometricPrecision" stroke-miterlimit="1.45" shape-rendering="geometricPrecision" transform="matrix(1,0,0,1,-987,-97)" stroke-linecap="butt">
      <path fill="none" d="M1002.6093 217.3 L1013.9093 191.3 L1104.3094 191.3 L1115.6095 217.3 L1104.3094 243.3 L1013.9093 243.3 Z" fill-rule="evenodd" clip-path="url(#clipPath2)"/>
      <text x="1015.6855" xml:space="preserve" y="214.4699" clip-path="url(#clipPath2)" font-family="sans-serif" stroke="none">ViewDefinition</text>
      <text x="1036.0674" xml:space="preserve" y="228.4387" clip-path="url(#clipPath2)" font-family="sans-serif" stroke="none">Catalog</text>
    </g>
    <g fill="url(#linearGradient14)" text-rendering="geometricPrecision" shape-rendering="geometricPrecision" transform="matrix(1,0,0,1,-987,-97)" stroke="url(#linearGradient14)">
      <path d="M1002.6093 383.6583 L1013.9093 357.6583 L1104.3094 357.6583 L1115.6095 383.6583 L1104.3094 409.6583 L1013.9093 409.6583 Z" fill-rule="evenodd" clip-path="url(#clipPath2)" stroke="none"/>
    </g>
    <g text-rendering="geometricPrecision" stroke-miterlimit="1.45" shape-rendering="geometricPrecision" transform="matrix(1,0,0,1,-987,-97)" stroke-linecap="butt">
      <path fill="none" d="M1002.6093 383.6583 L1013.9093 357.6583 L1104.3094 357.6583 L1115.6095 383.6583 L1104.3094 409.6583 L1013.9093 409.6583 Z" fill-rule="evenodd" clip-path="url(#clipPath2)"/>
      <text x="1045.4482" xml:space="preserve" y="380.8282" clip-path="url(#clipPath2)" font-family="sans-serif" stroke="none">Step</text>
      <text x="1036.0674" xml:space="preserve" y="394.797" clip-path="url(#clipPath2)" font-family="sans-serif" stroke="none">Catalog</text>
    </g>
    <g fill="rgb(254,224,204)" text-rendering="geometricPrecision" shape-rendering="geometricPrecision" transform="matrix(1,0,0,1,-987,-97)" stroke="rgb(254,224,204)">
      <rect x="1337.8594" y="379.5945" clip-path="url(#clipPath2)" width="50.2" rx="4" ry="4" height="90.7333" stroke="none"/>
    </g>
    <g text-rendering="geometricPrecision" stroke-miterlimit="1.45" shape-rendering="geometricPrecision" transform="matrix(1,0,0,1,-987,-97)" stroke-linecap="butt">
      <rect x="1337.8594" y="379.5945" clip-path="url(#clipPath2)" fill="none" width="50.2" rx="4" ry="4" height="90.7333"/>
      <text x="1338.8344" font-size="8px" y="427.7307" clip-path="url(#clipPath2)" font-family="sans-serif" stroke="none" xml:space="preserve">Integrations</text>
    </g>
    <g fill="rgb(254,224,204)" text-rendering="geometricPrecision" shape-rendering="geometricPrecision" transform="matrix(1,0,0,1,-987,-97)" stroke="rgb(254,224,204)">
      <rect x="1337.8594" y="276.6964" clip-path="url(#clipPath2)" width="50.2" rx="4" ry="4" height="90.7333" stroke="none"/>
    </g>
    <g text-rendering="geometricPrecision" stroke-miterlimit="1.45" shape-rendering="geometricPrecision" transform="matrix(1,0,0,1,-987,-97)" stroke-linecap="butt">
      <rect x="1337.8594" y="276.6964" clip-path="url(#clipPath2)" fill="none" width="50.2" rx="4" ry="4" height="90.7333"/>
      <text x="1351.7679" font-size="8px" y="324.8326" clip-path="url(#clipPath2)" font-family="sans-serif" stroke="none" xml:space="preserve">Steps</text>
    </g>
    <g fill="rgb(254,224,204)" text-rendering="geometricPrecision" shape-rendering="geometricPrecision" transform="matrix(1,0,0,1,-987,-97)" stroke="rgb(254,224,204)">
      <rect x="1338.9094" y="173.7982" clip-path="url(#clipPath2)" width="50.2" rx="4" ry="4" height="90.7333" stroke="none"/>
    </g>
    <g text-rendering="geometricPrecision" stroke-miterlimit="1.45" shape-rendering="geometricPrecision" transform="matrix(1,0,0,1,-987,-97)" stroke-linecap="butt">
      <rect x="1338.9094" y="173.7982" clip-path="url(#clipPath2)" fill="none" width="50.2" rx="4" ry="4" height="90.7333"/>
      <text x="1347.4801" font-size="8px" y="221.9344" clip-path="url(#clipPath2)" font-family="sans-serif" stroke="none" xml:space="preserve">ViewDef</text>
      <path fill="none" stroke-dasharray="18,6" d="M1405.1219 291.182 L1690.5631 291.182" stroke-width="3" clip-path="url(#clipPath2)"/>
      <path stroke-dasharray="18,6" d="M1700.5631 291.182 L1685.5631 284.932 L1689.3131 291.182 L1685.5631 297.432 Z" stroke-width="3" clip-path="url(#clipPath2)" stroke="none"/>
      <path fill="none" stroke-dasharray="18,6" d="M1700.524 221.1676 L1415.1219 221.1676" stroke-width="3" clip-path="url(#clipPath2)"/>
      <path stroke-dasharray="18,6" d="M1405.1219 221.1676 L1420.1219 227.4176 L1416.3719 221.1676 L1420.1219 214.9176 Z" stroke-width="3" clip-path="url(#clipPath2)" stroke="none"/>
      <path fill="none" d="M1201.1006 178.3067 L1061.5659 178.3067 L1061.5659 183.3074" clip-path="url(#clipPath2)"/>
      <path d="M1061.5659 191.3074 L1066.5659 179.3074 L1061.5659 182.3074 L1056.5659 179.3074 Z" clip-path="url(#clipPath2)" stroke="none"/>
      <rect x="1124.6612" y="169.3223" clip-path="url(#clipPath2)" fill="white" width="39.7598" height="17.9688" stroke="none"/>
      <text x="1126.6613" xml:space="preserve" y="182.461" clip-path="url(#clipPath2)" font-family="sans-serif" stroke="none">builds</text>
      <path fill="none" d="M1201.0956 263.0011 L1059.1094 263.5 L1059.1094 251.32" clip-path="url(#clipPath2)"/>
      <path d="M1059.1094 243.32 L1054.1094 255.32 L1059.1094 252.32 L1064.1094 255.32 Z" clip-path="url(#clipPath2)" stroke="none"/>
      <rect x="1130.5511" y="254.2093" clip-path="url(#clipPath2)" fill="white" width="31.4922" height="17.9688" stroke="none"/>
      <text x="1132.5511" xml:space="preserve" y="267.348" clip-path="url(#clipPath2)" font-family="sans-serif" stroke="none">uses</text>
      <path fill="none" d="M1202.588 324.356 L1059.1094 323.2667 L1059.1094 349.6793" clip-path="url(#clipPath2)"/>
      <path d="M1059.1094 357.6793 L1064.1094 345.6793 L1059.1094 348.6793 L1054.1094 345.6793 Z" clip-path="url(#clipPath2)" stroke="none"/>
      <rect x="1098.5396" y="314.7326" clip-path="url(#clipPath2)" fill="white" width="39.7598" height="17.9688" stroke="none"/>
      <text x="1100.5396" xml:space="preserve" y="327.8713" clip-path="url(#clipPath2)" font-family="sans-serif" stroke="none">builds</text>
      <path fill="none" d="M1202.5795 452.05 L1059.1094 452.05 L1059.1094 417.6725" clip-path="url(#clipPath2)"/>
      <path d="M1059.1094 409.6725 L1054.1094 421.6725 L1059.1094 418.6725 L1064.1094 421.6725 Z" clip-path="url(#clipPath2)" stroke="none"/>
      <rect x="1104.7402" y="443.0656" clip-path="url(#clipPath2)" fill="white" width="31.4922" height="17.9688" stroke="none"/>
      <text x="1106.7402" xml:space="preserve" y="456.2043" clip-path="url(#clipPath2)" font-family="sans-serif" stroke="none">uses</text>
      <path fill="none" d="M1202.5806 382.3874 L1123.6326 383.5414" clip-path="url(#clipPath2)"/>
      <path d="M1115.6334 383.6583 L1127.7052 388.4824 L1124.6324 383.5268 L1127.5591 378.4835 Z" clip-path="url(#clipPath2)" stroke="none"/>
      <rect x="1143.3633" y="374.0385" clip-path="url(#clipPath2)" fill="white" width="31.4922" height="17.9688" stroke="none"/>
      <text x="1145.3633" xml:space="preserve" y="387.1771" clip-path="url(#clipPath2)" font-family="sans-serif" stroke="none">uses</text>
      <path fill="none" stroke-dasharray="4,3,0,3" d="M1320.7761 456.9797 L1337.8381 456.9797" clip-path="url(#clipPath2)" stroke-linecap="round"/>
      <path fill="none" stroke-dasharray="4,3,0,3" d="M1261.7094 401.6428 L1261.7094 415.06 L1337.8384 415.06" clip-path="url(#clipPath2)" stroke-linecap="round"/>
      <path fill="none" stroke-dasharray="4,3,0,3" d="M1320.7883 323.0182 L1337.8792 322.6311" clip-path="url(#clipPath2)" stroke-linecap="round"/>
      <path fill="none" stroke-dasharray="4,3,0,3" d="M1261.7094 370.1295 L1261.7094 349.46 L1337.851 349.46" clip-path="url(#clipPath2)" stroke-linecap="round"/>
      <path fill="none" stroke-dasharray="4,3,0,3" d="M1260.2094 247.2046 L1260.2094 219.1648 L1338.8956 219.1648" clip-path="url(#clipPath2)" stroke-linecap="round"/>
      <path fill="none" stroke-dasharray="4,3,0,3" d="M1319.285 192.4158 L1338.8872 192.4158" clip-path="url(#clipPath2)" stroke-linecap="round"/>
    </g>
  </g>
</svg>
