<?xml version="1.0" encoding="UTF-8"?><svg xmlns="http://www.w3.org/2000/svg" xmlns:xlink="http://www.w3.org/1999/xlink" fill-opacity="1" color-rendering="auto" color-interpolation="auto" text-rendering="auto" stroke="black" stroke-linecap="square" width="675" stroke-miterlimit="10" shape-rendering="auto" stroke-opacity="1" fill="black" stroke-dasharray="none" font-weight="normal" stroke-width="1" height="430" font-family="'Dialog'" font-style="normal" stroke-linejoin="miter" font-size="12px" stroke-dashoffset="0" image-rendering="auto">
  <!--Generated by ySVG 2.5-->
  <defs id="genericDefs"/>
  <g>
    <defs id="defs1">
      <linearGradient x1="1689.3944" gradientUnits="userSpaceOnUse" x2="1824.8611" y1="251.2667" y2="251.2667" id="linearGradient1" spreadMethod="reflect">
        <stop stop-opacity="1" stop-color="rgb(203,203,255)" offset="0%"/>
        <stop stop-opacity="1" stop-color="rgb(142,142,255)" offset="100%"/>
      </linearGradient>
      <linearGradient x1="1689.3944" gradientUnits="userSpaceOnUse" x2="1824.8611" y1="370.8333" y2="370.8333" id="linearGradient2" spreadMethod="reflect">
        <stop stop-opacity="1" stop-color="rgb(203,203,255)" offset="0%"/>
        <stop stop-opacity="1" stop-color="rgb(142,142,255)" offset="100%"/>
      </linearGradient>
      <linearGradient x1="1689.3944" gradientUnits="userSpaceOnUse" x2="1824.8611" y1="334.4667" y2="334.4667" id="linearGradient3" spreadMethod="reflect">
        <stop stop-opacity="1" stop-color="rgb(203,203,255)" offset="0%"/>
        <stop stop-opacity="1" stop-color="rgb(142,142,255)" offset="100%"/>
      </linearGradient>
      <linearGradient x1="1436.6407" gradientUnits="userSpaceOnUse" x2="1561.3074" y1="131.25" y2="131.25" id="linearGradient4" spreadMethod="reflect">
        <stop stop-opacity="1" stop-color="rgb(255,203,229)" offset="0%"/>
        <stop stop-opacity="1" stop-color="rgb(203,203,255)" offset="100%"/>
      </linearGradient>
      <linearGradient x1="1438.6407" gradientUnits="userSpaceOnUse" x2="1563.3074" y1="318.0833" y2="318.0833" id="linearGradient5" spreadMethod="reflect">
        <stop stop-opacity="1" stop-color="rgb(255,203,229)" offset="0%"/>
        <stop stop-opacity="1" stop-color="rgb(203,203,255)" offset="100%"/>
      </linearGradient>
      <clipPath clipPathUnits="userSpaceOnUse" id="clipPath1">
        <path d="M0 0 L675 0 L675 430 L0 430 L0 0 Z"/>
      </clipPath>
      <clipPath clipPathUnits="userSpaceOnUse" id="clipPath2">
        <path d="M1212 116 L1887 116 L1887 546 L1212 546 L1212 116 Z"/>
      </clipPath>
    </defs>
    <g fill="rgb(255,203,229)" text-rendering="geometricPrecision" shape-rendering="geometricPrecision" transform="matrix(1,0,0,1,-1212,-116)" stroke="rgb(255,203,229)">
      <rect x="1227.2574" width="81.55" height="376.9" y="131.25" clip-path="url(#clipPath2)" stroke="none"/>
    </g>
    <g fill="white" text-rendering="geometricPrecision" shape-rendering="geometricPrecision" transform="matrix(1,0,0,1,-1212,-116)" stroke="white">
      <rect x="1227.2574" width="1" height="376.9" y="131.25" clip-path="url(#clipPath2)" stroke="none"/>
      <rect x="1228.2574" width="79.55" height="1" y="131.25" clip-path="url(#clipPath2)" stroke="none"/>
      <rect x="1228.2574" y="507.15" clip-path="url(#clipPath2)" fill="rgb(178,142,160)" width="80.55" height="1" stroke="none"/>
      <rect x="1307.8074" y="131.25" clip-path="url(#clipPath2)" fill="rgb(178,142,160)" width="1" height="375.9" stroke="none"/>
    </g>
    <g stroke-linecap="butt" transform="matrix(1,0,0,1,-1212,-116)" text-rendering="geometricPrecision" font-family="sans-serif" shape-rendering="geometricPrecision" font-weight="bold" stroke-miterlimit="1.45">
      <text x="1233.2574" xml:space="preserve" y="148.3887" clip-path="url(#clipPath2)" stroke="none">Backend</text>
      <rect x="1233.5074" y="159.4167" clip-path="url(#clipPath2)" fill="none" width="66.3" rx="4" ry="4" height="338.3333"/>
      <text x="1257.1652" xml:space="preserve" y="176.5553" clip-path="url(#clipPath2)" font-weight="normal" stroke="none">API</text>
    </g>
    <g fill="rgb(203,203,255)" text-rendering="geometricPrecision" shape-rendering="geometricPrecision" transform="matrix(1,0,0,1,-1212,-116)" stroke="rgb(203,203,255)">
      <rect x="1604.2611" width="229.4" height="280.6333" y="227.5167" clip-path="url(#clipPath2)" stroke="none"/>
      <rect x="1604.2611" y="227.5167" clip-path="url(#clipPath2)" fill="white" width="1" height="280.6333" stroke="none"/>
      <rect x="1605.2611" y="227.5167" clip-path="url(#clipPath2)" fill="white" width="227.4" height="1" stroke="none"/>
      <rect x="1605.2611" y="507.15" clip-path="url(#clipPath2)" fill="rgb(142,142,178)" width="228.4" height="1" stroke="none"/>
      <rect x="1832.6611" y="227.5167" clip-path="url(#clipPath2)" fill="rgb(142,142,178)" width="1" height="279.6333" stroke="none"/>
    </g>
    <g stroke-linecap="butt" transform="matrix(1,0,0,1,-1212,-116)" text-rendering="geometricPrecision" font-family="sans-serif" shape-rendering="geometricPrecision" font-weight="bold" stroke-miterlimit="1.45">
      <text x="1761.5732" xml:space="preserve" y="244.6553" clip-path="url(#clipPath2)" stroke="none">Frontend </text>
    </g>
    <g fill="rgb(142,142,255)" text-rendering="geometricPrecision" shape-rendering="geometricPrecision" transform="matrix(1,0,0,1,-1212,-116)" stroke="rgb(142,142,255)">
      <path d="M1677.2611 158 L1686.4613 132 L1760.0612 132 L1769.2611 158 L1760.0612 184 L1686.4613 184 Z" fill-rule="evenodd" clip-path="url(#clipPath2)" stroke="none"/>
    </g>
    <g text-rendering="geometricPrecision" stroke-miterlimit="1.45" shape-rendering="geometricPrecision" transform="matrix(1,0,0,1,-1212,-116)" stroke-linecap="butt">
      <path fill="none" d="M1677.2611 158 L1686.4613 132 L1760.0612 132 L1769.2611 158 L1760.0612 184 L1686.4613 184 Z" fill-rule="evenodd" clip-path="url(#clipPath2)"/>
      <text x="1693.806" xml:space="preserve" y="155.1699" clip-path="url(#clipPath2)" font-family="sans-serif" stroke="none">Extension</text>
      <text x="1700.2191" xml:space="preserve" y="169.1387" clip-path="url(#clipPath2)" font-family="sans-serif" stroke="none">Catalog</text>
    </g>
    <g fill="url(#linearGradient1)" text-rendering="geometricPrecision" shape-rendering="geometricPrecision" transform="matrix(1,0,0,1,-1212,-116)" stroke="url(#linearGradient1)">
      <rect x="1621.6611" y="251.2667" clip-path="url(#clipPath2)" width="203.2" rx="4" ry="4" height="77.5667" stroke="none"/>
    </g>
    <g text-rendering="geometricPrecision" stroke-miterlimit="1.45" shape-rendering="geometricPrecision" transform="matrix(1,0,0,1,-1212,-116)" stroke-linecap="butt">
      <rect x="1621.6611" y="251.2667" clip-path="url(#clipPath2)" fill="none" width="203.2" rx="4" ry="4" height="77.5667"/>
      <text x="1688.2367" xml:space="preserve" y="268.4053" clip-path="url(#clipPath2)" font-family="sans-serif" stroke="none">Code Editor</text>
    </g>
    <g fill="url(#linearGradient2)" text-rendering="geometricPrecision" shape-rendering="geometricPrecision" transform="matrix(1,0,0,1,-1212,-116)" stroke="url(#linearGradient2)">
      <rect x="1621.6611" y="370.8333" clip-path="url(#clipPath2)" width="203.2" rx="4" ry="4" height="124.4" stroke="none"/>
    </g>
    <g text-rendering="geometricPrecision" stroke-miterlimit="1.45" shape-rendering="geometricPrecision" transform="matrix(1,0,0,1,-1212,-116)" stroke-linecap="butt">
      <rect x="1621.6611" y="370.8333" clip-path="url(#clipPath2)" fill="none" width="203.2" rx="4" ry="4" height="124.4"/>
      <text x="1685.5531" xml:space="preserve" y="387.972" clip-path="url(#clipPath2)" font-family="sans-serif" stroke="none">Visual Editor</text>
    </g>
    <g fill="url(#linearGradient3)" text-rendering="geometricPrecision" shape-rendering="geometricPrecision" transform="matrix(1,0,0,1,-1212,-116)" stroke="url(#linearGradient3)">
      <rect x="1621.6611" y="334.4667" clip-path="url(#clipPath2)" width="203.2" rx="4" ry="4" height="27.4" stroke="none"/>
    </g>
    <g text-rendering="geometricPrecision" stroke-miterlimit="1.45" shape-rendering="geometricPrecision" transform="matrix(1,0,0,1,-1212,-116)" stroke-linecap="butt">
      <rect x="1621.6611" y="334.4667" clip-path="url(#clipPath2)" fill="none" width="203.2" rx="4" ry="4" height="27.4"/>
      <text x="1684.6508" xml:space="preserve" y="351.6053" clip-path="url(#clipPath2)" font-family="sans-serif" stroke="none">Step Catalog</text>
    </g>
    <g fill="rgb(142,142,255)" text-rendering="geometricPrecision" shape-rendering="geometricPrecision" transform="matrix(1,0,0,1,-1212,-116)" stroke="rgb(142,142,255)">
      <rect x="1632.1611" y="391.8667" clip-path="url(#clipPath2)" width="113" rx="4" ry="4" height="97.6" stroke="none"/>
    </g>
    <g text-rendering="geometricPrecision" stroke-miterlimit="1.45" shape-rendering="geometricPrecision" transform="matrix(1,0,0,1,-1212,-116)" stroke-linecap="butt">
      <rect x="1632.1611" y="391.8667" clip-path="url(#clipPath2)" fill="none" width="113" rx="4" ry="4" height="97.6"/>
      <text x="1651.2988" xml:space="preserve" y="415.181" clip-path="url(#clipPath2)" font-family="sans-serif" stroke="none">Main canvas</text>
    </g>
    <g fill="rgb(142,142,255)" text-rendering="geometricPrecision" shape-rendering="geometricPrecision" transform="matrix(1,0,0,1,-1212,-116)" stroke="rgb(142,142,255)">
      <rect x="1749.2148" y="391.8667" clip-path="url(#clipPath2)" width="69.8" rx="4" ry="4" height="25" stroke="none"/>
    </g>
    <g text-rendering="geometricPrecision" stroke-miterlimit="1.45" shape-rendering="geometricPrecision" transform="matrix(1,0,0,1,-1212,-116)" stroke-linecap="butt">
      <rect x="1749.2148" y="391.8667" clip-path="url(#clipPath2)" fill="none" width="69.8" rx="4" ry="4" height="25"/>
      <text x="1754.0992" font-size="8px" y="407.1362" clip-path="url(#clipPath2)" font-family="sans-serif" stroke="none" xml:space="preserve">Step Extension</text>
    </g>
    <g fill="rgb(142,142,255)" text-rendering="geometricPrecision" shape-rendering="geometricPrecision" transform="matrix(1,0,0,1,-1212,-116)" stroke="rgb(142,142,255)">
      <rect x="1749.2148" y="428.1667" clip-path="url(#clipPath2)" width="69.8" rx="4" ry="4" height="25" stroke="none"/>
    </g>
    <g text-rendering="geometricPrecision" stroke-miterlimit="1.45" shape-rendering="geometricPrecision" transform="matrix(1,0,0,1,-1212,-116)" stroke-linecap="butt">
      <rect x="1749.2148" y="428.1667" clip-path="url(#clipPath2)" fill="none" width="69.8" rx="4" ry="4" height="25"/>
      <text x="1754.0992" font-size="8px" y="443.4362" clip-path="url(#clipPath2)" font-family="sans-serif" stroke="none" xml:space="preserve">Step Extension</text>
    </g>
    <g fill="rgb(142,142,255)" text-rendering="geometricPrecision" shape-rendering="geometricPrecision" transform="matrix(1,0,0,1,-1212,-116)" stroke="rgb(142,142,255)">
      <rect x="1749.2148" y="464.4667" clip-path="url(#clipPath2)" width="69.8" rx="4" ry="4" height="25" stroke="none"/>
    </g>
    <g text-rendering="geometricPrecision" stroke-miterlimit="1.45" shape-rendering="geometricPrecision" transform="matrix(1,0,0,1,-1212,-116)" stroke-linecap="butt">
      <rect x="1749.2148" y="464.4667" clip-path="url(#clipPath2)" fill="none" width="69.8" rx="4" ry="4" height="25"/>
      <text x="1754.0992" font-size="8px" y="479.7362" clip-path="url(#clipPath2)" font-family="sans-serif" stroke="none" xml:space="preserve">Step Extension</text>
    </g>
    <g fill="rgb(142,142,255)" text-rendering="geometricPrecision" shape-rendering="geometricPrecision" transform="matrix(1,0,0,1,-1212,-116)" stroke="rgb(142,142,255)">
      <rect x="1632.1611" y="273.2333" clip-path="url(#clipPath2)" width="186.8537" rx="4" ry="4" height="45" stroke="none"/>
    </g>
    <g text-rendering="geometricPrecision" stroke-miterlimit="1.45" shape-rendering="geometricPrecision" transform="matrix(1,0,0,1,-1212,-116)" stroke-linecap="butt">
      <rect x="1632.1611" y="273.2333" clip-path="url(#clipPath2)" fill="none" width="186.8537" rx="4" ry="4" height="45"/>
      <text x="1645.5284" xml:space="preserve" y="299.8876" clip-path="url(#clipPath2)" font-family="sans-serif" stroke="none">Domain Specific Language</text>
    </g>
    <g fill="rgb(216,216,255)" text-rendering="geometricPrecision" shape-rendering="geometricPrecision" transform="matrix(1,0,0,1,-1212,-116)" stroke="rgb(216,216,255)">
      <path d="M1650.8075 431.7666 L1673.2355 431.7666 L1675.7274 449.5666 L1653.2994 449.5666 Z" fill-rule="evenodd" clip-path="url(#clipPath2)" stroke="none"/>
    </g>
    <g text-rendering="geometricPrecision" stroke-miterlimit="1.45" shape-rendering="geometricPrecision" transform="matrix(1,0,0,1,-1212,-116)" stroke-linecap="butt">
      <path fill="none" d="M1650.8075 431.7666 L1673.2355 431.7666 L1675.7274 449.5666 L1653.2994 449.5666 Z" fill-rule="evenodd" clip-path="url(#clipPath2)"/>
      <text x="1654.6151" font-size="8px" y="443.4362" clip-path="url(#clipPath2)" font-family="sans-serif" stroke="none" xml:space="preserve">step</text>
    </g>
    <g fill="rgb(216,216,255)" text-rendering="geometricPrecision" shape-rendering="geometricPrecision" transform="matrix(1,0,0,1,-1212,-116)" stroke="rgb(216,216,255)">
      <path d="M1694.2948 431.7666 L1716.723 431.7666 L1719.215 449.5666 L1696.787 449.5666 Z" fill-rule="evenodd" clip-path="url(#clipPath2)" stroke="none"/>
    </g>
    <g text-rendering="geometricPrecision" stroke-miterlimit="1.45" shape-rendering="geometricPrecision" transform="matrix(1,0,0,1,-1212,-116)" stroke-linecap="butt">
      <path fill="none" d="M1694.2948 431.7666 L1716.723 431.7666 L1719.215 449.5666 L1696.787 449.5666 Z" fill-rule="evenodd" clip-path="url(#clipPath2)"/>
      <text x="1698.1024" font-size="8px" y="443.4362" clip-path="url(#clipPath2)" font-family="sans-serif" stroke="none" xml:space="preserve">step</text>
    </g>
    <g fill="rgb(216,216,255)" text-rendering="geometricPrecision" shape-rendering="geometricPrecision" transform="matrix(1,0,0,1,-1212,-116)" stroke="rgb(216,216,255)">
      <path d="M1683.2675 468.0666 L1705.6954 468.0666 L1708.1874 485.8665 L1685.7594 485.8665 Z" fill-rule="evenodd" clip-path="url(#clipPath2)" stroke="none"/>
    </g>
    <g text-rendering="geometricPrecision" stroke-miterlimit="1.45" shape-rendering="geometricPrecision" transform="matrix(1,0,0,1,-1212,-116)" stroke-linecap="butt">
      <path fill="none" d="M1683.2675 468.0666 L1705.6954 468.0666 L1708.1874 485.8665 L1685.7594 485.8665 Z" fill-rule="evenodd" clip-path="url(#clipPath2)"/>
      <text x="1687.0751" font-size="8px" y="479.7362" clip-path="url(#clipPath2)" font-family="sans-serif" stroke="none" xml:space="preserve">step</text>
    </g>
    <g fill="url(#linearGradient4)" text-rendering="geometricPrecision" shape-rendering="geometricPrecision" transform="matrix(1,0,0,1,-1212,-116)" stroke="url(#linearGradient4)">
      <rect x="1374.3074" width="187" height="100.6667" y="131.25" clip-path="url(#clipPath2)" stroke="none"/>
      <rect x="1374.3074" y="131.25" clip-path="url(#clipPath2)" fill="white" width="1" height="100.6667" stroke="none"/>
      <rect x="1375.3074" y="131.25" clip-path="url(#clipPath2)" fill="white" width="185" height="1" stroke="none"/>
      <rect x="1375.3074" y="230.9167" clip-path="url(#clipPath2)" fill="rgb(178,142,160)" width="186" height="1" stroke="none"/>
      <rect x="1560.3074" y="131.25" clip-path="url(#clipPath2)" fill="rgb(178,142,160)" width="1" height="99.6667" stroke="none"/>
      <rect x="1376.3074" y="318.0833" clip-path="url(#clipPath2)" fill="url(#linearGradient5)" width="187" height="190.0667" stroke="none"/>
      <rect x="1376.3074" y="318.0833" clip-path="url(#clipPath2)" fill="white" width="1" height="190.0667" stroke="none"/>
      <rect x="1377.3074" y="318.0833" clip-path="url(#clipPath2)" fill="white" width="185" height="1" stroke="none"/>
      <rect x="1377.3074" y="507.15" clip-path="url(#clipPath2)" fill="rgb(178,142,160)" width="186" height="1" stroke="none"/>
      <rect x="1562.3074" y="318.0833" clip-path="url(#clipPath2)" fill="rgb(178,142,160)" width="1" height="189.0667" stroke="none"/>
      <path fill="rgb(255,203,229)" d="M1409.5575 417.0833 L1505.8575 417.0833 L1516.5575 439.5832 L1505.8575 462.0832 L1409.5575 462.0832 L1420.2574 439.5832 Z" clip-path="url(#clipPath2)" fill-rule="evenodd" stroke="none"/>
    </g>
    <g text-rendering="geometricPrecision" stroke-miterlimit="1.45" shape-rendering="geometricPrecision" transform="matrix(1,0,0,1,-1212,-116)" stroke-linecap="butt">
      <path fill="none" d="M1409.5575 417.0833 L1505.8575 417.0833 L1516.5575 439.5832 L1505.8575 462.0832 L1409.5575 462.0832 L1420.2574 439.5832 Z" fill-rule="evenodd" clip-path="url(#clipPath2)"/>
    </g>
    <g fill="rgb(255,203,229)" text-rendering="geometricPrecision" shape-rendering="geometricPrecision" transform="matrix(1,0,0,1,-1212,-116)" stroke="rgb(255,203,229)">
      <path d="M1416.5575 422.75 L1512.8575 422.75 L1523.5575 445.2499 L1512.8575 467.75 L1416.5575 467.75 L1427.2574 445.2499 Z" fill-rule="evenodd" clip-path="url(#clipPath2)" stroke="none"/>
    </g>
    <g text-rendering="geometricPrecision" stroke-miterlimit="1.45" shape-rendering="geometricPrecision" transform="matrix(1,0,0,1,-1212,-116)" stroke-linecap="butt">
      <path fill="none" d="M1416.5575 422.75 L1512.8575 422.75 L1523.5575 445.2499 L1512.8575 467.75 L1416.5575 467.75 L1427.2574 445.2499 Z" fill-rule="evenodd" clip-path="url(#clipPath2)"/>
    </g>
    <g fill="rgb(255,203,229)" text-rendering="geometricPrecision" shape-rendering="geometricPrecision" transform="matrix(1,0,0,1,-1212,-116)" stroke="rgb(255,203,229)">
      <path d="M1424.5575 428.4166 L1520.8575 428.4166 L1531.5575 450.9166 L1520.8575 473.4165 L1424.5575 473.4165 L1435.2574 450.9166 Z" fill-rule="evenodd" clip-path="url(#clipPath2)" stroke="none"/>
    </g>
    <g text-rendering="geometricPrecision" stroke-miterlimit="1.45" shape-rendering="geometricPrecision" transform="matrix(1,0,0,1,-1212,-116)" stroke-linecap="butt">
      <path fill="none" d="M1424.5575 428.4166 L1520.8575 428.4166 L1531.5575 450.9166 L1520.8575 473.4165 L1424.5575 473.4165 L1435.2574 450.9166 Z" fill-rule="evenodd" clip-path="url(#clipPath2)"/>
    </g>
    <g fill="rgb(255,203,229)" text-rendering="geometricPrecision" shape-rendering="geometricPrecision" transform="matrix(1,0,0,1,-1212,-116)" stroke="rgb(255,203,229)">
      <path d="M1435.5575 434.0832 L1531.8575 434.0832 L1542.5575 456.5832 L1531.8575 479.0831 L1435.5575 479.0831 L1446.2574 456.5832 Z" fill-rule="evenodd" clip-path="url(#clipPath2)" stroke="none"/>
    </g>
    <g text-rendering="geometricPrecision" stroke-miterlimit="1.45" shape-rendering="geometricPrecision" transform="matrix(1,0,0,1,-1212,-116)" stroke-linecap="butt">
      <path fill="none" d="M1435.5575 434.0832 L1531.8575 434.0832 L1542.5575 456.5832 L1531.8575 479.0831 L1435.5575 479.0831 L1446.2574 456.5832 Z" fill-rule="evenodd" clip-path="url(#clipPath2)"/>
      <text x="1445.6335" xml:space="preserve" y="451.222" clip-path="url(#clipPath2)" font-family="sans-serif" stroke="none">ViewDefinition</text>
    </g>
    <g fill="rgb(255,203,229)" text-rendering="geometricPrecision" shape-rendering="geometricPrecision" transform="matrix(1,0,0,1,-1212,-116)" stroke="rgb(255,203,229)">
      <path d="M1422.6075 153.5833 L1524.3075 153.5833 L1513.0074 209.5834 L1411.3075 209.5834 Z" fill-rule="evenodd" clip-path="url(#clipPath2)" stroke="none"/>
    </g>
    <g text-rendering="geometricPrecision" stroke-miterlimit="1.45" shape-rendering="geometricPrecision" transform="matrix(1,0,0,1,-1212,-116)" stroke-linecap="butt">
      <path fill="none" d="M1422.6075 153.5833 L1524.3075 153.5833 L1513.0074 209.5834 L1411.3075 209.5834 Z" fill-rule="evenodd" clip-path="url(#clipPath2)"/>
      <text x="1427.7615" xml:space="preserve" y="170.722" clip-path="url(#clipPath2)" font-family="sans-serif" stroke="none">orchestration</text>
    </g>
    <g fill="rgb(216,216,255)" text-rendering="geometricPrecision" shape-rendering="geometricPrecision" transform="matrix(1,0,0,1,-1212,-116)" stroke="rgb(216,216,255)">
      <path d="M1444.3075 174.5834 L1475.8075 174.5834 L1479.3075 199.5834 L1447.8075 199.5834 Z" fill-rule="evenodd" clip-path="url(#clipPath2)" stroke="none"/>
    </g>
    <g text-rendering="geometricPrecision" stroke-miterlimit="1.45" shape-rendering="geometricPrecision" transform="matrix(1,0,0,1,-1212,-116)" stroke-linecap="butt">
      <path fill="none" d="M1444.3075 174.5834 L1475.8075 174.5834 L1479.3075 199.5834 L1447.8075 199.5834 Z" fill-rule="evenodd" clip-path="url(#clipPath2)"/>
    </g>
    <g fill="rgb(216,216,255)" text-rendering="geometricPrecision" shape-rendering="geometricPrecision" transform="matrix(1,0,0,1,-1212,-116)" stroke="rgb(216,216,255)">
      <path d="M1450.3075 177.5834 L1481.8075 177.5834 L1485.3075 202.5834 L1453.8075 202.5834 Z" fill-rule="evenodd" clip-path="url(#clipPath2)" stroke="none"/>
    </g>
    <g text-rendering="geometricPrecision" stroke-miterlimit="1.45" shape-rendering="geometricPrecision" transform="matrix(1,0,0,1,-1212,-116)" stroke-linecap="butt">
      <path fill="none" d="M1450.3075 177.5834 L1481.8075 177.5834 L1485.3075 202.5834 L1453.8075 202.5834 Z" fill-rule="evenodd" clip-path="url(#clipPath2)"/>
    </g>
    <g fill="rgb(216,216,255)" text-rendering="geometricPrecision" shape-rendering="geometricPrecision" transform="matrix(1,0,0,1,-1212,-116)" stroke="rgb(216,216,255)">
      <path d="M1456.3075 180.5834 L1487.8075 180.5834 L1491.3075 205.5834 L1459.8075 205.5834 Z" fill-rule="evenodd" clip-path="url(#clipPath2)" stroke="none"/>
    </g>
    <g text-rendering="geometricPrecision" stroke-miterlimit="1.45" shape-rendering="geometricPrecision" transform="matrix(1,0,0,1,-1212,-116)" stroke-linecap="butt">
      <path fill="none" d="M1456.3075 180.5834 L1487.8075 180.5834 L1491.3075 205.5834 L1459.8075 205.5834 Z" fill-rule="evenodd" clip-path="url(#clipPath2)"/>
      <text x="1460.8289" xml:space="preserve" y="197.2376" clip-path="url(#clipPath2)" font-family="sans-serif" stroke="none">step</text>
    </g>
    <g fill="rgb(255,203,229)" text-rendering="geometricPrecision" shape-rendering="geometricPrecision" transform="matrix(1,0,0,1,-1212,-116)" stroke="rgb(255,203,229)">
      <path d="M1426.8575 335.0834 L1528.5575 335.0834 L1517.2574 391.0834 L1415.5575 391.0834 Z" fill-rule="evenodd" clip-path="url(#clipPath2)" stroke="none"/>
    </g>
    <g text-rendering="geometricPrecision" stroke-miterlimit="1.45" shape-rendering="geometricPrecision" transform="matrix(1,0,0,1,-1212,-116)" stroke-linecap="butt">
      <path fill="none" d="M1426.8575 335.0834 L1528.5575 335.0834 L1517.2574 391.0834 L1415.5575 391.0834 Z" fill-rule="evenodd" clip-path="url(#clipPath2)"/>
      <text x="1432.0115" xml:space="preserve" y="352.222" clip-path="url(#clipPath2)" font-family="sans-serif" stroke="none">orchestration</text>
    </g>
    <g fill="rgb(216,216,255)" text-rendering="geometricPrecision" shape-rendering="geometricPrecision" transform="matrix(1,0,0,1,-1212,-116)" stroke="rgb(216,216,255)">
      <path d="M1448.5575 356.0834 L1480.0575 356.0834 L1483.5575 381.0834 L1452.0575 381.0834 Z" fill-rule="evenodd" clip-path="url(#clipPath2)" stroke="none"/>
    </g>
    <g text-rendering="geometricPrecision" stroke-miterlimit="1.45" shape-rendering="geometricPrecision" transform="matrix(1,0,0,1,-1212,-116)" stroke-linecap="butt">
      <path fill="none" d="M1448.5575 356.0834 L1480.0575 356.0834 L1483.5575 381.0834 L1452.0575 381.0834 Z" fill-rule="evenodd" clip-path="url(#clipPath2)"/>
    </g>
    <g fill="rgb(216,216,255)" text-rendering="geometricPrecision" shape-rendering="geometricPrecision" transform="matrix(1,0,0,1,-1212,-116)" stroke="rgb(216,216,255)">
      <path d="M1454.5575 359.0834 L1486.0575 359.0834 L1489.5575 384.0834 L1458.0575 384.0834 Z" fill-rule="evenodd" clip-path="url(#clipPath2)" stroke="none"/>
    </g>
    <g text-rendering="geometricPrecision" stroke-miterlimit="1.45" shape-rendering="geometricPrecision" transform="matrix(1,0,0,1,-1212,-116)" stroke-linecap="butt">
      <path fill="none" d="M1454.5575 359.0834 L1486.0575 359.0834 L1489.5575 384.0834 L1458.0575 384.0834 Z" fill-rule="evenodd" clip-path="url(#clipPath2)"/>
    </g>
    <g fill="rgb(216,216,255)" text-rendering="geometricPrecision" shape-rendering="geometricPrecision" transform="matrix(1,0,0,1,-1212,-116)" stroke="rgb(216,216,255)">
      <path d="M1460.5575 362.0834 L1492.0575 362.0834 L1495.5575 387.0834 L1464.0575 387.0834 Z" fill-rule="evenodd" clip-path="url(#clipPath2)" stroke="none"/>
    </g>
    <g text-rendering="geometricPrecision" stroke-miterlimit="1.45" shape-rendering="geometricPrecision" transform="matrix(1,0,0,1,-1212,-116)" stroke-linecap="butt">
      <path fill="none" d="M1460.5575 362.0834 L1492.0575 362.0834 L1495.5575 387.0834 L1464.0575 387.0834 Z" fill-rule="evenodd" clip-path="url(#clipPath2)"/>
      <text x="1465.0789" xml:space="preserve" y="378.7376" clip-path="url(#clipPath2)" font-family="sans-serif" stroke="none">step</text>
    </g>
    <g fill="rgb(216,216,255)" text-rendering="geometricPrecision" shape-rendering="geometricPrecision" transform="matrix(1,0,0,1,-1212,-116)" stroke="rgb(216,216,255)">
      <path d="M1454.5575 456.0832 L1533.7574 456.0832 L1542.5575 486.0831 L1463.3575 486.0831 Z" fill-rule="evenodd" clip-path="url(#clipPath2)" stroke="none"/>
    </g>
    <g text-rendering="geometricPrecision" stroke-miterlimit="1.45" shape-rendering="geometricPrecision" transform="matrix(1,0,0,1,-1212,-116)" stroke-linecap="butt">
      <path fill="none" d="M1454.5575 456.0832 L1533.7574 456.0832 L1542.5575 486.0831 L1463.3575 486.0831 Z" fill-rule="evenodd" clip-path="url(#clipPath2)"/>
      <text x="1469.2019" xml:space="preserve" y="468.2533" clip-path="url(#clipPath2)" font-family="sans-serif" stroke="none">extension</text>
      <text x="1493.0818" xml:space="preserve" y="482.222" clip-path="url(#clipPath2)" font-family="sans-serif" stroke="none">id</text>
    </g>
    <g fill="rgb(254,224,204)" text-rendering="geometricPrecision" shape-rendering="geometricPrecision" transform="matrix(1,0,0,1,-1212,-116)" stroke="rgb(254,224,204)">
      <rect x="1241.5574" y="398.0112" clip-path="url(#clipPath2)" width="50.2" rx="4" ry="4" height="90.7333" stroke="none"/>
    </g>
    <g text-rendering="geometricPrecision" stroke-miterlimit="1.45" shape-rendering="geometricPrecision" transform="matrix(1,0,0,1,-1212,-116)" stroke-linecap="butt">
      <rect x="1241.5574" y="398.0112" clip-path="url(#clipPath2)" fill="none" width="50.2" rx="4" ry="4" height="90.7333"/>
      <text x="1242.5323" font-size="8px" y="446.1474" clip-path="url(#clipPath2)" font-family="sans-serif" stroke="none" xml:space="preserve">Integrations</text>
    </g>
    <g fill="rgb(254,224,204)" text-rendering="geometricPrecision" shape-rendering="geometricPrecision" transform="matrix(1,0,0,1,-1212,-116)" stroke="rgb(254,224,204)">
      <rect x="1241.5574" y="295.113" clip-path="url(#clipPath2)" width="50.2" rx="4" ry="4" height="90.7333" stroke="none"/>
    </g>
    <g text-rendering="geometricPrecision" stroke-miterlimit="1.45" shape-rendering="geometricPrecision" transform="matrix(1,0,0,1,-1212,-116)" stroke-linecap="butt">
      <rect x="1241.5574" y="295.113" clip-path="url(#clipPath2)" fill="none" width="50.2" rx="4" ry="4" height="90.7333"/>
      <text x="1255.4659" font-size="8px" y="343.2492" clip-path="url(#clipPath2)" font-family="sans-serif" stroke="none" xml:space="preserve">Steps</text>
    </g>
    <g fill="rgb(254,224,204)" text-rendering="geometricPrecision" shape-rendering="geometricPrecision" transform="matrix(1,0,0,1,-1212,-116)" stroke="rgb(254,224,204)">
      <rect x="1242.6074" y="192.2148" clip-path="url(#clipPath2)" width="50.2" rx="4" ry="4" height="90.7333" stroke="none"/>
    </g>
    <g text-rendering="geometricPrecision" stroke-miterlimit="1.45" shape-rendering="geometricPrecision" transform="matrix(1,0,0,1,-1212,-116)" stroke-linecap="butt">
      <rect x="1242.6074" y="192.2148" clip-path="url(#clipPath2)" fill="none" width="50.2" rx="4" ry="4" height="90.7333"/>
      <text x="1251.1781" font-size="8px" y="240.351" clip-path="url(#clipPath2)" font-family="sans-serif" stroke="none" xml:space="preserve">ViewDef</text>
      <path fill="none" stroke-dasharray="18,6" d="M1308.835 309.5987 L1594.2611 309.5987" stroke-width="3" clip-path="url(#clipPath2)"/>
      <path stroke-dasharray="18,6" d="M1604.2611 309.5987 L1589.2611 303.3487 L1593.0111 309.5987 L1589.2611 315.8487 Z" stroke-width="3" clip-path="url(#clipPath2)" stroke="none"/>
      <path fill="none" stroke-dasharray="18,6" d="M1604.1593 239.5843 L1318.835 239.5843" stroke-width="3" clip-path="url(#clipPath2)"/>
      <path stroke-dasharray="18,6" d="M1308.835 239.5843 L1323.835 245.8343 L1320.085 239.5843 L1323.835 233.3343 Z" stroke-width="3" clip-path="url(#clipPath2)" stroke="none"/>
      <path fill="none" d="M1769.229 158 L1871.1674 158 L1871.1674 404.3667 L1827.0123 404.3667" clip-path="url(#clipPath2)"/>
      <path d="M1819.0123 404.3667 L1831.0123 409.3667 L1828.0123 404.3667 L1831.0123 399.3667 Z" clip-path="url(#clipPath2)" stroke="none"/>
      <path fill="none" d="M1769.229 158 L1871.1674 158 L1871.1674 440.6667 L1827.0123 440.6667" clip-path="url(#clipPath2)"/>
      <path d="M1819.0123 440.6667 L1831.0123 445.6667 L1828.0123 440.6667 L1831.0123 435.6667 Z" clip-path="url(#clipPath2)" stroke="none"/>
      <path fill="none" d="M1769.229 158 L1871.1674 158 L1871.1674 476.9667 L1827.0123 476.9667" clip-path="url(#clipPath2)"/>
      <path d="M1819.0123 476.9667 L1831.0123 481.9667 L1828.0123 476.9667 L1831.0123 471.9667 Z" clip-path="url(#clipPath2)" stroke="none"/>
      <rect x="1786.5026" y="149.0156" clip-path="url(#clipPath2)" fill="white" width="29.6465" height="17.9688" stroke="none"/>
      <text x="1788.5027" xml:space="preserve" y="162.1543" clip-path="url(#clipPath2)" font-family="sans-serif" stroke="none">load</text>
      <path fill="none" stroke-dasharray="4,3,0,3" d="M1663.2675 431.7607 L1663.2675 421.4267 L1735.9674 421.4267 L1735.9674 404.3667 L1749.1797 404.3667" clip-path="url(#clipPath2)" stroke-linecap="round"/>
      <path fill="none" d="M1674.5215 440.6667 L1695.5172 440.6667" clip-path="url(#clipPath2)"/>
      <path fill="none" stroke-dasharray="4,3,0,3" d="M1717.9735 440.6667 L1749.2034 440.6667" clip-path="url(#clipPath2)" stroke-linecap="round"/>
      <path fill="none" stroke-dasharray="4,3,0,3" d="M1706.9053 476.9667 L1749.2423 476.9667" clip-path="url(#clipPath2)" stroke-linecap="round"/>
      <path fill="none" stroke-dasharray="4,3,0,3" d="M1498.5574 486.0713 L1498.5574 530.2267 L1784.1149 530.2267 L1784.1149 489.4755" clip-path="url(#clipPath2)" stroke-linecap="round"/>
    </g>
  </g>
</svg>
