<?xml version="1.0" encoding="UTF-8"?><svg xmlns="http://www.w3.org/2000/svg" xmlns:xlink="http://www.w3.org/1999/xlink" fill-opacity="1" color-rendering="auto" color-interpolation="auto" text-rendering="auto" stroke="black" stroke-linecap="square" width="547" stroke-miterlimit="10" shape-rendering="auto" stroke-opacity="1" fill="black" stroke-dasharray="none" font-weight="normal" stroke-width="1" height="227" font-family="'Dialog'" font-style="normal" stroke-linejoin="miter" font-size="12px" stroke-dashoffset="0" image-rendering="auto">
  <!--Generated by ySVG 2.5-->
  <defs id="genericDefs"/>
  <g>
    <defs id="defs1">
      <linearGradient x1="-301.1" gradientUnits="userSpaceOnUse" x2="-222.3" y1="328.3346" y2="328.3346" id="linearGradient1" spreadMethod="reflect">
        <stop stop-opacity="1" stop-color="rgb(254,224,204)" offset="0%"/>
        <stop stop-opacity="0.3961" stop-color="rgb(253,152,85)" offset="100%"/>
      </linearGradient>
      <linearGradient x1="-301.1" gradientUnits="userSpaceOnUse" x2="-222.3" y1="273.7959" y2="273.7959" id="linearGradient2" spreadMethod="reflect">
        <stop stop-opacity="1" stop-color="rgb(254,224,204)" offset="0%"/>
        <stop stop-opacity="0.3961" stop-color="rgb(253,152,85)" offset="100%"/>
      </linearGradient>
      <linearGradient x1="-301.1" gradientUnits="userSpaceOnUse" x2="-222.3" y1="277.1097" y2="277.1097" id="linearGradient3" spreadMethod="reflect">
        <stop stop-opacity="1" stop-color="rgb(254,224,204)" offset="0%"/>
        <stop stop-opacity="0.3961" stop-color="rgb(253,152,85)" offset="100%"/>
      </linearGradient>
      <linearGradient x1="-301.1" gradientUnits="userSpaceOnUse" x2="-222.3" y1="335.3293" y2="335.3293" id="linearGradient4" spreadMethod="reflect">
        <stop stop-opacity="1" stop-color="rgb(254,224,204)" offset="0%"/>
        <stop stop-opacity="0.3961" stop-color="rgb(253,152,85)" offset="100%"/>
      </linearGradient>
      <linearGradient x1="-301.1" gradientUnits="userSpaceOnUse" x2="-222.3" y1="335.3293" y2="335.3293" id="linearGradient5" spreadMethod="reflect">
        <stop stop-opacity="1" stop-color="rgb(254,224,204)" offset="0%"/>
        <stop stop-opacity="0.3961" stop-color="rgb(253,152,85)" offset="100%"/>
      </linearGradient>
      <linearGradient x1="-301.1" gradientUnits="userSpaceOnUse" x2="-222.3" y1="338.6431" y2="338.6431" id="linearGradient6" spreadMethod="reflect">
        <stop stop-opacity="1" stop-color="rgb(254,224,204)" offset="0%"/>
        <stop stop-opacity="0.3961" stop-color="rgb(253,152,85)" offset="100%"/>
      </linearGradient>
      <linearGradient x1="-457.8333" gradientUnits="userSpaceOnUse" x2="-382.5" y1="300.8813" y2="300.8813" id="linearGradient7" spreadMethod="reflect">
        <stop stop-opacity="1" stop-color="rgb(254,224,204)" offset="0%"/>
        <stop stop-opacity="0.3961" stop-color="rgb(253,152,85)" offset="100%"/>
      </linearGradient>
      <clipPath clipPathUnits="userSpaceOnUse" id="clipPath1">
        <path d="M0 0 L547 0 L547 227 L0 227 L0 0 Z"/>
      </clipPath>
      <clipPath clipPathUnits="userSpaceOnUse" id="clipPath2">
        <path d="M-511 194 L36 194 L36 421 L-511 421 L-511 194 Z"/>
      </clipPath>
    </defs>
    <g fill="rgb(255,203,229)" text-rendering="geometricPrecision" shape-rendering="geometricPrecision" transform="matrix(1,0,0,1,511,-194)" stroke="rgb(255,203,229)">
      <rect x="-362" width="224" height="195.7604" y="209.273" clip-path="url(#clipPath2)" stroke="none"/>
    </g>
    <g fill="white" text-rendering="geometricPrecision" shape-rendering="geometricPrecision" transform="matrix(1,0,0,1,511,-194)" stroke="white">
      <rect x="-362" width="1" height="195.7604" y="209.273" clip-path="url(#clipPath2)" stroke="none"/>
      <rect x="-361" width="222" height="1" y="209.273" clip-path="url(#clipPath2)" stroke="none"/>
      <rect x="-361" y="404.0333" clip-path="url(#clipPath2)" fill="rgb(178,142,160)" width="223" height="1" stroke="none"/>
      <rect x="-139" y="209.273" clip-path="url(#clipPath2)" fill="rgb(178,142,160)" width="1" height="194.7604" stroke="none"/>
    </g>
    <g stroke-linecap="butt" transform="matrix(1,0,0,1,511,-194)" text-rendering="geometricPrecision" font-family="sans-serif" shape-rendering="geometricPrecision" font-weight="bold" stroke-miterlimit="1.45">
      <text x="-356" xml:space="preserve" y="226.4116" clip-path="url(#clipPath2)" stroke="none">Backend</text>
    </g>
    <g fill="url(#linearGradient1)" text-rendering="geometricPrecision" shape-rendering="geometricPrecision" transform="matrix(1,0,0,1,511,-194)" stroke="url(#linearGradient1)">
      <rect x="-340.5" y="328.3346" clip-path="url(#clipPath2)" width="118.2" rx="4" ry="4" height="31.5333" stroke="none"/>
    </g>
    <g text-rendering="geometricPrecision" stroke-miterlimit="1.45" shape-rendering="geometricPrecision" transform="matrix(1,0,0,1,511,-194)" stroke-linecap="butt">
      <rect x="-340.5" y="328.3346" clip-path="url(#clipPath2)" fill="none" width="118.2" rx="4" ry="4" height="31.5333"/>
      <text x="-305.2906" font-size="8px" y="346.8708" clip-path="url(#clipPath2)" font-family="sans-serif" stroke="none" xml:space="preserve">StepService</text>
      <rect x="-352.5" y="237.4396" clip-path="url(#clipPath2)" fill="none" width="139.2" rx="4" ry="4" height="157.1937"/>
      <text x="-308.2008" xml:space="preserve" y="254.5783" clip-path="url(#clipPath2)" font-family="sans-serif" stroke="none">Services</text>
    </g>
    <g fill="url(#linearGradient2)" text-rendering="geometricPrecision" shape-rendering="geometricPrecision" transform="matrix(1,0,0,1,511,-194)" stroke="url(#linearGradient2)">
      <rect x="-340.5" y="273.7959" clip-path="url(#clipPath2)" width="118.2" rx="4" ry="4" height="31.5333" stroke="none"/>
    </g>
    <g text-rendering="geometricPrecision" stroke-miterlimit="1.45" shape-rendering="geometricPrecision" transform="matrix(1,0,0,1,511,-194)" stroke-linecap="butt">
      <rect x="-340.5" y="273.7959" clip-path="url(#clipPath2)" fill="none" width="118.2" rx="4" ry="4" height="31.5333"/>
      <text x="-336.2818" xml:space="preserve" y="293.7169" clip-path="url(#clipPath2)" font-family="sans-serif" stroke="none">StepParserService</text>
    </g>
    <g fill="url(#linearGradient3)" text-rendering="geometricPrecision" shape-rendering="geometricPrecision" transform="matrix(1,0,0,1,511,-194)" stroke="url(#linearGradient3)">
      <rect x="-340.5" y="277.1098" clip-path="url(#clipPath2)" width="118.2" rx="4" ry="4" height="31.5333" stroke="none"/>
    </g>
    <g text-rendering="geometricPrecision" stroke-miterlimit="1.45" shape-rendering="geometricPrecision" transform="matrix(1,0,0,1,511,-194)" stroke-linecap="butt">
      <rect x="-340.5" y="277.1098" clip-path="url(#clipPath2)" fill="none" width="118.2" rx="4" ry="4" height="31.5333"/>
      <text x="-336.2818" xml:space="preserve" y="297.0307" clip-path="url(#clipPath2)" font-family="sans-serif" stroke="none">StepParserService</text>
    </g>
    <g fill="rgb(254,224,204)" text-rendering="geometricPrecision" shape-rendering="geometricPrecision" transform="matrix(1,0,0,1,511,-194)" stroke="rgb(254,224,204)">
      <rect x="-340.5" y="280.6126" clip-path="url(#clipPath2)" width="118.2" rx="4" ry="4" height="31.5333" stroke="none"/>
    </g>
    <g text-rendering="geometricPrecision" stroke-miterlimit="1.45" shape-rendering="geometricPrecision" transform="matrix(1,0,0,1,511,-194)" stroke-linecap="butt">
      <rect x="-340.5" y="280.6126" clip-path="url(#clipPath2)" fill="none" width="118.2" rx="4" ry="4" height="31.5333"/>
      <text x="-317.9879" font-size="8px" y="299.1488" clip-path="url(#clipPath2)" font-family="sans-serif" stroke="none" xml:space="preserve">StepParserService</text>
    </g>
    <g fill="url(#linearGradient4)" text-rendering="geometricPrecision" shape-rendering="geometricPrecision" transform="matrix(1,0,0,1,511,-194)" stroke="url(#linearGradient4)">
      <rect x="-340.5" y="335.3293" clip-path="url(#clipPath2)" width="118.2" rx="4" ry="4" height="31.5333" stroke="none"/>
    </g>
    <g text-rendering="geometricPrecision" stroke-miterlimit="1.45" shape-rendering="geometricPrecision" transform="matrix(1,0,0,1,511,-194)" stroke-linecap="butt">
      <rect x="-340.5" y="335.3293" clip-path="url(#clipPath2)" fill="none" width="118.2" rx="4" ry="4" height="31.5333"/>
      <text x="-305.2906" font-size="8px" y="353.8655" clip-path="url(#clipPath2)" font-family="sans-serif" stroke="none" xml:space="preserve">StepService</text>
    </g>
    <g fill="url(#linearGradient5)" text-rendering="geometricPrecision" shape-rendering="geometricPrecision" transform="matrix(1,0,0,1,511,-194)" stroke="url(#linearGradient5)">
      <rect x="-340.5" y="335.3293" clip-path="url(#clipPath2)" width="118.2" rx="4" ry="4" height="31.5333" stroke="none"/>
    </g>
    <g text-rendering="geometricPrecision" stroke-miterlimit="1.45" shape-rendering="geometricPrecision" transform="matrix(1,0,0,1,511,-194)" stroke-linecap="butt">
      <rect x="-340.5" y="335.3293" clip-path="url(#clipPath2)" fill="none" width="118.2" rx="4" ry="4" height="31.5333"/>
      <text x="-305.2906" font-size="8px" y="353.8655" clip-path="url(#clipPath2)" font-family="sans-serif" stroke="none" xml:space="preserve">StepService</text>
    </g>
    <g fill="url(#linearGradient6)" text-rendering="geometricPrecision" shape-rendering="geometricPrecision" transform="matrix(1,0,0,1,511,-194)" stroke="url(#linearGradient6)">
      <rect x="-340.5" y="338.6431" clip-path="url(#clipPath2)" width="118.2" rx="4" ry="4" height="31.5333" stroke="none"/>
    </g>
    <g text-rendering="geometricPrecision" stroke-miterlimit="1.45" shape-rendering="geometricPrecision" transform="matrix(1,0,0,1,511,-194)" stroke-linecap="butt">
      <rect x="-340.5" y="338.6431" clip-path="url(#clipPath2)" fill="none" width="118.2" rx="4" ry="4" height="31.5333"/>
      <text x="-305.2906" font-size="8px" y="357.1793" clip-path="url(#clipPath2)" font-family="sans-serif" stroke="none" xml:space="preserve">StepService</text>
    </g>
    <g fill="rgb(254,224,204)" text-rendering="geometricPrecision" shape-rendering="geometricPrecision" transform="matrix(1,0,0,1,511,-194)" stroke="rgb(254,224,204)">
      <rect x="-340.5" y="342.1459" clip-path="url(#clipPath2)" width="118.2" rx="4" ry="4" height="31.5333" stroke="none"/>
    </g>
    <g text-rendering="geometricPrecision" stroke-miterlimit="1.45" shape-rendering="geometricPrecision" transform="matrix(1,0,0,1,511,-194)" stroke-linecap="butt">
      <rect x="-340.5" y="342.1459" clip-path="url(#clipPath2)" fill="none" width="118.2" rx="4" ry="4" height="31.5333"/>
      <text x="-305.2906" font-size="8px" y="360.6821" clip-path="url(#clipPath2)" font-family="sans-serif" stroke="none" xml:space="preserve">StepService</text>
      <rect x="-213.3" y="237.4396" clip-path="url(#clipPath2)" fill="none" width="66.3" rx="4" ry="4" height="157.1937"/>
      <text x="-189.6422" xml:space="preserve" y="254.5783" clip-path="url(#clipPath2)" font-family="sans-serif" stroke="none">API</text>
    </g>
    <g fill="rgb(255,203,229)" text-rendering="geometricPrecision" shape-rendering="geometricPrecision" transform="matrix(1,0,0,1,511,-194)" stroke="rgb(255,203,229)">
      <path d="M-80.7 246.3396 L21 246.3396 L9.7 302.3397 L-92 302.3397 Z" fill-rule="evenodd" clip-path="url(#clipPath2)" stroke="none"/>
    </g>
    <g text-rendering="geometricPrecision" stroke-miterlimit="1.45" shape-rendering="geometricPrecision" transform="matrix(1,0,0,1,511,-194)" stroke-linecap="butt">
      <path fill="none" d="M-80.7 246.3396 L21 246.3396 L9.7 302.3397 L-92 302.3397 Z" fill-rule="evenodd" clip-path="url(#clipPath2)"/>
      <text x="-71.9336" xml:space="preserve" y="278.4939" clip-path="url(#clipPath2)" font-family="sans-serif" stroke="none">source code</text>
    </g>
    <g fill="rgb(216,216,255)" text-rendering="geometricPrecision" shape-rendering="geometricPrecision" transform="matrix(1,0,0,1,511,-194)" stroke="rgb(216,216,255)">
      <path d="M-65 344.203 L-33.5 344.203 L-30 369.203 L-61.5 369.203 Z" fill-rule="evenodd" clip-path="url(#clipPath2)" stroke="none"/>
    </g>
    <g text-rendering="geometricPrecision" stroke-miterlimit="1.45" shape-rendering="geometricPrecision" transform="matrix(1,0,0,1,511,-194)" stroke-linecap="butt">
      <path fill="none" d="M-65 344.203 L-33.5 344.203 L-30 369.203 L-61.5 369.203 Z" fill-rule="evenodd" clip-path="url(#clipPath2)"/>
    </g>
    <g fill="rgb(216,216,255)" text-rendering="geometricPrecision" shape-rendering="geometricPrecision" transform="matrix(1,0,0,1,511,-194)" stroke="rgb(216,216,255)">
      <path d="M-59 347.203 L-27.5 347.203 L-24 372.203 L-55.5 372.203 Z" fill-rule="evenodd" clip-path="url(#clipPath2)" stroke="none"/>
    </g>
    <g text-rendering="geometricPrecision" stroke-miterlimit="1.45" shape-rendering="geometricPrecision" transform="matrix(1,0,0,1,511,-194)" stroke-linecap="butt">
      <path fill="none" d="M-59 347.203 L-27.5 347.203 L-24 372.203 L-55.5 372.203 Z" fill-rule="evenodd" clip-path="url(#clipPath2)"/>
    </g>
    <g fill="rgb(216,216,255)" text-rendering="geometricPrecision" shape-rendering="geometricPrecision" transform="matrix(1,0,0,1,511,-194)" stroke="rgb(216,216,255)">
      <path d="M-53 350.203 L-21.5 350.203 L-18 375.203 L-49.5 375.203 Z" fill-rule="evenodd" clip-path="url(#clipPath2)" stroke="none"/>
    </g>
    <g text-rendering="geometricPrecision" stroke-miterlimit="1.45" shape-rendering="geometricPrecision" transform="matrix(1,0,0,1,511,-194)" stroke-linecap="butt">
      <path fill="none" d="M-53 350.203 L-21.5 350.203 L-18 375.203 L-49.5 375.203 Z" fill-rule="evenodd" clip-path="url(#clipPath2)"/>
      <text x="-48.4785" xml:space="preserve" y="366.8575" clip-path="url(#clipPath2)" font-family="sans-serif" stroke="none">step</text>
    </g>
    <g fill="url(#linearGradient7)" text-rendering="geometricPrecision" shape-rendering="geometricPrecision" transform="matrix(1,0,0,1,511,-194)" stroke="url(#linearGradient7)">
      <path d="M-495.5 326.8812 L-484.2 300.8812 L-393.8 300.8812 L-382.5 326.8812 L-393.8 352.8812 L-484.2 352.8812 Z" fill-rule="evenodd" clip-path="url(#clipPath2)" stroke="none"/>
    </g>
    <g text-rendering="geometricPrecision" stroke-miterlimit="1.45" shape-rendering="geometricPrecision" transform="matrix(1,0,0,1,511,-194)" stroke-linecap="butt">
      <path fill="none" d="M-495.5 326.8812 L-484.2 300.8812 L-393.8 300.8812 L-382.5 326.8812 L-393.8 352.8812 L-484.2 352.8812 Z" fill-rule="evenodd" clip-path="url(#clipPath2)"/>
      <text x="-452.6611" xml:space="preserve" y="324.0512" clip-path="url(#clipPath2)" font-family="sans-serif" stroke="none">Step</text>
      <text x="-462.042" xml:space="preserve" y="338.02" clip-path="url(#clipPath2)" font-family="sans-serif" stroke="none">Catalog</text>
    </g>
    <g fill="rgb(254,224,204)" text-rendering="geometricPrecision" shape-rendering="geometricPrecision" transform="matrix(1,0,0,1,511,-194)" stroke="rgb(254,224,204)">
      <rect x="-205.25" y="281.4698" clip-path="url(#clipPath2)" width="50.2" rx="4" ry="4" height="90.7333" stroke="none"/>
    </g>
    <g text-rendering="geometricPrecision" stroke-miterlimit="1.45" shape-rendering="geometricPrecision" transform="matrix(1,0,0,1,511,-194)" stroke-linecap="butt">
      <rect x="-205.25" y="281.4698" clip-path="url(#clipPath2)" fill="none" width="50.2" rx="4" ry="4" height="90.7333"/>
      <text x="-191.3414" font-size="8px" y="329.606" clip-path="url(#clipPath2)" font-family="sans-serif" stroke="none" xml:space="preserve">Steps</text>
      <path fill="none" d="M-340.4863 284.2658 L-340.4863 266.4896 L-439 266.4896 L-439 292.9023" clip-path="url(#clipPath2)"/>
      <path d="M-439 300.9023 L-434 288.9023 L-439 291.9023 L-444 288.9023 Z" clip-path="url(#clipPath2)" stroke="none"/>
      <rect x="-428.4204" y="257.5053" clip-path="url(#clipPath2)" fill="white" width="39.7598" height="17.9688" stroke="none"/>
      <text x="-426.4204" xml:space="preserve" y="270.6439" clip-path="url(#clipPath2)" font-family="sans-serif" stroke="none">builds</text>
      <path fill="none" d="M-302.5458 370.2188 L-302.5458 379.975 L-439 379.975 L-439 360.8837" clip-path="url(#clipPath2)"/>
      <path d="M-439 352.8837 L-444 364.8837 L-439 361.8837 L-434 364.8837 Z" clip-path="url(#clipPath2)" stroke="none"/>
      <rect x="-426.963" y="370.9906" clip-path="url(#clipPath2)" fill="white" width="31.4922" height="17.9688" stroke="none"/>
      <text x="-424.963" xml:space="preserve" y="384.1293" clip-path="url(#clipPath2)" font-family="sans-serif" stroke="none">uses</text>
      <path fill="none" stroke-dasharray="4,3,0,3" d="M-281.4 280.6285 L-281.4 260.775 L-180.15 260.775 L-180.15 281.4515" clip-path="url(#clipPath2)" stroke-linecap="round"/>
      <path fill="none" stroke-dasharray="4,3,0,3" d="M-281.4 373.6632 L-281.4 385.483 L-185.2125 385.483 L-185.2125 372.181" clip-path="url(#clipPath2)" stroke-linecap="round"/>
      <path fill="none" d="M-86.3251 274.3396 L-121.5958 274.3396 L-121.5958 304.325 L-147.0346 304.325" clip-path="url(#clipPath2)"/>
      <path d="M-155.0346 304.325 L-143.0346 309.325 L-146.0346 304.325 L-143.0346 299.325 Z" clip-path="url(#clipPath2)" stroke="none"/>
      <path fill="none" d="M-155.076 326.8365 L-125.3458 326.8365 L-125.3458 356.7032 L-71.2744 356.7032" clip-path="url(#clipPath2)"/>
      <path d="M-63.2744 356.7032 L-75.2744 351.7032 L-72.2744 356.7032 L-75.2744 361.7032 Z" clip-path="url(#clipPath2)" stroke="none"/>
    </g>
  </g>
</svg>
