<?xml version="1.0" encoding="UTF-8"?><svg xmlns="http://www.w3.org/2000/svg" xmlns:xlink="http://www.w3.org/1999/xlink" fill-opacity="1" color-rendering="auto" color-interpolation="auto" text-rendering="auto" stroke="black" stroke-linecap="square" width="653" stroke-miterlimit="10" shape-rendering="auto" stroke-opacity="1" fill="black" stroke-dasharray="none" font-weight="normal" stroke-width="1" height="230" font-family="'Dialog'" font-style="normal" stroke-linejoin="miter" font-size="12px" stroke-dashoffset="0" image-rendering="auto">
  <!--Generated by ySVG 2.5-->
  <defs id="genericDefs"/>
  <g>
    <defs id="defs1">
      <linearGradient x1="1211.2125" gradientUnits="userSpaceOnUse" x2="1290.0125" y1="41.5932" y2="41.5932" id="linearGradient1" spreadMethod="reflect">
        <stop stop-opacity="1" stop-color="rgb(254,224,204)" offset="0%"/>
        <stop stop-opacity="0.3961" stop-color="rgb(253,152,85)" offset="100%"/>
      </linearGradient>
      <linearGradient x1="1211.2125" gradientUnits="userSpaceOnUse" x2="1290.0125" y1="43.7624" y2="43.7624" id="linearGradient2" spreadMethod="reflect">
        <stop stop-opacity="1" stop-color="rgb(254,224,204)" offset="0%"/>
        <stop stop-opacity="0.3961" stop-color="rgb(253,152,85)" offset="100%"/>
      </linearGradient>
      <linearGradient x1="1470.3959" gradientUnits="userSpaceOnUse" x2="1595.0625" y1="-8.6901" y2="-8.6901" id="linearGradient3" spreadMethod="reflect">
        <stop stop-opacity="1" stop-color="rgb(255,203,229)" offset="0%"/>
        <stop stop-opacity="1" stop-color="rgb(203,203,255)" offset="100%"/>
      </linearGradient>
      <linearGradient x1="1010.9792" gradientUnits="userSpaceOnUse" x2="1086.3125" y1="60.8932" y2="60.8932" id="linearGradient4" spreadMethod="reflect">
        <stop stop-opacity="1" stop-color="rgb(254,224,204)" offset="0%"/>
        <stop stop-opacity="0.3961" stop-color="rgb(253,152,85)" offset="100%"/>
      </linearGradient>
      <clipPath clipPathUnits="userSpaceOnUse" id="clipPath1">
        <path d="M0 0 L653 0 L653 230 L0 230 L0 0 Z"/>
      </clipPath>
      <clipPath clipPathUnits="userSpaceOnUse" id="clipPath2">
        <path d="M958 -33 L1611 -33 L1611 197 L958 197 L958 -33 Z"/>
      </clipPath>
    </defs>
    <g fill="rgb(255,203,229)" text-rendering="geometricPrecision" shape-rendering="geometricPrecision" transform="matrix(1,0,0,1,-958,33)" stroke="rgb(255,203,229)">
      <rect x="1151.8125" width="224" height="190.0667" y="-17.5735" clip-path="url(#clipPath2)" stroke="none"/>
    </g>
    <g fill="white" text-rendering="geometricPrecision" shape-rendering="geometricPrecision" transform="matrix(1,0,0,1,-958,33)" stroke="white">
      <rect x="1151.8125" width="1" height="190.0667" y="-17.5735" clip-path="url(#clipPath2)" stroke="none"/>
      <rect x="1152.8125" width="222" height="1" y="-17.5735" clip-path="url(#clipPath2)" stroke="none"/>
      <rect x="1152.8125" y="171.4932" clip-path="url(#clipPath2)" fill="rgb(178,142,160)" width="223" height="1" stroke="none"/>
      <rect x="1374.8125" y="-17.5735" clip-path="url(#clipPath2)" fill="rgb(178,142,160)" width="1" height="189.0667" stroke="none"/>
    </g>
    <g stroke-linecap="butt" transform="matrix(1,0,0,1,-958,33)" text-rendering="geometricPrecision" font-family="sans-serif" shape-rendering="geometricPrecision" font-weight="bold" stroke-miterlimit="1.45">
      <text x="1157.8125" xml:space="preserve" y="-0.4348" clip-path="url(#clipPath2)" stroke="none">Backend</text>
      <rect x="1161.3125" y="10.5932" clip-path="url(#clipPath2)" fill="none" width="139.2" rx="4" ry="4" height="151.5"/>
      <text x="1205.6117" xml:space="preserve" y="27.7319" clip-path="url(#clipPath2)" font-weight="normal" stroke="none">Services</text>
    </g>
    <g fill="rgb(254,224,204)" text-rendering="geometricPrecision" shape-rendering="geometricPrecision" transform="matrix(1,0,0,1,-958,33)" stroke="rgb(254,224,204)">
      <rect x="1171.8125" y="116.8276" clip-path="url(#clipPath2)" width="118.2" rx="4" ry="4" height="31.5333" stroke="none"/>
    </g>
    <g text-rendering="geometricPrecision" stroke-miterlimit="1.45" shape-rendering="geometricPrecision" transform="matrix(1,0,0,1,-958,33)" stroke-linecap="butt">
      <rect x="1171.8125" y="116.8276" clip-path="url(#clipPath2)" fill="none" width="118.2" rx="4" ry="4" height="31.5333"/>
      <text x="1187.1801" font-size="8px" y="135.3638" clip-path="url(#clipPath2)" font-family="sans-serif" stroke="none" xml:space="preserve">ViewDefinitionService</text>
    </g>
    <g fill="url(#linearGradient1)" text-rendering="geometricPrecision" shape-rendering="geometricPrecision" transform="matrix(1,0,0,1,-958,33)" stroke="url(#linearGradient1)">
      <rect x="1171.8125" y="41.5932" clip-path="url(#clipPath2)" width="118.2" rx="4" ry="4" height="31.5333" stroke="none"/>
    </g>
    <g text-rendering="geometricPrecision" stroke-miterlimit="1.45" shape-rendering="geometricPrecision" transform="matrix(1,0,0,1,-958,33)" stroke-linecap="butt">
      <rect x="1171.8125" y="41.5932" clip-path="url(#clipPath2)" fill="none" width="118.2" rx="4" ry="4" height="31.5333"/>
    </g>
    <g fill="url(#linearGradient2)" text-rendering="geometricPrecision" shape-rendering="geometricPrecision" transform="matrix(1,0,0,1,-958,33)" stroke="url(#linearGradient2)">
      <rect x="1171.8125" y="43.7624" clip-path="url(#clipPath2)" width="118.2" rx="4" ry="4" height="31.5333" stroke="none"/>
    </g>
    <g text-rendering="geometricPrecision" stroke-miterlimit="1.45" shape-rendering="geometricPrecision" transform="matrix(1,0,0,1,-958,33)" stroke-linecap="butt">
      <rect x="1171.8125" y="43.7624" clip-path="url(#clipPath2)" fill="none" width="118.2" rx="4" ry="4" height="31.5333"/>
    </g>
    <g fill="rgb(254,224,204)" text-rendering="geometricPrecision" shape-rendering="geometricPrecision" transform="matrix(1,0,0,1,-958,33)" stroke="rgb(254,224,204)">
      <rect x="1171.8125" y="46.2423" clip-path="url(#clipPath2)" width="118.2" rx="4" ry="4" height="31.5333" stroke="none"/>
    </g>
    <g text-rendering="geometricPrecision" stroke-miterlimit="1.45" shape-rendering="geometricPrecision" transform="matrix(1,0,0,1,-958,33)" stroke-linecap="butt">
      <rect x="1171.8125" y="46.2423" clip-path="url(#clipPath2)" fill="none" width="118.2" rx="4" ry="4" height="31.5333"/>
      <text x="1174.4828" font-size="8px" y="64.7785" clip-path="url(#clipPath2)" font-family="sans-serif" stroke="none" xml:space="preserve">ViewDefinitionParserService</text>
      <rect x="1300.5125" y="10.5932" clip-path="url(#clipPath2)" fill="none" width="66.3" rx="4" ry="4" height="151.5"/>
      <text x="1324.1703" xml:space="preserve" y="27.7319" clip-path="url(#clipPath2)" font-family="sans-serif" stroke="none">API</text>
    </g>
    <g fill="url(#linearGradient3)" text-rendering="geometricPrecision" shape-rendering="geometricPrecision" transform="matrix(1,0,0,1,-958,33)" stroke="url(#linearGradient3)">
      <rect x="1408.0625" width="187" height="190.0667" y="-8.6901" clip-path="url(#clipPath2)" stroke="none"/>
      <rect x="1408.0625" y="-8.6901" clip-path="url(#clipPath2)" fill="white" width="1" height="190.0667" stroke="none"/>
      <rect x="1409.0625" y="-8.6901" clip-path="url(#clipPath2)" fill="white" width="185" height="1" stroke="none"/>
      <rect x="1409.0625" y="180.3765" clip-path="url(#clipPath2)" fill="rgb(178,142,160)" width="186" height="1" stroke="none"/>
      <rect x="1594.0625" y="-8.6901" clip-path="url(#clipPath2)" fill="rgb(178,142,160)" width="1" height="189.0667" stroke="none"/>
      <path fill="rgb(255,203,229)" d="M1441.3125 90.3099 L1537.6125 90.3099 L1548.3125 112.8099 L1537.6125 135.3099 L1441.3125 135.3099 L1452.0127 112.8099 Z" clip-path="url(#clipPath2)" fill-rule="evenodd" stroke="none"/>
    </g>
    <g text-rendering="geometricPrecision" stroke-miterlimit="1.45" shape-rendering="geometricPrecision" transform="matrix(1,0,0,1,-958,33)" stroke-linecap="butt">
      <path fill="none" d="M1441.3125 90.3099 L1537.6125 90.3099 L1548.3125 112.8099 L1537.6125 135.3099 L1441.3125 135.3099 L1452.0127 112.8099 Z" fill-rule="evenodd" clip-path="url(#clipPath2)"/>
    </g>
    <g fill="rgb(255,203,229)" text-rendering="geometricPrecision" shape-rendering="geometricPrecision" transform="matrix(1,0,0,1,-958,33)" stroke="rgb(255,203,229)">
      <path d="M1448.3125 95.9766 L1544.6125 95.9766 L1555.3125 118.4766 L1544.6125 140.9765 L1448.3125 140.9765 L1459.0127 118.4766 Z" fill-rule="evenodd" clip-path="url(#clipPath2)" stroke="none"/>
    </g>
    <g text-rendering="geometricPrecision" stroke-miterlimit="1.45" shape-rendering="geometricPrecision" transform="matrix(1,0,0,1,-958,33)" stroke-linecap="butt">
      <path fill="none" d="M1448.3125 95.9766 L1544.6125 95.9766 L1555.3125 118.4766 L1544.6125 140.9765 L1448.3125 140.9765 L1459.0127 118.4766 Z" fill-rule="evenodd" clip-path="url(#clipPath2)"/>
    </g>
    <g fill="rgb(255,203,229)" text-rendering="geometricPrecision" shape-rendering="geometricPrecision" transform="matrix(1,0,0,1,-958,33)" stroke="rgb(255,203,229)">
      <path d="M1456.3125 101.6433 L1552.6125 101.6433 L1563.3125 124.1433 L1552.6125 146.6432 L1456.3125 146.6432 L1467.0127 124.1433 Z" fill-rule="evenodd" clip-path="url(#clipPath2)" stroke="none"/>
    </g>
    <g text-rendering="geometricPrecision" stroke-miterlimit="1.45" shape-rendering="geometricPrecision" transform="matrix(1,0,0,1,-958,33)" stroke-linecap="butt">
      <path fill="none" d="M1456.3125 101.6433 L1552.6125 101.6433 L1563.3125 124.1433 L1552.6125 146.6432 L1456.3125 146.6432 L1467.0127 124.1433 Z" fill-rule="evenodd" clip-path="url(#clipPath2)"/>
    </g>
    <g fill="rgb(255,203,229)" text-rendering="geometricPrecision" shape-rendering="geometricPrecision" transform="matrix(1,0,0,1,-958,33)" stroke="rgb(255,203,229)">
      <path d="M1467.3125 107.3099 L1563.6125 107.3099 L1574.3125 129.8099 L1563.6125 152.3099 L1467.3125 152.3099 L1478.0127 129.8099 Z" fill-rule="evenodd" clip-path="url(#clipPath2)" stroke="none"/>
    </g>
    <g text-rendering="geometricPrecision" stroke-miterlimit="1.45" shape-rendering="geometricPrecision" transform="matrix(1,0,0,1,-958,33)" stroke-linecap="butt">
      <path fill="none" d="M1467.3125 107.3099 L1563.6125 107.3099 L1574.3125 129.8099 L1563.6125 152.3099 L1467.3125 152.3099 L1478.0127 129.8099 Z" fill-rule="evenodd" clip-path="url(#clipPath2)"/>
      <text x="1477.3887" xml:space="preserve" y="124.4486" clip-path="url(#clipPath2)" font-family="sans-serif" stroke="none">ViewDefinition</text>
    </g>
    <g fill="rgb(216,216,255)" text-rendering="geometricPrecision" shape-rendering="geometricPrecision" transform="matrix(1,0,0,1,-958,33)" stroke="rgb(216,216,255)">
      <path d="M1486.3125 129.3099 L1565.5127 129.3099 L1574.3125 159.3099 L1495.1125 159.3099 Z" fill-rule="evenodd" clip-path="url(#clipPath2)" stroke="none"/>
    </g>
    <g text-rendering="geometricPrecision" stroke-miterlimit="1.45" shape-rendering="geometricPrecision" transform="matrix(1,0,0,1,-958,33)" stroke-linecap="butt">
      <path fill="none" d="M1486.3125 129.3099 L1565.5127 129.3099 L1574.3125 159.3099 L1495.1125 159.3099 Z" fill-rule="evenodd" clip-path="url(#clipPath2)"/>
      <text x="1500.957" xml:space="preserve" y="141.4798" clip-path="url(#clipPath2)" font-family="sans-serif" stroke="none">extension</text>
      <text x="1524.8369" xml:space="preserve" y="155.4485" clip-path="url(#clipPath2)" font-family="sans-serif" stroke="none">id</text>
    </g>
    <g fill="url(#linearGradient4)" text-rendering="geometricPrecision" shape-rendering="geometricPrecision" transform="matrix(1,0,0,1,-958,33)" stroke="url(#linearGradient4)">
      <path d="M973.3125 86.8932 L984.6125 60.8933 L1075.0125 60.8933 L1086.3125 86.8932 L1075.0125 112.8933 L984.6125 112.8933 Z" fill-rule="evenodd" clip-path="url(#clipPath2)" stroke="none"/>
    </g>
    <g text-rendering="geometricPrecision" stroke-miterlimit="1.45" shape-rendering="geometricPrecision" transform="matrix(1,0,0,1,-958,33)" stroke-linecap="butt">
      <path fill="none" d="M973.3125 86.8932 L984.6125 60.8933 L1075.0125 60.8933 L1086.3125 86.8932 L1075.0125 112.8933 L984.6125 112.8933 Z" fill-rule="evenodd" clip-path="url(#clipPath2)"/>
      <text x="986.3887" xml:space="preserve" y="84.0631" clip-path="url(#clipPath2)" font-family="sans-serif" stroke="none">ViewDefinition</text>
      <text x="1006.7705" xml:space="preserve" y="98.0319" clip-path="url(#clipPath2)" font-family="sans-serif" stroke="none">Catalog</text>
    </g>
    <g fill="rgb(254,224,204)" text-rendering="geometricPrecision" shape-rendering="geometricPrecision" transform="matrix(1,0,0,1,-958,33)" stroke="rgb(254,224,204)">
      <rect x="1309.6125" y="43.3914" clip-path="url(#clipPath2)" width="50.2" rx="4" ry="4" height="90.7333" stroke="none"/>
    </g>
    <g text-rendering="geometricPrecision" stroke-miterlimit="1.45" shape-rendering="geometricPrecision" transform="matrix(1,0,0,1,-958,33)" stroke-linecap="butt">
      <rect x="1309.6125" y="43.3914" clip-path="url(#clipPath2)" fill="none" width="50.2" rx="4" ry="4" height="90.7333"/>
      <text x="1318.1832" font-size="8px" y="91.5276" clip-path="url(#clipPath2)" font-family="sans-serif" stroke="none" xml:space="preserve">ViewDef</text>
    </g>
    <g fill="rgb(255,203,229)" text-rendering="geometricPrecision" shape-rendering="geometricPrecision" transform="matrix(1,0,0,1,-958,33)" stroke="rgb(255,203,229)">
      <path d="M1448.3125 20.9766 L1544.6125 20.9766 L1555.3125 43.4766 L1544.6125 65.9766 L1448.3125 65.9766 L1459.0125 43.4766 Z" fill-rule="evenodd" clip-path="url(#clipPath2)" stroke="none"/>
    </g>
    <g text-rendering="geometricPrecision" stroke-miterlimit="1.45" shape-rendering="geometricPrecision" transform="matrix(1,0,0,1,-958,33)" stroke-linecap="butt">
      <path fill="none" d="M1448.3125 20.9766 L1544.6125 20.9766 L1555.3125 43.4766 L1544.6125 65.9766 L1448.3125 65.9766 L1459.0125 43.4766 Z" fill-rule="evenodd" clip-path="url(#clipPath2)"/>
      <text x="1458.3887" xml:space="preserve" y="38.1152" clip-path="url(#clipPath2)" font-family="sans-serif" stroke="none">ViewDefinition</text>
      <text x="1459.1006" xml:space="preserve" y="52.084" clip-path="url(#clipPath2)" font-family="sans-serif" stroke="none">(main canvas)</text>
      <path fill="none" d="M1171.8037 47.8999 L1032.269 47.8999 L1032.269 52.9006" clip-path="url(#clipPath2)"/>
      <path d="M1032.269 60.9006 L1037.269 48.9006 L1032.269 51.9006 L1027.269 48.9006 Z" clip-path="url(#clipPath2)" stroke="none"/>
      <rect x="1095.3643" y="38.9155" clip-path="url(#clipPath2)" fill="white" width="39.7598" height="17.9688" stroke="none"/>
      <text x="1097.3644" xml:space="preserve" y="52.0542" clip-path="url(#clipPath2)" font-family="sans-serif" stroke="none">builds</text>
      <path fill="none" d="M1171.7987 132.5943 L1029.8125 133.0932 L1029.8125 120.9132" clip-path="url(#clipPath2)"/>
      <path d="M1029.8125 112.9132 L1024.8125 124.9132 L1029.8125 121.9132 L1034.8125 124.9132 Z" clip-path="url(#clipPath2)" stroke="none"/>
      <rect x="1101.2542" y="123.8025" clip-path="url(#clipPath2)" fill="white" width="31.4922" height="17.9688" stroke="none"/>
      <text x="1103.2543" xml:space="preserve" y="136.9412" clip-path="url(#clipPath2)" font-family="sans-serif" stroke="none">uses</text>
      <path fill="none" stroke-dasharray="4,3,0,3" d="M1230.9125 116.7978 L1230.9125 88.7581 L1309.5988 88.7581" clip-path="url(#clipPath2)" stroke-linecap="round"/>
      <path fill="none" stroke-dasharray="4,3,0,3" d="M1289.9882 62.009 L1309.5903 62.009" clip-path="url(#clipPath2)" stroke-linecap="round"/>
      <path fill="none" d="M1359.8459 88.3943 L1400.0428 87.8125" clip-path="url(#clipPath2)"/>
      <path d="M1408.042 87.6967 L1395.9709 82.8709 L1399.043 87.827 L1396.1156 92.8699 Z" clip-path="url(#clipPath2)" stroke="none"/>
    </g>
  </g>
</svg>
