<?xml version="1.0" encoding="UTF-8"?><svg xmlns="http://www.w3.org/2000/svg" viewBox="0 0 32 32"><title>rh-ui-icon-puzzle-piece</title>
<desc>integration, integrated, fit, put together, connected, plugin, plug-in, connection</desc>
<metadata><?xpacket begin="﻿" id="W5M0MpCehiHzreSzNTczkc9d"?>
<x:xmpmeta xmlns:x="adobe:ns:meta/" x:xmptk="Adobe XMP Core 8.0-c001 1.000000, 0000/00/00-00:00:00        ">
   <rdf:RDF xmlns:rdf="http://www.w3.org/1999/02/22-rdf-syntax-ns#">
      <rdf:Description rdf:about=""
            xmlns:xmp="http://ns.adobe.com/xap/1.0/"
            xmlns:dc="http://purl.org/dc/elements/1.1/"
            xmlns:xmpRights="http://ns.adobe.com/xap/1.0/rights/">
         <xmp:rhcc-effective-on>2024-05-06T13:13:26.156Z</xmp:rhcc-effective-on>
         <xmp:rhcc-rights-restricted>no</xmp:rhcc-rights-restricted>
         <xmp:brand-content-subtype>UI</xmp:brand-content-subtype>
         <xmp:rhcc-metadata-complete-moderator>pending</xmp:rhcc-metadata-complete-moderator>
         <xmp:rhcc-translation-id>TRAcbb42722-9663-4e31-af25-5391ca9d7d65</xmp:rhcc-translation-id>
         <xmp:brand-content-type>Icon</xmp:brand-content-type>
         <xmp:CreateDate>2024-05-06T13:13:26.156Z</xmp:CreateDate>
         <xmp:rhcc-derivative-id>DERcbb42722-9663-4e31-af25-5391ca9d7d65</xmp:rhcc-derivative-id>
         <xmp:rhcc-effective-on-set-on-upload>true</xmp:rhcc-effective-on-set-on-upload>
         <xmp:rhcc-uploaded-by>ryawilli@redhat.com</xmp:rhcc-uploaded-by>
         <xmp:brand-logo-color>Black</xmp:brand-logo-color>
         <xmp:rhcc-metadata-complete-uploader>pending</xmp:rhcc-metadata-complete-uploader>
         <xmp:rhcc-file-last-modified>2024-07-12T23:46:29.154Z</xmp:rhcc-file-last-modified>
         <xmp:rhcc-audience>rhcc-audience:internal</xmp:rhcc-audience>
         <xmp:rhcc-notify-portal-subscribers-on-change>yes</xmp:rhcc-notify-portal-subscribers-on-change>
         <dc:format>image/svg+xml</dc:format>
         <dc:modified>2024-10-02T19:56:26.195Z</dc:modified>
         <dc:description>
            <rdf:Alt>
               <rdf:li xml:lang="x-default">integration, integrated, fit, put together, connected, plugin, plug-in, connection</rdf:li>
            </rdf:Alt>
         </dc:description>
         <dc:title>
            <rdf:Alt>
               <rdf:li xml:lang="x-default">rh-ui-icon-puzzle-piece</rdf:li>
            </rdf:Alt>
         </dc:title>
         <xmpRights:UsageTerms>
            <rdf:Alt>
               <rdf:li xml:lang="x-default">User interface (UI) icons are designed to be used in small spaces, typically between 14px and 24px. They appear in interfaces as buttons or to give the user information. They should not be used for decoration.</rdf:li>
            </rdf:Alt>
         </xmpRights:UsageTerms>
      </rdf:Description>
   </rdf:RDF>
</x:xmpmeta>
                                                                                                    
                                                                                                    
                                                                                                    
                                                                                                    
                                                                                                    
                                                                                                    
                                                                                                    
                                                                                                    
                                                                                                    
                                                                                                    
                                                                                                    
                                                                                                    
                                                                                                    
                                                                                                    
                                                                                                    
                                                                                                    
                                                                                                    
                                                                                                    
                                                                                                    
                                                                                                    
                           
<?xpacket end="w"?></metadata>
<defs><style>.uuid-38d5704a-993d-4bb4-82a8-745df4a685e0{fill:none;}.uuid-38d5704a-993d-4bb4-82a8-745df4a685e0,.uuid-2679ab3f-af15-4243-a673-3ca609aae7c6{stroke-width:0px;}.uuid-2679ab3f-af15-4243-a673-3ca609aae7c6{fill:#151515;}</style></defs><g id="uuid-e111ab09-579f-4739-91db-6ff72979ed73"><rect class="uuid-38d5704a-993d-4bb4-82a8-745df4a685e0" width="32" height="32"/></g><g id="uuid-95428af6-d5fd-488e-af28-d72e98366e9d"><path class="uuid-2679ab3f-af15-4243-a673-3ca609aae7c6" d="M29.9004,14.9902c-.3408-1.7241-1.6577-3.1929-3.354-3.7417-.8535-.2754-1.7148-.3232-2.5464-.146v-3.6025c0-.8271-.6729-1.5-1.5-1.5h-4.6025c.1772-.8315.1299-1.6919-.146-2.5464-.5488-1.6963-2.0176-3.0132-3.7417-3.354-1.4956-.2959-3.0215.082-4.1826,1.0361s-1.8271,2.3628-1.8271,3.8643c0,.3384.0347.6724.104,1H3.5c-.8271,0-1.5.6729-1.5,1.5v5.0547c0,.3579.1914.6885.5015.8667.3105.1787.6934.1772,1.0015-.0024.7715-.4487,1.5884-.5386,2.4282-.2671,1.0166.3286,1.8047,1.2026,2.0073,2.2261.1816.9209-.0381,1.8179-.6191,2.5249-.9014,1.0972-2.5049,1.4424-3.8159.6782-.3086-.1792-.6909-.1802-1.002-.0029-.3101.1787-.5015.5093-.5015.8672v5.0547c0,.8271.6729,1.5,1.5,1.5h4.6025c-.1772.8306-.1304,1.6904.145,2.5439.5474,1.6978,2.0161,3.0146,3.7407,3.356.335.0664.6714.0991,1.0044.0991,1.1567,0,2.2773-.3931,3.1792-1.1338,1.1616-.9541,1.8281-2.3633,1.8281-3.8652,0-.3384-.0347-.6724-.104-1h4.604c.8271,0,1.5-.6729,1.5-1.5v-3.604c1.7808.3784,3.6953-.3008,4.8643-1.7231.9541-1.1611,1.332-2.6855,1.0361-4.1826ZM27.3193,17.9028c-.9009,1.0972-2.5049,1.4424-3.8159.6782-.3096-.1792-.6914-.1802-1.002-.0029-.3101.1787-.5015.5093-.5015.8672v4.5547h-5.5547c-.3579,0-.6885.1914-.8672.5015-.1782.3105-.1772.6924.0029,1.002.2778.4771.4189.9805.4189,1.4966,0,.9014-.3999,1.7466-1.0977,2.3198-.7075.5811-1.6055.8013-2.5259.6182-1.0239-.2026-1.8975-.9907-2.2256-2.0083-.2705-.8394-.1807-1.6558.2681-2.4268.1802-.3091.1812-.6914.0024-1.0015-.1782-.3101-.5088-.5015-.8667-.5015h-5.5547v-3.104c1.7817.3784,3.6953-.3008,4.8643-1.7231.9541-1.1611,1.332-2.6855,1.0361-4.1826-.3408-1.7241-1.6577-3.1929-3.354-3.7417-.854-.2754-1.7144-.3232-2.5464-.146v-3.1025h5.5547c.3579,0,.6885-.1914.8672-.5015.1782-.3105.1772-.6924-.0029-1.002-.2778-.4771-.4189-.9805-.4189-1.4966,0-.9009.3999-1.7461,1.0972-2.3193.7065-.5815,1.6011-.8003,2.5249-.6191,1.0234.2026,1.8975.9907,2.2261,2.0073.2715.8398.1816,1.6567-.2671,2.4282-.1802.3096-.1812.6914-.0024,1.0015.1782.3101.5088.5015.8667.5015h5.5547v4.5547c0,.3579.1914.6885.5015.8667.3101.1787.6924.1772,1.0015-.0024.7715-.4487,1.5884-.5386,2.4282-.2671,1.0166.3286,1.8047,1.2026,2.0073,2.2261.1816.9209-.0381,1.8179-.6191,2.5249Z"/></g></svg>