<?xml version="1.0" encoding="UTF-8"?><svg xmlns="http://www.w3.org/2000/svg" xmlns:xlink="http://www.w3.org/1999/xlink" fill-opacity="1" color-rendering="auto" color-interpolation="auto" text-rendering="auto" stroke="black" stroke-linecap="square" width="828" stroke-miterlimit="10" shape-rendering="auto" stroke-opacity="1" fill="black" stroke-dasharray="none" font-weight="normal" stroke-width="1" height="408" font-family="'Dialog'" font-style="normal" stroke-linejoin="miter" font-size="12px" stroke-dashoffset="0" image-rendering="auto">
  <!--Generated by ySVG 2.5-->
  <defs id="genericDefs"/>
  <g>
    <defs id="defs1">
      <linearGradient x1="370.9" gradientUnits="userSpaceOnUse" x2="449.7" y1="364.8116" y2="364.8116" id="linearGradient1" spreadMethod="reflect">
        <stop stop-opacity="1" stop-color="rgb(163,73,164)" offset="0%"/>
        <stop stop-opacity="1" stop-color="blue" offset="100%"/>
      </linearGradient>
      <linearGradient x1="661.8333" gradientUnits="userSpaceOnUse" x2="786.5" y1="121.3333" y2="121.3333" id="linearGradient2" spreadMethod="reflect">
        <stop stop-opacity="1" stop-color="rgb(255,0,128)" offset="0%"/>
        <stop stop-opacity="1" stop-color="blue" offset="100%"/>
      </linearGradient>
      <linearGradient x1="663.8333" gradientUnits="userSpaceOnUse" x2="788.5" y1="308.1667" y2="308.1667" id="linearGradient3" spreadMethod="reflect">
        <stop stop-opacity="1" stop-color="rgb(255,0,128)" offset="0%"/>
        <stop stop-opacity="1" stop-color="blue" offset="100%"/>
      </linearGradient>
      <linearGradient x1="169.1667" gradientUnits="userSpaceOnUse" x2="244.5" y1="366.1583" y2="366.1583" id="linearGradient4" spreadMethod="reflect">
        <stop stop-opacity="1" stop-color="rgb(214,46,2)" offset="0%"/>
        <stop stop-opacity="1" stop-color="rgb(253,152,85)" offset="100%"/>
      </linearGradient>
      <linearGradient x1="169.1667" gradientUnits="userSpaceOnUse" x2="244.5" y1="199.8" y2="199.8" id="linearGradient5" spreadMethod="reflect">
        <stop stop-opacity="1" stop-color="rgb(214,46,2)" offset="0%"/>
        <stop stop-opacity="1" stop-color="rgb(253,152,85)" offset="100%"/>
      </linearGradient>
      <linearGradient x1="862.4537" gradientUnits="userSpaceOnUse" x2="928.4537" y1="217.6" y2="217.6" id="linearGradient6" spreadMethod="reflect">
        <stop stop-opacity="1" stop-color="blue" offset="0%"/>
        <stop stop-opacity="1" stop-color="blue" offset="100%"/>
      </linearGradient>
      <linearGradient x1="365.9" gradientUnits="userSpaceOnUse" x2="458.7" y1="149.5" y2="149.5" id="linearGradient7" spreadMethod="reflect">
        <stop stop-opacity="1" stop-color="rgb(163,73,164)" offset="0%"/>
        <stop stop-opacity="1" stop-color="rgb(255,0,128)" offset="100%"/>
      </linearGradient>
      <linearGradient x1="369.4" gradientUnits="userSpaceOnUse" x2="448.2" y1="255.7343" y2="255.7343" id="linearGradient8" spreadMethod="reflect">
        <stop stop-opacity="1" stop-color="rgb(163,73,164)" offset="0%"/>
        <stop stop-opacity="1" stop-color="blue" offset="100%"/>
      </linearGradient>
      <linearGradient x1="370.9" gradientUnits="userSpaceOnUse" x2="449.7" y1="310.273" y2="310.273" id="linearGradient9" spreadMethod="reflect">
        <stop stop-opacity="1" stop-color="rgb(163,73,164)" offset="0%"/>
        <stop stop-opacity="1" stop-color="blue" offset="100%"/>
      </linearGradient>
      <linearGradient x1="369.4" gradientUnits="userSpaceOnUse" x2="448.2" y1="180.5" y2="180.5" id="linearGradient10" spreadMethod="reflect">
        <stop stop-opacity="1" stop-color="rgb(163,73,164)" offset="0%"/>
        <stop stop-opacity="1" stop-color="blue" offset="100%"/>
      </linearGradient>
      <linearGradient x1="370.9" gradientUnits="userSpaceOnUse" x2="449.7" y1="439.9782" y2="439.9782" id="linearGradient11" spreadMethod="reflect">
        <stop stop-opacity="1" stop-color="rgb(163,73,164)" offset="0%"/>
        <stop stop-opacity="1" stop-color="blue" offset="100%"/>
      </linearGradient>
      <linearGradient x1="370.9" gradientUnits="userSpaceOnUse" x2="449.7" y1="313.5868" y2="313.5868" id="linearGradient12" spreadMethod="reflect">
        <stop stop-opacity="1" stop-color="rgb(163,73,164)" offset="0%"/>
        <stop stop-opacity="1" stop-color="blue" offset="100%"/>
      </linearGradient>
      <linearGradient x1="370.9" gradientUnits="userSpaceOnUse" x2="449.7" y1="317.0896" y2="317.0896" id="linearGradient13" spreadMethod="reflect">
        <stop stop-opacity="1" stop-color="rgb(163,73,164)" offset="0%"/>
        <stop stop-opacity="1" stop-color="blue" offset="100%"/>
      </linearGradient>
      <linearGradient x1="369.4" gradientUnits="userSpaceOnUse" x2="448.2" y1="182.6692" y2="182.6692" id="linearGradient14" spreadMethod="reflect">
        <stop stop-opacity="1" stop-color="rgb(163,73,164)" offset="0%"/>
        <stop stop-opacity="1" stop-color="blue" offset="100%"/>
      </linearGradient>
      <linearGradient x1="369.4" gradientUnits="userSpaceOnUse" x2="448.2" y1="185.1491" y2="185.1491" id="linearGradient15" spreadMethod="reflect">
        <stop stop-opacity="1" stop-color="rgb(163,73,164)" offset="0%"/>
        <stop stop-opacity="1" stop-color="blue" offset="100%"/>
      </linearGradient>
      <linearGradient x1="370.9" gradientUnits="userSpaceOnUse" x2="449.7" y1="371.8063" y2="371.8063" id="linearGradient16" spreadMethod="reflect">
        <stop stop-opacity="1" stop-color="rgb(163,73,164)" offset="0%"/>
        <stop stop-opacity="1" stop-color="blue" offset="100%"/>
      </linearGradient>
      <linearGradient x1="370.9" gradientUnits="userSpaceOnUse" x2="449.7" y1="371.8063" y2="371.8063" id="linearGradient17" spreadMethod="reflect">
        <stop stop-opacity="1" stop-color="rgb(163,73,164)" offset="0%"/>
        <stop stop-opacity="1" stop-color="blue" offset="100%"/>
      </linearGradient>
      <linearGradient x1="370.9" gradientUnits="userSpaceOnUse" x2="449.7" y1="375.1201" y2="375.1201" id="linearGradient18" spreadMethod="reflect">
        <stop stop-opacity="1" stop-color="rgb(163,73,164)" offset="0%"/>
        <stop stop-opacity="1" stop-color="blue" offset="100%"/>
      </linearGradient>
      <linearGradient x1="370.9" gradientUnits="userSpaceOnUse" x2="449.7" y1="444.3565" y2="444.3565" id="linearGradient19" spreadMethod="reflect">
        <stop stop-opacity="1" stop-color="rgb(163,73,164)" offset="0%"/>
        <stop stop-opacity="1" stop-color="blue" offset="100%"/>
      </linearGradient>
      <linearGradient x1="370.9" gradientUnits="userSpaceOnUse" x2="449.7" y1="449.713" y2="449.713" id="linearGradient20" spreadMethod="reflect">
        <stop stop-opacity="1" stop-color="rgb(163,73,164)" offset="0%"/>
        <stop stop-opacity="1" stop-color="blue" offset="100%"/>
      </linearGradient>
      <linearGradient x1="370.9" gradientUnits="userSpaceOnUse" x2="449.7" y1="378.623" y2="378.623" id="linearGradient21" spreadMethod="reflect">
        <stop stop-opacity="1" stop-color="rgb(163,73,164)" offset="0%"/>
        <stop stop-opacity="1" stop-color="blue" offset="100%"/>
      </linearGradient>
      <linearGradient x1="480.8" gradientUnits="userSpaceOnUse" x2="525" y1="149.5" y2="149.5" id="linearGradient22" spreadMethod="reflect">
        <stop stop-opacity="1" stop-color="rgb(163,73,164)" offset="0%"/>
        <stop stop-opacity="1" stop-color="rgb(255,0,128)" offset="100%"/>
      </linearGradient>
      <linearGradient x1="484.5333" gradientUnits="userSpaceOnUse" x2="518" y1="182.2982" y2="182.2982" id="linearGradient23" spreadMethod="reflect">
        <stop stop-opacity="1" stop-color="rgb(163,73,164)" offset="0%"/>
        <stop stop-opacity="1" stop-color="blue" offset="100%"/>
      </linearGradient>
      <linearGradient x1="483.4833" gradientUnits="userSpaceOnUse" x2="516.95" y1="285.1964" y2="285.1964" id="linearGradient24" spreadMethod="reflect">
        <stop stop-opacity="1" stop-color="rgb(163,73,164)" offset="0%"/>
        <stop stop-opacity="1" stop-color="blue" offset="100%"/>
      </linearGradient>
      <linearGradient x1="483.4833" gradientUnits="userSpaceOnUse" x2="516.95" y1="388.0945" y2="388.0945" id="linearGradient25" spreadMethod="reflect">
        <stop stop-opacity="1" stop-color="rgb(163,73,164)" offset="0%"/>
        <stop stop-opacity="1" stop-color="blue" offset="100%"/>
      </linearGradient>
      <clipPath clipPathUnits="userSpaceOnUse" id="clipPath1">
        <path d="M0 0 L828 0 L828 408 L0 408 L0 0 Z"/>
      </clipPath>
      <clipPath clipPathUnits="userSpaceOnUse" id="clipPath2">
        <path d="M116 106 L944 106 L944 514 L116 514 L116 106 Z"/>
      </clipPath>
    </defs>
    <g fill="url(#linearGradient1)" text-rendering="geometricPrecision" shape-rendering="geometricPrecision" transform="matrix(1,0,0,1,-116,-106)" stroke="url(#linearGradient1)">
      <rect x="331.5" y="364.8116" clip-path="url(#clipPath2)" width="118.2" rx="4" ry="4" height="31.5333" stroke="none"/>
    </g>
    <g text-rendering="geometricPrecision" stroke-miterlimit="1.45" shape-rendering="geometricPrecision" transform="matrix(1,0,0,1,-116,-106)" stroke-linecap="butt">
      <rect x="331.5" y="364.8116" clip-path="url(#clipPath2)" fill="none" width="118.2" rx="4" ry="4" height="31.5333"/>
      <text x="366.7094" font-size="8px" y="383.3478" clip-path="url(#clipPath2)" font-family="sans-serif" stroke="none" xml:space="preserve">StepService</text>
    </g>
    <g fill="url(#linearGradient2)" text-rendering="geometricPrecision" shape-rendering="geometricPrecision" transform="matrix(1,0,0,1,-116,-106)" stroke="url(#linearGradient2)">
      <rect x="599.5" width="187" height="100.6667" y="121.3333" clip-path="url(#clipPath2)" stroke="none"/>
      <rect x="599.5" y="121.3333" clip-path="url(#clipPath2)" fill="rgb(255,0,182)" width="1" height="100.6667" stroke="none"/>
      <rect x="600.5" y="121.3333" clip-path="url(#clipPath2)" fill="rgb(255,0,182)" width="185" height="1" stroke="none"/>
      <rect x="600.5" y="221" clip-path="url(#clipPath2)" fill="rgb(178,0,89)" width="186" height="1" stroke="none"/>
      <rect x="785.5" y="121.3333" clip-path="url(#clipPath2)" fill="rgb(178,0,89)" width="1" height="99.6667" stroke="none"/>
      <rect x="601.5" y="308.1667" clip-path="url(#clipPath2)" fill="url(#linearGradient3)" width="187" height="190.0667" stroke="none"/>
      <rect x="601.5" y="308.1667" clip-path="url(#clipPath2)" fill="rgb(255,0,182)" width="1" height="190.0667" stroke="none"/>
      <rect x="602.5" y="308.1667" clip-path="url(#clipPath2)" fill="rgb(255,0,182)" width="185" height="1" stroke="none"/>
      <rect x="602.5" y="497.2333" clip-path="url(#clipPath2)" fill="rgb(178,0,89)" width="186" height="1" stroke="none"/>
      <rect x="787.5" y="308.1667" clip-path="url(#clipPath2)" fill="rgb(178,0,89)" width="1" height="189.0667" stroke="none"/>
      <path fill="url(#linearGradient4)" d="M131.5 392.1583 L142.8 366.1583 L233.2 366.1583 L244.5 392.1583 L233.2 418.1583 L142.8 418.1583 Z" clip-path="url(#clipPath2)" fill-rule="evenodd" stroke="none"/>
    </g>
    <g text-rendering="geometricPrecision" stroke-miterlimit="1.45" shape-rendering="geometricPrecision" transform="matrix(1,0,0,1,-116,-106)" stroke-linecap="butt">
      <path fill="none" d="M131.5 392.1583 L142.8 366.1583 L233.2 366.1583 L244.5 392.1583 L233.2 418.1583 L142.8 418.1583 Z" fill-rule="evenodd" clip-path="url(#clipPath2)"/>
      <text x="174.3389" xml:space="preserve" y="389.3282" clip-path="url(#clipPath2)" font-family="sans-serif" stroke="none">Step</text>
      <text x="164.958" xml:space="preserve" y="403.297" clip-path="url(#clipPath2)" font-family="sans-serif" stroke="none">Catalog</text>
    </g>
    <g fill="url(#linearGradient5)" text-rendering="geometricPrecision" shape-rendering="geometricPrecision" transform="matrix(1,0,0,1,-116,-106)" stroke="url(#linearGradient5)">
      <path d="M131.5 225.8 L142.8 199.8 L233.2 199.8 L244.5 225.8 L233.2 251.8 L142.8 251.8 Z" fill-rule="evenodd" clip-path="url(#clipPath2)" stroke="none"/>
    </g>
    <g text-rendering="geometricPrecision" stroke-miterlimit="1.45" shape-rendering="geometricPrecision" transform="matrix(1,0,0,1,-116,-106)" stroke-linecap="butt">
      <path fill="none" d="M131.5 225.8 L142.8 199.8 L233.2 199.8 L244.5 225.8 L233.2 251.8 L142.8 251.8 Z" fill-rule="evenodd" clip-path="url(#clipPath2)"/>
      <text x="144.5762" xml:space="preserve" y="222.9699" clip-path="url(#clipPath2)" font-family="sans-serif" stroke="none">ViewDefinition</text>
      <text x="164.958" xml:space="preserve" y="236.9387" clip-path="url(#clipPath2)" font-family="sans-serif" stroke="none">Catalog</text>
    </g>
    <g fill="rgb(255,0,128)" text-rendering="geometricPrecision" shape-rendering="geometricPrecision" transform="matrix(1,0,0,1,-116,-106)" stroke="rgb(255,0,128)">
      <rect x="310" width="224" height="376.9" y="121.3333" clip-path="url(#clipPath2)" stroke="none"/>
      <rect x="310" y="121.3333" clip-path="url(#clipPath2)" fill="rgb(255,0,182)" width="1" height="376.9" stroke="none"/>
      <rect x="311" y="121.3333" clip-path="url(#clipPath2)" fill="rgb(255,0,182)" width="222" height="1" stroke="none"/>
      <rect x="311" y="497.2333" clip-path="url(#clipPath2)" fill="rgb(178,0,89)" width="223" height="1" stroke="none"/>
      <rect x="533" y="121.3333" clip-path="url(#clipPath2)" fill="rgb(178,0,89)" width="1" height="375.9" stroke="none"/>
    </g>
    <g stroke-linecap="butt" transform="matrix(1,0,0,1,-116,-106)" text-rendering="geometricPrecision" font-family="sans-serif" shape-rendering="geometricPrecision" font-weight="bold" stroke-miterlimit="1.45">
      <text x="316" xml:space="preserve" y="138.472" clip-path="url(#clipPath2)" stroke="none">Backend</text>
    </g>
    <g fill="rgb(255,153,255)" text-rendering="geometricPrecision" shape-rendering="geometricPrecision" transform="matrix(1,0,0,1,-116,-106)" stroke="rgb(255,153,255)">
      <path d="M634.75 407.1667 L731.05 407.1667 L741.75 429.6667 L731.05 452.1667 L634.75 452.1667 L645.45 429.6667 Z" fill-rule="evenodd" clip-path="url(#clipPath2)" stroke="none"/>
    </g>
    <g text-rendering="geometricPrecision" stroke-miterlimit="1.45" shape-rendering="geometricPrecision" transform="matrix(1,0,0,1,-116,-106)" stroke-linecap="butt">
      <path fill="none" d="M634.75 407.1667 L731.05 407.1667 L741.75 429.6667 L731.05 452.1667 L634.75 452.1667 L645.45 429.6667 Z" fill-rule="evenodd" clip-path="url(#clipPath2)"/>
    </g>
    <g fill="rgb(255,153,255)" text-rendering="geometricPrecision" shape-rendering="geometricPrecision" transform="matrix(1,0,0,1,-116,-106)" stroke="rgb(255,153,255)">
      <path d="M641.75 412.8333 L738.05 412.8333 L748.75 435.3333 L738.05 457.8333 L641.75 457.8333 L652.45 435.3333 Z" fill-rule="evenodd" clip-path="url(#clipPath2)" stroke="none"/>
    </g>
    <g text-rendering="geometricPrecision" stroke-miterlimit="1.45" shape-rendering="geometricPrecision" transform="matrix(1,0,0,1,-116,-106)" stroke-linecap="butt">
      <path fill="none" d="M641.75 412.8333 L738.05 412.8333 L748.75 435.3333 L738.05 457.8333 L641.75 457.8333 L652.45 435.3333 Z" fill-rule="evenodd" clip-path="url(#clipPath2)"/>
    </g>
    <g fill="rgb(255,153,255)" text-rendering="geometricPrecision" shape-rendering="geometricPrecision" transform="matrix(1,0,0,1,-116,-106)" stroke="rgb(255,153,255)">
      <path d="M649.75 418.5 L746.05 418.5 L756.75 441 L746.05 463.5 L649.75 463.5 L660.45 441 Z" fill-rule="evenodd" clip-path="url(#clipPath2)" stroke="none"/>
    </g>
    <g text-rendering="geometricPrecision" stroke-miterlimit="1.45" shape-rendering="geometricPrecision" transform="matrix(1,0,0,1,-116,-106)" stroke-linecap="butt">
      <path fill="none" d="M649.75 418.5 L746.05 418.5 L756.75 441 L746.05 463.5 L649.75 463.5 L660.45 441 Z" fill-rule="evenodd" clip-path="url(#clipPath2)"/>
    </g>
    <g fill="rgb(255,153,255)" text-rendering="geometricPrecision" shape-rendering="geometricPrecision" transform="matrix(1,0,0,1,-116,-106)" stroke="rgb(255,153,255)">
      <path d="M660.75 424.1667 L757.05 424.1667 L767.75 446.6667 L757.05 469.1667 L660.75 469.1667 L671.45 446.6667 Z" fill-rule="evenodd" clip-path="url(#clipPath2)" stroke="none"/>
    </g>
    <g text-rendering="geometricPrecision" stroke-miterlimit="1.45" shape-rendering="geometricPrecision" transform="matrix(1,0,0,1,-116,-106)" stroke-linecap="butt">
      <path fill="none" d="M660.75 424.1667 L757.05 424.1667 L767.75 446.6667 L757.05 469.1667 L660.75 469.1667 L671.45 446.6667 Z" fill-rule="evenodd" clip-path="url(#clipPath2)"/>
      <text x="670.8262" xml:space="preserve" y="441.3053" clip-path="url(#clipPath2)" font-family="sans-serif" stroke="none">ViewDefinition</text>
    </g>
    <g fill="url(#linearGradient6)" text-rendering="geometricPrecision" shape-rendering="geometricPrecision" transform="matrix(1,0,0,1,-116,-106)" stroke="url(#linearGradient6)">
      <rect x="829.4537" width="99" height="280.6333" y="217.6" clip-path="url(#clipPath2)" stroke="none"/>
      <rect x="829.4537" y="217.6" clip-path="url(#clipPath2)" fill="blue" width="1" height="280.6333" stroke="none"/>
      <rect x="830.4537" y="217.6" clip-path="url(#clipPath2)" fill="blue" width="97" height="1" stroke="none"/>
      <rect x="830.4537" y="497.2333" clip-path="url(#clipPath2)" fill="rgb(0,0,178)" width="98" height="1" stroke="none"/>
      <rect x="927.4537" y="217.6" clip-path="url(#clipPath2)" fill="rgb(0,0,178)" width="1" height="279.6333" stroke="none"/>
    </g>
    <g stroke-linecap="butt" transform="matrix(1,0,0,1,-116,-106)" text-rendering="geometricPrecision" font-family="sans-serif" shape-rendering="geometricPrecision" font-weight="bold" stroke-miterlimit="1.45">
      <text x="856.3658" xml:space="preserve" y="234.7387" clip-path="url(#clipPath2)" stroke="none">Frontend </text>
    </g>
    <g fill="rgb(153,204,0)" text-rendering="geometricPrecision" shape-rendering="geometricPrecision" transform="matrix(1,0,0,1,-116,-106)" stroke="rgb(153,204,0)">
      <path d="M647.8 143.6667 L749.5 143.6667 L738.2 199.6667 L636.5 199.6667 Z" fill-rule="evenodd" clip-path="url(#clipPath2)" stroke="none"/>
    </g>
    <g text-rendering="geometricPrecision" stroke-miterlimit="1.45" shape-rendering="geometricPrecision" transform="matrix(1,0,0,1,-116,-106)" stroke-linecap="butt">
      <path fill="none" d="M647.8 143.6667 L749.5 143.6667 L738.2 199.6667 L636.5 199.6667 Z" fill-rule="evenodd" clip-path="url(#clipPath2)"/>
      <text x="652.9541" xml:space="preserve" y="160.8053" clip-path="url(#clipPath2)" font-family="sans-serif" stroke="none">orchestration</text>
    </g>
    <g fill="url(#linearGradient7)" text-rendering="geometricPrecision" shape-rendering="geometricPrecision" transform="matrix(1,0,0,1,-116,-106)" stroke="url(#linearGradient7)">
      <rect x="319.5" y="149.5" clip-path="url(#clipPath2)" width="139.2" rx="4" ry="4" height="338.3333" stroke="none"/>
    </g>
    <g text-rendering="geometricPrecision" stroke-miterlimit="1.45" shape-rendering="geometricPrecision" transform="matrix(1,0,0,1,-116,-106)" stroke-linecap="butt">
      <rect x="319.5" y="149.5" clip-path="url(#clipPath2)" fill="none" width="139.2" rx="4" ry="4" height="338.3333"/>
      <text x="363.7992" xml:space="preserve" y="166.6387" clip-path="url(#clipPath2)" font-family="sans-serif" stroke="none">Services</text>
    </g>
    <g fill="url(#linearGradient8)" text-rendering="geometricPrecision" shape-rendering="geometricPrecision" transform="matrix(1,0,0,1,-116,-106)" stroke="url(#linearGradient8)">
      <rect x="330" y="255.7343" clip-path="url(#clipPath2)" width="118.2" rx="4" ry="4" height="31.5333" stroke="none"/>
    </g>
    <g text-rendering="geometricPrecision" stroke-miterlimit="1.45" shape-rendering="geometricPrecision" transform="matrix(1,0,0,1,-116,-106)" stroke-linecap="butt">
      <rect x="330" y="255.7343" clip-path="url(#clipPath2)" fill="none" width="118.2" rx="4" ry="4" height="31.5333"/>
      <text x="345.3676" font-size="8px" y="274.2705" clip-path="url(#clipPath2)" font-family="sans-serif" stroke="none" xml:space="preserve">ViewDefinitionService</text>
    </g>
    <g fill="url(#linearGradient9)" text-rendering="geometricPrecision" shape-rendering="geometricPrecision" transform="matrix(1,0,0,1,-116,-106)" stroke="url(#linearGradient9)">
      <rect x="331.5" y="310.273" clip-path="url(#clipPath2)" width="118.2" rx="4" ry="4" height="31.5333" stroke="none"/>
    </g>
    <g text-rendering="geometricPrecision" stroke-miterlimit="1.45" shape-rendering="geometricPrecision" transform="matrix(1,0,0,1,-116,-106)" stroke-linecap="butt">
      <rect x="331.5" y="310.273" clip-path="url(#clipPath2)" fill="none" width="118.2" rx="4" ry="4" height="31.5333"/>
      <text x="335.7182" xml:space="preserve" y="330.1939" clip-path="url(#clipPath2)" font-family="sans-serif" stroke="none">StepParserService</text>
    </g>
    <g fill="url(#linearGradient10)" text-rendering="geometricPrecision" shape-rendering="geometricPrecision" transform="matrix(1,0,0,1,-116,-106)" stroke="url(#linearGradient10)">
      <rect x="330" y="180.5" clip-path="url(#clipPath2)" width="118.2" rx="4" ry="4" height="31.5333" stroke="none"/>
    </g>
    <g text-rendering="geometricPrecision" stroke-miterlimit="1.45" shape-rendering="geometricPrecision" transform="matrix(1,0,0,1,-116,-106)" stroke-linecap="butt">
      <rect x="330" y="180.5" clip-path="url(#clipPath2)" fill="none" width="118.2" rx="4" ry="4" height="31.5333"/>
    </g>
    <g fill="url(#linearGradient11)" text-rendering="geometricPrecision" shape-rendering="geometricPrecision" transform="matrix(1,0,0,1,-116,-106)" stroke="url(#linearGradient11)">
      <rect x="331.5" y="439.9783" clip-path="url(#clipPath2)" width="118.2" rx="4" ry="4" height="31.5333" stroke="none"/>
    </g>
    <g text-rendering="geometricPrecision" stroke-miterlimit="1.45" shape-rendering="geometricPrecision" transform="matrix(1,0,0,1,-116,-106)" stroke-linecap="butt">
      <rect x="331.5" y="439.9783" clip-path="url(#clipPath2)" fill="none" width="118.2" rx="4" ry="4" height="31.5333"/>
      <text x="351.35" font-size="8px" y="458.5145" clip-path="url(#clipPath2)" font-family="sans-serif" stroke="none" xml:space="preserve">DeploymentService</text>
    </g>
    <g fill="url(#linearGradient12)" text-rendering="geometricPrecision" shape-rendering="geometricPrecision" transform="matrix(1,0,0,1,-116,-106)" stroke="url(#linearGradient12)">
      <rect x="331.5" y="313.5868" clip-path="url(#clipPath2)" width="118.2" rx="4" ry="4" height="31.5333" stroke="none"/>
    </g>
    <g text-rendering="geometricPrecision" stroke-miterlimit="1.45" shape-rendering="geometricPrecision" transform="matrix(1,0,0,1,-116,-106)" stroke-linecap="butt">
      <rect x="331.5" y="313.5868" clip-path="url(#clipPath2)" fill="none" width="118.2" rx="4" ry="4" height="31.5333"/>
      <text x="335.7182" xml:space="preserve" y="333.5078" clip-path="url(#clipPath2)" font-family="sans-serif" stroke="none">StepParserService</text>
    </g>
    <g fill="url(#linearGradient13)" text-rendering="geometricPrecision" shape-rendering="geometricPrecision" transform="matrix(1,0,0,1,-116,-106)" stroke="url(#linearGradient13)">
      <rect x="331.5" y="317.0896" clip-path="url(#clipPath2)" width="118.2" rx="4" ry="4" height="31.5333" stroke="none"/>
    </g>
    <g text-rendering="geometricPrecision" stroke-miterlimit="1.45" shape-rendering="geometricPrecision" transform="matrix(1,0,0,1,-116,-106)" stroke-linecap="butt">
      <rect x="331.5" y="317.0896" clip-path="url(#clipPath2)" fill="none" width="118.2" rx="4" ry="4" height="31.5333"/>
      <text x="354.0121" font-size="8px" y="335.6258" clip-path="url(#clipPath2)" font-family="sans-serif" stroke="none" xml:space="preserve">StepParserService</text>
    </g>
    <g fill="url(#linearGradient14)" text-rendering="geometricPrecision" shape-rendering="geometricPrecision" transform="matrix(1,0,0,1,-116,-106)" stroke="url(#linearGradient14)">
      <rect x="330" y="182.6692" clip-path="url(#clipPath2)" width="118.2" rx="4" ry="4" height="31.5333" stroke="none"/>
    </g>
    <g text-rendering="geometricPrecision" stroke-miterlimit="1.45" shape-rendering="geometricPrecision" transform="matrix(1,0,0,1,-116,-106)" stroke-linecap="butt">
      <rect x="330" y="182.6692" clip-path="url(#clipPath2)" fill="none" width="118.2" rx="4" ry="4" height="31.5333"/>
    </g>
    <g fill="url(#linearGradient15)" text-rendering="geometricPrecision" shape-rendering="geometricPrecision" transform="matrix(1,0,0,1,-116,-106)" stroke="url(#linearGradient15)">
      <rect x="330" y="185.1491" clip-path="url(#clipPath2)" width="118.2" rx="4" ry="4" height="31.5333" stroke="none"/>
    </g>
    <g text-rendering="geometricPrecision" stroke-miterlimit="1.45" shape-rendering="geometricPrecision" transform="matrix(1,0,0,1,-116,-106)" stroke-linecap="butt">
      <rect x="330" y="185.1491" clip-path="url(#clipPath2)" fill="none" width="118.2" rx="4" ry="4" height="31.5333"/>
      <text x="332.6703" font-size="8px" y="203.6853" clip-path="url(#clipPath2)" font-family="sans-serif" stroke="none" xml:space="preserve">ViewDefinitionParserService</text>
    </g>
    <g fill="rgb(204,153,255)" text-rendering="geometricPrecision" shape-rendering="geometricPrecision" transform="matrix(1,0,0,1,-116,-106)" stroke="rgb(204,153,255)">
      <path d="M669.5 164.6667 L701 164.6667 L704.5 189.6667 L673 189.6667 Z" fill-rule="evenodd" clip-path="url(#clipPath2)" stroke="none"/>
    </g>
    <g text-rendering="geometricPrecision" stroke-miterlimit="1.45" shape-rendering="geometricPrecision" transform="matrix(1,0,0,1,-116,-106)" stroke-linecap="butt">
      <path fill="none" d="M669.5 164.6667 L701 164.6667 L704.5 189.6667 L673 189.6667 Z" fill-rule="evenodd" clip-path="url(#clipPath2)"/>
    </g>
    <g fill="rgb(204,153,255)" text-rendering="geometricPrecision" shape-rendering="geometricPrecision" transform="matrix(1,0,0,1,-116,-106)" stroke="rgb(204,153,255)">
      <path d="M675.5 167.6667 L707 167.6667 L710.5 192.6667 L679 192.6667 Z" fill-rule="evenodd" clip-path="url(#clipPath2)" stroke="none"/>
    </g>
    <g text-rendering="geometricPrecision" stroke-miterlimit="1.45" shape-rendering="geometricPrecision" transform="matrix(1,0,0,1,-116,-106)" stroke-linecap="butt">
      <path fill="none" d="M675.5 167.6667 L707 167.6667 L710.5 192.6667 L679 192.6667 Z" fill-rule="evenodd" clip-path="url(#clipPath2)"/>
    </g>
    <g fill="rgb(204,153,255)" text-rendering="geometricPrecision" shape-rendering="geometricPrecision" transform="matrix(1,0,0,1,-116,-106)" stroke="rgb(204,153,255)">
      <path d="M681.5 170.6667 L713 170.6667 L716.5 195.6667 L685 195.6667 Z" fill-rule="evenodd" clip-path="url(#clipPath2)" stroke="none"/>
    </g>
    <g text-rendering="geometricPrecision" stroke-miterlimit="1.45" shape-rendering="geometricPrecision" transform="matrix(1,0,0,1,-116,-106)" stroke-linecap="butt">
      <path fill="none" d="M681.5 170.6667 L713 170.6667 L716.5 195.6667 L685 195.6667 Z" fill-rule="evenodd" clip-path="url(#clipPath2)"/>
      <text x="686.0215" xml:space="preserve" y="187.321" clip-path="url(#clipPath2)" font-family="sans-serif" stroke="none">step</text>
    </g>
    <g fill="rgb(153,204,0)" text-rendering="geometricPrecision" shape-rendering="geometricPrecision" transform="matrix(1,0,0,1,-116,-106)" stroke="rgb(153,204,0)">
      <path d="M652.05 325.1667 L753.75 325.1667 L742.45 381.1667 L640.75 381.1667 Z" fill-rule="evenodd" clip-path="url(#clipPath2)" stroke="none"/>
    </g>
    <g text-rendering="geometricPrecision" stroke-miterlimit="1.45" shape-rendering="geometricPrecision" transform="matrix(1,0,0,1,-116,-106)" stroke-linecap="butt">
      <path fill="none" d="M652.05 325.1667 L753.75 325.1667 L742.45 381.1667 L640.75 381.1667 Z" fill-rule="evenodd" clip-path="url(#clipPath2)"/>
      <text x="657.2041" xml:space="preserve" y="342.3053" clip-path="url(#clipPath2)" font-family="sans-serif" stroke="none">orchestration</text>
    </g>
    <g fill="rgb(204,153,255)" text-rendering="geometricPrecision" shape-rendering="geometricPrecision" transform="matrix(1,0,0,1,-116,-106)" stroke="rgb(204,153,255)">
      <path d="M673.75 346.1667 L705.25 346.1667 L708.75 371.1667 L677.25 371.1667 Z" fill-rule="evenodd" clip-path="url(#clipPath2)" stroke="none"/>
    </g>
    <g text-rendering="geometricPrecision" stroke-miterlimit="1.45" shape-rendering="geometricPrecision" transform="matrix(1,0,0,1,-116,-106)" stroke-linecap="butt">
      <path fill="none" d="M673.75 346.1667 L705.25 346.1667 L708.75 371.1667 L677.25 371.1667 Z" fill-rule="evenodd" clip-path="url(#clipPath2)"/>
    </g>
    <g fill="rgb(204,153,255)" text-rendering="geometricPrecision" shape-rendering="geometricPrecision" transform="matrix(1,0,0,1,-116,-106)" stroke="rgb(204,153,255)">
      <path d="M679.75 349.1667 L711.25 349.1667 L714.75 374.1667 L683.25 374.1667 Z" fill-rule="evenodd" clip-path="url(#clipPath2)" stroke="none"/>
    </g>
    <g text-rendering="geometricPrecision" stroke-miterlimit="1.45" shape-rendering="geometricPrecision" transform="matrix(1,0,0,1,-116,-106)" stroke-linecap="butt">
      <path fill="none" d="M679.75 349.1667 L711.25 349.1667 L714.75 374.1667 L683.25 374.1667 Z" fill-rule="evenodd" clip-path="url(#clipPath2)"/>
    </g>
    <g fill="rgb(204,153,255)" text-rendering="geometricPrecision" shape-rendering="geometricPrecision" transform="matrix(1,0,0,1,-116,-106)" stroke="rgb(204,153,255)">
      <path d="M685.75 352.1667 L717.25 352.1667 L720.75 377.1667 L689.25 377.1667 Z" fill-rule="evenodd" clip-path="url(#clipPath2)" stroke="none"/>
    </g>
    <g text-rendering="geometricPrecision" stroke-miterlimit="1.45" shape-rendering="geometricPrecision" transform="matrix(1,0,0,1,-116,-106)" stroke-linecap="butt">
      <path fill="none" d="M685.75 352.1667 L717.25 352.1667 L720.75 377.1667 L689.25 377.1667 Z" fill-rule="evenodd" clip-path="url(#clipPath2)"/>
      <text x="690.2715" xml:space="preserve" y="368.821" clip-path="url(#clipPath2)" font-family="sans-serif" stroke="none">step</text>
    </g>
    <g fill="rgb(255,204,255)" text-rendering="geometricPrecision" shape-rendering="geometricPrecision" transform="matrix(1,0,0,1,-116,-106)" stroke="rgb(255,204,255)">
      <path d="M679.75 446.1667 L758.95 446.1667 L767.75 476.1667 L688.55 476.1667 Z" fill-rule="evenodd" clip-path="url(#clipPath2)" stroke="none"/>
    </g>
    <g text-rendering="geometricPrecision" stroke-miterlimit="1.45" shape-rendering="geometricPrecision" transform="matrix(1,0,0,1,-116,-106)" stroke-linecap="butt">
      <path fill="none" d="M679.75 446.1667 L758.95 446.1667 L767.75 476.1667 L688.55 476.1667 Z" fill-rule="evenodd" clip-path="url(#clipPath2)"/>
      <text x="694.3945" xml:space="preserve" y="458.3366" clip-path="url(#clipPath2)" font-family="sans-serif" stroke="none">extension</text>
      <text x="718.2744" xml:space="preserve" y="472.3053" clip-path="url(#clipPath2)" font-family="sans-serif" stroke="none">id</text>
    </g>
    <g fill="url(#linearGradient16)" text-rendering="geometricPrecision" shape-rendering="geometricPrecision" transform="matrix(1,0,0,1,-116,-106)" stroke="url(#linearGradient16)">
      <rect x="331.5" y="371.8063" clip-path="url(#clipPath2)" width="118.2" rx="4" ry="4" height="31.5333" stroke="none"/>
    </g>
    <g text-rendering="geometricPrecision" stroke-miterlimit="1.45" shape-rendering="geometricPrecision" transform="matrix(1,0,0,1,-116,-106)" stroke-linecap="butt">
      <rect x="331.5" y="371.8063" clip-path="url(#clipPath2)" fill="none" width="118.2" rx="4" ry="4" height="31.5333"/>
      <text x="366.7094" font-size="8px" y="390.3425" clip-path="url(#clipPath2)" font-family="sans-serif" stroke="none" xml:space="preserve">StepService</text>
    </g>
    <g fill="url(#linearGradient17)" text-rendering="geometricPrecision" shape-rendering="geometricPrecision" transform="matrix(1,0,0,1,-116,-106)" stroke="url(#linearGradient17)">
      <rect x="331.5" y="371.8063" clip-path="url(#clipPath2)" width="118.2" rx="4" ry="4" height="31.5333" stroke="none"/>
    </g>
    <g text-rendering="geometricPrecision" stroke-miterlimit="1.45" shape-rendering="geometricPrecision" transform="matrix(1,0,0,1,-116,-106)" stroke-linecap="butt">
      <rect x="331.5" y="371.8063" clip-path="url(#clipPath2)" fill="none" width="118.2" rx="4" ry="4" height="31.5333"/>
      <text x="366.7094" font-size="8px" y="390.3425" clip-path="url(#clipPath2)" font-family="sans-serif" stroke="none" xml:space="preserve">StepService</text>
    </g>
    <g fill="url(#linearGradient18)" text-rendering="geometricPrecision" shape-rendering="geometricPrecision" transform="matrix(1,0,0,1,-116,-106)" stroke="url(#linearGradient18)">
      <rect x="331.5" y="375.1201" clip-path="url(#clipPath2)" width="118.2" rx="4" ry="4" height="31.5333" stroke="none"/>
    </g>
    <g text-rendering="geometricPrecision" stroke-miterlimit="1.45" shape-rendering="geometricPrecision" transform="matrix(1,0,0,1,-116,-106)" stroke-linecap="butt">
      <rect x="331.5" y="375.1201" clip-path="url(#clipPath2)" fill="none" width="118.2" rx="4" ry="4" height="31.5333"/>
      <text x="366.7094" font-size="8px" y="393.6563" clip-path="url(#clipPath2)" font-family="sans-serif" stroke="none" xml:space="preserve">StepService</text>
    </g>
    <g fill="url(#linearGradient19)" text-rendering="geometricPrecision" shape-rendering="geometricPrecision" transform="matrix(1,0,0,1,-116,-106)" stroke="url(#linearGradient19)">
      <rect x="331.5" y="444.3565" clip-path="url(#clipPath2)" width="118.2" rx="4" ry="4" height="31.5333" stroke="none"/>
    </g>
    <g text-rendering="geometricPrecision" stroke-miterlimit="1.45" shape-rendering="geometricPrecision" transform="matrix(1,0,0,1,-116,-106)" stroke-linecap="butt">
      <rect x="331.5" y="444.3565" clip-path="url(#clipPath2)" fill="none" width="118.2" rx="4" ry="4" height="31.5333"/>
      <text x="351.35" font-size="8px" y="462.8927" clip-path="url(#clipPath2)" font-family="sans-serif" stroke="none" xml:space="preserve">DeploymentService</text>
    </g>
    <g fill="url(#linearGradient20)" text-rendering="geometricPrecision" shape-rendering="geometricPrecision" transform="matrix(1,0,0,1,-116,-106)" stroke="url(#linearGradient20)">
      <rect x="331.5" y="449.713" clip-path="url(#clipPath2)" width="118.2" rx="4" ry="4" height="31.5333" stroke="none"/>
    </g>
    <g text-rendering="geometricPrecision" stroke-miterlimit="1.45" shape-rendering="geometricPrecision" transform="matrix(1,0,0,1,-116,-106)" stroke-linecap="butt">
      <rect x="331.5" y="449.713" clip-path="url(#clipPath2)" fill="none" width="118.2" rx="4" ry="4" height="31.5333"/>
      <text x="351.35" font-size="8px" y="468.2492" clip-path="url(#clipPath2)" font-family="sans-serif" stroke="none" xml:space="preserve">DeploymentService</text>
    </g>
    <g fill="url(#linearGradient21)" text-rendering="geometricPrecision" shape-rendering="geometricPrecision" transform="matrix(1,0,0,1,-116,-106)" stroke="url(#linearGradient21)">
      <rect x="331.5" y="378.623" clip-path="url(#clipPath2)" width="118.2" rx="4" ry="4" height="31.5333" stroke="none"/>
    </g>
    <g text-rendering="geometricPrecision" stroke-miterlimit="1.45" shape-rendering="geometricPrecision" transform="matrix(1,0,0,1,-116,-106)" stroke-linecap="butt">
      <rect x="331.5" y="378.623" clip-path="url(#clipPath2)" fill="none" width="118.2" rx="4" ry="4" height="31.5333"/>
      <text x="366.7094" font-size="8px" y="397.1592" clip-path="url(#clipPath2)" font-family="sans-serif" stroke="none" xml:space="preserve">StepService</text>
    </g>
    <g fill="url(#linearGradient22)" text-rendering="geometricPrecision" shape-rendering="geometricPrecision" transform="matrix(1,0,0,1,-116,-106)" stroke="url(#linearGradient22)">
      <rect x="458.7" y="149.5" clip-path="url(#clipPath2)" width="66.3" rx="4" ry="4" height="338.3333" stroke="none"/>
    </g>
    <g text-rendering="geometricPrecision" stroke-miterlimit="1.45" shape-rendering="geometricPrecision" transform="matrix(1,0,0,1,-116,-106)" stroke-linecap="butt">
      <rect x="458.7" y="149.5" clip-path="url(#clipPath2)" fill="none" width="66.3" rx="4" ry="4" height="338.3333"/>
      <text x="482.3578" xml:space="preserve" y="166.6387" clip-path="url(#clipPath2)" font-family="sans-serif" stroke="none">API</text>
    </g>
    <g fill="url(#linearGradient23)" text-rendering="geometricPrecision" shape-rendering="geometricPrecision" transform="matrix(1,0,0,1,-116,-106)" stroke="url(#linearGradient23)">
      <rect x="467.8" y="182.2982" clip-path="url(#clipPath2)" width="50.2" rx="4" ry="4" height="90.7333" stroke="none"/>
    </g>
    <g text-rendering="geometricPrecision" stroke-miterlimit="1.45" shape-rendering="geometricPrecision" transform="matrix(1,0,0,1,-116,-106)" stroke-linecap="butt">
      <rect x="467.8" y="182.2982" clip-path="url(#clipPath2)" fill="none" width="50.2" rx="4" ry="4" height="90.7333"/>
      <text x="476.3707" font-size="8px" y="230.4344" clip-path="url(#clipPath2)" font-family="sans-serif" stroke="none" xml:space="preserve">ViewDef</text>
    </g>
    <g fill="url(#linearGradient24)" text-rendering="geometricPrecision" shape-rendering="geometricPrecision" transform="matrix(1,0,0,1,-116,-106)" stroke="url(#linearGradient24)">
      <rect x="466.75" y="285.1964" clip-path="url(#clipPath2)" width="50.2" rx="4" ry="4" height="90.7333" stroke="none"/>
    </g>
    <g text-rendering="geometricPrecision" stroke-miterlimit="1.45" shape-rendering="geometricPrecision" transform="matrix(1,0,0,1,-116,-106)" stroke-linecap="butt">
      <rect x="466.75" y="285.1964" clip-path="url(#clipPath2)" fill="none" width="50.2" rx="4" ry="4" height="90.7333"/>
      <text x="480.6586" font-size="8px" y="333.3326" clip-path="url(#clipPath2)" font-family="sans-serif" stroke="none" xml:space="preserve">Steps</text>
    </g>
    <g fill="url(#linearGradient25)" text-rendering="geometricPrecision" shape-rendering="geometricPrecision" transform="matrix(1,0,0,1,-116,-106)" stroke="url(#linearGradient25)">
      <rect x="466.75" y="388.0945" clip-path="url(#clipPath2)" width="50.2" rx="4" ry="4" height="90.7333" stroke="none"/>
    </g>
    <g text-rendering="geometricPrecision" stroke-miterlimit="1.45" shape-rendering="geometricPrecision" transform="matrix(1,0,0,1,-116,-106)" stroke-linecap="butt">
      <rect x="466.75" y="388.0945" clip-path="url(#clipPath2)" fill="none" width="50.2" rx="4" ry="4" height="90.7333"/>
      <text x="467.725" font-size="8px" y="436.2307" clip-path="url(#clipPath2)" font-family="sans-serif" stroke="none" xml:space="preserve">Integrations</text>
      <path fill="none" stroke-dasharray="18,6" d="M534.0126 299.682 L819.4537 299.682" stroke-width="3" clip-path="url(#clipPath2)"/>
      <path stroke-dasharray="18,6" d="M829.4537 299.682 L814.4537 293.432 L818.2037 299.682 L814.4537 305.932 Z" stroke-width="3" clip-path="url(#clipPath2)" stroke="none"/>
      <path fill="none" stroke-dasharray="18,6" d="M829.4097 229.6676 L544.0126 229.6676" stroke-width="3" clip-path="url(#clipPath2)"/>
      <path stroke-dasharray="18,6" d="M534.0126 229.6676 L549.0126 235.9176 L545.2626 229.6676 L549.0126 223.4176 Z" stroke-width="3" clip-path="url(#clipPath2)" stroke="none"/>
      <path fill="none" d="M329.9862 271.5011 L188 272 L188 259.8199" clip-path="url(#clipPath2)"/>
      <path d="M188 251.8199 L183 263.8199 L188 260.8199 L193 263.8199 Z" clip-path="url(#clipPath2)" stroke="none"/>
      <rect x="259.4417" y="262.7093" clip-path="url(#clipPath2)" fill="white" width="31.4922" height="17.9688" stroke="none"/>
      <text x="261.4417" xml:space="preserve" y="275.848" clip-path="url(#clipPath2)" font-family="sans-serif" stroke="none">uses</text>
      <path fill="none" d="M329.9913 186.8067 L190.4565 186.8067 L190.4565 191.8074" clip-path="url(#clipPath2)"/>
      <path d="M190.4565 199.8074 L195.4565 187.8074 L190.4565 190.8074 L185.4565 187.8074 Z" clip-path="url(#clipPath2)" stroke="none"/>
      <rect x="253.5518" y="177.8223" clip-path="url(#clipPath2)" fill="white" width="39.7598" height="17.9688" stroke="none"/>
      <text x="255.5518" xml:space="preserve" y="190.961" clip-path="url(#clipPath2)" font-family="sans-serif" stroke="none">builds</text>
      <path fill="none" d="M331.47 460.55 L188 460.55 L188 426.1725" clip-path="url(#clipPath2)"/>
      <path d="M188 418.1725 L183 430.1725 L188 427.1725 L193 430.1725 Z" clip-path="url(#clipPath2)" stroke="none"/>
      <rect x="233.6309" y="451.5656" clip-path="url(#clipPath2)" fill="white" width="31.4922" height="17.9688" stroke="none"/>
      <text x="235.6309" xml:space="preserve" y="464.7043" clip-path="url(#clipPath2)" font-family="sans-serif" stroke="none">uses</text>
      <path fill="none" d="M331.4787 332.856 L188 331.7667 L188 358.1793" clip-path="url(#clipPath2)"/>
      <path d="M188 366.1793 L193 354.1793 L188 357.1793 L183 354.1793 Z" clip-path="url(#clipPath2)" stroke="none"/>
      <rect x="227.4302" y="323.2326" clip-path="url(#clipPath2)" fill="white" width="39.7598" height="17.9688" stroke="none"/>
      <text x="229.4302" xml:space="preserve" y="336.3713" clip-path="url(#clipPath2)" font-family="sans-serif" stroke="none">builds</text>
      <path fill="none" d="M331.4713 390.8874 L252.5231 392.0414" clip-path="url(#clipPath2)"/>
      <path d="M244.524 392.1583 L256.5958 396.9824 L253.523 392.0268 L256.4496 386.9835 Z" clip-path="url(#clipPath2)" stroke="none"/>
      <rect x="272.2539" y="382.5385" clip-path="url(#clipPath2)" fill="white" width="31.4922" height="17.9688" stroke="none"/>
      <text x="274.2539" xml:space="preserve" y="395.6771" clip-path="url(#clipPath2)" font-family="sans-serif" stroke="none">uses</text>
      <path fill="none" stroke-dasharray="4,3,0,3" d="M389.1 255.7046 L389.1 227.6648 L467.7863 227.6648" clip-path="url(#clipPath2)" stroke-linecap="round"/>
      <path fill="none" stroke-dasharray="4,3,0,3" d="M448.1756 200.9158 L467.7779 200.9158" clip-path="url(#clipPath2)" stroke-linecap="round"/>
      <path fill="none" stroke-dasharray="4,3,0,3" d="M449.679 331.5182 L466.7698 331.1311" clip-path="url(#clipPath2)" stroke-linecap="round"/>
      <path fill="none" stroke-dasharray="4,3,0,3" d="M390.6 378.6295 L390.6 357.96 L466.7415 357.96" clip-path="url(#clipPath2)" stroke-linecap="round"/>
      <path fill="none" stroke-dasharray="4,3,0,3" d="M449.6667 465.4797 L466.7288 465.4797" clip-path="url(#clipPath2)" stroke-linecap="round"/>
      <path fill="none" stroke-dasharray="4,3,0,3" d="M390.6 410.1428 L390.6 423.56 L466.7291 423.56" clip-path="url(#clipPath2)" stroke-linecap="round"/>
    </g>
  </g>
</svg>
