<?xml version="1.0" encoding="UTF-8"?><svg xmlns="http://www.w3.org/2000/svg" xmlns:xlink="http://www.w3.org/1999/xlink" fill-opacity="1" color-rendering="auto" color-interpolation="auto" text-rendering="auto" stroke="black" stroke-linecap="square" width="681" stroke-miterlimit="10" shape-rendering="auto" stroke-opacity="1" fill="black" stroke-dasharray="none" font-weight="normal" stroke-width="1" height="430" font-family="'Dialog'" font-style="normal" stroke-linejoin="miter" font-size="12px" stroke-dashoffset="0" image-rendering="auto">
  <!--Generated by ySVG 2.5-->
  <defs id="genericDefs"/>
  <g>
    <defs id="defs1">
      <linearGradient x1="927.9203" gradientUnits="userSpaceOnUse" x2="1080.8538" y1="242.4333" y2="242.4333" id="linearGradient1" spreadMethod="reflect">
        <stop stop-opacity="1" stop-color="rgb(142,142,255)" offset="0%"/>
        <stop stop-opacity="1" stop-color="rgb(142,142,255)" offset="100%"/>
      </linearGradient>
      <linearGradient x1="950.8204" gradientUnits="userSpaceOnUse" x2="1012.1537" y1="146.9167" y2="146.9167" id="linearGradient2" spreadMethod="reflect">
        <stop stop-opacity="1" stop-color="rgb(209,97,162)" offset="0%"/>
        <stop stop-opacity="1" stop-color="rgb(255,81,168)" offset="100%"/>
      </linearGradient>
      <linearGradient x1="936.587" gradientUnits="userSpaceOnUse" x2="1072.0537" y1="266.1833" y2="266.1833" id="linearGradient3" spreadMethod="reflect">
        <stop stop-opacity="1" stop-color="rgb(163,73,164)" offset="0%"/>
        <stop stop-opacity="1" stop-color="rgb(142,142,255)" offset="100%"/>
      </linearGradient>
      <linearGradient x1="936.587" gradientUnits="userSpaceOnUse" x2="1072.0537" y1="385.75" y2="385.75" id="linearGradient4" spreadMethod="reflect">
        <stop stop-opacity="1" stop-color="rgb(163,73,164)" offset="0%"/>
        <stop stop-opacity="1" stop-color="rgb(142,142,255)" offset="100%"/>
      </linearGradient>
      <linearGradient x1="936.587" gradientUnits="userSpaceOnUse" x2="1072.0537" y1="349.3833" y2="349.3833" id="linearGradient5" spreadMethod="reflect">
        <stop stop-opacity="1" stop-color="rgb(163,73,164)" offset="0%"/>
        <stop stop-opacity="1" stop-color="rgb(142,142,255)" offset="100%"/>
      </linearGradient>
      <linearGradient x1="683.8333" gradientUnits="userSpaceOnUse" x2="808.5" y1="146.1667" y2="146.1667" id="linearGradient6" spreadMethod="reflect">
        <stop stop-opacity="1" stop-color="rgb(255,81,168)" offset="0%"/>
        <stop stop-opacity="1" stop-color="rgb(142,142,255)" offset="100%"/>
      </linearGradient>
      <linearGradient x1="685.8333" gradientUnits="userSpaceOnUse" x2="810.5" y1="333" y2="333" id="linearGradient7" spreadMethod="reflect">
        <stop stop-opacity="1" stop-color="rgb(255,81,168)" offset="0%"/>
        <stop stop-opacity="1" stop-color="rgb(142,142,255)" offset="100%"/>
      </linearGradient>
      <linearGradient x1="502.8" gradientUnits="userSpaceOnUse" x2="547" y1="174.3333" y2="174.3333" id="linearGradient8" spreadMethod="reflect">
        <stop stop-opacity="1" stop-color="rgb(163,73,164)" offset="0%"/>
        <stop stop-opacity="1" stop-color="rgb(255,81,168)" offset="100%"/>
      </linearGradient>
      <linearGradient x1="506.5333" gradientUnits="userSpaceOnUse" x2="540" y1="207.1315" y2="207.1315" id="linearGradient9" spreadMethod="reflect">
        <stop stop-opacity="1" stop-color="rgb(253,152,85)" offset="0%"/>
        <stop stop-opacity="1" stop-color="rgb(253,152,85)" offset="100%"/>
      </linearGradient>
      <linearGradient x1="505.4833" gradientUnits="userSpaceOnUse" x2="538.95" y1="310.0297" y2="310.0297" id="linearGradient10" spreadMethod="reflect">
        <stop stop-opacity="1" stop-color="rgb(253,152,85)" offset="0%"/>
        <stop stop-opacity="1" stop-color="rgb(253,152,85)" offset="100%"/>
      </linearGradient>
      <linearGradient x1="505.4833" gradientUnits="userSpaceOnUse" x2="538.95" y1="412.9279" y2="412.9279" id="linearGradient11" spreadMethod="reflect">
        <stop stop-opacity="1" stop-color="rgb(253,152,85)" offset="0%"/>
        <stop stop-opacity="1" stop-color="rgb(253,152,85)" offset="100%"/>
      </linearGradient>
      <clipPath clipPathUnits="userSpaceOnUse" id="clipPath1">
        <path d="M0 0 L681 0 L681 430 L0 430 L0 0 Z"/>
      </clipPath>
      <clipPath clipPathUnits="userSpaceOnUse" id="clipPath2">
        <path d="M453 131 L1134 131 L1134 561 L453 561 L453 131 Z"/>
      </clipPath>
    </defs>
    <g fill="url(#linearGradient1)" text-rendering="geometricPrecision" shape-rendering="geometricPrecision" transform="matrix(1,0,0,1,-453,-131)" stroke="url(#linearGradient1)">
      <rect x="851.4537" width="229.4" height="280.6333" y="242.4333" clip-path="url(#clipPath2)" stroke="none"/>
    </g>
    <g fill="rgb(202,202,255)" text-rendering="geometricPrecision" shape-rendering="geometricPrecision" transform="matrix(1,0,0,1,-453,-131)" stroke="rgb(202,202,255)">
      <rect x="851.4537" width="1" height="280.6333" y="242.4333" clip-path="url(#clipPath2)" stroke="none"/>
      <rect x="852.4537" width="227.4" height="1" y="242.4333" clip-path="url(#clipPath2)" stroke="none"/>
      <rect x="852.4537" y="522.0667" clip-path="url(#clipPath2)" fill="rgb(99,99,178)" width="228.4" height="1" stroke="none"/>
      <rect x="1079.8537" y="242.4333" clip-path="url(#clipPath2)" fill="rgb(99,99,178)" width="1" height="279.6333" stroke="none"/>
    </g>
    <g stroke-linecap="butt" transform="matrix(1,0,0,1,-453,-131)" text-rendering="geometricPrecision" font-family="sans-serif" shape-rendering="geometricPrecision" font-weight="bold" stroke-miterlimit="1.45">
      <text x="1008.7658" xml:space="preserve" y="259.572" clip-path="url(#clipPath2)" stroke="none">Frontend </text>
    </g>
    <g fill="url(#linearGradient2)" text-rendering="geometricPrecision" shape-rendering="geometricPrecision" transform="matrix(1,0,0,1,-453,-131)" stroke="url(#linearGradient2)">
      <path d="M920.1537 172.9167 L929.3537 146.9167 L1002.9537 146.9167 L1012.1537 172.9167 L1002.9537 198.9167 L929.3537 198.9167 Z" fill-rule="evenodd" clip-path="url(#clipPath2)" stroke="none"/>
    </g>
    <g text-rendering="geometricPrecision" stroke-miterlimit="1.45" shape-rendering="geometricPrecision" transform="matrix(1,0,0,1,-453,-131)" stroke-linecap="butt">
      <path fill="none" d="M920.1537 172.9167 L929.3537 146.9167 L1002.9537 146.9167 L1012.1537 172.9167 L1002.9537 198.9167 L929.3537 198.9167 Z" fill-rule="evenodd" clip-path="url(#clipPath2)"/>
      <text x="936.6986" xml:space="preserve" y="170.0866" clip-path="url(#clipPath2)" font-family="sans-serif" stroke="none">Extension</text>
      <text x="943.1117" xml:space="preserve" y="184.0553" clip-path="url(#clipPath2)" font-family="sans-serif" stroke="none">Catalog</text>
    </g>
    <g fill="url(#linearGradient3)" text-rendering="geometricPrecision" shape-rendering="geometricPrecision" transform="matrix(1,0,0,1,-453,-131)" stroke="url(#linearGradient3)">
      <rect x="868.8537" y="266.1833" clip-path="url(#clipPath2)" width="203.2" rx="4" ry="4" height="77.5667" stroke="none"/>
    </g>
    <g text-rendering="geometricPrecision" stroke-miterlimit="1.45" shape-rendering="geometricPrecision" transform="matrix(1,0,0,1,-453,-131)" stroke-linecap="butt">
      <rect x="868.8537" y="266.1833" clip-path="url(#clipPath2)" fill="none" width="203.2" rx="4" ry="4" height="77.5667"/>
      <text x="935.4293" xml:space="preserve" y="283.322" clip-path="url(#clipPath2)" font-family="sans-serif" stroke="none">Code Editor</text>
    </g>
    <g fill="url(#linearGradient4)" text-rendering="geometricPrecision" shape-rendering="geometricPrecision" transform="matrix(1,0,0,1,-453,-131)" stroke="url(#linearGradient4)">
      <rect x="868.8537" y="385.75" clip-path="url(#clipPath2)" width="203.2" rx="4" ry="4" height="124.4" stroke="none"/>
    </g>
    <g text-rendering="geometricPrecision" stroke-miterlimit="1.45" shape-rendering="geometricPrecision" transform="matrix(1,0,0,1,-453,-131)" stroke-linecap="butt">
      <rect x="868.8537" y="385.75" clip-path="url(#clipPath2)" fill="none" width="203.2" rx="4" ry="4" height="124.4"/>
      <text x="932.7457" xml:space="preserve" y="402.8887" clip-path="url(#clipPath2)" font-family="sans-serif" stroke="none">Visual Editor</text>
    </g>
    <g fill="url(#linearGradient5)" text-rendering="geometricPrecision" shape-rendering="geometricPrecision" transform="matrix(1,0,0,1,-453,-131)" stroke="url(#linearGradient5)">
      <rect x="868.8537" y="349.3833" clip-path="url(#clipPath2)" width="203.2" rx="4" ry="4" height="27.4" stroke="none"/>
    </g>
    <g text-rendering="geometricPrecision" stroke-miterlimit="1.45" shape-rendering="geometricPrecision" transform="matrix(1,0,0,1,-453,-131)" stroke-linecap="butt">
      <rect x="868.8537" y="349.3833" clip-path="url(#clipPath2)" fill="none" width="203.2" rx="4" ry="4" height="27.4"/>
      <text x="931.8433" xml:space="preserve" y="366.522" clip-path="url(#clipPath2)" font-family="sans-serif" stroke="none">Step Catalog</text>
    </g>
    <g fill="rgb(194,120,195)" text-rendering="geometricPrecision" shape-rendering="geometricPrecision" transform="matrix(1,0,0,1,-453,-131)" stroke="rgb(194,120,195)">
      <rect x="879.3537" y="406.7833" clip-path="url(#clipPath2)" width="113" rx="4" ry="4" height="97.6" stroke="none"/>
    </g>
    <g text-rendering="geometricPrecision" stroke-miterlimit="1.45" shape-rendering="geometricPrecision" transform="matrix(1,0,0,1,-453,-131)" stroke-linecap="butt">
      <rect x="879.3537" y="406.7833" clip-path="url(#clipPath2)" fill="none" width="113" rx="4" ry="4" height="97.6"/>
      <text x="898.4914" xml:space="preserve" y="430.0976" clip-path="url(#clipPath2)" font-family="sans-serif" stroke="none">Main canvas</text>
    </g>
    <g fill="rgb(194,120,195)" text-rendering="geometricPrecision" shape-rendering="geometricPrecision" transform="matrix(1,0,0,1,-453,-131)" stroke="rgb(194,120,195)">
      <rect x="996.4074" y="406.7833" clip-path="url(#clipPath2)" width="69.8" rx="4" ry="4" height="25" stroke="none"/>
    </g>
    <g text-rendering="geometricPrecision" stroke-miterlimit="1.45" shape-rendering="geometricPrecision" transform="matrix(1,0,0,1,-453,-131)" stroke-linecap="butt">
      <rect x="996.4074" y="406.7833" clip-path="url(#clipPath2)" fill="none" width="69.8" rx="4" ry="4" height="25"/>
      <text x="1001.2918" font-size="8px" y="422.0529" clip-path="url(#clipPath2)" font-family="sans-serif" stroke="none" xml:space="preserve">Step Extension</text>
    </g>
    <g fill="rgb(194,120,195)" text-rendering="geometricPrecision" shape-rendering="geometricPrecision" transform="matrix(1,0,0,1,-453,-131)" stroke="rgb(194,120,195)">
      <rect x="996.4074" y="443.0833" clip-path="url(#clipPath2)" width="69.8" rx="4" ry="4" height="25" stroke="none"/>
    </g>
    <g text-rendering="geometricPrecision" stroke-miterlimit="1.45" shape-rendering="geometricPrecision" transform="matrix(1,0,0,1,-453,-131)" stroke-linecap="butt">
      <rect x="996.4074" y="443.0833" clip-path="url(#clipPath2)" fill="none" width="69.8" rx="4" ry="4" height="25"/>
      <text x="1001.2918" font-size="8px" y="458.3529" clip-path="url(#clipPath2)" font-family="sans-serif" stroke="none" xml:space="preserve">Step Extension</text>
    </g>
    <g fill="rgb(194,120,195)" text-rendering="geometricPrecision" shape-rendering="geometricPrecision" transform="matrix(1,0,0,1,-453,-131)" stroke="rgb(194,120,195)">
      <rect x="996.4074" y="479.3833" clip-path="url(#clipPath2)" width="69.8" rx="4" ry="4" height="25" stroke="none"/>
    </g>
    <g text-rendering="geometricPrecision" stroke-miterlimit="1.45" shape-rendering="geometricPrecision" transform="matrix(1,0,0,1,-453,-131)" stroke-linecap="butt">
      <rect x="996.4074" y="479.3833" clip-path="url(#clipPath2)" fill="none" width="69.8" rx="4" ry="4" height="25"/>
      <text x="1001.2918" font-size="8px" y="494.6529" clip-path="url(#clipPath2)" font-family="sans-serif" stroke="none" xml:space="preserve">Step Extension</text>
    </g>
    <g fill="rgb(194,120,195)" text-rendering="geometricPrecision" shape-rendering="geometricPrecision" transform="matrix(1,0,0,1,-453,-131)" stroke="rgb(194,120,195)">
      <rect x="879.3537" y="288.15" clip-path="url(#clipPath2)" width="186.8537" rx="4" ry="4" height="45" stroke="none"/>
    </g>
    <g text-rendering="geometricPrecision" stroke-miterlimit="1.45" shape-rendering="geometricPrecision" transform="matrix(1,0,0,1,-453,-131)" stroke-linecap="butt">
      <rect x="879.3537" y="288.15" clip-path="url(#clipPath2)" fill="none" width="186.8537" rx="4" ry="4" height="45"/>
      <text x="892.721" xml:space="preserve" y="314.8043" clip-path="url(#clipPath2)" font-family="sans-serif" stroke="none">Domain Specific Language</text>
    </g>
    <g fill="rgb(204,153,255)" text-rendering="geometricPrecision" shape-rendering="geometricPrecision" transform="matrix(1,0,0,1,-453,-131)" stroke="rgb(204,153,255)">
      <path d="M898 446.6833 L920.428 446.6833 L922.92 464.4833 L900.492 464.4833 Z" fill-rule="evenodd" clip-path="url(#clipPath2)" stroke="none"/>
    </g>
    <g text-rendering="geometricPrecision" stroke-miterlimit="1.45" shape-rendering="geometricPrecision" transform="matrix(1,0,0,1,-453,-131)" stroke-linecap="butt">
      <path fill="none" d="M898 446.6833 L920.428 446.6833 L922.92 464.4833 L900.492 464.4833 Z" fill-rule="evenodd" clip-path="url(#clipPath2)"/>
      <text x="901.8077" font-size="8px" y="458.3529" clip-path="url(#clipPath2)" font-family="sans-serif" stroke="none" xml:space="preserve">step</text>
    </g>
    <g fill="rgb(204,153,255)" text-rendering="geometricPrecision" shape-rendering="geometricPrecision" transform="matrix(1,0,0,1,-453,-131)" stroke="rgb(204,153,255)">
      <path d="M941.4874 446.6833 L963.9154 446.6833 L966.4074 464.4833 L943.9794 464.4833 Z" fill-rule="evenodd" clip-path="url(#clipPath2)" stroke="none"/>
    </g>
    <g text-rendering="geometricPrecision" stroke-miterlimit="1.45" shape-rendering="geometricPrecision" transform="matrix(1,0,0,1,-453,-131)" stroke-linecap="butt">
      <path fill="none" d="M941.4874 446.6833 L963.9154 446.6833 L966.4074 464.4833 L943.9794 464.4833 Z" fill-rule="evenodd" clip-path="url(#clipPath2)"/>
      <text x="945.295" font-size="8px" y="458.3529" clip-path="url(#clipPath2)" font-family="sans-serif" stroke="none" xml:space="preserve">step</text>
    </g>
    <g fill="rgb(204,153,255)" text-rendering="geometricPrecision" shape-rendering="geometricPrecision" transform="matrix(1,0,0,1,-453,-131)" stroke="rgb(204,153,255)">
      <path d="M930.46 482.9833 L952.888 482.9833 L955.38 500.7833 L932.952 500.7833 Z" fill-rule="evenodd" clip-path="url(#clipPath2)" stroke="none"/>
    </g>
    <g text-rendering="geometricPrecision" stroke-miterlimit="1.45" shape-rendering="geometricPrecision" transform="matrix(1,0,0,1,-453,-131)" stroke-linecap="butt">
      <path fill="none" d="M930.46 482.9833 L952.888 482.9833 L955.38 500.7833 L932.952 500.7833 Z" fill-rule="evenodd" clip-path="url(#clipPath2)"/>
      <text x="934.2676" font-size="8px" y="494.6529" clip-path="url(#clipPath2)" font-family="sans-serif" stroke="none" xml:space="preserve">step</text>
    </g>
    <g fill="url(#linearGradient6)" text-rendering="geometricPrecision" shape-rendering="geometricPrecision" transform="matrix(1,0,0,1,-453,-131)" stroke="url(#linearGradient6)">
      <rect x="621.5" width="187" height="100.6667" y="146.1667" clip-path="url(#clipPath2)" stroke="none"/>
      <rect x="621.5" y="146.1667" clip-path="url(#clipPath2)" fill="rgb(255,115,240)" width="1" height="100.6667" stroke="none"/>
      <rect x="622.5" y="146.1667" clip-path="url(#clipPath2)" fill="rgb(255,115,240)" width="185" height="1" stroke="none"/>
      <rect x="622.5" y="245.8333" clip-path="url(#clipPath2)" fill="rgb(178,56,117)" width="186" height="1" stroke="none"/>
      <rect x="807.5" y="146.1667" clip-path="url(#clipPath2)" fill="rgb(178,56,117)" width="1" height="99.6667" stroke="none"/>
      <rect x="623.5" y="333" clip-path="url(#clipPath2)" fill="url(#linearGradient7)" width="187" height="190.0667" stroke="none"/>
      <rect x="623.5" y="333" clip-path="url(#clipPath2)" fill="rgb(255,115,240)" width="1" height="190.0667" stroke="none"/>
      <rect x="624.5" y="333" clip-path="url(#clipPath2)" fill="rgb(255,115,240)" width="185" height="1" stroke="none"/>
      <rect x="624.5" y="522.0667" clip-path="url(#clipPath2)" fill="rgb(178,56,117)" width="186" height="1" stroke="none"/>
      <rect x="809.5" y="333" clip-path="url(#clipPath2)" fill="rgb(178,56,117)" width="1" height="189.0667" stroke="none"/>
      <rect x="468" y="146.1667" clip-path="url(#clipPath2)" fill="rgb(255,81,168)" width="88" height="376.9" stroke="none"/>
      <rect x="468" y="146.1667" clip-path="url(#clipPath2)" fill="rgb(255,115,240)" width="1" height="376.9" stroke="none"/>
      <rect x="469" y="146.1667" clip-path="url(#clipPath2)" fill="rgb(255,115,240)" width="86" height="1" stroke="none"/>
      <rect x="469" y="522.0667" clip-path="url(#clipPath2)" fill="rgb(178,56,117)" width="87" height="1" stroke="none"/>
      <rect x="555" y="146.1667" clip-path="url(#clipPath2)" fill="rgb(178,56,117)" width="1" height="375.9" stroke="none"/>
    </g>
    <g stroke-linecap="butt" transform="matrix(1,0,0,1,-453,-131)" text-rendering="geometricPrecision" font-family="sans-serif" shape-rendering="geometricPrecision" font-weight="bold" stroke-miterlimit="1.45">
      <text x="474" xml:space="preserve" y="163.3053" clip-path="url(#clipPath2)" stroke="none">Backend</text>
    </g>
    <g fill="rgb(255,81,168)" text-rendering="geometricPrecision" shape-rendering="geometricPrecision" transform="matrix(1,0,0,1,-453,-131)" stroke="rgb(255,81,168)">
      <path d="M656.75 432 L753.05 432 L763.75 454.5 L753.05 477 L656.75 477 L667.45 454.5 Z" fill-rule="evenodd" clip-path="url(#clipPath2)" stroke="none"/>
    </g>
    <g text-rendering="geometricPrecision" stroke-miterlimit="1.45" shape-rendering="geometricPrecision" transform="matrix(1,0,0,1,-453,-131)" stroke-linecap="butt">
      <path fill="none" d="M656.75 432 L753.05 432 L763.75 454.5 L753.05 477 L656.75 477 L667.45 454.5 Z" fill-rule="evenodd" clip-path="url(#clipPath2)"/>
    </g>
    <g fill="rgb(255,81,168)" text-rendering="geometricPrecision" shape-rendering="geometricPrecision" transform="matrix(1,0,0,1,-453,-131)" stroke="rgb(255,81,168)">
      <path d="M663.75 437.6667 L760.05 437.6667 L770.75 460.1667 L760.05 482.6667 L663.75 482.6667 L674.45 460.1667 Z" fill-rule="evenodd" clip-path="url(#clipPath2)" stroke="none"/>
    </g>
    <g text-rendering="geometricPrecision" stroke-miterlimit="1.45" shape-rendering="geometricPrecision" transform="matrix(1,0,0,1,-453,-131)" stroke-linecap="butt">
      <path fill="none" d="M663.75 437.6667 L760.05 437.6667 L770.75 460.1667 L760.05 482.6667 L663.75 482.6667 L674.45 460.1667 Z" fill-rule="evenodd" clip-path="url(#clipPath2)"/>
    </g>
    <g fill="rgb(255,81,168)" text-rendering="geometricPrecision" shape-rendering="geometricPrecision" transform="matrix(1,0,0,1,-453,-131)" stroke="rgb(255,81,168)">
      <path d="M671.75 443.3333 L768.05 443.3333 L778.75 465.8333 L768.05 488.3333 L671.75 488.3333 L682.45 465.8333 Z" fill-rule="evenodd" clip-path="url(#clipPath2)" stroke="none"/>
    </g>
    <g text-rendering="geometricPrecision" stroke-miterlimit="1.45" shape-rendering="geometricPrecision" transform="matrix(1,0,0,1,-453,-131)" stroke-linecap="butt">
      <path fill="none" d="M671.75 443.3333 L768.05 443.3333 L778.75 465.8333 L768.05 488.3333 L671.75 488.3333 L682.45 465.8333 Z" fill-rule="evenodd" clip-path="url(#clipPath2)"/>
    </g>
    <g fill="rgb(255,81,168)" text-rendering="geometricPrecision" shape-rendering="geometricPrecision" transform="matrix(1,0,0,1,-453,-131)" stroke="rgb(255,81,168)">
      <path d="M682.75 449 L779.05 449 L789.75 471.5 L779.05 494 L682.75 494 L693.45 471.5 Z" fill-rule="evenodd" clip-path="url(#clipPath2)" stroke="none"/>
    </g>
    <g text-rendering="geometricPrecision" stroke-miterlimit="1.45" shape-rendering="geometricPrecision" transform="matrix(1,0,0,1,-453,-131)" stroke-linecap="butt">
      <path fill="none" d="M682.75 449 L779.05 449 L789.75 471.5 L779.05 494 L682.75 494 L693.45 471.5 Z" fill-rule="evenodd" clip-path="url(#clipPath2)"/>
      <text x="692.8262" xml:space="preserve" y="466.1387" clip-path="url(#clipPath2)" font-family="sans-serif" stroke="none">ViewDefinition</text>
    </g>
    <g fill="rgb(153,204,0)" text-rendering="geometricPrecision" shape-rendering="geometricPrecision" transform="matrix(1,0,0,1,-453,-131)" stroke="rgb(153,204,0)">
      <path d="M669.8 168.5 L771.5 168.5 L760.2 224.5 L658.5 224.5 Z" fill-rule="evenodd" clip-path="url(#clipPath2)" stroke="none"/>
    </g>
    <g text-rendering="geometricPrecision" stroke-miterlimit="1.45" shape-rendering="geometricPrecision" transform="matrix(1,0,0,1,-453,-131)" stroke-linecap="butt">
      <path fill="none" d="M669.8 168.5 L771.5 168.5 L760.2 224.5 L658.5 224.5 Z" fill-rule="evenodd" clip-path="url(#clipPath2)"/>
      <text x="674.9541" xml:space="preserve" y="185.6387" clip-path="url(#clipPath2)" font-family="sans-serif" stroke="none">orchestration</text>
    </g>
    <g fill="rgb(142,142,255)" text-rendering="geometricPrecision" shape-rendering="geometricPrecision" transform="matrix(1,0,0,1,-453,-131)" stroke="rgb(142,142,255)">
      <path d="M691.5 189.5 L723 189.5 L726.5 214.5 L695 214.5 Z" fill-rule="evenodd" clip-path="url(#clipPath2)" stroke="none"/>
    </g>
    <g text-rendering="geometricPrecision" stroke-miterlimit="1.45" shape-rendering="geometricPrecision" transform="matrix(1,0,0,1,-453,-131)" stroke-linecap="butt">
      <path fill="none" d="M691.5 189.5 L723 189.5 L726.5 214.5 L695 214.5 Z" fill-rule="evenodd" clip-path="url(#clipPath2)"/>
    </g>
    <g fill="rgb(142,142,255)" text-rendering="geometricPrecision" shape-rendering="geometricPrecision" transform="matrix(1,0,0,1,-453,-131)" stroke="rgb(142,142,255)">
      <path d="M697.5 192.5 L729 192.5 L732.5 217.5 L701 217.5 Z" fill-rule="evenodd" clip-path="url(#clipPath2)" stroke="none"/>
    </g>
    <g text-rendering="geometricPrecision" stroke-miterlimit="1.45" shape-rendering="geometricPrecision" transform="matrix(1,0,0,1,-453,-131)" stroke-linecap="butt">
      <path fill="none" d="M697.5 192.5 L729 192.5 L732.5 217.5 L701 217.5 Z" fill-rule="evenodd" clip-path="url(#clipPath2)"/>
    </g>
    <g fill="rgb(142,142,255)" text-rendering="geometricPrecision" shape-rendering="geometricPrecision" transform="matrix(1,0,0,1,-453,-131)" stroke="rgb(142,142,255)">
      <path d="M703.5 195.5 L735 195.5 L738.5 220.5 L707 220.5 Z" fill-rule="evenodd" clip-path="url(#clipPath2)" stroke="none"/>
    </g>
    <g text-rendering="geometricPrecision" stroke-miterlimit="1.45" shape-rendering="geometricPrecision" transform="matrix(1,0,0,1,-453,-131)" stroke-linecap="butt">
      <path fill="none" d="M703.5 195.5 L735 195.5 L738.5 220.5 L707 220.5 Z" fill-rule="evenodd" clip-path="url(#clipPath2)"/>
      <text x="708.0215" xml:space="preserve" y="212.1543" clip-path="url(#clipPath2)" font-family="sans-serif" stroke="none">step</text>
    </g>
    <g fill="rgb(153,204,0)" text-rendering="geometricPrecision" shape-rendering="geometricPrecision" transform="matrix(1,0,0,1,-453,-131)" stroke="rgb(153,204,0)">
      <path d="M674.05 350 L775.75 350 L764.45 406 L662.75 406 Z" fill-rule="evenodd" clip-path="url(#clipPath2)" stroke="none"/>
    </g>
    <g text-rendering="geometricPrecision" stroke-miterlimit="1.45" shape-rendering="geometricPrecision" transform="matrix(1,0,0,1,-453,-131)" stroke-linecap="butt">
      <path fill="none" d="M674.05 350 L775.75 350 L764.45 406 L662.75 406 Z" fill-rule="evenodd" clip-path="url(#clipPath2)"/>
      <text x="679.2041" xml:space="preserve" y="367.1387" clip-path="url(#clipPath2)" font-family="sans-serif" stroke="none">orchestration</text>
    </g>
    <g fill="rgb(142,142,255)" text-rendering="geometricPrecision" shape-rendering="geometricPrecision" transform="matrix(1,0,0,1,-453,-131)" stroke="rgb(142,142,255)">
      <path d="M695.75 371 L727.25 371 L730.75 396 L699.25 396 Z" fill-rule="evenodd" clip-path="url(#clipPath2)" stroke="none"/>
    </g>
    <g text-rendering="geometricPrecision" stroke-miterlimit="1.45" shape-rendering="geometricPrecision" transform="matrix(1,0,0,1,-453,-131)" stroke-linecap="butt">
      <path fill="none" d="M695.75 371 L727.25 371 L730.75 396 L699.25 396 Z" fill-rule="evenodd" clip-path="url(#clipPath2)"/>
    </g>
    <g fill="rgb(142,142,255)" text-rendering="geometricPrecision" shape-rendering="geometricPrecision" transform="matrix(1,0,0,1,-453,-131)" stroke="rgb(142,142,255)">
      <path d="M701.75 374 L733.25 374 L736.75 399 L705.25 399 Z" fill-rule="evenodd" clip-path="url(#clipPath2)" stroke="none"/>
    </g>
    <g text-rendering="geometricPrecision" stroke-miterlimit="1.45" shape-rendering="geometricPrecision" transform="matrix(1,0,0,1,-453,-131)" stroke-linecap="butt">
      <path fill="none" d="M701.75 374 L733.25 374 L736.75 399 L705.25 399 Z" fill-rule="evenodd" clip-path="url(#clipPath2)"/>
    </g>
    <g fill="rgb(142,142,255)" text-rendering="geometricPrecision" shape-rendering="geometricPrecision" transform="matrix(1,0,0,1,-453,-131)" stroke="rgb(142,142,255)">
      <path d="M707.75 377 L739.25 377 L742.75 402 L711.25 402 Z" fill-rule="evenodd" clip-path="url(#clipPath2)" stroke="none"/>
    </g>
    <g text-rendering="geometricPrecision" stroke-miterlimit="1.45" shape-rendering="geometricPrecision" transform="matrix(1,0,0,1,-453,-131)" stroke-linecap="butt">
      <path fill="none" d="M707.75 377 L739.25 377 L742.75 402 L711.25 402 Z" fill-rule="evenodd" clip-path="url(#clipPath2)"/>
      <text x="712.2715" xml:space="preserve" y="393.6543" clip-path="url(#clipPath2)" font-family="sans-serif" stroke="none">step</text>
    </g>
    <g fill="rgb(142,142,255)" text-rendering="geometricPrecision" shape-rendering="geometricPrecision" transform="matrix(1,0,0,1,-453,-131)" stroke="rgb(142,142,255)">
      <path d="M701.75 471 L780.95 471 L789.75 501 L710.55 501 Z" fill-rule="evenodd" clip-path="url(#clipPath2)" stroke="none"/>
    </g>
    <g text-rendering="geometricPrecision" stroke-miterlimit="1.45" shape-rendering="geometricPrecision" transform="matrix(1,0,0,1,-453,-131)" stroke-linecap="butt">
      <path fill="none" d="M701.75 471 L780.95 471 L789.75 501 L710.55 501 Z" fill-rule="evenodd" clip-path="url(#clipPath2)"/>
      <text x="716.3945" xml:space="preserve" y="483.1699" clip-path="url(#clipPath2)" font-family="sans-serif" stroke="none">extension</text>
      <text x="740.2744" xml:space="preserve" y="497.1387" clip-path="url(#clipPath2)" font-family="sans-serif" stroke="none">id</text>
    </g>
    <g fill="url(#linearGradient8)" text-rendering="geometricPrecision" shape-rendering="geometricPrecision" transform="matrix(1,0,0,1,-453,-131)" stroke="url(#linearGradient8)">
      <rect x="480.7" y="174.3333" clip-path="url(#clipPath2)" width="66.3" rx="4" ry="4" height="338.3333" stroke="none"/>
    </g>
    <g text-rendering="geometricPrecision" stroke-miterlimit="1.45" shape-rendering="geometricPrecision" transform="matrix(1,0,0,1,-453,-131)" stroke-linecap="butt">
      <rect x="480.7" y="174.3333" clip-path="url(#clipPath2)" fill="none" width="66.3" rx="4" ry="4" height="338.3333"/>
      <text x="504.3578" xml:space="preserve" y="191.472" clip-path="url(#clipPath2)" font-family="sans-serif" stroke="none">API</text>
    </g>
    <g fill="url(#linearGradient9)" text-rendering="geometricPrecision" shape-rendering="geometricPrecision" transform="matrix(1,0,0,1,-453,-131)" stroke="url(#linearGradient9)">
      <rect x="489.8" y="207.1315" clip-path="url(#clipPath2)" width="50.2" rx="4" ry="4" height="90.7333" stroke="none"/>
    </g>
    <g text-rendering="geometricPrecision" stroke-miterlimit="1.45" shape-rendering="geometricPrecision" transform="matrix(1,0,0,1,-453,-131)" stroke-linecap="butt">
      <rect x="489.8" y="207.1315" clip-path="url(#clipPath2)" fill="none" width="50.2" rx="4" ry="4" height="90.7333"/>
      <text x="498.3707" font-size="8px" y="255.2677" clip-path="url(#clipPath2)" font-family="sans-serif" stroke="none" xml:space="preserve">ViewDef</text>
    </g>
    <g fill="url(#linearGradient10)" text-rendering="geometricPrecision" shape-rendering="geometricPrecision" transform="matrix(1,0,0,1,-453,-131)" stroke="url(#linearGradient10)">
      <rect x="488.75" y="310.0297" clip-path="url(#clipPath2)" width="50.2" rx="4" ry="4" height="90.7333" stroke="none"/>
    </g>
    <g text-rendering="geometricPrecision" stroke-miterlimit="1.45" shape-rendering="geometricPrecision" transform="matrix(1,0,0,1,-453,-131)" stroke-linecap="butt">
      <rect x="488.75" y="310.0297" clip-path="url(#clipPath2)" fill="none" width="50.2" rx="4" ry="4" height="90.7333"/>
      <text x="502.6586" font-size="8px" y="358.1659" clip-path="url(#clipPath2)" font-family="sans-serif" stroke="none" xml:space="preserve">Steps</text>
    </g>
    <g fill="url(#linearGradient11)" text-rendering="geometricPrecision" shape-rendering="geometricPrecision" transform="matrix(1,0,0,1,-453,-131)" stroke="url(#linearGradient11)">
      <rect x="488.75" y="412.9279" clip-path="url(#clipPath2)" width="50.2" rx="4" ry="4" height="90.7333" stroke="none"/>
    </g>
    <g text-rendering="geometricPrecision" stroke-miterlimit="1.45" shape-rendering="geometricPrecision" transform="matrix(1,0,0,1,-453,-131)" stroke-linecap="butt">
      <rect x="488.75" y="412.9279" clip-path="url(#clipPath2)" fill="none" width="50.2" rx="4" ry="4" height="90.7333"/>
      <text x="489.725" font-size="8px" y="461.0641" clip-path="url(#clipPath2)" font-family="sans-serif" stroke="none" xml:space="preserve">Integrations</text>
      <path fill="none" d="M966.1537 242.4086 L966.1537 206.9422" clip-path="url(#clipPath2)"/>
      <path d="M966.1537 198.9422 L961.1537 210.9422 L966.1537 207.9422 L971.1537 210.9422 Z" clip-path="url(#clipPath2)" stroke="none"/>
      <rect x="950.4076" y="219.4646" clip-path="url(#clipPath2)" fill="white" width="31.4922" height="17.9688" stroke="none"/>
      <text x="952.4076" xml:space="preserve" y="232.6033" clip-path="url(#clipPath2)" font-family="sans-serif" stroke="none">uses</text>
      <path fill="none" d="M1012.1203 172.9167 L1118.36 172.9167 L1118.36 419.2833 L1074.205 419.2833" clip-path="url(#clipPath2)"/>
      <path d="M1066.205 419.2833 L1078.205 424.2833 L1075.205 419.2833 L1078.205 414.2833 Z" clip-path="url(#clipPath2)" stroke="none"/>
      <path fill="none" d="M1012.1203 172.9167 L1118.36 172.9167 L1118.36 455.5833 L1074.205 455.5833" clip-path="url(#clipPath2)"/>
      <path d="M1066.205 455.5833 L1078.205 460.5833 L1075.205 455.5833 L1078.205 450.5833 Z" clip-path="url(#clipPath2)" stroke="none"/>
      <path fill="none" d="M1012.1203 172.9167 L1118.36 172.9167 L1118.36 491.8833 L1074.205 491.8833" clip-path="url(#clipPath2)"/>
      <path d="M1066.205 491.8833 L1078.205 496.8833 L1075.205 491.8833 L1078.205 486.8833 Z" clip-path="url(#clipPath2)" stroke="none"/>
      <rect x="1030.0365" y="163.9323" clip-path="url(#clipPath2)" fill="white" width="29.6465" height="17.9688" stroke="none"/>
      <text x="1032.0365" xml:space="preserve" y="177.071" clip-path="url(#clipPath2)" font-family="sans-serif" stroke="none">load</text>
      <path fill="none" stroke-dasharray="4,3,0,3" d="M910.46 446.6773 L910.46 436.3433 L983.16 436.3433 L983.16 419.2833 L996.3723 419.2833" clip-path="url(#clipPath2)" stroke-linecap="round"/>
      <path fill="none" d="M921.7141 455.5833 L942.7098 455.5833" clip-path="url(#clipPath2)"/>
      <path fill="none" stroke-dasharray="4,3,0,3" d="M965.1661 455.5833 L996.3959 455.5833" clip-path="url(#clipPath2)" stroke-linecap="round"/>
      <path fill="none" stroke-dasharray="4,3,0,3" d="M954.0979 491.8833 L996.4349 491.8833" clip-path="url(#clipPath2)" stroke-linecap="round"/>
      <path fill="none" stroke-dasharray="18,6" d="M851.3519 254.5009 L566.0269 254.5009" stroke-width="3" clip-path="url(#clipPath2)"/>
      <path stroke-dasharray="18,6" d="M556.0269 254.5009 L571.0269 260.7509 L567.2769 254.5009 L571.0269 248.2509 Z" stroke-width="3" clip-path="url(#clipPath2)" stroke="none"/>
      <path fill="none" stroke-dasharray="18,6" d="M556.0269 324.5154 L841.4537 324.5154" stroke-width="3" clip-path="url(#clipPath2)"/>
      <path stroke-dasharray="18,6" d="M851.4537 324.5154 L836.4537 318.2654 L840.2037 324.5154 L836.4537 330.7654 Z" stroke-width="3" clip-path="url(#clipPath2)" stroke="none"/>
      <path fill="none" stroke-dasharray="4,3,0,3" d="M745.75 500.988 L745.75 545.1433 L1031.3074 545.1433 L1031.3074 504.3922" clip-path="url(#clipPath2)" stroke-linecap="round"/>
    </g>
  </g>
</svg>
