<?xml version="1.0" encoding="UTF-8"?><svg xmlns="http://www.w3.org/2000/svg" xmlns:xlink="http://www.w3.org/1999/xlink" fill-opacity="1" color-rendering="auto" color-interpolation="auto" text-rendering="auto" stroke="black" stroke-linecap="square" width="482" stroke-miterlimit="10" shape-rendering="auto" stroke-opacity="1" fill="black" stroke-dasharray="none" font-weight="normal" stroke-width="1" height="325" font-family="'Dialog'" font-style="normal" stroke-linejoin="miter" font-size="12px" stroke-dashoffset="0" image-rendering="auto">
  <!--Generated by ySVG 2.5-->
  <defs id="genericDefs"/>
  <g>
    <defs id="defs1">
      <linearGradient x1="927.9203" gradientUnits="userSpaceOnUse" x2="1080.8538" y1="348" y2="348" id="linearGradient1" spreadMethod="reflect">
        <stop stop-opacity="1" stop-color="rgb(142,142,255)" offset="0%"/>
        <stop stop-opacity="1" stop-color="rgb(142,142,255)" offset="100%"/>
      </linearGradient>
      <linearGradient x1="950.8204" gradientUnits="userSpaceOnUse" x2="1012.1537" y1="251.9167" y2="251.9167" id="linearGradient2" spreadMethod="reflect">
        <stop stop-opacity="1" stop-color="rgb(209,97,162)" offset="0%"/>
        <stop stop-opacity="1" stop-color="rgb(255,81,168)" offset="100%"/>
      </linearGradient>
      <linearGradient x1="936.587" gradientUnits="userSpaceOnUse" x2="1072.0537" y1="377.44" y2="377.44" id="linearGradient3" spreadMethod="reflect">
        <stop stop-opacity="1" stop-color="rgb(163,73,164)" offset="0%"/>
        <stop stop-opacity="1" stop-color="rgb(142,142,255)" offset="100%"/>
      </linearGradient>
      <clipPath clipPathUnits="userSpaceOnUse" id="clipPath1">
        <path d="M0 0 L482 0 L482 325 L0 325 L0 0 Z"/>
      </clipPath>
      <clipPath clipPathUnits="userSpaceOnUse" id="clipPath2">
        <path d="M652 236 L1134 236 L1134 561 L652 561 L652 236 Z"/>
      </clipPath>
    </defs>
    <g fill="white" text-rendering="geometricPrecision" shape-rendering="geometricPrecision" transform="translate(-652,-236)" stroke="white">
      <rect x="652" width="482" height="325" y="236" clip-path="url(#clipPath2)" stroke="none"/>
    </g>
    <g fill="url(#linearGradient1)" text-rendering="geometricPrecision" shape-rendering="geometricPrecision" transform="matrix(1,0,0,1,-652,-236)" stroke="url(#linearGradient1)">
      <rect x="851.4537" width="229.4" height="175.0667" y="348" clip-path="url(#clipPath2)" stroke="none"/>
      <rect x="851.4537" y="348" clip-path="url(#clipPath2)" fill="rgb(202,202,255)" width="1" height="175.0667" stroke="none"/>
      <rect x="852.4537" y="348" clip-path="url(#clipPath2)" fill="rgb(202,202,255)" width="227.4" height="1" stroke="none"/>
      <rect x="852.4537" y="522.0667" clip-path="url(#clipPath2)" fill="rgb(99,99,178)" width="228.4" height="1" stroke="none"/>
      <rect x="1079.8537" y="348" clip-path="url(#clipPath2)" fill="rgb(99,99,178)" width="1" height="174.0667" stroke="none"/>
    </g>
    <g stroke-linecap="butt" transform="matrix(1,0,0,1,-652,-236)" text-rendering="geometricPrecision" font-family="sans-serif" shape-rendering="geometricPrecision" font-weight="bold" stroke-miterlimit="1.45">
      <text x="1008.7658" xml:space="preserve" y="365.1387" clip-path="url(#clipPath2)" stroke="none">Frontend </text>
    </g>
    <g fill="url(#linearGradient2)" text-rendering="geometricPrecision" shape-rendering="geometricPrecision" transform="matrix(1,0,0,1,-652,-236)" stroke="url(#linearGradient2)">
      <path d="M920.1537 277.9167 L929.3537 251.9167 L1002.9537 251.9167 L1012.1537 277.9167 L1002.9537 303.9167 L929.3537 303.9167 Z" fill-rule="evenodd" clip-path="url(#clipPath2)" stroke="none"/>
    </g>
    <g text-rendering="geometricPrecision" stroke-miterlimit="1.45" shape-rendering="geometricPrecision" transform="matrix(1,0,0,1,-652,-236)" stroke-linecap="butt">
      <path fill="none" d="M920.1537 277.9167 L929.3537 251.9167 L1002.9537 251.9167 L1012.1537 277.9167 L1002.9537 303.9167 L929.3537 303.9167 Z" fill-rule="evenodd" clip-path="url(#clipPath2)"/>
      <text x="936.6986" xml:space="preserve" y="275.0866" clip-path="url(#clipPath2)" font-family="sans-serif" stroke="none">Extension</text>
      <text x="943.1117" xml:space="preserve" y="289.0553" clip-path="url(#clipPath2)" font-family="sans-serif" stroke="none">Catalog</text>
    </g>
    <g fill="url(#linearGradient3)" text-rendering="geometricPrecision" shape-rendering="geometricPrecision" transform="matrix(1,0,0,1,-652,-236)" stroke="url(#linearGradient3)">
      <rect x="868.8537" y="377.44" clip-path="url(#clipPath2)" width="203.2" rx="4" ry="4" height="124.4" stroke="none"/>
    </g>
    <g text-rendering="geometricPrecision" stroke-miterlimit="1.45" shape-rendering="geometricPrecision" transform="matrix(1,0,0,1,-652,-236)" stroke-linecap="butt">
      <rect x="868.8537" y="377.44" clip-path="url(#clipPath2)" fill="none" width="203.2" rx="4" ry="4" height="124.4"/>
      <text x="932.7457" xml:space="preserve" y="394.5787" clip-path="url(#clipPath2)" font-family="sans-serif" stroke="none">Visual Editor</text>
    </g>
    <g fill="rgb(194,120,195)" text-rendering="geometricPrecision" shape-rendering="geometricPrecision" transform="matrix(1,0,0,1,-652,-236)" stroke="rgb(194,120,195)">
      <rect x="879.3537" y="398.4733" clip-path="url(#clipPath2)" width="113" rx="4" ry="4" height="97.6" stroke="none"/>
    </g>
    <g text-rendering="geometricPrecision" stroke-miterlimit="1.45" shape-rendering="geometricPrecision" transform="matrix(1,0,0,1,-652,-236)" stroke-linecap="butt">
      <rect x="879.3537" y="398.4733" clip-path="url(#clipPath2)" fill="none" width="113" rx="4" ry="4" height="97.6"/>
      <text x="898.4914" xml:space="preserve" y="421.7876" clip-path="url(#clipPath2)" font-family="sans-serif" stroke="none">Main canvas</text>
    </g>
    <g fill="rgb(194,120,195)" text-rendering="geometricPrecision" shape-rendering="geometricPrecision" transform="matrix(1,0,0,1,-652,-236)" stroke="rgb(194,120,195)">
      <rect x="996.4074" y="398.4733" clip-path="url(#clipPath2)" width="69.8" rx="4" ry="4" height="25" stroke="none"/>
    </g>
    <g text-rendering="geometricPrecision" stroke-miterlimit="1.45" shape-rendering="geometricPrecision" transform="matrix(1,0,0,1,-652,-236)" stroke-linecap="butt">
      <rect x="996.4074" y="398.4733" clip-path="url(#clipPath2)" fill="none" width="69.8" rx="4" ry="4" height="25"/>
      <text x="1001.2918" font-size="8px" y="413.7429" clip-path="url(#clipPath2)" font-family="sans-serif" stroke="none" xml:space="preserve">Step Extension</text>
    </g>
    <g fill="rgb(194,120,195)" text-rendering="geometricPrecision" shape-rendering="geometricPrecision" transform="matrix(1,0,0,1,-652,-236)" stroke="rgb(194,120,195)">
      <rect x="996.4074" y="434.7733" clip-path="url(#clipPath2)" width="69.8" rx="4" ry="4" height="25" stroke="none"/>
    </g>
    <g text-rendering="geometricPrecision" stroke-miterlimit="1.45" shape-rendering="geometricPrecision" transform="matrix(1,0,0,1,-652,-236)" stroke-linecap="butt">
      <rect x="996.4074" y="434.7733" clip-path="url(#clipPath2)" fill="none" width="69.8" rx="4" ry="4" height="25"/>
      <text x="1001.2918" font-size="8px" y="450.0429" clip-path="url(#clipPath2)" font-family="sans-serif" stroke="none" xml:space="preserve">Step Extension</text>
    </g>
    <g fill="rgb(194,120,195)" text-rendering="geometricPrecision" shape-rendering="geometricPrecision" transform="matrix(1,0,0,1,-652,-236)" stroke="rgb(194,120,195)">
      <rect x="996.4074" y="471.0733" clip-path="url(#clipPath2)" width="69.8" rx="4" ry="4" height="25" stroke="none"/>
    </g>
    <g text-rendering="geometricPrecision" stroke-miterlimit="1.45" shape-rendering="geometricPrecision" transform="matrix(1,0,0,1,-652,-236)" stroke-linecap="butt">
      <rect x="996.4074" y="471.0733" clip-path="url(#clipPath2)" fill="none" width="69.8" rx="4" ry="4" height="25"/>
      <text x="1001.2918" font-size="8px" y="486.3429" clip-path="url(#clipPath2)" font-family="sans-serif" stroke="none" xml:space="preserve">Step Extension</text>
    </g>
    <g fill="rgb(204,153,255)" text-rendering="geometricPrecision" shape-rendering="geometricPrecision" transform="matrix(1,0,0,1,-652,-236)" stroke="rgb(204,153,255)">
      <path d="M898 438.3733 L920.428 438.3733 L922.92 456.1733 L900.492 456.1733 Z" fill-rule="evenodd" clip-path="url(#clipPath2)" stroke="none"/>
    </g>
    <g text-rendering="geometricPrecision" stroke-miterlimit="1.45" shape-rendering="geometricPrecision" transform="matrix(1,0,0,1,-652,-236)" stroke-linecap="butt">
      <path fill="none" d="M898 438.3733 L920.428 438.3733 L922.92 456.1733 L900.492 456.1733 Z" fill-rule="evenodd" clip-path="url(#clipPath2)"/>
      <text x="901.8077" font-size="8px" y="450.0429" clip-path="url(#clipPath2)" font-family="sans-serif" stroke="none" xml:space="preserve">step</text>
    </g>
    <g fill="rgb(204,153,255)" text-rendering="geometricPrecision" shape-rendering="geometricPrecision" transform="matrix(1,0,0,1,-652,-236)" stroke="rgb(204,153,255)">
      <path d="M941.4874 438.3733 L963.9154 438.3733 L966.4074 456.1733 L943.9794 456.1733 Z" fill-rule="evenodd" clip-path="url(#clipPath2)" stroke="none"/>
    </g>
    <g text-rendering="geometricPrecision" stroke-miterlimit="1.45" shape-rendering="geometricPrecision" transform="matrix(1,0,0,1,-652,-236)" stroke-linecap="butt">
      <path fill="none" d="M941.4874 438.3733 L963.9154 438.3733 L966.4074 456.1733 L943.9794 456.1733 Z" fill-rule="evenodd" clip-path="url(#clipPath2)"/>
      <text x="945.295" font-size="8px" y="450.0429" clip-path="url(#clipPath2)" font-family="sans-serif" stroke="none" xml:space="preserve">step</text>
    </g>
    <g fill="rgb(204,153,255)" text-rendering="geometricPrecision" shape-rendering="geometricPrecision" transform="matrix(1,0,0,1,-652,-236)" stroke="rgb(204,153,255)">
      <path d="M930.46 474.6733 L952.888 474.6733 L955.38 492.4733 L932.952 492.4733 Z" fill-rule="evenodd" clip-path="url(#clipPath2)" stroke="none"/>
    </g>
    <g text-rendering="geometricPrecision" stroke-miterlimit="1.45" shape-rendering="geometricPrecision" transform="matrix(1,0,0,1,-652,-236)" stroke-linecap="butt">
      <path fill="none" d="M930.46 474.6733 L952.888 474.6733 L955.38 492.4733 L932.952 492.4733 Z" fill-rule="evenodd" clip-path="url(#clipPath2)"/>
      <text x="934.2676" font-size="8px" y="486.3429" clip-path="url(#clipPath2)" font-family="sans-serif" stroke="none" xml:space="preserve">step</text>
    </g>
    <g fill="rgb(255,81,168)" text-rendering="geometricPrecision" shape-rendering="geometricPrecision" transform="matrix(1,0,0,1,-652,-236)" stroke="rgb(255,81,168)">
      <path d="M675.75 358.7868 L790.0501 358.7868 L802.75 387.6501 L790.0501 416.5134 L675.75 416.5134 L688.4499 387.6501 Z" fill-rule="evenodd" clip-path="url(#clipPath2)" stroke="none"/>
    </g>
    <g text-rendering="geometricPrecision" stroke-miterlimit="1.45" shape-rendering="geometricPrecision" transform="matrix(1,0,0,1,-652,-236)" stroke-linecap="butt">
      <path fill="none" d="M675.75 358.7868 L790.0501 358.7868 L802.75 387.6501 L790.0501 416.5134 L675.75 416.5134 L688.4499 387.6501 Z" fill-rule="evenodd" clip-path="url(#clipPath2)"/>
      <text x="695.8262" xml:space="preserve" y="384.8199" clip-path="url(#clipPath2)" font-family="sans-serif" stroke="none">ViewDefinition</text>
      <text x="696.5381" xml:space="preserve" y="398.7887" clip-path="url(#clipPath2)" font-family="sans-serif" stroke="none">(main canvas)</text>
    </g>
    <g fill="rgb(255,81,168)" text-rendering="geometricPrecision" shape-rendering="geometricPrecision" transform="matrix(1,0,0,1,-652,-236)" stroke="rgb(255,81,168)">
      <path d="M667.75 435.1801 L782.0501 435.1801 L794.75 464.0434 L782.0501 492.9067 L667.75 492.9067 L680.4499 464.0434 Z" fill-rule="evenodd" clip-path="url(#clipPath2)" stroke="none"/>
    </g>
    <g text-rendering="geometricPrecision" stroke-miterlimit="1.45" shape-rendering="geometricPrecision" transform="matrix(1,0,0,1,-652,-236)" stroke-linecap="butt">
      <path fill="none" d="M667.75 435.1801 L782.0501 435.1801 L794.75 464.0434 L782.0501 492.9067 L667.75 492.9067 L680.4499 464.0434 Z" fill-rule="evenodd" clip-path="url(#clipPath2)"/>
    </g>
    <g fill="rgb(255,81,168)" text-rendering="geometricPrecision" shape-rendering="geometricPrecision" transform="matrix(1,0,0,1,-652,-236)" stroke="rgb(255,81,168)">
      <path d="M675.75 440.8468 L790.0501 440.8468 L802.75 469.7101 L790.0501 498.5734 L675.75 498.5734 L688.4499 469.7101 Z" fill-rule="evenodd" clip-path="url(#clipPath2)" stroke="none"/>
    </g>
    <g text-rendering="geometricPrecision" stroke-miterlimit="1.45" shape-rendering="geometricPrecision" transform="matrix(1,0,0,1,-652,-236)" stroke-linecap="butt">
      <path fill="none" d="M675.75 440.8468 L790.0501 440.8468 L802.75 469.7101 L790.0501 498.5734 L675.75 498.5734 L688.4499 469.7101 Z" fill-rule="evenodd" clip-path="url(#clipPath2)"/>
    </g>
    <g fill="rgb(255,81,168)" text-rendering="geometricPrecision" shape-rendering="geometricPrecision" transform="matrix(1,0,0,1,-652,-236)" stroke="rgb(255,81,168)">
      <path d="M686.75 446.5134 L801.0501 446.5134 L813.75 475.3767 L801.0501 504.2401 L686.75 504.2401 L699.4499 475.3767 Z" fill-rule="evenodd" clip-path="url(#clipPath2)" stroke="none"/>
    </g>
    <g text-rendering="geometricPrecision" stroke-miterlimit="1.45" shape-rendering="geometricPrecision" transform="matrix(1,0,0,1,-652,-236)" stroke-linecap="butt">
      <path fill="none" d="M686.75 446.5134 L801.0501 446.5134 L813.75 475.3767 L801.0501 504.2401 L686.75 504.2401 L699.4499 475.3767 Z" fill-rule="evenodd" clip-path="url(#clipPath2)"/>
      <text x="706.8262" xml:space="preserve" y="463.652" clip-path="url(#clipPath2)" font-family="sans-serif" stroke="none">ViewDefinition</text>
    </g>
    <g fill="rgb(142,142,255)" text-rendering="geometricPrecision" shape-rendering="geometricPrecision" transform="matrix(1,0,0,1,-652,-236)" stroke="rgb(142,142,255)">
      <path d="M714.75 468.5734 L793.95 468.5734 L802.75 498.5734 L723.55 498.5734 Z" fill-rule="evenodd" clip-path="url(#clipPath2)" stroke="none"/>
    </g>
    <g text-rendering="geometricPrecision" stroke-miterlimit="1.45" shape-rendering="geometricPrecision" transform="matrix(1,0,0,1,-652,-236)" stroke-linecap="butt">
      <path fill="none" d="M714.75 468.5734 L793.95 468.5734 L802.75 498.5734 L723.55 498.5734 Z" fill-rule="evenodd" clip-path="url(#clipPath2)"/>
      <text x="729.3945" xml:space="preserve" y="480.7433" clip-path="url(#clipPath2)" font-family="sans-serif" stroke="none">extension</text>
      <text x="753.2744" xml:space="preserve" y="494.712" clip-path="url(#clipPath2)" font-family="sans-serif" stroke="none">id</text>
      <path fill="none" d="M966.1537 347.9899 L966.1537 311.8862" clip-path="url(#clipPath2)"/>
      <path d="M966.1537 303.8862 L961.1537 315.8862 L966.1537 312.8862 L971.1537 315.8862 Z" clip-path="url(#clipPath2)" stroke="none"/>
      <rect x="950.4076" y="316.974" clip-path="url(#clipPath2)" fill="white" width="31.4922" height="17.9688" stroke="none"/>
      <text x="952.4076" xml:space="preserve" y="330.1126" clip-path="url(#clipPath2)" font-family="sans-serif" stroke="none">uses</text>
      <path fill="none" d="M1012.1203 277.9167 L1118.36 277.9167 L1118.36 410.9733 L1074.205 410.9733" clip-path="url(#clipPath2)"/>
      <path d="M1066.205 410.9733 L1078.205 415.9733 L1075.205 410.9733 L1078.205 405.9733 Z" clip-path="url(#clipPath2)" stroke="none"/>
      <path fill="none" d="M1012.1203 277.9167 L1118.36 277.9167 L1118.36 447.2733 L1074.205 447.2733" clip-path="url(#clipPath2)"/>
      <path d="M1066.205 447.2733 L1078.205 452.2733 L1075.205 447.2733 L1078.205 442.2733 Z" clip-path="url(#clipPath2)" stroke="none"/>
      <path fill="none" d="M1012.1203 277.9167 L1118.36 277.9167 L1118.36 483.5733 L1074.205 483.5733" clip-path="url(#clipPath2)"/>
      <path d="M1066.205 483.5733 L1078.205 488.5733 L1075.205 483.5733 L1078.205 478.5733 Z" clip-path="url(#clipPath2)" stroke="none"/>
      <rect x="1030.0365" y="268.9323" clip-path="url(#clipPath2)" fill="white" width="29.6465" height="17.9688" stroke="none"/>
      <text x="1032.0365" xml:space="preserve" y="282.071" clip-path="url(#clipPath2)" font-family="sans-serif" stroke="none">load</text>
      <path fill="none" stroke-dasharray="4,3,0,3" d="M910.46 438.3673 L910.46 428.0333 L983.16 428.0333 L983.16 410.9733 L996.3723 410.9733" clip-path="url(#clipPath2)" stroke-linecap="round"/>
      <path fill="none" d="M921.7141 447.2733 L942.7098 447.2733" clip-path="url(#clipPath2)"/>
      <path fill="none" stroke-dasharray="4,3,0,3" d="M965.1661 447.2733 L996.3959 447.2733" clip-path="url(#clipPath2)" stroke-linecap="round"/>
      <path fill="none" stroke-dasharray="4,3,0,3" d="M954.0979 483.5733 L996.4349 483.5733" clip-path="url(#clipPath2)" stroke-linecap="round"/>
      <path fill="none" stroke-dasharray="4,3,0,3" d="M802.743 387.65 L835.5 387.65 L835.5 450.5 L868.8682 450.5" clip-path="url(#clipPath2)" stroke-linecap="round"/>
      <path fill="none" stroke-dasharray="4,3,0,3" d="M758.75 498.575 L758.75 545.1433 L1031.3074 545.1433 L1031.3074 496.0497" clip-path="url(#clipPath2)" stroke-linecap="round"/>
    </g>
  </g>
</svg>
