<?xml version="1.0" encoding="UTF-8"?><svg xmlns="http://www.w3.org/2000/svg" xmlns:xlink="http://www.w3.org/1999/xlink" fill-opacity="1" color-rendering="auto" color-interpolation="auto" text-rendering="auto" stroke="black" stroke-linecap="square" width="624" stroke-miterlimit="10" shape-rendering="auto" stroke-opacity="1" fill="black" stroke-dasharray="none" font-weight="normal" stroke-width="1" height="270" font-family="'Dialog'" font-style="normal" stroke-linejoin="miter" font-size="12px" stroke-dashoffset="0" image-rendering="auto">
  <!--Generated by ySVG 2.5-->
  <defs id="genericDefs"/>
  <g>
    <defs id="defs1">
      <linearGradient x1="340.9" gradientUnits="userSpaceOnUse" x2="419.7" y1="263.8116" y2="263.8116" id="linearGradient1" spreadMethod="reflect">
        <stop stop-opacity="1" stop-color="rgb(253,152,85)" offset="0%"/>
        <stop stop-opacity="1" stop-color="rgb(253,152,85)" offset="100%"/>
      </linearGradient>
      <linearGradient x1="615.0833" gradientUnits="userSpaceOnUse" x2="739.75" y1="121.3333" y2="121.3333" id="linearGradient2" spreadMethod="reflect">
        <stop stop-opacity="1" stop-color="rgb(255,81,168)" offset="0%"/>
        <stop stop-opacity="1" stop-color="rgb(142,142,255)" offset="100%"/>
      </linearGradient>
      <linearGradient x1="612.8333" gradientUnits="userSpaceOnUse" x2="737.5" y1="269.5" y2="269.5" id="linearGradient3" spreadMethod="reflect">
        <stop stop-opacity="1" stop-color="rgb(255,81,168)" offset="0%"/>
        <stop stop-opacity="1" stop-color="rgb(142,142,255)" offset="100%"/>
      </linearGradient>
      <linearGradient x1="184.1667" gradientUnits="userSpaceOnUse" x2="259.5" y1="223.6667" y2="223.6667" id="linearGradient4" spreadMethod="reflect">
        <stop stop-opacity="1" stop-color="rgb(253,152,85)" offset="0%"/>
        <stop stop-opacity="1" stop-color="rgb(253,152,85)" offset="100%"/>
      </linearGradient>
      <linearGradient x1="335.9" gradientUnits="userSpaceOnUse" x2="428.7" y1="149.5" y2="149.5" id="linearGradient5" spreadMethod="reflect">
        <stop stop-opacity="1" stop-color="rgb(163,73,164)" offset="0%"/>
        <stop stop-opacity="1" stop-color="rgb(255,81,168)" offset="100%"/>
      </linearGradient>
      <linearGradient x1="340.9" gradientUnits="userSpaceOnUse" x2="419.7" y1="209.273" y2="209.273" id="linearGradient6" spreadMethod="reflect">
        <stop stop-opacity="1" stop-color="rgb(253,152,85)" offset="0%"/>
        <stop stop-opacity="1" stop-color="rgb(253,152,85)" offset="100%"/>
      </linearGradient>
      <linearGradient x1="340.9" gradientUnits="userSpaceOnUse" x2="419.7" y1="212.5868" y2="212.5868" id="linearGradient7" spreadMethod="reflect">
        <stop stop-opacity="1" stop-color="rgb(253,152,85)" offset="0%"/>
        <stop stop-opacity="1" stop-color="rgb(253,152,85)" offset="100%"/>
      </linearGradient>
      <linearGradient x1="340.9" gradientUnits="userSpaceOnUse" x2="419.7" y1="216.0896" y2="216.0896" id="linearGradient8" spreadMethod="reflect">
        <stop stop-opacity="1" stop-color="rgb(253,152,85)" offset="0%"/>
        <stop stop-opacity="1" stop-color="rgb(253,152,85)" offset="100%"/>
      </linearGradient>
      <linearGradient x1="340.9" gradientUnits="userSpaceOnUse" x2="419.7" y1="270.8063" y2="270.8063" id="linearGradient9" spreadMethod="reflect">
        <stop stop-opacity="1" stop-color="rgb(253,152,85)" offset="0%"/>
        <stop stop-opacity="1" stop-color="rgb(253,152,85)" offset="100%"/>
      </linearGradient>
      <linearGradient x1="340.9" gradientUnits="userSpaceOnUse" x2="419.7" y1="270.8063" y2="270.8063" id="linearGradient10" spreadMethod="reflect">
        <stop stop-opacity="1" stop-color="rgb(253,152,85)" offset="0%"/>
        <stop stop-opacity="1" stop-color="rgb(253,152,85)" offset="100%"/>
      </linearGradient>
      <linearGradient x1="340.9" gradientUnits="userSpaceOnUse" x2="419.7" y1="274.1201" y2="274.1201" id="linearGradient11" spreadMethod="reflect">
        <stop stop-opacity="1" stop-color="rgb(253,152,85)" offset="0%"/>
        <stop stop-opacity="1" stop-color="rgb(253,152,85)" offset="100%"/>
      </linearGradient>
      <linearGradient x1="340.9" gradientUnits="userSpaceOnUse" x2="419.7" y1="277.623" y2="277.623" id="linearGradient12" spreadMethod="reflect">
        <stop stop-opacity="1" stop-color="rgb(253,152,85)" offset="0%"/>
        <stop stop-opacity="1" stop-color="rgb(253,152,85)" offset="100%"/>
      </linearGradient>
      <linearGradient x1="450.8" gradientUnits="userSpaceOnUse" x2="495" y1="149.5" y2="149.5" id="linearGradient13" spreadMethod="reflect">
        <stop stop-opacity="1" stop-color="rgb(163,73,164)" offset="0%"/>
        <stop stop-opacity="1" stop-color="rgb(255,81,168)" offset="100%"/>
      </linearGradient>
      <linearGradient x1="453.4833" gradientUnits="userSpaceOnUse" x2="486.95" y1="213.1964" y2="213.1964" id="linearGradient14" spreadMethod="reflect">
        <stop stop-opacity="1" stop-color="rgb(253,152,85)" offset="0%"/>
        <stop stop-opacity="1" stop-color="rgb(253,152,85)" offset="100%"/>
      </linearGradient>
      <clipPath clipPathUnits="userSpaceOnUse" id="clipPath1">
        <path d="M0 0 L624 0 L624 270 L0 270 L0 0 Z"/>
      </clipPath>
      <clipPath clipPathUnits="userSpaceOnUse" id="clipPath2">
        <path d="M131 106 L755 106 L755 376 L131 376 L131 106 Z"/>
      </clipPath>
    </defs>
    <g fill="white" text-rendering="geometricPrecision" shape-rendering="geometricPrecision" transform="translate(-131,-106)" stroke="white">
      <rect x="131" width="624" height="270" y="106" clip-path="url(#clipPath2)" stroke="none"/>
    </g>
    <g fill="url(#linearGradient1)" text-rendering="geometricPrecision" shape-rendering="geometricPrecision" transform="matrix(1,0,0,1,-131,-106)" stroke="url(#linearGradient1)">
      <rect x="301.5" y="263.8116" clip-path="url(#clipPath2)" width="118.2" rx="4" ry="4" height="31.5333" stroke="none"/>
    </g>
    <g text-rendering="geometricPrecision" stroke-miterlimit="1.45" shape-rendering="geometricPrecision" transform="matrix(1,0,0,1,-131,-106)" stroke-linecap="butt">
      <rect x="301.5" y="263.8116" clip-path="url(#clipPath2)" fill="none" width="118.2" rx="4" ry="4" height="31.5333"/>
      <text x="336.7094" font-size="8px" y="282.3478" clip-path="url(#clipPath2)" font-family="sans-serif" stroke="none" xml:space="preserve">StepService</text>
    </g>
    <g fill="url(#linearGradient2)" text-rendering="geometricPrecision" shape-rendering="geometricPrecision" transform="matrix(1,0,0,1,-131,-106)" stroke="url(#linearGradient2)">
      <rect x="552.75" width="187" height="100.6667" y="121.3333" clip-path="url(#clipPath2)" stroke="none"/>
      <rect x="552.75" y="121.3333" clip-path="url(#clipPath2)" fill="rgb(255,115,240)" width="1" height="100.6667" stroke="none"/>
      <rect x="553.75" y="121.3333" clip-path="url(#clipPath2)" fill="rgb(255,115,240)" width="185" height="1" stroke="none"/>
      <rect x="553.75" y="221" clip-path="url(#clipPath2)" fill="rgb(178,56,117)" width="186" height="1" stroke="none"/>
      <rect x="738.75" y="121.3333" clip-path="url(#clipPath2)" fill="rgb(178,56,117)" width="1" height="99.6667" stroke="none"/>
      <rect x="550.5" y="269.5" clip-path="url(#clipPath2)" fill="url(#linearGradient3)" width="187" height="90.7333" stroke="none"/>
      <rect x="550.5" y="269.5" clip-path="url(#clipPath2)" fill="rgb(255,115,240)" width="1" height="90.7333" stroke="none"/>
      <rect x="551.5" y="269.5" clip-path="url(#clipPath2)" fill="rgb(255,115,240)" width="185" height="1" stroke="none"/>
      <rect x="551.5" y="359.2333" clip-path="url(#clipPath2)" fill="rgb(178,56,117)" width="186" height="1" stroke="none"/>
      <rect x="736.5" y="269.5" clip-path="url(#clipPath2)" fill="rgb(178,56,117)" width="1" height="89.7333" stroke="none"/>
      <path fill="url(#linearGradient4)" d="M146.5 249.6667 L157.8 223.6667 L248.2 223.6667 L259.5 249.6667 L248.2 275.6667 L157.8 275.6667 Z" clip-path="url(#clipPath2)" fill-rule="evenodd" stroke="none"/>
    </g>
    <g text-rendering="geometricPrecision" stroke-miterlimit="1.45" shape-rendering="geometricPrecision" transform="matrix(1,0,0,1,-131,-106)" stroke-linecap="butt">
      <path fill="none" d="M146.5 249.6667 L157.8 223.6667 L248.2 223.6667 L259.5 249.6667 L248.2 275.6667 L157.8 275.6667 Z" fill-rule="evenodd" clip-path="url(#clipPath2)"/>
      <text x="189.3389" xml:space="preserve" y="246.8366" clip-path="url(#clipPath2)" font-family="sans-serif" stroke="none">Step</text>
      <text x="179.958" xml:space="preserve" y="260.8053" clip-path="url(#clipPath2)" font-family="sans-serif" stroke="none">Catalog</text>
    </g>
    <g fill="rgb(255,81,168)" text-rendering="geometricPrecision" shape-rendering="geometricPrecision" transform="matrix(1,0,0,1,-131,-106)" stroke="rgb(255,81,168)">
      <rect x="280" width="224" height="238.9" y="121.3333" clip-path="url(#clipPath2)" stroke="none"/>
      <rect x="280" y="121.3333" clip-path="url(#clipPath2)" fill="rgb(255,115,240)" width="1" height="238.9" stroke="none"/>
      <rect x="281" y="121.3333" clip-path="url(#clipPath2)" fill="rgb(255,115,240)" width="222" height="1" stroke="none"/>
      <rect x="281" y="359.2333" clip-path="url(#clipPath2)" fill="rgb(178,56,117)" width="223" height="1" stroke="none"/>
      <rect x="503" y="121.3333" clip-path="url(#clipPath2)" fill="rgb(178,56,117)" width="1" height="237.9" stroke="none"/>
    </g>
    <g stroke-linecap="butt" transform="matrix(1,0,0,1,-131,-106)" text-rendering="geometricPrecision" font-family="sans-serif" shape-rendering="geometricPrecision" font-weight="bold" stroke-miterlimit="1.45">
      <text x="286" xml:space="preserve" y="138.472" clip-path="url(#clipPath2)" stroke="none">Backend</text>
    </g>
    <g fill="rgb(153,204,0)" text-rendering="geometricPrecision" shape-rendering="geometricPrecision" transform="matrix(1,0,0,1,-131,-106)" stroke="rgb(153,204,0)">
      <path d="M599.8512 155.9 L704.25 155.9 L692.6488 187.4333 L588.25 187.4333 Z" fill-rule="evenodd" clip-path="url(#clipPath2)" stroke="none"/>
    </g>
    <g text-rendering="geometricPrecision" stroke-miterlimit="1.45" shape-rendering="geometricPrecision" transform="matrix(1,0,0,1,-131,-106)" stroke-linecap="butt">
      <path fill="none" d="M599.8512 155.9 L704.25 155.9 L692.6488 187.4333 L588.25 187.4333 Z" fill-rule="evenodd" clip-path="url(#clipPath2)"/>
      <text x="608.2432" xml:space="preserve" y="175.821" clip-path="url(#clipPath2)" font-family="sans-serif" stroke="none">Source Code</text>
    </g>
    <g fill="url(#linearGradient5)" text-rendering="geometricPrecision" shape-rendering="geometricPrecision" transform="matrix(1,0,0,1,-131,-106)" stroke="url(#linearGradient5)">
      <rect x="289.5" y="149.5" clip-path="url(#clipPath2)" width="139.2" rx="4" ry="4" height="200.3333" stroke="none"/>
    </g>
    <g text-rendering="geometricPrecision" stroke-miterlimit="1.45" shape-rendering="geometricPrecision" transform="matrix(1,0,0,1,-131,-106)" stroke-linecap="butt">
      <rect x="289.5" y="149.5" clip-path="url(#clipPath2)" fill="none" width="139.2" rx="4" ry="4" height="200.3333"/>
      <text x="333.7992" xml:space="preserve" y="166.6387" clip-path="url(#clipPath2)" font-family="sans-serif" stroke="none">Services</text>
    </g>
    <g fill="url(#linearGradient6)" text-rendering="geometricPrecision" shape-rendering="geometricPrecision" transform="matrix(1,0,0,1,-131,-106)" stroke="url(#linearGradient6)">
      <rect x="301.5" y="209.273" clip-path="url(#clipPath2)" width="118.2" rx="4" ry="4" height="31.5333" stroke="none"/>
    </g>
    <g text-rendering="geometricPrecision" stroke-miterlimit="1.45" shape-rendering="geometricPrecision" transform="matrix(1,0,0,1,-131,-106)" stroke-linecap="butt">
      <rect x="301.5" y="209.273" clip-path="url(#clipPath2)" fill="none" width="118.2" rx="4" ry="4" height="31.5333"/>
      <text x="305.7182" xml:space="preserve" y="229.1939" clip-path="url(#clipPath2)" font-family="sans-serif" stroke="none">StepParserService</text>
    </g>
    <g fill="url(#linearGradient7)" text-rendering="geometricPrecision" shape-rendering="geometricPrecision" transform="matrix(1,0,0,1,-131,-106)" stroke="url(#linearGradient7)">
      <rect x="301.5" y="212.5868" clip-path="url(#clipPath2)" width="118.2" rx="4" ry="4" height="31.5333" stroke="none"/>
    </g>
    <g text-rendering="geometricPrecision" stroke-miterlimit="1.45" shape-rendering="geometricPrecision" transform="matrix(1,0,0,1,-131,-106)" stroke-linecap="butt">
      <rect x="301.5" y="212.5868" clip-path="url(#clipPath2)" fill="none" width="118.2" rx="4" ry="4" height="31.5333"/>
      <text x="305.7182" xml:space="preserve" y="232.5078" clip-path="url(#clipPath2)" font-family="sans-serif" stroke="none">StepParserService</text>
    </g>
    <g fill="url(#linearGradient8)" text-rendering="geometricPrecision" shape-rendering="geometricPrecision" transform="matrix(1,0,0,1,-131,-106)" stroke="url(#linearGradient8)">
      <rect x="301.5" y="216.0896" clip-path="url(#clipPath2)" width="118.2" rx="4" ry="4" height="31.5333" stroke="none"/>
    </g>
    <g text-rendering="geometricPrecision" stroke-miterlimit="1.45" shape-rendering="geometricPrecision" transform="matrix(1,0,0,1,-131,-106)" stroke-linecap="butt">
      <rect x="301.5" y="216.0896" clip-path="url(#clipPath2)" fill="none" width="118.2" rx="4" ry="4" height="31.5333"/>
      <text x="324.0121" font-size="8px" y="234.6258" clip-path="url(#clipPath2)" font-family="sans-serif" stroke="none" xml:space="preserve">StepParserService</text>
    </g>
    <g fill="rgb(142,142,255)" text-rendering="geometricPrecision" shape-rendering="geometricPrecision" transform="matrix(1,0,0,1,-131,-106)" stroke="rgb(142,142,255)">
      <path d="M609 289.8667 L640.5 289.8667 L644 314.8667 L612.5 314.8667 Z" fill-rule="evenodd" clip-path="url(#clipPath2)" stroke="none"/>
    </g>
    <g text-rendering="geometricPrecision" stroke-miterlimit="1.45" shape-rendering="geometricPrecision" transform="matrix(1,0,0,1,-131,-106)" stroke-linecap="butt">
      <path fill="none" d="M609 289.8667 L640.5 289.8667 L644 314.8667 L612.5 314.8667 Z" fill-rule="evenodd" clip-path="url(#clipPath2)"/>
    </g>
    <g fill="rgb(142,142,255)" text-rendering="geometricPrecision" shape-rendering="geometricPrecision" transform="matrix(1,0,0,1,-131,-106)" stroke="rgb(142,142,255)">
      <path d="M615 292.8667 L646.5 292.8667 L650 317.8667 L618.5 317.8667 Z" fill-rule="evenodd" clip-path="url(#clipPath2)" stroke="none"/>
    </g>
    <g text-rendering="geometricPrecision" stroke-miterlimit="1.45" shape-rendering="geometricPrecision" transform="matrix(1,0,0,1,-131,-106)" stroke-linecap="butt">
      <path fill="none" d="M615 292.8667 L646.5 292.8667 L650 317.8667 L618.5 317.8667 Z" fill-rule="evenodd" clip-path="url(#clipPath2)"/>
    </g>
    <g fill="rgb(142,142,255)" text-rendering="geometricPrecision" shape-rendering="geometricPrecision" transform="matrix(1,0,0,1,-131,-106)" stroke="rgb(142,142,255)">
      <path d="M621 295.8667 L652.5 295.8667 L656 320.8667 L624.5 320.8667 Z" fill-rule="evenodd" clip-path="url(#clipPath2)" stroke="none"/>
    </g>
    <g text-rendering="geometricPrecision" stroke-miterlimit="1.45" shape-rendering="geometricPrecision" transform="matrix(1,0,0,1,-131,-106)" stroke-linecap="butt">
      <path fill="none" d="M621 295.8667 L652.5 295.8667 L656 320.8667 L624.5 320.8667 Z" fill-rule="evenodd" clip-path="url(#clipPath2)"/>
      <text x="625.5215" xml:space="preserve" y="312.521" clip-path="url(#clipPath2)" font-family="sans-serif" stroke="none">step</text>
    </g>
    <g fill="url(#linearGradient9)" text-rendering="geometricPrecision" shape-rendering="geometricPrecision" transform="matrix(1,0,0,1,-131,-106)" stroke="url(#linearGradient9)">
      <rect x="301.5" y="270.8063" clip-path="url(#clipPath2)" width="118.2" rx="4" ry="4" height="31.5333" stroke="none"/>
    </g>
    <g text-rendering="geometricPrecision" stroke-miterlimit="1.45" shape-rendering="geometricPrecision" transform="matrix(1,0,0,1,-131,-106)" stroke-linecap="butt">
      <rect x="301.5" y="270.8063" clip-path="url(#clipPath2)" fill="none" width="118.2" rx="4" ry="4" height="31.5333"/>
      <text x="336.7094" font-size="8px" y="289.3425" clip-path="url(#clipPath2)" font-family="sans-serif" stroke="none" xml:space="preserve">StepService</text>
    </g>
    <g fill="url(#linearGradient10)" text-rendering="geometricPrecision" shape-rendering="geometricPrecision" transform="matrix(1,0,0,1,-131,-106)" stroke="url(#linearGradient10)">
      <rect x="301.5" y="270.8063" clip-path="url(#clipPath2)" width="118.2" rx="4" ry="4" height="31.5333" stroke="none"/>
    </g>
    <g text-rendering="geometricPrecision" stroke-miterlimit="1.45" shape-rendering="geometricPrecision" transform="matrix(1,0,0,1,-131,-106)" stroke-linecap="butt">
      <rect x="301.5" y="270.8063" clip-path="url(#clipPath2)" fill="none" width="118.2" rx="4" ry="4" height="31.5333"/>
      <text x="336.7094" font-size="8px" y="289.3425" clip-path="url(#clipPath2)" font-family="sans-serif" stroke="none" xml:space="preserve">StepService</text>
    </g>
    <g fill="url(#linearGradient11)" text-rendering="geometricPrecision" shape-rendering="geometricPrecision" transform="matrix(1,0,0,1,-131,-106)" stroke="url(#linearGradient11)">
      <rect x="301.5" y="274.1201" clip-path="url(#clipPath2)" width="118.2" rx="4" ry="4" height="31.5333" stroke="none"/>
    </g>
    <g text-rendering="geometricPrecision" stroke-miterlimit="1.45" shape-rendering="geometricPrecision" transform="matrix(1,0,0,1,-131,-106)" stroke-linecap="butt">
      <rect x="301.5" y="274.1201" clip-path="url(#clipPath2)" fill="none" width="118.2" rx="4" ry="4" height="31.5333"/>
      <text x="336.7094" font-size="8px" y="292.6563" clip-path="url(#clipPath2)" font-family="sans-serif" stroke="none" xml:space="preserve">StepService</text>
    </g>
    <g fill="url(#linearGradient12)" text-rendering="geometricPrecision" shape-rendering="geometricPrecision" transform="matrix(1,0,0,1,-131,-106)" stroke="url(#linearGradient12)">
      <rect x="301.5" y="277.623" clip-path="url(#clipPath2)" width="118.2" rx="4" ry="4" height="31.5333" stroke="none"/>
    </g>
    <g text-rendering="geometricPrecision" stroke-miterlimit="1.45" shape-rendering="geometricPrecision" transform="matrix(1,0,0,1,-131,-106)" stroke-linecap="butt">
      <rect x="301.5" y="277.623" clip-path="url(#clipPath2)" fill="none" width="118.2" rx="4" ry="4" height="31.5333"/>
      <text x="336.7094" font-size="8px" y="296.1592" clip-path="url(#clipPath2)" font-family="sans-serif" stroke="none" xml:space="preserve">StepService</text>
    </g>
    <g fill="url(#linearGradient13)" text-rendering="geometricPrecision" shape-rendering="geometricPrecision" transform="matrix(1,0,0,1,-131,-106)" stroke="url(#linearGradient13)">
      <rect x="428.7" y="149.5" clip-path="url(#clipPath2)" width="66.3" rx="4" ry="4" height="200.3333" stroke="none"/>
    </g>
    <g text-rendering="geometricPrecision" stroke-miterlimit="1.45" shape-rendering="geometricPrecision" transform="matrix(1,0,0,1,-131,-106)" stroke-linecap="butt">
      <rect x="428.7" y="149.5" clip-path="url(#clipPath2)" fill="none" width="66.3" rx="4" ry="4" height="200.3333"/>
      <text x="452.3578" xml:space="preserve" y="166.6387" clip-path="url(#clipPath2)" font-family="sans-serif" stroke="none">API</text>
    </g>
    <g fill="url(#linearGradient14)" text-rendering="geometricPrecision" shape-rendering="geometricPrecision" transform="matrix(1,0,0,1,-131,-106)" stroke="url(#linearGradient14)">
      <rect x="436.75" y="213.1964" clip-path="url(#clipPath2)" width="50.2" rx="4" ry="4" height="90.7333" stroke="none"/>
    </g>
    <g text-rendering="geometricPrecision" stroke-miterlimit="1.45" shape-rendering="geometricPrecision" transform="matrix(1,0,0,1,-131,-106)" stroke-linecap="butt">
      <rect x="436.75" y="213.1964" clip-path="url(#clipPath2)" fill="none" width="50.2" rx="4" ry="4" height="90.7333"/>
      <text x="450.6586" font-size="8px" y="261.3326" clip-path="url(#clipPath2)" font-family="sans-serif" stroke="none" xml:space="preserve">Steps</text>
    </g>
    <g fill="rgb(142,142,255)" text-rendering="geometricPrecision" shape-rendering="geometricPrecision" transform="matrix(1,0,0,1,-131,-106)" stroke="rgb(142,142,255)">
      <path d="M626.5 302.3667 L658 302.3667 L661.5 327.3667 L630 327.3667 Z" fill-rule="evenodd" clip-path="url(#clipPath2)" stroke="none"/>
    </g>
    <g text-rendering="geometricPrecision" stroke-miterlimit="1.45" shape-rendering="geometricPrecision" transform="matrix(1,0,0,1,-131,-106)" stroke-linecap="butt">
      <path fill="none" d="M626.5 302.3667 L658 302.3667 L661.5 327.3667 L630 327.3667 Z" fill-rule="evenodd" clip-path="url(#clipPath2)"/>
    </g>
    <g fill="rgb(142,142,255)" text-rendering="geometricPrecision" shape-rendering="geometricPrecision" transform="matrix(1,0,0,1,-131,-106)" stroke="rgb(142,142,255)">
      <path d="M632.5 305.3667 L664 305.3667 L667.5 330.3667 L636 330.3667 Z" fill-rule="evenodd" clip-path="url(#clipPath2)" stroke="none"/>
    </g>
    <g text-rendering="geometricPrecision" stroke-miterlimit="1.45" shape-rendering="geometricPrecision" transform="matrix(1,0,0,1,-131,-106)" stroke-linecap="butt">
      <path fill="none" d="M632.5 305.3667 L664 305.3667 L667.5 330.3667 L636 330.3667 Z" fill-rule="evenodd" clip-path="url(#clipPath2)"/>
    </g>
    <g fill="rgb(142,142,255)" text-rendering="geometricPrecision" shape-rendering="geometricPrecision" transform="matrix(1,0,0,1,-131,-106)" stroke="rgb(142,142,255)">
      <path d="M638.5 308.3667 L670 308.3667 L673.5 333.3667 L642 333.3667 Z" fill-rule="evenodd" clip-path="url(#clipPath2)" stroke="none"/>
    </g>
    <g text-rendering="geometricPrecision" stroke-miterlimit="1.45" shape-rendering="geometricPrecision" transform="matrix(1,0,0,1,-131,-106)" stroke-linecap="butt">
      <path fill="none" d="M638.5 308.3667 L670 308.3667 L673.5 333.3667 L642 333.3667 Z" fill-rule="evenodd" clip-path="url(#clipPath2)"/>
      <text x="643.0215" xml:space="preserve" y="325.021" clip-path="url(#clipPath2)" font-family="sans-serif" stroke="none">step</text>
      <path fill="none" d="M331 216.1128 L331 187.5 L203 187.5 L203 215.6526" clip-path="url(#clipPath2)"/>
      <path d="M203 223.6526 L208 211.6526 L203 214.6526 L198 211.6526 Z" clip-path="url(#clipPath2)" stroke="none"/>
      <rect x="234.4945" y="178.5156" clip-path="url(#clipPath2)" fill="white" width="39.7598" height="17.9688" stroke="none"/>
      <text x="236.4945" xml:space="preserve" y="191.6543" clip-path="url(#clipPath2)" font-family="sans-serif" stroke="none">builds</text>
      <path fill="none" d="M333 305.6611 L333 335.5 L203 335.5 L203 283.6933" clip-path="url(#clipPath2)"/>
      <path d="M203 275.6933 L198 287.6933 L203 284.6933 L208 287.6933 Z" clip-path="url(#clipPath2)" stroke="none"/>
      <rect x="229.3469" y="326.5156" clip-path="url(#clipPath2)" fill="white" width="31.4922" height="17.9688" stroke="none"/>
      <text x="231.3469" xml:space="preserve" y="339.6543" clip-path="url(#clipPath2)" font-family="sans-serif" stroke="none">uses</text>
      <path fill="none" stroke-dasharray="4,3,0,3" d="M360.6 216.1311 L360.6 183.5 L461.85 183.5 L461.85 213.2247" clip-path="url(#clipPath2)" stroke-linecap="round"/>
      <path fill="none" stroke-dasharray="4,3,0,3" d="M360.6 309.1946 L360.6 332.96 L461.85 332.96 L461.85 303.935" clip-path="url(#clipPath2)" stroke-linecap="round"/>
      <path fill="none" d="M552.7712 171.6667 L521 171.6667 L521 229.5 L494.9307 229.5" clip-path="url(#clipPath2)"/>
      <path d="M486.9307 229.5 L498.9307 234.5 L495.9307 229.5 L498.9307 224.5 Z" clip-path="url(#clipPath2)" stroke="none"/>
      <path fill="none" d="M486.9737 258.563 L530 258.563 L530 320 L632.2361 320.8038" clip-path="url(#clipPath2)"/>
      <path d="M640.2358 320.8667 L628.2755 315.7725 L631.2361 320.7959 L628.1969 325.7722 Z" clip-path="url(#clipPath2)" stroke="none"/>
    </g>
  </g>
</svg>
