<?xml version="1.0" encoding="UTF-8"?><svg xmlns="http://www.w3.org/2000/svg" xmlns:xlink="http://www.w3.org/1999/xlink" fill-opacity="1" color-rendering="auto" color-interpolation="auto" text-rendering="auto" stroke="black" stroke-linecap="square" width="493" stroke-miterlimit="10" shape-rendering="auto" stroke-opacity="1" fill="black" stroke-dasharray="none" font-weight="normal" stroke-width="1" height="429" font-family="'Dialog'" font-style="normal" stroke-linejoin="miter" font-size="12px" stroke-dashoffset="0" image-rendering="auto">
  <!--Generated by ySVG 2.5-->
  <defs id="genericDefs"/>
  <g>
    <defs id="defs1">
      <linearGradient x1="340.7745" gradientUnits="userSpaceOnUse" x2="476.2412" y1="330.4733" y2="330.4733" id="linearGradient1" spreadMethod="reflect">
        <stop stop-opacity="1" stop-color="rgb(203,203,255)" offset="0%"/>
        <stop stop-opacity="1" stop-color="rgb(142,142,255)" offset="100%"/>
      </linearGradient>
      <linearGradient x1="340.7745" gradientUnits="userSpaceOnUse" x2="476.2412" y1="450.04" y2="450.04" id="linearGradient2" spreadMethod="reflect">
        <stop stop-opacity="1" stop-color="rgb(203,203,255)" offset="0%"/>
        <stop stop-opacity="1" stop-color="rgb(142,142,255)" offset="100%"/>
      </linearGradient>
      <linearGradient x1="340.7745" gradientUnits="userSpaceOnUse" x2="476.2412" y1="413.6733" y2="413.6733" id="linearGradient3" spreadMethod="reflect">
        <stop stop-opacity="1" stop-color="rgb(203,203,255)" offset="0%"/>
        <stop stop-opacity="1" stop-color="rgb(142,142,255)" offset="100%"/>
      </linearGradient>
      <clipPath clipPathUnits="userSpaceOnUse" id="clipPath1">
        <path d="M0 0 L493 0 L493 429 L0 429 L0 0 Z"/>
      </clipPath>
      <clipPath clipPathUnits="userSpaceOnUse" id="clipPath2">
        <path d="M45 196 L538 196 L538 625 L45 625 L45 196 Z"/>
      </clipPath>
    </defs>
    <g fill="rgb(203,203,255)" text-rendering="geometricPrecision" shape-rendering="geometricPrecision" transform="matrix(1,0,0,1,-45,-196)" stroke="rgb(203,203,255)">
      <rect x="255.6412" width="229.4" height="280.6333" y="306.7233" clip-path="url(#clipPath2)" stroke="none"/>
    </g>
    <g fill="white" text-rendering="geometricPrecision" shape-rendering="geometricPrecision" transform="matrix(1,0,0,1,-45,-196)" stroke="white">
      <rect x="255.6412" width="1" height="280.6333" y="306.7233" clip-path="url(#clipPath2)" stroke="none"/>
      <rect x="256.6412" width="227.4" height="1" y="306.7233" clip-path="url(#clipPath2)" stroke="none"/>
      <rect x="256.6412" y="586.3567" clip-path="url(#clipPath2)" fill="rgb(142,142,178)" width="228.4" height="1" stroke="none"/>
      <rect x="484.0412" y="306.7233" clip-path="url(#clipPath2)" fill="rgb(142,142,178)" width="1" height="279.6333" stroke="none"/>
    </g>
    <g stroke-linecap="butt" transform="matrix(1,0,0,1,-45,-196)" text-rendering="geometricPrecision" font-family="sans-serif" shape-rendering="geometricPrecision" font-weight="bold" stroke-miterlimit="1.45">
      <text x="412.9533" xml:space="preserve" y="323.862" clip-path="url(#clipPath2)" stroke="none">Frontend </text>
    </g>
    <g fill="rgb(142,142,255)" text-rendering="geometricPrecision" shape-rendering="geometricPrecision" transform="matrix(1,0,0,1,-45,-196)" stroke="rgb(142,142,255)">
      <path d="M328.6412 237.2067 L337.8412 211.2067 L411.4412 211.2067 L420.6412 237.2067 L411.4412 263.2067 L337.8412 263.2067 Z" fill-rule="evenodd" clip-path="url(#clipPath2)" stroke="none"/>
    </g>
    <g text-rendering="geometricPrecision" stroke-miterlimit="1.45" shape-rendering="geometricPrecision" transform="matrix(1,0,0,1,-45,-196)" stroke-linecap="butt">
      <path fill="none" d="M328.6412 237.2067 L337.8412 211.2067 L411.4412 211.2067 L420.6412 237.2067 L411.4412 263.2067 L337.8412 263.2067 Z" fill-rule="evenodd" clip-path="url(#clipPath2)"/>
      <text x="345.1861" xml:space="preserve" y="234.3766" clip-path="url(#clipPath2)" font-family="sans-serif" stroke="none">Extension</text>
      <text x="351.5992" xml:space="preserve" y="248.3453" clip-path="url(#clipPath2)" font-family="sans-serif" stroke="none">Catalog</text>
    </g>
    <g fill="url(#linearGradient1)" text-rendering="geometricPrecision" shape-rendering="geometricPrecision" transform="matrix(1,0,0,1,-45,-196)" stroke="url(#linearGradient1)">
      <rect x="273.0412" y="330.4733" clip-path="url(#clipPath2)" width="203.2" rx="4" ry="4" height="77.5667" stroke="none"/>
    </g>
    <g text-rendering="geometricPrecision" stroke-miterlimit="1.45" shape-rendering="geometricPrecision" transform="matrix(1,0,0,1,-45,-196)" stroke-linecap="butt">
      <rect x="273.0412" y="330.4733" clip-path="url(#clipPath2)" fill="none" width="203.2" rx="4" ry="4" height="77.5667"/>
      <text x="339.6168" xml:space="preserve" y="347.612" clip-path="url(#clipPath2)" font-family="sans-serif" stroke="none">Code Editor</text>
    </g>
    <g fill="url(#linearGradient2)" text-rendering="geometricPrecision" shape-rendering="geometricPrecision" transform="matrix(1,0,0,1,-45,-196)" stroke="url(#linearGradient2)">
      <rect x="273.0412" y="450.04" clip-path="url(#clipPath2)" width="203.2" rx="4" ry="4" height="124.4" stroke="none"/>
    </g>
    <g text-rendering="geometricPrecision" stroke-miterlimit="1.45" shape-rendering="geometricPrecision" transform="matrix(1,0,0,1,-45,-196)" stroke-linecap="butt">
      <rect x="273.0412" y="450.04" clip-path="url(#clipPath2)" fill="none" width="203.2" rx="4" ry="4" height="124.4"/>
      <text x="336.9332" xml:space="preserve" y="467.1787" clip-path="url(#clipPath2)" font-family="sans-serif" stroke="none">Visual Editor</text>
    </g>
    <g fill="url(#linearGradient3)" text-rendering="geometricPrecision" shape-rendering="geometricPrecision" transform="matrix(1,0,0,1,-45,-196)" stroke="url(#linearGradient3)">
      <rect x="273.0412" y="413.6733" clip-path="url(#clipPath2)" width="203.2" rx="4" ry="4" height="27.4" stroke="none"/>
    </g>
    <g text-rendering="geometricPrecision" stroke-miterlimit="1.45" shape-rendering="geometricPrecision" transform="matrix(1,0,0,1,-45,-196)" stroke-linecap="butt">
      <rect x="273.0412" y="413.6733" clip-path="url(#clipPath2)" fill="none" width="203.2" rx="4" ry="4" height="27.4"/>
      <text x="336.0309" xml:space="preserve" y="430.812" clip-path="url(#clipPath2)" font-family="sans-serif" stroke="none">Step Catalog</text>
    </g>
    <g fill="rgb(142,142,255)" text-rendering="geometricPrecision" shape-rendering="geometricPrecision" transform="matrix(1,0,0,1,-45,-196)" stroke="rgb(142,142,255)">
      <rect x="283.5412" y="471.0733" clip-path="url(#clipPath2)" width="113" rx="4" ry="4" height="97.6" stroke="none"/>
    </g>
    <g text-rendering="geometricPrecision" stroke-miterlimit="1.45" shape-rendering="geometricPrecision" transform="matrix(1,0,0,1,-45,-196)" stroke-linecap="butt">
      <rect x="283.5412" y="471.0733" clip-path="url(#clipPath2)" fill="none" width="113" rx="4" ry="4" height="97.6"/>
      <text x="302.6789" xml:space="preserve" y="494.3876" clip-path="url(#clipPath2)" font-family="sans-serif" stroke="none">Main canvas</text>
    </g>
    <g fill="rgb(142,142,255)" text-rendering="geometricPrecision" shape-rendering="geometricPrecision" transform="matrix(1,0,0,1,-45,-196)" stroke="rgb(142,142,255)">
      <rect x="400.5949" y="471.0733" clip-path="url(#clipPath2)" width="69.8" rx="4" ry="4" height="25" stroke="none"/>
    </g>
    <g text-rendering="geometricPrecision" stroke-miterlimit="1.45" shape-rendering="geometricPrecision" transform="matrix(1,0,0,1,-45,-196)" stroke-linecap="butt">
      <rect x="400.5949" y="471.0733" clip-path="url(#clipPath2)" fill="none" width="69.8" rx="4" ry="4" height="25"/>
      <text x="405.4793" font-size="8px" y="486.3429" clip-path="url(#clipPath2)" font-family="sans-serif" stroke="none" xml:space="preserve">Step Extension</text>
    </g>
    <g fill="rgb(142,142,255)" text-rendering="geometricPrecision" shape-rendering="geometricPrecision" transform="matrix(1,0,0,1,-45,-196)" stroke="rgb(142,142,255)">
      <rect x="400.5949" y="507.3733" clip-path="url(#clipPath2)" width="69.8" rx="4" ry="4" height="25" stroke="none"/>
    </g>
    <g text-rendering="geometricPrecision" stroke-miterlimit="1.45" shape-rendering="geometricPrecision" transform="matrix(1,0,0,1,-45,-196)" stroke-linecap="butt">
      <rect x="400.5949" y="507.3733" clip-path="url(#clipPath2)" fill="none" width="69.8" rx="4" ry="4" height="25"/>
      <text x="405.4793" font-size="8px" y="522.6429" clip-path="url(#clipPath2)" font-family="sans-serif" stroke="none" xml:space="preserve">Step Extension</text>
    </g>
    <g fill="rgb(142,142,255)" text-rendering="geometricPrecision" shape-rendering="geometricPrecision" transform="matrix(1,0,0,1,-45,-196)" stroke="rgb(142,142,255)">
      <rect x="400.5949" y="543.6733" clip-path="url(#clipPath2)" width="69.8" rx="4" ry="4" height="25" stroke="none"/>
    </g>
    <g text-rendering="geometricPrecision" stroke-miterlimit="1.45" shape-rendering="geometricPrecision" transform="matrix(1,0,0,1,-45,-196)" stroke-linecap="butt">
      <rect x="400.5949" y="543.6733" clip-path="url(#clipPath2)" fill="none" width="69.8" rx="4" ry="4" height="25"/>
      <text x="405.4793" font-size="8px" y="558.9429" clip-path="url(#clipPath2)" font-family="sans-serif" stroke="none" xml:space="preserve">Step Extension</text>
    </g>
    <g fill="rgb(142,142,255)" text-rendering="geometricPrecision" shape-rendering="geometricPrecision" transform="matrix(1,0,0,1,-45,-196)" stroke="rgb(142,142,255)">
      <rect x="283.5412" y="352.44" clip-path="url(#clipPath2)" width="186.8537" rx="4" ry="4" height="45" stroke="none"/>
    </g>
    <g text-rendering="geometricPrecision" stroke-miterlimit="1.45" shape-rendering="geometricPrecision" transform="matrix(1,0,0,1,-45,-196)" stroke-linecap="butt">
      <rect x="283.5412" y="352.44" clip-path="url(#clipPath2)" fill="none" width="186.8537" rx="4" ry="4" height="45"/>
      <text x="296.9085" xml:space="preserve" y="379.0943" clip-path="url(#clipPath2)" font-family="sans-serif" stroke="none">Domain Specific Language</text>
    </g>
    <g fill="rgb(216,216,255)" text-rendering="geometricPrecision" shape-rendering="geometricPrecision" transform="matrix(1,0,0,1,-45,-196)" stroke="rgb(216,216,255)">
      <path d="M302.1875 510.9733 L324.6155 510.9733 L327.1075 528.7733 L304.6795 528.7733 Z" fill-rule="evenodd" clip-path="url(#clipPath2)" stroke="none"/>
    </g>
    <g text-rendering="geometricPrecision" stroke-miterlimit="1.45" shape-rendering="geometricPrecision" transform="matrix(1,0,0,1,-45,-196)" stroke-linecap="butt">
      <path fill="none" d="M302.1875 510.9733 L324.6155 510.9733 L327.1075 528.7733 L304.6795 528.7733 Z" fill-rule="evenodd" clip-path="url(#clipPath2)"/>
      <text x="305.9951" font-size="8px" y="522.6429" clip-path="url(#clipPath2)" font-family="sans-serif" stroke="none" xml:space="preserve">step</text>
    </g>
    <g fill="rgb(216,216,255)" text-rendering="geometricPrecision" shape-rendering="geometricPrecision" transform="matrix(1,0,0,1,-45,-196)" stroke="rgb(216,216,255)">
      <path d="M345.6749 510.9733 L368.1029 510.9733 L370.5949 528.7733 L348.1669 528.7733 Z" fill-rule="evenodd" clip-path="url(#clipPath2)" stroke="none"/>
    </g>
    <g text-rendering="geometricPrecision" stroke-miterlimit="1.45" shape-rendering="geometricPrecision" transform="matrix(1,0,0,1,-45,-196)" stroke-linecap="butt">
      <path fill="none" d="M345.6749 510.9733 L368.1029 510.9733 L370.5949 528.7733 L348.1669 528.7733 Z" fill-rule="evenodd" clip-path="url(#clipPath2)"/>
      <text x="349.4826" font-size="8px" y="522.6429" clip-path="url(#clipPath2)" font-family="sans-serif" stroke="none" xml:space="preserve">step</text>
    </g>
    <g fill="rgb(216,216,255)" text-rendering="geometricPrecision" shape-rendering="geometricPrecision" transform="matrix(1,0,0,1,-45,-196)" stroke="rgb(216,216,255)">
      <path d="M334.6475 547.2733 L357.0755 547.2733 L359.5675 565.0733 L337.1395 565.0733 Z" fill-rule="evenodd" clip-path="url(#clipPath2)" stroke="none"/>
    </g>
    <g text-rendering="geometricPrecision" stroke-miterlimit="1.45" shape-rendering="geometricPrecision" transform="matrix(1,0,0,1,-45,-196)" stroke-linecap="butt">
      <path fill="none" d="M334.6475 547.2733 L357.0755 547.2733 L359.5675 565.0733 L337.1395 565.0733 Z" fill-rule="evenodd" clip-path="url(#clipPath2)"/>
      <text x="338.4552" font-size="8px" y="558.9429" clip-path="url(#clipPath2)" font-family="sans-serif" stroke="none" xml:space="preserve">step</text>
    </g>
    <g fill="rgb(255,203,229)" text-rendering="geometricPrecision" shape-rendering="geometricPrecision" transform="matrix(1,0,0,1,-45,-196)" stroke="rgb(255,203,229)">
      <path d="M60.9375 496.29 L157.2375 496.29 L167.9375 518.79 L157.2375 541.29 L60.9375 541.29 L71.6375 518.79 Z" fill-rule="evenodd" clip-path="url(#clipPath2)" stroke="none"/>
    </g>
    <g text-rendering="geometricPrecision" stroke-miterlimit="1.45" shape-rendering="geometricPrecision" transform="matrix(1,0,0,1,-45,-196)" stroke-linecap="butt">
      <path fill="none" d="M60.9375 496.29 L157.2375 496.29 L167.9375 518.79 L157.2375 541.29 L60.9375 541.29 L71.6375 518.79 Z" fill-rule="evenodd" clip-path="url(#clipPath2)"/>
    </g>
    <g fill="rgb(255,203,229)" text-rendering="geometricPrecision" shape-rendering="geometricPrecision" transform="matrix(1,0,0,1,-45,-196)" stroke="rgb(255,203,229)">
      <path d="M67.9375 501.9567 L164.2375 501.9567 L174.9375 524.4567 L164.2375 546.9567 L67.9375 546.9567 L78.6375 524.4567 Z" fill-rule="evenodd" clip-path="url(#clipPath2)" stroke="none"/>
    </g>
    <g text-rendering="geometricPrecision" stroke-miterlimit="1.45" shape-rendering="geometricPrecision" transform="matrix(1,0,0,1,-45,-196)" stroke-linecap="butt">
      <path fill="none" d="M67.9375 501.9567 L164.2375 501.9567 L174.9375 524.4567 L164.2375 546.9567 L67.9375 546.9567 L78.6375 524.4567 Z" fill-rule="evenodd" clip-path="url(#clipPath2)"/>
    </g>
    <g fill="rgb(255,203,229)" text-rendering="geometricPrecision" shape-rendering="geometricPrecision" transform="matrix(1,0,0,1,-45,-196)" stroke="rgb(255,203,229)">
      <path d="M75.9375 507.6233 L172.2375 507.6233 L182.9375 530.1234 L172.2375 552.6234 L75.9375 552.6234 L86.6375 530.1234 Z" fill-rule="evenodd" clip-path="url(#clipPath2)" stroke="none"/>
    </g>
    <g text-rendering="geometricPrecision" stroke-miterlimit="1.45" shape-rendering="geometricPrecision" transform="matrix(1,0,0,1,-45,-196)" stroke-linecap="butt">
      <path fill="none" d="M75.9375 507.6233 L172.2375 507.6233 L182.9375 530.1234 L172.2375 552.6234 L75.9375 552.6234 L86.6375 530.1234 Z" fill-rule="evenodd" clip-path="url(#clipPath2)"/>
    </g>
    <g fill="rgb(255,203,229)" text-rendering="geometricPrecision" shape-rendering="geometricPrecision" transform="matrix(1,0,0,1,-45,-196)" stroke="rgb(255,203,229)">
      <path d="M86.9375 513.29 L183.2375 513.29 L193.9375 535.79 L183.2375 558.29 L86.9375 558.29 L97.6375 535.79 Z" fill-rule="evenodd" clip-path="url(#clipPath2)" stroke="none"/>
    </g>
    <g text-rendering="geometricPrecision" stroke-miterlimit="1.45" shape-rendering="geometricPrecision" transform="matrix(1,0,0,1,-45,-196)" stroke-linecap="butt">
      <path fill="none" d="M86.9375 513.29 L183.2375 513.29 L193.9375 535.79 L183.2375 558.29 L86.9375 558.29 L97.6375 535.79 Z" fill-rule="evenodd" clip-path="url(#clipPath2)"/>
      <text x="97.0137" xml:space="preserve" y="530.4286" clip-path="url(#clipPath2)" font-family="sans-serif" stroke="none">ViewDefinition</text>
    </g>
    <g fill="rgb(216,216,255)" text-rendering="geometricPrecision" shape-rendering="geometricPrecision" transform="matrix(1,0,0,1,-45,-196)" stroke="rgb(216,216,255)">
      <path d="M105.9375 535.29 L185.1375 535.29 L193.9375 565.29 L114.7375 565.29 Z" fill-rule="evenodd" clip-path="url(#clipPath2)" stroke="none"/>
    </g>
    <g text-rendering="geometricPrecision" stroke-miterlimit="1.45" shape-rendering="geometricPrecision" transform="matrix(1,0,0,1,-45,-196)" stroke-linecap="butt">
      <path fill="none" d="M105.9375 535.29 L185.1375 535.29 L193.9375 565.29 L114.7375 565.29 Z" fill-rule="evenodd" clip-path="url(#clipPath2)"/>
      <text x="120.582" xml:space="preserve" y="547.4599" clip-path="url(#clipPath2)" font-family="sans-serif" stroke="none">extension</text>
      <text x="144.4619" xml:space="preserve" y="561.4286" clip-path="url(#clipPath2)" font-family="sans-serif" stroke="none">id</text>
    </g>
    <g fill="rgb(255,203,229)" text-rendering="geometricPrecision" shape-rendering="geometricPrecision" transform="matrix(1,0,0,1,-45,-196)" stroke="rgb(255,203,229)">
      <path d="M67.9375 438.29 L164.2375 438.29 L174.9375 460.79 L164.2375 483.29 L67.9375 483.29 L78.6375 460.79 Z" fill-rule="evenodd" clip-path="url(#clipPath2)" stroke="none"/>
    </g>
    <g text-rendering="geometricPrecision" stroke-miterlimit="1.45" shape-rendering="geometricPrecision" transform="matrix(1,0,0,1,-45,-196)" stroke-linecap="butt">
      <path fill="none" d="M67.9375 438.29 L164.2375 438.29 L174.9375 460.79 L164.2375 483.29 L67.9375 483.29 L78.6375 460.79 Z" fill-rule="evenodd" clip-path="url(#clipPath2)"/>
      <text x="78.0137" xml:space="preserve" y="457.9599" clip-path="url(#clipPath2)" font-family="sans-serif" stroke="none">ViewDefinition</text>
      <text x="78.7256" xml:space="preserve" y="471.9287" clip-path="url(#clipPath2)" font-family="sans-serif" stroke="none">(main canvas)</text>
      <path fill="none" d="M374.6412 306.7188 L374.6412 271.2397" clip-path="url(#clipPath2)"/>
      <path d="M374.6412 263.2397 L369.6412 275.2397 L374.6412 272.2397 L379.6412 275.2397 Z" clip-path="url(#clipPath2)" stroke="none"/>
      <rect x="358.3914" y="280.6406" clip-path="url(#clipPath2)" fill="white" width="31.4922" height="17.9688" stroke="none"/>
      <text x="360.3914" xml:space="preserve" y="293.7793" clip-path="url(#clipPath2)" font-family="sans-serif" stroke="none">uses</text>
      <path fill="none" d="M420.6092 237.2067 L522.5475 237.2067 L522.5475 483.5733 L478.3925 483.5733" clip-path="url(#clipPath2)"/>
      <path d="M470.3925 483.5733 L482.3925 488.5733 L479.3925 483.5733 L482.3925 478.5733 Z" clip-path="url(#clipPath2)" stroke="none"/>
      <path fill="none" d="M420.6092 237.2067 L522.5475 237.2067 L522.5475 519.8734 L478.3925 519.8734" clip-path="url(#clipPath2)"/>
      <path d="M470.3925 519.8734 L482.3925 524.8734 L479.3925 519.8734 L482.3925 514.8734 Z" clip-path="url(#clipPath2)" stroke="none"/>
      <path fill="none" d="M420.6092 237.2067 L522.5475 237.2067 L522.5475 556.1733 L478.3925 556.1733" clip-path="url(#clipPath2)"/>
      <path d="M470.3925 556.1733 L482.3925 561.1733 L479.3925 556.1733 L482.3925 551.1733 Z" clip-path="url(#clipPath2)" stroke="none"/>
      <rect x="437.8827" y="228.2223" clip-path="url(#clipPath2)" fill="white" width="29.6465" height="17.9688" stroke="none"/>
      <text x="439.8827" xml:space="preserve" y="241.361" clip-path="url(#clipPath2)" font-family="sans-serif" stroke="none">load</text>
      <path fill="none" stroke-dasharray="4,3,0,3" d="M314.6475 510.9673 L314.6475 500.6333 L387.3475 500.6333 L387.3475 483.5733 L400.5598 483.5733" clip-path="url(#clipPath2)" stroke-linecap="round"/>
      <path fill="none" d="M325.9016 519.8734 L346.8973 519.8734" clip-path="url(#clipPath2)"/>
      <path fill="none" stroke-dasharray="4,3,0,3" d="M369.3536 519.8734 L400.5834 519.8734" clip-path="url(#clipPath2)" stroke-linecap="round"/>
      <path fill="none" stroke-dasharray="4,3,0,3" d="M358.2854 556.1733 L400.6224 556.1733" clip-path="url(#clipPath2)" stroke-linecap="round"/>
      <path fill="none" stroke-dasharray="4,3,0,3" d="M149.9375 565.278 L149.9375 609.4333 L435.4949 609.4333 L435.4949 568.6821" clip-path="url(#clipPath2)" stroke-linecap="round"/>
      <path fill="none" stroke-dasharray="4,3,0,3" d="M174.9615 460.79 L218.875 460.79 L218.875 519.8734 L283.5699 519.8734" clip-path="url(#clipPath2)" stroke-linecap="round"/>
    </g>
  </g>
</svg>
