<?xml version="1.0" encoding="UTF-8"?><svg xmlns="http://www.w3.org/2000/svg" xmlns:xlink="http://www.w3.org/1999/xlink" fill-opacity="1" color-rendering="auto" color-interpolation="auto" text-rendering="auto" stroke="black" stroke-linecap="square" width="677" stroke-miterlimit="10" shape-rendering="auto" stroke-opacity="1" fill="black" stroke-dasharray="none" font-weight="normal" stroke-width="1" height="429" font-family="'Dialog'" font-style="normal" stroke-linejoin="miter" font-size="12px" stroke-dashoffset="0" image-rendering="auto">
  <!--Generated by ySVG 2.5-->
  <defs id="genericDefs"/>
  <g>
    <defs id="defs1">
      <linearGradient x1="661.8333" gradientUnits="userSpaceOnUse" x2="786.5" y1="121.3333" y2="121.3333" id="linearGradient1" spreadMethod="reflect">
        <stop stop-opacity="1" stop-color="rgb(255,0,128)" offset="0%"/>
        <stop stop-opacity="1" stop-color="blue" offset="100%"/>
      </linearGradient>
      <linearGradient x1="663.8333" gradientUnits="userSpaceOnUse" x2="788.5" y1="308.1667" y2="308.1667" id="linearGradient2" spreadMethod="reflect">
        <stop stop-opacity="1" stop-color="rgb(255,0,128)" offset="0%"/>
        <stop stop-opacity="1" stop-color="blue" offset="100%"/>
      </linearGradient>
      <linearGradient x1="906.4537" gradientUnits="userSpaceOnUse" x2="1060.4537" y1="217.6" y2="217.6" id="linearGradient3" spreadMethod="reflect">
        <stop stop-opacity="1" stop-color="blue" offset="0%"/>
        <stop stop-opacity="1" stop-color="blue" offset="100%"/>
      </linearGradient>
      <linearGradient x1="929.6204" gradientUnits="userSpaceOnUse" x2="990.9537" y1="121.3333" y2="121.3333" id="linearGradient4" spreadMethod="reflect">
        <stop stop-opacity="1" stop-color="rgb(209,97,162)" offset="0%"/>
        <stop stop-opacity="1" stop-color="rgb(162,1,96)" offset="100%"/>
      </linearGradient>
      <linearGradient x1="911.087" gradientUnits="userSpaceOnUse" x2="1046.5537" y1="240.6" y2="240.6" id="linearGradient5" spreadMethod="reflect">
        <stop stop-opacity="1" stop-color="rgb(163,73,164)" offset="0%"/>
        <stop stop-opacity="1" stop-color="blue" offset="100%"/>
      </linearGradient>
      <linearGradient x1="911.087" gradientUnits="userSpaceOnUse" x2="1046.5537" y1="360.1667" y2="360.1667" id="linearGradient6" spreadMethod="reflect">
        <stop stop-opacity="1" stop-color="rgb(163,73,164)" offset="0%"/>
        <stop stop-opacity="1" stop-color="blue" offset="100%"/>
      </linearGradient>
      <linearGradient x1="911.087" gradientUnits="userSpaceOnUse" x2="1046.5537" y1="323.8" y2="323.8" id="linearGradient7" spreadMethod="reflect">
        <stop stop-opacity="1" stop-color="rgb(163,73,164)" offset="0%"/>
        <stop stop-opacity="1" stop-color="blue" offset="100%"/>
      </linearGradient>
      <linearGradient x1="891.5204" gradientUnits="userSpaceOnUse" x2="966.8537" y1="381.2" y2="381.2" id="linearGradient8" spreadMethod="reflect">
        <stop stop-opacity="1" stop-color="rgb(163,73,164)" offset="0%"/>
        <stop stop-opacity="1" stop-color="rgb(163,73,164)" offset="100%"/>
      </linearGradient>
      <linearGradient x1="994.1741" gradientUnits="userSpaceOnUse" x2="1040.7074" y1="381.2" y2="381.2" id="linearGradient9" spreadMethod="reflect">
        <stop stop-opacity="1" stop-color="rgb(163,73,164)" offset="0%"/>
        <stop stop-opacity="1" stop-color="rgb(163,73,164)" offset="100%"/>
      </linearGradient>
      <linearGradient x1="994.1741" gradientUnits="userSpaceOnUse" x2="1040.7074" y1="417.5" y2="417.5" id="linearGradient10" spreadMethod="reflect">
        <stop stop-opacity="1" stop-color="rgb(163,73,164)" offset="0%"/>
        <stop stop-opacity="1" stop-color="rgb(163,73,164)" offset="100%"/>
      </linearGradient>
      <linearGradient x1="994.1741" gradientUnits="userSpaceOnUse" x2="1040.7074" y1="453.8" y2="453.8" id="linearGradient11" spreadMethod="reflect">
        <stop stop-opacity="1" stop-color="rgb(163,73,164)" offset="0%"/>
        <stop stop-opacity="1" stop-color="rgb(163,73,164)" offset="100%"/>
      </linearGradient>
      <linearGradient x1="916.1382" gradientUnits="userSpaceOnUse" x2="1040.7074" y1="262.5667" y2="262.5667" id="linearGradient12" spreadMethod="reflect">
        <stop stop-opacity="1" stop-color="rgb(163,73,164)" offset="0%"/>
        <stop stop-opacity="1" stop-color="rgb(163,73,164)" offset="100%"/>
      </linearGradient>
      <linearGradient x1="480.8" gradientUnits="userSpaceOnUse" x2="525" y1="149.5" y2="149.5" id="linearGradient13" spreadMethod="reflect">
        <stop stop-opacity="1" stop-color="rgb(163,73,164)" offset="0%"/>
        <stop stop-opacity="1" stop-color="rgb(255,0,128)" offset="100%"/>
      </linearGradient>
      <linearGradient x1="484.5333" gradientUnits="userSpaceOnUse" x2="518" y1="182.2982" y2="182.2982" id="linearGradient14" spreadMethod="reflect">
        <stop stop-opacity="1" stop-color="rgb(163,73,164)" offset="0%"/>
        <stop stop-opacity="1" stop-color="blue" offset="100%"/>
      </linearGradient>
      <linearGradient x1="483.4833" gradientUnits="userSpaceOnUse" x2="516.95" y1="285.1964" y2="285.1964" id="linearGradient15" spreadMethod="reflect">
        <stop stop-opacity="1" stop-color="rgb(163,73,164)" offset="0%"/>
        <stop stop-opacity="1" stop-color="blue" offset="100%"/>
      </linearGradient>
      <linearGradient x1="483.4833" gradientUnits="userSpaceOnUse" x2="516.95" y1="388.0945" y2="388.0945" id="linearGradient16" spreadMethod="reflect">
        <stop stop-opacity="1" stop-color="rgb(163,73,164)" offset="0%"/>
        <stop stop-opacity="1" stop-color="blue" offset="100%"/>
      </linearGradient>
      <clipPath clipPathUnits="userSpaceOnUse" id="clipPath1">
        <path d="M0 0 L677 0 L677 429 L0 429 L0 0 Z"/>
      </clipPath>
      <clipPath clipPathUnits="userSpaceOnUse" id="clipPath2">
        <path d="M431 106 L1108 106 L1108 535 L431 535 L431 106 Z"/>
      </clipPath>
    </defs>
    <g fill="url(#linearGradient1)" text-rendering="geometricPrecision" shape-rendering="geometricPrecision" transform="matrix(1,0,0,1,-431,-106)" stroke="url(#linearGradient1)">
      <rect x="599.5" width="187" height="100.6667" y="121.3333" clip-path="url(#clipPath2)" stroke="none"/>
    </g>
    <g fill="rgb(255,0,182)" text-rendering="geometricPrecision" shape-rendering="geometricPrecision" transform="matrix(1,0,0,1,-431,-106)" stroke="rgb(255,0,182)">
      <rect x="599.5" width="1" height="100.6667" y="121.3333" clip-path="url(#clipPath2)" stroke="none"/>
      <rect x="600.5" width="185" height="1" y="121.3333" clip-path="url(#clipPath2)" stroke="none"/>
      <rect x="600.5" y="221" clip-path="url(#clipPath2)" fill="rgb(178,0,89)" width="186" height="1" stroke="none"/>
      <rect x="785.5" y="121.3333" clip-path="url(#clipPath2)" fill="rgb(178,0,89)" width="1" height="99.6667" stroke="none"/>
      <rect x="601.5" y="308.1667" clip-path="url(#clipPath2)" fill="url(#linearGradient2)" width="187" height="190.0667" stroke="none"/>
      <rect x="601.5" width="1" height="190.0667" y="308.1667" clip-path="url(#clipPath2)" stroke="none"/>
      <rect x="602.5" width="185" height="1" y="308.1667" clip-path="url(#clipPath2)" stroke="none"/>
      <rect x="602.5" y="497.2333" clip-path="url(#clipPath2)" fill="rgb(178,0,89)" width="186" height="1" stroke="none"/>
      <rect x="787.5" y="308.1667" clip-path="url(#clipPath2)" fill="rgb(178,0,89)" width="1" height="189.0667" stroke="none"/>
      <rect x="446" y="121.3333" clip-path="url(#clipPath2)" fill="rgb(255,0,128)" width="88" height="376.9" stroke="none"/>
      <rect x="446" width="1" height="376.9" y="121.3333" clip-path="url(#clipPath2)" stroke="none"/>
      <rect x="447" width="86" height="1" y="121.3333" clip-path="url(#clipPath2)" stroke="none"/>
      <rect x="447" y="497.2333" clip-path="url(#clipPath2)" fill="rgb(178,0,89)" width="87" height="1" stroke="none"/>
      <rect x="533" y="121.3333" clip-path="url(#clipPath2)" fill="rgb(178,0,89)" width="1" height="375.9" stroke="none"/>
    </g>
    <g stroke-linecap="butt" transform="matrix(1,0,0,1,-431,-106)" text-rendering="geometricPrecision" font-family="sans-serif" shape-rendering="geometricPrecision" font-weight="bold" stroke-miterlimit="1.45">
      <text x="452" xml:space="preserve" y="138.472" clip-path="url(#clipPath2)" stroke="none">Backend</text>
    </g>
    <g fill="rgb(255,153,255)" text-rendering="geometricPrecision" shape-rendering="geometricPrecision" transform="matrix(1,0,0,1,-431,-106)" stroke="rgb(255,153,255)">
      <path d="M634.75 407.1667 L731.05 407.1667 L741.75 429.6667 L731.05 452.1667 L634.75 452.1667 L645.45 429.6667 Z" fill-rule="evenodd" clip-path="url(#clipPath2)" stroke="none"/>
    </g>
    <g text-rendering="geometricPrecision" stroke-miterlimit="1.45" shape-rendering="geometricPrecision" transform="matrix(1,0,0,1,-431,-106)" stroke-linecap="butt">
      <path fill="none" d="M634.75 407.1667 L731.05 407.1667 L741.75 429.6667 L731.05 452.1667 L634.75 452.1667 L645.45 429.6667 Z" fill-rule="evenodd" clip-path="url(#clipPath2)"/>
    </g>
    <g fill="rgb(255,153,255)" text-rendering="geometricPrecision" shape-rendering="geometricPrecision" transform="matrix(1,0,0,1,-431,-106)" stroke="rgb(255,153,255)">
      <path d="M641.75 412.8333 L738.05 412.8333 L748.75 435.3333 L738.05 457.8333 L641.75 457.8333 L652.45 435.3333 Z" fill-rule="evenodd" clip-path="url(#clipPath2)" stroke="none"/>
    </g>
    <g text-rendering="geometricPrecision" stroke-miterlimit="1.45" shape-rendering="geometricPrecision" transform="matrix(1,0,0,1,-431,-106)" stroke-linecap="butt">
      <path fill="none" d="M641.75 412.8333 L738.05 412.8333 L748.75 435.3333 L738.05 457.8333 L641.75 457.8333 L652.45 435.3333 Z" fill-rule="evenodd" clip-path="url(#clipPath2)"/>
    </g>
    <g fill="rgb(255,153,255)" text-rendering="geometricPrecision" shape-rendering="geometricPrecision" transform="matrix(1,0,0,1,-431,-106)" stroke="rgb(255,153,255)">
      <path d="M649.75 418.5 L746.05 418.5 L756.75 441 L746.05 463.5 L649.75 463.5 L660.45 441 Z" fill-rule="evenodd" clip-path="url(#clipPath2)" stroke="none"/>
    </g>
    <g text-rendering="geometricPrecision" stroke-miterlimit="1.45" shape-rendering="geometricPrecision" transform="matrix(1,0,0,1,-431,-106)" stroke-linecap="butt">
      <path fill="none" d="M649.75 418.5 L746.05 418.5 L756.75 441 L746.05 463.5 L649.75 463.5 L660.45 441 Z" fill-rule="evenodd" clip-path="url(#clipPath2)"/>
    </g>
    <g fill="rgb(255,153,255)" text-rendering="geometricPrecision" shape-rendering="geometricPrecision" transform="matrix(1,0,0,1,-431,-106)" stroke="rgb(255,153,255)">
      <path d="M660.75 424.1667 L757.05 424.1667 L767.75 446.6667 L757.05 469.1667 L660.75 469.1667 L671.45 446.6667 Z" fill-rule="evenodd" clip-path="url(#clipPath2)" stroke="none"/>
    </g>
    <g text-rendering="geometricPrecision" stroke-miterlimit="1.45" shape-rendering="geometricPrecision" transform="matrix(1,0,0,1,-431,-106)" stroke-linecap="butt">
      <path fill="none" d="M660.75 424.1667 L757.05 424.1667 L767.75 446.6667 L757.05 469.1667 L660.75 469.1667 L671.45 446.6667 Z" fill-rule="evenodd" clip-path="url(#clipPath2)"/>
      <text x="670.8262" xml:space="preserve" y="441.3053" clip-path="url(#clipPath2)" font-family="sans-serif" stroke="none">ViewDefinition</text>
    </g>
    <g fill="url(#linearGradient3)" text-rendering="geometricPrecision" shape-rendering="geometricPrecision" transform="matrix(1,0,0,1,-431,-106)" stroke="url(#linearGradient3)">
      <rect x="829.4537" width="231" height="280.6333" y="217.6" clip-path="url(#clipPath2)" stroke="none"/>
      <rect x="829.4537" y="217.6" clip-path="url(#clipPath2)" fill="blue" width="1" height="280.6333" stroke="none"/>
      <rect x="830.4537" y="217.6" clip-path="url(#clipPath2)" fill="blue" width="229" height="1" stroke="none"/>
      <rect x="830.4537" y="497.2333" clip-path="url(#clipPath2)" fill="rgb(0,0,178)" width="230" height="1" stroke="none"/>
      <rect x="1059.4537" y="217.6" clip-path="url(#clipPath2)" fill="rgb(0,0,178)" width="1" height="279.6333" stroke="none"/>
    </g>
    <g stroke-linecap="butt" transform="matrix(1,0,0,1,-431,-106)" text-rendering="geometricPrecision" font-family="sans-serif" shape-rendering="geometricPrecision" font-weight="bold" stroke-miterlimit="1.45">
      <text x="988.3658" xml:space="preserve" y="234.7387" clip-path="url(#clipPath2)" stroke="none">Frontend </text>
    </g>
    <g fill="rgb(153,204,0)" text-rendering="geometricPrecision" shape-rendering="geometricPrecision" transform="matrix(1,0,0,1,-431,-106)" stroke="rgb(153,204,0)">
      <path d="M647.8 143.6667 L749.5 143.6667 L738.2 199.6667 L636.5 199.6667 Z" fill-rule="evenodd" clip-path="url(#clipPath2)" stroke="none"/>
    </g>
    <g text-rendering="geometricPrecision" stroke-miterlimit="1.45" shape-rendering="geometricPrecision" transform="matrix(1,0,0,1,-431,-106)" stroke-linecap="butt">
      <path fill="none" d="M647.8 143.6667 L749.5 143.6667 L738.2 199.6667 L636.5 199.6667 Z" fill-rule="evenodd" clip-path="url(#clipPath2)"/>
      <text x="652.9541" xml:space="preserve" y="160.8053" clip-path="url(#clipPath2)" font-family="sans-serif" stroke="none">orchestration</text>
    </g>
    <g fill="rgb(204,153,255)" text-rendering="geometricPrecision" shape-rendering="geometricPrecision" transform="matrix(1,0,0,1,-431,-106)" stroke="rgb(204,153,255)">
      <path d="M669.5 164.6667 L701 164.6667 L704.5 189.6667 L673 189.6667 Z" fill-rule="evenodd" clip-path="url(#clipPath2)" stroke="none"/>
    </g>
    <g text-rendering="geometricPrecision" stroke-miterlimit="1.45" shape-rendering="geometricPrecision" transform="matrix(1,0,0,1,-431,-106)" stroke-linecap="butt">
      <path fill="none" d="M669.5 164.6667 L701 164.6667 L704.5 189.6667 L673 189.6667 Z" fill-rule="evenodd" clip-path="url(#clipPath2)"/>
    </g>
    <g fill="rgb(204,153,255)" text-rendering="geometricPrecision" shape-rendering="geometricPrecision" transform="matrix(1,0,0,1,-431,-106)" stroke="rgb(204,153,255)">
      <path d="M675.5 167.6667 L707 167.6667 L710.5 192.6667 L679 192.6667 Z" fill-rule="evenodd" clip-path="url(#clipPath2)" stroke="none"/>
    </g>
    <g text-rendering="geometricPrecision" stroke-miterlimit="1.45" shape-rendering="geometricPrecision" transform="matrix(1,0,0,1,-431,-106)" stroke-linecap="butt">
      <path fill="none" d="M675.5 167.6667 L707 167.6667 L710.5 192.6667 L679 192.6667 Z" fill-rule="evenodd" clip-path="url(#clipPath2)"/>
    </g>
    <g fill="rgb(204,153,255)" text-rendering="geometricPrecision" shape-rendering="geometricPrecision" transform="matrix(1,0,0,1,-431,-106)" stroke="rgb(204,153,255)">
      <path d="M681.5 170.6667 L713 170.6667 L716.5 195.6667 L685 195.6667 Z" fill-rule="evenodd" clip-path="url(#clipPath2)" stroke="none"/>
    </g>
    <g text-rendering="geometricPrecision" stroke-miterlimit="1.45" shape-rendering="geometricPrecision" transform="matrix(1,0,0,1,-431,-106)" stroke-linecap="butt">
      <path fill="none" d="M681.5 170.6667 L713 170.6667 L716.5 195.6667 L685 195.6667 Z" fill-rule="evenodd" clip-path="url(#clipPath2)"/>
      <text x="686.0215" xml:space="preserve" y="187.321" clip-path="url(#clipPath2)" font-family="sans-serif" stroke="none">step</text>
    </g>
    <g fill="rgb(153,204,0)" text-rendering="geometricPrecision" shape-rendering="geometricPrecision" transform="matrix(1,0,0,1,-431,-106)" stroke="rgb(153,204,0)">
      <path d="M652.05 325.1667 L753.75 325.1667 L742.45 381.1667 L640.75 381.1667 Z" fill-rule="evenodd" clip-path="url(#clipPath2)" stroke="none"/>
    </g>
    <g text-rendering="geometricPrecision" stroke-miterlimit="1.45" shape-rendering="geometricPrecision" transform="matrix(1,0,0,1,-431,-106)" stroke-linecap="butt">
      <path fill="none" d="M652.05 325.1667 L753.75 325.1667 L742.45 381.1667 L640.75 381.1667 Z" fill-rule="evenodd" clip-path="url(#clipPath2)"/>
      <text x="657.2041" xml:space="preserve" y="342.3053" clip-path="url(#clipPath2)" font-family="sans-serif" stroke="none">orchestration</text>
    </g>
    <g fill="rgb(204,153,255)" text-rendering="geometricPrecision" shape-rendering="geometricPrecision" transform="matrix(1,0,0,1,-431,-106)" stroke="rgb(204,153,255)">
      <path d="M673.75 346.1667 L705.25 346.1667 L708.75 371.1667 L677.25 371.1667 Z" fill-rule="evenodd" clip-path="url(#clipPath2)" stroke="none"/>
    </g>
    <g text-rendering="geometricPrecision" stroke-miterlimit="1.45" shape-rendering="geometricPrecision" transform="matrix(1,0,0,1,-431,-106)" stroke-linecap="butt">
      <path fill="none" d="M673.75 346.1667 L705.25 346.1667 L708.75 371.1667 L677.25 371.1667 Z" fill-rule="evenodd" clip-path="url(#clipPath2)"/>
    </g>
    <g fill="rgb(204,153,255)" text-rendering="geometricPrecision" shape-rendering="geometricPrecision" transform="matrix(1,0,0,1,-431,-106)" stroke="rgb(204,153,255)">
      <path d="M679.75 349.1667 L711.25 349.1667 L714.75 374.1667 L683.25 374.1667 Z" fill-rule="evenodd" clip-path="url(#clipPath2)" stroke="none"/>
    </g>
    <g text-rendering="geometricPrecision" stroke-miterlimit="1.45" shape-rendering="geometricPrecision" transform="matrix(1,0,0,1,-431,-106)" stroke-linecap="butt">
      <path fill="none" d="M679.75 349.1667 L711.25 349.1667 L714.75 374.1667 L683.25 374.1667 Z" fill-rule="evenodd" clip-path="url(#clipPath2)"/>
    </g>
    <g fill="rgb(204,153,255)" text-rendering="geometricPrecision" shape-rendering="geometricPrecision" transform="matrix(1,0,0,1,-431,-106)" stroke="rgb(204,153,255)">
      <path d="M685.75 352.1667 L717.25 352.1667 L720.75 377.1667 L689.25 377.1667 Z" fill-rule="evenodd" clip-path="url(#clipPath2)" stroke="none"/>
    </g>
    <g text-rendering="geometricPrecision" stroke-miterlimit="1.45" shape-rendering="geometricPrecision" transform="matrix(1,0,0,1,-431,-106)" stroke-linecap="butt">
      <path fill="none" d="M685.75 352.1667 L717.25 352.1667 L720.75 377.1667 L689.25 377.1667 Z" fill-rule="evenodd" clip-path="url(#clipPath2)"/>
      <text x="690.2715" xml:space="preserve" y="368.821" clip-path="url(#clipPath2)" font-family="sans-serif" stroke="none">step</text>
    </g>
    <g fill="rgb(255,204,255)" text-rendering="geometricPrecision" shape-rendering="geometricPrecision" transform="matrix(1,0,0,1,-431,-106)" stroke="rgb(255,204,255)">
      <path d="M679.75 446.1667 L758.95 446.1667 L767.75 476.1667 L688.55 476.1667 Z" fill-rule="evenodd" clip-path="url(#clipPath2)" stroke="none"/>
    </g>
    <g text-rendering="geometricPrecision" stroke-miterlimit="1.45" shape-rendering="geometricPrecision" transform="matrix(1,0,0,1,-431,-106)" stroke-linecap="butt">
      <path fill="none" d="M679.75 446.1667 L758.95 446.1667 L767.75 476.1667 L688.55 476.1667 Z" fill-rule="evenodd" clip-path="url(#clipPath2)"/>
      <text x="694.3945" xml:space="preserve" y="458.3366" clip-path="url(#clipPath2)" font-family="sans-serif" stroke="none">extension</text>
      <text x="718.2744" xml:space="preserve" y="472.3053" clip-path="url(#clipPath2)" font-family="sans-serif" stroke="none">id</text>
    </g>
    <g fill="url(#linearGradient4)" text-rendering="geometricPrecision" shape-rendering="geometricPrecision" transform="matrix(1,0,0,1,-431,-106)" stroke="url(#linearGradient4)">
      <path d="M898.9537 147.3333 L908.1537 121.3333 L981.7537 121.3333 L990.9537 147.3333 L981.7537 173.3333 L908.1537 173.3333 Z" fill-rule="evenodd" clip-path="url(#clipPath2)" stroke="none"/>
    </g>
    <g text-rendering="geometricPrecision" stroke-miterlimit="1.45" shape-rendering="geometricPrecision" transform="matrix(1,0,0,1,-431,-106)" stroke-linecap="butt">
      <path fill="none" d="M898.9537 147.3333 L908.1537 121.3333 L981.7537 121.3333 L990.9537 147.3333 L981.7537 173.3333 L908.1537 173.3333 Z" fill-rule="evenodd" clip-path="url(#clipPath2)"/>
      <text x="915.4986" xml:space="preserve" y="144.5033" clip-path="url(#clipPath2)" font-family="sans-serif" stroke="none">Extension</text>
      <text x="921.9117" xml:space="preserve" y="158.472" clip-path="url(#clipPath2)" font-family="sans-serif" stroke="none">Catalog</text>
    </g>
    <g fill="url(#linearGradient5)" text-rendering="geometricPrecision" shape-rendering="geometricPrecision" transform="matrix(1,0,0,1,-431,-106)" stroke="url(#linearGradient5)">
      <rect x="843.3537" y="240.6" clip-path="url(#clipPath2)" width="203.2" rx="4" ry="4" height="77.5667" stroke="none"/>
    </g>
    <g text-rendering="geometricPrecision" stroke-miterlimit="1.45" shape-rendering="geometricPrecision" transform="matrix(1,0,0,1,-431,-106)" stroke-linecap="butt">
      <rect x="843.3537" y="240.6" clip-path="url(#clipPath2)" fill="none" width="203.2" rx="4" ry="4" height="77.5667"/>
      <text x="909.9293" xml:space="preserve" y="257.7387" clip-path="url(#clipPath2)" font-family="sans-serif" stroke="none">Code Editor</text>
    </g>
    <g fill="url(#linearGradient6)" text-rendering="geometricPrecision" shape-rendering="geometricPrecision" transform="matrix(1,0,0,1,-431,-106)" stroke="url(#linearGradient6)">
      <rect x="843.3537" y="360.1667" clip-path="url(#clipPath2)" width="203.2" rx="4" ry="4" height="124.4" stroke="none"/>
    </g>
    <g text-rendering="geometricPrecision" stroke-miterlimit="1.45" shape-rendering="geometricPrecision" transform="matrix(1,0,0,1,-431,-106)" stroke-linecap="butt">
      <rect x="843.3537" y="360.1667" clip-path="url(#clipPath2)" fill="none" width="203.2" rx="4" ry="4" height="124.4"/>
      <text x="907.2457" xml:space="preserve" y="377.3053" clip-path="url(#clipPath2)" font-family="sans-serif" stroke="none">Visual Editor</text>
    </g>
    <g fill="url(#linearGradient7)" text-rendering="geometricPrecision" shape-rendering="geometricPrecision" transform="matrix(1,0,0,1,-431,-106)" stroke="url(#linearGradient7)">
      <rect x="843.3537" y="323.8" clip-path="url(#clipPath2)" width="203.2" rx="4" ry="4" height="27.4" stroke="none"/>
    </g>
    <g text-rendering="geometricPrecision" stroke-miterlimit="1.45" shape-rendering="geometricPrecision" transform="matrix(1,0,0,1,-431,-106)" stroke-linecap="butt">
      <rect x="843.3537" y="323.8" clip-path="url(#clipPath2)" fill="none" width="203.2" rx="4" ry="4" height="27.4"/>
      <text x="906.3433" xml:space="preserve" y="340.9387" clip-path="url(#clipPath2)" font-family="sans-serif" stroke="none">Step Catalog</text>
    </g>
    <g fill="url(#linearGradient8)" text-rendering="geometricPrecision" shape-rendering="geometricPrecision" transform="matrix(1,0,0,1,-431,-106)" stroke="url(#linearGradient8)">
      <rect x="853.8537" y="381.2" clip-path="url(#clipPath2)" width="113" rx="4" ry="4" height="97.6" stroke="none"/>
    </g>
    <g text-rendering="geometricPrecision" stroke-miterlimit="1.45" shape-rendering="geometricPrecision" transform="matrix(1,0,0,1,-431,-106)" stroke-linecap="butt">
      <rect x="853.8537" y="381.2" clip-path="url(#clipPath2)" fill="none" width="113" rx="4" ry="4" height="97.6"/>
      <text x="872.9914" xml:space="preserve" y="404.5143" clip-path="url(#clipPath2)" font-family="sans-serif" stroke="none">Main canvas</text>
    </g>
    <g fill="url(#linearGradient9)" text-rendering="geometricPrecision" shape-rendering="geometricPrecision" transform="matrix(1,0,0,1,-431,-106)" stroke="url(#linearGradient9)">
      <rect x="970.9074" y="381.2" clip-path="url(#clipPath2)" width="69.8" rx="4" ry="4" height="25" stroke="none"/>
    </g>
    <g text-rendering="geometricPrecision" stroke-miterlimit="1.45" shape-rendering="geometricPrecision" transform="matrix(1,0,0,1,-431,-106)" stroke-linecap="butt">
      <rect x="970.9074" y="381.2" clip-path="url(#clipPath2)" fill="none" width="69.8" rx="4" ry="4" height="25"/>
      <text x="975.7918" font-size="8px" y="396.4695" clip-path="url(#clipPath2)" font-family="sans-serif" stroke="none" xml:space="preserve">Step Extension</text>
    </g>
    <g fill="url(#linearGradient10)" text-rendering="geometricPrecision" shape-rendering="geometricPrecision" transform="matrix(1,0,0,1,-431,-106)" stroke="url(#linearGradient10)">
      <rect x="970.9074" y="417.5" clip-path="url(#clipPath2)" width="69.8" rx="4" ry="4" height="25" stroke="none"/>
    </g>
    <g text-rendering="geometricPrecision" stroke-miterlimit="1.45" shape-rendering="geometricPrecision" transform="matrix(1,0,0,1,-431,-106)" stroke-linecap="butt">
      <rect x="970.9074" y="417.5" clip-path="url(#clipPath2)" fill="none" width="69.8" rx="4" ry="4" height="25"/>
      <text x="975.7918" font-size="8px" y="432.7695" clip-path="url(#clipPath2)" font-family="sans-serif" stroke="none" xml:space="preserve">Step Extension</text>
    </g>
    <g fill="url(#linearGradient11)" text-rendering="geometricPrecision" shape-rendering="geometricPrecision" transform="matrix(1,0,0,1,-431,-106)" stroke="url(#linearGradient11)">
      <rect x="970.9074" y="453.8" clip-path="url(#clipPath2)" width="69.8" rx="4" ry="4" height="25" stroke="none"/>
    </g>
    <g text-rendering="geometricPrecision" stroke-miterlimit="1.45" shape-rendering="geometricPrecision" transform="matrix(1,0,0,1,-431,-106)" stroke-linecap="butt">
      <rect x="970.9074" y="453.8" clip-path="url(#clipPath2)" fill="none" width="69.8" rx="4" ry="4" height="25"/>
      <text x="975.7918" font-size="8px" y="469.0695" clip-path="url(#clipPath2)" font-family="sans-serif" stroke="none" xml:space="preserve">Step Extension</text>
    </g>
    <g fill="url(#linearGradient12)" text-rendering="geometricPrecision" shape-rendering="geometricPrecision" transform="matrix(1,0,0,1,-431,-106)" stroke="url(#linearGradient12)">
      <rect x="853.8537" y="262.5667" clip-path="url(#clipPath2)" width="186.8537" rx="4" ry="4" height="45" stroke="none"/>
    </g>
    <g text-rendering="geometricPrecision" stroke-miterlimit="1.45" shape-rendering="geometricPrecision" transform="matrix(1,0,0,1,-431,-106)" stroke-linecap="butt">
      <rect x="853.8537" y="262.5667" clip-path="url(#clipPath2)" fill="none" width="186.8537" rx="4" ry="4" height="45"/>
      <text x="867.221" xml:space="preserve" y="289.221" clip-path="url(#clipPath2)" font-family="sans-serif" stroke="none">Domain Specific Language</text>
    </g>
    <g fill="rgb(204,153,255)" text-rendering="geometricPrecision" shape-rendering="geometricPrecision" transform="matrix(1,0,0,1,-431,-106)" stroke="rgb(204,153,255)">
      <path d="M872.5 421.1 L894.928 421.1 L897.42 438.9 L874.992 438.9 Z" fill-rule="evenodd" clip-path="url(#clipPath2)" stroke="none"/>
    </g>
    <g text-rendering="geometricPrecision" stroke-miterlimit="1.45" shape-rendering="geometricPrecision" transform="matrix(1,0,0,1,-431,-106)" stroke-linecap="butt">
      <path fill="none" d="M872.5 421.1 L894.928 421.1 L897.42 438.9 L874.992 438.9 Z" fill-rule="evenodd" clip-path="url(#clipPath2)"/>
      <text x="876.3077" font-size="8px" y="432.7695" clip-path="url(#clipPath2)" font-family="sans-serif" stroke="none" xml:space="preserve">step</text>
    </g>
    <g fill="rgb(204,153,255)" text-rendering="geometricPrecision" shape-rendering="geometricPrecision" transform="matrix(1,0,0,1,-431,-106)" stroke="rgb(204,153,255)">
      <path d="M915.9874 421.1 L938.4154 421.1 L940.9074 438.9 L918.4794 438.9 Z" fill-rule="evenodd" clip-path="url(#clipPath2)" stroke="none"/>
    </g>
    <g text-rendering="geometricPrecision" stroke-miterlimit="1.45" shape-rendering="geometricPrecision" transform="matrix(1,0,0,1,-431,-106)" stroke-linecap="butt">
      <path fill="none" d="M915.9874 421.1 L938.4154 421.1 L940.9074 438.9 L918.4794 438.9 Z" fill-rule="evenodd" clip-path="url(#clipPath2)"/>
      <text x="919.795" font-size="8px" y="432.7695" clip-path="url(#clipPath2)" font-family="sans-serif" stroke="none" xml:space="preserve">step</text>
    </g>
    <g fill="rgb(204,153,255)" text-rendering="geometricPrecision" shape-rendering="geometricPrecision" transform="matrix(1,0,0,1,-431,-106)" stroke="rgb(204,153,255)">
      <path d="M904.96 457.4 L927.388 457.4 L929.88 475.2 L907.452 475.2 Z" fill-rule="evenodd" clip-path="url(#clipPath2)" stroke="none"/>
    </g>
    <g text-rendering="geometricPrecision" stroke-miterlimit="1.45" shape-rendering="geometricPrecision" transform="matrix(1,0,0,1,-431,-106)" stroke-linecap="butt">
      <path fill="none" d="M904.96 457.4 L927.388 457.4 L929.88 475.2 L907.452 475.2 Z" fill-rule="evenodd" clip-path="url(#clipPath2)"/>
      <text x="908.7676" font-size="8px" y="469.0695" clip-path="url(#clipPath2)" font-family="sans-serif" stroke="none" xml:space="preserve">step</text>
    </g>
    <g fill="url(#linearGradient13)" text-rendering="geometricPrecision" shape-rendering="geometricPrecision" transform="matrix(1,0,0,1,-431,-106)" stroke="url(#linearGradient13)">
      <rect x="458.7" y="149.5" clip-path="url(#clipPath2)" width="66.3" rx="4" ry="4" height="338.3333" stroke="none"/>
    </g>
    <g text-rendering="geometricPrecision" stroke-miterlimit="1.45" shape-rendering="geometricPrecision" transform="matrix(1,0,0,1,-431,-106)" stroke-linecap="butt">
      <rect x="458.7" y="149.5" clip-path="url(#clipPath2)" fill="none" width="66.3" rx="4" ry="4" height="338.3333"/>
      <text x="482.3578" xml:space="preserve" y="166.6387" clip-path="url(#clipPath2)" font-family="sans-serif" stroke="none">API</text>
    </g>
    <g fill="url(#linearGradient14)" text-rendering="geometricPrecision" shape-rendering="geometricPrecision" transform="matrix(1,0,0,1,-431,-106)" stroke="url(#linearGradient14)">
      <rect x="467.8" y="182.2982" clip-path="url(#clipPath2)" width="50.2" rx="4" ry="4" height="90.7333" stroke="none"/>
    </g>
    <g text-rendering="geometricPrecision" stroke-miterlimit="1.45" shape-rendering="geometricPrecision" transform="matrix(1,0,0,1,-431,-106)" stroke-linecap="butt">
      <rect x="467.8" y="182.2982" clip-path="url(#clipPath2)" fill="none" width="50.2" rx="4" ry="4" height="90.7333"/>
      <text x="476.3707" font-size="8px" y="230.4344" clip-path="url(#clipPath2)" font-family="sans-serif" stroke="none" xml:space="preserve">ViewDef</text>
    </g>
    <g fill="url(#linearGradient15)" text-rendering="geometricPrecision" shape-rendering="geometricPrecision" transform="matrix(1,0,0,1,-431,-106)" stroke="url(#linearGradient15)">
      <rect x="466.75" y="285.1964" clip-path="url(#clipPath2)" width="50.2" rx="4" ry="4" height="90.7333" stroke="none"/>
    </g>
    <g text-rendering="geometricPrecision" stroke-miterlimit="1.45" shape-rendering="geometricPrecision" transform="matrix(1,0,0,1,-431,-106)" stroke-linecap="butt">
      <rect x="466.75" y="285.1964" clip-path="url(#clipPath2)" fill="none" width="50.2" rx="4" ry="4" height="90.7333"/>
      <text x="480.6586" font-size="8px" y="333.3326" clip-path="url(#clipPath2)" font-family="sans-serif" stroke="none" xml:space="preserve">Steps</text>
    </g>
    <g fill="url(#linearGradient16)" text-rendering="geometricPrecision" shape-rendering="geometricPrecision" transform="matrix(1,0,0,1,-431,-106)" stroke="url(#linearGradient16)">
      <rect x="466.75" y="388.0945" clip-path="url(#clipPath2)" width="50.2" rx="4" ry="4" height="90.7333" stroke="none"/>
    </g>
    <g text-rendering="geometricPrecision" stroke-miterlimit="1.45" shape-rendering="geometricPrecision" transform="matrix(1,0,0,1,-431,-106)" stroke-linecap="butt">
      <rect x="466.75" y="388.0945" clip-path="url(#clipPath2)" fill="none" width="50.2" rx="4" ry="4" height="90.7333"/>
      <text x="467.725" font-size="8px" y="436.2307" clip-path="url(#clipPath2)" font-family="sans-serif" stroke="none" xml:space="preserve">Integrations</text>
      <path fill="none" stroke-dasharray="18,6" d="M534.0269 299.682 L819.4537 299.682" stroke-width="3" clip-path="url(#clipPath2)"/>
      <path stroke-dasharray="18,6" d="M829.4537 299.682 L814.4537 293.432 L818.2037 299.682 L814.4537 305.932 Z" stroke-width="3" clip-path="url(#clipPath2)" stroke="none"/>
      <path fill="none" stroke-dasharray="18,6" d="M829.3511 229.6676 L544.0269 229.6676" stroke-width="3" clip-path="url(#clipPath2)"/>
      <path stroke-dasharray="18,6" d="M534.0269 229.6676 L549.0269 235.9176 L545.2769 229.6676 L549.0269 223.4176 Z" stroke-width="3" clip-path="url(#clipPath2)" stroke="none"/>
      <path fill="none" d="M944.9537 217.5878 L944.9537 181.3014" clip-path="url(#clipPath2)"/>
      <path d="M944.9537 173.3014 L939.9537 185.3014 L944.9537 182.3014 L949.9537 185.3014 Z" clip-path="url(#clipPath2)" stroke="none"/>
      <rect x="929.2076" y="186.4823" clip-path="url(#clipPath2)" fill="white" width="31.4922" height="17.9688" stroke="none"/>
      <text x="931.2076" xml:space="preserve" y="199.621" clip-path="url(#clipPath2)" font-family="sans-serif" stroke="none">uses</text>
      <path fill="none" d="M990.9216 147.3333 L1092.86 147.3333 L1092.86 393.7 L1048.705 393.7" clip-path="url(#clipPath2)"/>
      <path d="M1040.705 393.7 L1052.705 398.7 L1049.705 393.7 L1052.705 388.7 Z" clip-path="url(#clipPath2)" stroke="none"/>
      <path fill="none" d="M990.9216 147.3333 L1092.86 147.3333 L1092.86 430 L1048.705 430" clip-path="url(#clipPath2)"/>
      <path d="M1040.705 430 L1052.705 435 L1049.705 430 L1052.705 425 Z" clip-path="url(#clipPath2)" stroke="none"/>
      <path fill="none" d="M990.9216 147.3333 L1092.86 147.3333 L1092.86 466.3 L1048.705 466.3" clip-path="url(#clipPath2)"/>
      <path d="M1040.705 466.3 L1052.705 471.3 L1049.705 466.3 L1052.705 461.3 Z" clip-path="url(#clipPath2)" stroke="none"/>
      <rect x="1008.1952" y="138.349" clip-path="url(#clipPath2)" fill="white" width="29.6465" height="17.9688" stroke="none"/>
      <text x="1010.1953" xml:space="preserve" y="151.4876" clip-path="url(#clipPath2)" font-family="sans-serif" stroke="none">load</text>
      <path fill="none" stroke-dasharray="4,3,0,3" d="M723.75 476.1927 L723.75 519.56 L1005.8074 519.56 L1005.8074 478.8088" clip-path="url(#clipPath2)" stroke-linecap="round"/>
      <path fill="none" stroke-dasharray="4,3,0,3" d="M884.96 421.094 L884.96 410.76 L957.66 410.76 L957.66 393.7 L970.8723 393.7" clip-path="url(#clipPath2)" stroke-linecap="round"/>
      <path fill="none" d="M896.2141 430 L917.2098 430" clip-path="url(#clipPath2)"/>
      <path fill="none" stroke-dasharray="4,3,0,3" d="M939.6661 430 L970.8959 430" clip-path="url(#clipPath2)" stroke-linecap="round"/>
      <path fill="none" stroke-dasharray="4,3,0,3" d="M928.5979 466.3 L970.9349 466.3" clip-path="url(#clipPath2)" stroke-linecap="round"/>
    </g>
  </g>
</svg>
