<?xml version="1.0" encoding="UTF-8"?><svg xmlns="http://www.w3.org/2000/svg" xmlns:xlink="http://www.w3.org/1999/xlink" fill-opacity="1" color-rendering="auto" color-interpolation="auto" text-rendering="auto" stroke="black" stroke-linecap="square" width="600" stroke-miterlimit="10" shape-rendering="auto" stroke-opacity="1" fill="black" stroke-dasharray="none" font-weight="normal" stroke-width="1" height="216" font-family="'Dialog'" font-style="normal" stroke-linejoin="miter" font-size="12px" stroke-dashoffset="0" image-rendering="auto">
  <!--Generated by ySVG 2.5-->
  <defs id="genericDefs"/>
  <g>
    <defs id="defs1">
      <linearGradient x1="620.8333" gradientUnits="userSpaceOnUse" x2="745.5" y1="121.3333" y2="121.3333" id="linearGradient1" spreadMethod="reflect">
        <stop stop-opacity="1" stop-color="rgb(255,81,168)" offset="0%"/>
        <stop stop-opacity="1" stop-color="rgb(142,142,255)" offset="100%"/>
      </linearGradient>
      <linearGradient x1="214.1667" gradientUnits="userSpaceOnUse" x2="289.5" y1="203.7343" y2="203.7343" id="linearGradient2" spreadMethod="reflect">
        <stop stop-opacity="1" stop-color="rgb(253,152,85)" offset="0%"/>
        <stop stop-opacity="1" stop-color="rgb(253,152,85)" offset="100%"/>
      </linearGradient>
      <linearGradient x1="365.9" gradientUnits="userSpaceOnUse" x2="458.7" y1="149.5" y2="149.5" id="linearGradient3" spreadMethod="reflect">
        <stop stop-opacity="1" stop-color="rgb(163,73,164)" offset="0%"/>
        <stop stop-opacity="1" stop-color="rgb(255,81,168)" offset="100%"/>
      </linearGradient>
      <linearGradient x1="369.4" gradientUnits="userSpaceOnUse" x2="448.2" y1="255.7343" y2="255.7343" id="linearGradient4" spreadMethod="reflect">
        <stop stop-opacity="1" stop-color="rgb(253,152,85)" offset="0%"/>
        <stop stop-opacity="1" stop-color="rgb(253,152,85)" offset="100%"/>
      </linearGradient>
      <linearGradient x1="369.4" gradientUnits="userSpaceOnUse" x2="448.2" y1="180.5" y2="180.5" id="linearGradient5" spreadMethod="reflect">
        <stop stop-opacity="1" stop-color="rgb(253,152,85)" offset="0%"/>
        <stop stop-opacity="1" stop-color="rgb(253,152,85)" offset="100%"/>
      </linearGradient>
      <linearGradient x1="369.4" gradientUnits="userSpaceOnUse" x2="448.2" y1="182.6692" y2="182.6692" id="linearGradient6" spreadMethod="reflect">
        <stop stop-opacity="1" stop-color="rgb(253,152,85)" offset="0%"/>
        <stop stop-opacity="1" stop-color="rgb(253,152,85)" offset="100%"/>
      </linearGradient>
      <linearGradient x1="369.4" gradientUnits="userSpaceOnUse" x2="448.2" y1="185.1491" y2="185.1491" id="linearGradient7" spreadMethod="reflect">
        <stop stop-opacity="1" stop-color="rgb(253,152,85)" offset="0%"/>
        <stop stop-opacity="1" stop-color="rgb(253,152,85)" offset="100%"/>
      </linearGradient>
      <linearGradient x1="480.8" gradientUnits="userSpaceOnUse" x2="525" y1="149.5" y2="149.5" id="linearGradient8" spreadMethod="reflect">
        <stop stop-opacity="1" stop-color="rgb(163,73,164)" offset="0%"/>
        <stop stop-opacity="1" stop-color="rgb(255,81,168)" offset="100%"/>
      </linearGradient>
      <linearGradient x1="484.5333" gradientUnits="userSpaceOnUse" x2="518" y1="182.2982" y2="182.2982" id="linearGradient9" spreadMethod="reflect">
        <stop stop-opacity="1" stop-color="rgb(253,152,85)" offset="0%"/>
        <stop stop-opacity="1" stop-color="rgb(253,152,85)" offset="100%"/>
      </linearGradient>
      <clipPath clipPathUnits="userSpaceOnUse" id="clipPath1">
        <path d="M0 0 L600 0 L600 216 L0 216 L0 0 Z"/>
      </clipPath>
      <clipPath clipPathUnits="userSpaceOnUse" id="clipPath2">
        <path d="M161 106 L761 106 L761 322 L161 322 L161 106 Z"/>
      </clipPath>
    </defs>
    <g fill="white" text-rendering="geometricPrecision" shape-rendering="geometricPrecision" transform="translate(-161,-106)" stroke="white">
      <rect x="161" width="600" height="216" y="106" clip-path="url(#clipPath2)" stroke="none"/>
    </g>
    <g fill="url(#linearGradient1)" text-rendering="geometricPrecision" shape-rendering="geometricPrecision" transform="matrix(1,0,0,1,-161,-106)" stroke="url(#linearGradient1)">
      <rect x="558.5" width="187" height="184.9" y="121.3333" clip-path="url(#clipPath2)" stroke="none"/>
      <rect x="558.5" y="121.3333" clip-path="url(#clipPath2)" fill="rgb(255,115,240)" width="1" height="184.9" stroke="none"/>
      <rect x="559.5" y="121.3333" clip-path="url(#clipPath2)" fill="rgb(255,115,240)" width="185" height="1" stroke="none"/>
      <rect x="559.5" y="305.2333" clip-path="url(#clipPath2)" fill="rgb(178,56,117)" width="186" height="1" stroke="none"/>
      <rect x="744.5" y="121.3333" clip-path="url(#clipPath2)" fill="rgb(178,56,117)" width="1" height="183.9" stroke="none"/>
      <path fill="url(#linearGradient2)" d="M176.5 229.7344 L187.8 203.7344 L278.2 203.7344 L289.5 229.7344 L278.2 255.7344 L187.8 255.7344 Z" clip-path="url(#clipPath2)" fill-rule="evenodd" stroke="none"/>
    </g>
    <g text-rendering="geometricPrecision" stroke-miterlimit="1.45" shape-rendering="geometricPrecision" transform="matrix(1,0,0,1,-161,-106)" stroke-linecap="butt">
      <path fill="none" d="M176.5 229.7344 L187.8 203.7344 L278.2 203.7344 L289.5 229.7344 L278.2 255.7344 L187.8 255.7344 Z" fill-rule="evenodd" clip-path="url(#clipPath2)"/>
      <text x="189.5762" xml:space="preserve" y="226.9043" clip-path="url(#clipPath2)" font-family="sans-serif" stroke="none">ViewDefinition</text>
      <text x="209.958" xml:space="preserve" y="240.873" clip-path="url(#clipPath2)" font-family="sans-serif" stroke="none">Catalog</text>
    </g>
    <g fill="rgb(255,81,168)" text-rendering="geometricPrecision" shape-rendering="geometricPrecision" transform="matrix(1,0,0,1,-161,-106)" stroke="rgb(255,81,168)">
      <rect x="310" width="224" height="184.9" y="121.3333" clip-path="url(#clipPath2)" stroke="none"/>
      <rect x="310" y="121.3333" clip-path="url(#clipPath2)" fill="rgb(255,115,240)" width="1" height="184.9" stroke="none"/>
      <rect x="311" y="121.3333" clip-path="url(#clipPath2)" fill="rgb(255,115,240)" width="222" height="1" stroke="none"/>
      <rect x="311" y="305.2333" clip-path="url(#clipPath2)" fill="rgb(178,56,117)" width="223" height="1" stroke="none"/>
      <rect x="533" y="121.3333" clip-path="url(#clipPath2)" fill="rgb(178,56,117)" width="1" height="183.9" stroke="none"/>
    </g>
    <g stroke-linecap="butt" transform="matrix(1,0,0,1,-161,-106)" text-rendering="geometricPrecision" font-family="sans-serif" shape-rendering="geometricPrecision" font-weight="bold" stroke-miterlimit="1.45">
      <text x="316" xml:space="preserve" y="138.472" clip-path="url(#clipPath2)" stroke="none">Backend</text>
    </g>
    <g fill="url(#linearGradient3)" text-rendering="geometricPrecision" shape-rendering="geometricPrecision" transform="matrix(1,0,0,1,-161,-106)" stroke="url(#linearGradient3)">
      <rect x="319.5" y="149.5" clip-path="url(#clipPath2)" width="139.2" rx="4" ry="4" height="146.3333" stroke="none"/>
    </g>
    <g text-rendering="geometricPrecision" stroke-miterlimit="1.45" shape-rendering="geometricPrecision" transform="matrix(1,0,0,1,-161,-106)" stroke-linecap="butt">
      <rect x="319.5" y="149.5" clip-path="url(#clipPath2)" fill="none" width="139.2" rx="4" ry="4" height="146.3333"/>
      <text x="363.7992" xml:space="preserve" y="166.6387" clip-path="url(#clipPath2)" font-family="sans-serif" stroke="none">Services</text>
    </g>
    <g fill="url(#linearGradient4)" text-rendering="geometricPrecision" shape-rendering="geometricPrecision" transform="matrix(1,0,0,1,-161,-106)" stroke="url(#linearGradient4)">
      <rect x="330" y="255.7343" clip-path="url(#clipPath2)" width="118.2" rx="4" ry="4" height="31.5333" stroke="none"/>
    </g>
    <g text-rendering="geometricPrecision" stroke-miterlimit="1.45" shape-rendering="geometricPrecision" transform="matrix(1,0,0,1,-161,-106)" stroke-linecap="butt">
      <rect x="330" y="255.7343" clip-path="url(#clipPath2)" fill="none" width="118.2" rx="4" ry="4" height="31.5333"/>
      <text x="345.3676" font-size="8px" y="274.2705" clip-path="url(#clipPath2)" font-family="sans-serif" stroke="none" xml:space="preserve">ViewDefinitionService</text>
    </g>
    <g fill="url(#linearGradient5)" text-rendering="geometricPrecision" shape-rendering="geometricPrecision" transform="matrix(1,0,0,1,-161,-106)" stroke="url(#linearGradient5)">
      <rect x="330" y="180.5" clip-path="url(#clipPath2)" width="118.2" rx="4" ry="4" height="31.5333" stroke="none"/>
    </g>
    <g text-rendering="geometricPrecision" stroke-miterlimit="1.45" shape-rendering="geometricPrecision" transform="matrix(1,0,0,1,-161,-106)" stroke-linecap="butt">
      <rect x="330" y="180.5" clip-path="url(#clipPath2)" fill="none" width="118.2" rx="4" ry="4" height="31.5333"/>
    </g>
    <g fill="url(#linearGradient6)" text-rendering="geometricPrecision" shape-rendering="geometricPrecision" transform="matrix(1,0,0,1,-161,-106)" stroke="url(#linearGradient6)">
      <rect x="330" y="182.6692" clip-path="url(#clipPath2)" width="118.2" rx="4" ry="4" height="31.5333" stroke="none"/>
    </g>
    <g text-rendering="geometricPrecision" stroke-miterlimit="1.45" shape-rendering="geometricPrecision" transform="matrix(1,0,0,1,-161,-106)" stroke-linecap="butt">
      <rect x="330" y="182.6692" clip-path="url(#clipPath2)" fill="none" width="118.2" rx="4" ry="4" height="31.5333"/>
    </g>
    <g fill="url(#linearGradient7)" text-rendering="geometricPrecision" shape-rendering="geometricPrecision" transform="matrix(1,0,0,1,-161,-106)" stroke="url(#linearGradient7)">
      <rect x="330" y="185.1491" clip-path="url(#clipPath2)" width="118.2" rx="4" ry="4" height="31.5333" stroke="none"/>
    </g>
    <g text-rendering="geometricPrecision" stroke-miterlimit="1.45" shape-rendering="geometricPrecision" transform="matrix(1,0,0,1,-161,-106)" stroke-linecap="butt">
      <rect x="330" y="185.1491" clip-path="url(#clipPath2)" fill="none" width="118.2" rx="4" ry="4" height="31.5333"/>
      <text x="332.6703" font-size="8px" y="203.6853" clip-path="url(#clipPath2)" font-family="sans-serif" stroke="none" xml:space="preserve">ViewDefinitionParserService</text>
    </g>
    <g fill="url(#linearGradient8)" text-rendering="geometricPrecision" shape-rendering="geometricPrecision" transform="matrix(1,0,0,1,-161,-106)" stroke="url(#linearGradient8)">
      <rect x="458.7" y="149.5" clip-path="url(#clipPath2)" width="66.3" rx="4" ry="4" height="146.3333" stroke="none"/>
    </g>
    <g text-rendering="geometricPrecision" stroke-miterlimit="1.45" shape-rendering="geometricPrecision" transform="matrix(1,0,0,1,-161,-106)" stroke-linecap="butt">
      <rect x="458.7" y="149.5" clip-path="url(#clipPath2)" fill="none" width="66.3" rx="4" ry="4" height="146.3333"/>
      <text x="482.3578" xml:space="preserve" y="166.6387" clip-path="url(#clipPath2)" font-family="sans-serif" stroke="none">API</text>
    </g>
    <g fill="url(#linearGradient9)" text-rendering="geometricPrecision" shape-rendering="geometricPrecision" transform="matrix(1,0,0,1,-161,-106)" stroke="url(#linearGradient9)">
      <rect x="467.8" y="182.2982" clip-path="url(#clipPath2)" width="50.2" rx="4" ry="4" height="90.7333" stroke="none"/>
    </g>
    <g text-rendering="geometricPrecision" stroke-miterlimit="1.45" shape-rendering="geometricPrecision" transform="matrix(1,0,0,1,-161,-106)" stroke-linecap="butt">
      <rect x="467.8" y="182.2982" clip-path="url(#clipPath2)" fill="none" width="50.2" rx="4" ry="4" height="90.7333"/>
      <text x="476.3707" font-size="8px" y="230.4344" clip-path="url(#clipPath2)" font-family="sans-serif" stroke="none" xml:space="preserve">ViewDef</text>
    </g>
    <g fill="rgb(255,81,168)" text-rendering="geometricPrecision" shape-rendering="geometricPrecision" transform="matrix(1,0,0,1,-161,-106)" stroke="rgb(255,81,168)">
      <path d="M588.5 141.0567 L702.8 141.0567 L715.5 169.92 L702.8 198.7833 L588.5 198.7833 L601.2 169.92 Z" fill-rule="evenodd" clip-path="url(#clipPath2)" stroke="none"/>
    </g>
    <g text-rendering="geometricPrecision" stroke-miterlimit="1.45" shape-rendering="geometricPrecision" transform="matrix(1,0,0,1,-161,-106)" stroke-linecap="butt">
      <path fill="none" d="M588.5 141.0567 L702.8 141.0567 L715.5 169.92 L702.8 198.7833 L588.5 198.7833 L601.2 169.92 Z" fill-rule="evenodd" clip-path="url(#clipPath2)"/>
      <text x="608.5762" xml:space="preserve" y="167.0899" clip-path="url(#clipPath2)" font-family="sans-serif" stroke="none">ViewDefinition</text>
      <text x="609.2881" xml:space="preserve" y="181.0587" clip-path="url(#clipPath2)" font-family="sans-serif" stroke="none">(main canvas)</text>
    </g>
    <g fill="rgb(255,81,168)" text-rendering="geometricPrecision" shape-rendering="geometricPrecision" transform="matrix(1,0,0,1,-161,-106)" stroke="rgb(255,81,168)">
      <path d="M580.5 217.45 L694.8 217.45 L707.5 246.3133 L694.8 275.1767 L580.5 275.1767 L593.2 246.3133 Z" fill-rule="evenodd" clip-path="url(#clipPath2)" stroke="none"/>
    </g>
    <g text-rendering="geometricPrecision" stroke-miterlimit="1.45" shape-rendering="geometricPrecision" transform="matrix(1,0,0,1,-161,-106)" stroke-linecap="butt">
      <path fill="none" d="M580.5 217.45 L694.8 217.45 L707.5 246.3133 L694.8 275.1767 L580.5 275.1767 L593.2 246.3133 Z" fill-rule="evenodd" clip-path="url(#clipPath2)"/>
    </g>
    <g fill="rgb(255,81,168)" text-rendering="geometricPrecision" shape-rendering="geometricPrecision" transform="matrix(1,0,0,1,-161,-106)" stroke="rgb(255,81,168)">
      <path d="M588.5 223.1167 L702.8 223.1167 L715.5 251.98 L702.8 280.8434 L588.5 280.8434 L601.2 251.98 Z" fill-rule="evenodd" clip-path="url(#clipPath2)" stroke="none"/>
    </g>
    <g text-rendering="geometricPrecision" stroke-miterlimit="1.45" shape-rendering="geometricPrecision" transform="matrix(1,0,0,1,-161,-106)" stroke-linecap="butt">
      <path fill="none" d="M588.5 223.1167 L702.8 223.1167 L715.5 251.98 L702.8 280.8434 L588.5 280.8434 L601.2 251.98 Z" fill-rule="evenodd" clip-path="url(#clipPath2)"/>
    </g>
    <g fill="rgb(255,81,168)" text-rendering="geometricPrecision" shape-rendering="geometricPrecision" transform="matrix(1,0,0,1,-161,-106)" stroke="rgb(255,81,168)">
      <path d="M599.5 228.7833 L713.8 228.7833 L726.5 257.6467 L713.8 286.51 L599.5 286.51 L612.2 257.6467 Z" fill-rule="evenodd" clip-path="url(#clipPath2)" stroke="none"/>
    </g>
    <g text-rendering="geometricPrecision" stroke-miterlimit="1.45" shape-rendering="geometricPrecision" transform="matrix(1,0,0,1,-161,-106)" stroke-linecap="butt">
      <path fill="none" d="M599.5 228.7833 L713.8 228.7833 L726.5 257.6467 L713.8 286.51 L599.5 286.51 L612.2 257.6467 Z" fill-rule="evenodd" clip-path="url(#clipPath2)"/>
      <text x="617.9766" xml:space="preserve" y="245.922" clip-path="url(#clipPath2)" font-family="sans-serif" stroke="none">Step Extension</text>
    </g>
    <g fill="rgb(142,142,255)" text-rendering="geometricPrecision" shape-rendering="geometricPrecision" transform="matrix(1,0,0,1,-161,-106)" stroke="rgb(142,142,255)">
      <path d="M627.5 250.8434 L706.7 250.8434 L715.5 280.8434 L636.3 280.8434 Z" fill-rule="evenodd" clip-path="url(#clipPath2)" stroke="none"/>
    </g>
    <g text-rendering="geometricPrecision" stroke-miterlimit="1.45" shape-rendering="geometricPrecision" transform="matrix(1,0,0,1,-161,-106)" stroke-linecap="butt">
      <path fill="none" d="M627.5 250.8434 L706.7 250.8434 L715.5 280.8434 L636.3 280.8434 Z" fill-rule="evenodd" clip-path="url(#clipPath2)"/>
      <text x="666.0244" xml:space="preserve" y="269.9976" clip-path="url(#clipPath2)" font-family="sans-serif" stroke="none">id</text>
      <path fill="none" d="M329.9735 271.5013 L233 272 L233 263.7466" clip-path="url(#clipPath2)"/>
      <path d="M233 255.7466 L228 267.7466 L233 264.7466 L238 267.7466 Z" clip-path="url(#clipPath2)" stroke="none"/>
      <rect x="255.3809" y="262.8195" clip-path="url(#clipPath2)" fill="white" width="31.4922" height="17.9688" stroke="none"/>
      <text x="257.3809" xml:space="preserve" y="275.9582" clip-path="url(#clipPath2)" font-family="sans-serif" stroke="none">uses</text>
      <path fill="none" d="M329.9792 186.8067 L235.4565 186.8067 L235.4565 195.734" clip-path="url(#clipPath2)"/>
      <path d="M235.4565 203.734 L240.4565 191.734 L235.4565 194.734 L230.4565 191.734 Z" clip-path="url(#clipPath2)" stroke="none"/>
      <rect x="250.4084" y="177.8223" clip-path="url(#clipPath2)" fill="white" width="39.7598" height="17.9688" stroke="none"/>
      <text x="252.4084" xml:space="preserve" y="190.961" clip-path="url(#clipPath2)" font-family="sans-serif" stroke="none">builds</text>
      <path fill="none" stroke-dasharray="4,3,0,3" d="M448.1921 283.6649 L492.9 283.6649 L492.9 273.0281" clip-path="url(#clipPath2)" stroke-linecap="round"/>
      <path fill="none" stroke-dasharray="4,3,0,3" d="M448.1756 200.9158 L467.7779 200.9158" clip-path="url(#clipPath2)" stroke-linecap="round"/>
      <path fill="none" d="M518.0317 213.7833 L550.4904 213.7833" clip-path="url(#clipPath2)"/>
      <path d="M558.4904 213.7833 L546.4904 208.7833 L549.4904 213.7833 L546.4904 218.7833 Z" clip-path="url(#clipPath2)" stroke="none"/>
    </g>
  </g>
</svg>
